  0
SECTION
  2
HEADER
  9
$ACADVER
  1
AC1024
  9
$ACADMAINTVER
 70
     6
  9
$DWGCODEPAGE
  3
ANSI_1252
  9
$LASTSAVEDBY
  1
mehme
  9
$INSBASE
 10
0.0
 20
0.0
 30
0.0
  9
$EXTMIN
 10
750303.771
 20
4169196.735579278
 30
920.47802734375
  9
$EXTMAX
 10
750498.150222064
 20
4169503.266
 30
944.1890258789062
  9
$LIMMIN
 10
0.0
 20
0.0
  9
$LIMMAX
 10
420.0
 20
297.0
  9
$ORTHOMODE
 70
     0
  9
$REGENMODE
 70
     1
  9
$FILLMODE
 70
     1
  9
$QTEXTMODE
 70
     0
  9
$MIRRTEXT
 70
     1
  9
$LTSCALE
 40
1.0
  9
$ATTMODE
 70
     1
  9
$TEXTSIZE
 40
2.5
  9
$TRACEWID
 40
1.0
  9
$TEXTSTYLE
  7
Standard
  9
$CLAYER
  8
ARAPGALERI
  9
$CELTYPE
  6
ByLayer
  9
$CECOLOR
 62
   256
  9
$CELTSCALE
 40
1.0
  9
$DISPSILH
 70
     0
  9
$DIMSCALE
 40
1.0
  9
$DIMASZ
 40
2.5
  9
$DIMEXO
 40
0.625
  9
$DIMDLI
 40
3.75
  9
$DIMRND
 40
0.0
  9
$DIMDLE
 40
0.0
  9
$DIMEXE
 40
1.25
  9
$DIMTP
 40
0.0
  9
$DIMTM
 40
0.0
  9
$DIMTXT
 40
2.5
  9
$DIMCEN
 40
2.5
  9
$DIMTSZ
 40
0.0
  9
$DIMTOL
 70
     0
  9
$DIMLIM
 70
     0
  9
$DIMTIH
 70
     0
  9
$DIMTOH
 70
     0
  9
$DIMSE1
 70
     0
  9
$DIMSE2
 70
     0
  9
$DIMTAD
 70
     1
  9
$DIMZIN
 70
     8
  9
$DIMBLK
  1

  9
$DIMASO
 70
     1
  9
$DIMSHO
 70
     1
  9
$DIMPOST
  1

  9
$DIMAPOST
  1

  9
$DIMALT
 70
     0
  9
$DIMALTD
 70
     3
  9
$DIMALTF
 40
0.03937007874016
  9
$DIMLFAC
 40
1.0
  9
$DIMTOFL
 70
     1
  9
$DIMTVP
 40
0.0
  9
$DIMTIX
 70
     0
  9
$DIMSOXD
 70
     0
  9
$DIMSAH
 70
     0
  9
$DIMBLK1
  1

  9
$DIMBLK2
  1

  9
$DIMSTYLE
  2
ISO-25
  9
$DIMCLRD
 70
     0
  9
$DIMCLRE
 70
     0
  9
$DIMCLRT
 70
     0
  9
$DIMTFAC
 40
1.0
  9
$DIMGAP
 40
0.625
  9
$DIMJUST
 70
     0
  9
$DIMSD1
 70
     0
  9
$DIMSD2
 70
     0
  9
$DIMTOLJ
 70
     0
  9
$DIMTZIN
 70
     8
  9
$DIMALTZ
 70
     0
  9
$DIMALTTZ
 70
     0
  9
$DIMUPT
 70
     0
  9
$DIMDEC
 70
     2
  9
$DIMTDEC
 70
     2
  9
$DIMALTU
 70
     2
  9
$DIMALTTD
 70
     3
  9
$DIMTXSTY
  7
Standard
  9
$DIMAUNIT
 70
     0
  9
$DIMADEC
 70
     0
  9
$DIMALTRND
 40
0.0
  9
$DIMAZIN
 70
     0
  9
$DIMDSEP
 70
    44
  9
$DIMATFIT
 70
     3
  9
$DIMFRAC
 70
     0
  9
$DIMLDRBLK
  1

  9
$DIMLUNIT
 70
     2
  9
$DIMLWD
 70
    -2
  9
$DIMLWE
 70
    -2
  9
$DIMTMOVE
 70
     0
  9
$DIMFXL
 40
1.0
  9
$DIMFXLON
 70
     0
  9
$DIMJOGANG
 40
0.7853981633974483
  9
$DIMTFILL
 70
     0
  9
$DIMTFILLCLR
 70
     0
  9
$DIMARCSYM
 70
     0
  9
$DIMLTYPE
  6

  9
$DIMLTEX1
  6

  9
$DIMLTEX2
  6

  9
$DIMTXTDIRECTION
 70
     0
  9
$LUNITS
 70
     2
  9
$LUPREC
 70
     4
  9
$SKETCHINC
 40
1.0
  9
$FILLETRAD
 40
10.0
  9
$AUNITS
 70
     0
  9
$AUPREC
 70
     0
  9
$MENU
  1
.
  9
$ELEVATION
 40
0.0
  9
$PELEVATION
 40
0.0
  9
$THICKNESS
 40
0.0
  9
$LIMCHECK
 70
     0
  9
$CHAMFERA
 40
10.0
  9
$CHAMFERB
 40
10.0
  9
$CHAMFERC
 40
20.0
  9
$CHAMFERD
 40
0.0
  9
$SKPOLY
 70
     0
  9
$TDCREATE
 40
2457877.695883565
  9
$TDUCREATE
 40
2457877.570883565
  9
$TDUPDATE
 40
2457878.032652975
  9
$TDUUPDATE
 40
2457877.907652975
  9
$TDINDWG
 40
0.0012477662
  9
$TDUSRTIMER
 40
2457877.864777639
  9
$USRTIMER
 70
     1
  9
$ANGBASE
 50
0.0
  9
$ANGDIR
 70
     0
  9
$PDMODE
 70
     0
  9
$PDSIZE
 40
0.0
  9
$PLINEWID
 40
0.0
  9
$SPLFRAME
 70
     0
  9
$SPLINETYPE
 70
     6
  9
$SPLINESEGS
 70
     8
  9
$HANDSEED
  5
407
  9
$SURFTAB1
 70
     6
  9
$SURFTAB2
 70
     6
  9
$SURFTYPE
 70
     6
  9
$SURFU
 70
     6
  9
$SURFV
 70
     6
  9
$UCSBASE
  2

  9
$UCSNAME
  2

  9
$UCSORG
 10
0.0
 20
0.0
 30
0.0
  9
$UCSXDIR
 10
1.0
 20
0.0
 30
0.0
  9
$UCSYDIR
 10
0.0
 20
1.0
 30
0.0
  9
$UCSORTHOREF
  2

  9
$UCSORTHOVIEW
 70
     1
  9
$UCSORGTOP
 10
0.0
 20
0.0
 30
0.0
  9
$UCSORGBOTTOM
 10
0.0
 20
0.0
 30
0.0
  9
$UCSORGLEFT
 10
0.0
 20
0.0
 30
0.0
  9
$UCSORGRIGHT
 10
0.0
 20
0.0
 30
0.0
  9
$UCSORGFRONT
 10
0.0
 20
0.0
 30
0.0
  9
$UCSORGBACK
 10
0.0
 20
0.0
 30
0.0
  9
$PUCSBASE
  2

  9
$PUCSNAME
  2

  9
$PUCSORG
 10
0.0
 20
0.0
 30
0.0
  9
$PUCSXDIR
 10
1.0
 20
0.0
 30
0.0
  9
$PUCSYDIR
 10
0.0
 20
1.0
 30
0.0
  9
$PUCSORTHOREF
  2

  9
$PUCSORTHOVIEW
 70
     0
  9
$PUCSORGTOP
 10
0.0
 20
0.0
 30
0.0
  9
$PUCSORGBOTTOM
 10
0.0
 20
0.0
 30
0.0
  9
$PUCSORGLEFT
 10
0.0
 20
0.0
 30
0.0
  9
$PUCSORGRIGHT
 10
0.0
 20
0.0
 30
0.0
  9
$PUCSORGFRONT
 10
0.0
 20
0.0
 30
0.0
  9
$PUCSORGBACK
 10
0.0
 20
0.0
 30
0.0
  9
$USERI1
 70
     0
  9
$USERI2
 70
     0
  9
$USERI3
 70
     0
  9
$USERI4
 70
     0
  9
$USERI5
 70
     0
  9
$USERR1
 40
0.0
  9
$USERR2
 40
0.0
  9
$USERR3
 40
0.0
  9
$USERR4
 40
0.0
  9
$USERR5
 40
0.0
  9
$WORLDVIEW
 70
     1
  9
$SHADEDGE
 70
     3
  9
$SHADEDIF
 70
    70
  9
$TILEMODE
 70
     1
  9
$MAXACTVP
 70
    64
  9
$PINSBASE
 10
0.0
 20
0.0
 30
0.0
  9
$PLIMCHECK
 70
     0
  9
$PEXTMIN
 10
1.000000000000000E+20
 20
1.000000000000000E+20
 30
1.000000000000000E+20
  9
$PEXTMAX
 10
-1.000000000000000E+20
 20
-1.000000000000000E+20
 30
-1.000000000000000E+20
  9
$PLIMMIN
 10
0.0
 20
0.0
  9
$PLIMMAX
 10
0.0
 20
0.0
  9
$UNITMODE
 70
     0
  9
$VISRETAIN
 70
     1
  9
$PLINEGEN
 70
     0
  9
$PSLTSCALE
 70
     1
  9
$TREEDEPTH
 70
  3020
  9
$CMLSTYLE
  2
Standard
  9
$CMLJUST
 70
     0
  9
$CMLSCALE
 40
20.0
  9
$PROXYGRAPHICS
 70
     1
  9
$MEASUREMENT
 70
     1
  9
$CELWEIGHT
370
    -1
  9
$ENDCAPS
280
     0
  9
$JOINSTYLE
280
     0
  9
$LWDISPLAY
290
     0
  9
$INSUNITS
 70
     4
  9
$HYPERLINKBASE
  1

  9
$STYLESHEET
  1

  9
$XEDIT
290
     1
  9
$CEPSNTYPE
380
     0
  9
$PSTYLEMODE
290
     1
  9
$FINGERPRINTGUID
  2
{E4101BCF-46C1-4B46-A39A-5173A409642E}
  9
$VERSIONGUID
  2
{FAEB1C32-E019-11D5-929B-00C0DF256EC4}
  9
$EXTNAMES
290
     1
  9
$PSVPSCALE
 40
0.0
  9
$OLESTARTUP
290
     0
  9
$SORTENTS
280
   127
  9
$INDEXCTL
280
     0
  9
$HIDETEXT
280
     1
  9
$XCLIPFRAME
280
     0
  9
$HALOGAP
280
     0
  9
$OBSCOLOR
 70
   257
  9
$OBSLTYPE
280
     0
  9
$INTERSECTIONDISPLAY
280
     0
  9
$INTERSECTIONCOLOR
 70
   257
  9
$DIMASSOC
280
     2
  9
$PROJECTNAME
  1

  9
$CAMERADISPLAY
290
     0
  9
$LENSLENGTH
 40
50.0
  9
$CAMERAHEIGHT
 40
0.0
  9
$STEPSPERSEC
 40
2.0
  9
$STEPSIZE
 40
6.0
  9
$3DDWFPREC
 40
2.0
  9
$PSOLWIDTH
 40
5.0
  9
$PSOLHEIGHT
 40
80.0
  9
$LOFTANG1
 40
1.570796326794897
  9
$LOFTANG2
 40
1.570796326794897
  9
$LOFTMAG1
 40
0.0
  9
$LOFTMAG2
 40
0.0
  9
$LOFTPARAM
 70
     7
  9
$LOFTNORMALS
280
     1
  9
$LATITUDE
 40
37.795
  9
$LONGITUDE
 40
-122.394
  9
$NORTHDIRECTION
 40
0.0
  9
$TIMEZONE
 70
 -8000
  9
$LIGHTGLYPHDISPLAY
280
     1
  9
$TILEMODELIGHTSYNCH
280
     1
  9
$SOLIDHIST
280
     1
  9
$SHOWHIST
280
     1
  9
$DWFFRAME
280
     2
  9
$DGNFRAME
280
     2
  9
$REALWORLDSCALE
290
     1
  9
$INTERFERECOLOR
 62
   256
  9
$CSHADOW
280
     0
  9
$SHADOWPLANELOCATION
 40
0.0
  0
ENDSEC
  0
SECTION
  2
CLASSES
  0
CLASS
  1
ACDBDICTIONARYWDFLT
  2
AcDbDictionaryWithDefault
  3
ObjectDBX Classes
 90
        0
 91
        4
280
     0
281
     0
  0
CLASS
  1
VISUALSTYLE
  2
AcDbVisualStyle
  3
ObjectDBX Classes
 90
     4095
 91
        4
280
     0
281
     0
  0
CLASS
  1
MATERIAL
  2
AcDbMaterial
  3
ObjectDBX Classes
 90
     1153
 91
        4
280
     0
281
     0
  0
CLASS
  1
SCALE
  2
AcDbScale
  3
ObjectDBX Classes
 90
     1153
 91
        4
280
     0
281
     0
  0
CLASS
  1
TABLESTYLE
  2
AcDbTableStyle
  3
ObjectDBX Classes
 90
     4095
 91
        4
280
     0
281
     0
  0
CLASS
  1
MLEADERSTYLE
  2
AcDbMLeaderStyle
  3
ACDB_MLEADERSTYLE_CLASS
 90
     4095
 91
        4
280
     0
281
     0
  0
CLASS
  1
SUN
  2
AcDbSun
  3
SCENEOE
 90
     1153
 91
        4
280
     0
281
     0
  0
CLASS
  1
RASTERVARIABLES
  2
AcDbRasterVariables
  3
ISM
 90
        0
 91
        4
280
     0
281
     0
  0
CLASS
  1
DICTIONARYVAR
  2
AcDbDictionaryVar
  3
ObjectDBX Classes
 90
        0
 91
        4
280
     0
281
     0
  0
CLASS
  1
CELLSTYLEMAP
  2
AcDbCellStyleMap
  3
ObjectDBX Classes
 90
     1152
 91
        4
280
     0
281
     0
  0
ENDSEC
  0
SECTION
  2
TABLES
  0
TABLE
  2
VPORT
  5
8
330
0
100
AcDbSymbolTable
 70
     1
  0
VPORT
  5
29
330
8
100
AcDbSymbolTableRecord
100
AcDbViewportTableRecord
  2
*Active
 70
     0
 10
0.0
 20
0.0
 11
1.0
 21
1.0
 12
-1173408.430815866
 22
-2553708.091164734
 13
0.0
 23
0.0
 14
10.0
 24
10.0
 15
10.0
 25
10.0
 16
0.0
 26
0.0
 36
1.0
 17
1923694.515707149
 27
6723067.880141928
 37
3170879.439970557
 40
312.6610291359386
 41
2.120283018867925
 42
50.0
 43
0.0
 44
0.0
 50
0.0
 51
0.0
 71
    16
 72
   100
 73
     1
 74
     3
 75
     0
 76
     0
 77
     0
 78
     0
281
     0
 65
     1
110
0.0
120
0.0
130
0.0
111
1.0
121
0.0
131
0.0
112
0.0
122
1.0
132
0.0
 79
     1
146
0.0
348
2F
 60
     3
 61
     5
292
     1
282
     1
141
0.0
142
0.0
 63
   250
361
2D5
  0
ENDTAB
  0
TABLE
  2
LTYPE
  5
5
330
0
100
AcDbSymbolTable
 70
     1
  0
LTYPE
  5
14
330
5
100
AcDbSymbolTableRecord
100
AcDbLinetypeTableRecord
  2
ByBlock
 70
     0
  3

 72
    65
 73
     0
 40
0.0
  0
LTYPE
  5
15
330
5
100
AcDbSymbolTableRecord
100
AcDbLinetypeTableRecord
  2
ByLayer
 70
     0
  3

 72
    65
 73
     0
 40
0.0
  0
LTYPE
  5
16
330
5
100
AcDbSymbolTableRecord
100
AcDbLinetypeTableRecord
  2
Continuous
 70
     0
  3
Solid line
 72
    65
 73
     0
 40
0.0
  0
ENDTAB
  0
TABLE
  2
LAYER
  5
2
102
{ACAD_XDICTIONARY
360
2D7
102
}
330
0
100
AcDbSymbolTable
 70
     4
  0
LAYER
  5
10
330
2
100
AcDbSymbolTableRecord
100
AcDbLayerTableRecord
  2
0
 70
     4
 62
     7
  6
Continuous
370
    -3
390
F
347
3E
  0
LAYER
  5
3F
330
2
100
AcDbSymbolTableRecord
100
AcDbLayerTableRecord
  2
ARAPGALERI
 70
     4
 62
     1
  6
Continuous
370
    13
390
F
347
3E
  0
LAYER
  5
2DC
330
2
100
AcDbSymbolTableRecord
100
AcDbLayerTableRecord
  2
INIT_COORD
 70
     4
 62
     5
  6
Continuous
370
    -3
390
F
347
3E
1001
AcAecLayerStandard
1000

1000

  0
LAYER
  5
2DE
330
2
100
AcDbSymbolTableRecord
100
AcDbLayerTableRecord
  2
GEOFENCE
 70
     0
 62
     3
  6
Continuous
370
    -3
390
F
347
3E
1001
AcAecLayerStandard
1000

1000

  0
ENDTAB
  0
TABLE
  2
STYLE
  5
3
330
0
100
AcDbSymbolTable
 70
     3
  0
STYLE
  5
11
330
3
100
AcDbSymbolTableRecord
100
AcDbTextStyleTableRecord
  2
Standard
 70
     0
 40
0.0
 41
1.0
 50
0.0
 71
     0
 42
2.5
  3
C:\Windows\Font\TIMES.TTF
  4

  0
STYLE
  5
40
330
3
100
AcDbSymbolTableRecord
100
AcDbTextStyleTableRecord
  2
STYLE0
 70
     0
 40
0.0
 41
1.0
 50
0.0
 71
     0
 42
0.2
  3
TXT.SHX
  4

1001
ACAD
1000
TXT.SHX
1071
      256
  0
STYLE
  5
41
330
3
100
AcDbSymbolTableRecord
100
AcDbTextStyleTableRecord
  2
STYLE0P
 70
     0
 40
0.2
 41
1.0
 50
0.0
 71
     0
 42
0.2
  3
TXT.SHX
  4

1001
ACAD
1000
TXT.SHX
1071
 16777472
  0
ENDTAB
  0
TABLE
  2
VIEW
  5
6
330
0
100
AcDbSymbolTable
 70
     0
  0
ENDTAB
  0
TABLE
  2
UCS
  5
7
330
0
100
AcDbSymbolTable
 70
     0
  0
ENDTAB
  0
TABLE
  2
APPID
  5
9
330
0
100
AcDbSymbolTable
 70
     2
  0
APPID
  5
12
330
9
100
AcDbSymbolTableRecord
100
AcDbRegAppTableRecord
  2
ACAD
 70
     0
  0
APPID
  5
2DD
330
9
100
AcDbSymbolTableRecord
100
AcDbRegAppTableRecord
  2
AcAecLayerStandard
 70
     0
  0
ENDTAB
  0
TABLE
  2
DIMSTYLE
  5
A
330
0
100
AcDbSymbolTable
 70
     1
100
AcDbDimStyleTable
  0
DIMSTYLE
105
27
330
A
100
AcDbSymbolTableRecord
100
AcDbDimStyleTableRecord
  2
ISO-25
 70
     0
 41
2.5
 42
0.625
 43
3.75
 44
1.25
 73
     0
 74
     0
 77
     1
 78
     8
140
2.5
141
2.5
143
0.03937007874016
147
0.625
171
     3
172
     1
178
     0
271
     2
272
     2
274
     3
278
    44
283
     0
284
     8
340
11
  0
ENDTAB
  0
TABLE
  2
BLOCK_RECORD
  5
1
330
0
100
AcDbSymbolTable
 70
     1
  0
BLOCK_RECORD
  5
1F
330
1
100
AcDbSymbolTableRecord
100
AcDbBlockTableRecord
  2
*Model_Space
340
22
 70
     0
280
     1
281
     0
  0
BLOCK_RECORD
  5
1B
330
1
100
AcDbSymbolTableRecord
100
AcDbBlockTableRecord
  2
*Paper_Space
340
1E
 70
     0
280
     1
281
     0
  0
BLOCK_RECORD
  5
23
330
1
100
AcDbSymbolTableRecord
100
AcDbBlockTableRecord
  2
*Paper_Space0
340
26
 70
     0
280
     1
281
     0
  0
ENDTAB
  0
ENDSEC
  0
SECTION
  2
BLOCKS
  0
BLOCK
  5
20
330
1F
100
AcDbEntity
  8
0
100
AcDbBlockBegin
  2
*Model_Space
 70
     0
 10
0.0
 20
0.0
 30
0.0
  3
*Model_Space
  1

  0
ENDBLK
  5
21
330
1F
100
AcDbEntity
  8
0
100
AcDbBlockEnd
  0
BLOCK
  5
1C
330
1B
100
AcDbEntity
 67
     1
  8
0
100
AcDbBlockBegin
  2
*Paper_Space
 70
     0
 10
0.0
 20
0.0
 30
0.0
  3
*Paper_Space
  1

  0
ENDBLK
  5
1D
330
1B
100
AcDbEntity
 67
     1
  8
0
100
AcDbBlockEnd
  0
BLOCK
  5
24
330
23
100
AcDbEntity
  8
0
100
AcDbBlockBegin
  2
*Paper_Space0
 70
     0
 10
0.0
 20
0.0
 30
0.0
  3
*Paper_Space0
  1

  0
ENDBLK
  5
25
330
23
100
AcDbEntity
  8
0
100
AcDbBlockEnd
  0
ENDSEC
  0
SECTION
  2
ENTITIES
  0
LINE
  5
42
330
1F
100
AcDbEntity
  8
ARAPGALERI
370
     0
100
AcDbLine
 10
750457.186
 20
4169299.285
 30
927.4739990234375
 11
750457.328
 21
4169302.512
 31
927.510009765625
  0
LINE
  5
43
330
1F
100
AcDbEntity
  8
ARAPGALERI
370
     0
100
AcDbLine
 10
750457.328
 20
4169302.512
 30
927.510009765625
 11
750457.46
 21
4169303.727
 31
927.343994140625
  0
LINE
  5
44
330
1F
100
AcDbEntity
  8
ARAPGALERI
370
     0
100
AcDbLine
 10
750457.46
 20
4169303.727
 30
927.343994140625
 11
750457.498
 21
4169304.275
 31
927.2449951171875
  0
LINE
  5
45
330
1F
100
AcDbEntity
  8
ARAPGALERI
370
     0
100
AcDbLine
 10
750457.498
 20
4169304.275
 30
927.2449951171875
 11
750457.55
 21
4169305.474
 31
927.2239990234375
  0
LINE
  5
46
330
1F
100
AcDbEntity
  8
ARAPGALERI
370
     0
100
AcDbLine
 10
750457.55
 20
4169305.474
 30
927.2239990234375
 11
750457.69
 21
4169309.492
 31
927.2169799804688
  0
LINE
  5
47
330
1F
100
AcDbEntity
  8
ARAPGALERI
370
     0
100
AcDbLine
 10
750457.69
 20
4169309.492
 30
927.2169799804688
 11
750457.633
 21
4169312.126
 31
927.1909790039062
  0
LINE
  5
48
330
1F
100
AcDbEntity
  8
ARAPGALERI
370
     0
100
AcDbLine
 10
750457.633
 20
4169312.126
 30
927.1909790039062
 11
750456.982
 21
4169312.256
 31
927.22900390625
  0
LINE
  5
49
330
1F
100
AcDbEntity
  8
ARAPGALERI
370
     0
100
AcDbLine
 10
750456.982
 20
4169312.256
 30
927.22900390625
 11
750456.658
 21
4169309.512
 31
927.2000122070312
  0
LINE
  5
4A
330
1F
100
AcDbEntity
  8
ARAPGALERI
370
     0
100
AcDbLine
 10
750456.658
 20
4169309.512
 30
927.2000122070312
 11
750456.428
 21
4169305.642
 31
927.2269897460938
  0
LINE
  5
4B
330
1F
100
AcDbEntity
  8
ARAPGALERI
370
     0
100
AcDbLine
 10
750456.428
 20
4169305.642
 30
927.2269897460938
 11
750456.216
 21
4169304.527
 31
927.27001953125
  0
LINE
  5
4C
330
1F
100
AcDbEntity
  8
ARAPGALERI
370
     0
100
AcDbLine
 10
750456.216
 20
4169304.527
 30
927.27001953125
 11
750456.164
 21
4169299.467
 31
927.4409790039062
  0
LINE
  5
4D
330
1F
100
AcDbEntity
  8
ARAPGALERI
370
     0
100
AcDbLine
 10
750436.072
 20
4169283.904
 30
926.8250122070312
 11
750436.454
 21
4169285.558
 31
927.4730224609375
  0
LINE
  5
4E
330
1F
100
AcDbEntity
  8
ARAPGALERI
370
     0
100
AcDbLine
 10
750434.419
 20
4169285.217
 30
927.2670288085938
 11
750434.612
 21
4169284.19
 31
927.0040283203125
  0
LINE
  5
4F
330
1F
100
AcDbEntity
  8
ARAPGALERI
370
     0
100
AcDbLine
 10
750434.612
 20
4169284.19
 30
927.0040283203125
 11
750436.072
 21
4169283.904
 31
926.8250122070312
  0
LINE
  5
50
330
1F
100
AcDbEntity
  8
ARAPGALERI
370
     0
100
AcDbLine
 10
750436.072
 20
4169283.904
 30
926.8250122070312
 11
750435.761
 21
4169282.492
 31
926.552978515625
  0
LINE
  5
51
330
1F
100
AcDbEntity
  8
ARAPGALERI
370
     0
100
AcDbLine
 10
750435.761
 20
4169282.492
 30
926.552978515625
 11
750434.195
 21
4169282.994
 31
926.4439697265625
  0
LINE
  5
52
330
1F
100
AcDbEntity
  8
ARAPGALERI
370
     0
100
AcDbLine
 10
750434.195
 20
4169282.994
 30
926.4439697265625
 11
750434.612
 21
4169284.19
 31
927.0040283203125
  0
LINE
  5
53
330
1F
100
AcDbEntity
  8
ARAPGALERI
370
     0
100
AcDbLine
 10
750435.417
 20
4169280.355
 30
925.0809936523438
 11
750432.399
 21
4169280.479
 31
924.7369995117188
  0
LINE
  5
54
330
1F
100
AcDbEntity
  8
ARAPGALERI
370
     0
100
AcDbLine
 10
750434.195
 20
4169282.994
 30
926.4439697265625
 11
750433.898
 21
4169282.035
 31
924.97802734375
  0
LINE
  5
55
330
1F
100
AcDbEntity
  8
ARAPGALERI
370
     0
100
AcDbLine
 10
750433.898
 20
4169282.035
 30
924.97802734375
 11
750432.828
 21
4169281.433
 31
924.7260131835938
  0
LINE
  5
56
330
1F
100
AcDbEntity
  8
ARAPGALERI
370
     0
100
AcDbLine
 10
750432.828
 20
4169281.433
 30
924.7260131835938
 11
750429.284
 21
4169282.002
 31
924.2659912109375
  0
LINE
  5
57
330
1F
100
AcDbEntity
  8
ARAPGALERI
370
     0
100
AcDbLine
 10
750429.284
 20
4169282.002
 30
924.2659912109375
 11
750426.61
 21
4169281.762
 31
923.9199829101562
  0
LINE
  5
58
330
1F
100
AcDbEntity
  8
ARAPGALERI
370
     0
100
AcDbLine
 10
750426.61
 20
4169281.762
 30
923.9199829101562
 11
750423.714
 21
4169280.58
 31
923.0159912109375
  0
LINE
  5
59
330
1F
100
AcDbEntity
  8
ARAPGALERI
370
     0
100
AcDbLine
 10
750423.714
 20
4169280.58
 30
923.0159912109375
 11
750420.509
 21
4169278.693
 31
922.27001953125
  0
LINE
  5
5A
330
1F
100
AcDbEntity
  8
ARAPGALERI
370
     0
100
AcDbLine
 10
750432.399
 20
4169280.479
 30
924.7369995117188
 11
750429.24
 21
4169280.869
 31
924.3590087890625
  0
LINE
  5
5B
330
1F
100
AcDbEntity
  8
ARAPGALERI
370
     0
100
AcDbLine
 10
750429.24
 20
4169280.869
 30
924.3590087890625
 11
750427.023
 21
4169280.898
 31
923.7589721679688
  0
LINE
  5
5C
330
1F
100
AcDbEntity
  8
ARAPGALERI
370
     0
100
AcDbLine
 10
750427.023
 20
4169280.898
 30
923.7589721679688
 11
750424.057
 21
4169279.41
 31
923.3670043945312
  0
LINE
  5
5D
330
1F
100
AcDbEntity
  8
ARAPGALERI
370
     0
100
AcDbLine
 10
750424.057
 20
4169279.41
 30
923.3670043945312
 11
750421.7
 21
4169277.84
 31
922.447998046875
  0
LINE
  5
5E
330
1F
100
AcDbEntity
  8
ARAPGALERI
370
     0
100
AcDbLine
 10
750420.509
 20
4169278.693
 30
922.27001953125
 11
750419.132
 21
4169275.84
 31
922.2730102539062
  0
LINE
  5
5F
330
1F
100
AcDbEntity
  8
ARAPGALERI
370
     0
100
AcDbLine
 10
750419.132
 20
4169275.84
 30
922.2730102539062
 11
750418.114
 21
4169273.724
 31
922.27001953125
  0
LINE
  5
60
330
1F
100
AcDbEntity
  8
ARAPGALERI
370
     0
100
AcDbLine
 10
750418.114
 20
4169273.724
 30
922.27001953125
 11
750417.363
 21
4169273.326
 31
922.39501953125
  0
LINE
  5
61
330
1F
100
AcDbEntity
  8
ARAPGALERI
370
     0
100
AcDbLine
 10
750417.363
 20
4169273.326
 30
922.39501953125
 11
750415.21
 21
4169275.279
 31
922.0369873046875
  0
LINE
  5
62
330
1F
100
AcDbEntity
  8
ARAPGALERI
370
     0
100
AcDbLine
 10
750415.21
 20
4169275.279
 30
922.0369873046875
 11
750414.582
 21
4169276.33
 31
922.573974609375
  0
LINE
  5
63
330
1F
100
AcDbEntity
  8
ARAPGALERI
370
     0
100
AcDbLine
 10
750414.582
 20
4169276.33
 30
922.573974609375
 11
750413.904
 21
4169276.522
 31
922.073974609375
  0
LINE
  5
64
330
1F
100
AcDbEntity
  8
ARAPGALERI
370
     0
100
AcDbLine
 10
750413.904
 20
4169276.522
 30
922.073974609375
 11
750412.056
 21
4169276.545
 31
922.2730102539062
  0
LINE
  5
65
330
1F
100
AcDbEntity
  8
ARAPGALERI
370
     0
100
AcDbLine
 10
750412.056
 20
4169276.545
 30
922.2730102539062
 11
750410.644
 21
4169276.71
 31
922.375
  0
LINE
  5
66
330
1F
100
AcDbEntity
  8
ARAPGALERI
370
     0
100
AcDbLine
 10
750410.644
 20
4169276.71
 30
922.375
 11
750409.458
 21
4169276.947
 31
922.1929931640625
  0
LINE
  5
67
330
1F
100
AcDbEntity
  8
ARAPGALERI
370
     0
100
AcDbLine
 10
750409.458
 20
4169276.947
 30
922.1929931640625
 11
750407.547
 21
4169277.63
 31
921.7249755859375
  0
LINE
  5
68
330
1F
100
AcDbEntity
  8
ARAPGALERI
370
     0
100
AcDbLine
 10
750407.547
 20
4169277.63
 30
921.7249755859375
 11
750407.241
 21
4169277.028
 31
921.7470092773438
  0
LINE
  5
69
330
1F
100
AcDbEntity
  8
ARAPGALERI
370
     0
100
AcDbLine
 10
750407.241
 20
4169277.028
 30
921.7470092773438
 11
750409.067
 21
4169276.271
 31
922.1799926757812
  0
LINE
  5
6A
330
1F
100
AcDbEntity
  8
ARAPGALERI
370
     0
100
AcDbLine
 10
750409.067
 20
4169276.271
 30
922.1799926757812
 11
750409.884
 21
4169275.757
 31
922.3579711914062
  0
LINE
  5
6B
330
1F
100
AcDbEntity
  8
ARAPGALERI
370
     0
100
AcDbLine
 10
750409.884
 20
4169275.757
 30
922.3579711914062
 11
750410.7
 21
4169275.376
 31
921.8280029296875
  0
LINE
  5
6C
330
1F
100
AcDbEntity
  8
ARAPGALERI
370
     0
100
AcDbLine
 10
750410.7
 20
4169275.376
 30
921.8280029296875
 11
750411.972
 21
4169275.379
 31
922.2659912109375
  0
LINE
  5
6D
330
1F
100
AcDbEntity
  8
ARAPGALERI
370
     0
100
AcDbLine
 10
750411.972
 20
4169275.379
 30
922.2659912109375
 11
750413.773
 21
4169275.173
 31
922.14501953125
  0
LINE
  5
6E
330
1F
100
AcDbEntity
  8
ARAPGALERI
370
     0
100
AcDbLine
 10
750413.773
 20
4169275.173
 30
922.14501953125
 11
750414.345
 21
4169274.596
 31
922.0570068359375
  0
LINE
  5
6F
330
1F
100
AcDbEntity
  8
ARAPGALERI
370
     0
100
AcDbLine
 10
750414.345
 20
4169274.596
 30
922.0570068359375
 11
750415.452
 21
4169272.784
 31
922.3699951171875
  0
LINE
  5
70
330
1F
100
AcDbEntity
  8
ARAPGALERI
370
     0
100
AcDbLine
 10
750415.452
 20
4169272.784
 30
922.3699951171875
 11
750414.389
 21
4169271.776
 31
922.3569946289062
  0
LINE
  5
71
330
1F
100
AcDbEntity
  8
ARAPGALERI
370
     0
100
AcDbLine
 10
750414.389
 20
4169271.776
 30
922.3569946289062
 11
750411.94
 21
4169270.541
 31
922.5029907226562
  0
LINE
  5
72
330
1F
100
AcDbEntity
  8
ARAPGALERI
370
     0
100
AcDbLine
 10
750411.94
 20
4169270.541
 30
922.5029907226562
 11
750412.594
 21
4169270.157
 31
922.1510009765625
  0
LINE
  5
73
330
1F
100
AcDbEntity
  8
ARAPGALERI
370
     0
100
AcDbLine
 10
750412.594
 20
4169270.157
 30
922.1510009765625
 11
750414.624
 21
4169271.183
 31
922.2999877929688
  0
LINE
  5
74
330
1F
100
AcDbEntity
  8
ARAPGALERI
370
     0
100
AcDbLine
 10
750414.624
 20
4169271.183
 30
922.2999877929688
 11
750416.029
 21
4169271.7
 31
922.4650268554688
  0
LINE
  5
75
330
1F
100
AcDbEntity
  8
ARAPGALERI
370
     0
100
AcDbLine
 10
750416.029
 20
4169271.7
 30
922.4650268554688
 11
750417.4
 21
4169272.362
 31
922.583984375
  0
LINE
  5
76
330
1F
100
AcDbEntity
  8
ARAPGALERI
370
     0
100
AcDbLine
 10
750417.4
 20
4169272.362
 30
922.583984375
 11
750418.484
 21
4169272.24
 31
922.3109741210938
  0
LINE
  5
77
330
1F
100
AcDbEntity
  8
ARAPGALERI
370
     0
100
AcDbLine
 10
750418.484
 20
4169272.24
 30
922.3109741210938
 11
750419.446
 21
4169270.915
 31
922.1840209960938
  0
LINE
  5
78
330
1F
100
AcDbEntity
  8
ARAPGALERI
370
     0
100
AcDbLine
 10
750419.446
 20
4169270.915
 30
922.1840209960938
 11
750418.811
 21
4169268.374
 31
922.4110107421875
  0
LINE
  5
79
330
1F
100
AcDbEntity
  8
ARAPGALERI
370
     0
100
AcDbLine
 10
750418.811
 20
4169268.374
 30
922.4110107421875
 11
750418.323
 21
4169266.216
 31
922.072998046875
  0
LINE
  5
7A
330
1F
100
AcDbEntity
  8
ARAPGALERI
370
     0
100
AcDbLine
 10
750418.323
 20
4169266.216
 30
922.072998046875
 11
750419.245
 21
4169265.885
 31
922.2050170898438
  0
LINE
  5
7B
330
1F
100
AcDbEntity
  8
ARAPGALERI
370
     0
100
AcDbLine
 10
750419.245
 20
4169265.885
 30
922.2050170898438
 11
750419.484
 21
4169268.034
 31
922.4340209960938
  0
LINE
  5
7C
330
1F
100
AcDbEntity
  8
ARAPGALERI
370
     0
100
AcDbLine
 10
750419.484
 20
4169268.034
 30
922.4340209960938
 11
750420.267
 21
4169271.134
 31
922.1060180664062
  0
LINE
  5
7D
330
1F
100
AcDbEntity
  8
ARAPGALERI
370
     0
100
AcDbLine
 10
750420.267
 20
4169271.134
 30
922.1060180664062
 11
750419.517
 21
4169273.064
 31
922.302001953125
  0
LINE
  5
7E
330
1F
100
AcDbEntity
  8
ARAPGALERI
370
     0
100
AcDbLine
 10
750419.517
 20
4169273.064
 30
922.302001953125
 11
750419.217
 21
4169273.118
 31
922.2139892578125
  0
LINE
  5
7F
330
1F
100
AcDbEntity
  8
ARAPGALERI
370
     0
100
AcDbLine
 10
750419.217
 20
4169273.118
 30
922.2139892578125
 11
750419.451
 21
4169274.428
 31
922.2680053710938
  0
LINE
  5
80
330
1F
100
AcDbEntity
  8
ARAPGALERI
370
     0
100
AcDbLine
 10
750419.451
 20
4169274.428
 30
922.2680053710938
 11
750421.192
 21
4169273.949
 31
920.9409790039062
  0
LINE
  5
81
330
1F
100
AcDbEntity
  8
ARAPGALERI
370
     0
100
AcDbLine
 10
750421.192
 20
4169273.949
 30
920.9409790039062
 11
750421.035
 21
4169273.071
 31
920.47802734375
  0
LINE
  5
82
330
1F
100
AcDbEntity
  8
ARAPGALERI
370
     0
100
AcDbLine
 10
750421.035
 20
4169273.071
 30
920.47802734375
 11
750419.517
 21
4169273.064
 31
922.302001953125
  0
LINE
  5
83
330
1F
100
AcDbEntity
  8
ARAPGALERI
370
     0
100
AcDbLine
 10
750419.451
 20
4169274.428
 30
922.2680053710938
 11
750420.549
 21
4169275.407
 31
922.3980102539062
  0
LINE
  5
84
330
1F
100
AcDbEntity
  8
ARAPGALERI
370
     0
100
AcDbLine
 10
750420.549
 20
4169275.407
 30
922.3980102539062
 11
750421.7
 21
4169277.84
 31
922.447998046875
  0
LINE
  5
85
330
1F
100
AcDbEntity
  8
ARAPGALERI
370
     0
100
AcDbLine
 10
750439.872
 20
4169291.559
 30
927.43798828125
 11
750440.061
 21
4169293.92
 31
927.6179809570312
  0
LINE
  5
86
330
1F
100
AcDbEntity
  8
ARAPGALERI
370
     0
100
AcDbLine
 10
750440.061
 20
4169293.92
 30
927.6179809570312
 11
750440.52
 21
4169297.232
 31
927.6500244140625
  0
LINE
  5
87
330
1F
100
AcDbEntity
  8
ARAPGALERI
370
     0
100
AcDbLine
 10
750440.52
 20
4169297.232
 30
927.6500244140625
 11
750441.072
 21
4169303.023
 31
927.7550048828125
  0
LINE
  5
88
330
1F
100
AcDbEntity
  8
ARAPGALERI
370
     0
100
AcDbLine
 10
750441.072
 20
4169303.023
 30
927.7550048828125
 11
750441.271
 21
4169305.738
 31
927.6129760742188
  0
LINE
  5
89
330
1F
100
AcDbEntity
  8
ARAPGALERI
370
     0
100
AcDbLine
 10
750441.271
 20
4169305.738
 30
927.6129760742188
 11
750439.811
 21
4169311.84
 31
927.969970703125
  0
LINE
  5
8A
330
1F
100
AcDbEntity
  8
ARAPGALERI
370
     0
100
AcDbLine
 10
750439.811
 20
4169311.84
 30
927.969970703125
 11
750438.797
 21
4169313.846
 31
928.1439819335938
  0
LINE
  5
8B
330
1F
100
AcDbEntity
  8
ARAPGALERI
370
     0
100
AcDbLine
 10
750438.797
 20
4169313.846
 30
928.1439819335938
 11
750439.142
 21
4169317.748
 31
928.2210083007812
  0
LINE
  5
8C
330
1F
100
AcDbEntity
  8
ARAPGALERI
370
     0
100
AcDbLine
 10
750439.142
 20
4169317.748
 30
928.2210083007812
 11
750438.599
 21
4169323.868
 31
928.2520141601562
  0
LINE
  5
8D
330
1F
100
AcDbEntity
  8
ARAPGALERI
370
     0
100
AcDbLine
 10
750438.599
 20
4169323.868
 30
928.2520141601562
 11
750438.749
 21
4169326.951
 31
928.2969970703125
  0
LINE
  5
8E
330
1F
100
AcDbEntity
  8
ARAPGALERI
370
     0
100
AcDbLine
 10
750438.749
 20
4169326.951
 30
928.2969970703125
 11
750438.713
 21
4169330.132
 31
928.177978515625
  0
LINE
  5
8F
330
1F
100
AcDbEntity
  8
ARAPGALERI
370
     0
100
AcDbLine
 10
750438.713
 20
4169330.132
 30
928.177978515625
 11
750438.729
 21
4169333.469
 31
928.4190063476562
  0
LINE
  5
90
330
1F
100
AcDbEntity
  8
ARAPGALERI
370
     0
100
AcDbLine
 10
750438.729
 20
4169333.469
 30
928.4190063476562
 11
750438.649
 21
4169335.578
 31
928.469970703125
  0
LINE
  5
91
330
1F
100
AcDbEntity
  8
ARAPGALERI
370
     0
100
AcDbLine
 10
750438.649
 20
4169335.578
 30
928.469970703125
 11
750437.425
 21
4169338.406
 31
928.3880004882812
  0
LINE
  5
92
330
1F
100
AcDbEntity
  8
ARAPGALERI
370
     0
100
AcDbLine
 10
750437.425
 20
4169338.406
 30
928.3880004882812
 11
750434.253
 21
4169338.457
 31
928.3099975585938
  0
LINE
  5
93
330
1F
100
AcDbEntity
  8
ARAPGALERI
370
     0
100
AcDbLine
 10
750434.253
 20
4169338.457
 30
928.3099975585938
 11
750431.862
 21
4169338.56
 31
929.72998046875
  0
LINE
  5
94
330
1F
100
AcDbEntity
  8
ARAPGALERI
370
     0
100
AcDbLine
 10
750431.862
 20
4169338.56
 30
929.72998046875
 11
750427.945
 21
4169339.172
 31
929.47998046875
  0
LINE
  5
95
330
1F
100
AcDbEntity
  8
ARAPGALERI
370
     0
100
AcDbLine
 10
750427.945
 20
4169339.172
 30
929.47998046875
 11
750428.762
 21
4169340.353
 31
929.3759765625
  0
LINE
  5
96
330
1F
100
AcDbEntity
  8
ARAPGALERI
370
     0
100
AcDbLine
 10
750428.762
 20
4169340.353
 30
929.3759765625
 11
750431.469
 21
4169340.576
 31
929.4810180664062
  0
LINE
  5
97
330
1F
100
AcDbEntity
  8
ARAPGALERI
370
     0
100
AcDbLine
 10
750431.469
 20
4169340.576
 30
929.4810180664062
 11
750434.258
 21
4169340.355
 31
928.3309936523438
  0
LINE
  5
98
330
1F
100
AcDbEntity
  8
ARAPGALERI
370
     0
100
AcDbLine
 10
750434.258
 20
4169340.355
 30
928.3309936523438
 11
750436.775
 21
4169340.973
 31
928.4459838867188
  0
LINE
  5
99
330
1F
100
AcDbEntity
  8
ARAPGALERI
370
     0
100
AcDbLine
 10
750436.775
 20
4169340.973
 30
928.4459838867188
 11
750438.026
 21
4169341.352
 31
928.5020141601562
  0
LINE
  5
9A
330
1F
100
AcDbEntity
  8
ARAPGALERI
370
     0
100
AcDbLine
 10
750438.026
 20
4169341.352
 30
928.5020141601562
 11
750438.384
 21
4169342.084
 31
928.43798828125
  0
LINE
  5
9B
330
1F
100
AcDbEntity
  8
ARAPGALERI
370
     0
100
AcDbLine
 10
750438.384
 20
4169342.084
 30
928.43798828125
 11
750436.971
 21
4169346.833
 31
928.8720092773438
  0
LINE
  5
9C
330
1F
100
AcDbEntity
  8
ARAPGALERI
370
     0
100
AcDbLine
 10
750436.971
 20
4169346.833
 30
928.8720092773438
 11
750436.128
 21
4169348.626
 31
928.8619995117188
  0
LINE
  5
9D
330
1F
100
AcDbEntity
  8
ARAPGALERI
370
     0
100
AcDbLine
 10
750436.128
 20
4169348.626
 30
928.8619995117188
 11
750435.169
 21
4169352.715
 31
928.8159790039062
  0
LINE
  5
9E
330
1F
100
AcDbEntity
  8
ARAPGALERI
370
     0
100
AcDbLine
 10
750435.169
 20
4169352.715
 30
928.8159790039062
 11
750435.26
 21
4169356.505
 31
928.6719970703125
  0
LINE
  5
9F
330
1F
100
AcDbEntity
  8
ARAPGALERI
370
     0
100
AcDbLine
 10
750435.26
 20
4169356.505
 30
928.6719970703125
 11
750435.718
 21
4169359.472
 31
928.6339721679688
  0
LINE
  5
A0
330
1F
100
AcDbEntity
  8
ARAPGALERI
370
     0
100
AcDbLine
 10
750435.718
 20
4169359.472
 30
928.6339721679688
 11
750436.79
 21
4169363.748
 31
928.9409790039062
  0
LINE
  5
A1
330
1F
100
AcDbEntity
  8
ARAPGALERI
370
     0
100
AcDbLine
 10
750436.79
 20
4169363.748
 30
928.9409790039062
 11
750437.672
 21
4169367.377
 31
929.0479736328125
  0
LINE
  5
A2
330
1F
100
AcDbEntity
  8
ARAPGALERI
370
     0
100
AcDbLine
 10
750437.672
 20
4169367.377
 30
929.0479736328125
 11
750437.202
 21
4169371.602
 31
928.7830200195312
  0
LINE
  5
A3
330
1F
100
AcDbEntity
  8
ARAPGALERI
370
     0
100
AcDbLine
 10
750437.202
 20
4169371.602
 30
928.7830200195312
 11
750437.938
 21
4169374.405
 31
929.18798828125
  0
LINE
  5
A4
330
1F
100
AcDbEntity
  8
ARAPGALERI
370
     0
100
AcDbLine
 10
750437.938
 20
4169374.405
 30
929.18798828125
 11
750438.558
 21
4169379.464
 31
928.81201171875
  0
LINE
  5
A5
330
1F
100
AcDbEntity
  8
ARAPGALERI
370
     0
100
AcDbLine
 10
750438.558
 20
4169379.464
 30
928.81201171875
 11
750438.705
 21
4169382.919
 31
929.3070068359375
  0
LINE
  5
A6
330
1F
100
AcDbEntity
  8
ARAPGALERI
370
     0
100
AcDbLine
 10
750438.705
 20
4169382.919
 30
929.3070068359375
 11
750437.9
 21
4169385.518
 31
929.4219970703125
  0
LINE
  5
A7
330
1F
100
AcDbEntity
  8
ARAPGALERI
370
     0
100
AcDbLine
 10
750437.9
 20
4169385.518
 30
929.4219970703125
 11
750437.586
 21
4169385.597
 31
929.7020263671875
  0
LINE
  5
A8
330
1F
100
AcDbEntity
  8
ARAPGALERI
370
     0
100
AcDbLine
 10
750437.586
 20
4169385.597
 30
929.7020263671875
 11
750437.463
 21
4169390.24
 31
929.4840087890625
  0
LINE
  5
A9
330
1F
100
AcDbEntity
  8
ARAPGALERI
370
     0
100
AcDbLine
 10
750437.463
 20
4169390.24
 30
929.4840087890625
 11
750437.384
 21
4169393.517
 31
929.6220092773438
  0
LINE
  5
AA
330
1F
100
AcDbEntity
  8
ARAPGALERI
370
     0
100
AcDbLine
 10
750437.384
 20
4169393.517
 30
929.6220092773438
 11
750438.667
 21
4169397.608
 31
929.698974609375
  0
LINE
  5
AB
330
1F
100
AcDbEntity
  8
ARAPGALERI
370
     0
100
AcDbLine
 10
750439.527
 20
4169400.2
 30
929.7839965820312
 11
750441.156
 21
4169403.014
 31
929.7039794921875
  0
LINE
  5
AC
330
1F
100
AcDbEntity
  8
ARAPGALERI
370
     0
100
AcDbLine
 10
750441.156
 20
4169403.014
 30
929.7039794921875
 11
750442.157
 21
4169403.01
 31
929.3519897460938
  0
LINE
  5
AD
330
1F
100
AcDbEntity
  8
ARAPGALERI
370
     0
100
AcDbLine
 10
750442.157
 20
4169403.01
 30
929.3519897460938
 11
750440.738
 21
4169399.896
 31
929.6279907226562
  0
LINE
  5
AE
330
1F
100
AcDbEntity
  8
ARAPGALERI
370
     0
100
AcDbLine
 10
750440.738
 20
4169399.896
 30
929.6279907226562
 11
750440.413
 21
4169399.725
 31
929.9340209960938
  0
LINE
  5
AF
330
1F
100
AcDbEntity
  8
ARAPGALERI
370
     0
100
AcDbLine
 10
750440.413
 20
4169399.725
 30
929.9340209960938
 11
750439.804
 21
4169397.036
 31
929.5059814453125
  0
LINE
  5
B0
330
1F
100
AcDbEntity
  8
ARAPGALERI
370
     0
100
AcDbLine
 10
750439.804
 20
4169397.036
 30
929.5059814453125
 11
750438.801
 21
4169393.193
 31
929.6010131835938
  0
LINE
  5
B1
330
1F
100
AcDbEntity
  8
ARAPGALERI
370
     0
100
AcDbLine
 10
750438.801
 20
4169393.193
 30
929.6010131835938
 11
750438.659
 21
4169389.714
 31
929.4940185546875
  0
LINE
  5
B2
330
1F
100
AcDbEntity
  8
ARAPGALERI
370
     0
100
AcDbLine
 10
750438.659
 20
4169389.714
 30
929.4940185546875
 11
750439.105
 21
4169386.055
 31
929.4459838867188
  0
LINE
  5
B3
330
1F
100
AcDbEntity
  8
ARAPGALERI
370
     0
100
AcDbLine
 10
750439.105
 20
4169386.055
 30
929.4459838867188
 11
750439.92
 21
4169383.908
 31
929.3709716796875
  0
LINE
  5
B4
330
1F
100
AcDbEntity
  8
ARAPGALERI
370
     0
100
AcDbLine
 10
750439.92
 20
4169383.908
 30
929.3709716796875
 11
750439.788
 21
4169383.044
 31
929.4149780273438
  0
LINE
  5
B5
330
1F
100
AcDbEntity
  8
ARAPGALERI
370
     0
100
AcDbLine
 10
750439.788
 20
4169383.044
 30
929.4149780273438
 11
750440.105
 21
4169379.39
 31
929.1950073242188
  0
LINE
  5
B6
330
1F
100
AcDbEntity
  8
ARAPGALERI
370
     0
100
AcDbLine
 10
750440.105
 20
4169379.39
 30
929.1950073242188
 11
750439.241
 21
4169374.61
 31
929.1220092773438
  0
LINE
  5
B7
330
1F
100
AcDbEntity
  8
ARAPGALERI
370
     0
100
AcDbLine
 10
750439.241
 20
4169374.61
 30
929.1220092773438
 11
750439.2
 21
4169371.524
 31
928.9879760742188
  0
LINE
  5
B8
330
1F
100
AcDbEntity
  8
ARAPGALERI
370
     0
100
AcDbLine
 10
750439.2
 20
4169371.524
 30
928.9879760742188
 11
750439.131
 21
4169368.626
 31
928.833984375
  0
LINE
  5
B9
330
1F
100
AcDbEntity
  8
ARAPGALERI
370
     0
100
AcDbLine
 10
750439.131
 20
4169368.626
 30
928.833984375
 11
750438.392
 21
4169363.489
 31
928.2119750976562
  0
LINE
  5
BA
330
1F
100
AcDbEntity
  8
ARAPGALERI
370
     0
100
AcDbLine
 10
750438.392
 20
4169363.489
 30
928.2119750976562
 11
750436.965
 21
4169358.966
 31
928.5889892578125
  0
LINE
  5
BB
330
1F
100
AcDbEntity
  8
ARAPGALERI
370
     0
100
AcDbLine
 10
750436.965
 20
4169358.966
 30
928.5889892578125
 11
750437.069
 21
4169355.953
 31
928.9299926757812
  0
LINE
  5
BC
330
1F
100
AcDbEntity
  8
ARAPGALERI
370
     0
100
AcDbLine
 10
750437.069
 20
4169355.953
 30
928.9299926757812
 11
750436.371
 21
4169352.767
 31
928.85302734375
  0
LINE
  5
BD
330
1F
100
AcDbEntity
  8
ARAPGALERI
370
     0
100
AcDbLine
 10
750436.371
 20
4169352.767
 30
928.85302734375
 11
750437.242
 21
4169349.009
 31
928.8109741210938
  0
LINE
  5
BE
330
1F
100
AcDbEntity
  8
ARAPGALERI
370
     0
100
AcDbLine
 10
750437.242
 20
4169349.009
 30
928.8109741210938
 11
750438.646
 21
4169347.413
 31
928.3179931640625
  0
LINE
  5
BF
330
1F
100
AcDbEntity
  8
ARAPGALERI
370
     0
100
AcDbLine
 10
750438.646
 20
4169347.413
 30
928.3179931640625
 11
750440.088
 21
4169342.94
 31
928.2440185546875
  0
LINE
  5
C0
330
1F
100
AcDbEntity
  8
ARAPGALERI
370
     0
100
AcDbLine
 10
750440.088
 20
4169342.94
 30
928.2440185546875
 11
750439.69
 21
4169341.086
 31
928.5999755859375
  0
LINE
  5
C1
330
1F
100
AcDbEntity
  8
ARAPGALERI
370
     0
100
AcDbLine
 10
750439.69
 20
4169341.086
 30
928.5999755859375
 11
750442.169
 21
4169340.948
 31
929.3740234375
  0
LINE
  5
C2
330
1F
100
AcDbEntity
  8
ARAPGALERI
370
     0
100
AcDbLine
 10
750442.169
 20
4169340.948
 30
929.3740234375
 11
750442.08
 21
4169340.209
 31
929.2750244140625
  0
LINE
  5
C3
330
1F
100
AcDbEntity
  8
ARAPGALERI
370
     0
100
AcDbLine
 10
750442.08
 20
4169340.209
 30
929.2750244140625
 11
750439.491
 21
4169338.512
 31
928.5330200195312
  0
LINE
  5
C4
330
1F
100
AcDbEntity
  8
ARAPGALERI
370
     0
100
AcDbLine
 10
750439.491
 20
4169338.512
 30
928.5330200195312
 11
750440.662
 21
4169336.353
 31
928.4819946289062
  0
LINE
  5
C5
330
1F
100
AcDbEntity
  8
ARAPGALERI
370
     0
100
AcDbLine
 10
750440.662
 20
4169336.353
 30
928.4819946289062
 11
750441.067
 21
4169335.04
 31
928.2890014648438
  0
LINE
  5
C6
330
1F
100
AcDbEntity
  8
ARAPGALERI
370
     0
100
AcDbLine
 10
750441.067
 20
4169335.04
 30
928.2890014648438
 11
750441.722
 21
4169334.056
 31
928.2080078125
  0
LINE
  5
C7
330
1F
100
AcDbEntity
  8
ARAPGALERI
370
     0
100
AcDbLine
 10
750441.722
 20
4169334.056
 30
928.2080078125
 11
750441.082
 21
4169333.219
 31
928.3499755859375
  0
LINE
  5
C8
330
1F
100
AcDbEntity
  8
ARAPGALERI
370
     0
100
AcDbLine
 10
750441.082
 20
4169333.219
 30
928.3499755859375
 11
750440.79
 21
4169332.829
 31
928.4520263671875
  0
LINE
  5
C9
330
1F
100
AcDbEntity
  8
ARAPGALERI
370
     0
100
AcDbLine
 10
750440.79
 20
4169332.829
 30
928.4520263671875
 11
750441.515
 21
4169332.199
 31
928.1270141601562
  0
LINE
  5
CA
330
1F
100
AcDbEntity
  8
ARAPGALERI
370
     0
100
AcDbLine
 10
750441.515
 20
4169332.199
 30
928.1270141601562
 11
750443.971
 21
4169331.556
 31
928.0560302734375
  0
LINE
  5
CB
330
1F
100
AcDbEntity
  8
ARAPGALERI
370
     0
100
AcDbLine
 10
750443.971
 20
4169331.556
 30
928.0560302734375
 11
750446.428
 21
4169330.993
 31
928.7849731445312
  0
LINE
  5
CC
330
1F
100
AcDbEntity
  8
ARAPGALERI
370
     0
100
AcDbLine
 10
750446.428
 20
4169330.993
 30
928.7849731445312
 11
750448.048
 21
4169330.495
 31
928.9559936523438
  0
LINE
  5
CD
330
1F
100
AcDbEntity
  8
ARAPGALERI
370
     0
100
AcDbLine
 10
750448.048
 20
4169330.495
 30
928.9559936523438
 11
750447.533
 21
4169329.752
 31
928.041015625
  0
LINE
  5
CE
330
1F
100
AcDbEntity
  8
ARAPGALERI
370
     0
100
AcDbLine
 10
750447.533
 20
4169329.752
 30
928.041015625
 11
750446.092
 21
4169329.914
 31
928.5609741210938
  0
LINE
  5
CF
330
1F
100
AcDbEntity
  8
ARAPGALERI
370
     0
100
AcDbLine
 10
750446.092
 20
4169329.914
 30
928.5609741210938
 11
750444.458
 21
4169330.569
 31
928.5239868164062
  0
LINE
  5
D0
330
1F
100
AcDbEntity
  8
ARAPGALERI
370
     0
100
AcDbLine
 10
750444.458
 20
4169330.569
 30
928.5239868164062
 11
750443.857
 21
4169330.281
 31
928.1420288085938
  0
LINE
  5
D1
330
1F
100
AcDbEntity
  8
ARAPGALERI
370
     0
100
AcDbLine
 10
750443.857
 20
4169330.281
 30
928.1420288085938
 11
750441.345
 21
4169331.043
 31
928.208984375
  0
LINE
  5
D2
330
1F
100
AcDbEntity
  8
ARAPGALERI
370
     0
100
AcDbLine
 10
750441.345
 20
4169331.043
 30
928.208984375
 11
750440.516
 21
4169330.869
 31
928.4010009765625
  0
LINE
  5
D3
330
1F
100
AcDbEntity
  8
ARAPGALERI
370
     0
100
AcDbLine
 10
750440.516
 20
4169330.869
 30
928.4010009765625
 11
750440.48
 21
4169326.281
 31
928.3560180664062
  0
LINE
  5
D4
330
1F
100
AcDbEntity
  8
ARAPGALERI
370
     0
100
AcDbLine
 10
750440.48
 20
4169326.281
 30
928.3560180664062
 11
750440.251
 21
4169323.933
 31
927.9869995117188
  0
LINE
  5
D5
330
1F
100
AcDbEntity
  8
ARAPGALERI
370
     0
100
AcDbLine
 10
750440.251
 20
4169323.933
 30
927.9869995117188
 11
750440.7
 21
4169322.623
 31
928.239990234375
  0
LINE
  5
D6
330
1F
100
AcDbEntity
  8
ARAPGALERI
370
     0
100
AcDbLine
 10
750440.7
 20
4169322.623
 30
928.239990234375
 11
750441.954
 21
4169322.34
 31
928.2930297851562
  0
LINE
  5
D7
330
1F
100
AcDbEntity
  8
ARAPGALERI
370
     0
100
AcDbLine
 10
750441.954
 20
4169322.34
 30
928.2930297851562
 11
750445.574
 21
4169322.624
 31
928.3359985351562
  0
LINE
  5
D8
330
1F
100
AcDbEntity
  8
ARAPGALERI
370
     0
100
AcDbLine
 10
750445.574
 20
4169322.624
 30
928.3359985351562
 11
750448.188
 21
4169322.371
 31
928.3060302734375
  0
LINE
  5
D9
330
1F
100
AcDbEntity
  8
ARAPGALERI
370
     0
100
AcDbLine
 10
750448.188
 20
4169322.371
 30
928.3060302734375
 11
750448.542
 21
4169321.414
 31
928.4400024414062
  0
LINE
  5
DA
330
1F
100
AcDbEntity
  8
ARAPGALERI
370
     0
100
AcDbLine
 10
750448.542
 20
4169321.414
 30
928.4400024414062
 11
750445.409
 21
4169321.605
 31
928.5449829101562
  0
LINE
  5
DB
330
1F
100
AcDbEntity
  8
ARAPGALERI
370
     0
100
AcDbLine
 10
750445.409
 20
4169321.605
 30
928.5449829101562
 11
750441.678
 21
4169321.721
 31
928.2860107421875
  0
LINE
  5
DC
330
1F
100
AcDbEntity
  8
ARAPGALERI
370
     0
100
AcDbLine
 10
750441.678
 20
4169321.721
 30
928.2860107421875
 11
750440.622
 21
4169321.201
 31
928.2570190429688
  0
LINE
  5
DD
330
1F
100
AcDbEntity
  8
ARAPGALERI
370
     0
100
AcDbLine
 10
750440.622
 20
4169321.201
 30
928.2570190429688
 11
750440.253
 21
4169317.784
 31
928.2260131835938
  0
LINE
  5
DE
330
1F
100
AcDbEntity
  8
ARAPGALERI
370
     0
100
AcDbLine
 10
750440.253
 20
4169317.784
 30
928.2260131835938
 11
750440.839
 21
4169314.837
 31
928.1300048828125
  0
LINE
  5
DF
330
1F
100
AcDbEntity
  8
ARAPGALERI
370
     0
100
AcDbLine
 10
750440.839
 20
4169314.837
 30
928.1300048828125
 11
750440.781
 21
4169313.487
 31
928.6010131835938
  0
LINE
  5
E0
330
1F
100
AcDbEntity
  8
ARAPGALERI
370
     0
100
AcDbLine
 10
750440.781
 20
4169313.487
 30
928.6010131835938
 11
750441.318
 21
4169312.467
 31
927.8920288085938
  0
LINE
  5
E1
330
1F
100
AcDbEntity
  8
ARAPGALERI
370
     0
100
AcDbLine
 10
750441.318
 20
4169312.467
 30
927.8920288085938
 11
750442.452
 21
4169305.972
 31
927.6079711914062
  0
LINE
  5
E2
330
1F
100
AcDbEntity
  8
ARAPGALERI
370
     0
100
AcDbLine
 10
750442.452
 20
4169305.972
 30
927.6079711914062
 11
750441.79
 21
4169297.03
 31
927.7319946289062
  0
LINE
  5
E3
330
1F
100
AcDbEntity
  8
ARAPGALERI
370
     0
100
AcDbLine
 10
750441.79
 20
4169297.03
 30
927.7319946289062
 11
750441.906
 21
4169295.528
 31
927.655029296875
  0
LINE
  5
E4
330
1F
100
AcDbEntity
  8
ARAPGALERI
370
     0
100
AcDbLine
 10
750441.906
 20
4169295.528
 30
927.655029296875
 11
750442.0
 21
4169291.686
 31
927.25
  0
LINE
  5
E5
330
1F
100
AcDbEntity
  8
ARAPGALERI
370
     0
100
AcDbLine
 10
750439.527
 20
4169400.2
 30
929.7839965820312
 11
750438.667
 21
4169397.608
 31
929.698974609375
  0
LINE
  5
E6
330
1F
100
AcDbEntity
  8
ARAPGALERI
370
     0
100
AcDbLine
 10
750438.9173279041
 20
4169398.36247666
 30
929.7236938476562
 11
750438.826
 21
4169398.396
 31
930.3270263671875
  0
LINE
  5
E7
330
1F
100
AcDbEntity
  8
ARAPGALERI
370
     0
100
AcDbLine
 10
750438.826
 20
4169398.396
 30
930.3270263671875
 11
750438.804
 21
4169398.397
 31
930.3270263671875
  0
LINE
  5
E8
330
1F
100
AcDbEntity
  8
ARAPGALERI
370
     0
100
AcDbLine
 10
750438.804
 20
4169398.397
 30
930.3270263671875
 11
750438.7463936837
 21
4169398.406099061
 31
930.1351318359375
  0
LINE
  5
E9
330
1F
100
AcDbEntity
  8
ARAPGALERI
370
     0
100
AcDbLine
 10
750425.589
 20
4169233.341
 30
928.4329833984375
 11
750426.266
 21
4169234.412
 31
928.2559814453125
  0
LINE
  5
EA
330
1F
100
AcDbEntity
  8
ARAPGALERI
370
     0
100
AcDbLine
 10
750416.828
 20
4169229.408
 30
925.9429931640625
 11
750415.606
 21
4169229.432
 31
926.0969848632812
  0
LINE
  5
EB
330
1F
100
AcDbEntity
  8
ARAPGALERI
370
     0
100
AcDbLine
 10
750415.606
 20
4169229.432
 30
926.0969848632812
 11
750413.224
 21
4169229.674
 31
926.64599609375
  0
LINE
  5
EC
330
1F
100
AcDbEntity
  8
ARAPGALERI
370
     0
100
AcDbLine
 10
750413.224
 20
4169229.674
 30
926.64599609375
 11
750412.741
 21
4169227.998
 31
926.1680297851562
  0
LINE
  5
ED
330
1F
100
AcDbEntity
  8
ARAPGALERI
370
     0
100
AcDbLine
 10
750412.741
 20
4169227.998
 30
926.1680297851562
 11
750413.156
 21
4169227.197
 31
926.322021484375
  0
LINE
  5
EE
330
1F
100
AcDbEntity
  8
ARAPGALERI
370
     0
100
AcDbLine
 10
750413.156
 20
4169227.197
 30
926.322021484375
 11
750413.891
 21
4169226.666
 31
926.1840209960938
  0
LINE
  5
EF
330
1F
100
AcDbEntity
  8
ARAPGALERI
370
     0
100
AcDbLine
 10
750413.891
 20
4169226.666
 30
926.1840209960938
 11
750415.84
 21
4169226.781
 31
925.7369995117188
  0
LINE
  5
F0
330
1F
100
AcDbEntity
  8
ARAPGALERI
370
     0
100
AcDbLine
 10
750415.84
 20
4169226.781
 30
925.7369995117188
 11
750419.193
 21
4169226.871
 31
925.7540283203125
  0
LINE
  5
F1
330
1F
100
AcDbEntity
  8
ARAPGALERI
370
     0
100
AcDbLine
 10
750425.589
 20
4169233.341
 30
928.4329833984375
 11
750424.233
 21
4169232.03
 31
928.7119750976562
  0
LINE
  5
F2
330
1F
100
AcDbEntity
  8
ARAPGALERI
370
     0
100
AcDbLine
 10
750424.233
 20
4169232.03
 30
928.7119750976562
 11
750422.985
 21
4169231.691
 31
928.6669921875
  0
LINE
  5
F3
330
1F
100
AcDbEntity
  8
ARAPGALERI
370
     0
100
AcDbLine
 10
750422.985
 20
4169231.691
 30
928.6669921875
 11
750422.142
 21
4169229.496
 31
926.208984375
  0
LINE
  5
F4
330
1F
100
AcDbEntity
  8
ARAPGALERI
370
     0
100
AcDbLine
 10
750422.142
 20
4169229.496
 30
926.208984375
 11
750421.0685796475
 21
4169225.911800251
 31
925.0
  0
LINE
  5
F5
330
1F
100
AcDbEntity
  8
ARAPGALERI
370
     0
100
AcDbLine
 10
750426.266
 20
4169234.412
 30
928.2559814453125
 11
750426.691
 21
4169234.87
 31
928.5150146484375
  0
LINE
  5
F6
330
1F
100
AcDbEntity
  8
ARAPGALERI
370
     0
100
AcDbLine
 10
750426.691
 20
4169234.87
 30
928.5150146484375
 11
750428.362
 21
4169235.752
 31
928.5469970703125
  0
LINE
  5
F7
330
1F
100
AcDbEntity
  8
ARAPGALERI
370
     0
100
AcDbLine
 10
750423.8501195553
 20
4169236.020114999
 30
928.583984375
 11
750422.32
 21
4169235.443
 31
928.5070190429688
  0
LINE
  5
F8
330
1F
100
AcDbEntity
  8
ARAPGALERI
370
     0
100
AcDbLine
 10
750418.297
 20
4169234.658
 30
928.1669921875
 11
750416.85
 21
4169233.584
 31
928.8629760742188
  0
LINE
  5
F9
330
1F
100
AcDbEntity
  8
ARAPGALERI
370
     0
100
AcDbLine
 10
750413.185
 20
4169229.953
 30
928.6669921875
 11
750413.224
 21
4169229.674
 31
926.64599609375
  0
LINE
  5
FA
330
1F
100
AcDbEntity
  8
ARAPGALERI
370
     0
100
AcDbLine
 10
750413.185
 20
4169229.953
 30
928.6669921875
 11
750416.103
 21
4169230.051
 31
927.9249877929688
  0
LINE
  5
FB
330
1F
100
AcDbEntity
  8
ARAPGALERI
370
     0
100
AcDbLine
 10
750416.103
 20
4169230.051
 30
927.9249877929688
 11
750418.5296518495
 21
4169230.690199218
 31
927.4000244140625
  0
LINE
  5
FC
330
1F
100
AcDbEntity
  8
ARAPGALERI
370
     0
100
AcDbLine
 10
750418.5296518495
 20
4169230.690199218
 30
927.4000244140625
 11
750416.828
 21
4169229.408
 31
925.9429931640625
  0
LINE
  5
FD
330
1F
100
AcDbEntity
  8
ARAPGALERI
370
     0
100
AcDbLine
 10
750410.694
 20
4169232.644
 30
929.4310302734375
 11
750411.6866112003
 21
4169233.565272634
 31
928.9990234375
  0
LINE
  5
FE
330
1F
100
AcDbEntity
  8
ARAPGALERI
370
     0
100
AcDbLine
 10
750413.485
 20
4169232.799
 30
928.8939819335938
 11
750413.803
 21
4169233.315
 31
928.47900390625
  0
LINE
  5
FF
330
1F
100
AcDbEntity
  8
ARAPGALERI
370
     0
100
AcDbLine
 10
750413.803
 20
4169233.315
 30
928.47900390625
 11
750413.841
 21
4169234.217
 31
929.0809936523438
  0
LINE
  5
100
330
1F
100
AcDbEntity
  8
ARAPGALERI
370
     0
100
AcDbLine
 10
750413.841
 20
4169234.217
 30
929.0809936523438
 11
750416.85
 21
4169233.584
 31
928.8629760742188
  0
LINE
  5
101
330
1F
100
AcDbEntity
  8
ARAPGALERI
370
     0
100
AcDbLine
 10
750411.6866112003
 20
4169233.565272634
 30
928.9990234375
 11
750412.214
 21
4169233.699
 31
929.0830078125
  0
LINE
  5
102
330
1F
100
AcDbEntity
  8
ARAPGALERI
370
     0
100
AcDbLine
 10
750412.214
 20
4169233.699
 30
929.0830078125
 11
750413.485
 21
4169232.799
 31
928.8939819335938
  0
LINE
  5
103
330
1F
100
AcDbEntity
  8
ARAPGALERI
370
     0
100
AcDbLine
 10
750413.841
 20
4169234.217
 30
929.0809936523438
 11
750412.214
 21
4169233.699
 31
929.0830078125
  0
LINE
  5
104
330
1F
100
AcDbEntity
  8
ARAPGALERI
370
     0
100
AcDbLine
 10
750428.362
 20
4169235.752
 30
928.5469970703125
 11
750429.062
 21
4169235.892
 31
928.6589965820312
  0
LINE
  5
105
330
1F
100
AcDbEntity
  8
ARAPGALERI
370
     0
100
AcDbLine
 10
750429.062
 20
4169235.892
 30
928.6589965820312
 11
750430.821
 21
4169236.431
 31
928.7379760742188
  0
LINE
  5
106
330
1F
100
AcDbEntity
  8
ARAPGALERI
370
     0
100
AcDbLine
 10
750437.624
 20
4169237.889
 30
928.9929809570312
 11
750439.494
 21
4169238.44
 31
929.1920166015625
  0
LINE
  5
107
330
1F
100
AcDbEntity
  8
ARAPGALERI
370
     0
100
AcDbLine
 10
750439.494
 20
4169238.44
 30
929.1920166015625
 11
750440.851
 21
4169238.997
 31
929.291015625
  0
LINE
  5
108
330
1F
100
AcDbEntity
  8
ARAPGALERI
370
     0
100
AcDbLine
 10
750440.851
 20
4169238.997
 30
929.291015625
 11
750442.437
 21
4169239.589
 31
929.4600219726562
  0
LINE
  5
109
330
1F
100
AcDbEntity
  8
ARAPGALERI
370
     0
100
AcDbLine
 10
750442.437
 20
4169239.589
 30
929.4600219726562
 11
750444.361
 21
4169240.586
 31
929.739013671875
  0
LINE
  5
10A
330
1F
100
AcDbEntity
  8
ARAPGALERI
370
     0
100
AcDbLine
 10
750444.361
 20
4169240.586
 30
929.739013671875
 11
750447.274
 21
4169241.81
 31
928.8380126953125
  0
LINE
  5
10B
330
1F
100
AcDbEntity
  8
ARAPGALERI
370
     0
100
AcDbLine
 10
750447.274
 20
4169241.81
 30
928.8380126953125
 11
750450.515
 21
4169242.858
 31
929.2979736328125
  0
LINE
  5
10C
330
1F
100
AcDbEntity
  8
ARAPGALERI
370
     0
100
AcDbLine
 10
750445.693
 20
4169243.548
 30
928.708984375
 11
750442.023
 21
4169242.174
 31
928.8989868164062
  0
LINE
  5
10D
330
1F
100
AcDbEntity
  8
ARAPGALERI
370
     0
100
AcDbLine
 10
750427.592
 20
4169238.652
 30
928.6619873046875
 11
750427.431
 21
4169239.015
 31
928.93798828125
  0
LINE
  5
10E
330
1F
100
AcDbEntity
  8
ARAPGALERI
370
     0
100
AcDbLine
 10
750430.821
 20
4169236.431
 30
928.7379760742188
 11
750431.687
 21
4169236.377
 31
928.8690185546875
  0
LINE
  5
10F
330
1F
100
AcDbEntity
  8
ARAPGALERI
370
     0
100
AcDbLine
 10
750431.687
 20
4169236.377
 30
928.8690185546875
 11
750433.074
 21
4169235.848
 31
928.8140258789062
  0
LINE
  5
110
330
1F
100
AcDbEntity
  8
ARAPGALERI
370
     0
100
AcDbLine
 10
750433.074
 20
4169235.848
 30
928.8140258789062
 11
750433.466
 21
4169234.061
 31
928.6900024414062
  0
LINE
  5
111
330
1F
100
AcDbEntity
  8
ARAPGALERI
370
     0
100
AcDbLine
 10
750435.234
 20
4169234.032
 30
928.6010131835938
 11
750435.305
 21
4169236.136
 31
928.926025390625
  0
LINE
  5
112
330
1F
100
AcDbEntity
  8
ARAPGALERI
370
     0
100
AcDbLine
 10
750436.746
 20
4169237.39
 30
928.9039916992188
 11
750437.624
 21
4169237.889
 31
928.9929809570312
  0
LINE
  5
113
330
1F
100
AcDbEntity
  8
ARAPGALERI
370
     0
100
AcDbLine
 10
750442.023
 20
4169242.174
 30
928.8989868164062
 11
750436.056
 21
4169239.748
 31
927.93798828125
  0
LINE
  5
114
330
1F
100
AcDbEntity
  8
ARAPGALERI
370
     0
100
AcDbLine
 10
750436.056
 20
4169239.748
 30
927.93798828125
 11
750436.646
 21
4169241.867
 31
928.60400390625
  0
LINE
  5
115
330
1F
100
AcDbEntity
  8
ARAPGALERI
370
     0
100
AcDbLine
 10
750436.646
 20
4169241.867
 30
928.60400390625
 11
750437.479
 21
4169244.537
 31
928.968017578125
  0
LINE
  5
116
330
1F
100
AcDbEntity
  8
ARAPGALERI
370
     0
100
AcDbLine
 10
750437.479
 20
4169244.537
 30
928.968017578125
 11
750436.108
 21
4169245.097
 31
929.6480102539062
  0
LINE
  5
117
330
1F
100
AcDbEntity
  8
ARAPGALERI
370
     0
100
AcDbLine
 10
750436.108
 20
4169245.097
 30
929.6480102539062
 11
750434.275
 21
4169242.274
 31
928.89697265625
  0
LINE
  5
118
330
1F
100
AcDbEntity
  8
ARAPGALERI
370
     0
100
AcDbLine
 10
750434.275
 20
4169242.274
 30
928.89697265625
 11
750433.19
 21
4169240.195
 31
928.9400024414062
  0
LINE
  5
119
330
1F
100
AcDbEntity
  8
ARAPGALERI
370
     0
100
AcDbLine
 10
750433.19
 20
4169240.195
 30
928.9400024414062
 11
750432.046
 21
4169239.174
 31
928.8410034179688
  0
LINE
  5
11A
330
1F
100
AcDbEntity
  8
ARAPGALERI
370
     0
100
AcDbLine
 10
750432.046
 20
4169239.174
 30
928.8410034179688
 11
750431.112
 21
4169239.021
 31
928.8579711914062
  0
LINE
  5
11B
330
1F
100
AcDbEntity
  8
ARAPGALERI
370
     0
100
AcDbLine
 10
750410.694
 20
4169232.644
 30
929.4310302734375
 11
750409.219
 21
4169231.97
 31
928.166015625
  0
LINE
  5
11C
330
1F
100
AcDbEntity
  8
ARAPGALERI
370
     0
100
AcDbLine
 10
750409.219
 20
4169231.97
 30
928.166015625
 11
750405.953
 21
4169231.222
 31
928.6599731445312
  0
LINE
  5
11D
330
1F
100
AcDbEntity
  8
ARAPGALERI
370
     0
100
AcDbLine
 10
750450.515
 20
4169242.858
 30
929.2979736328125
 11
750455.873
 21
4169245.235
 31
928.781005859375
  0
LINE
  5
11E
330
1F
100
AcDbEntity
  8
ARAPGALERI
370
     0
100
AcDbLine
 10
750455.873
 20
4169245.235
 30
928.781005859375
 11
750455.2526081651
 21
4169246.592107139
 31
928.781005859375
  0
LINE
  5
11F
330
1F
100
AcDbEntity
  8
ARAPGALERI
370
     0
100
AcDbLine
 10
750433.466
 20
4169234.061
 30
928.6900024414062
 11
750434.338
 21
4169232.87
 31
928.9320068359375
  0
LINE
  5
120
330
1F
100
AcDbEntity
  8
ARAPGALERI
370
     0
100
AcDbLine
 10
750434.338
 20
4169232.87
 30
928.9320068359375
 11
750434.968
 21
4169231.851
 31
928.9310302734375
  0
LINE
  5
121
330
1F
100
AcDbEntity
  8
ARAPGALERI
370
     0
100
AcDbLine
 10
750435.9800801231
 20
4169232.968034634
 30
928.9320068359375
 11
750435.234
 21
4169234.032
 31
928.6010131835938
  0
LINE
  5
122
330
1F
100
AcDbEntity
  8
ARAPGALERI
370
     0
100
AcDbLine
 10
750437.283
 20
4169227.844
 30
928.4439697265625
 11
750438.1375714127
 21
4169225.162638837
 31
928.7340087890625
  0
LINE
  5
123
330
1F
100
AcDbEntity
  8
ARAPGALERI
370
     0
100
AcDbLine
 10
750438.1375714127
 20
4169225.162638837
 30
928.7340087890625
 11
750440.053
 21
4169226.304
 31
928.6890258789062
  0
LINE
  5
124
330
1F
100
AcDbEntity
  8
ARAPGALERI
370
     0
100
AcDbLine
 10
750440.053
 20
4169226.304
 30
928.6890258789062
 11
750439.275
 21
4169227.81
 31
928.843994140625
  0
LINE
  5
125
330
1F
100
AcDbEntity
  8
ARAPGALERI
370
     0
100
AcDbLine
 10
750439.275
 20
4169227.81
 30
928.843994140625
 11
750438.8059287273
 21
4169230.155234504
 31
929.1890258789062
  0
LINE
  5
126
330
1F
100
AcDbEntity
  8
ARAPGALERI
370
     0
100
AcDbLine
 10
750437.8017190725
 20
4169231.38260186
 30
928.9550170898438
 11
750435.9800801231
 21
4169232.968034634
 31
928.9320068359375
  0
LINE
  5
127
330
1F
100
AcDbEntity
  8
ARAPGALERI
370
     0
100
AcDbLine
 10
750405.953
 20
4169231.222
 30
928.6599731445312
 11
750401.3969658072
 21
4169229.969356271
 31
928.6909790039062
  0
LINE
  5
128
330
1F
100
AcDbEntity
  8
ARAPGALERI
370
     0
100
AcDbLine
 10
750435.316
 20
4169230.954
 30
929.031005859375
 11
750435.632
 21
4169229.503
 31
928.9619750976562
  0
LINE
  5
129
330
1F
100
AcDbEntity
  8
ARAPGALERI
370
     0
100
AcDbLine
 10
750435.632
 20
4169229.503
 30
928.9619750976562
 11
750434.311
 21
4169224.133
 31
929.0650024414062
  0
LINE
  5
12A
330
1F
100
AcDbEntity
  8
ARAPGALERI
370
     0
100
AcDbLine
 10
750434.311
 20
4169224.133
 30
929.0650024414062
 11
750432.684
 21
4169217.816
 31
929.1099853515625
  0
LINE
  5
12B
330
1F
100
AcDbEntity
  8
ARAPGALERI
370
     0
100
AcDbLine
 10
750434.334
 20
4169216.528
 30
929.27001953125
 11
750435.078
 21
4169219.921
 31
929.041015625
  0
LINE
  5
12C
330
1F
100
AcDbEntity
  8
ARAPGALERI
370
     0
100
AcDbLine
 10
750435.078
 20
4169219.921
 30
929.041015625
 11
750435.935
 21
4169221.428
 31
929.1610107421875
  0
LINE
  5
12D
330
1F
100
AcDbEntity
  8
ARAPGALERI
370
     0
100
AcDbLine
 10
750435.935
 20
4169221.428
 30
929.1610107421875
 11
750436.437
 21
4169225.202
 31
928.8800048828125
  0
LINE
  5
12E
330
1F
100
AcDbEntity
  8
ARAPGALERI
370
     0
100
AcDbLine
 10
750436.437
 20
4169225.202
 30
928.8800048828125
 11
750437.283
 21
4169227.844
 31
928.4439697265625
  0
LINE
  5
12F
330
1F
100
AcDbEntity
  8
ARAPGALERI
370
     0
100
AcDbLine
 10
750432.684
 20
4169217.816
 30
929.1099853515625
 11
750430.685
 21
4169214.157
 31
929.1409912109375
  0
LINE
  5
130
330
1F
100
AcDbEntity
  8
ARAPGALERI
370
     0
100
AcDbLine
 10
750430.685
 20
4169214.157
 30
929.1409912109375
 11
750429.985
 21
4169211.32
 31
929.1389770507812
  0
LINE
  5
131
330
1F
100
AcDbEntity
  8
ARAPGALERI
370
     0
100
AcDbLine
 10
750429.985
 20
4169211.32
 30
929.1389770507812
 11
750428.888
 21
4169208.873
 31
929.2160034179688
  0
LINE
  5
132
330
1F
100
AcDbEntity
  8
ARAPGALERI
370
     0
100
AcDbLine
 10
750431.003
 20
4169209.976
 30
929.1160278320312
 11
750432.664
 21
4169214.124
 31
929.1729736328125
  0
LINE
  5
133
330
1F
100
AcDbEntity
  8
ARAPGALERI
370
     0
100
AcDbLine
 10
750432.664
 20
4169214.124
 30
929.1729736328125
 11
750434.334
 21
4169216.528
 31
929.27001953125
  0
LINE
  5
134
330
1F
100
AcDbEntity
  8
ARAPGALERI
370
     0
100
AcDbLine
 10
750421.176197322
 20
4169235.093504737
 30
928.5070190429688
 11
750422.32
 21
4169235.443
 31
928.5070190429688
  0
LINE
  5
135
330
1F
100
AcDbEntity
  8
ARAPGALERI
370
     0
100
AcDbLine
 10
750428.888
 20
4169208.873
 30
929.2160034179688
 11
750428.082
 21
4169206.618
 31
929.14599609375
  0
LINE
  5
136
330
1F
100
AcDbEntity
  8
ARAPGALERI
370
     0
100
AcDbLine
 10
750428.082
 20
4169206.618
 30
929.14599609375
 11
750426.524
 21
4169205.006
 31
929.3770141601562
  0
LINE
  5
137
330
1F
100
AcDbEntity
  8
ARAPGALERI
370
     0
100
AcDbLine
 10
750426.524
 20
4169205.006
 30
929.3770141601562
 11
750424.527
 21
4169203.54
 31
929.5549926757812
  0
LINE
  5
138
330
1F
100
AcDbEntity
  8
ARAPGALERI
370
     0
100
AcDbLine
 10
750424.527
 20
4169203.54
 30
929.5549926757812
 11
750419.503
 21
4169201.153
 31
929.6840209960938
  0
LINE
  5
139
330
1F
100
AcDbEntity
  8
ARAPGALERI
370
     0
100
AcDbLine
 10
750419.503
 20
4169201.153
 30
929.6840209960938
 11
750416.1
 21
4169199.598
 31
929.926025390625
  0
LINE
  5
13A
330
1F
100
AcDbEntity
  8
ARAPGALERI
370
     0
100
AcDbLine
 10
750416.539
 20
4169198.05
 30
930.0250244140625
 11
750423.284
 21
4169201.152
 31
929.56298828125
  0
LINE
  5
13B
330
1F
100
AcDbEntity
  8
ARAPGALERI
370
     0
100
AcDbLine
 10
750423.284
 20
4169201.152
 30
929.56298828125
 11
750427.023
 21
4169202.624
 31
929.5360107421875
  0
LINE
  5
13C
330
1F
100
AcDbEntity
  8
ARAPGALERI
370
     0
100
AcDbLine
 10
750427.023
 20
4169202.624
 30
929.5360107421875
 11
750429.392
 21
4169204.982
 31
929.4359741210938
  0
LINE
  5
13D
330
1F
100
AcDbEntity
  8
ARAPGALERI
370
     0
100
AcDbLine
 10
750445.693
 20
4169243.548
 30
928.708984375
 11
750448.311027163
 21
4169244.21278367
 31
929.0089721679688
  0
LINE
  5
13E
330
1F
100
AcDbEntity
  8
ARAPGALERI
370
     0
100
AcDbLine
 10
750450.037781857
 20
4169244.66232808
 30
929.0070190429688
 11
750455.2526081651
 21
4169246.592107139
 31
928.781005859375
  0
LINE
  5
13F
330
1F
100
AcDbEntity
  8
ARAPGALERI
 62
   172
370
     0
100
AcDbLine
 10
750450.037781857
 20
4169244.66232808
 30
929.0070190429688
 11
750447.9482538124
 21
4169249.204780342
 31
937.0
  0
LINE
  5
140
330
1F
100
AcDbEntity
  8
ARAPGALERI
 62
   172
370
     0
100
AcDbLine
 10
750447.9482538124
 20
4169249.204780342
 30
937.0
 11
750446.2214991185
 21
4169248.755235932
 31
937.0
  0
LINE
  5
141
330
1F
100
AcDbEntity
  8
ARAPGALERI
 62
   172
370
     0
100
AcDbLine
 10
750446.2214991185
 20
4169248.755235932
 30
937.0
 11
750448.311027163
 21
4169244.21278367
 31
929.0089721679688
  0
LINE
  5
142
330
1F
100
AcDbEntity
  8
ARAPGALERI
370
     0
100
AcDbLine
 10
750431.112
 20
4169239.021
 30
928.8579711914062
 11
750428.838
 21
4169238.441
 31
928.5089721679688
  0
LINE
  5
143
330
1F
100
AcDbEntity
  8
ARAPGALERI
370
     0
100
AcDbLine
 10
750428.838
 20
4169238.441
 30
928.5089721679688
 11
750427.592
 21
4169238.652
 31
928.6619873046875
  0
LINE
  5
144
330
1F
100
AcDbEntity
  8
ARAPGALERI
370
     0
100
AcDbLine
 10
750416.1
 20
4169199.598
 30
929.926025390625
 11
750409.9074324563
 21
4169198.472566354
 31
929.926025390625
  0
LINE
  5
145
330
1F
100
AcDbEntity
  8
ARAPGALERI
370
     0
100
AcDbLine
 10
750409.9074324563
 20
4169198.472566354
 30
929.926025390625
 11
750410.1359833874
 21
4169196.735579278
 31
929.926025390625
  0
LINE
  5
146
330
1F
100
AcDbEntity
  8
ARAPGALERI
370
     0
100
AcDbLine
 10
750410.1359833874
 20
4169196.735579278
 30
929.926025390625
 11
750416.539
 21
4169198.05
 31
930.0250244140625
  0
LINE
  5
147
330
1F
100
AcDbEntity
  8
ARAPGALERI
370
     0
100
AcDbLine
 10
750423.736422504
 20
4169237.896116347
 30
928.6519775390625
 11
750423.8501195553
 21
4169236.020114999
 31
928.583984375
  0
LINE
  5
148
330
1F
100
AcDbEntity
  8
ARAPGALERI
370
     0
100
AcDbLine
 10
750400.039
 20
4169240.236
 30
930.2589721679688
 11
750399.5309841714
 21
4169242.063074471
 31
932.708984375
  0
LINE
  5
149
330
1F
100
AcDbEntity
  8
ARAPGALERI
370
     0
100
AcDbLine
 10
750399.5309841714
 20
4169242.063074471
 30
932.708984375
 11
750399.5696052576
 21
4169244.638803849
 31
936.3889770507812
  0
LINE
  5
14A
330
1F
100
AcDbEntity
  8
ARAPGALERI
370
     0
100
AcDbLine
 10
750399.5696052576
 20
4169244.638803849
 30
936.3889770507812
 11
750399.224154494
 21
4169248.338941593
 31
941.2890014648438
  0
LINE
  5
14B
330
1F
100
AcDbEntity
  8
ARAPGALERI
370
     0
100
AcDbLine
 10
750399.224154494
 20
4169248.338941593
 30
941.2890014648438
 11
750399.1471499895
 21
4169248.693162314
 31
944.1890258789062
  0
LINE
  5
14C
330
1F
100
AcDbEntity
  8
ARAPGALERI
370
     0
100
AcDbLine
 10
750399.1471499895
 20
4169248.693162314
 30
944.1890258789062
 11
750398.192294133
 21
4169248.539153305
 31
944.1890258789062
  0
LINE
  5
14D
330
1F
100
AcDbEntity
  8
ARAPGALERI
370
     0
100
AcDbLine
 10
750398.192294133
 20
4169248.539153305
 30
944.1890258789062
 11
750398.2384968358
 21
4169248.169531683
 31
941.2890014648438
  0
LINE
  5
14E
330
1F
100
AcDbEntity
  8
ARAPGALERI
370
     0
100
AcDbLine
 10
750398.2384968358
 20
4169248.169531683
 30
941.2890014648438
 11
750398.546514854
 21
4169244.627324474
 31
936.3889770507812
  0
LINE
  5
14F
330
1F
100
AcDbEntity
  8
ARAPGALERI
370
     0
100
AcDbLine
 10
750398.546514854
 20
4169244.627324474
 30
936.3889770507812
 11
750398.5157130521
 21
4169241.824360508
 31
932.708984375
  0
LINE
  5
150
330
1F
100
AcDbEntity
  8
ARAPGALERI
370
     0
100
AcDbLine
 10
750398.5157130521
 20
4169241.824360508
 30
932.708984375
 11
750398.8098515947
 21
4169240.106331711
 31
930.5900268554688
  0
LINE
  5
151
330
1F
100
AcDbEntity
  8
ARAPGALERI
370
     0
100
AcDbLine
 10
750397.1307568419
 20
4169240.047502175
 30
928.7459716796875
 11
750402.67
 21
4169240.328
 31
928.8839721679688
  0
LINE
  5
152
330
1F
100
AcDbEntity
  8
ARAPGALERI
370
     0
100
AcDbLine
 10
750437.8017190725
 20
4169231.38260186
 30
928.9550170898438
 11
750438.8059287273
 21
4169230.155234504
 31
929.1890258789062
  0
LINE
  5
153
330
1F
100
AcDbEntity
  8
ARAPGALERI
370
     0
100
AcDbLine
 10
750434.968
 20
4169231.851
 30
928.9310302734375
 11
750435.316
 21
4169230.954
 31
929.031005859375
  0
LINE
  5
154
330
1F
100
AcDbEntity
  8
ARAPGALERI
370
     0
100
AcDbLine
 10
750429.392
 20
4169204.982
 30
929.4359741210938
 11
750430.1049166688
 21
4169206.416785258
 31
929.5830078125
  0
LINE
  5
155
330
1F
100
AcDbEntity
  8
ARAPGALERI
370
     0
100
AcDbLine
 10
750430.1049166688
 20
4169206.416785258
 30
929.5830078125
 11
750430.401
 21
4169207.607
 31
929.14697265625
  0
LINE
  5
156
330
1F
100
AcDbEntity
  8
ARAPGALERI
370
     0
100
AcDbLine
 10
750430.401
 20
4169207.607
 30
929.14697265625
 11
750431.003
 21
4169209.976
 31
929.1160278320312
  0
LINE
  5
157
330
1F
100
AcDbEntity
  8
ARAPGALERI
370
     0
100
AcDbLine
 10
750414.713
 20
4169240.105
 30
928.7349853515625
 11
750418.3558704864
 21
4169240.323830837
 31
928.6740112304688
  0
LINE
  5
158
330
1F
100
AcDbEntity
  8
ARAPGALERI
370
     0
100
AcDbLine
 10
750417.6892784161
 20
4169238.402
 30
928.718994140625
 11
750418.6170599096
 21
4169238.371746256
 31
928.718994140625
  0
LINE
  5
159
330
1F
100
AcDbEntity
  8
ARAPGALERI
370
     0
100
AcDbLine
 10
750418.6170599096
 20
4169238.371746256
 30
928.718994140625
 11
750423.736422504
 21
4169237.896116347
 31
928.6519775390625
  0
LINE
  5
15A
330
1F
100
AcDbEntity
  8
ARAPGALERI
370
     0
100
AcDbLine
 10
750418.3558704864
 20
4169240.323830837
 30
928.6740112304688
 11
750419.3038211429
 21
4169240.323830837
 31
928.6740112304688
  0
LINE
  5
15B
330
1F
100
AcDbEntity
  8
ARAPGALERI
370
     0
100
AcDbLine
 10
750419.3038211429
 20
4169240.323830837
 30
928.6740112304688
 11
750424.267
 21
4169239.997
 31
928.656982421875
  0
LINE
  5
15C
330
1F
100
AcDbEntity
  8
ARAPGALERI
370
     0
100
AcDbLine
 10
750435.305
 20
4169236.136
 30
928.926025390625
 11
750436.746
 21
4169237.39
 31
928.9039916992188
  0
LINE
  5
15D
330
1F
100
AcDbEntity
  8
ARAPGALERI
370
     0
100
AcDbLine
 10
750410.36
 20
4169231.564
 30
927.64501953125
 11
750406.862
 21
4169230.338
 31
927.4520263671875
  0
LINE
  5
15E
330
1F
100
AcDbEntity
  8
ARAPGALERI
370
     0
100
AcDbLine
 10
750406.862
 20
4169230.338
 30
927.4520263671875
 11
750402.043
 21
4169228.854
 31
927.3419799804688
  0
LINE
  5
15F
330
1F
100
AcDbEntity
  8
ARAPGALERI
370
     0
100
AcDbLine
 10
750402.043
 20
4169228.854
 30
927.3419799804688
 11
750398.39
 21
4169227.874
 31
927.260009765625
  0
LINE
  5
160
330
1F
100
AcDbEntity
  8
ARAPGALERI
370
     0
100
AcDbLine
 10
750398.39
 20
4169227.874
 30
927.260009765625
 11
750395.567
 21
4169226.947
 31
927.0380249023438
  0
LINE
  5
161
330
1F
100
AcDbEntity
  8
ARAPGALERI
370
     0
100
AcDbLine
 10
750397.701
 20
4169224.688
 30
927.1580200195312
 11
750399.217
 21
4169225.041
 31
927.1669921875
  0
LINE
  5
162
330
1F
100
AcDbEntity
  8
ARAPGALERI
370
     0
100
AcDbLine
 10
750399.217
 20
4169225.041
 30
927.1669921875
 11
750402.836
 21
4169226.117
 31
927.260986328125
  0
LINE
  5
163
330
1F
100
AcDbEntity
  8
ARAPGALERI
370
     0
100
AcDbLine
 10
750407.045
 20
4169227.625
 30
927.4349975585938
 11
750412.272
 21
4169229.53
 31
927.4929809570312
  0
LINE
  5
164
330
1F
100
AcDbEntity
  8
ARAPGALERI
370
     0
100
AcDbLine
 10
750412.272
 20
4169229.53
 30
927.4929809570312
 11
750413.185
 21
4169229.953
 31
928.6669921875
  0
LINE
  5
165
330
1F
100
AcDbEntity
  8
ARAPGALERI
370
     0
100
AcDbLine
 10
750394.445
 20
4169223.975
 30
927.3499755859375
 11
750393.451
 21
4169222.859
 31
927.406005859375
  0
LINE
  5
166
330
1F
100
AcDbEntity
  8
ARAPGALERI
370
     0
100
AcDbLine
 10
750395.103
 20
4169221.324
 30
927.3770141601562
 11
750397.701
 21
4169224.688
 31
927.1580200195312
  0
LINE
  5
167
330
1F
100
AcDbEntity
  8
ARAPGALERI
370
     0
100
AcDbLine
 10
750391.336
 20
4169215.822
 30
927.593017578125
 11
750392.019
 21
4169215.874
 31
927.593017578125
  0
LINE
  5
168
330
1F
100
AcDbEntity
  8
ARAPGALERI
370
     0
100
AcDbLine
 10
750392.019
 20
4169215.874
 30
927.593017578125
 11
750392.657
 21
4169215.745
 31
927.593017578125
  0
LINE
  5
169
330
1F
100
AcDbEntity
  8
ARAPGALERI
370
     0
100
AcDbLine
 10
750392.657
 20
4169215.745
 30
927.593017578125
 11
750393.237
 21
4169216.52
 31
927.593017578125
  0
LINE
  5
16A
330
1F
100
AcDbEntity
  8
ARAPGALERI
370
     0
100
AcDbLine
 10
750393.237
 20
4169216.52
 30
927.593017578125
 11
750393.12
 21
4169217.465
 31
927.593017578125
  0
LINE
  5
16B
330
1F
100
AcDbEntity
  8
ARAPGALERI
370
     0
100
AcDbLine
 10
750393.12
 20
4169217.465
 30
927.593017578125
 11
750393.264
 21
4169218.915
 31
927.593017578125
  0
LINE
  5
16C
330
1F
100
AcDbEntity
  8
ARAPGALERI
370
     0
100
AcDbLine
 10
750393.237
 20
4169216.52
 30
927.593017578125
 11
750392.524
 21
4169217.172
 31
927.5900268554688
  0
LINE
  5
16D
330
1F
100
AcDbEntity
  8
ARAPGALERI
370
     0
100
AcDbLine
 10
750392.524
 20
4169217.172
 30
927.5900268554688
 11
750392.029
 21
4169216.451
 31
927.5900268554688
  0
LINE
  5
16E
330
1F
100
AcDbEntity
  8
ARAPGALERI
370
     0
100
AcDbLine
 10
750392.029
 20
4169216.451
 30
927.5900268554688
 11
750392.657
 21
4169215.745
 31
927.593017578125
  0
LINE
  5
16F
330
1F
100
AcDbEntity
  8
ARAPGALERI
370
     0
100
AcDbLine
 10
750393.264
 20
4169218.915
 30
927.593017578125
 11
750395.103
 21
4169221.324
 31
927.3770141601562
  0
LINE
  5
170
330
1F
100
AcDbEntity
  8
ARAPGALERI
370
     0
100
AcDbLine
 10
750395.567
 20
4169226.947
 30
927.0380249023438
 11
750394.445
 21
4169223.975
 31
927.3499755859375
  0
LINE
  5
171
330
1F
100
AcDbEntity
  8
ARAPGALERI
370
     0
100
AcDbLine
 10
750427.183
 20
4169240.069
 30
928.10400390625
 11
750427.696
 21
4169245.287
 31
928.1630249023438
  0
LINE
  5
172
330
1F
100
AcDbEntity
  8
ARAPGALERI
370
     0
100
AcDbLine
 10
750451.417
 20
4169293.036
 30
926.2050170898438
 11
750448.371
 21
4169292.219
 31
926.3489990234375
  0
LINE
  5
173
330
1F
100
AcDbEntity
  8
ARAPGALERI
370
     0
100
AcDbLine
 10
750427.696
 20
4169245.287
 30
928.1630249023438
 11
750429.311
 21
4169252.423
 31
927.844970703125
  0
LINE
  5
174
330
1F
100
AcDbEntity
  8
ARAPGALERI
370
     0
100
AcDbLine
 10
750429.311
 20
4169252.423
 30
927.844970703125
 11
750430.603
 21
4169256.928
 31
927.64697265625
  0
LINE
  5
175
330
1F
100
AcDbEntity
  8
ARAPGALERI
370
     0
100
AcDbLine
 10
750434.88
 20
4169268.058
 30
927.031982421875
 11
750439.279
 21
4169272.772
 31
926.8200073242188
  0
LINE
  5
176
330
1F
100
AcDbEntity
  8
ARAPGALERI
370
     0
100
AcDbLine
 10
750439.279
 20
4169272.772
 30
926.8200073242188
 11
750443.908
 21
4169279.612
 31
926.7550048828125
  0
LINE
  5
177
330
1F
100
AcDbEntity
  8
ARAPGALERI
370
     0
100
AcDbLine
 10
750443.908
 20
4169279.612
 30
926.7550048828125
 11
750445.403
 21
4169281.868
 31
926.7039794921875
  0
LINE
  5
178
330
1F
100
AcDbEntity
  8
ARAPGALERI
370
     0
100
AcDbLine
 10
750445.403
 20
4169281.868
 30
926.7039794921875
 11
750446.19
 21
4169285.162
 31
926.4819946289062
  0
LINE
  5
179
330
1F
100
AcDbEntity
  8
ARAPGALERI
370
     0
100
AcDbLine
 10
750446.19
 20
4169285.162
 30
926.4819946289062
 11
750447.564
 21
4169288.029
 31
926.4920043945312
  0
LINE
  5
17A
330
1F
100
AcDbEntity
  8
ARAPGALERI
370
     0
100
AcDbLine
 10
750447.564
 20
4169288.029
 30
926.4920043945312
 11
750449.141
 21
4169288.926
 31
926.343994140625
  0
LINE
  5
17B
330
1F
100
AcDbEntity
  8
ARAPGALERI
370
     0
100
AcDbLine
 10
750449.141
 20
4169288.926
 30
926.343994140625
 11
750451.89
 21
4169289.709
 31
926.302001953125
  0
LINE
  5
17C
330
1F
100
AcDbEntity
  8
ARAPGALERI
370
     0
100
AcDbLine
 10
750443.52
 20
4169287.751
 30
926.5759887695312
 11
750443.173
 21
4169285.436
 31
926.5269775390625
  0
LINE
  5
17D
330
1F
100
AcDbEntity
  8
ARAPGALERI
370
     0
100
AcDbLine
 10
750443.173
 20
4169285.436
 30
926.5269775390625
 11
750442.146
 21
4169282.106
 31
926.56201171875
  0
LINE
  5
17E
330
1F
100
AcDbEntity
  8
ARAPGALERI
370
     0
100
AcDbLine
 10
750442.146
 20
4169282.106
 30
926.56201171875
 11
750441.858
 21
4169281.385
 31
926.60400390625
  0
LINE
  5
17F
330
1F
100
AcDbEntity
  8
ARAPGALERI
370
     0
100
AcDbLine
 10
750441.858
 20
4169281.385
 30
926.60400390625
 11
750437.48
 21
4169275.048
 31
926.8560180664062
  0
LINE
  5
180
330
1F
100
AcDbEntity
  8
ARAPGALERI
370
     0
100
AcDbLine
 10
750437.48
 20
4169275.048
 30
926.8560180664062
 11
750431.921
 21
4169269.983
 31
927.0780029296875
  0
LINE
  5
181
330
1F
100
AcDbEntity
  8
ARAPGALERI
370
     0
100
AcDbLine
 10
750429.702
 20
4169264.633
 30
927.2529907226562
 11
750428.707
 21
4169261.789
 31
927.4580078125
  0
LINE
  5
182
330
1F
100
AcDbEntity
  8
ARAPGALERI
370
     0
100
AcDbLine
 10
750428.707
 20
4169261.789
 30
927.4580078125
 11
750427.405
 21
4169256.142
 31
927.77099609375
  0
LINE
  5
183
330
1F
100
AcDbEntity
  8
ARAPGALERI
370
     0
100
AcDbLine
 10
750431.921
 20
4169269.983
 30
927.0780029296875
 11
750430.146
 21
4169269.448
 31
927.0780029296875
  0
LINE
  5
184
330
1F
100
AcDbEntity
  8
ARAPGALERI
370
     0
100
AcDbLine
 10
750430.146
 20
4169269.448
 30
927.0780029296875
 11
750429.523
 21
4169268.937
 31
927.0780029296875
  0
LINE
  5
185
330
1F
100
AcDbEntity
  8
ARAPGALERI
370
     0
100
AcDbLine
 10
750429.523
 20
4169268.937
 30
927.0780029296875
 11
750429.599
 21
4169268.338
 31
927.0780029296875
  0
LINE
  5
186
330
1F
100
AcDbEntity
  8
ARAPGALERI
370
     0
100
AcDbLine
 10
750429.599
 20
4169268.338
 30
927.0780029296875
 11
750429.702
 21
4169264.633
 31
927.2529907226562
  0
LINE
  5
187
330
1F
100
AcDbEntity
  8
ARAPGALERI
370
     0
100
AcDbLine
 10
750427.431
 20
4169239.015
 30
928.93798828125
 11
750427.183
 21
4169240.069
 31
928.10400390625
  0
LINE
  5
188
330
1F
100
AcDbEntity
  8
ARAPGALERI
370
     0
100
AcDbLine
 10
750393.451
 20
4169222.859
 30
927.406005859375
 11
750389.646
 21
4169218.464
 31
927.635009765625
  0
LINE
  5
189
330
1F
100
AcDbEntity
  8
ARAPGALERI
370
     0
100
AcDbLine
 10
750389.646
 20
4169218.464
 30
927.635009765625
 11
750388.11
 21
4169216.852
 31
927.5999755859375
  0
LINE
  5
18A
330
1F
100
AcDbEntity
  8
ARAPGALERI
370
     0
100
AcDbLine
 10
750388.11
 20
4169216.852
 30
927.5999755859375
 11
750386.5525392634
 21
4169214.955006266
 31
927.8040161132812
  0
LINE
  5
18B
330
1F
100
AcDbEntity
  8
ARAPGALERI
370
     0
100
AcDbLine
 10
750386.5525392634
 20
4169214.955006266
 30
927.8040161132812
 11
750386.312
 21
4169213.478
 31
927.8040161132812
  0
LINE
  5
18C
330
1F
100
AcDbEntity
  8
ARAPGALERI
370
     0
100
AcDbLine
 10
750386.312
 20
4169213.478
 30
927.8040161132812
 11
750387.137
 21
4169211.751
 31
927.8040161132812
  0
LINE
  5
18D
330
1F
100
AcDbEntity
  8
ARAPGALERI
370
     0
100
AcDbLine
 10
750387.137
 20
4169211.751
 30
927.8040161132812
 11
750388.567
 21
4169210.704
 31
927.8040161132812
  0
LINE
  5
18E
330
1F
100
AcDbEntity
  8
ARAPGALERI
370
     0
100
AcDbLine
 10
750388.567
 20
4169210.704
 30
927.8040161132812
 11
750389.690659271
 21
4169210.311814882
 31
927.8040161132812
  0
LINE
  5
18F
330
1F
100
AcDbEntity
  8
ARAPGALERI
370
     0
100
AcDbLine
 10
750389.690659271
 20
4169210.311814882
 30
927.8040161132812
 11
750391.744
 21
4169210.756
 31
927.8040161132812
  0
LINE
  5
190
330
1F
100
AcDbEntity
  8
ARAPGALERI
370
     0
100
AcDbLine
 10
750391.744
 20
4169210.756
 30
927.8040161132812
 11
750394.2204274959
 21
4169211.307927306
 31
925.9249877929688
  0
LINE
  5
191
330
1F
100
AcDbEntity
  8
ARAPGALERI
370
     0
100
AcDbLine
 10
750393.427
 20
4169213.137
 30
925.7550048828125
 11
750390.927
 21
4169212.529
 31
927.8040161132812
  0
LINE
  5
192
330
1F
100
AcDbEntity
  8
ARAPGALERI
370
     0
100
AcDbLine
 10
750390.927
 20
4169212.529
 30
927.8040161132812
 11
750389.909
 21
4169213.535
 31
927.8270263671875
  0
LINE
  5
193
330
1F
100
AcDbEntity
  8
ARAPGALERI
370
     0
100
AcDbLine
 10
750389.909
 20
4169213.535
 30
927.8270263671875
 11
750389.652
 21
4169214.087
 31
927.8040161132812
  0
LINE
  5
194
330
1F
100
AcDbEntity
  8
ARAPGALERI
370
     0
100
AcDbLine
 10
750389.652
 20
4169214.087
 30
927.8040161132812
 11
750390.077
 21
4169215.722
 31
927.8040161132812
  0
LINE
  5
195
330
1F
100
AcDbEntity
  8
ARAPGALERI
370
     0
100
AcDbLine
 10
750390.077
 20
4169215.722
 30
927.8040161132812
 11
750391.336
 21
4169215.822
 31
927.593017578125
  0
LINE
  5
196
330
1F
100
AcDbEntity
  8
ARAPGALERI
370
     0
100
AcDbLine
 10
750394.2204274959
 20
4169211.307927306
 30
925.9249877929688
 11
750393.7180779048
 21
4169216.104697031
 31
922.4000244140625
  0
LINE
  5
197
330
1F
100
AcDbEntity
  8
ARAPGALERI
370
     0
100
AcDbLine
 10
750392.9987071215
 20
4169217.188761393
 30
922.4569702148438
 11
750393.427
 21
4169213.137
 31
925.7550048828125
  0
LINE
  5
198
330
1F
100
AcDbEntity
  8
ARAPGALERI
370
     0
100
AcDbLine
 10
750390.034088566
 20
4169214.670908813
 30
934.2999877929688
 11
750390.97
 21
4169214.606
 31
932.7329711914062
  0
LINE
  5
199
330
1F
100
AcDbEntity
  8
ARAPGALERI
370
     0
100
AcDbLine
 10
750390.97
 20
4169214.606
 30
932.7329711914062
 11
750392.533
 21
4169214.329
 31
931.8809814453125
  0
LINE
  5
19A
330
1F
100
AcDbEntity
  8
ARAPGALERI
370
     0
100
AcDbLine
 10
750391.3897381587
 20
4169215.728935722
 30
930.0089721679688
 11
750391.2644763173
 21
4169215.396871445
 31
932.7319946289062
  0
LINE
  5
19B
330
1F
100
AcDbEntity
  8
ARAPGALERI
370
     0
100
AcDbLine
 10
750391.2644763173
 20
4169215.396871445
 30
932.7319946289062
 11
750390.3169591958
 21
4169215.549115439
 31
934.2999877929688
  0
LINE
  5
19C
330
1F
100
AcDbEntity
  8
ARAPGALERI
370
     0
100
AcDbLine
 10
750390.3169591958
 20
4169215.549115439
 30
934.2999877929688
 11
750390.034088566
 21
4169214.670908813
 31
934.2999877929688
  0
LINE
  5
19D
330
1F
100
AcDbEntity
  8
ARAPGALERI
370
     0
100
AcDbLine
 10
750392.533
 20
4169214.329
 30
931.8809814453125
 11
750393.0558209944
 21
4169216.187459227
 31
929.9439697265625
  0
LINE
  5
19E
330
1F
100
AcDbEntity
  8
ARAPGALERI
370
     0
100
AcDbLine
 10
750393.0558209944
 20
4169216.187459227
 30
929.9439697265625
 11
750393.237
 21
4169216.52
 31
927.593017578125
  0
LINE
  5
19F
330
1F
100
AcDbEntity
  8
ARAPGALERI
370
     0
100
AcDbLine
 10
750392.0997115879
 20
4169238.255265624
 30
928.823974609375
 11
750391.9208936663
 21
4169239.987187556
 31
928.89501953125
  0
LINE
  5
1A0
330
1F
100
AcDbEntity
  8
ARAPGALERI
370
     0
100
AcDbLine
 10
750396.274301887
 20
4169237.958172311
 30
930.2009887695312
 11
750396.8038300445
 21
4169237.205511743
 31
931.6190185546875
  0
LINE
  5
1A1
330
1F
100
AcDbEntity
  8
ARAPGALERI
370
     0
100
AcDbLine
 10
750396.8038300445
 20
4169237.205511743
 30
931.6190185546875
 11
750396.1444346745
 21
4169235.25202902
 31
934.1799926757812
  0
LINE
  5
1A2
330
1F
100
AcDbEntity
  8
ARAPGALERI
370
     0
100
AcDbLine
 10
750396.1444346745
 20
4169235.25202902
 30
934.1799926757812
 11
750397.4028993214
 21
4169234.730586086
 31
934.31298828125
  0
LINE
  5
1A3
330
1F
100
AcDbEntity
  8
ARAPGALERI
370
     0
100
AcDbLine
 10
750398.2061815932
 20
4169236.558583513
 30
931.843017578125
 11
750398.8608432411
 21
4169237.950437718
 31
929.8280029296875
  0
LINE
  5
1A4
330
1F
100
AcDbEntity
  8
ARAPGALERI
370
     0
100
AcDbLine
 10
750397.2534991399
 20
4169238.234814414
 30
928.7459716796875
 11
750392.0997115879
 21
4169238.255265624
 31
928.823974609375
  0
LINE
  5
1A5
330
1F
100
AcDbEntity
  8
ARAPGALERI
370
     0
100
AcDbLine
 10
750391.9208936663
 20
4169239.987187556
 30
928.89501953125
 11
750397.1307568419
 21
4169240.047502175
 31
928.7459716796875
  0
LINE
  5
1A6
330
1F
100
AcDbEntity
  8
ARAPGALERI
370
     0
100
AcDbLine
 10
750402.836
 20
4169226.117
 30
927.260986328125
 11
750407.045
 21
4169227.625
 31
927.4349975585938
  0
LINE
  5
1A7
330
1F
100
AcDbEntity
  8
ARAPGALERI
370
     0
100
AcDbLine
 10
750435.417
 20
4169280.355
 30
925.0809936523438
 11
750435.761
 21
4169282.492
 31
926.552978515625
  0
LINE
  5
1A8
330
1F
100
AcDbEntity
  8
ARAPGALERI
370
     0
100
AcDbLine
 10
750427.405
 20
4169256.142
 30
927.77099609375
 11
750425.727051056
 21
4169249.127331549
 31
928.31201171875
  0
LINE
  5
1A9
330
1F
100
AcDbEntity
  8
ARAPGALERI
370
     0
100
AcDbLine
 10
750425.727051056
 20
4169249.127331549
 30
928.31201171875
 11
750425.094
 21
4169248.401
 31
929.7470092773438
  0
LINE
  5
1AA
330
1F
100
AcDbEntity
  8
ARAPGALERI
370
     0
100
AcDbLine
 10
750425.094
 20
4169248.401
 30
929.7470092773438
 11
750423.075
 21
4169247.545
 31
928.5239868164062
  0
LINE
  5
1AB
330
1F
100
AcDbEntity
  8
ARAPGALERI
370
     0
100
AcDbLine
 10
750420.06
 20
4169244.654
 30
928.6090087890625
 11
750422.457
 21
4169244.721
 31
928.5130004882812
  0
LINE
  5
1AC
330
1F
100
AcDbEntity
  8
ARAPGALERI
370
     0
100
AcDbLine
 10
750422.457
 20
4169244.721
 30
928.5130004882812
 11
750424.481579233
 21
4169243.873123117
 31
928.385009765625
  0
LINE
  5
1AD
330
1F
100
AcDbEntity
  8
ARAPGALERI
370
     0
100
AcDbLine
 10
750424.481579233
 20
4169243.873123117
 30
928.385009765625
 11
750424.084
 21
4169240.163
 31
927.9660034179688
  0
LINE
  5
1AE
330
1F
100
AcDbEntity
  8
ARAPGALERI
370
     0
100
AcDbLine
 10
750423.075
 20
4169247.545
 30
928.5239868164062
 11
750419.517
 21
4169246.977
 31
928.6259765625
  0
LINE
  5
1AF
330
1F
100
AcDbEntity
  8
ARAPGALERI
370
     0
100
AcDbLine
 10
750419.517
 20
4169246.977
 30
928.6259765625
 11
750417.411
 21
4169246.21
 31
928.7230224609375
  0
LINE
  5
1B0
330
1F
100
AcDbEntity
  8
ARAPGALERI
370
     0
100
AcDbLine
 10
750417.411
 20
4169246.21
 30
928.7230224609375
 11
750415.106
 21
4169245.056
 31
928.7139892578125
  0
LINE
  5
1B1
330
1F
100
AcDbEntity
  8
ARAPGALERI
370
     0
100
AcDbLine
 10
750415.106
 20
4169245.056
 30
928.7139892578125
 11
750412.8
 21
4169243.146
 31
928.7650146484375
  0
LINE
  5
1B2
330
1F
100
AcDbEntity
  8
ARAPGALERI
370
     0
100
AcDbLine
 10
750412.8
 20
4169243.146
 30
928.7650146484375
 11
750412.39
 21
4169242.318
 31
928.7150268554688
  0
LINE
  5
1B3
330
1F
100
AcDbEntity
  8
ARAPGALERI
370
     0
100
AcDbLine
 10
750412.39
 20
4169242.318
 30
928.7150268554688
 11
750410.9716927153
 21
4169241.161728982
 31
928.7999877929688
  0
LINE
  5
1B4
330
1F
100
AcDbEntity
  8
ARAPGALERI
370
     0
100
AcDbLine
 10
750413.6026339345
 20
4169240.798200408
 30
928.9650268554688
 11
750417.189
 21
4169243.51
 31
928.5980224609375
  0
LINE
  5
1B5
330
1F
100
AcDbEntity
  8
ARAPGALERI
370
     0
100
AcDbLine
 10
750417.189
 20
4169243.51
 30
928.5980224609375
 11
750420.06
 21
4169244.654
 31
928.6090087890625
  0
LINE
  5
1B6
330
1F
100
AcDbEntity
  8
ARAPGALERI
370
     0
100
AcDbLine
 10
750414.713
 20
4169240.105
 30
928.7349853515625
 11
750413.6026339345
 21
4169240.798200408
 31
928.9650268554688
  0
LINE
  5
1B7
330
1F
100
AcDbEntity
  8
ARAPGALERI
370
     0
100
AcDbLine
 10
750410.9716927153
 20
4169241.161728982
 30
928.7999877929688
 11
750409.8350629624
 21
4169240.57068151
 31
928.7999877929688
  0
LINE
  5
1B8
330
1F
100
AcDbEntity
  8
ARAPGALERI
370
     0
100
AcDbLine
 10
750409.8350629624
 20
4169240.57068151
 30
928.7999877929688
 11
750405.7886610418
 21
4169240.752542271
 31
928.7999877929688
  0
LINE
  5
1B9
330
1F
100
AcDbEntity
  8
ARAPGALERI
370
     0
100
AcDbLine
 10
750405.7886610418
 20
4169240.752542271
 30
928.7999877929688
 11
750403.1023745178
 21
4169240.704609112
 31
928.7999877929688
  0
LINE
  5
1BA
330
1F
100
AcDbEntity
  8
ARAPGALERI
370
     0
100
AcDbLine
 10
750403.1023745178
 20
4169240.704609112
 30
928.7999877929688
 11
750402.67
 21
4169240.328
 31
928.8839721679688
  0
LINE
  5
1BB
330
1F
100
AcDbEntity
  8
ARAPGALERI
370
     0
100
AcDbLine
 10
750402.9167225537
 20
4169238.525603601
 30
928.7999877929688
 11
750409.250108727
 21
4169238.188068686
 31
928.7999877929688
  0
LINE
  5
1BC
330
1F
100
AcDbEntity
  8
ARAPGALERI
370
     0
100
AcDbLine
 10
750409.250108727
 20
4169238.188068686
 30
928.7999877929688
 11
750413.6541389324
 21
4169238.433817575
 31
928.7999877929688
  0
LINE
  5
1BD
330
1F
100
AcDbEntity
  8
ARAPGALERI
370
     0
100
AcDbLine
 10
750413.6541389324
 20
4169238.433817575
 30
928.7999877929688
 11
750417.6892784161
 21
4169238.402
 31
928.718994140625
  0
LINE
  5
1BE
330
1F
100
AcDbEntity
  8
ARAPGALERI
370
     0
100
AcDbLine
 10
750397.2534991399
 20
4169238.234814414
 30
928.7459716796875
 11
750400.642973803
 21
4169238.563553546
 31
929.0750122070312
  0
LINE
  5
1BF
330
1F
100
AcDbEntity
  8
ARAPGALERI
370
     0
100
AcDbLine
 10
750436.0884052861
 20
4169288.778155786
 30
927.1209716796875
 11
750433.085
 21
4169288.11
 31
927.2969970703125
  0
LINE
  5
1C0
330
1F
100
AcDbEntity
  8
ARAPGALERI
370
     0
100
AcDbLine
 10
750436.454
 20
4169285.558
 30
927.4730224609375
 11
750443.52
 21
4169287.751
 31
926.5759887695312
  0
LINE
  5
1C1
330
1F
100
AcDbEntity
  8
ARAPGALERI
370
     0
100
AcDbLine
 10
750451.89
 20
4169289.709
 30
926.302001953125
 11
750461.747
 21
4169293.972
 31
926.7540283203125
  0
LINE
  5
1C2
330
1F
100
AcDbEntity
  8
ARAPGALERI
370
     0
100
AcDbLine
 10
750461.747
 20
4169293.972
 30
926.7540283203125
 11
750467.741
 21
4169296.638
 31
926.8619995117188
  0
LINE
  5
1C3
330
1F
100
AcDbEntity
  8
ARAPGALERI
370
     0
100
AcDbLine
 10
750467.741
 20
4169296.638
 30
926.8619995117188
 11
750471.684
 21
4169298.719
 31
926.8880004882812
  0
LINE
  5
1C4
330
1F
100
AcDbEntity
  8
ARAPGALERI
370
     0
100
AcDbLine
 10
750471.684
 20
4169298.719
 30
926.8880004882812
 11
750475.118
 21
4169300.04
 31
927.0430297851562
  0
LINE
  5
1C5
330
1F
100
AcDbEntity
  8
ARAPGALERI
370
     0
100
AcDbLine
 10
750475.118
 20
4169300.04
 30
927.0430297851562
 11
750477.909
 21
4169301.11
 31
927.1500244140625
  0
LINE
  5
1C6
330
1F
100
AcDbEntity
  8
ARAPGALERI
370
     0
100
AcDbLine
 10
750477.909
 20
4169301.11
 30
927.1500244140625
 11
750480.348
 21
4169301.841
 31
927.0540161132812
  0
LINE
  5
1C7
330
1F
100
AcDbEntity
  8
ARAPGALERI
370
     0
100
AcDbLine
 10
750480.348
 20
4169301.841
 30
927.0540161132812
 11
750482.367
 21
4169303.051
 31
927.1370239257812
  0
LINE
  5
1C8
330
1F
100
AcDbEntity
  8
ARAPGALERI
370
     0
100
AcDbLine
 10
750482.367
 20
4169303.051
 30
927.1370239257812
 11
750485.777
 21
4169304.875
 31
926.9539794921875
  0
LINE
  5
1C9
330
1F
100
AcDbEntity
  8
ARAPGALERI
370
     0
100
AcDbLine
 10
750485.777
 20
4169304.875
 30
926.9539794921875
 11
750488.853
 21
4169306.371
 31
927.0
  0
LINE
  5
1CA
330
1F
100
AcDbEntity
  8
ARAPGALERI
370
     0
100
AcDbLine
 10
750497.511
 20
4169312.649
 30
926.8729858398438
 11
750488.817
 21
4169309.061
 31
926.9520263671875
  0
LINE
  5
1CB
330
1F
100
AcDbEntity
  8
ARAPGALERI
370
     0
100
AcDbLine
 10
750488.817
 20
4169309.061
 30
926.9520263671875
 11
750481.349
 21
4169305.698
 31
927.052001953125
  0
LINE
  5
1CC
330
1F
100
AcDbEntity
  8
ARAPGALERI
370
     0
100
AcDbLine
 10
750481.349
 20
4169305.698
 30
927.052001953125
 11
750478.913
 21
4169304.799
 31
927.2310180664062
  0
LINE
  5
1CD
330
1F
100
AcDbEntity
  8
ARAPGALERI
370
     0
100
AcDbLine
 10
750478.913
 20
4169304.799
 30
927.2310180664062
 11
750476.478
 21
4169303.379
 31
927.1010131835938
  0
LINE
  5
1CE
330
1F
100
AcDbEntity
  8
ARAPGALERI
370
     0
100
AcDbLine
 10
750476.478
 20
4169303.379
 30
927.1010131835938
 11
750474.308
 21
4169302.718
 31
926.9459838867188
  0
LINE
  5
1CF
330
1F
100
AcDbEntity
  8
ARAPGALERI
370
     0
100
AcDbLine
 10
750474.308
 20
4169302.718
 30
926.9459838867188
 11
750470.319
 21
4169301.025
 31
926.8510131835938
  0
LINE
  5
1D0
330
1F
100
AcDbEntity
  8
ARAPGALERI
370
     0
100
AcDbLine
 10
750470.319
 20
4169301.025
 30
926.8510131835938
 11
750466.799
 21
4169299.363
 31
926.8670043945312
  0
LINE
  5
1D1
330
1F
100
AcDbEntity
  8
ARAPGALERI
370
     0
100
AcDbLine
 10
750466.799
 20
4169299.363
 30
926.8670043945312
 11
750462.384
 21
4169297.327
 31
926.9630126953125
  0
LINE
  5
1D2
330
1F
100
AcDbEntity
  8
ARAPGALERI
370
     0
100
AcDbLine
 10
750488.853
 20
4169306.371
 30
927.0
 11
750498.150222064
 21
4169310.102530185
 31
926.8729858398438
  0
LINE
  5
1D3
330
1F
100
AcDbEntity
  8
ARAPGALERI
370
     0
100
AcDbLine
 10
750462.384
 20
4169297.327
 30
926.9630126953125
 11
750457.6143415711
 21
4169295.723866495
 31
926.4500122070312
  0
LINE
  5
1D4
330
1F
100
AcDbEntity
  8
ARAPGALERI
370
     0
100
AcDbLine
 10
750457.6143415711
 20
4169295.723866495
 30
926.4500122070312
 11
750457.186
 21
4169299.285
 31
927.4739990234375
  0
LINE
  5
1D5
330
1F
100
AcDbEntity
  8
ARAPGALERI
370
     0
100
AcDbLine
 10
750456.164
 20
4169299.467
 30
927.4409790039062
 11
750456.0988352216
 21
4169295.187124663
 31
926.4500122070312
  0
LINE
  5
1D6
330
1F
100
AcDbEntity
  8
ARAPGALERI
370
     0
100
AcDbLine
 10
750456.0988352216
 20
4169295.187124663
 30
926.4500122070312
 11
750451.417
 21
4169293.036
 31
926.2050170898438
  0
LINE
  5
1D8
330
1F
100
AcDbEntity
  8
ARAPGALERI
370
     0
100
AcDbLine
 10
750433.085
 20
4169288.11
 30
927.2969970703125
 11
750432.259
 21
4169288.108
 31
927.1019897460938
  0
LINE
  5
1D9
330
1F
100
AcDbEntity
  8
ARAPGALERI
370
     0
100
AcDbLine
 10
750432.259
 20
4169288.108
 30
927.1019897460938
 11
750430.005
 21
4169288.335
 31
927.2730102539062
  0
LINE
  5
1DA
330
1F
100
AcDbEntity
  8
ARAPGALERI
370
     0
100
AcDbLine
 10
750430.005
 20
4169288.335
 30
927.2730102539062
 11
750428.528
 21
4169288.856
 31
927.4149780273438
  0
LINE
  5
1DB
330
1F
100
AcDbEntity
  8
ARAPGALERI
370
     0
100
AcDbLine
 10
750428.528
 20
4169288.856
 30
927.4149780273438
 11
750425.907
 21
4169290.521
 31
927.5980224609375
  0
LINE
  5
1DC
330
1F
100
AcDbEntity
  8
ARAPGALERI
370
     0
100
AcDbLine
 10
750425.907
 20
4169290.521
 30
927.5980224609375
 11
750423.908
 21
4169292.111
 31
927.8709716796875
  0
LINE
  5
1DD
330
1F
100
AcDbEntity
  8
ARAPGALERI
370
     0
100
AcDbLine
 10
750423.908
 20
4169292.111
 30
927.8709716796875
 11
750421.581
 21
4169293.819
 31
927.9639892578125
  0
LINE
  5
1DE
330
1F
100
AcDbEntity
  8
ARAPGALERI
370
     0
100
AcDbLine
 10
750421.581
 20
4169293.819
 30
927.9639892578125
 11
750419.3235701189
 21
4169291.71026138
 31
927.8599853515625
  0
LINE
  5
1DF
330
1F
100
AcDbEntity
  8
ARAPGALERI
370
     0
100
AcDbLine
 10
750419.3235701189
 20
4169291.71026138
 30
927.8599853515625
 11
750421.341
 21
4169290.726
 31
927.8599853515625
  0
LINE
  5
1E0
330
1F
100
AcDbEntity
  8
ARAPGALERI
370
     0
100
AcDbLine
 10
750421.341
 20
4169290.726
 30
927.8599853515625
 11
750423.669
 21
4169287.979
 31
927.5250244140625
  0
LINE
  5
1E1
330
1F
100
AcDbEntity
  8
ARAPGALERI
370
     0
100
AcDbLine
 10
750423.669
 20
4169287.979
 30
927.5250244140625
 11
750426.934
 21
4169285.98
 31
927.4439697265625
  0
LINE
  5
1E2
330
1F
100
AcDbEntity
  8
ARAPGALERI
370
     0
100
AcDbLine
 10
750426.934
 20
4169285.98
 30
927.4439697265625
 11
750428.537
 21
4169285.476
 31
927.3200073242188
  0
LINE
  5
1E3
330
1F
100
AcDbEntity
  8
ARAPGALERI
370
     0
100
AcDbLine
 10
750428.537
 20
4169285.476
 30
927.3200073242188
 11
750431.136
 21
4169285.297
 31
927.3590087890625
  0
LINE
  5
1E4
330
1F
100
AcDbEntity
  8
ARAPGALERI
370
     0
100
AcDbLine
 10
750431.136
 20
4169285.297
 30
927.3590087890625
 11
750432.251
 21
4169285.437
 31
927.2479858398438
  0
LINE
  5
1E5
330
1F
100
AcDbEntity
  8
ARAPGALERI
370
     0
100
AcDbLine
 10
750432.251
 20
4169285.437
 30
927.2479858398438
 11
750434.419
 21
4169285.217
 31
927.2670288085938
  0
LINE
  5
1E6
330
1F
100
AcDbEntity
  8
ARAPGALERI
370
     0
100
AcDbLine
 10
750448.371
 20
4169292.219
 30
926.3489990234375
 11
750443.355
 21
4169290.75
 31
926.969970703125
  0
LINE
  5
1E7
330
1F
100
AcDbEntity
  8
ARAPGALERI
370
     0
100
AcDbLine
 10
750443.355
 20
4169290.75
 30
926.969970703125
 11
750442.0
 21
4169291.686
 31
927.25
  0
LINE
  5
1E8
330
1F
100
AcDbEntity
  8
ARAPGALERI
370
     0
100
AcDbLine
 10
750439.872
 20
4169291.559
 30
927.43798828125
 11
750439.072
 21
4169289.764
 31
927.39599609375
  0
LINE
  5
1E9
330
1F
100
AcDbEntity
  8
ARAPGALERI
370
     0
100
AcDbLine
 10
750439.072
 20
4169289.764
 30
927.39599609375
 11
750436.0884052861
 21
4169288.778155786
 31
927.1209716796875
  0
LINE
  5
1EA
330
1F
100
AcDbEntity
  8
ARAPGALERI
370
     0
100
AcDbLine
 10
750421.581
 20
4169293.819
 30
927.9639892578125
 11
750419.387
 21
4169295.851
 31
928.3690185546875
  0
LINE
  5
1EB
330
1F
100
AcDbEntity
  8
ARAPGALERI
370
     0
100
AcDbLine
 10
750419.387
 20
4169295.851
 30
928.3690185546875
 11
750418.499
 21
4169297.443
 31
928.8560180664062
  0
LINE
  5
1EC
330
1F
100
AcDbEntity
  8
ARAPGALERI
370
     0
100
AcDbLine
 10
750414.813
 20
4169296.066
 30
929.0159912109375
 11
750414.317
 21
4169294.378
 31
928.8829956054688
  0
LINE
  5
1ED
330
1F
100
AcDbEntity
  8
ARAPGALERI
370
     0
100
AcDbLine
 10
750414.317
 20
4169294.378
 30
928.8829956054688
 11
750416.006
 21
4169291.23
 31
928.8699951171875
  0
LINE
  5
1EE
330
1F
100
AcDbEntity
  8
ARAPGALERI
370
     0
100
AcDbLine
 10
750416.006
 20
4169291.23
 30
928.8699951171875
 11
750418.181
 21
4169292.39
 31
928.291015625
  0
LINE
  5
1EF
330
1F
100
AcDbEntity
  8
ARAPGALERI
370
     0
100
AcDbLine
 10
750418.181
 20
4169292.39
 30
928.291015625
 11
750419.3235701189
 21
4169291.71026138
 31
927.8599853515625
  0
LINE
  5
1F0
330
1F
100
AcDbEntity
  8
ARAPGALERI
370
     0
100
AcDbLine
 10
750401.303
 20
4169238.006
 30
930.3820190429688
 11
750401.108
 21
4169236.143
 31
932.4660034179688
  0
LINE
  5
1F1
330
1F
100
AcDbEntity
  8
ARAPGALERI
370
     0
100
AcDbLine
 10
750402.407
 20
4169236.251
 30
932.3709716796875
 11
750402.766
 21
4169237.768
 31
930.6649780273438
  0
LINE
  5
1F2
330
1F
100
AcDbEntity
  8
ARAPGALERI
370
     0
100
AcDbLine
 10
750402.766
 20
4169237.768
 30
930.6649780273438
 11
750401.303
 21
4169238.006
 31
930.3820190429688
  0
LINE
  5
1F3
330
1F
100
AcDbEntity
  8
ARAPGALERI
370
     0
100
AcDbLine
 10
750400.642973803
 20
4169238.563553546
 30
929.0750122070312
 11
750401.303
 21
4169238.006
 31
930.3820190429688
  0
LINE
  5
1F4
330
1F
100
AcDbEntity
  8
ARAPGALERI
370
     0
100
AcDbLine
 10
750402.766
 20
4169237.768
 30
930.6649780273438
 11
750402.9167225537
 21
4169238.525603601
 31
928.7999877929688
  0
LINE
  5
1F5
330
1F
100
AcDbEntity
  8
ARAPGALERI
370
     0
100
AcDbLine
 10
750430.603
 20
4169256.928
 30
927.64697265625
 11
750431.127
 21
4169257.893
 31
927.9500122070312
  0
LINE
  5
1F6
330
1F
100
AcDbEntity
  8
ARAPGALERI
370
     0
100
AcDbLine
 10
750432.481
 20
4169261.967
 30
927.7479858398438
 11
750434.88
 21
4169268.058
 31
927.031982421875
  0
LINE
  5
1F7
330
1F
100
AcDbEntity
  8
ARAPGALERI
370
     0
100
AcDbLine
 10
750409.107
 20
4169306.309
 30
929.9400024414062
 11
750411.188
 21
4169303.866
 31
929.8109741210938
  0
LINE
  5
1F8
330
1F
100
AcDbEntity
  8
ARAPGALERI
370
     0
100
AcDbLine
 10
750411.188
 20
4169303.866
 30
929.8109741210938
 11
750414.036
 21
4169298.655
 31
928.927001953125
  0
LINE
  5
1F9
330
1F
100
AcDbEntity
  8
ARAPGALERI
370
     0
100
AcDbLine
 10
750414.036
 20
4169298.655
 30
928.927001953125
 11
750414.813
 21
4169296.066
 31
929.0159912109375
  0
LINE
  5
1FA
330
1F
100
AcDbEntity
  8
ARAPGALERI
370
     0
100
AcDbLine
 10
750418.499
 20
4169297.443
 30
928.8560180664062
 11
750417.046
 21
4169300.288
 31
928.7999877929688
  0
LINE
  5
1FB
330
1F
100
AcDbEntity
  8
ARAPGALERI
370
     0
100
AcDbLine
 10
750417.046
 20
4169300.288
 30
928.7999877929688
 11
750414.3792559253
 21
4169304.446888879
 31
929.5549926757812
  0
LINE
  5
1FC
330
1F
100
AcDbEntity
  8
ARAPGALERI
370
     0
100
AcDbLine
 10
750414.3792559253
 20
4169304.446888879
 30
929.5549926757812
 11
750412.8089125479
 21
4169306.608420352
 31
929.85498046875
  0
LINE
  5
1FD
330
1F
100
AcDbEntity
  8
ARAPGALERI
370
     0
100
AcDbLine
 10
750412.8089125479
 20
4169306.608420352
 30
929.85498046875
 11
750409.454
 21
4169309.992
 31
929.7440185546875
  0
LINE
  5
1FE
330
1F
100
AcDbEntity
  8
ARAPGALERI
370
     0
100
AcDbLine
 10
750409.454
 20
4169309.992
 30
929.7440185546875
 11
750406.768
 21
4169313.599
 31
929.5609741210938
  0
LINE
  5
1FF
330
1F
100
AcDbEntity
  8
ARAPGALERI
370
     0
100
AcDbLine
 10
750406.768
 20
4169313.599
 30
929.5609741210938
 11
750403.878
 21
4169318.079
 31
929.6069946289062
  0
LINE
  5
200
330
1F
100
AcDbEntity
  8
ARAPGALERI
370
     0
100
AcDbLine
 10
750403.878
 20
4169318.079
 30
929.6069946289062
 11
750405.424
 21
4169320.042
 31
929.6069946289062
  0
LINE
  5
201
330
1F
100
AcDbEntity
  8
ARAPGALERI
370
     0
100
AcDbLine
 10
750405.424
 20
4169320.042
 30
929.6069946289062
 11
750406.198
 21
4169320.651
 31
929.6069946289062
  0
LINE
  5
202
330
1F
100
AcDbEntity
  8
ARAPGALERI
370
     0
100
AcDbLine
 10
750406.198
 20
4169320.651
 30
929.6069946289062
 11
750404.222
 21
4169322.412
 31
929.6069946289062
  0
LINE
  5
203
330
1F
100
AcDbEntity
  8
ARAPGALERI
370
     0
100
AcDbLine
 10
750404.222
 20
4169322.412
 30
929.6069946289062
 11
750402.244
 21
4169322.417
 31
929.6069946289062
  0
LINE
  5
204
330
1F
100
AcDbEntity
  8
ARAPGALERI
370
     0
100
AcDbLine
 10
750402.244
 20
4169322.417
 30
929.6069946289062
 11
750400.955
 21
4169323.737
 31
929.6069946289062
  0
LINE
  5
205
330
1F
100
AcDbEntity
  8
ARAPGALERI
370
     0
100
AcDbLine
 10
750400.955
 20
4169323.737
 30
929.6069946289062
 11
750399.749
 21
4169325.702
 31
929.6069946289062
  0
LINE
  5
206
330
1F
100
AcDbEntity
  8
ARAPGALERI
370
     0
100
AcDbLine
 10
750397.893
 20
4169323.798
 30
929.6069946289062
 11
750399.591
 21
4169320.254
 31
929.6069946289062
  0
LINE
  5
207
330
1F
100
AcDbEntity
  8
ARAPGALERI
370
     0
100
AcDbLine
 10
750399.591
 20
4169320.254
 30
929.6069946289062
 11
750401.473
 21
4169316.932
 31
929.6069946289062
  0
LINE
  5
208
330
1F
100
AcDbEntity
  8
ARAPGALERI
370
     0
100
AcDbLine
 10
750401.473
 20
4169316.932
 30
929.6069946289062
 11
750403.043
 21
4169314.403
 31
929.6069946289062
  0
LINE
  5
209
330
1F
100
AcDbEntity
  8
ARAPGALERI
370
     0
100
AcDbLine
 10
750403.043
 20
4169314.403
 30
929.6069946289062
 11
750404.488
 21
4169312.119
 31
929.6309814453125
  0
LINE
  5
20A
330
1F
100
AcDbEntity
  8
ARAPGALERI
370
     0
100
AcDbLine
 10
750404.488
 20
4169312.119
 30
929.6309814453125
 11
750408.033
 21
4169307.29
 31
929.8400268554688
  0
LINE
  5
20B
330
1F
100
AcDbEntity
  8
ARAPGALERI
370
     0
100
AcDbLine
 10
750408.033
 20
4169307.29
 30
929.8400268554688
 11
750409.107
 21
4169306.309
 31
929.9400024414062
  0
LINE
  5
20C
330
1F
100
AcDbEntity
  8
ARAPGALERI
370
     0
100
AcDbLine
 10
750399.749
 20
4169325.702
 30
929.6069946289062
 11
750399.076
 21
4169327.047
 31
929.6900024414062
  0
LINE
  5
20D
330
1F
100
AcDbEntity
  8
ARAPGALERI
370
     0
100
AcDbLine
 10
750395.170291364
 20
4169329.909787709
 30
929.6900024414062
 11
750395.882780021
 21
4169328.347793345
 31
929.6900024414062
  0
LINE
  5
20E
330
1F
100
AcDbEntity
  8
ARAPGALERI
370
     0
100
AcDbLine
 10
750395.882780021
 20
4169328.347793345
 30
929.6900024414062
 11
750397.893
 21
4169323.798
 31
929.6069946289062
  0
LINE
  5
20F
330
1F
100
AcDbEntity
  8
ARAPGALERI
370
     0
100
AcDbLine
 10
750399.076
 20
4169327.047
 30
929.6900024414062
 11
750397.151
 21
4169332.677
 31
930.2999877929688
  0
LINE
  5
210
330
1F
100
AcDbEntity
  8
ARAPGALERI
370
     0
100
AcDbLine
 10
750397.151
 20
4169332.677
 30
930.2999877929688
 11
750396.497
 21
4169337.159
 31
930.2999877929688
  0
LINE
  5
211
330
1F
100
AcDbEntity
  8
ARAPGALERI
370
     0
100
AcDbLine
 10
750396.497
 20
4169337.159
 30
930.2999877929688
 11
750394.553
 21
4169343.511
 31
930.2999877929688
  0
LINE
  5
212
330
1F
100
AcDbEntity
  8
ARAPGALERI
370
     0
100
AcDbLine
 10
750394.553
 20
4169343.511
 30
930.2999877929688
 11
750393.326
 21
4169346.476
 31
930.2999877929688
  0
LINE
  5
213
330
1F
100
AcDbEntity
  8
ARAPGALERI
370
     0
100
AcDbLine
 10
750393.326
 20
4169346.476
 30
930.2999877929688
 11
750392.064
 21
4169351.667
 31
930.2999877929688
  0
LINE
  5
214
330
1F
100
AcDbEntity
  8
ARAPGALERI
370
     0
100
AcDbLine
 10
750389.11
 20
4169351.183
 30
930.2999877929688
 11
750390.57
 21
4169345.692
 31
930.2999877929688
  0
LINE
  5
215
330
1F
100
AcDbEntity
  8
ARAPGALERI
370
     0
100
AcDbLine
 10
750390.57
 20
4169345.692
 30
930.2999877929688
 11
750392.72
 21
4169339.092
 31
930.2999877929688
  0
LINE
  5
216
330
1F
100
AcDbEntity
  8
ARAPGALERI
370
     0
100
AcDbLine
 10
750392.72
 20
4169339.092
 30
930.2999877929688
 11
750393.883
 21
4169334.825
 31
930.2999877929688
  0
LINE
  5
217
330
1F
100
AcDbEntity
  8
ARAPGALERI
370
     0
100
AcDbLine
 10
750393.883
 20
4169334.825
 30
930.2999877929688
 11
750394.591
 21
4169331.487
 31
930.2999877929688
  0
LINE
  5
218
330
1F
100
AcDbEntity
  8
ARAPGALERI
370
     0
100
AcDbLine
 10
750394.591
 20
4169331.487
 30
930.2999877929688
 11
750395.170291364
 21
4169329.909787709
 31
929.6900024414062
  0
LINE
  5
219
330
1F
100
AcDbEntity
  8
ARAPGALERI
370
     0
100
AcDbLine
 10
750401.108
 20
4169236.143
 30
932.4660034179688
 11
750401.0879353035
 21
4169236.050297436
 31
937.989990234375
  0
LINE
  5
21A
330
1F
100
AcDbEntity
  8
ARAPGALERI
370
     0
100
AcDbLine
 10
750402.7469718198
 20
4169236.109647911
 30
937.989990234375
 11
750402.407
 21
4169236.251
 31
932.3709716796875
  0
LINE
  5
21B
330
1F
100
AcDbEntity
  8
ARAPGALERI
370
     0
100
AcDbLine
 10
750392.064
 20
4169351.667
 30
930.2999877929688
 11
750391.374
 21
4169353.712
 31
930.9739990234375
  0
LINE
  5
21C
330
1F
100
AcDbEntity
  8
ARAPGALERI
370
     0
100
AcDbLine
 10
750388.838
 20
4169352.839
 30
930.926025390625
 11
750389.11
 21
4169351.183
 31
930.2999877929688
  0
LINE
  5
21D
330
1F
100
AcDbEntity
  8
ARAPGALERI
370
     0
100
AcDbLine
 10
750391.374
 20
4169353.712
 30
930.9739990234375
 11
750390.371
 21
4169358.722
 31
931.0499877929688
  0
LINE
  5
21E
330
1F
100
AcDbEntity
  8
ARAPGALERI
370
     0
100
AcDbLine
 10
750390.371
 20
4169358.722
 30
931.0499877929688
 11
750386.544
 21
4169365.992
 31
931.31298828125
  0
LINE
  5
21F
330
1F
100
AcDbEntity
  8
ARAPGALERI
370
     0
100
AcDbLine
 10
750386.544
 20
4169365.992
 30
931.31298828125
 11
750385.497
 21
4169367.735
 31
931.47900390625
  0
LINE
  5
220
330
1F
100
AcDbEntity
  8
ARAPGALERI
370
     0
100
AcDbLine
 10
750385.497
 20
4169367.735
 30
931.47900390625
 11
750383.167
 21
4169366.708
 31
931.3250122070312
  0
LINE
  5
221
330
1F
100
AcDbEntity
  8
ARAPGALERI
370
     0
100
AcDbLine
 10
750383.167
 20
4169366.708
 30
931.3250122070312
 11
750384.763
 21
4169363.498
 31
931.333984375
  0
LINE
  5
222
330
1F
100
AcDbEntity
  8
ARAPGALERI
370
     0
100
AcDbLine
 10
750384.763
 20
4169363.498
 30
931.333984375
 11
750385.178
 21
4169362.54
 31
931.343994140625
  0
LINE
  5
223
330
1F
100
AcDbEntity
  8
ARAPGALERI
370
     0
100
AcDbLine
 10
750385.178
 20
4169362.54
 30
931.343994140625
 11
750386.019
 21
4169360.39
 31
931.2269897460938
  0
LINE
  5
224
330
1F
100
AcDbEntity
  8
ARAPGALERI
370
     0
100
AcDbLine
 10
750386.019
 20
4169360.39
 30
931.2269897460938
 11
750385.282
 21
4169358.819
 31
931.2119750976562
  0
LINE
  5
225
330
1F
100
AcDbEntity
  8
ARAPGALERI
370
     0
100
AcDbLine
 10
750385.282
 20
4169358.819
 30
931.2119750976562
 11
750386.0314277321
 21
4169357.77382023
 31
931.0130004882812
  0
LINE
  5
226
330
1F
100
AcDbEntity
  8
ARAPGALERI
370
     0
100
AcDbLine
 10
750386.0314277321
 20
4169357.77382023
 30
931.0130004882812
 11
750387.633
 21
4169356.391
 31
931.0809936523438
  0
LINE
  5
227
330
1F
100
AcDbEntity
  8
ARAPGALERI
370
     0
100
AcDbLine
 10
750387.633
 20
4169356.391
 30
931.0809936523438
 11
750388.838
 21
4169352.839
 31
930.926025390625
  0
LINE
  5
228
330
1F
100
AcDbEntity
  8
ARAPGALERI
370
     0
100
AcDbLine
 10
750385.497
 20
4169367.735
 30
931.47900390625
 11
750384.427
 21
4169371.804
 31
931.6199951171875
  0
LINE
  5
229
330
1F
100
AcDbEntity
  8
ARAPGALERI
370
     0
100
AcDbLine
 10
750384.427
 20
4169371.804
 30
931.6199951171875
 11
750383.69
 21
4169374.471
 31
931.8909912109375
  0
LINE
  5
22A
330
1F
100
AcDbEntity
  8
ARAPGALERI
370
     0
100
AcDbLine
 10
750383.69
 20
4169374.471
 30
931.8909912109375
 11
750380.386
 21
4169379.485
 31
932.0159912109375
  0
LINE
  5
22B
330
1F
100
AcDbEntity
  8
ARAPGALERI
370
     0
100
AcDbLine
 10
750380.386
 20
4169379.485
 30
932.0159912109375
 11
750378.9153356864
 21
4169382.497512378
 31
932.18798828125
  0
LINE
  5
22C
330
1F
100
AcDbEntity
  8
ARAPGALERI
370
     0
100
AcDbLine
 10
750376.558
 20
4169381.477
 30
932.052001953125
 11
750378.301
 21
4169377.897
 31
931.9450073242188
  0
LINE
  5
22D
330
1F
100
AcDbEntity
  8
ARAPGALERI
370
     0
100
AcDbLine
 10
750378.301
 20
4169377.897
 30
931.9450073242188
 11
750380.162
 21
4169374.345
 31
931.6749877929688
  0
LINE
  5
22E
330
1F
100
AcDbEntity
  8
ARAPGALERI
370
     0
100
AcDbLine
 10
750380.162
 20
4169374.345
 30
931.6749877929688
 11
750381.755
 21
4169369.892
 31
931.5889892578125
  0
LINE
  5
22F
330
1F
100
AcDbEntity
  8
ARAPGALERI
370
     0
100
AcDbLine
 10
750381.755
 20
4169369.892
 30
931.5889892578125
 11
750383.167
 21
4169366.708
 31
931.3250122070312
  0
LINE
  5
230
330
1F
100
AcDbEntity
  8
ARAPGALERI
370
     0
100
AcDbLine
 10
750378.9153356864
 20
4169382.497512378
 30
932.18798828125
 11
750377.605
 21
4169386.415
 31
932.2940063476562
  0
LINE
  5
231
330
1F
100
AcDbEntity
  8
ARAPGALERI
370
     0
100
AcDbLine
 10
750377.605
 20
4169386.415
 30
932.2940063476562
 11
750376.4540064518
 21
4169390.130858123
 31
932.4739990234375
  0
LINE
  5
232
330
1F
100
AcDbEntity
  8
ARAPGALERI
370
     0
100
AcDbLine
 10
750376.4540064518
 20
4169390.130858123
 30
932.4739990234375
 11
750374.19
 21
4169389.479
 31
932.5819702148438
  0
LINE
  5
233
330
1F
100
AcDbEntity
  8
ARAPGALERI
370
     0
100
AcDbLine
 10
750374.19
 20
4169389.479
 30
932.5819702148438
 11
750375.049
 21
4169386.492
 31
932.3679809570312
  0
LINE
  5
234
330
1F
100
AcDbEntity
  8
ARAPGALERI
370
     0
100
AcDbLine
 10
750375.049
 20
4169386.492
 30
932.3679809570312
 11
750376.06
 21
4169382.266
 31
932.1439819335938
  0
LINE
  5
235
330
1F
100
AcDbEntity
  8
ARAPGALERI
370
     0
100
AcDbLine
 10
750376.06
 20
4169382.266
 30
932.1439819335938
 11
750376.558
 21
4169381.477
 31
932.052001953125
  0
LINE
  5
236
330
1F
100
AcDbEntity
  8
ARAPGALERI
370
     0
100
AcDbLine
 10
750376.4540064518
 20
4169390.130858123
 30
932.4739990234375
 11
750375.297
 21
4169393.657
 31
932.5989990234375
  0
LINE
  5
237
330
1F
100
AcDbEntity
  8
ARAPGALERI
370
     0
100
AcDbLine
 10
750373.198
 20
4169392.206
 30
932.5449829101562
 11
750374.19
 21
4169389.479
 31
932.5819702148438
  0
LINE
  5
238
330
1F
100
AcDbEntity
  8
ARAPGALERI
370
     0
100
AcDbLine
 10
750375.297
 20
4169393.657
 30
932.5989990234375
 11
750373.571
 21
4169397.03
 31
933.02197265625
  0
LINE
  5
239
330
1F
100
AcDbEntity
  8
ARAPGALERI
370
     0
100
AcDbLine
 10
750373.571
 20
4169397.03
 30
933.02197265625
 11
750371.759
 21
4169400.241
 31
932.9810180664062
  0
LINE
  5
23A
330
1F
100
AcDbEntity
  8
ARAPGALERI
370
     0
100
AcDbLine
 10
750371.759
 20
4169400.241
 30
932.9810180664062
 11
750370.192
 21
4169405.766
 31
933.2369995117188
  0
LINE
  5
23B
330
1F
100
AcDbEntity
  8
ARAPGALERI
370
     0
100
AcDbLine
 10
750370.192
 20
4169405.766
 30
933.2369995117188
 11
750369.297
 21
4169410.012
 31
933.333984375
  0
LINE
  5
23C
330
1F
100
AcDbEntity
  8
ARAPGALERI
370
     0
100
AcDbLine
 10
750366.663
 20
4169409.686
 30
933.4400024414062
 11
750367.457
 21
4169404.959
 31
933.052001953125
  0
LINE
  5
23D
330
1F
100
AcDbEntity
  8
ARAPGALERI
370
     0
100
AcDbLine
 10
750367.457
 20
4169404.959
 30
933.052001953125
 11
750369.616
 21
4169399.435
 31
933.0150146484375
  0
LINE
  5
23E
330
1F
100
AcDbEntity
  8
ARAPGALERI
370
     0
100
AcDbLine
 10
750369.616
 20
4169399.435
 30
933.0150146484375
 11
750373.198
 21
4169392.206
 31
932.5449829101562
  0
LINE
  5
23F
330
1F
100
AcDbEntity
  8
ARAPGALERI
370
     0
100
AcDbLine
 10
750369.297
 20
4169410.012
 30
933.333984375
 11
750368.398
 21
4169412.875
 31
933.3670043945312
  0
LINE
  5
240
330
1F
100
AcDbEntity
  8
ARAPGALERI
370
     0
100
AcDbLine
 10
750368.398
 20
4169412.875
 30
933.3670043945312
 11
750366.803
 21
4169415.923
 31
933.3419799804688
  0
LINE
  5
241
330
1F
100
AcDbEntity
  8
ARAPGALERI
370
     0
100
AcDbLine
 10
750366.803
 20
4169415.923
 30
933.3419799804688
 11
750365.925
 21
4169417.722
 31
933.3400268554688
  0
LINE
  5
242
330
1F
100
AcDbEntity
  8
ARAPGALERI
370
     0
100
AcDbLine
 10
750361.36
 20
4169421.566
 30
933.551025390625
 11
750363.348
 21
4169417.22
 31
933.344970703125
  0
LINE
  5
243
330
1F
100
AcDbEntity
  8
ARAPGALERI
370
     0
100
AcDbLine
 10
750363.348
 20
4169417.22
 30
933.344970703125
 11
750364.506
 21
4169414.1
 31
933.3170166015625
  0
LINE
  5
244
330
1F
100
AcDbEntity
  8
ARAPGALERI
370
     0
100
AcDbLine
 10
750364.506
 20
4169414.1
 30
933.3170166015625
 11
750365.909
 21
4169411.413
 31
933.2960205078125
  0
LINE
  5
245
330
1F
100
AcDbEntity
  8
ARAPGALERI
370
     0
100
AcDbLine
 10
750365.909
 20
4169411.413
 30
933.2960205078125
 11
750366.663
 21
4169409.686
 31
933.4400024414062
  0
LINE
  5
246
330
1F
100
AcDbEntity
  8
ARAPGALERI
370
     0
100
AcDbLine
 10
750365.925
 20
4169417.722
 30
933.3400268554688
 11
750363.917
 21
4169422.346
 31
933.9929809570312
  0
LINE
  5
247
330
1F
100
AcDbEntity
  8
ARAPGALERI
370
     0
100
AcDbLine
 10
750363.917
 20
4169422.346
 30
933.9929809570312
 11
750361.456
 21
4169427.482
 31
934.3880004882812
  0
LINE
  5
248
330
1F
100
AcDbEntity
  8
ARAPGALERI
370
     0
100
AcDbLine
 10
750360.375
 20
4169424.003
 30
934.198974609375
 11
750361.36
 21
4169421.566
 31
933.551025390625
  0
LINE
  5
249
330
1F
100
AcDbEntity
  8
ARAPGALERI
370
     0
100
AcDbLine
 10
750361.456
 20
4169427.482
 30
934.3880004882812
 11
750360.261
 21
4169430.486
 31
934.4099731445312
  0
LINE
  5
24A
330
1F
100
AcDbEntity
  8
ARAPGALERI
370
     0
100
AcDbLine
 10
750360.261
 20
4169430.486
 30
934.4099731445312
 11
750359.214
 21
4169433.391
 31
934.7119750976562
  0
LINE
  5
24B
330
1F
100
AcDbEntity
  8
ARAPGALERI
370
     0
100
AcDbLine
 10
750359.214
 20
4169433.391
 30
934.7119750976562
 11
750358.684
 21
4169435.504
 31
934.7119750976562
  0
LINE
  5
24C
330
1F
100
AcDbEntity
  8
ARAPGALERI
370
     0
100
AcDbLine
 10
750358.684
 20
4169435.504
 30
934.7119750976562
 11
750357.653
 21
4169438.083
 31
934.7119750976562
  0
LINE
  5
24D
330
1F
100
AcDbEntity
  8
ARAPGALERI
370
     0
100
AcDbLine
 10
750357.653
 20
4169438.083
 30
934.7119750976562
 11
750356.85
 21
4169439.559
 31
934.7119750976562
  0
LINE
  5
24E
330
1F
100
AcDbEntity
  8
ARAPGALERI
370
     0
100
AcDbLine
 10
750353.791
 20
4169438.483
 30
934.7119750976562
 11
750354.997
 21
4169436.371
 31
934.7119750976562
  0
LINE
  5
24F
330
1F
100
AcDbEntity
  8
ARAPGALERI
370
     0
100
AcDbLine
 10
750354.997
 20
4169436.371
 30
934.7119750976562
 11
750356.005
 21
4169434.731
 31
934.7119750976562
  0
LINE
  5
250
330
1F
100
AcDbEntity
  8
ARAPGALERI
370
     0
100
AcDbLine
 10
750356.005
 20
4169434.731
 30
934.7119750976562
 11
750356.48
 21
4169431.88
 31
934.4099731445312
  0
LINE
  5
251
330
1F
100
AcDbEntity
  8
ARAPGALERI
370
     0
100
AcDbLine
 10
750356.48
 20
4169431.88
 30
934.4099731445312
 11
750354.322
 21
4169429.815
 31
934.4099731445312
  0
LINE
  5
252
330
1F
100
AcDbEntity
  8
ARAPGALERI
370
     0
100
AcDbLine
 10
750354.322
 20
4169429.815
 30
934.4099731445312
 11
750354.829
 21
4169427.906
 31
934.4099731445312
  0
LINE
  5
253
330
1F
100
AcDbEntity
  8
ARAPGALERI
370
     0
100
AcDbLine
 10
750354.829
 20
4169427.906
 30
934.4099731445312
 11
750355.991
 21
4169426.976
 31
934.4099731445312
  0
LINE
  5
254
330
1F
100
AcDbEntity
  8
ARAPGALERI
370
     0
100
AcDbLine
 10
750355.991
 20
4169426.976
 30
934.4099731445312
 11
750357.903
 21
4169426.987
 31
934.4099731445312
  0
LINE
  5
255
330
1F
100
AcDbEntity
  8
ARAPGALERI
370
     0
100
AcDbLine
 10
750357.903
 20
4169426.987
 30
934.4099731445312
 11
750360.375
 21
4169424.003
 31
934.198974609375
  0
LINE
  5
256
330
1F
100
AcDbEntity
  8
ARAPGALERI
370
     0
100
AcDbLine
 10
750356.85
 20
4169439.559
 30
934.7119750976562
 11
750354.269
 21
4169443.203
 31
935.3319702148438
  0
LINE
  5
257
330
1F
100
AcDbEntity
  8
ARAPGALERI
370
     0
100
AcDbLine
 10
750354.269
 20
4169443.203
 30
935.3319702148438
 11
750350.112
 21
4169449.248
 31
935.7949829101562
  0
LINE
  5
258
330
1F
100
AcDbEntity
  8
ARAPGALERI
370
     0
100
AcDbLine
 10
750350.112
 20
4169449.248
 30
935.7949829101562
 11
750347.848
 21
4169452.172
 31
935.72900390625
  0
LINE
  5
259
330
1F
100
AcDbEntity
  8
ARAPGALERI
370
     0
100
AcDbLine
 10
750347.848
 20
4169452.172
 30
935.72900390625
 11
750346.224
 21
4169454.572
 31
935.9229736328125
  0
LINE
  5
25A
330
1F
100
AcDbEntity
  8
ARAPGALERI
370
     0
100
AcDbLine
 10
750346.224
 20
4169454.572
 30
935.9229736328125
 11
750346.128
 21
4169455.268
 31
936.1339721679688
  0
LINE
  5
25B
330
1F
100
AcDbEntity
  8
ARAPGALERI
370
     0
100
AcDbLine
 10
750346.128
 20
4169455.268
 30
936.1339721679688
 11
750346.558
 21
4169456.213
 31
936.5609741210938
  0
LINE
  5
25C
330
1F
100
AcDbEntity
  8
ARAPGALERI
370
     0
100
AcDbLine
 10
750346.558
 20
4169456.213
 30
936.5609741210938
 11
750346.061
 21
4169457.32
 31
936.56298828125
  0
LINE
  5
25D
330
1F
100
AcDbEntity
  8
ARAPGALERI
370
     0
100
AcDbLine
 10
750346.061
 20
4169457.32
 30
936.56298828125
 11
750345.626
 21
4169457.312
 31
936.52001953125
  0
LINE
  5
25E
330
1F
100
AcDbEntity
  8
ARAPGALERI
370
     0
100
AcDbLine
 10
750345.626
 20
4169457.312
 30
936.52001953125
 11
750345.382
 21
4169457.024
 31
936.35302734375
  0
LINE
  5
25F
330
1F
100
AcDbEntity
  8
ARAPGALERI
370
     0
100
AcDbLine
 10
750345.382
 20
4169457.024
 30
936.35302734375
 11
750344.746
 21
4169456.294
 31
935.9609985351562
  0
LINE
  5
260
330
1F
100
AcDbEntity
  8
ARAPGALERI
370
     0
100
AcDbLine
 10
750342.299
 20
4169454.235
 30
936.1690063476562
 11
750345.269
 21
4169450.702
 31
935.72998046875
  0
LINE
  5
261
330
1F
100
AcDbEntity
  8
ARAPGALERI
370
     0
100
AcDbLine
 10
750345.269
 20
4169450.702
 30
935.72998046875
 11
750347.896
 21
4169447.552
 31
935.5339965820312
  0
LINE
  5
262
330
1F
100
AcDbEntity
  8
ARAPGALERI
370
     0
100
AcDbLine
 10
750347.896
 20
4169447.552
 30
935.5339965820312
 11
750351.101
 21
4169442.491
 31
935.280029296875
  0
LINE
  5
263
330
1F
100
AcDbEntity
  8
ARAPGALERI
370
     0
100
AcDbLine
 10
750351.101
 20
4169442.491
 30
935.280029296875
 11
750353.791
 21
4169438.483
 31
934.7119750976562
  0
LINE
  5
264
330
1F
100
AcDbEntity
  8
ARAPGALERI
370
     0
100
AcDbLine
 10
750344.746
 20
4169456.294
 30
935.9609985351562
 11
750339.084
 21
4169462.499
 31
936.083984375
  0
LINE
  5
265
330
1F
100
AcDbEntity
  8
ARAPGALERI
370
     0
100
AcDbLine
 10
750339.084
 20
4169462.499
 30
936.083984375
 11
750337.844
 21
4169464.232
 31
936.083984375
  0
LINE
  5
266
330
1F
100
AcDbEntity
  8
ARAPGALERI
370
     0
100
AcDbLine
 10
750337.844
 20
4169464.232
 30
936.083984375
 11
750337.0
 21
4169466.331
 31
936.1649780273438
  0
LINE
  5
267
330
1F
100
AcDbEntity
  8
ARAPGALERI
370
     0
100
AcDbLine
 10
750337.0
 20
4169466.331
 30
936.1649780273438
 11
750333.373
 21
4169471.822
 31
936.2880249023438
  0
LINE
  5
268
330
1F
100
AcDbEntity
  8
ARAPGALERI
370
     0
100
AcDbLine
 10
750333.373
 20
4169471.822
 30
936.2880249023438
 11
750330.749
 21
4169475.234
 31
936.4429931640625
  0
LINE
  5
269
330
1F
100
AcDbEntity
  8
ARAPGALERI
370
     0
100
AcDbLine
 10
750330.749
 20
4169475.234
 30
936.4429931640625
 11
750327.447
 21
4169478.738
 31
936.6170043945312
  0
LINE
  5
26A
330
1F
100
AcDbEntity
  8
ARAPGALERI
370
     0
100
AcDbLine
 10
750327.447
 20
4169478.738
 30
936.6170043945312
 11
750325.254
 21
4169480.463
 31
936.7030029296875
  0
LINE
  5
26B
330
1F
100
AcDbEntity
  8
ARAPGALERI
370
     0
100
AcDbLine
 10
750325.254
 20
4169480.463
 30
936.7030029296875
 11
750323.134
 21
4169482.269
 31
936.8109741210938
  0
LINE
  5
26C
330
1F
100
AcDbEntity
  8
ARAPGALERI
370
     0
100
AcDbLine
 10
750323.134
 20
4169482.269
 30
936.8109741210938
 11
750320.833
 21
4169484.639
 31
936.6859741210938
  0
LINE
  5
26D
330
1F
100
AcDbEntity
  8
ARAPGALERI
370
     0
100
AcDbLine
 10
750320.833
 20
4169484.639
 30
936.6859741210938
 11
750318.375
 21
4169487.856
 31
936.6859741210938
  0
LINE
  5
26E
330
1F
100
AcDbEntity
  8
ARAPGALERI
370
     0
100
AcDbLine
 10
750318.107
 20
4169483.171
 30
936.6859741210938
 11
750321.633
 21
4169479.556
 31
936.6900024414062
  0
LINE
  5
26F
330
1F
100
AcDbEntity
  8
ARAPGALERI
370
     0
100
AcDbLine
 10
750321.633
 20
4169479.556
 30
936.6900024414062
 11
750323.587
 21
4169478.123
 31
936.5089721679688
  0
LINE
  5
270
330
1F
100
AcDbEntity
  8
ARAPGALERI
370
     0
100
AcDbLine
 10
750323.587
 20
4169478.123
 30
936.5089721679688
 11
750324.875
 21
4169477.17
 31
936.4819946289062
  0
LINE
  5
271
330
1F
100
AcDbEntity
  8
ARAPGALERI
370
     0
100
AcDbLine
 10
750324.875
 20
4169477.17
 30
936.4819946289062
 11
750326.31
 21
4169475.74
 31
936.3900146484375
  0
LINE
  5
272
330
1F
100
AcDbEntity
  8
ARAPGALERI
370
     0
100
AcDbLine
 10
750326.31
 20
4169475.74
 30
936.3900146484375
 11
750327.876
 21
4169473.934
 31
936.2379760742188
  0
LINE
  5
273
330
1F
100
AcDbEntity
  8
ARAPGALERI
370
     0
100
AcDbLine
 10
750327.876
 20
4169473.934
 30
936.2379760742188
 11
750332.23
 21
4169468.085
 31
936.0709838867188
  0
LINE
  5
274
330
1F
100
AcDbEntity
  8
ARAPGALERI
370
     0
100
AcDbLine
 10
750332.23
 20
4169468.085
 30
936.0709838867188
 11
750336.601
 21
4169461.194
 31
935.8980102539062
  0
LINE
  5
275
330
1F
100
AcDbEntity
  8
ARAPGALERI
370
     0
100
AcDbLine
 10
750336.601
 20
4169461.194
 30
935.8980102539062
 11
750341.297
 21
4169455.195
 31
935.7009887695312
  0
LINE
  5
276
330
1F
100
AcDbEntity
  8
ARAPGALERI
370
     0
100
AcDbLine
 10
750341.297
 20
4169455.195
 30
935.7009887695312
 11
750342.299
 21
4169454.235
 31
936.1690063476562
  0
LINE
  5
277
330
1F
100
AcDbEntity
  8
ARAPGALERI
370
     0
100
AcDbLine
 10
750316.4249598293
 20
4169485.070029445
 30
936.6859741210938
 11
750318.107
 21
4169483.171
 31
936.6859741210938
  0
LINE
  5
278
330
1F
100
AcDbEntity
  8
ARAPGALERI
370
     0
100
AcDbLine
 10
750318.375
 20
4169487.856
 30
936.6859741210938
 11
750314.013
 21
4169492.991
 31
937.1099853515625
  0
LINE
  5
279
330
1F
100
AcDbEntity
  8
ARAPGALERI
370
     0
100
AcDbLine
 10
750314.013
 20
4169492.991
 30
937.1099853515625
 11
750309.813
 21
4169497.753
 31
937.1099853515625
  0
LINE
  5
27A
330
1F
100
AcDbEntity
  8
ARAPGALERI
370
     0
100
AcDbLine
 10
750307.829
 20
4169495.858
 30
937.1099853515625
 11
750308.642385601
 21
4169494.089187015
 31
937.1099853515625
  0
LINE
  5
27B
330
1F
100
AcDbEntity
  8
ARAPGALERI
370
     0
100
AcDbLine
 10
750312.089
 20
4169490.315
 30
937.1099853515625
 11
750316.4249598293
 21
4169485.070029445
 31
936.6859741210938
  0
LINE
  5
27C
330
1F
100
AcDbEntity
  8
ARAPGALERI
370
     0
100
AcDbLine
 10
750308.642385601
 20
4169494.089187015
 30
937.1099853515625
 11
750308.0713645517
 21
4169492.353283025
 31
937.1099853515625
  0
LINE
  5
27D
330
1F
100
AcDbEntity
  8
ARAPGALERI
370
     0
100
AcDbLine
 10
750308.0713645517
 20
4169492.353283025
 30
937.1099853515625
 11
750310.218403697
 21
4169490.137721354
 31
937.1099853515625
  0
LINE
  5
27E
330
1F
100
AcDbEntity
  8
ARAPGALERI
370
     0
100
AcDbLine
 10
750310.218403697
 20
4169490.137721354
 30
937.1099853515625
 11
750312.089
 21
4169490.315
 31
937.1099853515625
  0
LINE
  5
27F
330
1F
100
AcDbEntity
  8
ARAPGALERI
370
     0
100
AcDbLine
 10
750309.813
 20
4169497.753
 30
937.1099853515625
 11
750307.317
 21
4169501.088
 31
937.1199951171875
  0
LINE
  5
280
330
1F
100
AcDbEntity
  8
ARAPGALERI
370
     0
100
AcDbLine
 10
750307.317
 20
4169501.088
 30
937.1199951171875
 11
750305.771
 21
4169503.266
 31
937.1199951171875
  0
LINE
  5
281
330
1F
100
AcDbEntity
  8
ARAPGALERI
370
     0
100
AcDbLine
 10
750305.771
 20
4169503.266
 30
937.1199951171875
 11
750303.771
 21
4169501.362
 31
937.1199951171875
  0
LINE
  5
282
330
1F
100
AcDbEntity
  8
ARAPGALERI
370
     0
100
AcDbLine
 10
750303.771
 20
4169501.362
 30
937.1199951171875
 11
750305.683
 21
4169498.308
 31
937.1199951171875
  0
LINE
  5
283
330
1F
100
AcDbEntity
  8
ARAPGALERI
370
     0
100
AcDbLine
 10
750305.683
 20
4169498.308
 30
937.1199951171875
 11
750307.829
 21
4169495.858
 31
937.1099853515625
  0
POINT
  5
3FB
330
1F
100
AcDbEntity
  8
INIT_COORD
100
AcDbPoint
 10
750497.830611032
 20
4169311.375765093
 30
926.8729858398438
  0
ENDSEC
  0
SECTION
  2
OBJECTS
  0
DICTIONARY
  5
C
330
0
100
AcDbDictionary
281
     1
  3
ACAD_DETAILVIEWSTYLE
350
2FC
  3
ACAD_GROUP
350
D
  3
ACAD_IMAGE_VARS
350
2D6
  3
ACAD_LAYOUT
350
1A
  3
ACAD_MATERIAL
350
3B
  3
ACAD_MLEADERSTYLE
350
2A5
  3
ACAD_MLINESTYLE
350
17
  3
ACAD_PLOTSETTINGS
350
19
  3
ACAD_PLOTSTYLENAME
350
E
  3
ACAD_SCALELIST
350
2A6
  3
ACAD_SECTIONVIEWSTYLE
350
2FD
  3
ACAD_TABLESTYLE
350
2A4
  3
ACAD_VISUALSTYLE
350
2A
  3
ACDB_RECOMPOSE_DATA
350
406
  3
AcDbVariableDictionary
350
2F7
  3
APPDATA
350
2D4
  0
SUN
  5
2D5
330
29
100
AcDbSun
 90
        1
290
     0
 63
     7
421
 16777215
 40
1.0
291
     1
 91
  2455826
 92
 54000000
292
     0
 70
     2
 71
   256
280
     1
  0
DICTIONARY
  5
2D7
330
2
100
AcDbDictionary
280
     1
281
     1
  3
ACAD_LAYERSTATES
360
2D8
  3
ACLYDICTIONARY
360
2DF
  0
DICTIONARY
  5
2FC
102
{ACAD_REACTORS
330
C
102
}
330
C
100
AcDbDictionary
281
     1
  0
DICTIONARY
  5
D
102
{ACAD_REACTORS
330
C
102
}
330
C
100
AcDbDictionary
281
     1
  0
RASTERVARIABLES
  5
2D6
102
{ACAD_REACTORS
330
C
102
}
330
C
100
AcDbRasterVariables
 90
        0
 70
     1
 71
     1
 72
     1
  0
DICTIONARY
  5
1A
102
{ACAD_REACTORS
330
C
102
}
330
C
100
AcDbDictionary
281
     1
  3
Layout1
350
1E
  3
Layout2
350
26
  3
Model
350
22
  0
DICTIONARY
  5
3B
102
{ACAD_REACTORS
330
C
102
}
330
C
100
AcDbDictionary
281
     1
  3
ByBlock
350
3D
  3
ByLayer
350
3C
  3
Global
350
3E
  0
DICTIONARY
  5
2A5
102
{ACAD_REACTORS
330
C
102
}
330
C
100
AcDbDictionary
281
     1
  3
Standard
350
2D3
  0
DICTIONARY
  5
17
102
{ACAD_REACTORS
330
C
102
}
330
C
100
AcDbDictionary
281
     1
  3
Standard
350
18
  0
DICTIONARY
  5
19
102
{ACAD_REACTORS
330
C
102
}
330
C
100
AcDbDictionary
281
     1
  0
ACDBDICTIONARYWDFLT
  5
E
102
{ACAD_REACTORS
330
C
102
}
330
C
100
AcDbDictionary
281
     1
  3
Normal
350
F
100
AcDbDictionaryWithDefault
340
F
  0
DICTIONARY
  5
2A6
102
{ACAD_REACTORS
330
C
102
}
330
C
100
AcDbDictionary
281
     1
  3
A0
350
2A7
  3
A1
350
2A8
  3
A2
350
2A9
  3
A3
350
2AA
  3
A4
350
2AB
  3
A5
350
2AC
  3
A6
350
2AD
  3
A7
350
2AE
  3
A8
350
2AF
  3
A9
350
2B0
  3
B0
350
2B1
  3
B1
350
2B2
  3
B2
350
2B3
  3
B3
350
2B4
  3
B4
350
2B5
  3
B5
350
2B6
  3
B6
350
2B7
  3
B7
350
2B8
  3
B8
350
2B9
  3
B9
350
2BA
  3
C0
350
2BB
  3
C1
350
2BC
  3
C2
350
2BD
  3
C3
350
2BE
  3
C4
350
2BF
  3
C5
350
2C0
  3
C6
350
2C1
  3
C7
350
2C2
  3
C8
350
2C3
  3
C9
350
2C4
  3
D0
350
2C5
  3
D1
350
2C6
  3
D2
350
2C7
  0
DICTIONARY
  5
2FD
102
{ACAD_REACTORS
330
C
102
}
330
C
100
AcDbDictionary
281
     1
  0
DICTIONARY
  5
2A4
102
{ACAD_REACTORS
330
C
102
}
330
C
100
AcDbDictionary
281
     1
  3
Standard
350
2D2
  0
DICTIONARY
  5
2A
102
{ACAD_REACTORS
330
C
102
}
330
C
100
AcDbDictionary
281
     1
  3
2dWireframe
350
2F
  3
3D Hidden
350
31
  3
3dWireframe
350
30
  3
Basic
350
32
  3
Brighten
350
36
  3
ColorChange
350
3A
  3
Conceptual
350
34
  3
Dim
350
35
  3
EdgeColorOff
350
2CC
  3
Facepattern
350
39
  3
Flat
350
2B
  3
FlatWithEdges
350
2C
  3
Gouraud
350
2D
  3
GouraudWithEdges
350
2E
  3
Hidden
350
2C9
  3
JitterOff
350
2CA
  3
Linepattern
350
38
  3
OverhangOff
350
2CB
  3
Realistic
350
33
  3
Shaded
350
2D1
  3
Shaded with edges
350
2D0
  3
Shades of Gray
350
2CD
  3
Sketchy
350
2CE
  3
Thicken
350
37
  3
Wireframe
350
2C8
  3
X-Ray
350
2CF
  0
XRECORD
  5
406
102
{ACAD_REACTORS
330
C
102
}
330
C
100
AcDbXrecord
280
     1
 90
        1
330
2D2
  0
DICTIONARY
  5
2F7
102
{ACAD_REACTORS
330
C
102
}
330
C
100
AcDbDictionary
281
     1
  3
CANNOSCALE
350
2F8
  3
CMLEADERSTYLE
350
2FA
  3
CTABLESTYLE
350
2F9
  3
XCLIPFRAME
350
2FB
  0
DICTIONARY
  5
2D4
102
{ACAD_REACTORS
330
C
102
}
330
C
100
AcDbDictionary
281
     1
  0
DICTIONARY
  5
2D8
102
{ACAD_REACTORS
330
2D7
102
}
330
2D7
100
AcDbDictionary
281
     1
  0
DICTIONARY
  5
2DF
102
{ACAD_REACTORS
330
2D7
102
}
330
2D7
100
AcDbDictionary
281
     1
1001
ACAD
1000
<All
  0
LAYOUT
  5
1E
102
{ACAD_REACTORS
330
1A
102
}
330
1A
100
AcDbPlotSettings
  1

  2
none_device
  4

  6

 40
0.0
 41
0.0
 42
0.0
 43
0.0
 44
0.0
 45
0.0
 46
0.0
 47
0.0
 48
0.0
 49
0.0
140
0.0
141
0.0
142
1.0
143
1.0
 70
   688
 72
     0
 73
     0
 74
     5
  7

 75
    16
 76
     0
 77
     2
 78
   300
147
1.0
148
0.0
149
0.0
100
AcDbLayout
  1
Layout1
 70
     1
 71
     1
 10
0.0
 20
0.0
 11
420.0
 21
297.0
 12
0.0
 22
0.0
 32
0.0
 14
1.000000000000000E+20
 24
1.000000000000000E+20
 34
1.000000000000000E+20
 15
-1.000000000000000E+20
 25
-1.000000000000000E+20
 35
-1.000000000000000E+20
146
0.0
 13
0.0
 23
0.0
 33
0.0
 16
1.0
 26
0.0
 36
0.0
 17
0.0
 27
1.0
 37
0.0
 76
     0
330
1B
  0
LAYOUT
  5
26
102
{ACAD_REACTORS
330
1A
102
}
330
1A
100
AcDbPlotSettings
  1

  2
none_device
  4

  6

 40
0.0
 41
0.0
 42
0.0
 43
0.0
 44
0.0
 45
0.0
 46
0.0
 47
0.0
 48
0.0
 49
0.0
140
0.0
141
0.0
142
1.0
143
1.0
 70
   688
 72
     0
 73
     0
 74
     5
  7

 75
    16
 76
     0
 77
     2
 78
   300
147
1.0
148
0.0
149
0.0
100
AcDbLayout
  1
Layout2
 70
     1
 71
     2
 10
0.0
 20
0.0
 11
0.0
 21
0.0
 12
0.0
 22
0.0
 32
0.0
 14
0.0
 24
0.0
 34
0.0
 15
0.0
 25
0.0
 35
0.0
146
0.0
 13
0.0
 23
0.0
 33
0.0
 16
1.0
 26
0.0
 36
0.0
 17
0.0
 27
1.0
 37
0.0
 76
     0
330
23
  0
LAYOUT
  5
22
102
{ACAD_REACTORS
330
1A
102
}
330
1A
100
AcDbPlotSettings
  1

  2
none_device
  4

  6

 40
0.0
 41
0.0
 42
0.0
 43
0.0
 44
0.0
 45
0.0
 46
0.0
 47
0.0
 48
0.0
 49
0.0
140
0.0
141
0.0
142
1.0
143
1.0
 70
  1712
 72
     0
 73
     0
 74
     0
  7

 75
     0
 76
     0
 77
     2
 78
   300
147
1.0
148
0.0
149
0.0
100
AcDbLayout
  1
Model
 70
     1
 71
     0
 10
0.0
 20
0.0
 11
420.0
 21
297.0
 12
0.0
 22
0.0
 32
0.0
 14
750303.771
 24
4169196.735579278
 34
920.47802734375
 15
750498.150222064
 25
4169503.266
 35
944.1890258789062
146
0.0
 13
0.0
 23
0.0
 33
0.0
 16
1.0
 26
0.0
 36
0.0
 17
0.0
 27
1.0
 37
0.0
 76
     0
330
1F
331
29
  0
MATERIAL
  5
3D
102
{ACAD_REACTORS
330
3B
102
}
330
3B
100
AcDbMaterial
  1
ByBlock
 72
     1
 94
      127
  0
MATERIAL
  5
3C
102
{ACAD_REACTORS
330
3B
102
}
330
3B
100
AcDbMaterial
  1
ByLayer
 72
     1
 94
      127
  0
MATERIAL
  5
3E
102
{ACAD_REACTORS
330
3B
102
}
330
3B
100
AcDbMaterial
  1
Global
 72
     1
 94
      127
  0
MLEADERSTYLE
  5
2D3
102
{ACAD_REACTORS
330
2A5
102
}
330
2A5
100
AcDbMLeaderStyle
179
     2
170
     2
171
     1
172
     0
 90
        2
 40
0.0
 41
0.0
173
     1
 91
-1056964608
340
14
 92
       -2
290
     1
 42
2.0
291
     1
 43
8.0
  3
Standard
341
0
 44
4.0
300

342
11
174
     1
178
     1
175
     1
176
     0
 93
-1056964608
 45
4.0
292
     0
297
     0
 46
4.0
343
0
 94
-1056964608
 47
1.0
 49
1.0
140
1.0
293
     1
141
0.0
294
     1
177
     0
142
1.0
295
     0
296
     0
143
3.75
271
     0
272
     9
273
     9
  0
MLINESTYLE
  5
18
102
{ACAD_REACTORS
330
17
102
}
330
17
100
AcDbMlineStyle
  2
Standard
 70
     0
  3

 62
   256
 51
90.0
 52
90.0
 71
     2
 49
0.5
 62
   256
  6
BYLAYER
 49
-0.5
 62
   256
  6
BYLAYER
  0
ACDBPLACEHOLDER
  5
F
102
{ACAD_REACTORS
330
E
102
}
330
E
  0
SCALE
  5
2A7
102
{ACAD_REACTORS
330
2A6
102
}
330
2A6
100
AcDbScale
 70
     0
300
1:1
140
1.0
141
1.0
290
     1
  0
SCALE
  5
2A8
102
{ACAD_REACTORS
330
2A6
102
}
330
2A6
100
AcDbScale
 70
     0
300
1:2
140
1.0
141
2.0
290
     0
  0
SCALE
  5
2A9
102
{ACAD_REACTORS
330
2A6
102
}
330
2A6
100
AcDbScale
 70
     0
300
1:4
140
1.0
141
4.0
290
     0
  0
SCALE
  5
2AA
102
{ACAD_REACTORS
330
2A6
102
}
330
2A6
100
AcDbScale
 70
     0
300
1:5
140
1.0
141
5.0
290
     0
  0
SCALE
  5
2AB
102
{ACAD_REACTORS
330
2A6
102
}
330
2A6
100
AcDbScale
 70
     0
300
1:8
140
1.0
141
8.0
290
     0
  0
SCALE
  5
2AC
102
{ACAD_REACTORS
330
2A6
102
}
330
2A6
100
AcDbScale
 70
     0
300
1:10
140
1.0
141
10.0
290
     0
  0
SCALE
  5
2AD
102
{ACAD_REACTORS
330
2A6
102
}
330
2A6
100
AcDbScale
 70
     0
300
1:16
140
1.0
141
16.0
290
     0
  0
SCALE
  5
2AE
102
{ACAD_REACTORS
330
2A6
102
}
330
2A6
100
AcDbScale
 70
     0
300
1:20
140
1.0
141
20.0
290
     0
  0
SCALE
  5
2AF
102
{ACAD_REACTORS
330
2A6
102
}
330
2A6
100
AcDbScale
 70
     0
300
1:30
140
1.0
141
30.0
290
     0
  0
SCALE
  5
2B0
102
{ACAD_REACTORS
330
2A6
102
}
330
2A6
100
AcDbScale
 70
     0
300
1:40
140
1.0
141
40.0
290
     0
  0
SCALE
  5
2B1
102
{ACAD_REACTORS
330
2A6
102
}
330
2A6
100
AcDbScale
 70
     0
300
1:50
140
1.0
141
50.0
290
     0
  0
SCALE
  5
2B2
102
{ACAD_REACTORS
330
2A6
102
}
330
2A6
100
AcDbScale
 70
     0
300
1:100
140
1.0
141
100.0
290
     0
  0
SCALE
  5
2B3
102
{ACAD_REACTORS
330
2A6
102
}
330
2A6
100
AcDbScale
 70
     0
300
2:1
140
2.0
141
1.0
290
     0
  0
SCALE
  5
2B4
102
{ACAD_REACTORS
330
2A6
102
}
330
2A6
100
AcDbScale
 70
     0
300
4:1
140
4.0
141
1.0
290
     0
  0
SCALE
  5
2B5
102
{ACAD_REACTORS
330
2A6
102
}
330
2A6
100
AcDbScale
 70
     0
300
8:1
140
8.0
141
1.0
290
     0
  0
SCALE
  5
2B6
102
{ACAD_REACTORS
330
2A6
102
}
330
2A6
100
AcDbScale
 70
     0
300
10:1
140
10.0
141
1.0
290
     0
  0
SCALE
  5
2B7
102
{ACAD_REACTORS
330
2A6
102
}
330
2A6
100
AcDbScale
 70
     0
300
100:1
140
100.0
141
1.0
290
     0
  0
SCALE
  5
2B8
102
{ACAD_REACTORS
330
2A6
102
}
330
2A6
100
AcDbScale
 70
     0
300
1/128" = 1'-0"
140
0.0078125
141
12.0
290
     0
  0
SCALE
  5
2B9
102
{ACAD_REACTORS
330
2A6
102
}
330
2A6
100
AcDbScale
 70
     0
300
1/64" = 1'-0"
140
0.015625
141
12.0
290
     0
  0
SCALE
  5
2BA
102
{ACAD_REACTORS
330
2A6
102
}
330
2A6
100
AcDbScale
 70
     0
300
1/32" = 1'-0"
140
0.03125
141
12.0
290
     0
  0
SCALE
  5
2BB
102
{ACAD_REACTORS
330
2A6
102
}
330
2A6
100
AcDbScale
 70
     0
300
1/16" = 1'-0"
140
0.0625
141
12.0
290
     0
  0
SCALE
  5
2BC
102
{ACAD_REACTORS
330
2A6
102
}
330
2A6
100
AcDbScale
 70
     0
300
3/32" = 1'-0"
140
0.09375
141
12.0
290
     0
  0
SCALE
  5
2BD
102
{ACAD_REACTORS
330
2A6
102
}
330
2A6
100
AcDbScale
 70
     0
300
1/8" = 1'-0"
140
0.125
141
12.0
290
     0
  0
SCALE
  5
2BE
102
{ACAD_REACTORS
330
2A6
102
}
330
2A6
100
AcDbScale
 70
     0
300
3/16" = 1'-0"
140
0.1875
141
12.0
290
     0
  0
SCALE
  5
2BF
102
{ACAD_REACTORS
330
2A6
102
}
330
2A6
100
AcDbScale
 70
     0
300
1/4" = 1'-0"
140
0.25
141
12.0
290
     0
  0
SCALE
  5
2C0
102
{ACAD_REACTORS
330
2A6
102
}
330
2A6
100
AcDbScale
 70
     0
300
3/8" = 1'-0"
140
0.375
141
12.0
290
     0
  0
SCALE
  5
2C1
102
{ACAD_REACTORS
330
2A6
102
}
330
2A6
100
AcDbScale
 70
     0
300
1/2" = 1'-0"
140
0.5
141
12.0
290
     0
  0
SCALE
  5
2C2
102
{ACAD_REACTORS
330
2A6
102
}
330
2A6
100
AcDbScale
 70
     0
300
3/4" = 1'-0"
140
0.75
141
12.0
290
     0
  0
SCALE
  5
2C3
102
{ACAD_REACTORS
330
2A6
102
}
330
2A6
100
AcDbScale
 70
     0
300
1" = 1'-0"
140
1.0
141
12.0
290
     0
  0
SCALE
  5
2C4
102
{ACAD_REACTORS
330
2A6
102
}
330
2A6
100
AcDbScale
 70
     0
300
1-1/2" = 1'-0"
140
1.5
141
12.0
290
     0
  0
SCALE
  5
2C5
102
{ACAD_REACTORS
330
2A6
102
}
330
2A6
100
AcDbScale
 70
     0
300
3" = 1'-0"
140
3.0
141
12.0
290
     0
  0
SCALE
  5
2C6
102
{ACAD_REACTORS
330
2A6
102
}
330
2A6
100
AcDbScale
 70
     0
300
6" = 1'-0"
140
6.0
141
12.0
290
     0
  0
SCALE
  5
2C7
102
{ACAD_REACTORS
330
2A6
102
}
330
2A6
100
AcDbScale
 70
     0
300
1'-0" = 1'-0"
140
12.0
141
12.0
290
     0
  0
TABLESTYLE
  5
2D2
102
{ACAD_REACTORS
330
2A4
102
}
102
{ACAD_XDICTIONARY
360
404
102
}
330
2A4
100
AcDbTableStyle
  3
Standard
 70
     0
 71
     0
 40
0.06
 41
0.06
280
     0
281
     0
  7
Standard
140
4.5
170
     2
 62
     0
 63
   257
283
     0
 90
        4
 91
        0
  1

274
    -2
284
     1
 64
     0
275
    -2
285
     1
 65
     0
276
    -2
286
     1
 66
     0
277
    -2
287
     1
 67
     0
278
    -2
288
     1
 68
     0
279
    -2
289
     1
 69
     0
  7
Standard
140
6.0
170
     5
 62
     0
 63
   257
283
     0
 90
        4
 91
        0
  1

274
    -2
284
     1
 64
     0
275
    -2
285
     1
 65
     0
276
    -2
286
     1
 66
     0
277
    -2
287
     1
 67
     0
278
    -2
288
     1
 68
     0
279
    -2
289
     1
 69
     0
  7
Standard
140
4.5
170
     5
 62
     0
 63
   257
283
     0
 90
        4
 91
        0
  1

274
    -2
284
     1
 64
     0
275
    -2
285
     1
 65
     0
276
    -2
286
     1
 66
     0
277
    -2
287
     1
 67
     0
278
    -2
288
     1
 68
     0
279
    -2
289
     1
 69
     0
  0
VISUALSTYLE
  5
2F
102
{ACAD_REACTORS
330
2A
102
}
330
2A
100
AcDbVisualStyle
  2
2dWireframe
 70
     4
177
     2
291
     0
 71
     0
176
     1
 72
     2
176
     1
 73
     0
176
     1
 90
        0
176
     1
 40
-0.6
176
     1
 41
-30.0
176
     1
 62
     5
 63
     7
421
 16777215
176
     1
 74
     1
176
     1
 91
        4
176
     1
 64
     7
176
     1
 65
   257
176
     1
 75
     1
176
     1
175
     1
176
     1
 42
1.0
176
     1
 92
        0
176
     1
 66
   257
176
     1
 43
1.0
176
     1
 76
     1
176
     1
 77
     6
176
     1
 78
     2
176
     1
 67
     7
176
     1
 79
     5
176
     1
170
     0
176
     1
171
     0
176
     1
290
     0
176
     1
 93
        1
176
     1
 44
0.0
176
     1
173
     0
176
     1
  0
VISUALSTYLE
  5
31
102
{ACAD_REACTORS
330
2A
102
}
330
2A
100
AcDbVisualStyle
  2
3D Hidden
 70
     6
177
     2
291
     0
 71
     1
176
     1
 72
     2
176
     1
 73
     2
176
     1
 90
        0
176
     1
 40
-0.6
176
     1
 41
-30.0
176
     1
 62
     5
 63
     7
421
 16777215
176
     1
 74
     2
176
     1
 91
        2
176
     1
 64
     7
176
     1
 65
   257
176
     1
 75
     2
176
     1
175
     1
176
     1
 42
40.0
176
     1
 92
        0
176
     1
 66
   257
176
     1
 43
1.0
176
     1
 76
     1
176
     1
 77
     6
176
     1
 78
     2
176
     1
 67
     7
176
     1
 79
     3
176
     1
170
     0
176
     1
171
     0
176
     1
290
     0
176
     1
 93
        1
176
     1
 44
0.0
176
     1
173
     0
176
     1
  0
VISUALSTYLE
  5
30
102
{ACAD_REACTORS
330
2A
102
}
330
2A
100
AcDbVisualStyle
  2
3dWireframe
 70
     5
177
     2
291
     0
 71
     0
176
     1
 72
     2
176
     1
 73
     0
176
     1
 90
        0
176
     1
 40
-0.6
176
     1
 41
-30.0
176
     1
 62
     5
 63
     7
421
 16777215
176
     1
 74
     1
176
     1
 91
        4
176
     1
 64
     7
176
     1
 65
   257
176
     1
 75
     1
176
     1
175
     1
176
     1
 42
1.0
176
     1
 92
        0
176
     1
 66
   257
176
     1
 43
1.0
176
     1
 76
     1
176
     1
 77
     6
176
     1
 78
     2
176
     1
 67
     7
176
     1
 79
     5
176
     1
170
     0
176
     1
171
     0
176
     1
290
     0
176
     1
 93
        1
176
     1
 44
0.0
176
     1
173
     0
176
     1
  0
VISUALSTYLE
  5
32
102
{ACAD_REACTORS
330
2A
102
}
330
2A
100
AcDbVisualStyle
  2
Basic
 70
     7
177
     2
291
     1
 71
     1
176
     1
 72
     0
176
     1
 73
     1
176
     1
 90
        0
176
     1
 40
-0.6
176
     1
 41
-30.0
176
     1
 62
     5
 63
     7
421
 16777215
176
     1
 74
     0
176
     1
 91
        4
176
     1
 64
     7
176
     1
 65
   257
176
     1
 75
     1
176
     1
175
     1
176
     1
 42
1.0
176
     1
 92
        8
176
     1
 66
     7
176
     1
 43
1.0
176
     1
 76
     1
176
     1
 77
     6
176
     1
 78
     2
176
     1
 67
     7
176
     1
 79
     5
176
     1
170
     0
176
     1
171
     0
176
     1
290
     0
176
     1
 93
        1
176
     1
 44
0.0
176
     1
173
     0
176
     1
  0
VISUALSTYLE
  5
36
102
{ACAD_REACTORS
330
2A
102
}
330
2A
100
AcDbVisualStyle
  2
Brighten
 70
    12
177
     2
291
     1
 71
     2
176
     1
 72
     2
176
     1
 73
     0
176
     1
 90
        0
176
     1
 40
-0.6
176
     1
 41
-30.0
176
     1
 62
     5
 63
     7
421
 16777215
176
     1
 74
     1
176
     1
 91
        4
176
     1
 64
     7
176
     1
 65
   257
176
     1
 75
     1
176
     1
175
     1
176
     1
 42
1.0
176
     1
 92
        8
176
     1
 66
     7
176
     1
 43
1.0
176
     1
 76
     1
176
     1
 77
     6
176
     1
 78
     2
176
     1
 67
     7
176
     1
 79
     5
176
     1
170
     0
176
     1
171
     0
176
     1
290
     0
176
     1
 93
        1
176
     1
 44
50.0
176
     1
173
     0
176
     1
  0
VISUALSTYLE
  5
3A
102
{ACAD_REACTORS
330
2A
102
}
330
2A
100
AcDbVisualStyle
  2
ColorChange
 70
    16
177
     2
291
     1
 71
     2
176
     1
 72
     2
176
     1
 73
     3
176
     1
 90
        0
176
     1
 40
-0.6
176
     1
 41
-30.0
176
     1
 62
     5
 63
     8
421
  8421504
176
     1
 74
     1
176
     1
 91
        4
176
     1
 64
     7
176
     1
 65
   257
176
     1
 75
     1
176
     1
175
     1
176
     1
 42
1.0
176
     1
 92
        8
176
     1
 66
     8
424
  8421504
176
     1
 43
1.0
176
     1
 76
     1
176
     1
 77
     6
176
     1
 78
     2
176
     1
 67
     7
176
     1
 79
     5
176
     1
170
     0
176
     1
171
     0
176
     1
290
     0
176
     1
 93
        1
176
     1
 44
0.0
176
     1
173
     0
176
     1
  0
VISUALSTYLE
  5
34
102
{ACAD_REACTORS
330
2A
102
}
330
2A
100
AcDbVisualStyle
  2
Conceptual
 70
     9
177
     2
291
     0
 71
     3
176
     1
 72
     2
176
     1
 73
     0
176
     1
 90
        0
176
     1
 40
-0.6
176
     1
 41
-30.0
176
     1
 62
     5
 63
     7
421
 16777215
176
     1
 74
     2
176
     1
 91
        2
176
     1
 64
     7
176
     1
 65
   257
176
     1
 75
     1
176
     1
175
     1
176
     1
 42
40.0
176
     1
 92
        8
176
     1
 66
     7
176
     1
 43
1.0
176
     1
 76
     1
176
     1
 77
     6
176
     1
 78
     2
176
     1
 67
     7
176
     1
 79
     3
176
     1
170
     0
176
     1
171
     0
176
     1
290
     0
176
     1
 93
        1
176
     1
 44
0.0
176
     1
173
     0
176
     1
  0
VISUALSTYLE
  5
35
102
{ACAD_REACTORS
330
2A
102
}
330
2A
100
AcDbVisualStyle
  2
Dim
 70
    11
177
     2
291
     1
 71
     2
176
     1
 72
     2
176
     1
 73
     0
176
     1
 90
        0
176
     1
 40
-0.6
176
     1
 41
-30.0
176
     1
 62
     5
 63
     7
421
 16777215
176
     1
 74
     1
176
     1
 91
        4
176
     1
 64
     7
176
     1
 65
   257
176
     1
 75
     1
176
     1
175
     1
176
     1
 42
1.0
176
     1
 92
        8
176
     1
 66
     7
176
     1
 43
1.0
176
     1
 76
     1
176
     1
 77
     6
176
     1
 78
     2
176
     1
 67
     7
176
     1
 79
     5
176
     1
170
     0
176
     1
171
     0
176
     1
290
     0
176
     1
 93
        1
176
     1
 44
-50.0
176
     1
173
     0
176
     1
  0
VISUALSTYLE
  5
2CC
102
{ACAD_REACTORS
330
2A
102
}
330
2A
100
AcDbVisualStyle
  2
EdgeColorOff
 70
    22
177
     2
291
     1
 71
     2
176
     0
 72
     2
176
     0
 73
     0
176
     0
 90
        0
176
     0
 40
0.6
176
     0
 41
30.0
176
     0
 62
     5
 63
     7
421
 16777215
176
     0
 74
     1
176
     0
 91
        4
176
     0
 64
     7
176
     0
 65
   257
176
     0
 75
     1
176
     0
175
     1
176
     0
 42
1.0
176
     0
 92
        8
176
     2
 66
     7
176
     0
 43
1.0
176
     0
 76
     1
176
     0
 77
     6
176
     0
 78
     2
176
     0
 67
     7
176
     0
 79
     5
176
     0
170
     0
176
     0
171
     0
176
     0
290
     0
176
     0
 93
        1
176
     0
 44
0.0
176
     0
173
     0
176
     0
  0
VISUALSTYLE
  5
39
102
{ACAD_REACTORS
330
2A
102
}
330
2A
100
AcDbVisualStyle
  2
Facepattern
 70
    15
177
     2
291
     1
 71
     2
176
     1
 72
     2
176
     1
 73
     0
176
     1
 90
        0
176
     1
 40
-0.6
176
     1
 41
-30.0
176
     1
 62
     5
 63
     7
421
 16777215
176
     1
 74
     1
176
     1
 91
        4
176
     1
 64
     7
176
     1
 65
   257
176
     1
 75
     1
176
     1
175
     1
176
     1
 42
1.0
176
     1
 92
        8
176
     1
 66
     7
176
     1
 43
1.0
176
     1
 76
     1
176
     1
 77
     6
176
     1
 78
     2
176
     1
 67
     7
176
     1
 79
     5
176
     1
170
     0
176
     1
171
     0
176
     1
290
     0
176
     1
 93
        1
176
     1
 44
0.0
176
     1
173
     0
176
     1
  0
VISUALSTYLE
  5
2B
102
{ACAD_REACTORS
330
2A
102
}
330
2A
100
AcDbVisualStyle
  2
Flat
 70
     0
177
     2
291
     1
 71
     2
176
     1
 72
     1
176
     1
 73
     1
176
     1
 90
        2
176
     1
 40
-0.6
176
     1
 41
30.0
176
     1
 62
     5
 63
     7
421
 16777215
176
     1
 74
     0
176
     1
 91
        4
176
     1
 64
     7
176
     1
 65
   257
176
     1
 75
     1
176
     1
175
     1
176
     1
 42
1.0
176
     1
 92
        8
176
     1
 66
     7
176
     1
 43
1.0
176
     1
 76
     1
176
     1
 77
     6
176
     1
 78
     2
176
     1
 67
     7
176
     1
 79
     5
176
     1
170
     0
176
     1
171
     0
176
     1
290
     0
176
     1
 93
       13
176
     1
 44
0.0
176
     1
173
     0
176
     1
  0
VISUALSTYLE
  5
2C
102
{ACAD_REACTORS
330
2A
102
}
330
2A
100
AcDbVisualStyle
  2
FlatWithEdges
 70
     1
177
     2
291
     1
 71
     2
176
     1
 72
     1
176
     1
 73
     1
176
     1
 90
        2
176
     1
 40
-0.6
176
     1
 41
30.0
176
     1
 62
     5
 63
     7
421
 16777215
176
     1
 74
     1
176
     1
 91
        4
176
     1
 64
     7
176
     1
 65
   257
176
     1
 75
     1
176
     1
175
     1
176
     1
 42
1.0
176
     1
 92
        0
176
     1
 66
   257
176
     1
 43
1.0
176
     1
 76
     1
176
     1
 77
     6
176
     1
 78
     2
176
     1
 67
     7
176
     1
 79
     5
176
     1
170
     0
176
     1
171
     0
176
     1
290
     0
176
     1
 93
       13
176
     1
 44
0.0
176
     1
173
     0
176
     1
  0
VISUALSTYLE
  5
2D
102
{ACAD_REACTORS
330
2A
102
}
330
2A
100
AcDbVisualStyle
  2
Gouraud
 70
     2
177
     2
291
     1
 71
     2
176
     1
 72
     2
176
     1
 73
     1
176
     1
 90
        2
176
     1
 40
-0.6
176
     1
 41
30.0
176
     1
 62
     5
 63
     7
421
 16777215
176
     1
 74
     0
176
     1
 91
        4
176
     1
 64
     7
176
     1
 65
   257
176
     1
 75
     1
176
     1
175
     1
176
     1
 42
1.0
176
     1
 92
        0
176
     1
 66
     7
176
     1
 43
1.0
176
     1
 76
     1
176
     1
 77
     6
176
     1
 78
     2
176
     1
 67
     7
176
     1
 79
     5
176
     1
170
     0
176
     1
171
     0
176
     1
290
     0
176
     1
 93
       13
176
     1
 44
0.0
176
     1
173
     0
176
     1
  0
VISUALSTYLE
  5
2E
102
{ACAD_REACTORS
330
2A
102
}
330
2A
100
AcDbVisualStyle
  2
GouraudWithEdges
 70
     3
177
     2
291
     1
 71
     2
176
     1
 72
     2
176
     1
 73
     1
176
     1
 90
        2
176
     1
 40
-0.6
176
     1
 41
30.0
176
     1
 62
     5
 63
     7
421
 16777215
176
     1
 74
     1
176
     1
 91
        4
176
     1
 64
     7
176
     1
 65
   257
176
     1
 75
     1
176
     1
175
     1
176
     1
 42
1.0
176
     1
 92
        0
176
     1
 66
   257
176
     1
 43
1.0
176
     1
 76
     1
176
     1
 77
     6
176
     1
 78
     2
176
     1
 67
     7
176
     1
 79
     5
176
     1
170
     0
176
     1
171
     0
176
     1
290
     0
176
     1
 93
       13
176
     1
 44
0.0
176
     1
173
     0
176
     1
  0
VISUALSTYLE
  5
2C9
102
{ACAD_REACTORS
330
2A
102
}
330
2A
100
AcDbVisualStyle
  2
Hidden
 70
     6
177
     2
291
     0
 71
     1
176
     1
 72
     2
176
     1
 73
     2
176
     1
 90
        0
176
     1
 40
0.6
176
     1
 41
30.0
176
     1
 62
     5
 63
     7
421
 16777215
176
     1
 74
     2
176
     1
 91
        2
176
     1
 64
     7
176
     1
 65
   257
176
     1
 75
     2
176
     1
175
     1
176
     1
 42
40.0
176
     1
 92
        0
176
     1
 66
   257
176
     1
 43
1.0
176
     1
 76
     1
176
     1
 77
     6
176
     1
 78
     2
176
     1
 67
     7
176
     1
 79
     3
176
     1
170
     0
176
     1
171
     0
176
     1
290
     0
176
     1
 93
        1
176
     1
 44
0.0
176
     1
173
     0
176
     1
  0
VISUALSTYLE
  5
2CA
102
{ACAD_REACTORS
330
2A
102
}
330
2A
100
AcDbVisualStyle
  2
JitterOff
 70
    20
177
     2
291
     1
 71
     2
176
     0
 72
     2
176
     0
 73
     0
176
     0
 90
        0
176
     0
 40
0.6
176
     0
 41
30.0
176
     0
 62
     5
 63
     7
421
 16777215
176
     0
 74
     1
176
     0
 91
        4
176
     0
 64
     7
176
     0
 65
   257
176
     0
 75
     1
176
     0
175
     1
176
     0
 42
1.0
176
     0
 92
       10
176
     2
 66
     7
176
     0
 43
1.0
176
     0
 76
     1
176
     0
 77
     6
176
     0
 78
     2
176
     0
 67
     7
176
     0
 79
     5
176
     0
170
     0
176
     0
171
     0
176
     0
290
     0
176
     0
 93
        1
176
     0
 44
0.0
176
     0
173
     0
176
     0
  0
VISUALSTYLE
  5
38
102
{ACAD_REACTORS
330
2A
102
}
330
2A
100
AcDbVisualStyle
  2
Linepattern
 70
    14
177
     2
291
     1
 71
     2
176
     1
 72
     2
176
     1
 73
     0
176
     1
 90
        0
176
     1
 40
-0.6
176
     1
 41
-30.0
176
     1
 62
     5
 63
     7
421
 16777215
176
     1
 74
     1
176
     1
 91
        4
176
     1
 64
     7
176
     1
 65
   257
176
     1
 75
     7
176
     1
175
     7
176
     1
 42
1.0
176
     1
 92
        8
176
     1
 66
     7
176
     1
 43
1.0
176
     1
 76
     1
176
     1
 77
     6
176
     1
 78
     2
176
     1
 67
     7
176
     1
 79
     5
176
     1
170
     0
176
     1
171
     0
176
     1
290
     0
176
     1
 93
        1
176
     1
 44
0.0
176
     1
173
     0
176
     1
  0
VISUALSTYLE
  5
2CB
102
{ACAD_REACTORS
330
2A
102
}
330
2A
100
AcDbVisualStyle
  2
OverhangOff
 70
    21
177
     2
291
     1
 71
     2
176
     0
 72
     2
176
     0
 73
     0
176
     0
 90
        0
176
     0
 40
0.6
176
     0
 41
30.0
176
     0
 62
     5
 63
     7
421
 16777215
176
     0
 74
     1
176
     0
 91
        4
176
     0
 64
     7
176
     0
 65
   257
176
     0
 75
     1
176
     0
175
     1
176
     0
 42
1.0
176
     0
 92
        9
176
     2
 66
     7
176
     0
 43
1.0
176
     0
 76
     1
176
     0
 77
     6
176
     0
 78
     2
176
     0
 67
     7
176
     0
 79
     5
176
     0
170
     0
176
     0
171
     0
176
     0
290
     0
176
     0
 93
        1
176
     0
 44
0.0
176
     0
173
     0
176
     0
  0
VISUALSTYLE
  5
33
102
{ACAD_REACTORS
330
2A
102
}
330
2A
100
AcDbVisualStyle
  2
Realistic
 70
     8
177
     2
291
     0
 71
     2
176
     1
 72
     2
176
     1
 73
     0
176
     1
 90
        0
176
     1
 40
-0.6
176
     1
 41
-30.0
176
     1
 62
     5
 63
     7
421
 16777215
176
     1
 74
     1
176
     1
 91
        0
176
     1
 64
     7
176
     1
 65
   257
176
     1
 75
     1
176
     1
175
     1
176
     1
 42
1.0
176
     1
 92
        8
176
     1
 66
     8
424
  7895160
176
     1
 43
1.0
176
     1
 76
     1
176
     1
 77
     6
176
     1
 78
     2
176
     1
 67
     7
176
     1
 79
     5
176
     1
170
     0
176
     1
171
     0
176
     1
290
     0
176
     1
 93
       13
176
     1
 44
0.0
176
     1
173
     0
176
     1
  0
VISUALSTYLE
  5
2D1
102
{ACAD_REACTORS
330
2A
102
}
330
2A
100
AcDbVisualStyle
  2
Shaded
 70
    27
177
     2
291
     0
 71
     2
176
     1
 72
     2
176
     1
 73
     1
176
     1
 90
        2
176
     1
 40
0.6
176
     1
 41
30.0
176
     1
 62
     5
 63
     7
421
 16777215
176
     1
 74
     0
176
     1
 91
        4
176
     1
 64
     7
176
     1
 65
   257
176
     1
 75
     1
176
     1
175
     1
176
     1
 42
1.0
176
     1
 92
        8
176
     1
 66
   257
176
     1
 43
1.0
176
     1
 76
     1
176
     1
 77
     6
176
     1
 78
     2
176
     1
 67
     8
425
  7895160
176
     1
 79
     3
176
     1
170
     0
176
     1
171
     0
176
     1
290
     0
176
     1
 93
        5
176
     1
 44
0.0
176
     1
173
     0
176
     1
  0
VISUALSTYLE
  5
2D0
102
{ACAD_REACTORS
330
2A
102
}
330
2A
100
AcDbVisualStyle
  2
Shaded with edges
 70
    26
177
     2
291
     0
 71
     2
176
     1
 72
     2
176
     1
 73
     1
176
     1
 90
        2
176
     1
 40
0.6
176
     1
 41
30.0
176
     1
 62
     5
 63
     7
421
 16777215
176
     1
 74
     1
176
     1
 91
       10
176
     1
 64
     7
176
     1
 65
   257
176
     1
 75
     2
176
     1
175
     1
176
     1
 42
1.0
176
     1
 92
        8
176
     1
 66
   257
176
     1
 43
1.0
176
     1
 76
     1
176
     1
 77
     6
176
     1
 78
     2
176
     1
 67
     7
176
     1
 79
     3
176
     1
170
     0
176
     1
171
     0
176
     1
290
     0
176
     1
 93
        5
176
     1
 44
0.0
176
     1
173
     0
176
     1
  0
VISUALSTYLE
  5
2CD
102
{ACAD_REACTORS
330
2A
102
}
330
2A
100
AcDbVisualStyle
  2
Shades of Gray
 70
    23
177
     2
291
     0
 71
     2
176
     1
 72
     2
176
     1
 73
     3
176
     1
 90
        0
176
     1
 40
0.6
176
     1
 41
30.0
176
     1
 62
     5
 63
     7
421
 16777215
176
     1
 74
     2
176
     1
 91
        2
176
     1
 64
     7
176
     1
 65
     7
176
     1
 75
     1
176
     1
175
     1
176
     1
 42
40.0
176
     1
 92
        8
176
     1
 66
     7
176
     1
 43
1.0
176
     1
 76
     1
176
     1
 77
     6
176
     1
 78
     2
176
     1
 67
     7
176
     1
 79
     3
176
     1
170
     0
176
     1
171
     0
176
     1
290
     0
176
     1
 93
        1
176
     1
 44
0.0
176
     1
173
     0
176
     1
  0
VISUALSTYLE
  5
2CE
102
{ACAD_REACTORS
330
2A
102
}
330
2A
100
AcDbVisualStyle
  2
Sketchy
 70
    24
177
     2
291
     0
 71
     1
176
     1
 72
     2
176
     1
 73
     2
176
     1
 90
        0
176
     1
 40
0.6
176
     1
 41
30.0
176
     1
 62
     5
 63
     7
421
 16777215
176
     1
 74
     2
176
     1
 91
        2
176
     1
 64
     7
176
     1
 65
     7
176
     1
 75
     1
176
     1
175
     1
176
     1
 42
40.0
176
     1
 92
       11
176
     1
 66
     7
176
     1
 43
1.0
176
     1
 76
     1
176
     1
 77
     6
176
     1
 78
     2
176
     1
 67
     7
176
     1
 79
     6
176
     1
170
     0
176
     1
171
     0
176
     1
290
     0
176
     1
 93
        1
176
     1
 44
0.0
176
     1
173
     0
176
     1
  0
VISUALSTYLE
  5
37
102
{ACAD_REACTORS
330
2A
102
}
330
2A
100
AcDbVisualStyle
  2
Thicken
 70
    13
177
     2
291
     1
 71
     2
176
     1
 72
     2
176
     1
 73
     0
176
     1
 90
        0
176
     1
 40
-0.6
176
     1
 41
-30.0
176
     1
 62
     5
 63
     7
421
 16777215
176
     1
 74
     1
176
     1
 91
        4
176
     1
 64
     7
176
     1
 65
   257
176
     1
 75
     1
176
     1
175
     1
176
     1
 42
1.0
176
     1
 92
       12
176
     1
 66
     7
176
     1
 43
1.0
176
     1
 76
     1
176
     1
 77
     6
176
     1
 78
     2
176
     1
 67
     7
176
     1
 79
     5
176
     1
170
     0
176
     1
171
     0
176
     1
290
     0
176
     1
 93
        1
176
     1
 44
0.0
176
     1
173
     0
176
     1
  0
VISUALSTYLE
  5
2C8
102
{ACAD_REACTORS
330
2A
102
}
330
2A
100
AcDbVisualStyle
  2
Wireframe
 70
     5
177
     2
291
     0
 71
     0
176
     1
 72
     2
176
     1
 73
     0
176
     1
 90
        0
176
     1
 40
0.6
176
     1
 41
30.0
176
     1
 62
     5
 63
     7
421
 16777215
176
     1
 74
     1
176
     1
 91
        4
176
     1
 64
     7
176
     1
 65
   257
176
     1
 75
     1
176
     1
175
     1
176
     1
 42
1.0
176
     1
 92
        0
176
     1
 66
   257
176
     1
 43
1.0
176
     1
 76
     1
176
     1
 77
     6
176
     1
 78
     2
176
     1
 67
     7
176
     1
 79
     3
176
     1
170
     0
176
     1
171
     0
176
     1
290
     0
176
     1
 93
        1
176
     1
 44
0.0
176
     1
173
     0
176
     1
  0
VISUALSTYLE
  5
2CF
102
{ACAD_REACTORS
330
2A
102
}
330
2A
100
AcDbVisualStyle
  2
X-Ray
 70
    25
177
     2
291
     0
 71
     2
176
     1
 72
     2
176
     1
 73
     1
176
     1
 90
        1
176
     1
 40
0.5
176
     1
 41
30.0
176
     1
 62
     5
 63
     7
421
 16777215
176
     1
 74
     1
176
     1
 91
        0
176
     1
 64
     7
176
     1
 65
   257
176
     1
 75
     1
176
     1
175
     1
176
     1
 42
1.0
176
     1
 92
        8
176
     1
 66
     7
176
     1
 43
1.0
176
     1
 76
     1
176
     1
 77
     6
176
     1
 78
     2
176
     1
 67
     7
176
     1
 79
     3
176
     1
170
     0
176
     1
171
     0
176
     1
290
     0
176
     1
 93
       13
176
     1
 44
0.0
176
     1
173
     0
176
     1
  0
DICTIONARYVAR
  5
2F8
102
{ACAD_REACTORS
330
2F7
102
}
330
2F7
100
DictionaryVariables
280
     0
  1
1:1
  0
DICTIONARYVAR
  5
2FA
102
{ACAD_REACTORS
330
2F7
102
}
330
2F7
100
DictionaryVariables
280
     0
  1
Standard
  0
DICTIONARYVAR
  5
2F9
102
{ACAD_REACTORS
330
2F7
102
}
330
2F7
100
DictionaryVariables
280
     0
  1
Standard
  0
DICTIONARYVAR
  5
2FB
102
{ACAD_REACTORS
330
2F7
102
}
330
2F7
100
DictionaryVariables
280
     0
  1
0
  0
DICTIONARY
  5
404
330
2D2
100
AcDbDictionary
280
     1
281
     1
  3
ACAD_ROUNDTRIP_2008_TABLESTYLE_CELLSTYLEMAP
360
405
  0
CELLSTYLEMAP
  5
405
102
{ACAD_REACTORS
330
404
102
}
330
404
100
AcDbCellStyleMap
 90
        3
300
CELLSTYLE
  1
TABLEFORMAT_BEGIN
 90
        5
170
     1
 91
        0
 92
    32768
 62
   257
 93
        1
300
CONTENTFORMAT
  1
CONTENTFORMAT_BEGIN
 90
        0
 91
        0
 92
        4
 93
        0
300

 40
0.0
140
1.0
 94
        5
 62
     0
340
11
144
6.0
309
CONTENTFORMAT_END
171
     1
301
MARGIN
  1
CELLMARGIN_BEGIN
 40
1.5
 40
1.5
 40
1.5
 40
1.5
 40
1.5
 40
1.5
309
CELLMARGIN_END
 94
        6
 95
        1
302
GRIDFORMAT
  1
GRIDFORMAT_BEGIN
 90
        0
 91
        1
 62
     0
 92
       -2
340
14
 93
        0
 40
0.045
309
GRIDFORMAT_END
 95
        2
302
GRIDFORMAT
  1
GRIDFORMAT_BEGIN
 90
        0
 91
        1
 62
     0
 92
       -2
340
14
 93
        0
 40
0.045
309
GRIDFORMAT_END
 95
        4
302
GRIDFORMAT
  1
GRIDFORMAT_BEGIN
 90
        0
 91
        1
 62
     0
 92
       -2
340
14
 93
        0
 40
0.045
309
GRIDFORMAT_END
 95
        8
302
GRIDFORMAT
  1
GRIDFORMAT_BEGIN
 90
        0
 91
        1
 62
     0
 92
       -2
340
14
 93
        0
 40
0.045
309
GRIDFORMAT_END
 95
       16
302
GRIDFORMAT
  1
GRIDFORMAT_BEGIN
 90
        0
 91
        1
 62
     0
 92
       -2
340
14
 93
        0
 40
0.045
309
GRIDFORMAT_END
 95
       32
302
GRIDFORMAT
  1
GRIDFORMAT_BEGIN
 90
        0
 91
        1
 62
     0
 92
       -2
340
14
 93
        0
 40
0.045
309
GRIDFORMAT_END
309
TABLEFORMAT_END
  1
CELLSTYLE_BEGIN
 90
        1
 91
        1
300
_TITLE
309
CELLSTYLE_END
300
CELLSTYLE
  1
TABLEFORMAT_BEGIN
 90
        5
170
     1
 91
        0
 92
        0
 62
   257
 93
        1
300
CONTENTFORMAT
  1
CONTENTFORMAT_BEGIN
 90
        0
 91
        0
 92
        4
 93
        0
300

 40
0.0
140
1.0
 94
        5
 62
     0
340
11
144
4.5
309
CONTENTFORMAT_END
171
     1
301
MARGIN
  1
CELLMARGIN_BEGIN
 40
1.5
 40
1.5
 40
1.5
 40
1.5
 40
1.5
 40
1.5
309
CELLMARGIN_END
 94
        6
 95
        1
302
GRIDFORMAT
  1
GRIDFORMAT_BEGIN
 90
        0
 91
        1
 62
     0
 92
       -2
340
14
 93
        0
 40
0.045
309
GRIDFORMAT_END
 95
        2
302
GRIDFORMAT
  1
GRIDFORMAT_BEGIN
 90
        0
 91
        1
 62
     0
 92
       -2
340
14
 93
        0
 40
0.045
309
GRIDFORMAT_END
 95
        4
302
GRIDFORMAT
  1
GRIDFORMAT_BEGIN
 90
        0
 91
        1
 62
     0
 92
       -2
340
14
 93
        0
 40
0.045
309
GRIDFORMAT_END
 95
        8
302
GRIDFORMAT
  1
GRIDFORMAT_BEGIN
 90
        0
 91
        1
 62
     0
 92
       -2
340
14
 93
        0
 40
0.045
309
GRIDFORMAT_END
 95
       16
302
GRIDFORMAT
  1
GRIDFORMAT_BEGIN
 90
        0
 91
        1
 62
     0
 92
       -2
340
14
 93
        0
 40
0.045
309
GRIDFORMAT_END
 95
       32
302
GRIDFORMAT
  1
GRIDFORMAT_BEGIN
 90
        0
 91
        1
 62
     0
 92
       -2
340
14
 93
        0
 40
0.045
309
GRIDFORMAT_END
309
TABLEFORMAT_END
  1
CELLSTYLE_BEGIN
 90
        2
 91
        1
300
_HEADER
309
CELLSTYLE_END
300
CELLSTYLE
  1
TABLEFORMAT_BEGIN
 90
        5
170
     1
 91
        0
 92
        0
 62
   257
 93
        1
300
CONTENTFORMAT
  1
CONTENTFORMAT_BEGIN
 90
        0
 91
        0
 92
        4
 93
        0
300

 40
0.0
140
1.0
 94
        2
 62
     0
340
11
144
4.5
309
CONTENTFORMAT_END
171
     1
301
MARGIN
  1
CELLMARGIN_BEGIN
 40
1.5
 40
1.5
 40
1.5
 40
1.5
 40
1.5
 40
1.5
309
CELLMARGIN_END
 94
        6
 95
        1
302
GRIDFORMAT
  1
GRIDFORMAT_BEGIN
 90
        0
 91
        1
 62
     0
 92
       -2
340
14
 93
        0
 40
0.045
309
GRIDFORMAT_END
 95
        2
302
GRIDFORMAT
  1
GRIDFORMAT_BEGIN
 90
        0
 91
        1
 62
     0
 92
       -2
340
14
 93
        0
 40
0.045
309
GRIDFORMAT_END
 95
        4
302
GRIDFORMAT
  1
GRIDFORMAT_BEGIN
 90
        0
 91
        1
 62
     0
 92
       -2
340
14
 93
        0
 40
0.045
309
GRIDFORMAT_END
 95
        8
302
GRIDFORMAT
  1
GRIDFORMAT_BEGIN
 90
        0
 91
        1
 62
     0
 92
       -2
340
14
 93
        0
 40
0.045
309
GRIDFORMAT_END
 95
       16
302
GRIDFORMAT
  1
GRIDFORMAT_BEGIN
 90
        0
 91
        1
 62
     0
 92
       -2
340
14
 93
        0
 40
0.045
309
GRIDFORMAT_END
 95
       32
302
GRIDFORMAT
  1
GRIDFORMAT_BEGIN
 90
        0
 91
        1
 62
     0
 92
       -2
340
14
 93
        0
 40
0.045
309
GRIDFORMAT_END
309
TABLEFORMAT_END
  1
CELLSTYLE_BEGIN
 90
        3
 91
        2
300
_DATA
309
CELLSTYLE_END
  0
ENDSEC
  0
EOF
