  0
SECTION
  2
HEADER
  9
$ACADVER
  1
AC1024
  9
$ACADMAINTVER
 70
     6
  9
$DWGCODEPAGE
  3
ANSI_1252
  9
$LASTSAVEDBY
  1
mehme
  9
$INSBASE
 10
0.0
 20
0.0
 30
0.0
  9
$EXTMIN
 10
750318.9689743726
 20
4168988.827056866
 30
763.2519464186478
  9
$EXTMAX
 10
750556.6109823866
 20
4169344.4325113
 30
1024.131401992455
  9
$LIMMIN
 10
0.0
 20
0.0
  9
$LIMMAX
 10
420.0
 20
297.0
  9
$ORTHOMODE
 70
     0
  9
$REGENMODE
 70
     1
  9
$FILLMODE
 70
     1
  9
$QTEXTMODE
 70
     0
  9
$MIRRTEXT
 70
     1
  9
$LTSCALE
 40
1.0
  9
$ATTMODE
 70
     1
  9
$TEXTSIZE
 40
2.5
  9
$TRACEWID
 40
1.0
  9
$TEXTSTYLE
  7
Standard
  9
$CLAYER
  8
INIT_COORD
  9
$CELTYPE
  6
ByLayer
  9
$CECOLOR
 62
     3
  9
$CELTSCALE
 40
1.0
  9
$DISPSILH
 70
     0
  9
$DIMSCALE
 40
1.0
  9
$DIMASZ
 40
2.5
  9
$DIMEXO
 40
0.625
  9
$DIMDLI
 40
3.75
  9
$DIMRND
 40
0.0
  9
$DIMDLE
 40
0.0
  9
$DIMEXE
 40
1.25
  9
$DIMTP
 40
0.0
  9
$DIMTM
 40
0.0
  9
$DIMTXT
 40
2.5
  9
$DIMCEN
 40
2.5
  9
$DIMTSZ
 40
0.0
  9
$DIMTOL
 70
     0
  9
$DIMLIM
 70
     0
  9
$DIMTIH
 70
     0
  9
$DIMTOH
 70
     0
  9
$DIMSE1
 70
     0
  9
$DIMSE2
 70
     0
  9
$DIMTAD
 70
     1
  9
$DIMZIN
 70
     8
  9
$DIMBLK
  1

  9
$DIMASO
 70
     1
  9
$DIMSHO
 70
     1
  9
$DIMPOST
  1

  9
$DIMAPOST
  1

  9
$DIMALT
 70
     0
  9
$DIMALTD
 70
     3
  9
$DIMALTF
 40
0.03937007874016
  9
$DIMLFAC
 40
1.0
  9
$DIMTOFL
 70
     1
  9
$DIMTVP
 40
0.0
  9
$DIMTIX
 70
     0
  9
$DIMSOXD
 70
     0
  9
$DIMSAH
 70
     0
  9
$DIMBLK1
  1

  9
$DIMBLK2
  1

  9
$DIMSTYLE
  2
ISO-25
  9
$DIMCLRD
 70
     0
  9
$DIMCLRE
 70
     0
  9
$DIMCLRT
 70
     0
  9
$DIMTFAC
 40
1.0
  9
$DIMGAP
 40
0.625
  9
$DIMJUST
 70
     0
  9
$DIMSD1
 70
     0
  9
$DIMSD2
 70
     0
  9
$DIMTOLJ
 70
     0
  9
$DIMTZIN
 70
     8
  9
$DIMALTZ
 70
     0
  9
$DIMALTTZ
 70
     0
  9
$DIMUPT
 70
     0
  9
$DIMDEC
 70
     2
  9
$DIMTDEC
 70
     2
  9
$DIMALTU
 70
     2
  9
$DIMALTTD
 70
     3
  9
$DIMTXSTY
  7
Standard
  9
$DIMAUNIT
 70
     0
  9
$DIMADEC
 70
     0
  9
$DIMALTRND
 40
0.0
  9
$DIMAZIN
 70
     0
  9
$DIMDSEP
 70
    44
  9
$DIMATFIT
 70
     3
  9
$DIMFRAC
 70
     0
  9
$DIMLDRBLK
  1

  9
$DIMLUNIT
 70
     2
  9
$DIMLWD
 70
    -2
  9
$DIMLWE
 70
    -2
  9
$DIMTMOVE
 70
     0
  9
$DIMFXL
 40
1.0
  9
$DIMFXLON
 70
     0
  9
$DIMJOGANG
 40
0.7853981633974483
  9
$DIMTFILL
 70
     0
  9
$DIMTFILLCLR
 70
     0
  9
$DIMARCSYM
 70
     0
  9
$DIMLTYPE
  6

  9
$DIMLTEX1
  6

  9
$DIMLTEX2
  6

  9
$DIMTXTDIRECTION
 70
     0
  9
$LUNITS
 70
     2
  9
$LUPREC
 70
     4
  9
$SKETCHINC
 40
1.0
  9
$FILLETRAD
 40
10.0
  9
$AUNITS
 70
     0
  9
$AUPREC
 70
     0
  9
$MENU
  1
.
  9
$ELEVATION
 40
0.0
  9
$PELEVATION
 40
0.0
  9
$THICKNESS
 40
0.0
  9
$LIMCHECK
 70
     0
  9
$CHAMFERA
 40
10.0
  9
$CHAMFERB
 40
10.0
  9
$CHAMFERC
 40
20.0
  9
$CHAMFERD
 40
0.0
  9
$SKPOLY
 70
     0
  9
$TDCREATE
 40
2457877.703557199
  9
$TDUCREATE
 40
2457877.578557199
  9
$TDUPDATE
 40
2457878.033300764
  9
$TDUUPDATE
 40
2457877.908300764
  9
$TDINDWG
 40
0.002909294
  9
$TDUSRTIMER
 40
2457877.908169688
  9
$USRTIMER
 70
     1
  9
$ANGBASE
 50
0.0
  9
$ANGDIR
 70
     0
  9
$PDMODE
 70
     0
  9
$PDSIZE
 40
0.0
  9
$PLINEWID
 40
0.0
  9
$SPLFRAME
 70
     0
  9
$SPLINETYPE
 70
     6
  9
$SPLINESEGS
 70
     8
  9
$HANDSEED
  5
3CD
  9
$SURFTAB1
 70
     6
  9
$SURFTAB2
 70
     6
  9
$SURFTYPE
 70
     6
  9
$SURFU
 70
     6
  9
$SURFV
 70
     6
  9
$UCSBASE
  2

  9
$UCSNAME
  2

  9
$UCSORG
 10
0.0
 20
0.0
 30
0.0
  9
$UCSXDIR
 10
1.0
 20
0.0
 30
0.0
  9
$UCSYDIR
 10
0.0
 20
1.0
 30
0.0
  9
$UCSORTHOREF
  2

  9
$UCSORTHOVIEW
 70
     0
  9
$UCSORGTOP
 10
0.0
 20
0.0
 30
0.0
  9
$UCSORGBOTTOM
 10
0.0
 20
0.0
 30
0.0
  9
$UCSORGLEFT
 10
0.0
 20
0.0
 30
0.0
  9
$UCSORGRIGHT
 10
0.0
 20
0.0
 30
0.0
  9
$UCSORGFRONT
 10
0.0
 20
0.0
 30
0.0
  9
$UCSORGBACK
 10
0.0
 20
0.0
 30
0.0
  9
$PUCSBASE
  2

  9
$PUCSNAME
  2

  9
$PUCSORG
 10
0.0
 20
0.0
 30
0.0
  9
$PUCSXDIR
 10
1.0
 20
0.0
 30
0.0
  9
$PUCSYDIR
 10
0.0
 20
1.0
 30
0.0
  9
$PUCSORTHOREF
  2

  9
$PUCSORTHOVIEW
 70
     0
  9
$PUCSORGTOP
 10
0.0
 20
0.0
 30
0.0
  9
$PUCSORGBOTTOM
 10
0.0
 20
0.0
 30
0.0
  9
$PUCSORGLEFT
 10
0.0
 20
0.0
 30
0.0
  9
$PUCSORGRIGHT
 10
0.0
 20
0.0
 30
0.0
  9
$PUCSORGFRONT
 10
0.0
 20
0.0
 30
0.0
  9
$PUCSORGBACK
 10
0.0
 20
0.0
 30
0.0
  9
$USERI1
 70
     0
  9
$USERI2
 70
     0
  9
$USERI3
 70
     0
  9
$USERI4
 70
     0
  9
$USERI5
 70
     0
  9
$USERR1
 40
0.0
  9
$USERR2
 40
0.0
  9
$USERR3
 40
0.0
  9
$USERR4
 40
0.0
  9
$USERR5
 40
0.0
  9
$WORLDVIEW
 70
     1
  9
$SHADEDGE
 70
     3
  9
$SHADEDIF
 70
    70
  9
$TILEMODE
 70
     1
  9
$MAXACTVP
 70
    64
  9
$PINSBASE
 10
0.0
 20
0.0
 30
0.0
  9
$PLIMCHECK
 70
     0
  9
$PEXTMIN
 10
1.000000000000000E+20
 20
1.000000000000000E+20
 30
1.000000000000000E+20
  9
$PEXTMAX
 10
-1.000000000000000E+20
 20
-1.000000000000000E+20
 30
-1.000000000000000E+20
  9
$PLIMMIN
 10
0.0
 20
0.0
  9
$PLIMMAX
 10
0.0
 20
0.0
  9
$UNITMODE
 70
     0
  9
$VISRETAIN
 70
     1
  9
$PLINEGEN
 70
     0
  9
$PSLTSCALE
 70
     1
  9
$TREEDEPTH
 70
  3020
  9
$CMLSTYLE
  2
Standard
  9
$CMLJUST
 70
     0
  9
$CMLSCALE
 40
20.0
  9
$PROXYGRAPHICS
 70
     1
  9
$MEASUREMENT
 70
     1
  9
$CELWEIGHT
370
    -1
  9
$ENDCAPS
280
     0
  9
$JOINSTYLE
280
     0
  9
$LWDISPLAY
290
     0
  9
$INSUNITS
 70
     4
  9
$HYPERLINKBASE
  1

  9
$STYLESHEET
  1

  9
$XEDIT
290
     1
  9
$CEPSNTYPE
380
     0
  9
$PSTYLEMODE
290
     1
  9
$FINGERPRINTGUID
  2
{1E3F7FF7-26B9-40F5-9C37-401C6A31CC30}
  9
$VERSIONGUID
  2
{FAEB1C32-E019-11D5-929B-00C0DF256EC4}
  9
$EXTNAMES
290
     1
  9
$PSVPSCALE
 40
0.0
  9
$OLESTARTUP
290
     0
  9
$SORTENTS
280
   127
  9
$INDEXCTL
280
     0
  9
$HIDETEXT
280
     1
  9
$XCLIPFRAME
280
     0
  9
$HALOGAP
280
     0
  9
$OBSCOLOR
 70
   257
  9
$OBSLTYPE
280
     0
  9
$INTERSECTIONDISPLAY
280
     0
  9
$INTERSECTIONCOLOR
 70
   257
  9
$DIMASSOC
280
     2
  9
$PROJECTNAME
  1

  9
$CAMERADISPLAY
290
     0
  9
$LENSLENGTH
 40
50.0
  9
$CAMERAHEIGHT
 40
0.0
  9
$STEPSPERSEC
 40
2.0
  9
$STEPSIZE
 40
6.0
  9
$3DDWFPREC
 40
2.0
  9
$PSOLWIDTH
 40
5.0
  9
$PSOLHEIGHT
 40
80.0
  9
$LOFTANG1
 40
1.570796326794897
  9
$LOFTANG2
 40
1.570796326794897
  9
$LOFTMAG1
 40
0.0
  9
$LOFTMAG2
 40
0.0
  9
$LOFTPARAM
 70
     7
  9
$LOFTNORMALS
280
     1
  9
$LATITUDE
 40
37.795
  9
$LONGITUDE
 40
-122.394
  9
$NORTHDIRECTION
 40
0.0
  9
$TIMEZONE
 70
 -8000
  9
$LIGHTGLYPHDISPLAY
280
     1
  9
$TILEMODELIGHTSYNCH
280
     1
  9
$SOLIDHIST
280
     1
  9
$SHOWHIST
280
     1
  9
$DWFFRAME
280
     2
  9
$DGNFRAME
280
     2
  9
$REALWORLDSCALE
290
     1
  9
$INTERFERECOLOR
 62
   256
  9
$CSHADOW
280
     0
  9
$SHADOWPLANELOCATION
 40
0.0
  0
ENDSEC
  0
SECTION
  2
CLASSES
  0
CLASS
  1
ACDBDICTIONARYWDFLT
  2
AcDbDictionaryWithDefault
  3
ObjectDBX Classes
 90
        0
 91
        4
280
     0
281
     0
  0
CLASS
  1
VISUALSTYLE
  2
AcDbVisualStyle
  3
ObjectDBX Classes
 90
     4095
 91
        4
280
     0
281
     0
  0
CLASS
  1
MATERIAL
  2
AcDbMaterial
  3
ObjectDBX Classes
 90
     1153
 91
        4
280
     0
281
     0
  0
CLASS
  1
SCALE
  2
AcDbScale
  3
ObjectDBX Classes
 90
     1153
 91
        4
280
     0
281
     0
  0
CLASS
  1
TABLESTYLE
  2
AcDbTableStyle
  3
ObjectDBX Classes
 90
     4095
 91
        4
280
     0
281
     0
  0
CLASS
  1
MLEADERSTYLE
  2
AcDbMLeaderStyle
  3
ACDB_MLEADERSTYLE_CLASS
 90
     4095
 91
        4
280
     0
281
     0
  0
CLASS
  1
SUN
  2
AcDbSun
  3
SCENEOE
 90
     1153
 91
        4
280
     0
281
     0
  0
CLASS
  1
RASTERVARIABLES
  2
AcDbRasterVariables
  3
ISM
 90
        0
 91
        4
280
     0
281
     0
  0
CLASS
  1
DICTIONARYVAR
  2
AcDbDictionaryVar
  3
ObjectDBX Classes
 90
        0
 91
        4
280
     0
281
     0
  0
CLASS
  1
CELLSTYLEMAP
  2
AcDbCellStyleMap
  3
ObjectDBX Classes
 90
     1152
 91
        4
280
     0
281
     0
  0
ENDSEC
  0
SECTION
  2
TABLES
  0
TABLE
  2
VPORT
  5
8
330
0
100
AcDbSymbolTable
 70
     1
  0
VPORT
  5
29
330
8
100
AcDbSymbolTableRecord
100
AcDbViewportTableRecord
  2
*Active
 70
     0
 10
0.0
 20
0.0
 11
1.0
 21
1.0
 12
750569.995028707
 22
4169182.42712483
 13
0.0
 23
0.0
 14
10.0
 24
10.0
 15
10.0
 25
10.0
 16
0.1156542104436085
 26
0.3529240381903946
 36
0.9284765623756357
 17
-21676.07630108242
 27
308253.2340205256
 37
1563683.808850995
 40
454.0531815871252
 41
2.318396226415094
 42
50.0
 43
0.0
 44
0.0
 50
0.0
 51
163.4452129502532
 71
    16
 72
   100
 73
     1
 74
     3
 75
     0
 76
     0
 77
     0
 78
     0
281
     0
 65
     1
110
0.0
120
0.0
130
0.0
111
1.0
121
0.0
131
0.0
112
0.0
122
1.0
132
0.0
 79
     0
146
0.0
348
2F
 60
     3
 61
     5
292
     1
282
     1
141
0.0
142
0.0
 63
   250
361
271
  0
ENDTAB
  0
TABLE
  2
LTYPE
  5
5
330
0
100
AcDbSymbolTable
 70
     1
  0
LTYPE
  5
14
330
5
100
AcDbSymbolTableRecord
100
AcDbLinetypeTableRecord
  2
ByBlock
 70
     0
  3

 72
    65
 73
     0
 40
0.0
  0
LTYPE
  5
15
330
5
100
AcDbSymbolTableRecord
100
AcDbLinetypeTableRecord
  2
ByLayer
 70
     0
  3

 72
    65
 73
     0
 40
0.0
  0
LTYPE
  5
16
330
5
100
AcDbSymbolTableRecord
100
AcDbLinetypeTableRecord
  2
Continuous
 70
     0
  3
Solid line
 72
    65
 73
     0
 40
0.0
  0
ENDTAB
  0
TABLE
  2
LAYER
  5
2
102
{ACAD_XDICTIONARY
360
273
102
}
330
0
100
AcDbSymbolTable
 70
     4
  0
LAYER
  5
10
330
2
100
AcDbSymbolTableRecord
100
AcDbLayerTableRecord
  2
0
 70
     0
 62
     7
  6
Continuous
370
    -3
390
F
347
3E
  0
LAYER
  5
3F
330
2
100
AcDbSymbolTableRecord
100
AcDbLayerTableRecord
  2
RUSTEMGALERISON
 70
     4
 62
    27
  6
Continuous
370
    13
390
F
347
3E
  0
LAYER
  5
284
330
2
100
AcDbSymbolTableRecord
100
AcDbLayerTableRecord
  2
INIT_COORD
 70
     4
 62
     5
  6
Continuous
370
    -3
390
F
347
3E
1001
AcAecLayerStandard
1000

1000

  0
LAYER
  5
286
330
2
100
AcDbSymbolTableRecord
100
AcDbLayerTableRecord
  2
GEOFENCE
 70
     0
 62
     3
  6
Continuous
370
    -3
390
F
347
3E
1001
AcAecLayerStandard
1000

1000

  0
ENDTAB
  0
TABLE
  2
STYLE
  5
3
330
0
100
AcDbSymbolTable
 70
     9
  0
STYLE
  5
11
330
3
100
AcDbSymbolTableRecord
100
AcDbTextStyleTableRecord
  2
Standard
 70
     0
 40
0.0
 41
1.0
 50
0.0
 71
     0
 42
2.5
  3
C:\Windows\Font\TIMES.TTF
  4

  0
STYLE
  5
40
330
3
100
AcDbSymbolTableRecord
100
AcDbTextStyleTableRecord
  2
STYLE0
 70
     0
 40
0.0
 41
1.0
 50
0.0
 71
     0
 42
0.2
  3
TXT.SHX
  4

1001
ACAD
1000
TXT.SHX
1071
      256
  0
STYLE
  5
41
330
3
100
AcDbSymbolTableRecord
100
AcDbTextStyleTableRecord
  2
STYLE0P
 70
     0
 40
0.2
 41
1.0
 50
0.0
 71
     0
 42
0.2
  3
TXT.SHX
  4

1001
ACAD
1000
TXT.SHX
1071
 16777472
  0
STYLE
  5
42
330
3
100
AcDbSymbolTableRecord
100
AcDbTextStyleTableRecord
  2
STYLE1
 70
     0
 40
0.0
 41
1.0
 50
0.0
 71
     0
 42
0.2
  3
TXT.SHX
  4

1001
ACAD
1000
TXT.SHX
1071
      256
  0
STYLE
  5
43
330
3
100
AcDbSymbolTableRecord
100
AcDbTextStyleTableRecord
  2
STYLE1P
 70
     0
 40
0.2
 41
1.0
 50
0.0
 71
     0
 42
0.2
  3
TXT.SHX
  4

1001
ACAD
1000
TXT.SHX
1071
 16777472
  0
STYLE
  5
44
330
3
100
AcDbSymbolTableRecord
100
AcDbTextStyleTableRecord
  2
STYLE2
 70
     0
 40
0.0
 41
1.0
 50
0.0
 71
     0
 42
0.2
  3
TXT.SHX
  4

1001
ACAD
1000
TXT.SHX
1071
      256
  0
STYLE
  5
45
330
3
100
AcDbSymbolTableRecord
100
AcDbTextStyleTableRecord
  2
STYLE2P
 70
     0
 40
0.2
 41
1.0
 50
0.0
 71
     0
 42
0.2
  3
TXT.SHX
  4

1001
ACAD
1000
TXT.SHX
1071
 16777472
  0
STYLE
  5
46
330
3
100
AcDbSymbolTableRecord
100
AcDbTextStyleTableRecord
  2
STYLE3
 70
     0
 40
0.0
 41
1.0
 50
0.0
 71
     0
 42
0.2
  3
TXT.SHX
  4

1001
ACAD
1000
TXT.SHX
1071
      256
  0
STYLE
  5
47
330
3
100
AcDbSymbolTableRecord
100
AcDbTextStyleTableRecord
  2
STYLE3P
 70
     0
 40
0.2
 41
1.0
 50
0.0
 71
     0
 42
0.2
  3
TXT.SHX
  4

1001
ACAD
1000
TXT.SHX
1071
 16777472
  0
ENDTAB
  0
TABLE
  2
VIEW
  5
6
330
0
100
AcDbSymbolTable
 70
     0
  0
ENDTAB
  0
TABLE
  2
UCS
  5
7
330
0
100
AcDbSymbolTable
 70
     0
  0
ENDTAB
  0
TABLE
  2
APPID
  5
9
330
0
100
AcDbSymbolTable
 70
     2
  0
APPID
  5
12
330
9
100
AcDbSymbolTableRecord
100
AcDbRegAppTableRecord
  2
ACAD
 70
     0
  0
APPID
  5
285
330
9
100
AcDbSymbolTableRecord
100
AcDbRegAppTableRecord
  2
AcAecLayerStandard
 70
     0
  0
ENDTAB
  0
TABLE
  2
DIMSTYLE
  5
A
330
0
100
AcDbSymbolTable
 70
     1
100
AcDbDimStyleTable
  0
DIMSTYLE
105
27
330
A
100
AcDbSymbolTableRecord
100
AcDbDimStyleTableRecord
  2
ISO-25
 70
     0
 41
2.5
 42
0.625
 43
3.75
 44
1.25
 73
     0
 74
     0
 77
     1
 78
     8
140
2.5
141
2.5
143
0.03937007874016
147
0.625
171
     3
172
     1
178
     0
271
     2
272
     2
274
     3
278
    44
283
     0
284
     8
340
11
  0
ENDTAB
  0
TABLE
  2
BLOCK_RECORD
  5
1
330
0
100
AcDbSymbolTable
 70
     1
  0
BLOCK_RECORD
  5
1F
330
1
100
AcDbSymbolTableRecord
100
AcDbBlockTableRecord
  2
*Model_Space
340
22
 70
     0
280
     1
281
     0
  0
BLOCK_RECORD
  5
1B
330
1
100
AcDbSymbolTableRecord
100
AcDbBlockTableRecord
  2
*Paper_Space
340
1E
 70
     0
280
     1
281
     0
  0
BLOCK_RECORD
  5
23
330
1
100
AcDbSymbolTableRecord
100
AcDbBlockTableRecord
  2
*Paper_Space0
340
26
 70
     0
280
     1
281
     0
  0
ENDTAB
  0
ENDSEC
  0
SECTION
  2
BLOCKS
  0
BLOCK
  5
20
330
1F
100
AcDbEntity
  8
0
100
AcDbBlockBegin
  2
*Model_Space
 70
     0
 10
0.0
 20
0.0
 30
0.0
  3
*Model_Space
  1

  0
ENDBLK
  5
21
330
1F
100
AcDbEntity
  8
0
100
AcDbBlockEnd
  0
BLOCK
  5
1C
330
1B
100
AcDbEntity
 67
     1
  8
0
100
AcDbBlockBegin
  2
*Paper_Space
 70
     0
 10
0.0
 20
0.0
 30
0.0
  3
*Paper_Space
  1

  0
ENDBLK
  5
1D
330
1B
100
AcDbEntity
 67
     1
  8
0
100
AcDbBlockEnd
  0
BLOCK
  5
24
330
23
100
AcDbEntity
  8
0
100
AcDbBlockBegin
  2
*Paper_Space0
 70
     0
 10
0.0
 20
0.0
 30
0.0
  3
*Paper_Space0
  1

  0
ENDBLK
  5
25
330
23
100
AcDbEntity
  8
0
100
AcDbBlockEnd
  0
ENDSEC
  0
SECTION
  2
ENTITIES
  0
LINE
  5
48
330
1F
100
AcDbEntity
  8
RUSTEMGALERISON
370
     0
100
AcDbLine
 10
750409.455
 20
4169211.404
 30
896.927001953125
 11
750408.654
 21
4169206.329
 31
896.7630004882812
  0
LINE
  5
49
330
1F
100
AcDbEntity
  8
RUSTEMGALERISON
370
     0
100
AcDbLine
 10
750410.421
 20
4169213.877
 30
896.969970703125
 11
750409.455
 21
4169211.404
 31
896.927001953125
  0
LINE
  5
4A
330
1F
100
AcDbEntity
  8
RUSTEMGALERISON
370
     0
100
AcDbLine
 10
750408.654
 20
4169206.329
 30
896.7630004882812
 11
750406.544
 21
4169203.64
 31
896.7999877929688
  0
LINE
  5
4B
330
1F
100
AcDbEntity
  8
RUSTEMGALERISON
370
     0
100
AcDbLine
 10
750411.842
 20
4169216.579
 30
896.7470092773438
 11
750410.421
 21
4169213.877
 31
896.969970703125
  0
LINE
  5
4C
330
1F
100
AcDbEntity
  8
RUSTEMGALERISON
370
     0
100
AcDbLine
 10
750418.123
 20
4169232.895
 30
896.5059814453125
 11
750418.442
 21
4169234.727
 31
896.4180297851562
  0
LINE
  5
4D
330
1F
100
AcDbEntity
  8
RUSTEMGALERISON
370
     0
100
AcDbLine
 10
750417.489
 20
4169229.637
 30
896.5120239257812
 11
750418.123
 21
4169232.895
 31
896.5059814453125
  0
LINE
  5
4E
330
1F
100
AcDbEntity
  8
RUSTEMGALERISON
370
     0
100
AcDbLine
 10
750413.1792228923
 20
4169221.57854907
 30
896.6519775390625
 11
750411.842
 21
4169216.579
 31
896.7470092773438
  0
LINE
  5
4F
330
1F
100
AcDbEntity
  8
RUSTEMGALERISON
370
     0
100
AcDbLine
 10
750418.442
 20
4169234.727
 30
896.4180297851562
 11
750419.377
 21
4169239.231
 31
896.4580078125
  0
LINE
  5
50
330
1F
100
AcDbEntity
  8
RUSTEMGALERISON
370
     0
100
AcDbLine
 10
750398.199
 20
4169183.482
 30
897.2210083007812
 11
750399.207
 21
4169185.188
 31
897.2039794921875
  0
LINE
  5
51
330
1F
100
AcDbEntity
  8
RUSTEMGALERISON
370
     0
100
AcDbLine
 10
750407.424
 20
4169200.308
 30
897.0
 11
750408.972
 21
4169202.487
 31
896.9669799804688
  0
LINE
  5
52
330
1F
100
AcDbEntity
  8
RUSTEMGALERISON
370
     0
100
AcDbLine
 10
750413.692
 20
4169215.525
 30
896.7990112304688
 11
750415.536
 21
4169221.0
 31
896.7979736328125
  0
LINE
  5
53
330
1F
100
AcDbEntity
  8
RUSTEMGALERISON
370
     0
100
AcDbLine
 10
750412.478
 20
4169212.625
 30
896.7849731445312
 11
750413.692
 21
4169215.525
 31
896.7990112304688
  0
LINE
  5
54
330
1F
100
AcDbEntity
  8
RUSTEMGALERISON
370
     0
100
AcDbLine
 10
750406.171
 20
4169198.133
 30
897.0
 11
750407.424
 21
4169200.308
 31
897.0
  0
LINE
  5
55
330
1F
100
AcDbEntity
  8
RUSTEMGALERISON
370
     0
100
AcDbLine
 10
750418.071
 20
4169246.46
 30
896.5789794921875
 11
750417.498
 21
4169242.775
 31
896.6729736328125
  0
LINE
  5
56
330
1F
100
AcDbEntity
  8
RUSTEMGALERISON
370
     0
100
AcDbLine
 10
750418.898
 20
4169250.056
 30
896.4650268554688
 11
750418.533
 21
4169248.991
 31
896.406982421875
  0
LINE
  5
57
330
1F
100
AcDbEntity
  8
RUSTEMGALERISON
370
     0
100
AcDbLine
 10
750418.802
 20
4169251.641
 30
896.5479736328125
 11
750418.898
 21
4169250.056
 31
896.4650268554688
  0
LINE
  5
58
330
1F
100
AcDbEntity
  8
RUSTEMGALERISON
370
     0
100
AcDbLine
 10
750417.498
 20
4169242.775
 30
896.6729736328125
 11
750417.724
 21
4169241.172
 31
896.3460083007812
  0
LINE
  5
59
330
1F
100
AcDbEntity
  8
RUSTEMGALERISON
370
     0
100
AcDbLine
 10
750414.231
 20
4169224.249
 30
896.3900146484375
 11
750413.1792228923
 21
4169221.57854907
 31
896.6519775390625
  0
LINE
  5
5A
330
1F
100
AcDbEntity
  8
RUSTEMGALERISON
370
     0
100
AcDbLine
 10
750415.536
 20
4169221.0
 30
896.7979736328125
 11
750417.489
 21
4169229.637
 31
896.5120239257812
  0
LINE
  5
5B
330
1F
100
AcDbEntity
  8
RUSTEMGALERISON
370
     0
100
AcDbLine
 10
750420.102
 20
4169244.266
 30
896.323974609375
 11
750420.737
 21
4169246.871
 31
896.833984375
  0
LINE
  5
5C
330
1F
100
AcDbEntity
  8
RUSTEMGALERISON
370
     0
100
AcDbLine
 10
750415.001
 20
4169228.795
 30
896.4409790039062
 11
750414.231
 21
4169224.249
 31
896.3900146484375
  0
LINE
  5
5D
330
1F
100
AcDbEntity
  8
RUSTEMGALERISON
370
     0
100
AcDbLine
 10
750419.377
 20
4169239.231
 30
896.4580078125
 11
750420.102
 21
4169244.266
 31
896.323974609375
  0
LINE
  5
5E
330
1F
100
AcDbEntity
  8
RUSTEMGALERISON
370
     0
100
AcDbLine
 10
750417.724
 20
4169241.172
 30
896.3460083007812
 11
750416.038
 21
4169235.386
 31
896.5369873046875
  0
LINE
  5
5F
330
1F
100
AcDbEntity
  8
RUSTEMGALERISON
370
     0
100
AcDbLine
 10
750415.934
 20
4169233.15
 30
896.4609985351562
 11
750415.001
 21
4169228.795
 31
896.4409790039062
  0
LINE
  5
60
330
1F
100
AcDbEntity
  8
RUSTEMGALERISON
370
     0
100
AcDbLine
 10
750416.038
 20
4169235.386
 30
896.5369873046875
 11
750415.934
 21
4169233.15
 31
896.4609985351562
  0
LINE
  5
61
330
1F
100
AcDbEntity
  8
RUSTEMGALERISON
370
     0
100
AcDbLine
 10
750394.562
 20
4169164.144
 30
897.1380004882812
 11
750394.8170605043
 21
4169166.004576059
 31
897.7420043945312
  0
LINE
  5
62
330
1F
100
AcDbEntity
  8
RUSTEMGALERISON
370
     0
100
AcDbLine
 10
750437.203
 20
4169278.682
 30
895.77001953125
 11
750436.957
 21
4169280.424
 31
896.051025390625
  0
LINE
  5
63
330
1F
100
AcDbEntity
  8
RUSTEMGALERISON
370
     0
100
AcDbLine
 10
750392.684
 20
4169156.044
 30
897.301025390625
 11
750394.081
 21
4169161.275
 31
897.291015625
  0
LINE
  5
64
330
1F
100
AcDbEntity
  8
RUSTEMGALERISON
370
     0
100
AcDbLine
 10
750394.081
 20
4169161.275
 30
897.291015625
 11
750394.562
 21
4169164.144
 31
897.1380004882812
  0
LINE
  5
65
330
1F
100
AcDbEntity
  8
RUSTEMGALERISON
370
     0
100
AcDbLine
 10
750436.957
 20
4169280.424
 30
896.051025390625
 11
750438.01
 21
4169282.705
 31
896.0919799804688
  0
LINE
  5
66
330
1F
100
AcDbEntity
  8
RUSTEMGALERISON
370
     0
100
AcDbLine
 10
750438.01
 20
4169282.705
 30
896.0919799804688
 11
750441.427
 21
4169289.827
 31
896.4089965820312
  0
LINE
  5
67
330
1F
100
AcDbEntity
  8
RUSTEMGALERISON
370
     0
100
AcDbLine
 10
750389.859
 20
4169153.186
 30
897.4390258789062
 11
750392.684
 21
4169156.044
 31
897.301025390625
  0
LINE
  5
68
330
1F
100
AcDbEntity
  8
RUSTEMGALERISON
370
     0
100
AcDbLine
 10
750392.704
 20
4169166.069
 30
897.3270263671875
 11
750392.342
 21
4169164.821
 31
896.927978515625
  0
LINE
  5
69
330
1F
100
AcDbEntity
  8
RUSTEMGALERISON
370
     0
100
AcDbLine
 10
750392.342
 20
4169164.821
 30
896.927978515625
 11
750391.078
 21
4169162.294
 31
897.1539916992188
  0
LINE
  5
6A
330
1F
100
AcDbEntity
  8
RUSTEMGALERISON
370
     0
100
AcDbLine
 10
750389.53
 20
4169156.531
 30
897.302978515625
 11
750387.148
 21
4169154.476
 31
897.4219970703125
  0
LINE
  5
6B
330
1F
100
AcDbEntity
  8
RUSTEMGALERISON
370
     0
100
AcDbLine
 10
750387.148
 20
4169154.476
 30
897.4219970703125
 11
750386.975
 21
4169152.207
 31
897.3410034179688
  0
LINE
  5
6C
330
1F
100
AcDbEntity
  8
RUSTEMGALERISON
370
     0
100
AcDbLine
 10
750391.078
 20
4169162.294
 30
897.1539916992188
 11
750390.933
 21
4169159.006
 31
897.2839965820312
  0
LINE
  5
6D
330
1F
100
AcDbEntity
  8
RUSTEMGALERISON
370
     0
100
AcDbLine
 10
750390.933
 20
4169159.006
 30
897.2839965820312
 11
750389.53
 21
4169156.531
 31
897.302978515625
  0
LINE
  5
6E
330
1F
100
AcDbEntity
  8
RUSTEMGALERISON
370
     0
100
AcDbLine
 10
750389.425
 20
4169151.952
 30
897.9249877929688
 11
750389.859
 21
4169153.186
 31
897.4390258789062
  0
LINE
  5
6F
330
1F
100
AcDbEntity
  8
RUSTEMGALERISON
370
     0
100
AcDbLine
 10
750389.879
 20
4169148.076
 30
897.9249877929688
 11
750389.425
 21
4169151.952
 31
897.9249877929688
  0
LINE
  5
70
330
1F
100
AcDbEntity
  8
RUSTEMGALERISON
370
     0
100
AcDbLine
 10
750436.449
 20
4169284.621
 30
896.2349853515625
 11
750435.513
 21
4169283.381
 31
895.9739990234375
  0
LINE
  5
71
330
1F
100
AcDbEntity
  8
RUSTEMGALERISON
370
     0
100
AcDbLine
 10
750435.513
 20
4169283.381
 30
895.9739990234375
 11
750434.796
 21
4169283.321
 31
895.6890258789062
  0
LINE
  5
72
330
1F
100
AcDbEntity
  8
RUSTEMGALERISON
370
     0
100
AcDbLine
 10
750439.29
 20
4169291.087
 30
896.280029296875
 11
750438.151
 21
4169287.973
 31
896.260009765625
  0
LINE
  5
73
330
1F
100
AcDbEntity
  8
RUSTEMGALERISON
370
     0
100
AcDbLine
 10
750438.151
 20
4169287.973
 30
896.260009765625
 11
750436.449
 21
4169284.621
 31
896.2349853515625
  0
LINE
  5
74
330
1F
100
AcDbEntity
  8
RUSTEMGALERISON
370
     0
100
AcDbLine
 10
750386.975
 20
4169152.207
 30
897.3410034179688
 11
750386.938
 21
4169150.729
 31
897.9249877929688
  0
LINE
  5
75
330
1F
100
AcDbEntity
  8
RUSTEMGALERISON
370
     0
100
AcDbLine
 10
750549.017
 20
4169276.192
 30
894.8189697265625
 11
750534.17
 21
4169274.584
 31
895.0989990234375
  0
LINE
  5
76
330
1F
100
AcDbEntity
  8
RUSTEMGALERISON
370
     0
100
AcDbLine
 10
750554.332
 20
4169276.916
 30
894.8109741210938
 11
750549.017
 21
4169276.192
 31
894.8189697265625
  0
LINE
  5
77
330
1F
100
AcDbEntity
  8
RUSTEMGALERISON
370
     0
100
AcDbLine
 10
750527.055
 20
4169273.862
 30
895.35498046875
 11
750519.342
 21
4169272.51
 31
895.3400268554688
  0
LINE
  5
78
330
1F
100
AcDbEntity
  8
RUSTEMGALERISON
370
     0
100
AcDbLine
 10
750534.17
 20
4169274.584
 30
895.0989990234375
 11
750527.055
 21
4169273.862
 31
895.35498046875
  0
LINE
  5
79
330
1F
100
AcDbEntity
  8
RUSTEMGALERISON
370
     0
100
AcDbLine
 10
750488.097
 20
4169274.134
 30
895.6699829101562
 11
750482.171
 21
4169274.177
 31
895.56201171875
  0
LINE
  5
7A
330
1F
100
AcDbEntity
  8
RUSTEMGALERISON
370
     0
100
AcDbLine
 10
750493.072
 20
4169273.597
 30
895.5440063476562
 11
750488.097
 21
4169274.134
 31
895.6699829101562
  0
LINE
  5
7B
330
1F
100
AcDbEntity
  8
RUSTEMGALERISON
370
     0
100
AcDbLine
 10
750479.098
 20
4169274.588
 30
895.6530151367188
 11
750473.798
 21
4169274.6
 31
895.5369873046875
  0
LINE
  5
7C
330
1F
100
AcDbEntity
  8
RUSTEMGALERISON
370
     0
100
AcDbLine
 10
750482.171
 20
4169274.177
 30
895.56201171875
 11
750479.098
 21
4169274.588
 31
895.6530151367188
  0
LINE
  5
7D
330
1F
100
AcDbEntity
  8
RUSTEMGALERISON
370
     0
100
AcDbLine
 10
750501.853
 20
4169273.602
 30
895.5960083007812
 11
750493.072
 21
4169273.597
 31
895.5440063476562
  0
LINE
  5
7E
330
1F
100
AcDbEntity
  8
RUSTEMGALERISON
370
     0
100
AcDbLine
 10
750516.525
 20
4169272.214
 30
895.4000244140625
 11
750514.384
 21
4169272.026
 31
895.4450073242188
  0
LINE
  5
7F
330
1F
100
AcDbEntity
  8
RUSTEMGALERISON
370
     0
100
AcDbLine
 10
750519.342
 20
4169272.51
 30
895.3400268554688
 11
750516.525
 21
4169272.214
 31
895.4000244140625
  0
LINE
  5
80
330
1F
100
AcDbEntity
  8
RUSTEMGALERISON
370
     0
100
AcDbLine
 10
750506.142
 20
4169273.472
 30
895.5780029296875
 11
750501.853
 21
4169273.602
 31
895.5960083007812
  0
LINE
  5
81
330
1F
100
AcDbEntity
  8
RUSTEMGALERISON
370
     0
100
AcDbLine
 10
750514.384
 20
4169272.026
 30
895.4450073242188
 11
750506.142
 21
4169273.472
 31
895.5780029296875
  0
LINE
  5
82
330
1F
100
AcDbEntity
  8
RUSTEMGALERISON
370
     0
100
AcDbLine
 10
750422.369
 20
4169261.558
 30
896.1849975585938
 11
750421.091
 21
4169257.283
 31
896.2369995117188
  0
LINE
  5
83
330
1F
100
AcDbEntity
  8
RUSTEMGALERISON
370
     0
100
AcDbLine
 10
750424.224
 20
4169263.549
 30
896.1439819335938
 11
750422.369
 21
4169261.558
 31
896.1849975585938
  0
LINE
  5
84
330
1F
100
AcDbEntity
  8
RUSTEMGALERISON
370
     0
100
AcDbLine
 10
750420.372
 20
4169255.216
 30
896.3510131835938
 11
750418.802
 21
4169251.641
 31
896.5479736328125
  0
LINE
  5
85
330
1F
100
AcDbEntity
  8
RUSTEMGALERISON
370
     0
100
AcDbLine
 10
750421.091
 20
4169257.283
 30
896.2369995117188
 11
750420.372
 21
4169255.216
 31
896.3510131835938
  0
LINE
  5
86
330
1F
100
AcDbEntity
  8
RUSTEMGALERISON
370
     0
100
AcDbLine
 10
750424.675
 20
4169264.012
 30
896.2100219726562
 11
750424.224
 21
4169263.549
 31
896.1439819335938
  0
LINE
  5
87
330
1F
100
AcDbEntity
  8
RUSTEMGALERISON
370
     0
100
AcDbLine
 10
750426.785
 20
4169265.831
 30
896.1950073242188
 11
750424.675
 21
4169264.012
 31
896.2100219726562
  0
LINE
  5
88
330
1F
100
AcDbEntity
  8
RUSTEMGALERISON
370
     0
100
AcDbLine
 10
750429.609
 20
4169267.959
 30
896.5579833984375
 11
750426.785
 21
4169265.831
 31
896.1950073242188
  0
LINE
  5
89
330
1F
100
AcDbEntity
  8
RUSTEMGALERISON
370
     0
100
AcDbLine
 10
750429.345
 20
4169265.062
 30
896.1010131835938
 11
750436.323
 21
4169272.003
 31
896.1199951171875
  0
LINE
  5
8A
330
1F
100
AcDbEntity
  8
RUSTEMGALERISON
370
     0
100
AcDbLine
 10
750426.225
 20
4169262.316
 30
896.1389770507812
 11
750429.345
 21
4169265.062
 31
896.1010131835938
  0
LINE
  5
8B
330
1F
100
AcDbEntity
  8
RUSTEMGALERISON
370
     0
100
AcDbLine
 10
750425.728
 20
4169261.661
 30
896.1409912109375
 11
750426.225
 21
4169262.316
 31
896.1389770507812
  0
LINE
  5
8C
330
1F
100
AcDbEntity
  8
RUSTEMGALERISON
370
     0
100
AcDbLine
 10
750422.233
 20
4169253.724
 30
896.4739990234375
 11
750422.987
 21
4169255.338
 31
896.4520263671875
  0
LINE
  5
8D
330
1F
100
AcDbEntity
  8
RUSTEMGALERISON
370
     0
100
AcDbLine
 10
750420.737
 20
4169246.871
 30
896.833984375
 11
750422.233
 21
4169253.724
 31
896.4739990234375
  0
LINE
  5
8E
330
1F
100
AcDbEntity
  8
RUSTEMGALERISON
370
     0
100
AcDbLine
 10
750424.932
 20
4169260.352
 30
896.1129760742188
 11
750425.728
 21
4169261.661
 31
896.1409912109375
  0
LINE
  5
8F
330
1F
100
AcDbEntity
  8
RUSTEMGALERISON
370
     0
100
AcDbLine
 10
750422.987
 20
4169255.338
 30
896.4520263671875
 11
750424.932
 21
4169260.352
 31
896.1129760742188
  0
LINE
  5
90
330
1F
100
AcDbEntity
  8
RUSTEMGALERISON
370
     0
100
AcDbLine
 10
750473.798
 20
4169274.6
 30
895.5369873046875
 11
750469.2
 21
4169274.274
 31
895.7260131835938
  0
LINE
  5
91
330
1F
100
AcDbEntity
  8
RUSTEMGALERISON
370
     0
100
AcDbLine
 10
750534.391
 20
4169272.519
 30
895.0120239257812
 11
750540.954
 21
4169273.022
 31
894.9180297851562
  0
LINE
  5
92
330
1F
100
AcDbEntity
  8
RUSTEMGALERISON
370
     0
100
AcDbLine
 10
750523.931
 20
4169270.761
 30
895.2509765625
 11
750534.391
 21
4169272.519
 31
895.0120239257812
  0
LINE
  5
93
330
1F
100
AcDbEntity
  8
RUSTEMGALERISON
370
     0
100
AcDbLine
 10
750549.289
 20
4169274.131
 30
894.7949829101562
 11
750554.631
 21
4169275.031
 31
894.7750244140625
  0
LINE
  5
94
330
1F
100
AcDbEntity
  8
RUSTEMGALERISON
370
     0
100
AcDbLine
 10
750540.954
 20
4169273.022
 30
894.9180297851562
 11
750549.289
 21
4169274.131
 31
894.7949829101562
  0
LINE
  5
95
330
1F
100
AcDbEntity
  8
RUSTEMGALERISON
370
     0
100
AcDbLine
 10
750517.683
 20
4169269.336
 30
895.2630004882812
 11
750523.931
 21
4169270.761
 31
895.2509765625
  0
LINE
  5
96
330
1F
100
AcDbEntity
  8
RUSTEMGALERISON
370
     0
100
AcDbLine
 10
750501.878
 20
4169271.443
 30
895.5770263671875
 11
750505.945
 21
4169271.263
 31
895.5900268554688
  0
LINE
  5
97
330
1F
100
AcDbEntity
  8
RUSTEMGALERISON
370
     0
100
AcDbLine
 10
750493.75
 20
4169271.075
 30
895.6959838867188
 11
750501.878
 21
4169271.443
 31
895.5770263671875
  0
LINE
  5
98
330
1F
100
AcDbEntity
  8
RUSTEMGALERISON
370
     0
100
AcDbLine
 10
750511.307
 20
4169269.616
 30
895.406005859375
 11
750517.683
 21
4169269.336
 31
895.2630004882812
  0
LINE
  5
99
330
1F
100
AcDbEntity
  8
RUSTEMGALERISON
370
     0
100
AcDbLine
 10
750505.945
 20
4169271.263
 30
895.5900268554688
 11
750511.307
 21
4169269.616
 31
895.406005859375
  0
LINE
  5
9A
330
1F
100
AcDbEntity
  8
RUSTEMGALERISON
370
     0
100
AcDbLine
 10
750430.88
 20
4169284.468
 30
896.1209716796875
 11
750428.144
 21
4169285.789
 31
896.1190185546875
  0
LINE
  5
9B
330
1F
100
AcDbEntity
  8
RUSTEMGALERISON
370
     0
100
AcDbLine
 10
750433.518
 20
4169281.016
 30
896.010009765625
 11
750430.88
 21
4169284.468
 31
896.1209716796875
  0
LINE
  5
9C
330
1F
100
AcDbEntity
  8
RUSTEMGALERISON
370
     0
100
AcDbLine
 10
750427.036
 20
4169286.97
 30
896.0650024414062
 11
750424.722
 21
4169285.115
 31
895.9970092773438
  0
LINE
  5
9D
330
1F
100
AcDbEntity
  8
RUSTEMGALERISON
370
     0
100
AcDbLine
 10
750428.144
 20
4169285.789
 30
896.1190185546875
 11
750427.036
 21
4169286.97
 31
896.0650024414062
  0
LINE
  5
9E
330
1F
100
AcDbEntity
  8
RUSTEMGALERISON
370
     0
100
AcDbLine
 10
750433.973
 20
4169280.055
 30
895.8610229492188
 11
750433.518
 21
4169281.016
 31
896.010009765625
  0
LINE
  5
9F
330
1F
100
AcDbEntity
  8
RUSTEMGALERISON
370
     0
100
AcDbLine
 10
750453.436
 20
4169277.457
 30
895.8709716796875
 11
750451.682
 21
4169277.231
 31
895.885986328125
  0
LINE
  5
A0
330
1F
100
AcDbEntity
  8
RUSTEMGALERISON
370
     0
100
AcDbLine
 10
750453.995
 20
4169274.853
 30
896.0640258789062
 11
750453.436
 21
4169277.457
 31
895.8709716796875
  0
LINE
  5
A1
330
1F
100
AcDbEntity
  8
RUSTEMGALERISON
370
     0
100
AcDbLine
 10
750451.682
 20
4169277.231
 30
895.885986328125
 11
750451.353
 21
4169274.768
 31
895.9970092773438
  0
LINE
  5
A2
330
1F
100
AcDbEntity
  8
RUSTEMGALERISON
370
     0
100
AcDbLine
 10
750485.916
 20
4169271.691
 30
895.7219848632812
 11
750493.75
 21
4169271.075
 31
895.6959838867188
  0
LINE
  5
A3
330
1F
100
AcDbEntity
  8
RUSTEMGALERISON
370
     0
100
AcDbLine
 10
750438.383
 20
4169276.315
 30
895.708984375
 11
750437.203
 21
4169278.682
 31
895.77001953125
  0
LINE
  5
A4
330
1F
100
AcDbEntity
  8
RUSTEMGALERISON
370
     0
100
AcDbLine
 10
750440.08
 20
4169275.203
 30
895.8049926757812
 11
750438.383
 21
4169276.315
 31
895.708984375
  0
LINE
  5
A5
330
1F
100
AcDbEntity
  8
RUSTEMGALERISON
370
     0
100
AcDbLine
 10
750434.537
 20
4169273.957
 30
895.844970703125
 11
750429.609
 21
4169267.959
 31
896.5579833984375
  0
LINE
  5
A6
330
1F
100
AcDbEntity
  8
RUSTEMGALERISON
370
     0
100
AcDbLine
 10
750434.181
 20
4169277.369
 30
895.8839721679688
 11
750434.537
 21
4169273.957
 31
895.844970703125
  0
LINE
  5
A7
330
1F
100
AcDbEntity
  8
RUSTEMGALERISON
370
     0
100
AcDbLine
 10
750445.955
 20
4169274.512
 30
895.9920043945312
 11
750440.08
 21
4169275.203
 31
895.8049926757812
  0
LINE
  5
A8
330
1F
100
AcDbEntity
  8
RUSTEMGALERISON
370
     0
100
AcDbLine
 10
750464.527
 20
4169274.293
 30
895.6069946289062
 11
750453.995
 21
4169274.853
 31
896.0640258789062
  0
LINE
  5
A9
330
1F
100
AcDbEntity
  8
RUSTEMGALERISON
370
     0
100
AcDbLine
 10
750469.2
 20
4169274.274
 30
895.7260131835938
 11
750464.527
 21
4169274.293
 31
895.6069946289062
  0
LINE
  5
AA
330
1F
100
AcDbEntity
  8
RUSTEMGALERISON
370
     0
100
AcDbLine
 10
750451.353
 20
4169274.768
 30
895.9970092773438
 11
750445.955
 21
4169274.512
 31
895.9920043945312
  0
LINE
  5
AB
330
1F
100
AcDbEntity
  8
RUSTEMGALERISON
370
     0
100
AcDbLine
 10
750453.995
 20
4169274.853
 30
896.0640258789062
 11
750451.353
 21
4169274.768
 31
895.9970092773438
  0
LINE
  5
AC
330
1F
100
AcDbEntity
  8
RUSTEMGALERISON
370
     0
100
AcDbLine
 10
750468.944
 20
4169271.895
 30
895.7650146484375
 11
750479.064
 21
4169271.991
 31
895.6270141601562
  0
LINE
  5
AD
330
1F
100
AcDbEntity
  8
RUSTEMGALERISON
370
     0
100
AcDbLine
 10
750464.675
 20
4169272.243
 30
895.9180297851562
 11
750468.944
 21
4169271.895
 31
895.7650146484375
  0
LINE
  5
AE
330
1F
100
AcDbEntity
  8
RUSTEMGALERISON
370
     0
100
AcDbLine
 10
750482.946
 20
4169271.454
 30
895.5770263671875
 11
750485.916
 21
4169271.691
 31
895.7219848632812
  0
LINE
  5
AF
330
1F
100
AcDbEntity
  8
RUSTEMGALERISON
370
     0
100
AcDbLine
 10
750479.064
 20
4169271.991
 30
895.6270141601562
 11
750482.946
 21
4169271.454
 31
895.5770263671875
  0
LINE
  5
B0
330
1F
100
AcDbEntity
  8
RUSTEMGALERISON
370
     0
100
AcDbLine
 10
750457.039
 20
4169272.18
 30
895.8090209960938
 11
750464.675
 21
4169272.243
 31
895.9180297851562
  0
LINE
  5
B1
330
1F
100
AcDbEntity
  8
RUSTEMGALERISON
370
     0
100
AcDbLine
 10
750440.341
 20
4169272.885
 30
895.927001953125
 11
750446.603
 21
4169272.574
 31
895.927978515625
  0
LINE
  5
B2
330
1F
100
AcDbEntity
  8
RUSTEMGALERISON
370
     0
100
AcDbLine
 10
750436.323
 20
4169272.003
 30
896.1199951171875
 11
750440.341
 21
4169272.885
 31
895.927001953125
  0
LINE
  5
B3
330
1F
100
AcDbEntity
  8
RUSTEMGALERISON
370
     0
100
AcDbLine
 10
750451.414
 20
4169272.351
 30
896.0390014648438
 11
750457.039
 21
4169272.18
 31
895.8090209960938
  0
LINE
  5
B4
330
1F
100
AcDbEntity
  8
RUSTEMGALERISON
370
     0
100
AcDbLine
 10
750446.603
 20
4169272.574
 30
895.927978515625
 11
750451.414
 21
4169272.351
 31
896.0390014648438
  0
LINE
  5
B5
330
1F
100
AcDbEntity
  8
RUSTEMGALERISON
370
     0
100
AcDbLine
 10
750464.527
 20
4169274.293
 30
895.6069946289062
 11
750453.995
 21
4169274.853
 31
896.0640258789062
  0
LINE
  5
B6
330
1F
100
AcDbEntity
  8
RUSTEMGALERISON
370
     0
100
AcDbLine
 10
750488.097
 20
4169274.134
 30
895.6699829101562
 11
750482.171
 21
4169274.177
 31
895.56201171875
  0
LINE
  5
B7
330
1F
100
AcDbEntity
  8
RUSTEMGALERISON
370
     0
100
AcDbLine
 10
750549.017
 20
4169276.192
 30
894.8189697265625
 11
750534.17
 21
4169274.584
 31
895.0989990234375
  0
LINE
  5
B8
330
1F
100
AcDbEntity
  8
RUSTEMGALERISON
370
     0
100
AcDbLine
 10
750423.318
 20
4169282.629
 30
896.0050048828125
 11
750421.952
 21
4169281.683
 31
896.052978515625
  0
LINE
  5
B9
330
1F
100
AcDbEntity
  8
RUSTEMGALERISON
370
     0
100
AcDbLine
 10
750424.722
 20
4169285.115
 30
895.9970092773438
 11
750423.318
 21
4169282.629
 31
896.0050048828125
  0
LINE
  5
BA
330
1F
100
AcDbEntity
  8
RUSTEMGALERISON
370
     0
100
AcDbLine
 10
750420.3334534355
 20
4169282.691534705
 30
896.0360107421875
 11
750422.059
 21
4169283.87
 31
895.8389892578125
  0
LINE
  5
BB
330
1F
100
AcDbEntity
  8
RUSTEMGALERISON
370
     0
100
AcDbLine
 10
750421.952
 20
4169281.683
 30
896.052978515625
 11
750420.3334534355
 21
4169282.691534705
 31
896.0360107421875
  0
LINE
  5
BC
330
1F
100
AcDbEntity
  8
RUSTEMGALERISON
370
     0
100
AcDbLine
 10
750428.184
 20
4169288.216
 30
896.2169799804688
 11
750429.276
 21
4169287.223
 31
896.1790161132812
  0
LINE
  5
BD
330
1F
100
AcDbEntity
  8
RUSTEMGALERISON
370
     0
100
AcDbLine
 10
750430.893
 20
4169286.008
 30
896.2479858398438
 11
750433.111
 21
4169285.219
 31
896.0700073242188
  0
LINE
  5
BE
330
1F
100
AcDbEntity
  8
RUSTEMGALERISON
370
     0
100
AcDbLine
 10
750429.276
 20
4169287.223
 30
896.1790161132812
 11
750430.893
 21
4169286.008
 31
896.2479858398438
  0
LINE
  5
BF
330
1F
100
AcDbEntity
  8
RUSTEMGALERISON
370
     0
100
AcDbLine
 10
750423.904
 20
4169286.626
 30
896.2119750976562
 11
750424.775
 21
4169288.145
 31
896.0120239257812
  0
LINE
  5
C0
330
1F
100
AcDbEntity
  8
RUSTEMGALERISON
370
     0
100
AcDbLine
 10
750422.059
 20
4169283.87
 30
895.8389892578125
 11
750423.904
 21
4169286.626
 31
896.2119750976562
  0
LINE
  5
C1
330
1F
100
AcDbEntity
  8
RUSTEMGALERISON
370
     0
100
AcDbLine
 10
750423.15
 20
4169289.709
 30
895.89501953125
 11
750423.946
 21
4169290.782
 31
895.885986328125
  0
LINE
  5
C2
330
1F
100
AcDbEntity
  8
RUSTEMGALERISON
370
     0
100
AcDbLine
 10
750424.775
 20
4169288.145
 30
896.0120239257812
 11
750423.15
 21
4169289.709
 31
895.89501953125
  0
LINE
  5
C3
330
1F
100
AcDbEntity
  8
RUSTEMGALERISON
370
     0
100
AcDbLine
 10
750394.675
 20
4169174.809
 30
896.9219970703125
 11
750392.841
 21
4169168.451
 31
897.0830078125
  0
LINE
  5
C4
330
1F
100
AcDbEntity
  8
RUSTEMGALERISON
370
     0
100
AcDbLine
 10
750394.283
 20
4169178.956
 30
897.1649780273438
 11
750394.675
 21
4169174.809
 31
896.9219970703125
  0
LINE
  5
C5
330
1F
100
AcDbEntity
  8
RUSTEMGALERISON
370
     0
100
AcDbLine
 10
750402.1149008196
 20
4169195.732497141
 30
897.1539916992188
 11
750400.67
 21
4169192.634
 31
896.9249877929688
  0
LINE
  5
C6
330
1F
100
AcDbEntity
  8
RUSTEMGALERISON
370
     0
100
AcDbLine
 10
750400.67
 20
4169192.634
 30
896.9249877929688
 11
750400.039
 21
4169191.358
 31
896.6170043945312
  0
LINE
  5
C7
330
1F
100
AcDbEntity
  8
RUSTEMGALERISON
370
     0
100
AcDbLine
 10
750429.345
 20
4169265.062
 30
896.1010131835938
 11
750436.323
 21
4169272.003
 31
896.1199951171875
  0
LINE
  5
C8
330
1F
100
AcDbEntity
  8
RUSTEMGALERISON
370
     0
100
AcDbLine
 10
750396.883
 20
4169185.897
 30
897.0330200195312
 11
750394.283
 21
4169178.956
 31
897.1649780273438
  0
LINE
  5
C9
330
1F
100
AcDbEntity
  8
RUSTEMGALERISON
370
     0
100
AcDbLine
 10
750434.796
 20
4169283.321
 30
895.6890258789062
 11
750433.111
 21
4169285.219
 31
896.0700073242188
  0
LINE
  5
CA
330
1F
100
AcDbEntity
  8
RUSTEMGALERISON
370
     0
100
AcDbLine
 10
750397.695
 20
4169181.884
 30
897.2169799804688
 11
750398.199
 21
4169183.482
 31
897.2210083007812
  0
LINE
  5
CB
330
1F
100
AcDbEntity
  8
RUSTEMGALERISON
370
     0
100
AcDbLine
 10
750394.8170605043
 20
4169166.004576059
 30
897.7420043945312
 11
750395.6231564819
 21
4169170.454456638
 31
897.0349731445312
  0
LINE
  5
CC
330
1F
100
AcDbEntity
  8
RUSTEMGALERISON
370
     0
100
AcDbLine
 10
750392.841
 20
4169168.451
 30
897.0830078125
 11
750392.704
 21
4169166.069
 31
897.3270263671875
  0
LINE
  5
CD
330
1F
100
AcDbEntity
  8
RUSTEMGALERISON
370
     0
100
AcDbLine
 10
750395.6231564819
 20
4169170.454456638
 30
897.0349731445312
 11
750396.731116129
 21
4169174.407003718
 31
896.8400268554688
  0
LINE
  5
CE
330
1F
100
AcDbEntity
  8
RUSTEMGALERISON
370
     0
100
AcDbLine
 10
750396.812
 20
4169178.904
 30
897.14599609375
 11
750397.695
 21
4169181.884
 31
897.2169799804688
  0
LINE
  5
CF
330
1F
100
AcDbEntity
  8
RUSTEMGALERISON
370
     0
100
AcDbLine
 10
750396.731116129
 20
4169174.407003718
 30
896.8400268554688
 11
750396.812
 21
4169178.904
 31
897.14599609375
  0
LINE
  5
D0
330
1F
100
AcDbEntity
  8
RUSTEMGALERISON
370
     0
100
AcDbLine
 10
750407.42
 20
4169204.863
 30
896.8099975585938
 11
750403.582
 21
4169199.266
 31
896.656005859375
  0
LINE
  5
D1
330
1F
100
AcDbEntity
  8
RUSTEMGALERISON
370
     0
100
AcDbLine
 10
750406.26
 20
4169196.808
 30
897.1010131835938
 11
750406.171
 21
4169198.133
 31
897.0
  0
LINE
  5
D2
330
1F
100
AcDbEntity
  8
RUSTEMGALERISON
370
     0
100
AcDbLine
 10
750399.207
 20
4169185.188
 30
897.2039794921875
 11
750402.342
 21
4169189.435
 31
896.6920166015625
  0
LINE
  5
D3
330
1F
100
AcDbEntity
  8
RUSTEMGALERISON
370
     0
100
AcDbLine
 10
750402.342
 20
4169189.435
 30
896.6920166015625
 11
750403.9460878402
 21
4169194.174285836
 31
897.239013671875
  0
LINE
  5
D4
330
1F
100
AcDbEntity
  8
RUSTEMGALERISON
370
     0
100
AcDbLine
 10
750403.582
 20
4169199.266
 30
896.656005859375
 11
750402.1149008196
 21
4169195.732497141
 31
897.1539916992188
  0
LINE
  5
D5
330
1F
100
AcDbEntity
  8
RUSTEMGALERISON
370
     0
100
AcDbLine
 10
750419.5885505346
 20
4169240.982533589
 30
899.2979736328125
 11
750419.881
 21
4169242.262
 31
899.2979736328125
  0
LINE
  5
D6
330
1F
100
AcDbEntity
  8
RUSTEMGALERISON
370
     0
100
AcDbLine
 10
750386.938
 20
4169150.729
 30
897.9249877929688
 11
750386.563
 21
4169137.804
 31
897.2620239257812
  0
LINE
  5
D7
330
1F
100
AcDbEntity
  8
RUSTEMGALERISON
370
     0
100
AcDbLine
 10
750389.11
 20
4169137.762
 30
897.5490112304688
 11
750389.879
 21
4169148.076
 31
897.9249877929688
  0
LINE
  5
D8
330
1F
100
AcDbEntity
  8
RUSTEMGALERISON
370
     0
100
AcDbLine
 10
750391.657
 20
4169183.008
 30
897.6680297851562
 11
750391.905
 21
4169181.709
 31
897.9459838867188
  0
LINE
  5
D9
330
1F
100
AcDbEntity
  8
RUSTEMGALERISON
370
     0
100
AcDbLine
 10
750391.905
 20
4169181.709
 30
897.9459838867188
 11
750393.7187249361
 21
4169182.852800214
 31
897.9459838867188
  0
LINE
  5
DA
330
1F
100
AcDbEntity
  8
RUSTEMGALERISON
370
     0
100
AcDbLine
 10
750393.7187249361
 20
4169182.852800214
 30
897.9459838867188
 11
750392.854
 21
4169183.561
 31
897.5460205078125
  0
LINE
  5
DB
330
1F
100
AcDbEntity
  8
RUSTEMGALERISON
370
     0
100
AcDbLine
 10
750392.854
 20
4169183.561
 30
897.5460205078125
 11
750393.591
 21
4169185.871
 31
897.6799926757812
  0
LINE
  5
DC
330
1F
100
AcDbEntity
  8
RUSTEMGALERISON
370
     0
100
AcDbLine
 10
750393.591
 20
4169185.871
 30
897.6799926757812
 11
750394.2434012624
 21
4169187.767961828
 31
896.9500122070312
  0
LINE
  5
DD
330
1F
100
AcDbEntity
  8
RUSTEMGALERISON
370
     0
100
AcDbLine
 10
750433.973
 20
4169280.055
 30
895.8610229492188
 11
750434.181
 21
4169277.369
 31
895.8839721679688
  0
LINE
  5
DE
330
1F
100
AcDbEntity
  8
RUSTEMGALERISON
370
     0
100
AcDbLine
 10
750441.427
 20
4169289.827
 30
896.4089965820312
 11
750443.288
 21
4169293.46
 31
896.6170043945312
  0
LINE
  5
DF
330
1F
100
AcDbEntity
  8
RUSTEMGALERISON
370
     0
100
AcDbLine
 10
750443.288
 20
4169293.46
 30
896.6170043945312
 11
750445.281
 21
4169298.013
 31
896.3300170898438
  0
LINE
  5
E0
330
1F
100
AcDbEntity
  8
RUSTEMGALERISON
370
     0
100
AcDbLine
 10
750445.281
 20
4169298.013
 30
896.3300170898438
 11
750447.298
 21
4169302.632
 31
896.4110107421875
  0
LINE
  5
E1
330
1F
100
AcDbEntity
  8
RUSTEMGALERISON
370
     0
100
AcDbLine
 10
750447.298
 20
4169302.632
 30
896.4110107421875
 11
750451.688
 21
4169309.067
 31
896.5800170898438
  0
LINE
  5
E2
330
1F
100
AcDbEntity
  8
RUSTEMGALERISON
370
     0
100
AcDbLine
 10
750449.667
 20
4169310.389
 30
896.468994140625
 11
750445.518
 21
4169304.655
 31
896.4099731445312
  0
LINE
  5
E3
330
1F
100
AcDbEntity
  8
RUSTEMGALERISON
370
     0
100
AcDbLine
 10
750445.518
 20
4169304.655
 30
896.4099731445312
 11
750444.198
 21
4169302.627
 31
896.5070190429688
  0
LINE
  5
E4
330
1F
100
AcDbEntity
  8
RUSTEMGALERISON
370
     0
100
AcDbLine
 10
750444.198
 20
4169302.627
 30
896.5070190429688
 11
750443.438
 21
4169299.697
 31
896.60302734375
  0
LINE
  5
E5
330
1F
100
AcDbEntity
  8
RUSTEMGALERISON
370
     0
100
AcDbLine
 10
750443.438
 20
4169299.697
 30
896.60302734375
 11
750441.098
 21
4169294.65
 31
896.5700073242188
  0
LINE
  5
E6
330
1F
100
AcDbEntity
  8
RUSTEMGALERISON
370
     0
100
AcDbLine
 10
750441.098
 20
4169294.65
 30
896.5700073242188
 11
750439.29
 21
4169291.087
 31
896.280029296875
  0
LINE
  5
E7
330
1F
100
AcDbEntity
  8
RUSTEMGALERISON
370
     0
100
AcDbLine
 10
750386.563
 20
4169137.804
 30
897.2620239257812
 11
750386.03
 21
4169134.367
 31
897.5390014648438
  0
LINE
  5
E8
330
1F
100
AcDbEntity
  8
RUSTEMGALERISON
370
     0
100
AcDbLine
 10
750388.6066441715
 20
4169134.143740954
 30
897.5750122070312
 11
750389.11
 21
4169137.762
 31
897.5490112304688
  0
LINE
  5
E9
330
1F
100
AcDbEntity
  8
RUSTEMGALERISON
370
     0
100
AcDbLine
 10
750386.03
 20
4169134.367
 30
897.5390014648438
 11
750385.39
 21
4169129.503
 31
897.4310302734375
  0
LINE
  5
EA
330
1F
100
AcDbEntity
  8
RUSTEMGALERISON
370
     0
100
AcDbLine
 10
750385.39
 20
4169129.503
 30
897.4310302734375
 11
750384.5538869024
 21
4169125.594747708
 31
897.68701171875
  0
LINE
  5
EB
330
1F
100
AcDbEntity
  8
RUSTEMGALERISON
370
     0
100
AcDbLine
 10
750387.2037403517
 20
4169128.395205364
 30
897.5419921875
 11
750388.6066441715
 21
4169134.143740954
 31
897.5750122070312
  0
LINE
  5
EC
330
1F
100
AcDbEntity
  8
RUSTEMGALERISON
370
     0
100
AcDbLine
 10
750389.443
 20
4169186.545
 30
897.3519897460938
 11
750388.722
 21
4169185.264
 31
897.4760131835938
  0
LINE
  5
ED
330
1F
100
AcDbEntity
  8
RUSTEMGALERISON
370
     0
100
AcDbLine
 10
750388.612
 20
4169183.521
 30
897.5789794921875
 11
750389.404
 21
4169183.922
 31
897.5289916992188
  0
LINE
  5
EE
330
1F
100
AcDbEntity
  8
RUSTEMGALERISON
370
     0
100
AcDbLine
 10
750389.404
 20
4169183.922
 30
897.5289916992188
 11
750390.672
 21
4169183.716
 31
897.6400146484375
  0
LINE
  5
EF
330
1F
100
AcDbEntity
  8
RUSTEMGALERISON
370
     0
100
AcDbLine
 10
750390.672
 20
4169183.716
 30
897.6400146484375
 11
750391.657
 21
4169183.008
 31
897.6680297851562
  0
LINE
  5
F0
330
1F
100
AcDbEntity
  8
RUSTEMGALERISON
370
     0
100
AcDbLine
 10
750384.5538869024
 20
4169125.594747708
 30
897.68701171875
 11
750384.139
 21
4169124.507
 31
897.427001953125
  0
LINE
  5
F1
330
1F
100
AcDbEntity
  8
RUSTEMGALERISON
370
     0
100
AcDbLine
 10
750384.139
 20
4169124.507
 30
897.427001953125
 11
750382.985
 21
4169121.484
 31
897.5819702148438
  0
LINE
  5
F2
330
1F
100
AcDbEntity
  8
RUSTEMGALERISON
370
     0
100
AcDbLine
 10
750382.985
 20
4169121.484
 30
897.5819702148438
 11
750382.677
 21
4169118.251
 31
897.5910034179688
  0
LINE
  5
F3
330
1F
100
AcDbEntity
  8
RUSTEMGALERISON
370
     0
100
AcDbLine
 10
750382.677
 20
4169118.251
 30
897.5910034179688
 11
750382.552
 21
4169116.534
 31
897.666015625
  0
LINE
  5
F4
330
1F
100
AcDbEntity
  8
RUSTEMGALERISON
370
     0
100
AcDbLine
 10
750382.552
 20
4169116.534
 30
897.666015625
 11
750382.315
 21
4169115.305
 31
897.8170166015625
  0
LINE
  5
F5
330
1F
100
AcDbEntity
  8
RUSTEMGALERISON
370
     0
100
AcDbLine
 10
750382.315
 20
4169115.305
 30
897.8170166015625
 11
750382.037
 21
4169114.376
 31
897.8510131835938
  0
LINE
  5
F6
330
1F
100
AcDbEntity
  8
RUSTEMGALERISON
370
     0
100
AcDbLine
 10
750386.5719351516
 20
4169125.111553057
 30
897.6959838867188
 11
750386.6055847363
 21
4169124.029566942
 31
897.47998046875
  0
LINE
  5
F7
330
1F
100
AcDbEntity
  8
RUSTEMGALERISON
370
     0
100
AcDbLine
 10
750386.6055847363
 20
4169124.029566942
 30
897.47998046875
 11
750385.975
 21
4169122.073
 31
897.5960083007812
  0
LINE
  5
F8
330
1F
100
AcDbEntity
  8
RUSTEMGALERISON
370
     0
100
AcDbLine
 10
750385.975
 20
4169122.073
 30
897.5960083007812
 11
750385.254
 21
4169119.52
 31
897.4340209960938
  0
LINE
  5
F9
330
1F
100
AcDbEntity
  8
RUSTEMGALERISON
370
     0
100
AcDbLine
 10
750385.254
 20
4169119.52
 30
897.4340209960938
 11
750384.926
 21
4169116.619
 31
897.7730102539062
  0
LINE
  5
FA
330
1F
100
AcDbEntity
  8
RUSTEMGALERISON
370
     0
100
AcDbLine
 10
750384.926
 20
4169116.619
 30
897.7730102539062
 11
750383.9560505578
 21
4169114.000822412
 31
897.989013671875
  0
LINE
  5
FB
330
1F
100
AcDbEntity
  8
RUSTEMGALERISON
370
     0
100
AcDbLine
 10
750382.037
 20
4169114.376
 30
897.8510131835938
 11
750381.3637216529
 21
4169111.446883593
 31
898.3599853515625
  0
LINE
  5
FC
330
1F
100
AcDbEntity
  8
RUSTEMGALERISON
370
     0
100
AcDbLine
 10
750388.612
 20
4169183.521
 30
897.5789794921875
 11
750386.097
 21
4169181.996
 31
897.8289794921875
  0
LINE
  5
FD
330
1F
100
AcDbEntity
  8
RUSTEMGALERISON
370
     0
100
AcDbLine
 10
750386.097
 20
4169181.996
 30
897.8289794921875
 11
750385.835
 21
4169178.736
 31
897.7540283203125
  0
LINE
  5
FE
330
1F
100
AcDbEntity
  8
RUSTEMGALERISON
370
     0
100
AcDbLine
 10
750385.835
 20
4169178.736
 30
897.7540283203125
 11
750384.424
 21
4169178.744
 31
897.6680297851562
  0
LINE
  5
FF
330
1F
100
AcDbEntity
  8
RUSTEMGALERISON
370
     0
100
AcDbLine
 10
750384.424
 20
4169178.744
 30
897.6680297851562
 11
750383.765
 21
4169180.212
 31
897.9199829101562
  0
LINE
  5
100
330
1F
100
AcDbEntity
  8
RUSTEMGALERISON
370
     0
100
AcDbLine
 10
750383.765
 20
4169180.212
 30
897.9199829101562
 11
750380.207
 21
4169178.594
 31
897.9749755859375
  0
LINE
  5
101
330
1F
100
AcDbEntity
  8
RUSTEMGALERISON
370
     0
100
AcDbLine
 10
750381.3637216529
 20
4169111.446883593
 30
898.3599853515625
 11
750380.058
 21
4169108.801
 31
897.8770141601562
  0
LINE
  5
102
330
1F
100
AcDbEntity
  8
RUSTEMGALERISON
370
     0
100
AcDbLine
 10
750380.058
 20
4169108.801
 30
897.8770141601562
 11
750379.166
 21
4169104.294
 31
897.9390258789062
  0
LINE
  5
103
330
1F
100
AcDbEntity
  8
RUSTEMGALERISON
370
     0
100
AcDbLine
 10
750379.166
 20
4169104.294
 30
897.9390258789062
 11
750378.579
 21
4169100.914
 31
897.968017578125
  0
LINE
  5
104
330
1F
100
AcDbEntity
  8
RUSTEMGALERISON
370
     0
100
AcDbLine
 10
750380.787
 20
4169100.302
 30
898.0900268554688
 11
750382.373
 21
4169106.454
 31
897.9169921875
  0
LINE
  5
105
330
1F
100
AcDbEntity
  8
RUSTEMGALERISON
370
     0
100
AcDbLine
 10
750382.373
 20
4169106.454
 30
897.9169921875
 11
750383.098
 21
4169109.4
 31
897.7930297851562
  0
LINE
  5
106
330
1F
100
AcDbEntity
  8
RUSTEMGALERISON
370
     0
100
AcDbLine
 10
750383.098
 20
4169109.4
 30
897.7930297851562
 11
750383.524
 21
4169111.278
 31
897.6500244140625
  0
LINE
  5
107
330
1F
100
AcDbEntity
  8
RUSTEMGALERISON
370
     0
100
AcDbLine
 10
750449.667
 20
4169310.389
 30
896.468994140625
 11
750450.928
 21
4169312.936
 31
896.7990112304688
  0
LINE
  5
108
330
1F
100
AcDbEntity
  8
RUSTEMGALERISON
370
     0
100
AcDbLine
 10
750453.726
 20
4169314.752
 30
896.7659912109375
 11
750452.811
 21
4169311.638
 31
896.9000244140625
  0
LINE
  5
109
330
1F
100
AcDbEntity
  8
RUSTEMGALERISON
370
     0
100
AcDbLine
 10
750452.811
 20
4169311.638
 30
896.9000244140625
 11
750451.688
 21
4169309.067
 31
896.5800170898438
  0
LINE
  5
10A
330
1F
100
AcDbEntity
  8
RUSTEMGALERISON
370
     0
100
AcDbLine
 10
750378.579
 20
4169100.914
 30
897.968017578125
 11
750377.126
 21
4169096.934
 31
897.9149780273438
  0
LINE
  5
10B
330
1F
100
AcDbEntity
  8
RUSTEMGALERISON
370
     0
100
AcDbLine
 10
750377.126
 20
4169096.934
 30
897.9149780273438
 11
750375.397
 21
4169091.538
 31
898.0800170898438
  0
LINE
  5
10C
330
1F
100
AcDbEntity
  8
RUSTEMGALERISON
370
     0
100
AcDbLine
 10
750375.397
 20
4169091.538
 30
898.0800170898438
 11
750373.3954029209
 21
4169088.372340881
 31
898.4619750976562
  0
LINE
  5
10D
330
1F
100
AcDbEntity
  8
RUSTEMGALERISON
370
     0
100
AcDbLine
 10
750376.515
 20
4169088.724
 30
898.4190063476562
 11
750378.074
 21
4169091.381
 31
898.2869873046875
  0
LINE
  5
10E
330
1F
100
AcDbEntity
  8
RUSTEMGALERISON
370
     0
100
AcDbLine
 10
750378.074
 20
4169091.381
 30
898.2869873046875
 11
750380.787
 21
4169100.302
 31
898.0900268554688
  0
LINE
  5
10F
330
1F
100
AcDbEntity
  8
RUSTEMGALERISON
370
     0
100
AcDbLine
 10
750450.928
 20
4169312.936
 30
896.7990112304688
 11
750452.305
 21
4169317.253
 31
896.9030151367188
  0
LINE
  5
110
330
1F
100
AcDbEntity
  8
RUSTEMGALERISON
370
     0
100
AcDbLine
 10
750452.305
 20
4169317.253
 30
896.9030151367188
 11
750452.757
 21
4169320.566
 31
896.625
  0
LINE
  5
111
330
1F
100
AcDbEntity
  8
RUSTEMGALERISON
370
     0
100
AcDbLine
 10
750452.757
 20
4169320.566
 30
896.625
 11
750454.375
 21
4169323.778
 31
897.14697265625
  0
LINE
  5
112
330
1F
100
AcDbEntity
  8
RUSTEMGALERISON
370
     0
100
AcDbLine
 10
750456.122
 20
4169321.956
 30
897.10498046875
 11
750454.721
 21
4169317.21
 31
897.0079956054688
  0
LINE
  5
113
330
1F
100
AcDbEntity
  8
RUSTEMGALERISON
370
     0
100
AcDbLine
 10
750454.721
 20
4169317.21
 30
897.0079956054688
 11
750453.726
 21
4169314.752
 31
896.7659912109375
  0
LINE
  5
114
330
1F
100
AcDbEntity
  8
RUSTEMGALERISON
370
     0
100
AcDbLine
 10
750375.157
 20
4169086.532
 30
898.1380004882812
 11
750376.062
 21
4169088.104
 31
897.9199829101562
  0
LINE
  5
115
330
1F
100
AcDbEntity
  8
RUSTEMGALERISON
370
     0
100
AcDbLine
 10
750376.062
 20
4169088.104
 30
897.9199829101562
 11
750376.515
 21
4169088.724
 31
898.4190063476562
  0
LINE
  5
116
330
1F
100
AcDbEntity
  8
RUSTEMGALERISON
370
     0
100
AcDbLine
 10
750456.122
 20
4169321.956
 30
897.10498046875
 11
750456.807
 21
4169324.093
 31
896.8909912109375
  0
LINE
  5
117
330
1F
100
AcDbEntity
  8
RUSTEMGALERISON
370
     0
100
AcDbLine
 10
750456.807
 20
4169324.093
 30
896.8909912109375
 11
750457.673
 21
4169327.907
 31
897.2540283203125
  0
LINE
  5
118
330
1F
100
AcDbEntity
  8
RUSTEMGALERISON
370
     0
100
AcDbLine
 10
750457.673
 20
4169327.907
 30
897.2540283203125
 11
750458.214
 21
4169329.033
 31
897.072998046875
  0
LINE
  5
119
330
1F
100
AcDbEntity
  8
RUSTEMGALERISON
370
     0
100
AcDbLine
 10
750455.9280646608
 20
4169330.294438744
 30
896.9600219726562
 11
750455.092
 21
4169327.737
 31
897.0540161132812
  0
LINE
  5
11A
330
1F
100
AcDbEntity
  8
RUSTEMGALERISON
370
     0
100
AcDbLine
 10
750455.092
 20
4169327.737
 30
897.0540161132812
 11
750454.375
 21
4169323.778
 31
897.14697265625
  0
LINE
  5
11B
330
1F
100
AcDbEntity
  8
RUSTEMGALERISON
370
     0
100
AcDbLine
 10
750418.533
 20
4169248.991
 30
896.406982421875
 11
750417.565
 21
4169248.554
 31
896.1840209960938
  0
LINE
  5
11C
330
1F
100
AcDbEntity
  8
RUSTEMGALERISON
370
     0
100
AcDbLine
 10
750417.565
 20
4169248.554
 30
896.1840209960938
 11
750415.6259026472
 21
4169248.383359433
 31
896.1840209960938
  0
LINE
  5
11D
330
1F
100
AcDbEntity
  8
RUSTEMGALERISON
370
     0
100
AcDbLine
 10
750415.6259026472
 20
4169248.383359433
 30
896.1840209960938
 11
750414.4314186779
 21
4169248.554
 31
896.1840209960938
  0
LINE
  5
11E
330
1F
100
AcDbEntity
  8
RUSTEMGALERISON
370
     0
100
AcDbLine
 10
750414.4314186779
 20
4169248.554
 30
896.1840209960938
 11
750413.5782158427
 21
4169249.329638941
 31
896.1840209960938
  0
LINE
  5
11F
330
1F
100
AcDbEntity
  8
RUSTEMGALERISON
370
     0
100
AcDbLine
 10
750413.5782158427
 20
4169249.329638941
 30
896.1840209960938
 11
750412.7926539895
 21
4169249.808859321
 31
896.1840209960938
  0
LINE
  5
120
330
1F
100
AcDbEntity
  8
RUSTEMGALERISON
370
     0
100
AcDbLine
 10
750412.7926539895
 20
4169249.808859321
 30
896.1840209960938
 11
750411.9846967593
 21
4169249.891151262
 31
896.1840209960938
  0
LINE
  5
121
330
1F
100
AcDbEntity
  8
RUSTEMGALERISON
370
     0
100
AcDbLine
 10
750411.9846967593
 20
4169249.891151262
 30
896.1840209960938
 11
750411.244069298
 21
4169249.763972809
 31
896.1840209960938
  0
LINE
  5
122
330
1F
100
AcDbEntity
  8
RUSTEMGALERISON
370
     0
100
AcDbLine
 10
750411.244069298
 20
4169249.763972809
 30
896.1840209960938
 11
750410.9597880504
 21
4169249.412361792
 31
896.1840209960938
  0
LINE
  5
123
330
1F
100
AcDbEntity
  8
RUSTEMGALERISON
370
     0
100
AcDbLine
 10
750410.9597880504
 20
4169249.412361792
 30
896.1840209960938
 11
750410.8400906828
 21
4169249.053269689
 31
896.1840209960938
  0
LINE
  5
124
330
1F
100
AcDbEntity
  8
RUSTEMGALERISON
370
     0
100
AcDbLine
 10
750410.8400906828
 20
4169249.053269689
 30
896.1840209960938
 11
750410.8176474265
 21
4169248.596923476
 31
896.1840209960938
  0
LINE
  5
125
330
1F
100
AcDbEntity
  8
RUSTEMGALERISON
370
     0
100
AcDbLine
 10
750410.8176474265
 20
4169248.596923476
 30
896.1840209960938
 11
750410.825128512
 21
4169246.97352793
 31
896.1840209960938
  0
LINE
  5
126
330
1F
100
AcDbEntity
  8
RUSTEMGALERISON
370
     0
100
AcDbLine
 10
750410.825128512
 20
4169246.97352793
 30
896.1840209960938
 11
750411.244069298
 21
4169246.629397999
 31
896.1840209960938
  0
LINE
  5
127
330
1F
100
AcDbEntity
  8
RUSTEMGALERISON
370
     0
100
AcDbLine
 10
750411.244069298
 20
4169246.629397999
 30
896.1840209960938
 11
750411.7453020243
 21
4169246.135646358
 31
896.1840209960938
  0
LINE
  5
128
330
1F
100
AcDbEntity
  8
RUSTEMGALERISON
370
     0
100
AcDbLine
 10
750411.7453020243
 20
4169246.135646358
 30
896.1840209960938
 11
750412.6505133657
 21
4169246.068316589
 31
896.1840209960938
  0
LINE
  5
129
330
1F
100
AcDbEntity
  8
RUSTEMGALERISON
370
     0
100
AcDbLine
 10
750412.6505133657
 20
4169246.068316589
 30
896.1840209960938
 11
750413.9148168095
 21
4169246.449851947
 31
896.1840209960938
  0
LINE
  5
12A
330
1F
100
AcDbEntity
  8
RUSTEMGALERISON
370
     0
100
AcDbLine
 10
750413.9148168095
 20
4169246.449851947
 30
896.1840209960938
 11
750415.3736284755
 21
4169246.621916913
 31
896.1840209960938
  0
LINE
  5
12B
330
1F
100
AcDbEntity
  8
RUSTEMGALERISON
370
     0
100
AcDbLine
 10
750415.3736284755
 20
4169246.621916913
 30
896.1840209960938
 11
750418.071
 21
4169246.46
 31
896.5789794921875
  0
LINE
  5
12C
330
1F
100
AcDbEntity
  8
RUSTEMGALERISON
370
     0
100
AcDbLine
 10
750371.468
 20
4169085.927
 30
897.9860229492188
 11
750369.129
 21
4169083.702
 31
898.3259887695312
  0
LINE
  5
12D
330
1F
100
AcDbEntity
  8
RUSTEMGALERISON
370
     0
100
AcDbLine
 10
750369.129
 20
4169083.702
 30
898.3259887695312
 11
750365.898
 21
4169079.149
 31
898.1610107421875
  0
LINE
  5
12E
330
1F
100
AcDbEntity
  8
RUSTEMGALERISON
370
     0
100
AcDbLine
 10
750365.898
 20
4169079.149
 30
898.1610107421875
 11
750364.673
 21
4169078.3
 31
898.2650146484375
  0
LINE
  5
12F
330
1F
100
AcDbEntity
  8
RUSTEMGALERISON
370
     0
100
AcDbLine
 10
750364.673
 20
4169078.3
 30
898.2650146484375
 11
750362.184
 21
4169078.685
 31
898.5230102539062
  0
LINE
  5
130
330
1F
100
AcDbEntity
  8
RUSTEMGALERISON
370
     0
100
AcDbLine
 10
750362.184
 20
4169078.685
 30
898.5230102539062
 11
750361.361
 21
4169077.769
 31
898.4769897460938
  0
LINE
  5
131
330
1F
100
AcDbEntity
  8
RUSTEMGALERISON
370
     0
100
AcDbLine
 10
750361.361
 20
4169077.769
 30
898.4769897460938
 11
750361.514
 21
4169075.449
 31
898.3049926757812
  0
LINE
  5
132
330
1F
100
AcDbEntity
  8
RUSTEMGALERISON
370
     0
100
AcDbLine
 10
750361.514
 20
4169075.449
 30
898.3049926757812
 11
750362.542
 21
4169074.605
 31
898.1690063476562
  0
LINE
  5
133
330
1F
100
AcDbEntity
  8
RUSTEMGALERISON
370
     0
100
AcDbLine
 10
750366.332
 20
4169072.945
 30
898.5469970703125
 11
750366.827
 21
4169074.881
 31
898.72998046875
  0
LINE
  5
134
330
1F
100
AcDbEntity
  8
RUSTEMGALERISON
370
     0
100
AcDbLine
 10
750366.827
 20
4169074.881
 30
898.72998046875
 11
750367.467
 21
4169076.808
 31
898.2659912109375
  0
LINE
  5
135
330
1F
100
AcDbEntity
  8
RUSTEMGALERISON
370
     0
100
AcDbLine
 10
750367.467
 20
4169076.808
 30
898.2659912109375
 11
750370.26
 21
4169078.588
 31
898.1890258789062
  0
LINE
  5
136
330
1F
100
AcDbEntity
  8
RUSTEMGALERISON
370
     0
100
AcDbLine
 10
750370.26
 20
4169078.588
 30
898.1890258789062
 11
750371.032
 21
4169081.09
 31
898.135009765625
  0
LINE
  5
137
330
1F
100
AcDbEntity
  8
RUSTEMGALERISON
370
     0
100
AcDbLine
 10
750371.032
 20
4169081.09
 30
898.135009765625
 11
750373.046
 21
4169083.669
 31
898.1959838867188
  0
LINE
  5
138
330
1F
100
AcDbEntity
  8
RUSTEMGALERISON
370
     0
100
AcDbLine
 10
750373.046
 20
4169083.669
 30
898.1959838867188
 11
750375.157
 21
4169086.532
 31
898.1380004882812
  0
LINE
  5
139
330
1F
100
AcDbEntity
  8
RUSTEMGALERISON
370
     0
100
AcDbLine
 10
750373.3954029209
 20
4169088.372340881
 30
898.4619750976562
 11
750371.468
 21
4169085.927
 31
897.9860229492188
  0
LINE
  5
13A
330
1F
100
AcDbEntity
  8
RUSTEMGALERISON
370
     0
100
AcDbLine
 10
750362.542
 20
4169074.605
 30
898.1690063476562
 11
750363.349
 21
4169073.449
 31
898.3309936523438
  0
LINE
  5
13B
330
1F
100
AcDbEntity
  8
RUSTEMGALERISON
370
     0
100
AcDbLine
 10
750363.349
 20
4169073.449
 30
898.3309936523438
 11
750361.124
 21
4169064.135
 31
898.97998046875
  0
LINE
  5
13C
330
1F
100
AcDbEntity
  8
RUSTEMGALERISON
370
     0
100
AcDbLine
 10
750363.3601307933
 20
4169062.915292294
 30
898.97998046875
 11
750366.332
 21
4169072.945
 31
898.5469970703125
  0
LINE
  5
13D
330
1F
100
AcDbEntity
  8
RUSTEMGALERISON
370
     0
100
AcDbLine
 10
750358.707
 20
4169052.767
 30
899.280029296875
 11
750360.8684999484
 21
4169052.305090663
 31
899.22998046875
  0
LINE
  5
13E
330
1F
100
AcDbEntity
  8
RUSTEMGALERISON
370
     0
100
AcDbLine
 10
750359.246
 20
4169059.478
 30
898.6939697265625
 11
750357.646
 21
4169058.496
 31
898.5900268554688
  0
LINE
  5
13F
330
1F
100
AcDbEntity
  8
RUSTEMGALERISON
370
     0
100
AcDbLine
 10
750357.646
 20
4169058.496
 30
898.5900268554688
 11
750354.327
 21
4169058.599
 31
898.6259765625
  0
LINE
  5
140
330
1F
100
AcDbEntity
  8
RUSTEMGALERISON
370
     0
100
AcDbLine
 10
750354.327
 20
4169058.599
 30
898.6259765625
 11
750350.799
 21
4169058.427
 31
898.6489868164062
  0
LINE
  5
141
330
1F
100
AcDbEntity
  8
RUSTEMGALERISON
370
     0
100
AcDbLine
 10
750350.799
 20
4169058.427
 30
898.6489868164062
 11
750349.181
 21
4169057.806
 31
898.5670166015625
  0
LINE
  5
142
330
1F
100
AcDbEntity
  8
RUSTEMGALERISON
370
     0
100
AcDbLine
 10
750348.991
 20
4169055.758
 30
898.5280151367188
 11
750352.907
 21
4169056.002
 31
898.6240234375
  0
LINE
  5
143
330
1F
100
AcDbEntity
  8
RUSTEMGALERISON
370
     0
100
AcDbLine
 10
750364.044
 20
4169054.825
 30
898.8419799804688
 11
750366.624
 21
4169055.207
 31
898.9760131835938
  0
LINE
  5
144
330
1F
100
AcDbEntity
  8
RUSTEMGALERISON
370
     0
100
AcDbLine
 10
750361.124
 20
4169064.135
 30
898.97998046875
 11
750359.5169557885
 21
4169059.49606372
 31
898.6939697265625
  0
LINE
  5
145
330
1F
100
AcDbEntity
  8
RUSTEMGALERISON
370
     0
100
AcDbLine
 10
750359.5169557885
 20
4169059.49606372
 30
898.6939697265625
 11
750359.246
 21
4169059.478
 31
898.6939697265625
  0
LINE
  5
146
330
1F
100
AcDbEntity
  8
RUSTEMGALERISON
370
     0
100
AcDbLine
 10
750360.8684999484
 20
4169052.305090663
 30
899.22998046875
 11
750361.2668473045
 21
4169054.615732294
 31
898.9329833984375
  0
LINE
  5
147
330
1F
100
AcDbEntity
  8
RUSTEMGALERISON
370
     0
100
AcDbLine
 10
750361.2668473045
 20
4169054.615732294
 30
898.9329833984375
 11
750364.044
 21
4169054.825
 31
898.8419799804688
  0
LINE
  5
148
330
1F
100
AcDbEntity
  8
RUSTEMGALERISON
370
     0
100
AcDbLine
 10
750364.094
 20
4169057.371
 30
898.7319946289062
 11
750361.9724902462
 21
4169058.44389207
 31
898.6810302734375
  0
LINE
  5
149
330
1F
100
AcDbEntity
  8
RUSTEMGALERISON
370
     0
100
AcDbLine
 10
750352.907
 20
4169056.002
 30
898.6240234375
 11
750356.754
 21
4169055.221
 31
898.5390014648438
  0
LINE
  5
14A
330
1F
100
AcDbEntity
  8
RUSTEMGALERISON
370
     0
100
AcDbLine
 10
750356.754
 20
4169055.221
 30
898.5390014648438
 11
750356.126
 21
4169052.355
 31
898.4739990234375
  0
LINE
  5
14B
330
1F
100
AcDbEntity
  8
RUSTEMGALERISON
370
     0
100
AcDbLine
 10
750356.126
 20
4169052.355
 30
898.4739990234375
 11
750355.368
 21
4169047.613
 31
898.5989990234375
  0
LINE
  5
14C
330
1F
100
AcDbEntity
  8
RUSTEMGALERISON
370
     0
100
AcDbLine
 10
750355.368
 20
4169047.613
 30
898.5989990234375
 11
750354.929
 21
4169044.163
 31
899.0079956054688
  0
LINE
  5
14D
330
1F
100
AcDbEntity
  8
RUSTEMGALERISON
370
     0
100
AcDbLine
 10
750358.707
 20
4169052.767
 30
899.280029296875
 11
750358.301
 21
4169052.655
 31
898.7050170898438
  0
LINE
  5
14E
330
1F
100
AcDbEntity
  8
RUSTEMGALERISON
370
     0
100
AcDbLine
 10
750358.301
 20
4169052.655
 30
898.7050170898438
 11
750359.229
 21
4169054.762
 31
898.697998046875
  0
LINE
  5
14F
330
1F
100
AcDbEntity
  8
RUSTEMGALERISON
370
     0
100
AcDbLine
 10
750359.229
 20
4169054.762
 30
898.697998046875
 11
750361.2668473045
 21
4169054.615732294
 31
898.9329833984375
  0
LINE
  5
150
330
1F
100
AcDbEntity
  8
RUSTEMGALERISON
370
     0
100
AcDbLine
 10
750354.5796868587
 20
4169032.093770007
 30
898.7601318359375
 11
750356.5806861084
 21
4169038.234767705
 31
898.8392333984375
  0
LINE
  5
151
330
1F
100
AcDbEntity
  8
RUSTEMGALERISON
370
     0
100
AcDbLine
 10
750339.186
 20
4169007.117
 30
898.4940185546875
 11
750340.466
 21
4169009.189
 31
898.3499755859375
  0
LINE
  5
152
330
1F
100
AcDbEntity
  8
RUSTEMGALERISON
370
     0
100
AcDbLine
 10
750340.466
 20
4169009.189
 30
898.3499755859375
 11
750343.699
 21
4169011.386
 31
898.1079711914062
  0
LINE
  5
153
330
1F
100
AcDbEntity
  8
RUSTEMGALERISON
370
     0
100
AcDbLine
 10
750343.699
 20
4169011.386
 30
898.1079711914062
 11
750348.867
 21
4169017.68
 31
898.3189697265625
  0
LINE
  5
154
330
1F
100
AcDbEntity
  8
RUSTEMGALERISON
370
     0
100
AcDbLine
 10
750348.867
 20
4169017.68
 30
898.3189697265625
 11
750349.324
 21
4169019.293
 31
898.3049926757812
  0
LINE
  5
155
330
1F
100
AcDbEntity
  8
RUSTEMGALERISON
370
     0
100
AcDbLine
 10
750349.324
 20
4169019.293
 30
898.3049926757812
 11
750349.86
 21
4169021.526
 31
898.3289794921875
  0
LINE
  5
156
330
1F
100
AcDbEntity
  8
RUSTEMGALERISON
370
     0
100
AcDbLine
 10
750349.86
 20
4169021.526
 30
898.3289794921875
 11
750350.759
 21
4169025.049
 31
898.2479858398438
  0
LINE
  5
157
330
1F
100
AcDbEntity
  8
RUSTEMGALERISON
370
     0
100
AcDbLine
 10
750340.46
 20
4169005.616
 30
898.4140014648438
 11
750345.264
 21
4169009.14
 31
898.3579711914062
  0
LINE
  5
158
330
1F
100
AcDbEntity
  8
RUSTEMGALERISON
370
     0
100
AcDbLine
 10
750345.264
 20
4169009.14
 30
898.3579711914062
 11
750347.727
 21
4169011.731
 31
898.1309814453125
  0
LINE
  5
159
330
1F
100
AcDbEntity
  8
RUSTEMGALERISON
370
     0
100
AcDbLine
 10
750347.727
 20
4169011.731
 30
898.1309814453125
 11
750350.185
 21
4169015.251
 31
898.3389892578125
  0
LINE
  5
15A
330
1F
100
AcDbEntity
  8
RUSTEMGALERISON
370
     0
100
AcDbLine
 10
750336.498
 20
4169001.181
 30
898.47802734375
 11
750332.422
 21
4168998.63
 31
898.833984375
  0
LINE
  5
15B
330
1F
100
AcDbEntity
  8
RUSTEMGALERISON
370
     0
100
AcDbLine
 10
750332.422
 20
4168998.63
 30
898.833984375
 11
750331.1397206888
 21
4168999.940168967
 31
899.0670166015625
  0
LINE
  5
15C
330
1F
100
AcDbEntity
  8
RUSTEMGALERISON
370
     0
100
AcDbLine
 10
750331.1397206888
 20
4168999.940168967
 30
899.0670166015625
 11
750334.449
 21
4169002.155
 31
898.7360229492188
  0
LINE
  5
15D
330
1F
100
AcDbEntity
  8
RUSTEMGALERISON
370
     0
100
AcDbLine
 10
750340.46
 20
4169005.616
 30
898.4140014648438
 11
750339.226
 21
4169003.869
 31
898.5089721679688
  0
LINE
  5
15E
330
1F
100
AcDbEntity
  8
RUSTEMGALERISON
370
     0
100
AcDbLine
 10
750339.186
 20
4169007.117
 30
898.4940185546875
 11
750337.35
 21
4169004.975
 31
898.510986328125
  0
LINE
  5
15F
330
1F
100
AcDbEntity
  8
RUSTEMGALERISON
370
     0
100
AcDbLine
 10
750366.624
 20
4169055.207
 30
898.9760131835938
 11
750368.456
 21
4169055.845
 31
898.7589721679688
  0
LINE
  5
160
330
1F
100
AcDbEntity
  8
RUSTEMGALERISON
370
     0
100
AcDbLine
 10
750368.456
 20
4169055.845
 30
898.7589721679688
 11
750370.028097557
 21
4169055.983289117
 31
898.9459838867188
  0
LINE
  5
161
330
1F
100
AcDbEntity
  8
RUSTEMGALERISON
370
     0
100
AcDbLine
 10
750369.321
 20
4169058.567
 30
898.916015625
 11
750364.094
 21
4169057.371
 31
898.7319946289062
  0
LINE
  5
162
330
1F
100
AcDbEntity
  8
RUSTEMGALERISON
370
     0
100
AcDbLine
 10
750386.5719351516
 20
4169125.111553057
 30
897.6959838867188
 11
750387.564
 21
4169124.907
 31
897.6929931640625
  0
LINE
  5
163
330
1F
100
AcDbEntity
  8
RUSTEMGALERISON
370
     0
100
AcDbLine
 10
750387.564
 20
4169124.907
 30
897.6929931640625
 11
750389.3287846514
 21
4169124.800262013
 31
897.6909790039062
  0
LINE
  5
164
330
1F
100
AcDbEntity
  8
RUSTEMGALERISON
370
     0
100
AcDbLine
 10
750389.3287846514
 20
4169124.800262013
 30
897.6909790039062
 11
750392.021
 21
4169123.595
 31
897.9229736328125
  0
LINE
  5
165
330
1F
100
AcDbEntity
  8
RUSTEMGALERISON
370
     0
100
AcDbLine
 10
750392.021
 20
4169123.595
 30
897.9229736328125
 11
750395.421
 21
4169123.239
 31
897.8309936523438
  0
LINE
  5
166
330
1F
100
AcDbEntity
  8
RUSTEMGALERISON
370
     0
100
AcDbLine
 10
750395.421
 20
4169123.239
 30
897.8309936523438
 11
750396.553
 21
4169123.036
 31
897.4959716796875
  0
LINE
  5
167
330
1F
100
AcDbEntity
  8
RUSTEMGALERISON
370
     0
100
AcDbLine
 10
750396.553
 20
4169123.036
 30
897.4959716796875
 11
750398.115
 21
4169122.893
 31
897.8319702148438
  0
LINE
  5
168
330
1F
100
AcDbEntity
  8
RUSTEMGALERISON
370
     0
100
AcDbLine
 10
750398.115
 20
4169122.893
 30
897.8319702148438
 11
750399.031
 21
4169122.896
 31
897.5009765625
  0
LINE
  5
169
330
1F
100
AcDbEntity
  8
RUSTEMGALERISON
370
     0
100
AcDbLine
 10
750399.031
 20
4169122.896
 30
897.5009765625
 11
750399.255
 21
4169122.435
 31
897.7930297851562
  0
LINE
  5
16A
330
1F
100
AcDbEntity
  8
RUSTEMGALERISON
370
     0
100
AcDbLine
 10
750399.255
 20
4169122.435
 30
897.7930297851562
 11
750400.967
 21
4169120.679
 31
897.781005859375
  0
LINE
  5
16B
330
1F
100
AcDbEntity
  8
RUSTEMGALERISON
370
     0
100
AcDbLine
 10
750400.967
 20
4169120.679
 30
897.781005859375
 11
750402.751
 21
4169119.515
 31
898.2579956054688
  0
LINE
  5
16C
330
1F
100
AcDbEntity
  8
RUSTEMGALERISON
370
     0
100
AcDbLine
 10
750402.751
 20
4169119.515
 30
898.2579956054688
 11
750404.891
 21
4169120.145
 31
898.2000122070312
  0
LINE
  5
16D
330
1F
100
AcDbEntity
  8
RUSTEMGALERISON
370
     0
100
AcDbLine
 10
750404.891
 20
4169120.145
 30
898.2000122070312
 11
750406.018
 21
4169122.156
 31
897.9500122070312
  0
LINE
  5
16E
330
1F
100
AcDbEntity
  8
RUSTEMGALERISON
370
     0
100
AcDbLine
 10
750406.018
 20
4169122.156
 30
897.9500122070312
 11
750406.216
 21
4169124.716
 31
897.7769775390625
  0
LINE
  5
16F
330
1F
100
AcDbEntity
  8
RUSTEMGALERISON
370
     0
100
AcDbLine
 10
750406.216
 20
4169124.716
 30
897.7769775390625
 11
750404.4013769671
 21
4169125.635654323
 31
897.6909790039062
  0
LINE
  5
170
330
1F
100
AcDbEntity
  8
RUSTEMGALERISON
370
     0
100
AcDbLine
 10
750404.4013769671
 20
4169125.635654323
 30
897.6909790039062
 11
750401.8611828798
 21
4169125.986957761
 31
897.56298828125
  0
LINE
  5
171
330
1F
100
AcDbEntity
  8
RUSTEMGALERISON
370
     0
100
AcDbLine
 10
750401.8611828798
 20
4169125.986957761
 30
897.56298828125
 11
750399.567
 21
4169125.563
 31
897.7119750976562
  0
LINE
  5
172
330
1F
100
AcDbEntity
  8
RUSTEMGALERISON
370
     0
100
AcDbLine
 10
750399.567
 20
4169125.563
 30
897.7119750976562
 11
750398.7103567134
 21
4169125.419627253
 31
897.4169921875
  0
LINE
  5
173
330
1F
100
AcDbEntity
  8
RUSTEMGALERISON
370
     0
100
AcDbLine
 10
750398.7103567134
 20
4169125.419627253
 30
897.4169921875
 11
750396.7045551167
 21
4169125.474004309
 31
897.333984375
  0
LINE
  5
174
330
1F
100
AcDbEntity
  8
RUSTEMGALERISON
370
     0
100
AcDbLine
 10
750393.454
 20
4169126.087
 30
897.9459838867188
 11
750390.605
 21
4169126.957
 31
897.5770263671875
  0
LINE
  5
175
330
1F
100
AcDbEntity
  8
RUSTEMGALERISON
370
     0
100
AcDbLine
 10
750390.605
 20
4169126.957
 30
897.5770263671875
 11
750388.765
 21
4169127.957
 31
897.47802734375
  0
LINE
  5
176
330
1F
100
AcDbEntity
  8
RUSTEMGALERISON
370
     0
100
AcDbLine
 10
750388.765
 20
4169127.957
 30
897.47802734375
 11
750387.2037403517
 21
4169128.395205364
 31
897.5419921875
  0
LINE
  5
177
330
1F
100
AcDbEntity
  8
RUSTEMGALERISON
370
     0
100
AcDbLine
 10
750349.181
 20
4169057.806
 30
898.5670166015625
 11
750342.757
 21
4169055.579
 31
898.5430297851562
  0
LINE
  5
178
330
1F
100
AcDbEntity
  8
RUSTEMGALERISON
370
     0
100
AcDbLine
 10
750343.514
 20
4169053.808
 30
898.4979858398438
 11
750348.991
 21
4169055.758
 31
898.5280151367188
  0
LINE
  5
179
330
1F
100
AcDbEntity
  8
RUSTEMGALERISON
370
     0
100
AcDbLine
 10
750342.757
 20
4169055.579
 30
898.5430297851562
 11
750339.112
 21
4169055.07
 31
898.6119995117188
  0
LINE
  5
17A
330
1F
100
AcDbEntity
  8
RUSTEMGALERISON
370
     0
100
AcDbLine
 10
750339.112
 20
4169055.07
 30
898.6119995117188
 11
750334.498
 21
4169054.816
 31
898.791015625
  0
LINE
  5
17B
330
1F
100
AcDbEntity
  8
RUSTEMGALERISON
370
     0
100
AcDbLine
 10
750334.498
 20
4169054.816
 30
898.791015625
 11
750330.686
 21
4169053.517
 31
898.9290161132812
  0
LINE
  5
17C
330
1F
100
AcDbEntity
  8
RUSTEMGALERISON
370
     0
100
AcDbLine
 10
750331.5046673957
 20
4169051.609021768
 30
898.8870239257812
 11
750333.017
 21
4169052.273
 31
898.7459716796875
  0
LINE
  5
17D
330
1F
100
AcDbEntity
  8
RUSTEMGALERISON
370
     0
100
AcDbLine
 10
750333.017
 20
4169052.273
 30
898.7459716796875
 11
750337.227
 21
4169052.949
 31
898.5499877929688
  0
LINE
  5
17E
330
1F
100
AcDbEntity
  8
RUSTEMGALERISON
370
     0
100
AcDbLine
 10
750337.227
 20
4169052.949
 30
898.5499877929688
 11
750339.764
 21
4169052.823
 31
898.5469970703125
  0
LINE
  5
17F
330
1F
100
AcDbEntity
  8
RUSTEMGALERISON
370
     0
100
AcDbLine
 10
750339.764
 20
4169052.823
 30
898.5469970703125
 11
750343.514
 21
4169053.808
 31
898.4979858398438
  0
LINE
  5
180
330
1F
100
AcDbEntity
  8
RUSTEMGALERISON
370
     0
100
AcDbLine
 10
750428.184
 20
4169288.216
 30
896.2169799804688
 11
750423.946
 21
4169290.782
 31
895.885986328125
  0
LINE
  5
181
330
1F
100
AcDbEntity
  8
RUSTEMGALERISON
370
     0
100
AcDbLine
 10
750388.722
 20
4169185.264
 30
897.4760131835938
 11
750387.341
 21
4169184.386
 31
897.5670166015625
  0
LINE
  5
182
330
1F
100
AcDbEntity
  8
RUSTEMGALERISON
370
     0
100
AcDbLine
 10
750387.341
 20
4169184.386
 30
897.5670166015625
 11
750385.331
 21
4169183.278
 31
897.572021484375
  0
LINE
  5
183
330
1F
100
AcDbEntity
  8
RUSTEMGALERISON
370
     0
100
AcDbLine
 10
750385.331
 20
4169183.278
 30
897.572021484375
 11
750382.537
 21
4169181.443
 31
897.7369995117188
  0
LINE
  5
184
330
1F
100
AcDbEntity
  8
RUSTEMGALERISON
370
     0
100
AcDbLine
 10
750382.537
 20
4169181.443
 30
897.7369995117188
 11
750379.528
 21
4169179.59
 31
898.02001953125
  0
LINE
  5
185
330
1F
100
AcDbEntity
  8
RUSTEMGALERISON
370
     0
100
AcDbLine
 10
750379.528
 20
4169179.59
 30
898.02001953125
 11
750380.207
 21
4169178.594
 31
897.9749755859375
  0
LINE
  5
186
330
1F
100
AcDbEntity
  8
RUSTEMGALERISON
370
     0
100
AcDbLine
 10
750370.028097557
 20
4169055.983289117
 30
898.9459838867188
 11
750371.552
 21
4169055.412
 31
898.7319946289062
  0
LINE
  5
187
330
1F
100
AcDbEntity
  8
RUSTEMGALERISON
370
     0
100
AcDbLine
 10
750382.02
 20
4169051.457
 30
898.906005859375
 11
750384.5126884233
 21
4169051.280495344
 31
898.802978515625
  0
LINE
  5
188
330
1F
100
AcDbEntity
  8
RUSTEMGALERISON
370
     0
100
AcDbLine
 10
750384.5126884233
 20
4169051.280495344
 30
898.802978515625
 11
750386.859
 21
4169049.654
 31
898.72998046875
  0
LINE
  5
189
330
1F
100
AcDbEntity
  8
RUSTEMGALERISON
370
     0
100
AcDbLine
 10
750386.859
 20
4169049.654
 30
898.72998046875
 11
750386.938
 21
4169046.824
 31
898.7429809570312
  0
LINE
  5
18A
330
1F
100
AcDbEntity
  8
RUSTEMGALERISON
370
     0
100
AcDbLine
 10
750386.938
 20
4169046.824
 30
898.7429809570312
 11
750386.641
 21
4169043.876
 31
898.7559814453125
  0
LINE
  5
18B
330
1F
100
AcDbEntity
  8
RUSTEMGALERISON
370
     0
100
AcDbLine
 10
750386.641
 20
4169043.876
 30
898.7559814453125
 11
750385.639
 21
4169040.75
 31
899.14697265625
  0
LINE
  5
18C
330
1F
100
AcDbEntity
  8
RUSTEMGALERISON
370
     0
100
AcDbLine
 10
750385.639
 20
4169040.75
 30
899.14697265625
 11
750387.711
 21
4169040.343
 31
898.916015625
  0
LINE
  5
18D
330
1F
100
AcDbEntity
  8
RUSTEMGALERISON
370
     0
100
AcDbLine
 10
750387.711
 20
4169040.343
 30
898.916015625
 11
750389.16
 21
4169044.452
 31
898.6729736328125
  0
LINE
  5
18E
330
1F
100
AcDbEntity
  8
RUSTEMGALERISON
370
     0
100
AcDbLine
 10
750389.16
 20
4169044.452
 30
898.6729736328125
 11
750389.708
 21
4169047.094
 31
898.844970703125
  0
LINE
  5
18F
330
1F
100
AcDbEntity
  8
RUSTEMGALERISON
370
     0
100
AcDbLine
 10
750389.708
 20
4169047.094
 30
898.844970703125
 11
750390.825
 21
4169047.683
 31
898.7440185546875
  0
LINE
  5
190
330
1F
100
AcDbEntity
  8
RUSTEMGALERISON
370
     0
100
AcDbLine
 10
750390.825
 20
4169047.683
 30
898.7440185546875
 11
750399.35
 21
4169044.23
 31
898.9869995117188
  0
LINE
  5
191
330
1F
100
AcDbEntity
  8
RUSTEMGALERISON
370
     0
100
AcDbLine
 10
750399.35
 20
4169044.23
 30
898.9869995117188
 11
750399.74
 21
4169046.755
 31
898.8980102539062
  0
LINE
  5
192
330
1F
100
AcDbEntity
  8
RUSTEMGALERISON
370
     0
100
AcDbLine
 10
750399.74
 20
4169046.755
 30
898.8980102539062
 11
750393.756
 21
4169049.283
 31
899.0130004882812
  0
LINE
  5
193
330
1F
100
AcDbEntity
  8
RUSTEMGALERISON
370
     0
100
AcDbLine
 10
750393.756
 20
4169049.283
 30
899.0130004882812
 11
750387.4796454201
 21
4169052.715597398
 31
898.9099731445312
  0
LINE
  5
194
330
1F
100
AcDbEntity
  8
RUSTEMGALERISON
370
     0
100
AcDbLine
 10
750387.4796454201
 20
4169052.715597398
 30
898.9099731445312
 11
750385.756
 21
4169053.265
 31
899.02099609375
  0
LINE
  5
195
330
1F
100
AcDbEntity
  8
RUSTEMGALERISON
370
     0
100
AcDbLine
 10
750371.471
 20
4169058.379
 30
898.9390258789062
 11
750369.321
 21
4169058.567
 31
898.916015625
  0
LINE
  5
196
330
1F
100
AcDbEntity
  8
RUSTEMGALERISON
370
     0
100
AcDbLine
 10
750356.626
 20
4169038.267
 30
898.8410034179688
 11
750357.158
 21
4169040.126
 31
899.25
  0
LINE
  5
197
330
1F
100
AcDbEntity
  8
RUSTEMGALERISON
370
     0
100
AcDbLine
 10
750357.158
 20
4169040.126
 30
899.25
 11
750357.399
 21
4169043.276
 31
899.0020141601562
  0
LINE
  5
198
330
1F
100
AcDbEntity
  8
RUSTEMGALERISON
370
     0
100
AcDbLine
 10
750357.399
 20
4169043.276
 30
899.0020141601562
 11
750357.451
 21
4169046.409
 31
898.6719970703125
  0
LINE
  5
199
330
1F
100
AcDbEntity
  8
RUSTEMGALERISON
370
     0
100
AcDbLine
 10
750357.451
 20
4169046.409
 30
898.6719970703125
 11
750358.301
 21
4169052.655
 31
898.7050170898438
  0
LINE
  5
19A
330
1F
100
AcDbEntity
  8
RUSTEMGALERISON
370
     0
100
AcDbLine
 10
750350.759
 20
4169025.049
 30
898.2479858398438
 11
750351.134
 21
4169026.585
 31
898.8480224609375
  0
LINE
  5
19B
330
1F
100
AcDbEntity
  8
RUSTEMGALERISON
370
     0
100
AcDbLine
 10
750351.134
 20
4169026.585
 30
898.8480224609375
 11
750352.61
 21
4169032.664
 31
898.8369750976562
  0
LINE
  5
19C
330
1F
100
AcDbEntity
  8
RUSTEMGALERISON
370
     0
100
AcDbLine
 10
750352.42
 20
4169023.72
 30
898.448974609375
 11
750352.957
 21
4169026.221
 31
898.9730224609375
  0
LINE
  5
19D
330
1F
100
AcDbEntity
  8
RUSTEMGALERISON
370
     0
100
AcDbLine
 10
750352.957
 20
4169026.221
 30
898.9730224609375
 11
750354.618
 21
4169032.061
 31
898.781982421875
  0
LINE
  5
19E
330
1F
100
AcDbEntity
  8
RUSTEMGALERISON
370
     0
100
AcDbLine
 10
750337.35
 20
4169004.975
 30
898.510986328125
 11
750336.011
 21
4169004.157
 31
898.5679931640625
  0
LINE
  5
19F
330
1F
100
AcDbEntity
  8
RUSTEMGALERISON
370
     0
100
AcDbLine
 10
750336.011
 20
4169004.157
 30
898.5679931640625
 11
750334.449
 21
4169002.155
 31
898.7360229492188
  0
LINE
  5
1A0
330
1F
100
AcDbEntity
  8
RUSTEMGALERISON
370
     0
100
AcDbLine
 10
750339.226
 20
4169003.869
 30
898.5089721679688
 11
750337.784
 21
4169002.882
 31
898.5679931640625
  0
LINE
  5
1A1
330
1F
100
AcDbEntity
  8
RUSTEMGALERISON
370
     0
100
AcDbLine
 10
750337.784
 20
4169002.882
 30
898.5679931640625
 11
750336.498
 21
4169001.181
 31
898.47802734375
  0
LINE
  5
1A2
330
1F
100
AcDbEntity
  8
RUSTEMGALERISON
370
     0
100
AcDbLine
 10
750396.7045551167
 20
4169125.474004309
 30
897.333984375
 11
750393.454
 21
4169126.087
 31
897.9459838867188
  0
LINE
  5
1A3
330
1F
100
AcDbEntity
  8
RUSTEMGALERISON
370
     0
100
AcDbLine
 10
750354.929
 20
4169044.163
 30
899.0079956054688
 11
750355.234
 21
4169041.46
 31
899.1840209960938
  0
LINE
  5
1A4
330
1F
100
AcDbEntity
  8
RUSTEMGALERISON
370
     0
100
AcDbLine
 10
750355.234
 20
4169041.46
 30
899.1840209960938
 11
750354.574
 21
4169040.183
 31
898.7860107421875
  0
LINE
  5
1A5
330
1F
100
AcDbEntity
  8
RUSTEMGALERISON
370
     0
100
AcDbLine
 10
750354.574
 20
4169040.183
 30
898.7860107421875
 11
750353.722
 21
4169037.113
 31
898.85302734375
  0
LINE
  5
1A6
330
1F
100
AcDbEntity
  8
RUSTEMGALERISON
370
     0
100
AcDbLine
 10
750353.722
 20
4169037.113
 30
898.85302734375
 11
750352.61
 21
4169032.664
 31
898.8369750976562
  0
LINE
  5
1A7
330
1F
100
AcDbEntity
  8
RUSTEMGALERISON
370
     0
100
AcDbLine
 10
750361.9724902462
 20
4169058.44389207
 30
898.6810302734375
 11
750363.3601307933
 21
4169062.915292294
 31
898.97998046875
  0
LINE
  5
1A8
330
1F
100
AcDbEntity
  8
RUSTEMGALERISON
370
     0
100
AcDbLine
 10
750383.524
 20
4169111.278
 30
897.6500244140625
 11
750383.9560505578
 21
4169114.000822412
 31
897.989013671875
  0
LINE
  5
1A9
330
1F
100
AcDbEntity
  8
RUSTEMGALERISON
370
     0
100
AcDbLine
 10
750408.972
 20
4169202.487
 30
896.9669799804688
 11
750410.687
 21
4169204.634
 31
896.9819946289062
  0
LINE
  5
1AA
330
1F
100
AcDbEntity
  8
RUSTEMGALERISON
370
     0
100
AcDbLine
 10
750410.687
 20
4169204.634
 30
896.9819946289062
 11
750412.685
 21
4169204.683
 31
897.5339965820312
  0
LINE
  5
1AB
330
1F
100
AcDbEntity
  8
RUSTEMGALERISON
370
     0
100
AcDbLine
 10
750412.474
 20
4169207.739
 30
897.0650024414062
 11
750411.584
 21
4169208.337
 31
896.802978515625
  0
LINE
  5
1AC
330
1F
100
AcDbEntity
  8
RUSTEMGALERISON
370
     0
100
AcDbLine
 10
750411.584
 20
4169208.337
 30
896.802978515625
 11
750412.478
 21
4169212.625
 31
896.7849731445312
  0
LINE
  5
1AD
330
1F
100
AcDbEntity
  8
RUSTEMGALERISON
370
     0
100
AcDbLine
 10
750412.685
 20
4169204.683
 30
896.802978515625
 11
750415.9734396766
 21
4169205.640347958
 31
896.4869995117188
  0
LINE
  5
1AE
330
1F
100
AcDbEntity
  8
RUSTEMGALERISON
370
     0
100
AcDbLine
 10
750415.9734396766
 20
4169205.640347958
 30
896.4869995117188
 11
750421.5038748619
 21
4169207.700271787
 31
896.5460205078125
  0
LINE
  5
1AF
330
1F
100
AcDbEntity
  8
RUSTEMGALERISON
370
     0
100
AcDbLine
 10
750421.5038748619
 20
4169207.700271787
 30
896.5460205078125
 11
750420.3676737343
 21
4169209.5910942
 31
896.4000244140625
  0
LINE
  5
1B0
330
1F
100
AcDbEntity
  8
RUSTEMGALERISON
370
     0
100
AcDbLine
 10
750420.3676737343
 20
4169209.5910942
 30
896.4000244140625
 11
750415.9854257677
 21
4169208.291914684
 31
896.3280029296875
  0
LINE
  5
1B1
330
1F
100
AcDbEntity
  8
RUSTEMGALERISON
370
     0
100
AcDbLine
 10
750415.9854257677
 20
4169208.291914684
 30
896.3280029296875
 11
750412.474
 21
4169207.739
 31
896.802978515625
  0
LINE
  5
1B2
330
1F
100
AcDbEntity
  8
RUSTEMGALERISON
370
     0
100
AcDbLine
 10
750400.039
 20
4169191.358
 30
896.6170043945312
 11
750399.146
 21
4169190.775
 31
896.7680053710938
  0
LINE
  5
1B3
330
1F
100
AcDbEntity
  8
RUSTEMGALERISON
370
     0
100
AcDbLine
 10
750399.146
 20
4169190.775
 30
896.7680053710938
 11
750397.287
 21
4169191.079
 31
896.9210205078125
  0
LINE
  5
1B4
330
1F
100
AcDbEntity
  8
RUSTEMGALERISON
370
     0
100
AcDbLine
 10
750397.287
 20
4169191.079
 30
896.9210205078125
 11
750394.459
 21
4169191.171
 31
896.9320068359375
  0
LINE
  5
1B5
330
1F
100
AcDbEntity
  8
RUSTEMGALERISON
370
     0
100
AcDbLine
 10
750394.459
 20
4169191.171
 30
896.9320068359375
 11
750395.374
 21
4169196.229
 31
902.3800048828125
  0
LINE
  5
1B6
330
1F
100
AcDbEntity
  8
RUSTEMGALERISON
370
     0
100
AcDbLine
 10
750395.374
 20
4169196.229
 30
902.3800048828125
 11
750394.086
 21
4169196.496
 31
902.6900024414062
  0
LINE
  5
1B7
330
1F
100
AcDbEntity
  8
RUSTEMGALERISON
370
     0
100
AcDbLine
 10
750394.086
 20
4169196.496
 30
902.6900024414062
 11
750393.3690071899
 21
4169191.109013106
 31
896.9169921875
  0
LINE
  5
1B8
330
1F
100
AcDbEntity
  8
RUSTEMGALERISON
370
     0
100
AcDbLine
 10
750393.3690071899
 20
4169191.109013106
 30
896.9169921875
 11
750391.107
 21
4169189.989
 31
896.7680053710938
  0
LINE
  5
1B9
330
1F
100
AcDbEntity
  8
RUSTEMGALERISON
370
     0
100
AcDbLine
 10
750391.107
 20
4169189.989
 30
896.7680053710938
 11
750390.522
 21
4169189.284
 31
896.989013671875
  0
LINE
  5
1BA
330
1F
100
AcDbEntity
  8
RUSTEMGALERISON
370
     0
100
AcDbLine
 10
750390.522
 20
4169189.284
 30
896.989013671875
 11
750389.443
 21
4169186.545
 31
897.3519897460938
  0
LINE
  5
1BB
330
1F
100
AcDbEntity
  8
RUSTEMGALERISON
370
     0
100
AcDbLine
 10
750394.2434012624
 20
4169187.767961828
 30
896.9500122070312
 11
750395.231
 21
4169188.468
 31
896.7550048828125
  0
LINE
  5
1BC
330
1F
100
AcDbEntity
  8
RUSTEMGALERISON
370
     0
100
AcDbLine
 10
750395.231
 20
4169188.468
 30
896.7550048828125
 11
750397.253
 21
4169188.321
 31
896.926025390625
  0
LINE
  5
1BD
330
1F
100
AcDbEntity
  8
RUSTEMGALERISON
370
     0
100
AcDbLine
 10
750397.253
 20
4169188.321
 30
896.926025390625
 11
750396.883
 21
4169185.897
 31
897.0330200195312
  0
LINE
  5
1BE
330
1F
100
AcDbEntity
  8
RUSTEMGALERISON
370
     0
100
AcDbLine
 10
750479.098
 20
4169274.588
 30
895.6530151367188
 11
750473.798
 21
4169274.6
 31
895.5369873046875
  0
LINE
  5
1BF
330
1F
100
AcDbEntity
  8
RUSTEMGALERISON
370
     0
100
AcDbLine
 10
750549.289
 20
4169274.131
 30
894.7949829101562
 11
750554.631
 21
4169275.031
 31
894.7750244140625
  0
LINE
  5
1C0
330
1F
100
AcDbEntity
  8
RUSTEMGALERISON
370
     0
100
AcDbLine
 10
750549.017
 20
4169276.192
 30
894.8189697265625
 11
750534.17
 21
4169274.584
 31
895.0989990234375
  0
LINE
  5
1C1
330
1F
100
AcDbEntity
  8
RUSTEMGALERISON
370
     0
100
AcDbLine
 10
750549.289
 20
4169274.131
 30
894.7949829101562
 11
750554.631
 21
4169275.031
 31
894.7750244140625
  0
LINE
  5
1C2
330
1F
100
AcDbEntity
  8
RUSTEMGALERISON
370
     0
100
AcDbLine
 10
750394.502501955
 20
4169174.832507593
 30
896.9219970703125
 11
750392.841
 21
4169168.451
 31
897.0830078125
  0
LINE
  5
1C3
330
1F
100
AcDbEntity
  8
RUSTEMGALERISON
370
     0
100
AcDbLine
 10
750394.283
 20
4169178.956
 30
897.1649780273438
 11
750394.502501955
 21
4169174.832507593
 31
896.9219970703125
  0
LINE
  5
1C4
330
1F
100
AcDbEntity
  8
RUSTEMGALERISON
370
     0
100
AcDbLine
 10
750385.975
 20
4169122.073
 30
897.5960083007812
 11
750385.254
 21
4169119.52
 31
897.4340209960938
  0
LINE
  5
1C5
330
1F
100
AcDbEntity
  8
RUSTEMGALERISON
370
     0
100
AcDbLine
 10
750386.097
 20
4169181.996
 30
897.8289794921875
 11
750385.835
 21
4169178.736
 31
897.7540283203125
  0
LINE
  5
1C6
330
1F
100
AcDbEntity
  8
RUSTEMGALERISON
370
     0
100
AcDbLine
 10
750385.835
 20
4169178.736
 30
897.7540283203125
 11
750384.424
 21
4169178.744
 31
897.6680297851562
  0
LINE
  5
1C7
330
1F
100
AcDbEntity
  8
RUSTEMGALERISON
370
     0
100
AcDbLine
 10
750384.424
 20
4169178.744
 30
897.6680297851562
 11
750383.765
 21
4169180.212
 31
897.9199829101562
  0
LINE
  5
1C8
330
1F
100
AcDbEntity
  8
RUSTEMGALERISON
370
     0
100
AcDbLine
 10
750452.811
 20
4169311.638
 30
896.9000244140625
 11
750451.688
 21
4169309.067
 31
896.5800170898438
  0
LINE
  5
1C9
330
1F
100
AcDbEntity
  8
RUSTEMGALERISON
370
     0
100
AcDbLine
 10
750402.751
 20
4169119.515
 30
898.2579956054688
 11
750404.891
 21
4169120.145
 31
898.2000122070312
  0
LINE
  5
1CA
330
1F
100
AcDbEntity
  8
RUSTEMGALERISON
370
     0
100
AcDbLine
 10
750411.584
 20
4169208.337
 30
896.802978515625
 11
750412.478
 21
4169212.625
 31
896.7849731445312
  0
LINE
  5
1CB
330
1F
100
AcDbEntity
  8
RUSTEMGALERISON
370
     0
100
AcDbLine
 10
750396.2116466416
 20
4169172.55384272
 30
896.9314575195312
 11
750395.0761269663
 21
4169172.716666201
 31
896.5900268554688
  0
LINE
  5
1CC
330
1F
100
AcDbEntity
  8
RUSTEMGALERISON
370
     0
100
AcDbLine
 10
750395.0761269663
 20
4169172.716666201
 30
896.5900268554688
 11
750395.359
 21
4169174.198
 31
896.8419799804688
  0
LINE
  5
1CD
330
1F
100
AcDbEntity
  8
RUSTEMGALERISON
370
     0
100
AcDbLine
 10
750395.359
 20
4169174.198
 30
896.8419799804688
 11
750396.731116129
 21
4169174.407003718
 31
896.8400268554688
  0
LINE
  5
1CE
330
1F
100
AcDbEntity
  8
RUSTEMGALERISON
370
     0
100
AcDbLine
 10
750395.6231564819
 20
4169170.454456638
 30
897.0349731445312
 11
750396.2116466416
 21
4169172.55384272
 31
896.9314575195312
  0
LINE
  5
1CF
330
1F
100
AcDbEntity
  8
RUSTEMGALERISON
370
     0
100
AcDbLine
 10
750396.2116466416
 20
4169172.55384272
 30
896.9314575195312
 11
750396.731116129
 21
4169174.407003718
 31
896.8400268554688
  0
LINE
  5
1D0
330
1F
100
AcDbEntity
  8
RUSTEMGALERISON
370
     0
100
AcDbLine
 10
750320.8328308576
 20
4169041.869129827
 30
898.7999877929688
 11
750323.2331353526
 21
4169041.689916688
 31
898.7999877929688
  0
LINE
  5
1D1
330
1F
100
AcDbEntity
  8
RUSTEMGALERISON
370
     0
100
AcDbLine
 10
750323.2331353526
 20
4169041.689916688
 30
898.7999877929688
 11
750323.961
 21
4169044.957
 31
898.7999877929688
  0
LINE
  5
1D2
330
1F
100
AcDbEntity
  8
RUSTEMGALERISON
370
     0
100
AcDbLine
 10
750330.686
 20
4169053.517
 30
898.9290161132812
 11
750327.332
 21
4169051.188
 31
898.9249877929688
  0
LINE
  5
1D3
330
1F
100
AcDbEntity
  8
RUSTEMGALERISON
370
     0
100
AcDbLine
 10
750327.332
 20
4169051.188
 30
898.9249877929688
 11
750325.299
 21
4169050.324
 31
898.9089965820312
  0
LINE
  5
1D4
330
1F
100
AcDbEntity
  8
RUSTEMGALERISON
370
     0
100
AcDbLine
 10
750325.299
 20
4169050.324
 30
898.9089965820312
 11
750323.566
 21
4169050.699
 31
899.0230102539062
  0
LINE
  5
1D5
330
1F
100
AcDbEntity
  8
RUSTEMGALERISON
370
     0
100
AcDbLine
 10
750323.566
 20
4169050.699
 30
899.0230102539062
 11
750322.124
 21
4169049.568
 31
899.0440063476562
  0
LINE
  5
1D6
330
1F
100
AcDbEntity
  8
RUSTEMGALERISON
370
     0
100
AcDbLine
 10
750322.124
 20
4169049.568
 30
899.0440063476562
 11
750321.444
 21
4169047.275
 31
899.0889892578125
  0
LINE
  5
1D7
330
1F
100
AcDbEntity
  8
RUSTEMGALERISON
370
     0
100
AcDbLine
 10
750321.444
 20
4169047.275
 30
899.0889892578125
 11
750321.315
 21
4169045.288
 31
899.1110229492188
  0
LINE
  5
1D8
330
1F
100
AcDbEntity
  8
RUSTEMGALERISON
370
     0
100
AcDbLine
 10
750321.315
 20
4169045.288
 30
899.1110229492188
 11
750320.8328308576
 21
4169041.869129827
 31
898.7999877929688
  0
LINE
  5
1D9
330
1F
100
AcDbEntity
  8
RUSTEMGALERISON
370
     0
100
AcDbLine
 10
750323.961
 20
4169044.957
 30
898.7999877929688
 11
750325.524
 21
4169046.017
 31
898.9869995117188
  0
LINE
  5
1DA
330
1F
100
AcDbEntity
  8
RUSTEMGALERISON
370
     0
100
AcDbLine
 10
750325.524
 20
4169046.017
 30
898.9869995117188
 11
750326.338
 21
4169047.547
 31
898.9249877929688
  0
LINE
  5
1DB
330
1F
100
AcDbEntity
  8
RUSTEMGALERISON
370
     0
100
AcDbLine
 10
750326.338
 20
4169047.547
 30
898.9249877929688
 11
750326.828
 21
4169048.59
 31
898.9920043945312
  0
LINE
  5
1DC
330
1F
100
AcDbEntity
  8
RUSTEMGALERISON
370
     0
100
AcDbLine
 10
750326.828
 20
4169048.59
 30
898.9920043945312
 11
750328.956
 21
4169049.312
 31
898.97802734375
  0
LINE
  5
1DD
330
1F
100
AcDbEntity
  8
RUSTEMGALERISON
370
     0
100
AcDbLine
 10
750328.956
 20
4169049.312
 30
898.97802734375
 11
750331.5046673957
 21
4169051.609021768
 31
898.8870239257812
  0
LINE
  5
1DE
330
1F
100
AcDbEntity
  8
RUSTEMGALERISON
370
     0
100
AcDbLine
 10
750479.098
 20
4169274.588
 30
895.6530151367188
 11
750473.798
 21
4169274.6
 31
895.5369873046875
  0
LINE
  5
1DF
330
1F
100
AcDbEntity
  8
RUSTEMGALERISON
370
     0
100
AcDbLine
 10
750426.225
 20
4169262.316
 30
896.1389770507812
 11
750429.345
 21
4169265.062
 31
896.1010131835938
  0
LINE
  5
1E0
330
1F
100
AcDbEntity
  8
RUSTEMGALERISON
370
     0
100
AcDbLine
 10
750549.289
 20
4169274.131
 30
894.7949829101562
 11
750554.631
 21
4169275.031
 31
894.7750244140625
  0
LINE
  5
1E1
330
1F
100
AcDbEntity
  8
RUSTEMGALERISON
370
     0
100
AcDbLine
 10
750426.225
 20
4169262.316
 30
896.1389770507812
 11
750429.345
 21
4169265.062
 31
896.1010131835938
  0
LINE
  5
1E2
330
1F
100
AcDbEntity
  8
RUSTEMGALERISON
370
     0
100
AcDbLine
 10
750384.424
 20
4169178.744
 30
897.6680297851562
 11
750383.765
 21
4169180.212
 31
897.9199829101562
  0
LINE
  5
1E3
330
1F
100
AcDbEntity
  8
RUSTEMGALERISON
370
     0
100
AcDbLine
 10
750400.967
 20
4169120.679
 30
897.781005859375
 11
750402.751
 21
4169119.515
 31
898.2579956054688
  0
LINE
  5
1E4
330
1F
100
AcDbEntity
  8
RUSTEMGALERISON
370
     0
100
AcDbLine
 10
750402.751
 20
4169119.515
 30
898.2579956054688
 11
750404.891
 21
4169120.145
 31
898.2000122070312
  0
LINE
  5
1E5
330
1F
100
AcDbEntity
  8
RUSTEMGALERISON
370
     0
100
AcDbLine
 10
750411.584
 20
4169208.337
 30
896.802978515625
 11
750412.478
 21
4169212.625
 31
896.7849731445312
  0
LINE
  5
1E6
330
1F
100
AcDbEntity
  8
RUSTEMGALERISON
370
     0
100
AcDbLine
 10
750488.097
 20
4169274.134
 30
895.6699829101562
 11
750482.171
 21
4169274.177
 31
895.56201171875
  0
LINE
  5
1E7
330
1F
100
AcDbEntity
  8
RUSTEMGALERISON
370
     0
100
AcDbLine
 10
750479.098
 20
4169274.588
 30
895.6530151367188
 11
750473.798
 21
4169274.6
 31
895.5369873046875
  0
LINE
  5
1E8
330
1F
100
AcDbEntity
  8
RUSTEMGALERISON
370
     0
100
AcDbLine
 10
750434.537
 20
4169273.957
 30
895.844970703125
 11
750429.609
 21
4169267.959
 31
896.5579833984375
  0
LINE
  5
1E9
330
1F
100
AcDbEntity
  8
RUSTEMGALERISON
370
     0
100
AcDbLine
 10
750488.097
 20
4169274.134
 30
895.6699829101562
 11
750482.171
 21
4169274.177
 31
895.56201171875
  0
LINE
  5
1EA
330
1F
100
AcDbEntity
  8
RUSTEMGALERISON
370
     0
100
AcDbLine
 10
750479.098
 20
4169274.588
 30
895.6530151367188
 11
750473.798
 21
4169274.6
 31
895.5369873046875
  0
LINE
  5
1EB
330
1F
100
AcDbEntity
  8
RUSTEMGALERISON
370
     0
100
AcDbLine
 10
750394.283
 20
4169178.956
 30
897.1649780273438
 11
750394.502501955
 21
4169174.832507593
 31
896.9219970703125
  0
LINE
  5
1EC
330
1F
100
AcDbEntity
  8
RUSTEMGALERISON
370
     0
100
AcDbLine
 10
750430.893
 20
4169286.008
 30
896.2479858398438
 11
750433.111
 21
4169285.219
 31
896.0700073242188
  0
LINE
  5
1ED
330
1F
100
AcDbEntity
  8
RUSTEMGALERISON
370
     0
100
AcDbLine
 10
750385.975
 20
4169122.073
 30
897.5960083007812
 11
750385.254
 21
4169119.52
 31
897.4340209960938
  0
LINE
  5
1EE
330
1F
100
AcDbEntity
  8
RUSTEMGALERISON
370
     0
100
AcDbLine
 10
750385.835
 20
4169178.736
 30
897.7540283203125
 11
750384.424
 21
4169178.744
 31
897.6680297851562
  0
LINE
  5
1EF
330
1F
100
AcDbEntity
  8
RUSTEMGALERISON
370
     0
100
AcDbLine
 10
750384.424
 20
4169178.744
 30
897.6680297851562
 11
750383.765
 21
4169180.212
 31
897.9199829101562
  0
LINE
  5
1F0
330
1F
100
AcDbEntity
  8
RUSTEMGALERISON
370
     0
100
AcDbLine
 10
750413.5782158427
 20
4169249.329638941
 30
896.1840209960938
 11
750412.7926539895
 21
4169249.808859321
 31
896.1840209960938
  0
LINE
  5
1F1
330
1F
100
AcDbEntity
  8
RUSTEMGALERISON
370
     0
100
AcDbLine
 10
750376.645
 20
4169052.385
 30
899.1079711914062
 11
750378.878
 21
4169050.985
 31
899.0960083007812
  0
LINE
  5
1F2
330
1F
100
AcDbEntity
  8
RUSTEMGALERISON
370
     0
100
AcDbLine
 10
750378.878
 20
4169050.985
 30
899.0960083007812
 11
750381.409
 21
4169050.927
 31
899.1810302734375
  0
LINE
  5
1F3
330
1F
100
AcDbEntity
  8
RUSTEMGALERISON
370
     0
100
AcDbLine
 10
750381.409
 20
4169050.927
 30
899.1810302734375
 11
750382.02
 21
4169051.457
 31
898.906005859375
  0
LINE
  5
1F4
330
1F
100
AcDbEntity
  8
RUSTEMGALERISON
370
     0
100
AcDbLine
 10
750385.756
 20
4169053.265
 30
899.02099609375
 11
750383.57
 21
4169054.201
 31
898.9019775390625
  0
LINE
  5
1F5
330
1F
100
AcDbEntity
  8
RUSTEMGALERISON
370
     0
100
AcDbLine
 10
750380.769
 20
4169056.582
 30
898.9019775390625
 11
750377.4204971857
 21
4169056.936739833
 31
898.9019775390625
  0
LINE
  5
1F6
330
1F
100
AcDbEntity
  8
RUSTEMGALERISON
370
     0
100
AcDbLine
 10
750377.4204971857
 20
4169056.936739833
 30
898.9019775390625
 11
750375.781
 21
4169056.689
 31
898.9019775390625
  0
LINE
  5
1F7
330
1F
100
AcDbEntity
  8
RUSTEMGALERISON
370
     0
100
AcDbLine
 10
750375.781
 20
4169056.689
 30
898.9019775390625
 11
750373.371
 21
4169057.676
 31
898.8930053710938
  0
LINE
  5
1F8
330
1F
100
AcDbEntity
  8
RUSTEMGALERISON
370
     0
100
AcDbLine
 10
750373.371
 20
4169057.676
 30
898.8930053710938
 11
750371.471
 21
4169058.379
 31
898.9390258789062
  0
LINE
  5
1F9
330
1F
100
AcDbEntity
  8
RUSTEMGALERISON
370
     0
100
AcDbLine
 10
750383.57
 20
4169054.201
 30
898.9019775390625
 11
750382.391
 21
4169054.347
 31
898.9019775390625
  0
LINE
  5
1FA
330
1F
100
AcDbEntity
  8
RUSTEMGALERISON
370
     0
100
AcDbLine
 10
750382.391
 20
4169054.347
 30
898.9019775390625
 11
750380.769
 21
4169056.582
 31
898.9019775390625
  0
LINE
  5
1FB
330
1F
100
AcDbEntity
  8
RUSTEMGALERISON
370
     0
100
AcDbLine
 10
750371.552
 20
4169055.412
 30
898.7319946289062
 11
750374.532
 21
4169053.981
 31
898.989990234375
  0
LINE
  5
1FC
330
1F
100
AcDbEntity
  8
RUSTEMGALERISON
370
     0
100
AcDbLine
 10
750374.532
 20
4169053.981
 30
898.989990234375
 11
750376.645
 21
4169052.385
 31
899.1079711914062
  0
LINE
  5
1FD
330
1F
100
AcDbEntity
  8
RUSTEMGALERISON
370
     0
100
AcDbLine
 10
750458.214
 20
4169329.033
 30
897.072998046875
 11
750458.647
 21
4169329.742
 31
897.2659912109375
  0
LINE
  5
1FE
330
1F
100
AcDbEntity
  8
RUSTEMGALERISON
370
     0
100
AcDbLine
 10
750458.647
 20
4169329.742
 30
897.2659912109375
 11
750460.045
 21
4169331.215
 31
897.2319946289062
  0
LINE
  5
1FF
330
1F
100
AcDbEntity
  8
RUSTEMGALERISON
370
     0
100
AcDbLine
 10
750458.018
 20
4169332.751
 30
897.2030029296875
 11
750455.9280646608
 21
4169330.294438744
 31
896.9600219726562
  0
LINE
  5
200
330
1F
100
AcDbEntity
  8
RUSTEMGALERISON
370
     0
100
AcDbLine
 10
750460.045
 20
4169331.215
 30
897.2319946289062
 11
750462.284
 21
4169332.346
 31
897.2150268554688
  0
LINE
  5
201
330
1F
100
AcDbEntity
  8
RUSTEMGALERISON
370
     0
100
AcDbLine
 10
750462.284
 20
4169332.346
 30
897.2150268554688
 11
750464.372
 21
4169334.435
 31
897.2150268554688
  0
LINE
  5
202
330
1F
100
AcDbEntity
  8
RUSTEMGALERISON
370
     0
100
AcDbLine
 10
750464.372
 20
4169334.435
 30
897.2150268554688
 11
750464.956
 21
4169336.494
 31
897.2150268554688
  0
LINE
  5
203
330
1F
100
AcDbEntity
  8
RUSTEMGALERISON
370
     0
100
AcDbLine
 10
750464.956
 20
4169336.494
 30
897.2150268554688
 11
750462.615
 21
4169338.226
 31
897.2150268554688
  0
LINE
  5
204
330
1F
100
AcDbEntity
  8
RUSTEMGALERISON
370
     0
100
AcDbLine
 10
750462.615
 20
4169338.226
 30
897.2150268554688
 11
750459.872
 21
4169338.5
 31
897.2150268554688
  0
LINE
  5
205
330
1F
100
AcDbEntity
  8
RUSTEMGALERISON
370
     0
100
AcDbLine
 10
750459.872
 20
4169338.5
 30
897.2150268554688
 11
750459.193
 21
4169336.67
 31
897.2150268554688
  0
LINE
  5
206
330
1F
100
AcDbEntity
  8
RUSTEMGALERISON
370
     0
100
AcDbLine
 10
750459.193
 20
4169336.67
 30
897.2150268554688
 11
750458.894
 21
4169335.415
 31
897.2150268554688
  0
LINE
  5
207
330
1F
100
AcDbEntity
  8
RUSTEMGALERISON
370
     0
100
AcDbLine
 10
750458.894
 20
4169335.415
 30
897.2150268554688
 11
750458.018
 21
4169332.751
 31
897.2030029296875
  0
LINE
  5
208
330
1F
100
AcDbEntity
  8
RUSTEMGALERISON
370
     0
100
AcDbLine
 10
750350.185
 20
4169015.251
 30
898.3389892578125
 11
750351.025
 21
4169016.932
 31
898.676025390625
  0
LINE
  5
209
330
1F
100
AcDbEntity
  8
RUSTEMGALERISON
370
     0
100
AcDbLine
 10
750351.025
 20
4169016.932
 30
898.676025390625
 11
750352.188
 21
4169016.613
 31
898.781982421875
  0
LINE
  5
20A
330
1F
100
AcDbEntity
  8
RUSTEMGALERISON
370
     0
100
AcDbLine
 10
750352.188
 20
4169016.613
 30
898.781982421875
 11
750353.014
 21
4169015.885
 31
898.6599731445312
  0
LINE
  5
20B
330
1F
100
AcDbEntity
  8
RUSTEMGALERISON
370
     0
100
AcDbLine
 10
750353.014
 20
4169015.885
 30
898.6599731445312
 11
750353.756
 21
4169015.397
 31
898.6599731445312
  0
LINE
  5
20C
330
1F
100
AcDbEntity
  8
RUSTEMGALERISON
370
     0
100
AcDbLine
 10
750355.405
 20
4169017.336
 30
898.6599731445312
 11
750354.664
 21
4169018.089
 31
898.6599731445312
  0
LINE
  5
20D
330
1F
100
AcDbEntity
  8
RUSTEMGALERISON
370
     0
100
AcDbLine
 10
750354.664
 20
4169018.089
 30
898.6599731445312
 11
750353.441
 21
4169019.59
 31
898.64501953125
  0
LINE
  5
20E
330
1F
100
AcDbEntity
  8
RUSTEMGALERISON
370
     0
100
AcDbLine
 10
750353.441
 20
4169019.59
 30
898.64501953125
 11
750352.223
 21
4169021.695
 31
898.6829833984375
  0
LINE
  5
20F
330
1F
100
AcDbEntity
  8
RUSTEMGALERISON
370
     0
100
AcDbLine
 10
750352.223
 20
4169021.695
 30
898.6829833984375
 11
750352.42
 21
4169023.72
 31
898.448974609375
  0
LINE
  5
210
330
1F
100
AcDbEntity
  8
RUSTEMGALERISON
370
     0
100
AcDbLine
 10
750353.756
 20
4169015.397
 30
898.6599731445312
 11
750354.411
 21
4169014.654
 31
898.3709716796875
  0
LINE
  5
211
330
1F
100
AcDbEntity
  8
RUSTEMGALERISON
370
     0
100
AcDbLine
 10
750354.411
 20
4169014.654
 30
898.3709716796875
 11
750356.666
 21
4169012.154
 31
898.3709716796875
  0
LINE
  5
212
330
1F
100
AcDbEntity
  8
RUSTEMGALERISON
370
     0
100
AcDbLine
 10
750356.666
 20
4169012.154
 30
898.3709716796875
 11
750359.846
 21
4169008.313
 31
898.3709716796875
  0
LINE
  5
213
330
1F
100
AcDbEntity
  8
RUSTEMGALERISON
370
     0
100
AcDbLine
 10
750362.274
 20
4169009.796
 30
898.3709716796875
 11
750358.994
 21
4169013.556
 31
898.3709716796875
  0
LINE
  5
214
330
1F
100
AcDbEntity
  8
RUSTEMGALERISON
370
     0
100
AcDbLine
 10
750358.994
 20
4169013.556
 30
898.3709716796875
 11
750355.405
 21
4169017.336
 31
898.6599731445312
  0
LINE
  5
215
330
1F
100
AcDbEntity
  8
RUSTEMGALERISON
370
     0
100
AcDbLine
 10
750359.846
 20
4169008.313
 30
898.3709716796875
 11
750360.215
 21
4169006.064
 31
898.4099731445312
  0
LINE
  5
216
330
1F
100
AcDbEntity
  8
RUSTEMGALERISON
370
     0
100
AcDbLine
 10
750360.215
 20
4169006.064
 30
898.4099731445312
 11
750359.307
 21
4169004.719
 31
898.4099731445312
  0
LINE
  5
217
330
1F
100
AcDbEntity
  8
RUSTEMGALERISON
370
     0
100
AcDbLine
 10
750359.307
 20
4169004.719
 30
898.4099731445312
 11
750358.506
 21
4169003.312
 31
898.4099731445312
  0
LINE
  5
218
330
1F
100
AcDbEntity
  8
RUSTEMGALERISON
370
     0
100
AcDbLine
 10
750358.506
 20
4169003.312
 30
898.4099731445312
 11
750359.616
 21
4169002.101
 31
898.4099731445312
  0
LINE
  5
219
330
1F
100
AcDbEntity
  8
RUSTEMGALERISON
370
     0
100
AcDbLine
 10
750359.616
 20
4169002.101
 30
898.4099731445312
 11
750360.609
 21
4169001.693
 31
898.4099731445312
  0
LINE
  5
21A
330
1F
100
AcDbEntity
  8
RUSTEMGALERISON
370
     0
100
AcDbLine
 10
750360.609
 20
4169001.693
 30
898.4099731445312
 11
750362.182
 21
4169003.718
 31
898.4099731445312
  0
LINE
  5
21B
330
1F
100
AcDbEntity
  8
RUSTEMGALERISON
370
     0
100
AcDbLine
 10
750362.182
 20
4169003.718
 30
898.4099731445312
 11
750365.112
 21
4169005.566
 31
898.4099731445312
  0
LINE
  5
21C
330
1F
100
AcDbEntity
  8
RUSTEMGALERISON
370
     0
100
AcDbLine
 10
750365.112
 20
4169005.566
 30
898.4099731445312
 11
750365.319
 21
4169006.813
 31
898.4099731445312
  0
LINE
  5
21D
330
1F
100
AcDbEntity
  8
RUSTEMGALERISON
370
     0
100
AcDbLine
 10
750365.319
 20
4169006.813
 30
898.4099731445312
 11
750364.0
 21
4169007.799
 31
898.3709716796875
  0
LINE
  5
21E
330
1F
100
AcDbEntity
  8
RUSTEMGALERISON
370
     0
100
AcDbLine
 10
750364.0
 20
4169007.799
 30
898.3709716796875
 11
750362.274
 21
4169009.796
 31
898.3709716796875
  0
LINE
  5
21F
330
1F
100
AcDbEntity
  8
RUSTEMGALERISON
370
     0
100
AcDbLine
 10
750403.9460878402
 20
4169194.174285836
 30
897.239013671875
 11
750406.26
 21
4169196.808
 31
897.1010131835938
  0
POINT
  5
3C7
330
1F
100
AcDbEntity
  8
INIT_COORD
100
AcDbPoint
 10
750554.4815
 20
4169275.9735
 30
894.7929992675781
  0
ENDSEC
  0
SECTION
  2
OBJECTS
  0
DICTIONARY
  5
C
330
0
100
AcDbDictionary
281
     1
  3
ACAD_DETAILVIEWSTYLE
350
30E
  3
ACAD_GROUP
350
D
  3
ACAD_IMAGE_VARS
350
272
  3
ACAD_LAYOUT
350
1A
  3
ACAD_MATERIAL
350
3B
  3
ACAD_MLEADERSTYLE
350
241
  3
ACAD_MLINESTYLE
350
17
  3
ACAD_PLOTSETTINGS
350
19
  3
ACAD_PLOTSTYLENAME
350
E
  3
ACAD_SCALELIST
350
242
  3
ACAD_SECTIONVIEWSTYLE
350
30F
  3
ACAD_TABLESTYLE
350
240
  3
ACAD_VISUALSTYLE
350
2A
  3
ACDB_RECOMPOSE_DATA
350
3CC
  3
AcDbVariableDictionary
350
309
  3
APPDATA
350
270
  0
SUN
  5
271
330
29
100
AcDbSun
 90
        1
290
     0
 63
     7
421
 16777215
 40
1.0
291
     1
 91
  2455826
 92
 54000000
292
     0
 70
     2
 71
   256
280
     1
  0
DICTIONARY
  5
273
330
2
100
AcDbDictionary
280
     1
281
     1
  3
ACAD_LAYERSTATES
360
274
  3
ACLYDICTIONARY
360
360
  0
DICTIONARY
  5
30E
102
{ACAD_REACTORS
330
C
102
}
330
C
100
AcDbDictionary
281
     1
  0
DICTIONARY
  5
D
102
{ACAD_REACTORS
330
C
102
}
330
C
100
AcDbDictionary
281
     1
  0
RASTERVARIABLES
  5
272
102
{ACAD_REACTORS
330
C
102
}
330
C
100
AcDbRasterVariables
 90
        0
 70
     1
 71
     1
 72
     1
  0
DICTIONARY
  5
1A
102
{ACAD_REACTORS
330
C
102
}
330
C
100
AcDbDictionary
281
     1
  3
Layout1
350
1E
  3
Layout2
350
26
  3
Model
350
22
  0
DICTIONARY
  5
3B
102
{ACAD_REACTORS
330
C
102
}
330
C
100
AcDbDictionary
281
     1
  3
ByBlock
350
3D
  3
ByLayer
350
3C
  3
Global
350
3E
  0
DICTIONARY
  5
241
102
{ACAD_REACTORS
330
C
102
}
330
C
100
AcDbDictionary
281
     1
  3
Standard
350
26F
  0
DICTIONARY
  5
17
102
{ACAD_REACTORS
330
C
102
}
330
C
100
AcDbDictionary
281
     1
  3
Standard
350
18
  0
DICTIONARY
  5
19
102
{ACAD_REACTORS
330
C
102
}
330
C
100
AcDbDictionary
281
     1
  0
ACDBDICTIONARYWDFLT
  5
E
102
{ACAD_REACTORS
330
C
102
}
330
C
100
AcDbDictionary
281
     1
  3
Normal
350
F
100
AcDbDictionaryWithDefault
340
F
  0
DICTIONARY
  5
242
102
{ACAD_REACTORS
330
C
102
}
330
C
100
AcDbDictionary
281
     1
  3
A0
350
243
  3
A1
350
244
  3
A2
350
245
  3
A3
350
246
  3
A4
350
247
  3
A5
350
248
  3
A6
350
249
  3
A7
350
24A
  3
A8
350
24B
  3
A9
350
24C
  3
B0
350
24D
  3
B1
350
24E
  3
B2
350
24F
  3
B3
350
250
  3
B4
350
251
  3
B5
350
252
  3
B6
350
253
  3
B7
350
254
  3
B8
350
255
  3
B9
350
256
  3
C0
350
257
  3
C1
350
258
  3
C2
350
259
  3
C3
350
25A
  3
C4
350
25B
  3
C5
350
25C
  3
C6
350
25D
  3
C7
350
25E
  3
C8
350
25F
  3
C9
350
260
  3
D0
350
261
  3
D1
350
262
  3
D2
350
263
  0
DICTIONARY
  5
30F
102
{ACAD_REACTORS
330
C
102
}
330
C
100
AcDbDictionary
281
     1
  0
DICTIONARY
  5
240
102
{ACAD_REACTORS
330
C
102
}
330
C
100
AcDbDictionary
281
     1
  3
Standard
350
26E
  0
DICTIONARY
  5
2A
102
{ACAD_REACTORS
330
C
102
}
330
C
100
AcDbDictionary
281
     1
  3
2dWireframe
350
2F
  3
3D Hidden
350
31
  3
3dWireframe
350
30
  3
Basic
350
32
  3
Brighten
350
36
  3
ColorChange
350
3A
  3
Conceptual
350
34
  3
Dim
350
35
  3
EdgeColorOff
350
268
  3
Facepattern
350
39
  3
Flat
350
2B
  3
FlatWithEdges
350
2C
  3
Gouraud
350
2D
  3
GouraudWithEdges
350
2E
  3
Hidden
350
265
  3
JitterOff
350
266
  3
Linepattern
350
38
  3
OverhangOff
350
267
  3
Realistic
350
33
  3
Shaded
350
26D
  3
Shaded with edges
350
26C
  3
Shades of Gray
350
269
  3
Sketchy
350
26A
  3
Thicken
350
37
  3
Wireframe
350
264
  3
X-Ray
350
26B
  0
XRECORD
  5
3CC
102
{ACAD_REACTORS
330
C
102
}
330
C
100
AcDbXrecord
280
     1
 90
        1
330
26E
  0
DICTIONARY
  5
309
102
{ACAD_REACTORS
330
C
102
}
330
C
100
AcDbDictionary
281
     1
  3
CANNOSCALE
350
30A
  3
CMLEADERSTYLE
350
30C
  3
CTABLESTYLE
350
30B
  3
XCLIPFRAME
350
30D
  0
DICTIONARY
  5
270
102
{ACAD_REACTORS
330
C
102
}
330
C
100
AcDbDictionary
281
     1
  0
DICTIONARY
  5
274
102
{ACAD_REACTORS
330
273
102
}
330
273
100
AcDbDictionary
281
     1
  0
DICTIONARY
  5
360
102
{ACAD_REACTORS
330
273
102
}
330
273
100
AcDbDictionary
281
     1
1001
ACAD
1000
<All
  0
LAYOUT
  5
1E
102
{ACAD_REACTORS
330
1A
102
}
330
1A
100
AcDbPlotSettings
  1

  2
none_device
  4

  6

 40
0.0
 41
0.0
 42
0.0
 43
0.0
 44
0.0
 45
0.0
 46
0.0
 47
0.0
 48
0.0
 49
0.0
140
0.0
141
0.0
142
1.0
143
1.0
 70
   688
 72
     0
 73
     0
 74
     5
  7

 75
    16
 76
     0
 77
     2
 78
   300
147
1.0
148
0.0
149
0.0
100
AcDbLayout
  1
Layout1
 70
     1
 71
     1
 10
0.0
 20
0.0
 11
420.0
 21
297.0
 12
0.0
 22
0.0
 32
0.0
 14
1.000000000000000E+20
 24
1.000000000000000E+20
 34
1.000000000000000E+20
 15
-1.000000000000000E+20
 25
-1.000000000000000E+20
 35
-1.000000000000000E+20
146
0.0
 13
0.0
 23
0.0
 33
0.0
 16
1.0
 26
0.0
 36
0.0
 17
0.0
 27
1.0
 37
0.0
 76
     0
330
1B
  0
LAYOUT
  5
26
102
{ACAD_REACTORS
330
1A
102
}
330
1A
100
AcDbPlotSettings
  1

  2
none_device
  4

  6

 40
0.0
 41
0.0
 42
0.0
 43
0.0
 44
0.0
 45
0.0
 46
0.0
 47
0.0
 48
0.0
 49
0.0
140
0.0
141
0.0
142
1.0
143
1.0
 70
   688
 72
     0
 73
     0
 74
     5
  7

 75
    16
 76
     0
 77
     2
 78
   300
147
1.0
148
0.0
149
0.0
100
AcDbLayout
  1
Layout2
 70
     1
 71
     2
 10
0.0
 20
0.0
 11
0.0
 21
0.0
 12
0.0
 22
0.0
 32
0.0
 14
0.0
 24
0.0
 34
0.0
 15
0.0
 25
0.0
 35
0.0
146
0.0
 13
0.0
 23
0.0
 33
0.0
 16
1.0
 26
0.0
 36
0.0
 17
0.0
 27
1.0
 37
0.0
 76
     0
330
23
  0
LAYOUT
  5
22
102
{ACAD_REACTORS
330
1A
102
}
330
1A
100
AcDbPlotSettings
  1

  2
none_device
  4

  6

 40
0.0
 41
0.0
 42
0.0
 43
0.0
 44
0.0
 45
0.0
 46
0.0
 47
0.0
 48
0.0
 49
0.0
140
0.0
141
0.0
142
1.0
143
1.0
 70
  1712
 72
     0
 73
     0
 74
     0
  7

 75
     0
 76
     0
 77
     2
 78
   300
147
1.0
148
0.0
149
0.0
100
AcDbLayout
  1
Model
 70
     1
 71
     0
 10
0.0
 20
0.0
 11
420.0
 21
297.0
 12
0.0
 22
0.0
 32
0.0
 14
750318.9689743726
 24
4168988.827056866
 34
763.2519464186478
 15
750556.6109823866
 25
4169344.4325113
 35
1024.131401992455
146
0.0
 13
0.0
 23
0.0
 33
0.0
 16
1.0
 26
0.0
 36
0.0
 17
0.0
 27
1.0
 37
0.0
 76
     0
330
1F
331
29
  0
MATERIAL
  5
3D
102
{ACAD_REACTORS
330
3B
102
}
330
3B
100
AcDbMaterial
  1
ByBlock
 72
     1
 94
      127
  0
MATERIAL
  5
3C
102
{ACAD_REACTORS
330
3B
102
}
330
3B
100
AcDbMaterial
  1
ByLayer
 72
     1
 94
      127
  0
MATERIAL
  5
3E
102
{ACAD_REACTORS
330
3B
102
}
330
3B
100
AcDbMaterial
  1
Global
 72
     1
 94
      127
  0
MLEADERSTYLE
  5
26F
102
{ACAD_REACTORS
330
241
102
}
330
241
100
AcDbMLeaderStyle
179
     2
170
     2
171
     1
172
     0
 90
        2
 40
0.0
 41
0.0
173
     1
 91
-1056964608
340
14
 92
       -2
290
     1
 42
2.0
291
     1
 43
8.0
  3
Standard
341
0
 44
4.0
300

342
11
174
     1
178
     1
175
     1
176
     0
 93
-1056964608
 45
4.0
292
     0
297
     0
 46
4.0
343
0
 94
-1056964608
 47
1.0
 49
1.0
140
1.0
293
     1
141
0.0
294
     1
177
     0
142
1.0
295
     0
296
     0
143
3.75
271
     0
272
     9
273
     9
  0
MLINESTYLE
  5
18
102
{ACAD_REACTORS
330
17
102
}
330
17
100
AcDbMlineStyle
  2
Standard
 70
     0
  3

 62
   256
 51
90.0
 52
90.0
 71
     2
 49
0.5
 62
   256
  6
BYLAYER
 49
-0.5
 62
   256
  6
BYLAYER
  0
ACDBPLACEHOLDER
  5
F
102
{ACAD_REACTORS
330
E
102
}
330
E
  0
SCALE
  5
243
102
{ACAD_REACTORS
330
242
102
}
330
242
100
AcDbScale
 70
     0
300
1:1
140
1.0
141
1.0
290
     1
  0
SCALE
  5
244
102
{ACAD_REACTORS
330
242
102
}
330
242
100
AcDbScale
 70
     0
300
1:2
140
1.0
141
2.0
290
     0
  0
SCALE
  5
245
102
{ACAD_REACTORS
330
242
102
}
330
242
100
AcDbScale
 70
     0
300
1:4
140
1.0
141
4.0
290
     0
  0
SCALE
  5
246
102
{ACAD_REACTORS
330
242
102
}
330
242
100
AcDbScale
 70
     0
300
1:5
140
1.0
141
5.0
290
     0
  0
SCALE
  5
247
102
{ACAD_REACTORS
330
242
102
}
330
242
100
AcDbScale
 70
     0
300
1:8
140
1.0
141
8.0
290
     0
  0
SCALE
  5
248
102
{ACAD_REACTORS
330
242
102
}
330
242
100
AcDbScale
 70
     0
300
1:10
140
1.0
141
10.0
290
     0
  0
SCALE
  5
249
102
{ACAD_REACTORS
330
242
102
}
330
242
100
AcDbScale
 70
     0
300
1:16
140
1.0
141
16.0
290
     0
  0
SCALE
  5
24A
102
{ACAD_REACTORS
330
242
102
}
330
242
100
AcDbScale
 70
     0
300
1:20
140
1.0
141
20.0
290
     0
  0
SCALE
  5
24B
102
{ACAD_REACTORS
330
242
102
}
330
242
100
AcDbScale
 70
     0
300
1:30
140
1.0
141
30.0
290
     0
  0
SCALE
  5
24C
102
{ACAD_REACTORS
330
242
102
}
330
242
100
AcDbScale
 70
     0
300
1:40
140
1.0
141
40.0
290
     0
  0
SCALE
  5
24D
102
{ACAD_REACTORS
330
242
102
}
330
242
100
AcDbScale
 70
     0
300
1:50
140
1.0
141
50.0
290
     0
  0
SCALE
  5
24E
102
{ACAD_REACTORS
330
242
102
}
330
242
100
AcDbScale
 70
     0
300
1:100
140
1.0
141
100.0
290
     0
  0
SCALE
  5
24F
102
{ACAD_REACTORS
330
242
102
}
330
242
100
AcDbScale
 70
     0
300
2:1
140
2.0
141
1.0
290
     0
  0
SCALE
  5
250
102
{ACAD_REACTORS
330
242
102
}
330
242
100
AcDbScale
 70
     0
300
4:1
140
4.0
141
1.0
290
     0
  0
SCALE
  5
251
102
{ACAD_REACTORS
330
242
102
}
330
242
100
AcDbScale
 70
     0
300
8:1
140
8.0
141
1.0
290
     0
  0
SCALE
  5
252
102
{ACAD_REACTORS
330
242
102
}
330
242
100
AcDbScale
 70
     0
300
10:1
140
10.0
141
1.0
290
     0
  0
SCALE
  5
253
102
{ACAD_REACTORS
330
242
102
}
330
242
100
AcDbScale
 70
     0
300
100:1
140
100.0
141
1.0
290
     0
  0
SCALE
  5
254
102
{ACAD_REACTORS
330
242
102
}
330
242
100
AcDbScale
 70
     0
300
1/128" = 1'-0"
140
0.0078125
141
12.0
290
     0
  0
SCALE
  5
255
102
{ACAD_REACTORS
330
242
102
}
330
242
100
AcDbScale
 70
     0
300
1/64" = 1'-0"
140
0.015625
141
12.0
290
     0
  0
SCALE
  5
256
102
{ACAD_REACTORS
330
242
102
}
330
242
100
AcDbScale
 70
     0
300
1/32" = 1'-0"
140
0.03125
141
12.0
290
     0
  0
SCALE
  5
257
102
{ACAD_REACTORS
330
242
102
}
330
242
100
AcDbScale
 70
     0
300
1/16" = 1'-0"
140
0.0625
141
12.0
290
     0
  0
SCALE
  5
258
102
{ACAD_REACTORS
330
242
102
}
330
242
100
AcDbScale
 70
     0
300
3/32" = 1'-0"
140
0.09375
141
12.0
290
     0
  0
SCALE
  5
259
102
{ACAD_REACTORS
330
242
102
}
330
242
100
AcDbScale
 70
     0
300
1/8" = 1'-0"
140
0.125
141
12.0
290
     0
  0
SCALE
  5
25A
102
{ACAD_REACTORS
330
242
102
}
330
242
100
AcDbScale
 70
     0
300
3/16" = 1'-0"
140
0.1875
141
12.0
290
     0
  0
SCALE
  5
25B
102
{ACAD_REACTORS
330
242
102
}
330
242
100
AcDbScale
 70
     0
300
1/4" = 1'-0"
140
0.25
141
12.0
290
     0
  0
SCALE
  5
25C
102
{ACAD_REACTORS
330
242
102
}
330
242
100
AcDbScale
 70
     0
300
3/8" = 1'-0"
140
0.375
141
12.0
290
     0
  0
SCALE
  5
25D
102
{ACAD_REACTORS
330
242
102
}
330
242
100
AcDbScale
 70
     0
300
1/2" = 1'-0"
140
0.5
141
12.0
290
     0
  0
SCALE
  5
25E
102
{ACAD_REACTORS
330
242
102
}
330
242
100
AcDbScale
 70
     0
300
3/4" = 1'-0"
140
0.75
141
12.0
290
     0
  0
SCALE
  5
25F
102
{ACAD_REACTORS
330
242
102
}
330
242
100
AcDbScale
 70
     0
300
1" = 1'-0"
140
1.0
141
12.0
290
     0
  0
SCALE
  5
260
102
{ACAD_REACTORS
330
242
102
}
330
242
100
AcDbScale
 70
     0
300
1-1/2" = 1'-0"
140
1.5
141
12.0
290
     0
  0
SCALE
  5
261
102
{ACAD_REACTORS
330
242
102
}
330
242
100
AcDbScale
 70
     0
300
3" = 1'-0"
140
3.0
141
12.0
290
     0
  0
SCALE
  5
262
102
{ACAD_REACTORS
330
242
102
}
330
242
100
AcDbScale
 70
     0
300
6" = 1'-0"
140
6.0
141
12.0
290
     0
  0
SCALE
  5
263
102
{ACAD_REACTORS
330
242
102
}
330
242
100
AcDbScale
 70
     0
300
1'-0" = 1'-0"
140
12.0
141
12.0
290
     0
  0
TABLESTYLE
  5
26E
102
{ACAD_REACTORS
330
240
102
}
102
{ACAD_XDICTIONARY
360
3CA
102
}
330
240
100
AcDbTableStyle
  3
Standard
 70
     0
 71
     0
 40
1.5
 41
1.5
280
     0
281
     0
  7
Standard
140
4.5
170
     2
 62
     0
 63
   257
283
     0
 90
        4
 91
        0
  1

274
    -2
284
     1
 64
     0
275
    -2
285
     1
 65
     0
276
    -2
286
     1
 66
     0
277
    -2
287
     1
 67
     0
278
    -2
288
     1
 68
     0
279
    -2
289
     1
 69
     0
  7
Standard
140
6.0
170
     5
 62
     0
 63
   257
283
     0
 90
        4
 91
        0
  1

274
    -2
284
     1
 64
     0
275
    -2
285
     1
 65
     0
276
    -2
286
     1
 66
     0
277
    -2
287
     1
 67
     0
278
    -2
288
     1
 68
     0
279
    -2
289
     1
 69
     0
  7
Standard
140
4.5
170
     5
 62
     0
 63
   257
283
     0
 90
        4
 91
        0
  1

274
    -2
284
     1
 64
     0
275
    -2
285
     1
 65
     0
276
    -2
286
     1
 66
     0
277
    -2
287
     1
 67
     0
278
    -2
288
     1
 68
     0
279
    -2
289
     1
 69
     0
  0
VISUALSTYLE
  5
2F
102
{ACAD_REACTORS
330
2A
102
}
330
2A
100
AcDbVisualStyle
  2
2dWireframe
 70
     4
177
     2
291
     0
 71
     0
176
     1
 72
     2
176
     1
 73
     0
176
     1
 90
        0
176
     1
 40
-0.6
176
     1
 41
-30.0
176
     1
 62
     5
 63
     7
421
 16777215
176
     1
 74
     1
176
     1
 91
        4
176
     1
 64
     7
176
     1
 65
   257
176
     1
 75
     1
176
     1
175
     1
176
     1
 42
1.0
176
     1
 92
        0
176
     1
 66
   257
176
     1
 43
1.0
176
     1
 76
     1
176
     1
 77
     6
176
     1
 78
     2
176
     1
 67
     7
176
     1
 79
     5
176
     1
170
     0
176
     1
171
     0
176
     1
290
     0
176
     1
 93
        1
176
     1
 44
0.0
176
     1
173
     0
176
     1
  0
VISUALSTYLE
  5
31
102
{ACAD_REACTORS
330
2A
102
}
330
2A
100
AcDbVisualStyle
  2
3D Hidden
 70
     6
177
     2
291
     0
 71
     1
176
     1
 72
     2
176
     1
 73
     2
176
     1
 90
        0
176
     1
 40
-0.6
176
     1
 41
-30.0
176
     1
 62
     5
 63
     7
421
 16777215
176
     1
 74
     2
176
     1
 91
        2
176
     1
 64
     7
176
     1
 65
   257
176
     1
 75
     2
176
     1
175
     1
176
     1
 42
40.0
176
     1
 92
        0
176
     1
 66
   257
176
     1
 43
1.0
176
     1
 76
     1
176
     1
 77
     6
176
     1
 78
     2
176
     1
 67
     7
176
     1
 79
     3
176
     1
170
     0
176
     1
171
     0
176
     1
290
     0
176
     1
 93
        1
176
     1
 44
0.0
176
     1
173
     0
176
     1
  0
VISUALSTYLE
  5
30
102
{ACAD_REACTORS
330
2A
102
}
330
2A
100
AcDbVisualStyle
  2
3dWireframe
 70
     5
177
     2
291
     0
 71
     0
176
     1
 72
     2
176
     1
 73
     0
176
     1
 90
        0
176
     1
 40
-0.6
176
     1
 41
-30.0
176
     1
 62
     5
 63
     7
421
 16777215
176
     1
 74
     1
176
     1
 91
        4
176
     1
 64
     7
176
     1
 65
   257
176
     1
 75
     1
176
     1
175
     1
176
     1
 42
1.0
176
     1
 92
        0
176
     1
 66
   257
176
     1
 43
1.0
176
     1
 76
     1
176
     1
 77
     6
176
     1
 78
     2
176
     1
 67
     7
176
     1
 79
     5
176
     1
170
     0
176
     1
171
     0
176
     1
290
     0
176
     1
 93
        1
176
     1
 44
0.0
176
     1
173
     0
176
     1
  0
VISUALSTYLE
  5
32
102
{ACAD_REACTORS
330
2A
102
}
330
2A
100
AcDbVisualStyle
  2
Basic
 70
     7
177
     2
291
     1
 71
     1
176
     1
 72
     0
176
     1
 73
     1
176
     1
 90
        0
176
     1
 40
-0.6
176
     1
 41
-30.0
176
     1
 62
     5
 63
     7
421
 16777215
176
     1
 74
     0
176
     1
 91
        4
176
     1
 64
     7
176
     1
 65
   257
176
     1
 75
     1
176
     1
175
     1
176
     1
 42
1.0
176
     1
 92
        8
176
     1
 66
     7
176
     1
 43
1.0
176
     1
 76
     1
176
     1
 77
     6
176
     1
 78
     2
176
     1
 67
     7
176
     1
 79
     5
176
     1
170
     0
176
     1
171
     0
176
     1
290
     0
176
     1
 93
        1
176
     1
 44
0.0
176
     1
173
     0
176
     1
  0
VISUALSTYLE
  5
36
102
{ACAD_REACTORS
330
2A
102
}
330
2A
100
AcDbVisualStyle
  2
Brighten
 70
    12
177
     2
291
     1
 71
     2
176
     1
 72
     2
176
     1
 73
     0
176
     1
 90
        0
176
     1
 40
-0.6
176
     1
 41
-30.0
176
     1
 62
     5
 63
     7
421
 16777215
176
     1
 74
     1
176
     1
 91
        4
176
     1
 64
     7
176
     1
 65
   257
176
     1
 75
     1
176
     1
175
     1
176
     1
 42
1.0
176
     1
 92
        8
176
     1
 66
     7
176
     1
 43
1.0
176
     1
 76
     1
176
     1
 77
     6
176
     1
 78
     2
176
     1
 67
     7
176
     1
 79
     5
176
     1
170
     0
176
     1
171
     0
176
     1
290
     0
176
     1
 93
        1
176
     1
 44
50.0
176
     1
173
     0
176
     1
  0
VISUALSTYLE
  5
3A
102
{ACAD_REACTORS
330
2A
102
}
330
2A
100
AcDbVisualStyle
  2
ColorChange
 70
    16
177
     2
291
     1
 71
     2
176
     1
 72
     2
176
     1
 73
     3
176
     1
 90
        0
176
     1
 40
-0.6
176
     1
 41
-30.0
176
     1
 62
     5
 63
     8
421
  8421504
176
     1
 74
     1
176
     1
 91
        4
176
     1
 64
     7
176
     1
 65
   257
176
     1
 75
     1
176
     1
175
     1
176
     1
 42
1.0
176
     1
 92
        8
176
     1
 66
     8
424
  8421504
176
     1
 43
1.0
176
     1
 76
     1
176
     1
 77
     6
176
     1
 78
     2
176
     1
 67
     7
176
     1
 79
     5
176
     1
170
     0
176
     1
171
     0
176
     1
290
     0
176
     1
 93
        1
176
     1
 44
0.0
176
     1
173
     0
176
     1
  0
VISUALSTYLE
  5
34
102
{ACAD_REACTORS
330
2A
102
}
330
2A
100
AcDbVisualStyle
  2
Conceptual
 70
     9
177
     2
291
     0
 71
     3
176
     1
 72
     2
176
     1
 73
     0
176
     1
 90
        0
176
     1
 40
-0.6
176
     1
 41
-30.0
176
     1
 62
     5
 63
     7
421
 16777215
176
     1
 74
     2
176
     1
 91
        2
176
     1
 64
     7
176
     1
 65
   257
176
     1
 75
     1
176
     1
175
     1
176
     1
 42
40.0
176
     1
 92
        8
176
     1
 66
     7
176
     1
 43
1.0
176
     1
 76
     1
176
     1
 77
     6
176
     1
 78
     2
176
     1
 67
     7
176
     1
 79
     3
176
     1
170
     0
176
     1
171
     0
176
     1
290
     0
176
     1
 93
        1
176
     1
 44
0.0
176
     1
173
     0
176
     1
  0
VISUALSTYLE
  5
35
102
{ACAD_REACTORS
330
2A
102
}
330
2A
100
AcDbVisualStyle
  2
Dim
 70
    11
177
     2
291
     1
 71
     2
176
     1
 72
     2
176
     1
 73
     0
176
     1
 90
        0
176
     1
 40
-0.6
176
     1
 41
-30.0
176
     1
 62
     5
 63
     7
421
 16777215
176
     1
 74
     1
176
     1
 91
        4
176
     1
 64
     7
176
     1
 65
   257
176
     1
 75
     1
176
     1
175
     1
176
     1
 42
1.0
176
     1
 92
        8
176
     1
 66
     7
176
     1
 43
1.0
176
     1
 76
     1
176
     1
 77
     6
176
     1
 78
     2
176
     1
 67
     7
176
     1
 79
     5
176
     1
170
     0
176
     1
171
     0
176
     1
290
     0
176
     1
 93
        1
176
     1
 44
-50.0
176
     1
173
     0
176
     1
  0
VISUALSTYLE
  5
268
102
{ACAD_REACTORS
330
2A
102
}
330
2A
100
AcDbVisualStyle
  2
EdgeColorOff
 70
    22
177
     2
291
     1
 71
     2
176
     0
 72
     2
176
     0
 73
     0
176
     0
 90
        0
176
     0
 40
0.6
176
     0
 41
30.0
176
     0
 62
     5
 63
     7
421
 16777215
176
     0
 74
     1
176
     0
 91
        4
176
     0
 64
     7
176
     0
 65
   257
176
     0
 75
     1
176
     0
175
     1
176
     0
 42
1.0
176
     0
 92
        8
176
     2
 66
     7
176
     0
 43
1.0
176
     0
 76
     1
176
     0
 77
     6
176
     0
 78
     2
176
     0
 67
     7
176
     0
 79
     5
176
     0
170
     0
176
     0
171
     0
176
     0
290
     0
176
     0
 93
        1
176
     0
 44
0.0
176
     0
173
     0
176
     0
  0
VISUALSTYLE
  5
39
102
{ACAD_REACTORS
330
2A
102
}
330
2A
100
AcDbVisualStyle
  2
Facepattern
 70
    15
177
     2
291
     1
 71
     2
176
     1
 72
     2
176
     1
 73
     0
176
     1
 90
        0
176
     1
 40
-0.6
176
     1
 41
-30.0
176
     1
 62
     5
 63
     7
421
 16777215
176
     1
 74
     1
176
     1
 91
        4
176
     1
 64
     7
176
     1
 65
   257
176
     1
 75
     1
176
     1
175
     1
176
     1
 42
1.0
176
     1
 92
        8
176
     1
 66
     7
176
     1
 43
1.0
176
     1
 76
     1
176
     1
 77
     6
176
     1
 78
     2
176
     1
 67
     7
176
     1
 79
     5
176
     1
170
     0
176
     1
171
     0
176
     1
290
     0
176
     1
 93
        1
176
     1
 44
0.0
176
     1
173
     0
176
     1
  0
VISUALSTYLE
  5
2B
102
{ACAD_REACTORS
330
2A
102
}
330
2A
100
AcDbVisualStyle
  2
Flat
 70
     0
177
     2
291
     1
 71
     2
176
     1
 72
     1
176
     1
 73
     1
176
     1
 90
        2
176
     1
 40
-0.6
176
     1
 41
30.0
176
     1
 62
     5
 63
     7
421
 16777215
176
     1
 74
     0
176
     1
 91
        4
176
     1
 64
     7
176
     1
 65
   257
176
     1
 75
     1
176
     1
175
     1
176
     1
 42
1.0
176
     1
 92
        8
176
     1
 66
     7
176
     1
 43
1.0
176
     1
 76
     1
176
     1
 77
     6
176
     1
 78
     2
176
     1
 67
     7
176
     1
 79
     5
176
     1
170
     0
176
     1
171
     0
176
     1
290
     0
176
     1
 93
       13
176
     1
 44
0.0
176
     1
173
     0
176
     1
  0
VISUALSTYLE
  5
2C
102
{ACAD_REACTORS
330
2A
102
}
330
2A
100
AcDbVisualStyle
  2
FlatWithEdges
 70
     1
177
     2
291
     1
 71
     2
176
     1
 72
     1
176
     1
 73
     1
176
     1
 90
        2
176
     1
 40
-0.6
176
     1
 41
30.0
176
     1
 62
     5
 63
     7
421
 16777215
176
     1
 74
     1
176
     1
 91
        4
176
     1
 64
     7
176
     1
 65
   257
176
     1
 75
     1
176
     1
175
     1
176
     1
 42
1.0
176
     1
 92
        0
176
     1
 66
   257
176
     1
 43
1.0
176
     1
 76
     1
176
     1
 77
     6
176
     1
 78
     2
176
     1
 67
     7
176
     1
 79
     5
176
     1
170
     0
176
     1
171
     0
176
     1
290
     0
176
     1
 93
       13
176
     1
 44
0.0
176
     1
173
     0
176
     1
  0
VISUALSTYLE
  5
2D
102
{ACAD_REACTORS
330
2A
102
}
330
2A
100
AcDbVisualStyle
  2
Gouraud
 70
     2
177
     2
291
     1
 71
     2
176
     1
 72
     2
176
     1
 73
     1
176
     1
 90
        2
176
     1
 40
-0.6
176
     1
 41
30.0
176
     1
 62
     5
 63
     7
421
 16777215
176
     1
 74
     0
176
     1
 91
        4
176
     1
 64
     7
176
     1
 65
   257
176
     1
 75
     1
176
     1
175
     1
176
     1
 42
1.0
176
     1
 92
        0
176
     1
 66
     7
176
     1
 43
1.0
176
     1
 76
     1
176
     1
 77
     6
176
     1
 78
     2
176
     1
 67
     7
176
     1
 79
     5
176
     1
170
     0
176
     1
171
     0
176
     1
290
     0
176
     1
 93
       13
176
     1
 44
0.0
176
     1
173
     0
176
     1
  0
VISUALSTYLE
  5
2E
102
{ACAD_REACTORS
330
2A
102
}
330
2A
100
AcDbVisualStyle
  2
GouraudWithEdges
 70
     3
177
     2
291
     1
 71
     2
176
     1
 72
     2
176
     1
 73
     1
176
     1
 90
        2
176
     1
 40
-0.6
176
     1
 41
30.0
176
     1
 62
     5
 63
     7
421
 16777215
176
     1
 74
     1
176
     1
 91
        4
176
     1
 64
     7
176
     1
 65
   257
176
     1
 75
     1
176
     1
175
     1
176
     1
 42
1.0
176
     1
 92
        0
176
     1
 66
   257
176
     1
 43
1.0
176
     1
 76
     1
176
     1
 77
     6
176
     1
 78
     2
176
     1
 67
     7
176
     1
 79
     5
176
     1
170
     0
176
     1
171
     0
176
     1
290
     0
176
     1
 93
       13
176
     1
 44
0.0
176
     1
173
     0
176
     1
  0
VISUALSTYLE
  5
265
102
{ACAD_REACTORS
330
2A
102
}
330
2A
100
AcDbVisualStyle
  2
Hidden
 70
     6
177
     2
291
     0
 71
     1
176
     1
 72
     2
176
     1
 73
     2
176
     1
 90
        0
176
     1
 40
0.6
176
     1
 41
30.0
176
     1
 62
     5
 63
     7
421
 16777215
176
     1
 74
     2
176
     1
 91
        2
176
     1
 64
     7
176
     1
 65
   257
176
     1
 75
     2
176
     1
175
     1
176
     1
 42
40.0
176
     1
 92
        0
176
     1
 66
   257
176
     1
 43
1.0
176
     1
 76
     1
176
     1
 77
     6
176
     1
 78
     2
176
     1
 67
     7
176
     1
 79
     3
176
     1
170
     0
176
     1
171
     0
176
     1
290
     0
176
     1
 93
        1
176
     1
 44
0.0
176
     1
173
     0
176
     1
  0
VISUALSTYLE
  5
266
102
{ACAD_REACTORS
330
2A
102
}
330
2A
100
AcDbVisualStyle
  2
JitterOff
 70
    20
177
     2
291
     1
 71
     2
176
     0
 72
     2
176
     0
 73
     0
176
     0
 90
        0
176
     0
 40
0.6
176
     0
 41
30.0
176
     0
 62
     5
 63
     7
421
 16777215
176
     0
 74
     1
176
     0
 91
        4
176
     0
 64
     7
176
     0
 65
   257
176
     0
 75
     1
176
     0
175
     1
176
     0
 42
1.0
176
     0
 92
       10
176
     2
 66
     7
176
     0
 43
1.0
176
     0
 76
     1
176
     0
 77
     6
176
     0
 78
     2
176
     0
 67
     7
176
     0
 79
     5
176
     0
170
     0
176
     0
171
     0
176
     0
290
     0
176
     0
 93
        1
176
     0
 44
0.0
176
     0
173
     0
176
     0
  0
VISUALSTYLE
  5
38
102
{ACAD_REACTORS
330
2A
102
}
330
2A
100
AcDbVisualStyle
  2
Linepattern
 70
    14
177
     2
291
     1
 71
     2
176
     1
 72
     2
176
     1
 73
     0
176
     1
 90
        0
176
     1
 40
-0.6
176
     1
 41
-30.0
176
     1
 62
     5
 63
     7
421
 16777215
176
     1
 74
     1
176
     1
 91
        4
176
     1
 64
     7
176
     1
 65
   257
176
     1
 75
     7
176
     1
175
     7
176
     1
 42
1.0
176
     1
 92
        8
176
     1
 66
     7
176
     1
 43
1.0
176
     1
 76
     1
176
     1
 77
     6
176
     1
 78
     2
176
     1
 67
     7
176
     1
 79
     5
176
     1
170
     0
176
     1
171
     0
176
     1
290
     0
176
     1
 93
        1
176
     1
 44
0.0
176
     1
173
     0
176
     1
  0
VISUALSTYLE
  5
267
102
{ACAD_REACTORS
330
2A
102
}
330
2A
100
AcDbVisualStyle
  2
OverhangOff
 70
    21
177
     2
291
     1
 71
     2
176
     0
 72
     2
176
     0
 73
     0
176
     0
 90
        0
176
     0
 40
0.6
176
     0
 41
30.0
176
     0
 62
     5
 63
     7
421
 16777215
176
     0
 74
     1
176
     0
 91
        4
176
     0
 64
     7
176
     0
 65
   257
176
     0
 75
     1
176
     0
175
     1
176
     0
 42
1.0
176
     0
 92
        9
176
     2
 66
     7
176
     0
 43
1.0
176
     0
 76
     1
176
     0
 77
     6
176
     0
 78
     2
176
     0
 67
     7
176
     0
 79
     5
176
     0
170
     0
176
     0
171
     0
176
     0
290
     0
176
     0
 93
        1
176
     0
 44
0.0
176
     0
173
     0
176
     0
  0
VISUALSTYLE
  5
33
102
{ACAD_REACTORS
330
2A
102
}
330
2A
100
AcDbVisualStyle
  2
Realistic
 70
     8
177
     2
291
     0
 71
     2
176
     1
 72
     2
176
     1
 73
     0
176
     1
 90
        0
176
     1
 40
-0.6
176
     1
 41
-30.0
176
     1
 62
     5
 63
     7
421
 16777215
176
     1
 74
     1
176
     1
 91
        0
176
     1
 64
     7
176
     1
 65
   257
176
     1
 75
     1
176
     1
175
     1
176
     1
 42
1.0
176
     1
 92
        8
176
     1
 66
     8
424
  7895160
176
     1
 43
1.0
176
     1
 76
     1
176
     1
 77
     6
176
     1
 78
     2
176
     1
 67
     7
176
     1
 79
     5
176
     1
170
     0
176
     1
171
     0
176
     1
290
     0
176
     1
 93
       13
176
     1
 44
0.0
176
     1
173
     0
176
     1
  0
VISUALSTYLE
  5
26D
102
{ACAD_REACTORS
330
2A
102
}
330
2A
100
AcDbVisualStyle
  2
Shaded
 70
    27
177
     2
291
     0
 71
     2
176
     1
 72
     2
176
     1
 73
     1
176
     1
 90
        2
176
     1
 40
0.6
176
     1
 41
30.0
176
     1
 62
     5
 63
     7
421
 16777215
176
     1
 74
     0
176
     1
 91
        4
176
     1
 64
     7
176
     1
 65
   257
176
     1
 75
     1
176
     1
175
     1
176
     1
 42
1.0
176
     1
 92
        8
176
     1
 66
   257
176
     1
 43
1.0
176
     1
 76
     1
176
     1
 77
     6
176
     1
 78
     2
176
     1
 67
     8
425
  7895160
176
     1
 79
     3
176
     1
170
     0
176
     1
171
     0
176
     1
290
     0
176
     1
 93
        5
176
     1
 44
0.0
176
     1
173
     0
176
     1
  0
VISUALSTYLE
  5
26C
102
{ACAD_REACTORS
330
2A
102
}
330
2A
100
AcDbVisualStyle
  2
Shaded with edges
 70
    26
177
     2
291
     0
 71
     2
176
     1
 72
     2
176
     1
 73
     1
176
     1
 90
        2
176
     1
 40
0.6
176
     1
 41
30.0
176
     1
 62
     5
 63
     7
421
 16777215
176
     1
 74
     1
176
     1
 91
       10
176
     1
 64
     7
176
     1
 65
   257
176
     1
 75
     2
176
     1
175
     1
176
     1
 42
1.0
176
     1
 92
        8
176
     1
 66
   257
176
     1
 43
1.0
176
     1
 76
     1
176
     1
 77
     6
176
     1
 78
     2
176
     1
 67
     7
176
     1
 79
     3
176
     1
170
     0
176
     1
171
     0
176
     1
290
     0
176
     1
 93
        5
176
     1
 44
0.0
176
     1
173
     0
176
     1
  0
VISUALSTYLE
  5
269
102
{ACAD_REACTORS
330
2A
102
}
330
2A
100
AcDbVisualStyle
  2
Shades of Gray
 70
    23
177
     2
291
     0
 71
     2
176
     1
 72
     2
176
     1
 73
     3
176
     1
 90
        0
176
     1
 40
0.6
176
     1
 41
30.0
176
     1
 62
     5
 63
     7
421
 16777215
176
     1
 74
     2
176
     1
 91
        2
176
     1
 64
     7
176
     1
 65
     7
176
     1
 75
     1
176
     1
175
     1
176
     1
 42
40.0
176
     1
 92
        8
176
     1
 66
     7
176
     1
 43
1.0
176
     1
 76
     1
176
     1
 77
     6
176
     1
 78
     2
176
     1
 67
     7
176
     1
 79
     3
176
     1
170
     0
176
     1
171
     0
176
     1
290
     0
176
     1
 93
        1
176
     1
 44
0.0
176
     1
173
     0
176
     1
  0
VISUALSTYLE
  5
26A
102
{ACAD_REACTORS
330
2A
102
}
330
2A
100
AcDbVisualStyle
  2
Sketchy
 70
    24
177
     2
291
     0
 71
     1
176
     1
 72
     2
176
     1
 73
     2
176
     1
 90
        0
176
     1
 40
0.6
176
     1
 41
30.0
176
     1
 62
     5
 63
     7
421
 16777215
176
     1
 74
     2
176
     1
 91
        2
176
     1
 64
     7
176
     1
 65
     7
176
     1
 75
     1
176
     1
175
     1
176
     1
 42
40.0
176
     1
 92
       11
176
     1
 66
     7
176
     1
 43
1.0
176
     1
 76
     1
176
     1
 77
     6
176
     1
 78
     2
176
     1
 67
     7
176
     1
 79
     6
176
     1
170
     0
176
     1
171
     0
176
     1
290
     0
176
     1
 93
        1
176
     1
 44
0.0
176
     1
173
     0
176
     1
  0
VISUALSTYLE
  5
37
102
{ACAD_REACTORS
330
2A
102
}
330
2A
100
AcDbVisualStyle
  2
Thicken
 70
    13
177
     2
291
     1
 71
     2
176
     1
 72
     2
176
     1
 73
     0
176
     1
 90
        0
176
     1
 40
-0.6
176
     1
 41
-30.0
176
     1
 62
     5
 63
     7
421
 16777215
176
     1
 74
     1
176
     1
 91
        4
176
     1
 64
     7
176
     1
 65
   257
176
     1
 75
     1
176
     1
175
     1
176
     1
 42
1.0
176
     1
 92
       12
176
     1
 66
     7
176
     1
 43
1.0
176
     1
 76
     1
176
     1
 77
     6
176
     1
 78
     2
176
     1
 67
     7
176
     1
 79
     5
176
     1
170
     0
176
     1
171
     0
176
     1
290
     0
176
     1
 93
        1
176
     1
 44
0.0
176
     1
173
     0
176
     1
  0
VISUALSTYLE
  5
264
102
{ACAD_REACTORS
330
2A
102
}
330
2A
100
AcDbVisualStyle
  2
Wireframe
 70
     5
177
     2
291
     0
 71
     0
176
     1
 72
     2
176
     1
 73
     0
176
     1
 90
        0
176
     1
 40
0.6
176
     1
 41
30.0
176
     1
 62
     5
 63
     7
421
 16777215
176
     1
 74
     1
176
     1
 91
        4
176
     1
 64
     7
176
     1
 65
   257
176
     1
 75
     1
176
     1
175
     1
176
     1
 42
1.0
176
     1
 92
        0
176
     1
 66
   257
176
     1
 43
1.0
176
     1
 76
     1
176
     1
 77
     6
176
     1
 78
     2
176
     1
 67
     7
176
     1
 79
     3
176
     1
170
     0
176
     1
171
     0
176
     1
290
     0
176
     1
 93
        1
176
     1
 44
0.0
176
     1
173
     0
176
     1
  0
VISUALSTYLE
  5
26B
102
{ACAD_REACTORS
330
2A
102
}
330
2A
100
AcDbVisualStyle
  2
X-Ray
 70
    25
177
     2
291
     0
 71
     2
176
     1
 72
     2
176
     1
 73
     1
176
     1
 90
        1
176
     1
 40
0.5
176
     1
 41
30.0
176
     1
 62
     5
 63
     7
421
 16777215
176
     1
 74
     1
176
     1
 91
        0
176
     1
 64
     7
176
     1
 65
   257
176
     1
 75
     1
176
     1
175
     1
176
     1
 42
1.0
176
     1
 92
        8
176
     1
 66
     7
176
     1
 43
1.0
176
     1
 76
     1
176
     1
 77
     6
176
     1
 78
     2
176
     1
 67
     7
176
     1
 79
     3
176
     1
170
     0
176
     1
171
     0
176
     1
290
     0
176
     1
 93
       13
176
     1
 44
0.0
176
     1
173
     0
176
     1
  0
DICTIONARYVAR
  5
30A
102
{ACAD_REACTORS
330
309
102
}
330
309
100
DictionaryVariables
280
     0
  1
1:1
  0
DICTIONARYVAR
  5
30C
102
{ACAD_REACTORS
330
309
102
}
330
309
100
DictionaryVariables
280
     0
  1
Standard
  0
DICTIONARYVAR
  5
30B
102
{ACAD_REACTORS
330
309
102
}
330
309
100
DictionaryVariables
280
     0
  1
Standard
  0
DICTIONARYVAR
  5
30D
102
{ACAD_REACTORS
330
309
102
}
330
309
100
DictionaryVariables
280
     0
  1
0
  0
DICTIONARY
  5
3CA
330
26E
100
AcDbDictionary
280
     1
281
     1
  3
ACAD_ROUNDTRIP_2008_TABLESTYLE_CELLSTYLEMAP
360
3CB
  0
CELLSTYLEMAP
  5
3CB
102
{ACAD_REACTORS
330
3CA
102
}
330
3CA
100
AcDbCellStyleMap
 90
        3
300
CELLSTYLE
  1
TABLEFORMAT_BEGIN
 90
        5
170
     1
 91
        0
 92
    32768
 62
   257
 93
        1
300
CONTENTFORMAT
  1
CONTENTFORMAT_BEGIN
 90
        0
 91
        0
 92
        4
 93
        0
300

 40
0.0
140
1.0
 94
        5
 62
     0
340
11
144
6.0
309
CONTENTFORMAT_END
171
     1
301
MARGIN
  1
CELLMARGIN_BEGIN
 40
1.5
 40
1.5
 40
1.5
 40
1.5
 40
1.5
 40
1.5
309
CELLMARGIN_END
 94
        6
 95
        1
302
GRIDFORMAT
  1
GRIDFORMAT_BEGIN
 90
        0
 91
        1
 62
     0
 92
       -2
340
14
 93
        0
 40
0.045
309
GRIDFORMAT_END
 95
        2
302
GRIDFORMAT
  1
GRIDFORMAT_BEGIN
 90
        0
 91
        1
 62
     0
 92
       -2
340
14
 93
        0
 40
0.045
309
GRIDFORMAT_END
 95
        4
302
GRIDFORMAT
  1
GRIDFORMAT_BEGIN
 90
        0
 91
        1
 62
     0
 92
       -2
340
14
 93
        0
 40
0.045
309
GRIDFORMAT_END
 95
        8
302
GRIDFORMAT
  1
GRIDFORMAT_BEGIN
 90
        0
 91
        1
 62
     0
 92
       -2
340
14
 93
        0
 40
0.045
309
GRIDFORMAT_END
 95
       16
302
GRIDFORMAT
  1
GRIDFORMAT_BEGIN
 90
        0
 91
        1
 62
     0
 92
       -2
340
14
 93
        0
 40
0.045
309
GRIDFORMAT_END
 95
       32
302
GRIDFORMAT
  1
GRIDFORMAT_BEGIN
 90
        0
 91
        1
 62
     0
 92
       -2
340
14
 93
        0
 40
0.045
309
GRIDFORMAT_END
309
TABLEFORMAT_END
  1
CELLSTYLE_BEGIN
 90
        1
 91
        1
300
_TITLE
309
CELLSTYLE_END
300
CELLSTYLE
  1
TABLEFORMAT_BEGIN
 90
        5
170
     1
 91
        0
 92
        0
 62
   257
 93
        1
300
CONTENTFORMAT
  1
CONTENTFORMAT_BEGIN
 90
        0
 91
        0
 92
        4
 93
        0
300

 40
0.0
140
1.0
 94
        5
 62
     0
340
11
144
4.5
309
CONTENTFORMAT_END
171
     1
301
MARGIN
  1
CELLMARGIN_BEGIN
 40
1.5
 40
1.5
 40
1.5
 40
1.5
 40
1.5
 40
1.5
309
CELLMARGIN_END
 94
        6
 95
        1
302
GRIDFORMAT
  1
GRIDFORMAT_BEGIN
 90
        0
 91
        1
 62
     0
 92
       -2
340
14
 93
        0
 40
0.045
309
GRIDFORMAT_END
 95
        2
302
GRIDFORMAT
  1
GRIDFORMAT_BEGIN
 90
        0
 91
        1
 62
     0
 92
       -2
340
14
 93
        0
 40
0.045
309
GRIDFORMAT_END
 95
        4
302
GRIDFORMAT
  1
GRIDFORMAT_BEGIN
 90
        0
 91
        1
 62
     0
 92
       -2
340
14
 93
        0
 40
0.045
309
GRIDFORMAT_END
 95
        8
302
GRIDFORMAT
  1
GRIDFORMAT_BEGIN
 90
        0
 91
        1
 62
     0
 92
       -2
340
14
 93
        0
 40
0.045
309
GRIDFORMAT_END
 95
       16
302
GRIDFORMAT
  1
GRIDFORMAT_BEGIN
 90
        0
 91
        1
 62
     0
 92
       -2
340
14
 93
        0
 40
0.045
309
GRIDFORMAT_END
 95
       32
302
GRIDFORMAT
  1
GRIDFORMAT_BEGIN
 90
        0
 91
        1
 62
     0
 92
       -2
340
14
 93
        0
 40
0.045
309
GRIDFORMAT_END
309
TABLEFORMAT_END
  1
CELLSTYLE_BEGIN
 90
        2
 91
        1
300
_HEADER
309
CELLSTYLE_END
300
CELLSTYLE
  1
TABLEFORMAT_BEGIN
 90
        5
170
     1
 91
        0
 92
        0
 62
   257
 93
        1
300
CONTENTFORMAT
  1
CONTENTFORMAT_BEGIN
 90
        0
 91
        0
 92
        4
 93
        0
300

 40
0.0
140
1.0
 94
        2
 62
     0
340
11
144
4.5
309
CONTENTFORMAT_END
171
     1
301
MARGIN
  1
CELLMARGIN_BEGIN
 40
1.5
 40
1.5
 40
1.5
 40
1.5
 40
1.5
 40
1.5
309
CELLMARGIN_END
 94
        6
 95
        1
302
GRIDFORMAT
  1
GRIDFORMAT_BEGIN
 90
        0
 91
        1
 62
     0
 92
       -2
340
14
 93
        0
 40
0.045
309
GRIDFORMAT_END
 95
        2
302
GRIDFORMAT
  1
GRIDFORMAT_BEGIN
 90
        0
 91
        1
 62
     0
 92
       -2
340
14
 93
        0
 40
0.045
309
GRIDFORMAT_END
 95
        4
302
GRIDFORMAT
  1
GRIDFORMAT_BEGIN
 90
        0
 91
        1
 62
     0
 92
       -2
340
14
 93
        0
 40
0.045
309
GRIDFORMAT_END
 95
        8
302
GRIDFORMAT
  1
GRIDFORMAT_BEGIN
 90
        0
 91
        1
 62
     0
 92
       -2
340
14
 93
        0
 40
0.045
309
GRIDFORMAT_END
 95
       16
302
GRIDFORMAT
  1
GRIDFORMAT_BEGIN
 90
        0
 91
        1
 62
     0
 92
       -2
340
14
 93
        0
 40
0.045
309
GRIDFORMAT_END
 95
       32
302
GRIDFORMAT
  1
GRIDFORMAT_BEGIN
 90
        0
 91
        1
 62
     0
 92
       -2
340
14
 93
        0
 40
0.045
309
GRIDFORMAT_END
309
TABLEFORMAT_END
  1
CELLSTYLE_BEGIN
 90
        3
 91
        2
300
_DATA
309
CELLSTYLE_END
  0
ENDSEC
  0
EOF
