  0
SECTION
  2
HEADER
  9
$ACADVER
  1
AC1024
  9
$ACADMAINTVER
 70
     6
  9
$DWGCODEPAGE
  3
ANSI_1252
  9
$LASTSAVEDBY
  1
mehme
  9
$INSBASE
 10
0.0
 20
0.0
 30
0.0
  9
$EXTMIN
 10
751709.157
 20
4175228.338
 30
661.8828109912574
  9
$EXTMAX
 10
751918.125672844
 20
4175332.848
 30
673.3670043945312
  9
$LIMMIN
 10
0.0
 20
0.0
  9
$LIMMAX
 10
420.0
 20
297.0
  9
$ORTHOMODE
 70
     0
  9
$REGENMODE
 70
     1
  9
$FILLMODE
 70
     1
  9
$QTEXTMODE
 70
     0
  9
$MIRRTEXT
 70
     1
  9
$LTSCALE
 40
1.0
  9
$ATTMODE
 70
     1
  9
$TEXTSIZE
 40
2.5
  9
$TRACEWID
 40
1.0
  9
$TEXTSTYLE
  7
Standard
  9
$CLAYER
  8
INIT_COORD
  9
$CELTYPE
  6
ByLayer
  9
$CECOLOR
 62
   256
  9
$CELTSCALE
 40
1.0
  9
$DISPSILH
 70
     0
  9
$DIMSCALE
 40
1.0
  9
$DIMASZ
 40
2.5
  9
$DIMEXO
 40
0.625
  9
$DIMDLI
 40
3.75
  9
$DIMRND
 40
0.0
  9
$DIMDLE
 40
0.0
  9
$DIMEXE
 40
1.25
  9
$DIMTP
 40
0.0
  9
$DIMTM
 40
0.0
  9
$DIMTXT
 40
2.5
  9
$DIMCEN
 40
2.5
  9
$DIMTSZ
 40
0.0
  9
$DIMTOL
 70
     0
  9
$DIMLIM
 70
     0
  9
$DIMTIH
 70
     0
  9
$DIMTOH
 70
     0
  9
$DIMSE1
 70
     0
  9
$DIMSE2
 70
     0
  9
$DIMTAD
 70
     1
  9
$DIMZIN
 70
     8
  9
$DIMBLK
  1

  9
$DIMASO
 70
     1
  9
$DIMSHO
 70
     1
  9
$DIMPOST
  1

  9
$DIMAPOST
  1

  9
$DIMALT
 70
     0
  9
$DIMALTD
 70
     3
  9
$DIMALTF
 40
0.03937007874016
  9
$DIMLFAC
 40
1.0
  9
$DIMTOFL
 70
     1
  9
$DIMTVP
 40
0.0
  9
$DIMTIX
 70
     0
  9
$DIMSOXD
 70
     0
  9
$DIMSAH
 70
     0
  9
$DIMBLK1
  1

  9
$DIMBLK2
  1

  9
$DIMSTYLE
  2
ISO-25
  9
$DIMCLRD
 70
     0
  9
$DIMCLRE
 70
     0
  9
$DIMCLRT
 70
     0
  9
$DIMTFAC
 40
1.0
  9
$DIMGAP
 40
0.625
  9
$DIMJUST
 70
     0
  9
$DIMSD1
 70
     0
  9
$DIMSD2
 70
     0
  9
$DIMTOLJ
 70
     0
  9
$DIMTZIN
 70
     8
  9
$DIMALTZ
 70
     0
  9
$DIMALTTZ
 70
     0
  9
$DIMUPT
 70
     0
  9
$DIMDEC
 70
     2
  9
$DIMTDEC
 70
     2
  9
$DIMALTU
 70
     2
  9
$DIMALTTD
 70
     3
  9
$DIMTXSTY
  7
Standard
  9
$DIMAUNIT
 70
     0
  9
$DIMADEC
 70
     0
  9
$DIMALTRND
 40
0.0
  9
$DIMAZIN
 70
     0
  9
$DIMDSEP
 70
    44
  9
$DIMATFIT
 70
     3
  9
$DIMFRAC
 70
     0
  9
$DIMLDRBLK
  1

  9
$DIMLUNIT
 70
     2
  9
$DIMLWD
 70
    -2
  9
$DIMLWE
 70
    -2
  9
$DIMTMOVE
 70
     0
  9
$DIMFXL
 40
1.0
  9
$DIMFXLON
 70
     0
  9
$DIMJOGANG
 40
0.7853981633974483
  9
$DIMTFILL
 70
     0
  9
$DIMTFILLCLR
 70
     0
  9
$DIMARCSYM
 70
     0
  9
$DIMLTYPE
  6

  9
$DIMLTEX1
  6

  9
$DIMLTEX2
  6

  9
$DIMTXTDIRECTION
 70
     0
  9
$LUNITS
 70
     2
  9
$LUPREC
 70
     4
  9
$SKETCHINC
 40
1.0
  9
$FILLETRAD
 40
10.0
  9
$AUNITS
 70
     0
  9
$AUPREC
 70
     0
  9
$MENU
  1
.
  9
$ELEVATION
 40
0.0
  9
$PELEVATION
 40
0.0
  9
$THICKNESS
 40
0.0
  9
$LIMCHECK
 70
     0
  9
$CHAMFERA
 40
10.0
  9
$CHAMFERB
 40
10.0
  9
$CHAMFERC
 40
20.0
  9
$CHAMFERD
 40
0.0
  9
$SKPOLY
 70
     0
  9
$TDCREATE
 40
2457877.717371782
  9
$TDUCREATE
 40
2457877.592371782
  9
$TDUPDATE
 40
2457878.082608333
  9
$TDUUPDATE
 40
2457877.957608333
  9
$TDINDWG
 40
0.0034353935
  9
$TDUSRTIMER
 40
2457877.951936435
  9
$USRTIMER
 70
     1
  9
$ANGBASE
 50
0.0
  9
$ANGDIR
 70
     0
  9
$PDMODE
 70
     0
  9
$PDSIZE
 40
0.0
  9
$PLINEWID
 40
0.0
  9
$SPLFRAME
 70
     0
  9
$SPLINETYPE
 70
     6
  9
$SPLINESEGS
 70
     8
  9
$HANDSEED
  5
24F
  9
$SURFTAB1
 70
     6
  9
$SURFTAB2
 70
     6
  9
$SURFTYPE
 70
     6
  9
$SURFU
 70
     6
  9
$SURFV
 70
     6
  9
$UCSBASE
  2

  9
$UCSNAME
  2

  9
$UCSORG
 10
0.0
 20
0.0
 30
0.0
  9
$UCSXDIR
 10
1.0
 20
0.0
 30
0.0
  9
$UCSYDIR
 10
0.0
 20
1.0
 30
0.0
  9
$UCSORTHOREF
  2

  9
$UCSORTHOVIEW
 70
     1
  9
$UCSORGTOP
 10
0.0
 20
0.0
 30
0.0
  9
$UCSORGBOTTOM
 10
0.0
 20
0.0
 30
0.0
  9
$UCSORGLEFT
 10
0.0
 20
0.0
 30
0.0
  9
$UCSORGRIGHT
 10
0.0
 20
0.0
 30
0.0
  9
$UCSORGFRONT
 10
0.0
 20
0.0
 30
0.0
  9
$UCSORGBACK
 10
0.0
 20
0.0
 30
0.0
  9
$PUCSBASE
  2

  9
$PUCSNAME
  2

  9
$PUCSORG
 10
0.0
 20
0.0
 30
0.0
  9
$PUCSXDIR
 10
1.0
 20
0.0
 30
0.0
  9
$PUCSYDIR
 10
0.0
 20
1.0
 30
0.0
  9
$PUCSORTHOREF
  2

  9
$PUCSORTHOVIEW
 70
     0
  9
$PUCSORGTOP
 10
0.0
 20
0.0
 30
0.0
  9
$PUCSORGBOTTOM
 10
0.0
 20
0.0
 30
0.0
  9
$PUCSORGLEFT
 10
0.0
 20
0.0
 30
0.0
  9
$PUCSORGRIGHT
 10
0.0
 20
0.0
 30
0.0
  9
$PUCSORGFRONT
 10
0.0
 20
0.0
 30
0.0
  9
$PUCSORGBACK
 10
0.0
 20
0.0
 30
0.0
  9
$USERI1
 70
     0
  9
$USERI2
 70
     0
  9
$USERI3
 70
     0
  9
$USERI4
 70
     0
  9
$USERI5
 70
     0
  9
$USERR1
 40
0.0
  9
$USERR2
 40
0.0
  9
$USERR3
 40
0.0
  9
$USERR4
 40
0.0
  9
$USERR5
 40
0.0
  9
$WORLDVIEW
 70
     1
  9
$SHADEDGE
 70
     3
  9
$SHADEDIF
 70
    70
  9
$TILEMODE
 70
     1
  9
$MAXACTVP
 70
    64
  9
$PINSBASE
 10
0.0
 20
0.0
 30
0.0
  9
$PLIMCHECK
 70
     0
  9
$PEXTMIN
 10
1.000000000000000E+20
 20
1.000000000000000E+20
 30
1.000000000000000E+20
  9
$PEXTMAX
 10
-1.000000000000000E+20
 20
-1.000000000000000E+20
 30
-1.000000000000000E+20
  9
$PLIMMIN
 10
0.0
 20
0.0
  9
$PLIMMAX
 10
0.0
 20
0.0
  9
$UNITMODE
 70
     0
  9
$VISRETAIN
 70
     1
  9
$PLINEGEN
 70
     0
  9
$PSLTSCALE
 70
     1
  9
$TREEDEPTH
 70
  3020
  9
$CMLSTYLE
  2
Standard
  9
$CMLJUST
 70
     0
  9
$CMLSCALE
 40
20.0
  9
$PROXYGRAPHICS
 70
     1
  9
$MEASUREMENT
 70
     1
  9
$CELWEIGHT
370
    -1
  9
$ENDCAPS
280
     0
  9
$JOINSTYLE
280
     0
  9
$LWDISPLAY
290
     0
  9
$INSUNITS
 70
     4
  9
$HYPERLINKBASE
  1

  9
$STYLESHEET
  1

  9
$XEDIT
290
     1
  9
$CEPSNTYPE
380
     0
  9
$PSTYLEMODE
290
     1
  9
$FINGERPRINTGUID
  2
{ED04F40D-F75E-4D09-8A36-AD0C4AF18D27}
  9
$VERSIONGUID
  2
{FAEB1C32-E019-11D5-929B-00C0DF256EC4}
  9
$EXTNAMES
290
     1
  9
$PSVPSCALE
 40
0.0
  9
$OLESTARTUP
290
     0
  9
$SORTENTS
280
   127
  9
$INDEXCTL
280
     0
  9
$HIDETEXT
280
     1
  9
$XCLIPFRAME
280
     0
  9
$HALOGAP
280
     0
  9
$OBSCOLOR
 70
   257
  9
$OBSLTYPE
280
     0
  9
$INTERSECTIONDISPLAY
280
     0
  9
$INTERSECTIONCOLOR
 70
   257
  9
$DIMASSOC
280
     2
  9
$PROJECTNAME
  1

  9
$CAMERADISPLAY
290
     0
  9
$LENSLENGTH
 40
50.0
  9
$CAMERAHEIGHT
 40
0.0
  9
$STEPSPERSEC
 40
2.0
  9
$STEPSIZE
 40
6.0
  9
$3DDWFPREC
 40
2.0
  9
$PSOLWIDTH
 40
5.0
  9
$PSOLHEIGHT
 40
80.0
  9
$LOFTANG1
 40
1.570796326794897
  9
$LOFTANG2
 40
1.570796326794897
  9
$LOFTMAG1
 40
0.0
  9
$LOFTMAG2
 40
0.0
  9
$LOFTPARAM
 70
     7
  9
$LOFTNORMALS
280
     1
  9
$LATITUDE
 40
37.795
  9
$LONGITUDE
 40
-122.394
  9
$NORTHDIRECTION
 40
0.0
  9
$TIMEZONE
 70
 -8000
  9
$LIGHTGLYPHDISPLAY
280
     1
  9
$TILEMODELIGHTSYNCH
280
     1
  9
$SOLIDHIST
280
     1
  9
$SHOWHIST
280
     1
  9
$DWFFRAME
280
     2
  9
$DGNFRAME
280
     2
  9
$REALWORLDSCALE
290
     1
  9
$INTERFERECOLOR
 62
   256
  9
$CSHADOW
280
     0
  9
$SHADOWPLANELOCATION
 40
0.0
  0
ENDSEC
  0
SECTION
  2
CLASSES
  0
CLASS
  1
ACDBDICTIONARYWDFLT
  2
AcDbDictionaryWithDefault
  3
ObjectDBX Classes
 90
        0
 91
        4
280
     0
281
     0
  0
CLASS
  1
VISUALSTYLE
  2
AcDbVisualStyle
  3
ObjectDBX Classes
 90
     4095
 91
        4
280
     0
281
     0
  0
CLASS
  1
MATERIAL
  2
AcDbMaterial
  3
ObjectDBX Classes
 90
     1153
 91
        4
280
     0
281
     0
  0
CLASS
  1
SCALE
  2
AcDbScale
  3
ObjectDBX Classes
 90
     1153
 91
        4
280
     0
281
     0
  0
CLASS
  1
TABLESTYLE
  2
AcDbTableStyle
  3
ObjectDBX Classes
 90
     4095
 91
        4
280
     0
281
     0
  0
CLASS
  1
MLEADERSTYLE
  2
AcDbMLeaderStyle
  3
ACDB_MLEADERSTYLE_CLASS
 90
     4095
 91
        4
280
     0
281
     0
  0
CLASS
  1
SUN
  2
AcDbSun
  3
SCENEOE
 90
     1153
 91
        4
280
     0
281
     0
  0
CLASS
  1
RASTERVARIABLES
  2
AcDbRasterVariables
  3
ISM
 90
        0
 91
        4
280
     0
281
     0
  0
CLASS
  1
DICTIONARYVAR
  2
AcDbDictionaryVar
  3
ObjectDBX Classes
 90
        0
 91
        4
280
     0
281
     0
  0
CLASS
  1
CELLSTYLEMAP
  2
AcDbCellStyleMap
  3
ObjectDBX Classes
 90
     1152
 91
        4
280
     0
281
     0
  0
ENDSEC
  0
SECTION
  2
TABLES
  0
TABLE
  2
VPORT
  5
8
330
0
100
AcDbSymbolTable
 70
     1
  0
VPORT
  5
29
330
8
100
AcDbSymbolTableRecord
100
AcDbViewportTableRecord
  2
*Active
 70
     0
 10
0.0
 20
0.0
 11
1.0
 21
1.0
 12
2241539.227306673
 22
-2921327.278797341
 13
0.0
 23
0.0
 14
10.0
 24
10.0
 15
10.0
 25
10.0
 16
0.0
 26
0.0
 36
1.0
 17
-1489579.692134556
 27
7096647.702258969
 37
-2106453.169645217
 40
263.9252778751728
 41
1.971698113207547
 42
50.0
 43
0.0
 44
0.0
 50
0.0
 51
0.0
 71
    16
 72
   100
 73
     1
 74
     3
 75
     0
 76
     0
 77
     0
 78
     0
281
     0
 65
     1
110
0.0
120
0.0
130
0.0
111
1.0
121
0.0
131
0.0
112
0.0
122
1.0
132
0.0
 79
     1
146
0.0
348
2F
 60
     3
 61
     5
292
     1
282
     1
141
0.0
142
0.0
 63
   250
361
1AE
  0
ENDTAB
  0
TABLE
  2
LTYPE
  5
5
330
0
100
AcDbSymbolTable
 70
     1
  0
LTYPE
  5
14
330
5
100
AcDbSymbolTableRecord
100
AcDbLinetypeTableRecord
  2
ByBlock
 70
     0
  3

 72
    65
 73
     0
 40
0.0
  0
LTYPE
  5
15
330
5
100
AcDbSymbolTableRecord
100
AcDbLinetypeTableRecord
  2
ByLayer
 70
     0
  3

 72
    65
 73
     0
 40
0.0
  0
LTYPE
  5
16
330
5
100
AcDbSymbolTableRecord
100
AcDbLinetypeTableRecord
  2
Continuous
 70
     0
  3
Solid line
 72
    65
 73
     0
 40
0.0
  0
ENDTAB
  0
TABLE
  2
LAYER
  5
2
102
{ACAD_XDICTIONARY
360
208
102
}
330
0
100
AcDbSymbolTable
 70
     4
  0
LAYER
  5
10
330
2
100
AcDbSymbolTableRecord
100
AcDbLayerTableRecord
  2
0
 70
     0
 62
     5
  6
Continuous
370
     0
390
F
347
3E
  0
LAYER
  5
3F
330
2
100
AcDbSymbolTableRecord
100
AcDbLayerTableRecord
  2
670
 70
     4
 62
    98
  6
Continuous
370
    13
390
F
347
3E
  0
LAYER
  5
20B
330
2
100
AcDbSymbolTableRecord
100
AcDbLayerTableRecord
  2
GEOFENCE
 70
     4
 62
     3
  6
Continuous
370
     0
390
F
347
3E
1001
AcAecLayerStandard
1000

1000

  0
LAYER
  5
20D
330
2
100
AcDbSymbolTableRecord
100
AcDbLayerTableRecord
  2
INIT_COORD
 70
     0
 62
     5
  6
Continuous
370
     0
390
F
347
3E
1001
AcAecLayerStandard
1000

1000

  0
ENDTAB
  0
TABLE
  2
STYLE
  5
3
330
0
100
AcDbSymbolTable
 70
     3
  0
STYLE
  5
11
330
3
100
AcDbSymbolTableRecord
100
AcDbTextStyleTableRecord
  2
Standard
 70
     0
 40
0.0
 41
1.0
 50
0.0
 71
     0
 42
2.5
  3
C:\Windows\Font\TIMES.TTF
  4

  0
STYLE
  5
40
330
3
100
AcDbSymbolTableRecord
100
AcDbTextStyleTableRecord
  2
STYLE0
 70
     0
 40
0.0
 41
1.0
 50
0.0
 71
     0
 42
0.2
  3
TXT.SHX
  4

1001
ACAD
1000
TXT.SHX
1071
      256
  0
STYLE
  5
41
330
3
100
AcDbSymbolTableRecord
100
AcDbTextStyleTableRecord
  2
STYLE0P
 70
     0
 40
0.2
 41
1.0
 50
0.0
 71
     0
 42
0.2
  3
TXT.SHX
  4

1001
ACAD
1000
TXT.SHX
1071
 16777472
  0
ENDTAB
  0
TABLE
  2
VIEW
  5
6
330
0
100
AcDbSymbolTable
 70
     0
  0
ENDTAB
  0
TABLE
  2
UCS
  5
7
330
0
100
AcDbSymbolTable
 70
     0
  0
ENDTAB
  0
TABLE
  2
APPID
  5
9
330
0
100
AcDbSymbolTable
 70
     2
  0
APPID
  5
12
330
9
100
AcDbSymbolTableRecord
100
AcDbRegAppTableRecord
  2
ACAD
 70
     0
  0
APPID
  5
20C
330
9
100
AcDbSymbolTableRecord
100
AcDbRegAppTableRecord
  2
AcAecLayerStandard
 70
     0
  0
ENDTAB
  0
TABLE
  2
DIMSTYLE
  5
A
330
0
100
AcDbSymbolTable
 70
     1
100
AcDbDimStyleTable
  0
DIMSTYLE
105
27
330
A
100
AcDbSymbolTableRecord
100
AcDbDimStyleTableRecord
  2
ISO-25
 70
     0
 41
2.5
 42
0.625
 43
3.75
 44
1.25
 73
     0
 74
     0
 77
     1
 78
     8
140
2.5
141
2.5
143
0.03937007874016
147
0.625
171
     3
172
     1
178
     0
271
     2
272
     2
274
     3
278
    44
283
     0
284
     8
340
11
  0
ENDTAB
  0
TABLE
  2
BLOCK_RECORD
  5
1
330
0
100
AcDbSymbolTable
 70
     1
  0
BLOCK_RECORD
  5
1F
330
1
100
AcDbSymbolTableRecord
100
AcDbBlockTableRecord
  2
*Model_Space
340
22
 70
     0
280
     1
281
     0
  0
BLOCK_RECORD
  5
1B
330
1
100
AcDbSymbolTableRecord
100
AcDbBlockTableRecord
  2
*Paper_Space
340
1E
 70
     0
280
     1
281
     0
  0
BLOCK_RECORD
  5
23
330
1
100
AcDbSymbolTableRecord
100
AcDbBlockTableRecord
  2
*Paper_Space0
340
26
 70
     0
280
     1
281
     0
  0
ENDTAB
  0
ENDSEC
  0
SECTION
  2
BLOCKS
  0
BLOCK
  5
20
330
1F
100
AcDbEntity
  8
0
100
AcDbBlockBegin
  2
*Model_Space
 70
     0
 10
0.0
 20
0.0
 30
0.0
  3
*Model_Space
  1

  0
ENDBLK
  5
21
330
1F
100
AcDbEntity
  8
0
100
AcDbBlockEnd
  0
BLOCK
  5
1C
330
1B
100
AcDbEntity
 67
     1
  8
0
100
AcDbBlockBegin
  2
*Paper_Space
 70
     0
 10
0.0
 20
0.0
 30
0.0
  3
*Paper_Space
  1

  0
ENDBLK
  5
1D
330
1B
100
AcDbEntity
 67
     1
  8
0
100
AcDbBlockEnd
  0
BLOCK
  5
24
330
23
100
AcDbEntity
  8
0
100
AcDbBlockBegin
  2
*Paper_Space0
 70
     0
 10
0.0
 20
0.0
 30
0.0
  3
*Paper_Space0
  1

  0
ENDBLK
  5
25
330
23
100
AcDbEntity
  8
0
100
AcDbBlockEnd
  0
ENDSEC
  0
SECTION
  2
ENTITIES
  0
LINE
  5
42
330
1F
100
AcDbEntity
  8
670
370
     0
100
AcDbLine
 10
751711.031
 20
4175245.754
 30
670.1959838867188
 11
751718.261
 21
4175250.603
 31
670.333984375
  0
LINE
  5
43
330
1F
100
AcDbEntity
  8
670
370
     0
100
AcDbLine
 10
751718.261
 20
4175250.603
 30
670.333984375
 11
751722.586
 21
4175253.711
 31
670.27001953125
  0
LINE
  5
44
330
1F
100
AcDbEntity
  8
670
370
     0
100
AcDbLine
 10
751720.534
 20
4175256.443
 30
670.27001953125
 11
751716.208
 21
4175253.43
 31
670.333984375
  0
LINE
  5
45
330
1F
100
AcDbEntity
  8
670
370
     0
100
AcDbLine
 10
751716.208
 20
4175253.43
 30
670.333984375
 11
751709.157
 21
4175248.716
 31
670.1959838867188
  0
LINE
  5
46
330
1F
100
AcDbEntity
  8
670
370
     0
100
AcDbLine
 10
751722.586
 20
4175253.711
 30
670.27001953125
 11
751727.464
 21
4175257.025
 31
670.4149780273438
  0
LINE
  5
47
330
1F
100
AcDbEntity
  8
670
370
     0
100
AcDbLine
 10
751725.309
 20
4175259.983
 30
670.4149780273438
 11
751720.534
 21
4175256.443
 31
670.27001953125
  0
LINE
  5
48
330
1F
100
AcDbEntity
  8
670
370
     0
100
AcDbLine
 10
751727.464
 20
4175257.025
 30
670.4149780273438
 11
751729.8
 21
4175258.656
 31
670.2650146484375
  0
LINE
  5
49
330
1F
100
AcDbEntity
  8
670
370
     0
100
AcDbLine
 10
751729.8
 20
4175258.656
 30
670.2650146484375
 11
751730.69
 21
4175259.331
 31
670.3629760742188
  0
LINE
  5
4A
330
1F
100
AcDbEntity
  8
670
370
     0
100
AcDbLine
 10
751730.69
 20
4175259.331
 30
670.3629760742188
 11
751733.354
 21
4175261.263
 31
670.5689697265625
  0
LINE
  5
4B
330
1F
100
AcDbEntity
  8
670
370
     0
100
AcDbLine
 10
751732.163
 20
4175264.149
 30
670.4299926757812
 11
751728.936
 21
4175262.184
 31
670.3629760742188
  0
LINE
  5
4C
330
1F
100
AcDbEntity
  8
670
370
     0
100
AcDbLine
 10
751728.936
 20
4175262.184
 30
670.3629760742188
 11
751727.801
 21
4175261.553
 31
670.2650146484375
  0
LINE
  5
4D
330
1F
100
AcDbEntity
  8
670
370
     0
100
AcDbLine
 10
751727.801
 20
4175261.553
 30
670.2650146484375
 11
751725.309
 21
4175259.983
 31
670.4149780273438
  0
LINE
  5
4E
330
1F
100
AcDbEntity
  8
670
370
     0
100
AcDbLine
 10
751740.475
 20
4175265.155
 30
670.4979858398438
 11
751744.5016749079
 21
4175264.713685427
 31
670.3989868164062
  0
LINE
  5
4F
330
1F
100
AcDbEntity
  8
670
370
     0
100
AcDbLine
 10
751733.354
 20
4175261.263
 30
670.5689697265625
 11
751739.6521379536
 21
4175265.158482772
 31
670.5280151367188
  0
LINE
  5
50
330
1F
100
AcDbEntity
  8
670
370
     0
100
AcDbLine
 10
751736.8491115775
 20
4175267.254063976
 30
670.5280151367188
 11
751732.163
 21
4175264.149
 31
670.4299926757812
  0
LINE
  5
51
330
1F
100
AcDbEntity
  8
670
370
     0
100
AcDbLine
 10
751739.6521379536
 20
4175265.158482772
 30
670.5280151367188
 11
751740.475
 21
4175265.155
 31
670.4979858398438
  0
LINE
  5
52
330
1F
100
AcDbEntity
  8
670
370
     0
100
AcDbLine
 10
751744.5016749079
 20
4175264.713685427
 30
670.3989868164062
 11
751750.144
 21
4175264.492
 31
669.5859985351562
  0
LINE
  5
53
330
1F
100
AcDbEntity
  8
670
370
     0
100
AcDbLine
 10
751757.13
 20
4175263.548
 30
668.385986328125
 11
751760.442
 21
4175263.628
 31
667.8499755859375
  0
LINE
  5
54
330
1F
100
AcDbEntity
  8
670
370
     0
100
AcDbLine
 10
751750.144
 20
4175264.492
 30
669.5859985351562
 11
751757.13
 21
4175263.548
 31
668.385986328125
  0
LINE
  5
55
330
1F
100
AcDbEntity
  8
670
370
     0
100
AcDbLine
 10
751758.092
 20
4175267.127
 30
668.5180053710938
 11
751751.923
 21
4175267.817
 31
669.5479736328125
  0
LINE
  5
56
330
1F
100
AcDbEntity
  8
670
370
     0
100
AcDbLine
 10
751751.923
 20
4175267.817
 30
669.5479736328125
 11
751750.152
 21
4175267.943
 31
669.5
  0
LINE
  5
57
330
1F
100
AcDbEntity
  8
670
370
     0
100
AcDbLine
 10
751760.442
 20
4175263.628
 30
667.8499755859375
 11
751763.803
 21
4175264.222
 31
667.0919799804688
  0
LINE
  5
58
330
1F
100
AcDbEntity
  8
670
370
     0
100
AcDbLine
 10
751763.429
 20
4175267.346
 30
667.2329711914062
 11
751758.092
 21
4175267.127
 31
668.5180053710938
  0
LINE
  5
59
330
1F
100
AcDbEntity
  8
670
370
     0
100
AcDbLine
 10
751769.159
 20
4175268.379
 30
666.0
 11
751763.429
 21
4175267.346
 31
667.2329711914062
  0
LINE
  5
5A
330
1F
100
AcDbEntity
  8
670
370
     0
100
AcDbLine
 10
751775.634
 20
4175268.806
 30
665.10302734375
 11
751771.813
 21
4175268.696
 31
666.0579833984375
  0
LINE
  5
5B
330
1F
100
AcDbEntity
  8
670
370
     0
100
AcDbLine
 10
751763.803
 20
4175264.222
 30
667.0919799804688
 11
751767.784
 21
4175264.673
 31
666.2999877929688
  0
LINE
  5
5C
330
1F
100
AcDbEntity
  8
670
370
     0
100
AcDbLine
 10
751767.784
 20
4175264.673
 30
666.2999877929688
 11
751771.969
 21
4175265.164
 31
666.0670166015625
  0
LINE
  5
5D
330
1F
100
AcDbEntity
  8
670
370
     0
100
AcDbLine
 10
751771.969
 20
4175265.164
 30
666.0670166015625
 11
751775.019
 21
4175265.566
 31
665.156005859375
  0
LINE
  5
5E
330
1F
100
AcDbEntity
  8
670
370
     0
100
AcDbLine
 10
751771.813
 20
4175268.696
 30
666.0579833984375
 11
751769.159
 21
4175268.379
 31
666.0
  0
LINE
  5
5F
330
1F
100
AcDbEntity
  8
670
370
     0
100
AcDbLine
 10
751787.9414585889
 20
4175269.625070502
 30
662.6500244140625
 11
751785.072
 21
4175269.482
 31
662.6119995117188
  0
LINE
  5
60
330
1F
100
AcDbEntity
  8
670
370
     0
100
AcDbLine
 10
751775.019
 20
4175265.566
 30
665.156005859375
 11
751779.1872551662
 21
4175265.547821643
 31
663.864990234375
  0
LINE
  5
61
330
1F
100
AcDbEntity
  8
670
370
     0
100
AcDbLine
 10
751779.1872551662
 20
4175265.547821643
 30
663.864990234375
 11
751780.624
 21
4175265.981
 31
663.0759887695312
  0
LINE
  5
62
330
1F
100
AcDbEntity
  8
670
370
     0
100
AcDbLine
 10
751780.624
 20
4175265.981
 30
663.0759887695312
 11
751779.755
 21
4175262.446
 31
661.89599609375
  0
LINE
  5
63
330
1F
100
AcDbEntity
  8
670
370
     0
100
AcDbLine
 10
751784.492
 20
4175265.575
 30
662.4310302734375
 11
751789.068
 21
4175265.98
 31
662.6500244140625
  0
LINE
  5
64
330
1F
100
AcDbEntity
  8
670
370
     0
100
AcDbLine
 10
751784.943
 20
4175270.566
 30
662.9739990234375
 11
751784.455
 21
4175272.491
 31
662.9739990234375
  0
LINE
  5
65
330
1F
100
AcDbEntity
  8
670
370
     0
100
AcDbLine
 10
751784.455
 20
4175272.491
 30
662.9739990234375
 11
751784.756
 21
4175274.026
 31
662.6820068359375
  0
LINE
  5
66
330
1F
100
AcDbEntity
  8
670
370
     0
100
AcDbLine
 10
751784.756
 20
4175274.026
 30
662.6820068359375
 11
751787.742
 21
4175276.434
 31
662.7459716796875
  0
LINE
  5
67
330
1F
100
AcDbEntity
  8
670
370
     0
100
AcDbLine
 10
751784.501
 20
4175279.187
 30
662.7459716796875
 11
751781.574
 21
4175276.245
 31
662.6820068359375
  0
LINE
  5
68
330
1F
100
AcDbEntity
  8
670
370
     0
100
AcDbLine
 10
751781.574
 20
4175276.245
 30
662.6820068359375
 11
751780.336
 21
4175272.5
 31
662.9739990234375
  0
LINE
  5
69
330
1F
100
AcDbEntity
  8
670
370
     0
100
AcDbLine
 10
751780.336
 20
4175272.5
 30
662.9739990234375
 11
751780.534
 21
4175269.347
 31
662.9739990234375
  0
LINE
  5
6A
330
1F
100
AcDbEntity
  8
670
370
     0
100
AcDbLine
 10
751780.534
 20
4175269.347
 30
662.9739990234375
 11
751780.2645069974
 21
4175268.761152633
 31
663.0700073242188
  0
LINE
  5
6B
330
1F
100
AcDbEntity
  8
670
370
     0
100
AcDbLine
 10
751780.2645069974
 20
4175268.761152633
 30
663.0700073242188
 11
751775.634
 21
4175268.806
 31
665.10302734375
  0
LINE
  5
6C
330
1F
100
AcDbEntity
  8
670
370
     0
100
AcDbLine
 10
751789.761
 20
4175277.997
 30
662.75
 11
751790.2604186242
 21
4175280.364268661
 31
662.4219970703125
  0
LINE
  5
6D
330
1F
100
AcDbEntity
  8
670
370
     0
100
AcDbLine
 10
751787.973
 20
4175282.417
 30
662.6849975585938
 11
751786.8476635311
 21
4175280.962003111
 31
662.5750122070312
  0
LINE
  5
6E
330
1F
100
AcDbEntity
  8
670
370
     0
100
AcDbLine
 10
751786.8476635311
 20
4175280.962003111
 30
662.5750122070312
 11
751784.501
 21
4175279.187
 31
662.7459716796875
  0
LINE
  5
6F
330
1F
100
AcDbEntity
  8
670
370
     0
100
AcDbLine
 10
751790.2604186242
 20
4175280.364268661
 30
662.4219970703125
 11
751791.673
 21
4175283.019
 31
662.7030029296875
  0
LINE
  5
70
330
1F
100
AcDbEntity
  8
670
370
     0
100
AcDbLine
 10
751789.068
 20
4175265.98
 30
662.6500244140625
 11
751792.105
 21
4175266.099
 31
662.5139770507812
  0
LINE
  5
71
330
1F
100
AcDbEntity
  8
670
370
     0
100
AcDbLine
 10
751795.954
 20
4175265.844
 30
662.60302734375
 11
751800.169
 21
4175265.9
 31
662.677001953125
  0
LINE
  5
72
330
1F
100
AcDbEntity
  8
670
370
     0
100
AcDbLine
 10
751800.364
 20
4175269.893
 30
662.677001953125
 11
751795.977
 21
4175269.682
 31
662.6069946289062
  0
LINE
  5
73
330
1F
100
AcDbEntity
  8
670
370
     0
100
AcDbLine
 10
751792.249
 20
4175270.043
 30
662.6489868164062
 11
751787.9414585889
 21
4175269.625070502
 31
662.6500244140625
  0
LINE
  5
74
330
1F
100
AcDbEntity
  8
670
370
     0
100
AcDbLine
 10
751785.072
 20
4175269.482
 30
662.6119995117188
 11
751784.943
 21
4175270.566
 31
662.9739990234375
  0
LINE
  5
75
330
1F
100
AcDbEntity
  8
670
370
     0
100
AcDbLine
 10
751804.131
 20
4175270.221
 30
662.2620239257812
 11
751800.364
 21
4175269.893
 31
662.677001953125
  0
LINE
  5
76
330
1F
100
AcDbEntity
  8
670
370
     0
100
AcDbLine
 10
751805.304
 20
4175271.49
 30
662.1199951171875
 11
751804.131
 21
4175270.221
 31
662.2620239257812
  0
LINE
  5
77
330
1F
100
AcDbEntity
  8
670
370
     0
100
AcDbLine
 10
751808.444
 20
4175268.991
 30
662.1209716796875
 11
751811.7491961225
 21
4175272.243522944
 31
661.9580078125
  0
LINE
  5
78
330
1F
100
AcDbEntity
  8
670
370
     0
100
AcDbLine
 10
751809.509
 20
4175275.428
 30
661.9580078125
 11
751805.304
 21
4175271.49
 31
662.1199951171875
  0
LINE
  5
79
330
1F
100
AcDbEntity
  8
670
370
     0
100
AcDbLine
 10
751811.7491961225
 20
4175272.243522944
 30
661.9580078125
 11
751815.574
 21
4175275.151
 31
662.1799926757812
  0
LINE
  5
7A
330
1F
100
AcDbEntity
  8
670
370
     0
100
AcDbLine
 10
751813.901
 20
4175278.018
 30
662.1799926757812
 11
751809.509
 21
4175275.428
 31
661.9580078125
  0
LINE
  5
7B
330
1F
100
AcDbEntity
  8
670
370
     0
100
AcDbLine
 10
751815.574
 20
4175275.151
 30
662.1799926757812
 11
751822.679
 21
4175278.983
 31
662.1199951171875
  0
LINE
  5
7C
330
1F
100
AcDbEntity
  8
670
370
     0
100
AcDbLine
 10
751826.549
 20
4175280.722
 30
662.1199951171875
 11
751833.062
 21
4175283.781
 31
662.1199951171875
  0
LINE
  5
7D
330
1F
100
AcDbEntity
  8
670
370
     0
100
AcDbLine
 10
751833.062
 20
4175283.781
 30
662.1199951171875
 11
751834.5611506003
 21
4175284.528334458
 31
662.1199951171875
  0
LINE
  5
7E
330
1F
100
AcDbEntity
  8
670
370
     0
100
AcDbLine
 10
751821.255
 20
4175281.92
 30
662.1199951171875
 11
751815.458
 21
4175278.99
 31
662.1199951171875
  0
LINE
  5
7F
330
1F
100
AcDbEntity
  8
670
370
     0
100
AcDbLine
 10
751815.458
 20
4175278.99
 30
662.1199951171875
 11
751813.901
 21
4175278.018
 31
662.1799926757812
  0
LINE
  5
80
330
1F
100
AcDbEntity
  8
670
370
     0
100
AcDbLine
 10
751831.3740547224
 20
4175287.226691258
 30
662.1199951171875
 11
751825.021
 21
4175283.962
 31
662.1199951171875
  0
LINE
  5
81
330
1F
100
AcDbEntity
  8
670
370
     0
100
AcDbLine
 10
751792.105
 20
4175266.099
 30
662.5139770507812
 11
751795.954
 21
4175265.844
 31
662.60302734375
  0
LINE
  5
82
330
1F
100
AcDbEntity
  8
670
370
     0
100
AcDbLine
 10
751795.977
 20
4175269.682
 30
662.6069946289062
 11
751792.249
 21
4175270.043
 31
662.6489868164062
  0
LINE
  5
83
330
1F
100
AcDbEntity
  8
670
370
     0
100
AcDbLine
 10
751834.5611506003
 20
4175284.528334458
 30
662.1199951171875
 11
751836.174
 21
4175285.979
 31
662.7780151367188
  0
LINE
  5
84
330
1F
100
AcDbEntity
  8
670
370
     0
100
AcDbLine
 10
751836.174
 20
4175285.979
 30
662.7780151367188
 11
751836.997
 21
4175287.245
 31
662.8820190429688
  0
LINE
  5
85
330
1F
100
AcDbEntity
  8
670
370
     0
100
AcDbLine
 10
751836.997
 20
4175287.245
 30
662.8820190429688
 11
751837.966
 21
4175288.775
 31
662.9080200195312
  0
LINE
  5
86
330
1F
100
AcDbEntity
  8
670
370
     0
100
AcDbLine
 10
751837.966
 20
4175288.775
 30
662.9080200195312
 11
751838.949
 21
4175290.395
 31
662.9190063476562
  0
LINE
  5
87
330
1F
100
AcDbEntity
  8
670
370
     0
100
AcDbLine
 10
751834.921
 20
4175290.448
 30
662.8590087890625
 11
751834.198
 21
4175289.123
 31
662.8319702148438
  0
LINE
  5
88
330
1F
100
AcDbEntity
  8
670
370
     0
100
AcDbLine
 10
751834.198
 20
4175289.123
 30
662.8319702148438
 11
751833.433
 21
4175288.516
 31
662.6370239257812
  0
LINE
  5
89
330
1F
100
AcDbEntity
  8
670
370
     0
100
AcDbLine
 10
751833.433
 20
4175288.516
 30
662.6370239257812
 11
751831.3740547224
 21
4175287.226691258
 31
662.1199951171875
  0
LINE
  5
8A
330
1F
100
AcDbEntity
  8
670
370
     0
100
AcDbLine
 10
751807.2635061869
 20
4175268.369479295
 30
662.3389892578125
 11
751808.444
 21
4175268.991
 31
662.1209716796875
  0
LINE
  5
8B
330
1F
100
AcDbEntity
  8
670
370
     0
100
AcDbLine
 10
751800.169
 20
4175265.9
 30
662.677001953125
 11
751803.734
 21
4175266.441
 31
662.3369750976562
  0
LINE
  5
8C
330
1F
100
AcDbEntity
  8
670
370
     0
100
AcDbLine
 10
751822.679
 20
4175278.983
 30
662.1199951171875
 11
751826.549
 21
4175280.722
 31
662.1199951171875
  0
LINE
  5
8D
330
1F
100
AcDbEntity
  8
670
370
     0
100
AcDbLine
 10
751825.021
 20
4175283.962
 30
662.1199951171875
 11
751821.255
 21
4175281.92
 31
662.1199951171875
  0
LINE
  5
8E
330
1F
100
AcDbEntity
  8
670
370
     0
100
AcDbLine
 10
751839.998
 20
4175291.928
 30
663.0590209960938
 11
751841.21
 21
4175294.418
 31
663.1370239257812
  0
LINE
  5
8F
330
1F
100
AcDbEntity
  8
670
370
     0
100
AcDbLine
 10
751841.21
 20
4175294.418
 30
663.1370239257812
 11
751841.533
 21
4175295.895
 31
663.2130126953125
  0
LINE
  5
90
330
1F
100
AcDbEntity
  8
670
370
     0
100
AcDbLine
 10
751838.047
 20
4175297.618
 30
663.1630249023438
 11
751837.473
 21
4175295.914
 31
662.9970092773438
  0
LINE
  5
91
330
1F
100
AcDbEntity
  8
670
370
     0
100
AcDbLine
 10
751837.473
 20
4175295.914
 30
662.9970092773438
 11
751836.639
 21
4175293.713
 31
662.9920043945312
  0
LINE
  5
92
330
1F
100
AcDbEntity
  8
670
370
     0
100
AcDbLine
 10
751836.639
 20
4175293.713
 30
662.9920043945312
 11
751834.921
 21
4175290.448
 31
662.8590087890625
  0
LINE
  5
93
330
1F
100
AcDbEntity
  8
670
370
     0
100
AcDbLine
 10
751803.734
 20
4175266.441
 30
662.3369750976562
 11
751807.378
 21
4175263.222
 31
662.6909790039062
  0
LINE
  5
94
330
1F
100
AcDbEntity
  8
670
370
     0
100
AcDbLine
 10
751810.343
 20
4175261.998
 30
662.7239990234375
 11
751817.308
 21
4175260.386
 31
662.6690063476562
  0
LINE
  5
95
330
1F
100
AcDbEntity
  8
670
370
     0
100
AcDbLine
 10
751818.27
 20
4175263.844
 30
662.7509765625
 11
751811.39
 21
4175265.837
 31
662.4869995117188
  0
LINE
  5
96
330
1F
100
AcDbEntity
  8
670
370
     0
100
AcDbLine
 10
751809.549
 20
4175266.733
 30
662.469970703125
 11
751807.2635061869
 21
4175268.369479295
 31
662.3389892578125
  0
LINE
  5
97
330
1F
100
AcDbEntity
  8
670
370
     0
100
AcDbLine
 10
751817.308
 20
4175260.386
 30
662.6690063476562
 11
751823.177
 21
4175259.133
 31
662.8200073242188
  0
LINE
  5
98
330
1F
100
AcDbEntity
  8
670
370
     0
100
AcDbLine
 10
751824.7840200341
 20
4175262.419904444
 30
662.8200073242188
 11
751818.27
 21
4175263.844
 31
662.7509765625
  0
LINE
  5
99
330
1F
100
AcDbEntity
  8
670
370
     0
100
AcDbLine
 10
751823.177
 20
4175259.133
 30
662.8200073242188
 11
751825.468045764
 21
4175258.563090074
 31
663.2219848632812
  0
LINE
  5
9A
330
1F
100
AcDbEntity
  8
670
370
     0
100
AcDbLine
 10
751826.253
 20
4175261.673
 30
663.1309814453125
 11
751824.7840200341
 21
4175262.419904444
 31
662.8200073242188
  0
LINE
  5
9B
330
1F
100
AcDbEntity
  8
670
370
     0
100
AcDbLine
 10
751825.468045764
 20
4175258.563090074
 30
663.2219848632812
 11
751829.3222674713
 21
4175257.001636152
 31
663.2990112304688
  0
LINE
  5
9C
330
1F
100
AcDbEntity
  8
670
370
     0
100
AcDbLine
 10
751830.7591499834
 20
4175259.733744556
 30
663.2990112304688
 11
751826.253
 21
4175261.673
 31
663.1309814453125
  0
LINE
  5
9D
330
1F
100
AcDbEntity
  8
670
370
     0
100
AcDbLine
 10
751829.3222674713
 20
4175257.001636152
 30
663.2990112304688
 11
751830.9992240759
 21
4175256.394620095
 31
663.5460205078125
  0
LINE
  5
9E
330
1F
100
AcDbEntity
  8
670
370
     0
100
AcDbLine
 10
751833.54
 20
4175258.963
 30
663.5430297851562
 11
751830.7591499834
 21
4175259.733744556
 31
663.2990112304688
  0
LINE
  5
9F
330
1F
100
AcDbEntity
  8
670
370
     0
100
AcDbLine
 10
751830.9992240759
 20
4175256.394620095
 30
663.5460205078125
 11
751837.7
 21
4175253.111
 31
663.4819946289062
  0
LINE
  5
A0
330
1F
100
AcDbEntity
  8
670
370
     0
100
AcDbLine
 10
751807.378
 20
4175263.222
 30
662.6909790039062
 11
751810.343
 21
4175261.998
 31
662.7239990234375
  0
LINE
  5
A1
330
1F
100
AcDbEntity
  8
670
370
     0
100
AcDbLine
 10
751811.39
 20
4175265.837
 30
662.4869995117188
 11
751809.549
 21
4175266.733
 31
662.469970703125
  0
LINE
  5
A2
330
1F
100
AcDbEntity
  8
670
370
     0
100
AcDbLine
 10
751837.7
 20
4175253.111
 30
663.4819946289062
 11
751839.6986760899
 21
4175251.243073617
 31
663.7329711914062
  0
LINE
  5
A3
330
1F
100
AcDbEntity
  8
670
370
     0
100
AcDbLine
 10
751839.6986760899
 20
4175251.243073617
 30
663.7329711914062
 11
751842.346
 21
4175250.446
 31
663.7109985351562
  0
LINE
  5
A4
330
1F
100
AcDbEntity
  8
670
370
     0
100
AcDbLine
 10
751843.0571549629
 20
4175255.018618494
 30
663.4669799804688
 11
751840.17
 21
4175256.437
 31
663.4990234375
  0
LINE
  5
A5
330
1F
100
AcDbEntity
  8
670
370
     0
100
AcDbLine
 10
751840.17
 20
4175256.437
 30
663.4990234375
 11
751838.7844747307
 21
4175256.652478689
 31
663.4810180664062
  0
LINE
  5
A6
330
1F
100
AcDbEntity
  8
670
370
     0
100
AcDbLine
 10
751838.7844747307
 20
4175256.652478689
 30
663.4810180664062
 11
751833.54
 21
4175258.963
 31
663.5430297851562
  0
LINE
  5
A7
330
1F
100
AcDbEntity
  8
670
370
     0
100
AcDbLine
 10
751841.533
 20
4175295.895
 30
663.2130126953125
 11
751841.477
 21
4175298.133
 31
663.4000244140625
  0
LINE
  5
A8
330
1F
100
AcDbEntity
  8
670
370
     0
100
AcDbLine
 10
751841.477
 20
4175298.133
 30
663.4000244140625
 11
751841.14
 21
4175300.238
 31
663.4000244140625
  0
LINE
  5
A9
330
1F
100
AcDbEntity
  8
670
370
     0
100
AcDbLine
 10
751841.14
 20
4175300.238
 30
663.4000244140625
 11
751840.9019420596
 21
4175301.835212507
 31
663.4000244140625
  0
LINE
  5
AA
330
1F
100
AcDbEntity
  8
670
370
     0
100
AcDbLine
 10
751840.9019420596
 20
4175301.835212507
 30
663.4000244140625
 11
751839.77
 21
4175304.887
 31
663.9530029296875
  0
LINE
  5
AB
330
1F
100
AcDbEntity
  8
670
370
     0
100
AcDbLine
 10
751839.77
 20
4175304.887
 30
663.9530029296875
 11
751838.793
 21
4175306.817
 31
663.6380004882812
  0
LINE
  5
AC
330
1F
100
AcDbEntity
  8
670
370
     0
100
AcDbLine
 10
751838.793
 20
4175306.817
 30
663.6380004882812
 11
751837.665
 21
4175309.879
 31
663.6669921875
  0
LINE
  5
AD
330
1F
100
AcDbEntity
  8
670
370
     0
100
AcDbLine
 10
751837.665
 20
4175309.879
 30
663.6669921875
 11
751837.0254634641
 21
4175311.496580934
 31
663.6669921875
  0
LINE
  5
AE
330
1F
100
AcDbEntity
  8
670
370
     0
100
AcDbLine
 10
751838.949
 20
4175290.395
 30
662.9190063476562
 11
751839.998
 21
4175291.928
 31
663.0590209960938
  0
LINE
  5
AF
330
1F
100
AcDbEntity
  8
670
370
     0
100
AcDbLine
 10
751831.342
 20
4175312.195
 30
663.22998046875
 11
751831.808
 21
4175308.568
 31
663.22998046875
  0
LINE
  5
B0
330
1F
100
AcDbEntity
  8
670
370
     0
100
AcDbLine
 10
751831.808
 20
4175308.568
 30
663.22998046875
 11
751834.26
 21
4175308.339
 31
663.22998046875
  0
LINE
  5
B1
330
1F
100
AcDbEntity
  8
670
370
     0
100
AcDbLine
 10
751788.41
 20
4175283.913
 30
663.072021484375
 11
751787.973
 21
4175282.417
 31
662.6849975585938
  0
LINE
  5
B2
330
1F
100
AcDbEntity
  8
670
370
     0
100
AcDbLine
 10
751836.898
 20
4175315.008
 30
665.2020263671875
 11
751836.527
 21
4175318.111
 31
664.4349975585938
  0
LINE
  5
B3
330
1F
100
AcDbEntity
  8
670
370
     0
100
AcDbLine
 10
751836.527
 20
4175318.111
 30
664.4349975585938
 11
751835.988
 21
4175320.661
 31
664.93701171875
  0
LINE
  5
B4
330
1F
100
AcDbEntity
  8
670
370
     0
100
AcDbLine
 10
751835.988
 20
4175320.661
 30
664.93701171875
 11
751835.402
 21
4175323.63
 31
665.5289916992188
  0
LINE
  5
B5
330
1F
100
AcDbEntity
  8
670
370
     0
100
AcDbLine
 10
751831.9393051984
 20
4175320.645357533
 30
665.1129760742188
 11
751833.07
 21
4175316.388
 31
664.4810180664062
  0
LINE
  5
B6
330
1F
100
AcDbEntity
  8
670
370
     0
100
AcDbLine
 10
751833.07
 20
4175316.388
 30
664.4810180664062
 11
751833.093
 21
4175313.265
 31
664.1079711914062
  0
LINE
  5
B7
330
1F
100
AcDbEntity
  8
670
370
     0
100
AcDbLine
 10
751837.3096318748
 20
4175310.451668703
 30
663.6669921875
 11
751836.898
 21
4175315.008
 31
665.2020263671875
  0
LINE
  5
B8
330
1F
100
AcDbEntity
  8
670
370
     0
100
AcDbLine
 10
751835.402
 20
4175323.63
 30
665.5289916992188
 11
751834.647
 21
4175326.722
 31
666.6190185546875
  0
LINE
  5
B9
330
1F
100
AcDbEntity
  8
670
370
     0
100
AcDbLine
 10
751834.647
 20
4175326.722
 30
666.6190185546875
 11
751833.675
 21
4175330.595
 31
667.0689697265625
  0
LINE
  5
BA
330
1F
100
AcDbEntity
  8
670
370
     0
100
AcDbLine
 10
751833.675
 20
4175330.595
 30
667.0689697265625
 11
751833.367
 21
4175332.729
 31
667.1199951171875
  0
LINE
  5
BB
330
1F
100
AcDbEntity
  8
670
370
     0
100
AcDbLine
 10
751827.798
 20
4175332.848
 30
666.8469848632812
 11
751825.165
 21
4175331.244
 31
667.0239868164062
  0
LINE
  5
BC
330
1F
100
AcDbEntity
  8
670
370
     0
100
AcDbLine
 10
751825.165
 20
4175331.244
 30
667.0239868164062
 11
751823.239
 21
4175329.839
 31
666.72900390625
  0
LINE
  5
BD
330
1F
100
AcDbEntity
  8
670
370
     0
100
AcDbLine
 10
751823.498
 20
4175325.95
 30
667.2650146484375
 11
751824.61
 21
4175326.83
 31
666.8189697265625
  0
LINE
  5
BE
330
1F
100
AcDbEntity
  8
670
370
     0
100
AcDbLine
 10
751824.61
 20
4175326.83
 30
666.8189697265625
 11
751829.074
 21
4175329.643
 31
666.9039916992188
  0
LINE
  5
BF
330
1F
100
AcDbEntity
  8
670
370
     0
100
AcDbLine
 10
751829.074
 20
4175329.643
 30
666.9039916992188
 11
751830.613
 21
4175330.249
 31
666.9849853515625
  0
LINE
  5
C0
330
1F
100
AcDbEntity
  8
670
370
     0
100
AcDbLine
 10
751830.613
 20
4175330.249
 30
666.9849853515625
 11
751830.929
 21
4175328.39
 31
666.7750244140625
  0
LINE
  5
C1
330
1F
100
AcDbEntity
  8
670
370
     0
100
AcDbLine
 10
751830.929
 20
4175328.39
 30
666.7750244140625
 11
751831.9393051984
 21
4175320.645357533
 31
665.1129760742188
  0
LINE
  5
C2
330
1F
100
AcDbEntity
  8
670
370
     0
100
AcDbLine
 10
751787.742
 20
4175276.434
 30
662.7459716796875
 11
751789.761
 21
4175277.997
 31
662.75
  0
LINE
  5
C3
330
1F
100
AcDbEntity
  8
670
370
     0
100
AcDbLine
 10
751823.239
 20
4175329.839
 30
666.72900390625
 11
751821.577
 21
4175329.17
 31
667.2940063476562
  0
LINE
  5
C4
330
1F
100
AcDbEntity
  8
670
370
     0
100
AcDbLine
 10
751821.577
 20
4175329.17
 30
667.2940063476562
 11
751820.464
 21
4175328.367
 31
667.375
  0
LINE
  5
C6
330
1F
100
AcDbEntity
  8
670
370
     0
100
AcDbLine
 10
751811.8711966028
 20
4175319.732099074
 30
667.9559936523438
 11
751815.012
 21
4175321.993
 31
667.3720092773438
  0
LINE
  5
C7
330
1F
100
AcDbEntity
  8
670
370
     0
100
AcDbLine
 10
751815.012
 20
4175321.993
 30
667.3720092773438
 11
751819.811
 21
4175324.009
 31
667.4180297851562
  0
LINE
  5
C8
330
1F
100
AcDbEntity
  8
670
370
     0
100
AcDbLine
 10
751819.811
 20
4175324.009
 30
667.4180297851562
 11
751823.498
 21
4175325.95
 31
667.2650146484375
  0
LINE
  5
C9
330
1F
100
AcDbEntity
  8
670
370
     0
100
AcDbLine
 10
751809.581
 20
4175323.125
 30
667.6669921875
 11
751808.625
 21
4175321.713
 31
667.7059936523438
  0
LINE
  5
CA
330
1F
100
AcDbEntity
  8
670
370
     0
100
AcDbLine
 10
751808.625
 20
4175321.713
 30
667.7059936523438
 11
751807.115
 21
4175318.753
 31
667.9000244140625
  0
LINE
  5
CB
330
1F
100
AcDbEntity
  8
670
370
     0
100
AcDbLine
 10
751807.115
 20
4175318.753
 30
667.9000244140625
 11
751806.308
 21
4175316.303
 31
667.9000244140625
  0
LINE
  5
CC
330
1F
100
AcDbEntity
  8
670
370
     0
100
AcDbLine
 10
751808.442
 20
4175312.306
 30
667.9000244140625
 11
751810.586
 21
4175318.015
 31
667.5869750976562
  0
LINE
  5
CD
330
1F
100
AcDbEntity
  8
670
370
     0
100
AcDbLine
 10
751810.586
 20
4175318.015
 30
667.5869750976562
 11
751811.8711966028
 21
4175319.732099074
 31
667.9559936523438
  0
LINE
  5
CE
330
1F
100
AcDbEntity
  8
670
370
     0
100
AcDbLine
 10
751806.308
 20
4175316.303
 30
667.9000244140625
 11
751805.419
 21
4175314.876
 31
667.6229858398438
  0
LINE
  5
CF
330
1F
100
AcDbEntity
  8
670
370
     0
100
AcDbLine
 10
751805.821
 20
4175310.992
 30
667.6840209960938
 11
751808.442
 21
4175312.306
 31
667.9000244140625
  0
LINE
  5
D0
330
1F
100
AcDbEntity
  8
670
370
     0
100
AcDbLine
 10
751805.419
 20
4175314.876
 30
667.6229858398438
 11
751802.211
 21
4175312.953
 31
667.5700073242188
  0
LINE
  5
D1
330
1F
100
AcDbEntity
  8
670
370
     0
100
AcDbLine
 10
751802.211
 20
4175312.953
 30
667.5700073242188
 11
751798.1742726616
 21
4175311.105655664
 31
667.7410278320312
  0
LINE
  5
D2
330
1F
100
AcDbEntity
  8
670
370
     0
100
AcDbLine
 10
751798.1742726616
 20
4175311.105655664
 30
667.7410278320312
 11
751799.0676917941
 21
4175307.988536248
 31
667.468017578125
  0
LINE
  5
D3
330
1F
100
AcDbEntity
  8
670
370
     0
100
AcDbLine
 10
751799.0676917941
 20
4175307.988536248
 30
667.468017578125
 11
751805.821
 21
4175310.992
 31
667.6840209960938
  0
LINE
  5
D4
330
1F
100
AcDbEntity
  8
670
370
     0
100
AcDbLine
 10
751842.346
 20
4175250.446
 30
663.7109985351562
 11
751843.493
 21
4175250.414
 31
663.8679809570312
  0
LINE
  5
D5
330
1F
100
AcDbEntity
  8
670
370
     0
100
AcDbLine
 10
751843.493
 20
4175250.414
 30
663.8679809570312
 11
751846.097
 21
4175250.075
 31
663.6279907226562
  0
LINE
  5
D6
330
1F
100
AcDbEntity
  8
670
370
     0
100
AcDbLine
 10
751843.83
 20
4175254.16
 30
663.489013671875
 11
751843.0571549629
 21
4175255.018618494
 31
663.4669799804688
  0
LINE
  5
D7
330
1F
100
AcDbEntity
  8
670
370
     0
100
AcDbLine
 10
751798.1742726616
 20
4175311.105655664
 30
667.7410278320312
 11
751791.558
 21
4175307.773
 31
667.9500122070312
  0
LINE
  5
D8
330
1F
100
AcDbEntity
  8
670
370
     0
100
AcDbLine
 10
751791.558
 20
4175307.773
 30
667.9500122070312
 11
751789.118
 21
4175305.977
 31
667.89599609375
  0
LINE
  5
D9
330
1F
100
AcDbEntity
  8
670
370
     0
100
AcDbLine
 10
751789.118
 20
4175305.977
 30
667.89599609375
 11
751787.946
 21
4175304.732
 31
667.9539794921875
  0
LINE
  5
DA
330
1F
100
AcDbEntity
  8
670
370
     0
100
AcDbLine
 10
751787.946
 20
4175304.732
 30
667.9539794921875
 11
751786.616
 21
4175303.452
 31
667.7000122070312
  0
LINE
  5
DB
330
1F
100
AcDbEntity
  8
670
370
     0
100
AcDbLine
 10
751788.8123865394
 20
4175301.441184364
 30
667.7949829101562
 11
751794.313
 21
4175304.702
 31
667.927001953125
  0
LINE
  5
DC
330
1F
100
AcDbEntity
  8
670
370
     0
100
AcDbLine
 10
751794.313
 20
4175304.702
 30
667.927001953125
 11
751799.0676917941
 21
4175307.988536248
 31
667.468017578125
  0
LINE
  5
DD
330
1F
100
AcDbEntity
  8
670
370
     0
100
AcDbLine
 10
751786.369
 20
4175299.303
 30
667.9840087890625
 11
751788.8123865394
 21
4175301.441184364
 31
667.7949829101562
  0
LINE
  5
DE
330
1F
100
AcDbEntity
  8
670
370
     0
100
AcDbLine
 10
751816.633
 20
4175327.624
 30
667.4000244140625
 11
751816.506
 21
4175328.877
 31
667.4000244140625
  0
LINE
  5
DF
330
1F
100
AcDbEntity
  8
670
370
     0
100
AcDbLine
 10
751816.506
 20
4175328.877
 30
667.4000244140625
 11
751815.433
 21
4175329.07
 31
667.4000244140625
  0
LINE
  5
E0
330
1F
100
AcDbEntity
  8
670
370
     0
100
AcDbLine
 10
751815.433
 20
4175329.07
 30
667.4000244140625
 11
751815.216
 21
4175329.401
 31
667.4000244140625
  0
LINE
  5
E1
330
1F
100
AcDbEntity
  8
670
370
     0
100
AcDbLine
 10
751815.216
 20
4175329.401
 30
667.4000244140625
 11
751813.838
 21
4175329.054
 31
667.4000244140625
  0
LINE
  5
E2
330
1F
100
AcDbEntity
  8
670
370
     0
100
AcDbLine
 10
751813.838
 20
4175329.054
 30
667.4000244140625
 11
751811.49
 21
4175328.707
 31
667.4000244140625
  0
LINE
  5
E3
330
1F
100
AcDbEntity
  8
670
370
     0
100
AcDbLine
 10
751811.49
 20
4175328.707
 30
667.4000244140625
 11
751813.656
 21
4175326.176
 31
667.4000244140625
  0
LINE
  5
E4
330
1F
100
AcDbEntity
  8
670
370
     0
100
AcDbLine
 10
751808.9497368018
 20
4175325.973180966
 30
668.3099975585938
 11
751809.649
 21
4175323.052
 31
667.7620239257812
  0
LINE
  5
E5
330
1F
100
AcDbEntity
  8
670
370
     0
100
AcDbLine
 10
751820.464
 20
4175328.367
 30
667.375
 11
751816.633
 21
4175327.624
 31
667.4000244140625
  0
LINE
  5
E6
330
1F
100
AcDbEntity
  8
670
370
     0
100
AcDbLine
 10
751813.4488128986
 20
4175325.981762093
 30
667.4000244140625
 11
751811.5978917418
 21
4175328.122679472
 31
667.4000244140625
  0
LINE
  5
E7
330
1F
100
AcDbEntity
  8
670
370
     0
100
AcDbLine
 10
751811.5978917418
 20
4175328.122679472
 30
667.4000244140625
 11
751808.9497368018
 21
4175325.973180966
 31
668.3099975585938
  0
LINE
  5
E8
330
1F
100
AcDbEntity
  8
670
370
     0
100
AcDbLine
 10
751846.097
 20
4175250.075
 30
663.6279907226562
 11
751846.997
 21
4175249.876
 31
663.8690185546875
  0
LINE
  5
E9
330
1F
100
AcDbEntity
  8
670
370
     0
100
AcDbLine
 10
751847.6402801499
 20
4175252.909558897
 30
664.239013671875
 11
751843.83
 21
4175254.16
 31
663.489013671875
  0
LINE
  5
EB
330
1F
100
AcDbEntity
  8
670
370
     0
100
AcDbLine
 10
751846.997
 20
4175249.876
 30
663.8690185546875
 11
751850.872
 21
4175249.258
 31
663.4019775390625
  0
LINE
  5
EC
330
1F
100
AcDbEntity
  8
670
370
     0
100
AcDbLine
 10
751850.872
 20
4175249.258
 30
663.4019775390625
 11
751854.617
 21
4175248.139
 31
663.5910034179688
  0
LINE
  5
ED
330
1F
100
AcDbEntity
  8
670
370
     0
100
AcDbLine
 10
751855.152
 20
4175251.65
 30
663.6060180664062
 11
751851.811
 21
4175252.321
 31
663.6160278320312
  0
LINE
  5
EE
330
1F
100
AcDbEntity
  8
670
370
     0
100
AcDbLine
 10
751851.811
 20
4175252.321
 30
663.6160278320312
 11
751847.6402801499
 21
4175252.909558897
 31
664.239013671875
  0
LINE
  5
EF
330
1F
100
AcDbEntity
  8
670
370
     0
100
AcDbLine
 10
751854.617
 20
4175248.139
 30
663.5910034179688
 11
751855.115
 21
4175247.97
 31
663.510009765625
  0
LINE
  5
F0
330
1F
100
AcDbEntity
  8
670
370
     0
100
AcDbLine
 10
751855.115
 20
4175247.97
 30
663.510009765625
 11
751857.95
 21
4175247.272
 31
663.510009765625
  0
LINE
  5
F1
330
1F
100
AcDbEntity
  8
670
370
     0
100
AcDbLine
 10
751857.127
 20
4175250.834
 30
663.510009765625
 11
751855.152
 21
4175251.65
 31
663.6060180664062
  0
LINE
  5
F2
330
1F
100
AcDbEntity
  8
670
370
     0
100
AcDbLine
 10
751857.838
 20
4175250.552
 30
663.56201171875
 11
751857.127
 21
4175250.834
 31
663.510009765625
  0
LINE
  5
F3
330
1F
100
AcDbEntity
  8
670
370
     0
100
AcDbLine
 10
751857.95
 20
4175247.272
 30
663.510009765625
 11
751859.703
 21
4175246.383
 31
663.3870239257812
  0
LINE
  5
F4
330
1F
100
AcDbEntity
  8
670
370
     0
100
AcDbLine
 10
751867.790443687
 20
4175246.989856982
 30
663.1309814453125
 11
751862.638
 21
4175248.745
 31
663.2130126953125
  0
LINE
  5
F5
330
1F
100
AcDbEntity
  8
670
370
     0
100
AcDbLine
 10
751862.638
 20
4175248.745
 30
663.2130126953125
 11
751857.838
 21
4175250.552
 31
663.56201171875
  0
LINE
  5
F6
330
1F
100
AcDbEntity
  8
670
370
     0
100
AcDbLine
 10
751786.616
 20
4175303.452
 30
667.7000122070312
 11
751783.339
 21
4175301.541
 31
667.4929809570312
  0
LINE
  5
F7
330
1F
100
AcDbEntity
  8
670
370
     0
100
AcDbLine
 10
751783.339
 20
4175301.541
 30
667.4929809570312
 11
751780.868
 21
4175299.333
 31
667.5440063476562
  0
LINE
  5
F8
330
1F
100
AcDbEntity
  8
670
370
     0
100
AcDbLine
 10
751780.868
 20
4175299.333
 30
667.5440063476562
 11
751776.751
 21
4175295.771
 31
668.2360229492188
  0
LINE
  5
F9
330
1F
100
AcDbEntity
  8
670
370
     0
100
AcDbLine
 10
751782.176
 20
4175296.418
 30
667.85498046875
 11
751786.369
 21
4175299.303
 31
667.9840087890625
  0
LINE
  5
FA
330
1F
100
AcDbEntity
  8
670
370
     0
100
AcDbLine
 10
751776.751
 20
4175295.771
 30
668.2360229492188
 11
751773.849
 21
4175292.426
 31
667.5339965820312
  0
LINE
  5
FB
330
1F
100
AcDbEntity
  8
670
370
     0
100
AcDbLine
 10
751773.849
 20
4175292.426
 30
667.5339965820312
 11
751772.769
 21
4175292.257
 31
667.4719848632812
  0
LINE
  5
FC
330
1F
100
AcDbEntity
  8
670
370
     0
100
AcDbLine
 10
751772.769
 20
4175292.257
 30
667.4719848632812
 11
751770.385565319
 21
4175292.411552432
 31
668.0770263671875
  0
LINE
  5
FD
330
1F
100
AcDbEntity
  8
670
370
     0
100
AcDbLine
 10
751770.385
 20
4175289.77
 30
667.8179931640625
 11
751776.0
 21
4175290.393
 31
667.5020141601562
  0
LINE
  5
FE
330
1F
100
AcDbEntity
  8
670
370
     0
100
AcDbLine
 10
751835.242
 20
4175306.221
 30
663.2650146484375
 11
751834.787
 21
4175304.242
 31
663.0560302734375
  0
LINE
  5
FF
330
1F
100
AcDbEntity
  8
670
370
     0
100
AcDbLine
 10
751836.365
 20
4175300.602
 30
663.031005859375
 11
751837.411
 21
4175298.238
 31
663.2449951171875
  0
LINE
  5
100
330
1F
100
AcDbEntity
  8
670
370
     0
100
AcDbLine
 10
751834.26
 20
4175308.339
 30
663.22998046875
 11
751835.242
 21
4175306.221
 31
663.2650146484375
  0
LINE
  5
101
330
1F
100
AcDbEntity
  8
670
370
     0
100
AcDbLine
 10
751837.411
 20
4175298.238
 30
663.2449951171875
 11
751838.047
 21
4175297.618
 31
663.1630249023438
  0
LINE
  5
102
330
1F
100
AcDbEntity
  8
670
370
     0
100
AcDbLine
 10
751770.385565319
 20
4175292.411552432
 30
668.0770263671875
 11
751766.5153808044
 21
4175291.874132108
 31
668.0230102539062
  0
LINE
  5
103
330
1F
100
AcDbEntity
  8
670
370
     0
100
AcDbLine
 10
751766.5153808044
 20
4175291.874132108
 30
668.0230102539062
 11
751764.9413624379
 21
4175290.860357567
 31
668.2589721679688
  0
LINE
  5
104
330
1F
100
AcDbEntity
  8
670
370
     0
100
AcDbLine
 10
751765.2873543375
 20
4175289.112751101
 30
668.3250122070312
 11
751770.385
 21
4175289.77
 31
667.8179931640625
  0
LINE
  5
105
330
1F
100
AcDbEntity
  8
670
370
     0
100
AcDbLine
 10
751764.9413624379
 20
4175290.860357567
 30
668.2589721679688
 11
751764.501
 21
4175290.839
 31
669.2620239257812
  0
LINE
  5
106
330
1F
100
AcDbEntity
  8
670
370
     0
100
AcDbLine
 10
751764.501
 20
4175290.839
 30
669.2620239257812
 11
751763.341
 21
4175291.179
 31
670.3150024414062
  0
LINE
  5
107
330
1F
100
AcDbEntity
  8
670
370
     0
100
AcDbLine
 10
751763.341
 20
4175291.179
 30
670.3150024414062
 11
751761.588
 21
4175291.814
 31
671.8070068359375
  0
LINE
  5
108
330
1F
100
AcDbEntity
  8
670
370
     0
100
AcDbLine
 10
751761.588
 20
4175291.814
 30
671.8070068359375
 11
751761.176
 21
4175291.693
 31
672.2949829101562
  0
LINE
  5
109
330
1F
100
AcDbEntity
  8
670
370
     0
100
AcDbLine
 10
751761.176
 20
4175291.693
 30
672.2949829101562
 11
751759.833
 21
4175291.354
 31
673.3670043945312
  0
LINE
  5
10A
330
1F
100
AcDbEntity
  8
670
370
     0
100
AcDbLine
 10
751759.833
 20
4175291.354
 30
673.3670043945312
 11
751761.273
 21
4175290.534
 31
671.6749877929688
  0
LINE
  5
10B
330
1F
100
AcDbEntity
  8
670
370
     0
100
AcDbLine
 10
751761.273
 20
4175290.534
 30
671.6749877929688
 11
751762.137
 21
4175289.577
 31
670.8729858398438
  0
LINE
  5
10C
330
1F
100
AcDbEntity
  8
670
370
     0
100
AcDbLine
 10
751762.137
 20
4175289.577
 30
670.8729858398438
 11
751763.562
 21
4175289.565
 31
669.8170166015625
  0
LINE
  5
10D
330
1F
100
AcDbEntity
  8
670
370
     0
100
AcDbLine
 10
751763.562
 20
4175289.565
 30
669.8170166015625
 11
751765.2873543375
 21
4175289.112751101
 31
668.3250122070312
  0
LINE
  5
10E
330
1F
100
AcDbEntity
  8
670
370
     0
100
AcDbLine
 10
751859.703
 20
4175246.383
 30
663.3870239257812
 11
751862.749
 21
4175245.107
 31
663.3560180664062
  0
LINE
  5
10F
330
1F
100
AcDbEntity
  8
670
370
     0
100
AcDbLine
 10
751862.749
 20
4175245.107
 30
663.3560180664062
 11
751867.234
 21
4175243.912
 31
663.0369873046875
  0
LINE
  5
110
330
1F
100
AcDbEntity
  8
670
370
     0
100
AcDbLine
 10
751867.234
 20
4175243.912
 30
663.0369873046875
 11
751869.398
 21
4175241.831
 31
662.9400024414062
  0
LINE
  5
111
330
1F
100
AcDbEntity
  8
670
370
     0
100
AcDbLine
 10
751869.398
 20
4175241.831
 30
662.9400024414062
 11
751871.78
 21
4175238.663
 31
662.97998046875
  0
LINE
  5
112
330
1F
100
AcDbEntity
  8
670
370
     0
100
AcDbLine
 10
751875.981
 20
4175238.13
 30
663.10400390625
 11
751873.784
 21
4175241.325
 31
663.0360107421875
  0
LINE
  5
113
330
1F
100
AcDbEntity
  8
670
370
     0
100
AcDbLine
 10
751873.784
 20
4175241.325
 30
663.0360107421875
 11
751871.805
 21
4175243.451
 31
663.0189819335938
  0
LINE
  5
114
330
1F
100
AcDbEntity
  8
670
370
     0
100
AcDbLine
 10
751871.805
 20
4175243.451
 30
663.0189819335938
 11
751869.293
 21
4175245.718
 31
663.2899780273438
  0
LINE
  5
115
330
1F
100
AcDbEntity
  8
670
370
     0
100
AcDbLine
 10
751869.293
 20
4175245.718
 30
663.2899780273438
 11
751867.790443687
 21
4175246.989856982
 31
663.1309814453125
  0
LINE
  5
116
330
1F
100
AcDbEntity
  8
670
370
     0
100
AcDbLine
 10
751871.78
 20
4175238.663
 30
662.97998046875
 11
751873.8
 21
4175235.468
 31
662.9459838867188
  0
LINE
  5
117
330
1F
100
AcDbEntity
  8
670
370
     0
100
AcDbLine
 10
751873.8
 20
4175235.468
 30
662.9459838867188
 11
751875.429
 21
4175233.493
 31
662.843994140625
  0
LINE
  5
118
330
1F
100
AcDbEntity
  8
670
370
     0
100
AcDbLine
 10
751876.565
 20
4175236.784
 30
662.8629760742188
 11
751875.981
 21
4175238.13
 31
663.10400390625
  0
LINE
  5
119
330
1F
100
AcDbEntity
  8
670
370
     0
100
AcDbLine
 10
751875.429
 20
4175233.493
 30
662.843994140625
 11
751876.454
 21
4175232.721
 31
663.0859985351562
  0
LINE
  5
11A
330
1F
100
AcDbEntity
  8
670
370
     0
100
AcDbLine
 10
751876.454
 20
4175232.721
 30
663.0859985351562
 11
751878.707
 21
4175231.454
 31
663.135986328125
  0
LINE
  5
11B
330
1F
100
AcDbEntity
  8
670
370
     0
100
AcDbLine
 10
751878.707
 20
4175231.454
 30
663.135986328125
 11
751882.874
 21
4175229.882
 31
663.5239868164062
  0
LINE
  5
11C
330
1F
100
AcDbEntity
  8
670
370
     0
100
AcDbLine
 10
751882.874
 20
4175229.882
 30
663.5239868164062
 11
751885.554
 21
4175229.519
 31
663.051025390625
  0
LINE
  5
11D
330
1F
100
AcDbEntity
  8
670
370
     0
100
AcDbLine
 10
751886.391
 20
4175232.55
 30
663.0640258789062
 11
751882.673
 21
4175233.505
 31
663.051025390625
  0
LINE
  5
11E
330
1F
100
AcDbEntity
  8
670
370
     0
100
AcDbLine
 10
751882.673
 20
4175233.505
 30
663.051025390625
 11
751879.983
 21
4175234.338
 31
663.0900268554688
  0
LINE
  5
11F
330
1F
100
AcDbEntity
  8
670
370
     0
100
AcDbLine
 10
751879.983
 20
4175234.338
 30
663.0900268554688
 11
751877.37
 21
4175235.982
 31
662.93701171875
  0
LINE
  5
120
330
1F
100
AcDbEntity
  8
670
370
     0
100
AcDbLine
 10
751877.37
 20
4175235.982
 30
662.93701171875
 11
751876.565
 21
4175236.784
 31
662.8629760742188
  0
LINE
  5
121
330
1F
100
AcDbEntity
  8
670
370
     0
100
AcDbLine
 10
751776.0
 20
4175290.393
 30
667.5020141601562
 11
751776.506
 21
4175290.342
 31
667.4910278320312
  0
LINE
  5
122
330
1F
100
AcDbEntity
  8
670
370
     0
100
AcDbLine
 10
751776.506
 20
4175290.342
 30
667.4910278320312
 11
751777.239
 21
4175288.52
 31
667.8200073242188
  0
LINE
  5
123
330
1F
100
AcDbEntity
  8
670
370
     0
100
AcDbLine
 10
751777.239
 20
4175288.52
 30
667.8200073242188
 11
751779.362
 21
4175287.936
 31
668.1890258789062
  0
LINE
  5
124
330
1F
100
AcDbEntity
  8
670
370
     0
100
AcDbLine
 10
751779.362
 20
4175287.936
 30
668.1890258789062
 11
751781.32
 21
4175288.79
 31
667.9210205078125
  0
LINE
  5
125
330
1F
100
AcDbEntity
  8
670
370
     0
100
AcDbLine
 10
751781.32
 20
4175288.79
 30
667.9210205078125
 11
751783.328
 21
4175291.42
 31
667.3419799804688
  0
LINE
  5
126
330
1F
100
AcDbEntity
  8
670
370
     0
100
AcDbLine
 10
751783.328
 20
4175291.42
 30
667.3419799804688
 11
751780.603
 21
4175293.214
 31
667.6810302734375
  0
LINE
  5
127
330
1F
100
AcDbEntity
  8
670
370
     0
100
AcDbLine
 10
751780.603
 20
4175293.214
 30
667.6810302734375
 11
751779.484
 21
4175293.918
 31
667.4000244140625
  0
LINE
  5
128
330
1F
100
AcDbEntity
  8
670
370
     0
100
AcDbLine
 10
751779.484
 20
4175293.918
 30
667.4000244140625
 11
751780.295
 21
4175295.082
 31
667.5330200195312
  0
LINE
  5
129
330
1F
100
AcDbEntity
  8
670
370
     0
100
AcDbLine
 10
751780.295
 20
4175295.082
 30
667.5330200195312
 11
751782.176
 21
4175296.418
 31
667.85498046875
  0
LINE
  5
12A
330
1F
100
AcDbEntity
  8
670
370
     0
100
AcDbLine
 10
751885.554
 20
4175229.519
 30
663.051025390625
 11
751889.957
 21
4175228.998
 31
662.9630126953125
  0
LINE
  5
12B
330
1F
100
AcDbEntity
  8
670
370
     0
100
AcDbLine
 10
751889.957
 20
4175228.998
 30
662.9630126953125
 11
751893.404
 21
4175228.75
 31
662.9340209960938
  0
LINE
  5
12C
330
1F
100
AcDbEntity
  8
670
370
     0
100
AcDbLine
 10
751890.275
 20
4175231.931
 30
662.9710083007812
 11
751886.391
 21
4175232.55
 31
663.0640258789062
  0
LINE
  5
12D
330
1F
100
AcDbEntity
  8
670
370
     0
100
AcDbLine
 10
751737.839
 20
4175268.003
 30
670.6389770507812
 11
751736.8491115775
 21
4175267.254063976
 31
670.5280151367188
  0
LINE
  5
12E
330
1F
100
AcDbEntity
  8
670
370
     0
100
AcDbLine
 10
751728.936
 20
4175262.184
 30
670.3629760742188
 11
751727.801
 21
4175261.553
 31
670.2650146484375
  0
LINE
  5
12F
330
1F
100
AcDbEntity
  8
670
370
     0
100
AcDbLine
 10
751750.152
 20
4175267.943
 30
669.5
 11
751743.374
 21
4175268.453
 31
670.6259765625
  0
LINE
  5
130
330
1F
100
AcDbEntity
  8
670
370
     0
100
AcDbLine
 10
751743.374
 20
4175268.453
 30
670.6259765625
 11
751742.507
 21
4175269.248
 31
670.6500244140625
  0
LINE
  5
131
330
1F
100
AcDbEntity
  8
670
370
     0
100
AcDbLine
 10
751742.507
 20
4175269.248
 30
670.6500244140625
 11
751743.159
 21
4175271.112
 31
670.885986328125
  0
LINE
  5
132
330
1F
100
AcDbEntity
  8
670
370
     0
100
AcDbLine
 10
751743.159
 20
4175271.112
 30
670.885986328125
 11
751744.882
 21
4175274.078
 31
670.6799926757812
  0
LINE
  5
133
330
1F
100
AcDbEntity
  8
670
370
     0
100
AcDbLine
 10
751739.575
 20
4175271.229
 30
670.6900024414062
 11
751739.715
 21
4175269.376
 31
670.8040161132812
  0
LINE
  5
134
330
1F
100
AcDbEntity
  8
670
370
     0
100
AcDbLine
 10
751739.715
 20
4175269.376
 30
670.8040161132812
 11
751739.046
 21
4175268.494
 31
670.68798828125
  0
LINE
  5
135
330
1F
100
AcDbEntity
  8
670
370
     0
100
AcDbLine
 10
751739.046
 20
4175268.494
 30
670.68798828125
 11
751737.839
 21
4175268.003
 31
670.6389770507812
  0
LINE
  5
136
330
1F
100
AcDbEntity
  8
670
370
     0
100
AcDbLine
 10
751741.623
 20
4175275.283
 30
670.6699829101562
 11
751740.269
 21
4175273.043
 31
670.7000122070312
  0
LINE
  5
137
330
1F
100
AcDbEntity
  8
670
370
     0
100
AcDbLine
 10
751740.269
 20
4175273.043
 30
670.7000122070312
 11
751739.575
 21
4175271.229
 31
670.6900024414062
  0
LINE
  5
138
330
1F
100
AcDbEntity
  8
670
370
     0
100
AcDbLine
 10
751744.882
 20
4175274.078
 30
670.6799926757812
 11
751745.845
 21
4175275.364
 31
670.8099975585938
  0
LINE
  5
139
330
1F
100
AcDbEntity
  8
670
370
     0
100
AcDbLine
 10
751743.042
 20
4175277.958
 30
670.8099975585938
 11
751742.4770960637
 21
4175277.068149296
 31
670.8099975585938
  0
LINE
  5
13A
330
1F
100
AcDbEntity
  8
670
370
     0
100
AcDbLine
 10
751742.4770960637
 20
4175277.068149296
 30
670.8099975585938
 11
751741.623
 21
4175275.283
 31
670.6699829101562
  0
LINE
  5
13B
330
1F
100
AcDbEntity
  8
670
370
     0
100
AcDbLine
 10
751745.845
 20
4175275.364
 30
670.8099975585938
 11
751748.092
 21
4175277.375
 31
670.8499755859375
  0
LINE
  5
13C
330
1F
100
AcDbEntity
  8
670
370
     0
100
AcDbLine
 10
751748.092
 20
4175277.375
 30
670.8499755859375
 11
751749.961
 21
4175278.577
 31
670.9840087890625
  0
LINE
  5
13D
330
1F
100
AcDbEntity
  8
670
370
     0
100
AcDbLine
 10
751749.961
 20
4175278.577
 30
670.9840087890625
 11
751751.658
 21
4175279.998
 31
671.2160034179688
  0
LINE
  5
13E
330
1F
100
AcDbEntity
  8
670
370
     0
100
AcDbLine
 10
751751.658
 20
4175279.998
 30
671.2160034179688
 11
751752.882
 21
4175280.998
 31
671.4169921875
  0
LINE
  5
13F
330
1F
100
AcDbEntity
  8
670
370
     0
100
AcDbLine
 10
751752.882
 20
4175280.998
 30
671.4169921875
 11
751753.769
 21
4175281.946
 31
671.4810180664062
  0
LINE
  5
140
330
1F
100
AcDbEntity
  8
670
370
     0
100
AcDbLine
 10
751749.405
 20
4175282.985
 30
671.2479858398438
 11
751746.584
 21
4175280.976
 31
670.89599609375
  0
LINE
  5
141
330
1F
100
AcDbEntity
  8
670
370
     0
100
AcDbLine
 10
751746.584
 20
4175280.976
 30
670.89599609375
 11
751743.042
 21
4175277.958
 31
670.8099975585938
  0
LINE
  5
142
330
1F
100
AcDbEntity
  8
670
370
     0
100
AcDbLine
 10
751753.769
 20
4175281.946
 30
671.4810180664062
 11
751755.025
 21
4175282.682
 31
671.7570190429688
  0
LINE
  5
143
330
1F
100
AcDbEntity
  8
670
370
     0
100
AcDbLine
 10
751755.025
 20
4175282.682
 30
671.7570190429688
 11
751757.381
 21
4175284.549
 31
671.27197265625
  0
LINE
  5
144
330
1F
100
AcDbEntity
  8
670
370
     0
100
AcDbLine
 10
751757.381
 20
4175284.549
 30
671.27197265625
 11
751759.991
 21
4175286.19
 31
671.7550048828125
  0
LINE
  5
145
330
1F
100
AcDbEntity
  8
670
370
     0
100
AcDbLine
 10
751757.214
 20
4175289.037
 30
671.6749877929688
 11
751755.415
 21
4175287.798
 31
671.1270141601562
  0
LINE
  5
146
330
1F
100
AcDbEntity
  8
670
370
     0
100
AcDbLine
 10
751755.415
 20
4175287.798
 30
671.1270141601562
 11
751752.209
 21
4175285.003
 31
670.8079833984375
  0
LINE
  5
147
330
1F
100
AcDbEntity
  8
670
370
     0
100
AcDbLine
 10
751752.209
 20
4175285.003
 30
670.8079833984375
 11
751750.897
 21
4175283.822
 31
670.7039794921875
  0
LINE
  5
148
330
1F
100
AcDbEntity
  8
670
370
     0
100
AcDbLine
 10
751750.897
 20
4175283.822
 30
670.7039794921875
 11
751749.405
 21
4175282.985
 31
671.2479858398438
  0
LINE
  5
149
330
1F
100
AcDbEntity
  8
670
370
     0
100
AcDbLine
 10
751759.991
 20
4175286.19
 30
671.7550048828125
 11
751763.787
 21
4175288.953
 31
672.5040283203125
  0
LINE
  5
14A
330
1F
100
AcDbEntity
  8
670
370
     0
100
AcDbLine
 10
751763.787
 20
4175288.953
 30
672.5040283203125
 11
751760.317
 21
4175291.032
 31
671.5549926757812
  0
LINE
  5
14B
330
1F
100
AcDbEntity
  8
670
370
     0
100
AcDbLine
 10
751760.317
 20
4175291.032
 30
671.5549926757812
 11
751757.214
 21
4175289.037
 31
671.6749877929688
  0
LINE
  5
14C
330
1F
100
AcDbEntity
  8
670
370
     0
100
AcDbLine
 10
751893.404
 20
4175228.75
 30
662.9340209960938
 11
751894.7996606667
 21
4175228.755162637
 31
662.7559814453125
  0
LINE
  5
14D
330
1F
100
AcDbEntity
  8
670
370
     0
100
AcDbLine
 10
751894.7996606667
 20
4175228.755162637
 30
662.7559814453125
 11
751898.151
 21
4175228.338
 31
662.8590087890625
  0
LINE
  5
14E
330
1F
100
AcDbEntity
  8
670
370
     0
100
AcDbLine
 10
751897.089
 20
4175231.656
 30
662.72802734375
 11
751893.817
 21
4175231.756
 31
662.8060302734375
  0
LINE
  5
14F
330
1F
100
AcDbEntity
  8
670
370
     0
100
AcDbLine
 10
751893.817
 20
4175231.756
 30
662.8060302734375
 11
751890.275
 21
4175231.931
 31
662.9710083007812
  0
LINE
  5
150
330
1F
100
AcDbEntity
  8
670
370
     0
100
AcDbLine
 10
751900.9188806242
 20
4175232.038709192
 30
662.89599609375
 11
751897.089
 21
4175231.656
 31
662.72802734375
  0
LINE
  5
151
330
1F
100
AcDbEntity
  8
670
370
     0
100
AcDbLine
 10
751898.151
 20
4175228.338
 30
662.8590087890625
 11
751900.575
 21
4175228.378
 31
662.9619750976562
  0
LINE
  5
152
330
1F
100
AcDbEntity
  8
670
370
     0
100
AcDbLine
 10
751900.575
 20
4175228.378
 30
662.9619750976562
 11
751904.491
 21
4175229.17
 31
663.2429809570312
  0
LINE
  5
153
330
1F
100
AcDbEntity
  8
670
370
     0
100
AcDbLine
 10
751904.491
 20
4175229.17
 30
663.2429809570312
 11
751911.01
 21
4175230.09
 31
662.9000244140625
  0
LINE
  5
154
330
1F
100
AcDbEntity
  8
670
370
     0
100
AcDbLine
 10
751910.3244776471
 20
4175233.70470458
 30
662.9000244140625
 11
751906.207
 21
4175232.67
 31
662.7440185546875
  0
LINE
  5
155
330
1F
100
AcDbEntity
  8
670
370
     0
100
AcDbLine
 10
751906.207
 20
4175232.67
 30
662.7440185546875
 11
751901.76
 21
4175232.057
 31
662.7470092773438
  0
LINE
  5
156
330
1F
100
AcDbEntity
  8
670
370
     0
100
AcDbLine
 10
751901.76
 20
4175232.057
 30
662.7470092773438
 11
751900.9188806242
 21
4175232.038709192
 31
662.89599609375
  0
LINE
  5
157
330
1F
100
AcDbEntity
  8
670
370
     0
100
AcDbLine
 10
751911.01
 20
4175230.09
 30
662.9000244140625
 11
751914.207
 21
4175230.691
 31
662.9000244140625
  0
LINE
  5
158
330
1F
100
AcDbEntity
  8
670
370
     0
100
AcDbLine
 10
751913.7567019041
 20
4175233.850877898
 30
662.89599609375
 11
751910.3244776471
 21
4175233.70470458
 31
662.9000244140625
  0
LINE
  5
159
330
1F
100
AcDbEntity
  8
670
370
     0
100
AcDbLine
 10
751914.207
 20
4175230.691
 30
662.9000244140625
 11
751918.125672844
 21
4175232.18119336
 31
663.4299926757812
  0
LINE
  5
15A
330
1F
100
AcDbEntity
  8
670
370
     0
100
AcDbLine
 10
751918.125672844
 20
4175232.18119336
 30
663.4299926757812
 11
751917.7491647424
 21
4175235.22015161
 31
663.02001953125
  0
LINE
  5
15B
330
1F
100
AcDbEntity
  8
670
370
     0
100
AcDbLine
 10
751917.7491647424
 20
4175235.22015161
 30
663.02001953125
 11
751913.7567019041
 21
4175233.850877898
 31
662.89599609375
  0
LINE
  5
15C
330
1F
100
AcDbEntity
  8
670
370
     0
100
AcDbLine
 10
751791.673
 20
4175283.019
 30
662.7030029296875
 11
751788.41
 21
4175283.913
 31
663.072021484375
  0
LINE
  5
215
330
1F
100
AcDbEntity
  8
GEOFENCE
100
AcDbLine
 10
751710.094
 20
4175247.235
 30
670.1959838867188
 11
751739.2494766959
 21
4175266.596334573
 31
670.5072750575588
  0
LINE
  5
218
330
1F
100
AcDbEntity
  8
GEOFENCE
100
AcDbLine
 10
751739.2494766959
 20
4175266.596334573
 30
670.5072750575588
 11
751759.0774346063
 21
4175265.348975901
 31
668.2059316569934
  0
LINE
  5
219
330
1F
100
AcDbEntity
  8
GEOFENCE
100
AcDbLine
 10
751759.0774346063
 20
4175265.348975901
 30
668.2059316569934
 11
751788.298483198
 21
4175267.828585598
 31
661.8828109913611
  0
LINE
  5
21C
330
1F
100
AcDbEntity
  8
GEOFENCE
100
AcDbLine
 10
751788.298483198
 20
4175267.828585598
 30
661.8828109913611
 11
751804.2845567088
 21
4175268.342313686
 31
662.3088827681709
  0
LINE
  5
21D
330
1F
100
AcDbEntity
  8
GEOFENCE
100
AcDbLine
 10
751804.2845567088
 20
4175268.342313686
 30
662.3088827681709
 11
751808.1740549766
 21
4175265.210556184
 31
662.5616636440666
  0
LINE
  5
21F
330
1F
100
AcDbEntity
  8
GEOFENCE
100
AcDbLine
 10
751808.1740549766
 20
4175265.210556184
 30
662.5616636440666
 11
751822.5732340853
 21
4175261.037713354
 31
663.0626863056883
  0
LINE
  5
220
330
1F
100
AcDbEntity
  8
GEOFENCE
100
AcDbLine
 10
751822.5732340853
 20
4175261.037713354
 30
663.0626863056883
 11
751841.0305572156
 21
4175253.351818583
 31
663.5669128741051
  0
LINE
  5
221
330
1F
100
AcDbEntity
  8
GEOFENCE
100
AcDbLine
 10
751841.0305572156
 20
4175253.351818583
 30
663.5669128741051
 11
751869.7138131537
 21
4175244.57418755
 31
663.0936030078265
  0
LINE
  5
223
330
1F
100
AcDbEntity
  8
GEOFENCE
100
AcDbLine
 10
751869.7138131537
 20
4175244.57418755
 30
663.0936030078265
 11
751876.4120732964
 21
4175234.620248214
 31
662.8646864966028
  0
LINE
  5
224
330
1F
100
AcDbEntity
  8
GEOFENCE
100
AcDbLine
 10
751876.4120732964
 20
4175234.620248214
 30
662.8646864966028
 11
751885.7275837845
 21
4175231.001345202
 31
663.2179644816435
  0
LINE
  5
225
330
1F
100
AcDbEntity
  8
GEOFENCE
100
AcDbLine
 10
751885.7275837845
 20
4175231.001345202
 30
663.2179644816435
 11
751895.7018674798
 21
4175230.33520041
 31
662.9535483683942
  0
LINE
  5
226
330
1F
100
AcDbEntity
  8
GEOFENCE
100
AcDbLine
 10
751895.7018674798
 20
4175230.33520041
 30
662.9535483683942
 11
751917.9374187932
 21
4175233.700672485
 31
663.2250061035156
  0
LINE
  5
228
330
1F
100
AcDbEntity
  8
GEOFENCE
100
AcDbLine
 10
751804.2845567088
 20
4175268.342313686
 30
662.3088827681709
 11
751816.09649111
 21
4175277.586427071
 31
662.1521236072512
  0
LINE
  5
22A
330
1F
100
AcDbEntity
  8
GEOFENCE
100
AcDbLine
 10
751816.09649111
 20
4175277.586427071
 30
662.1521236072512
 11
751833.8391714722
 21
4175286.799221842
 31
662.719314999854
  0
LINE
  5
22C
330
1F
100
AcDbEntity
  8
GEOFENCE
100
AcDbLine
 10
751833.8391714722
 20
4175286.799221842
 30
662.719314999854
 11
751839.5352876667
 21
4175295.009886678
 31
663.0924681101402
  0
LINE
  5
22D
330
1F
100
AcDbEntity
  8
GEOFENCE
100
AcDbLine
 10
751839.5352876667
 20
4175295.009886678
 30
663.0924681101402
 11
751835.263059543
 21
4175314.538760483
 31
663.7016928240295
  0
LINE
  5
22F
330
1F
100
AcDbEntity
  8
GEOFENCE
100
AcDbLine
 10
751835.263059543
 20
4175314.538760483
 30
663.7016928240295
 11
751831.8709297851
 21
4175331.825074554
 31
667.3999088170485
  0
LINE
  5
230
330
1F
100
AcDbEntity
  8
GEOFENCE
100
AcDbLine
 10
751831.8709297851
 20
4175331.825074554
 30
667.3999088170485
 11
751818.3240714688
 21
4175325.384707726
 31
667.3342972589172
  0
LINE
  5
233
330
1F
100
AcDbEntity
  8
GEOFENCE
100
AcDbLine
 10
751818.3240714688
 20
4175325.384707726
 30
667.3342972589172
 11
751811.6998435416
 21
4175323.123601756
 31
667.4179881152862
  0
LINE
  5
235
330
1F
100
AcDbEntity
  8
GEOFENCE
100
AcDbLine
 10
751811.6998435416
 20
4175323.123601756
 30
667.4179881152862
 11
751807.2277459027
 21
4175314.185112542
 31
667.7400956765067
  0
LINE
  5
237
330
1F
100
AcDbEntity
  8
GEOFENCE
100
AcDbLine
 10
751807.2277459027
 20
4175314.185112542
 30
667.7400956765067
 11
751785.6846242776
 21
4175301.501831836
 31
667.9083252151978
  0
LINE
  5
239
330
1F
100
AcDbEntity
  8
GEOFENCE
100
AcDbLine
 10
751785.6846242776
 20
4175301.501831836
 30
667.9083252151978
 11
751774.8837250544
 21
4175291.101109514
 31
667.5014454353967
  0
LINE
  5
23B
330
1F
100
AcDbEntity
  8
GEOFENCE
100
AcDbLine
 10
751774.8837250544
 20
4175291.101109514
 30
667.5014454353967
 11
751764.9287924307
 21
4175290.486162922
 31
668.2233575800371
  0
LINE
  5
23C
330
1F
100
AcDbEntity
  8
GEOFENCE
100
AcDbLine
 10
751764.9287924307
 20
4175290.486162922
 30
668.2233575800371
 11
751761.273
 21
4175290.534
 31
671.6749877929688
  0
LINE
  5
23E
330
1F
100
AcDbEntity
  8
GEOFENCE
100
AcDbLine
 10
751739.2494766959
 20
4175266.596334573
 30
670.5072750575588
 11
751742.070174332
 21
4175270.711282279
 31
670.840246867288
  0
LINE
  5
240
330
1F
100
AcDbEntity
  8
GEOFENCE
100
AcDbLine
 10
751742.070174332
 20
4175270.711282279
 30
670.840246867288
 11
751743.922691027
 21
4175275.355377928
 31
670.8166355483179
  0
LINE
  5
243
330
1F
100
AcDbEntity
  8
GEOFENCE
100
AcDbLine
 10
751743.922691027
 20
4175275.355377928
 30
670.8166355483179
 11
751744.6779916295
 21
4175276.010346405
 31
670.8398151563604
  0
LINE
  5
245
330
1F
100
AcDbEntity
  8
GEOFENCE
100
AcDbLine
 10
751744.6779916295
 20
4175276.010346405
 30
670.8398151563604
 11
751756.0075006653
 21
4175285.834873559
 31
671.1875092769957
  0
LINE
  5
246
330
1F
100
AcDbEntity
  8
GEOFENCE
100
AcDbLine
 10
751756.0075006653
 20
4175285.834873559
 30
671.1875092769957
 11
751762.052
 21
4175289.9925
 31
672.0295104980469
  0
POINT
  5
24B
330
1F
100
AcDbEntity
  8
INIT_COORD
100
AcDbPoint
 10
751710.094
 20
4175247.235
 30
670.1959838867188
  0
ENDSEC
  0
SECTION
  2
OBJECTS
  0
DICTIONARY
  5
C
330
0
100
AcDbDictionary
281
     1
  3
ACAD_DETAILVIEWSTYLE
350
1B5
  3
ACAD_GROUP
350
D
  3
ACAD_IMAGE_VARS
350
1AF
  3
ACAD_LAYOUT
350
1A
  3
ACAD_MATERIAL
350
3B
  3
ACAD_MLEADERSTYLE
350
17E
  3
ACAD_MLINESTYLE
350
17
  3
ACAD_PLOTSETTINGS
350
19
  3
ACAD_PLOTSTYLENAME
350
E
  3
ACAD_SCALELIST
350
17F
  3
ACAD_SECTIONVIEWSTYLE
350
1B6
  3
ACAD_TABLESTYLE
350
17D
  3
ACAD_VISUALSTYLE
350
2A
  3
ACDB_RECOMPOSE_DATA
350
24E
  3
AcDbVariableDictionary
350
1B0
  3
APPDATA
350
1AD
  0
SUN
  5
1AE
330
29
100
AcDbSun
 90
        1
290
     0
 63
     7
421
 16777215
 40
1.0
291
     1
 91
  2455826
 92
 54000000
292
     0
 70
     2
 71
   256
280
     1
  0
DICTIONARY
  5
208
330
2
100
AcDbDictionary
280
     1
281
     1
  3
ACAD_LAYERSTATES
360
209
  3
ACLYDICTIONARY
360
212
  0
DICTIONARY
  5
1B5
102
{ACAD_REACTORS
330
C
102
}
330
C
100
AcDbDictionary
281
     1
  0
DICTIONARY
  5
D
102
{ACAD_REACTORS
330
C
102
}
330
C
100
AcDbDictionary
281
     1
  0
RASTERVARIABLES
  5
1AF
102
{ACAD_REACTORS
330
C
102
}
330
C
100
AcDbRasterVariables
 90
        0
 70
     1
 71
     1
 72
     1
  0
DICTIONARY
  5
1A
102
{ACAD_REACTORS
330
C
102
}
330
C
100
AcDbDictionary
281
     1
  3
Layout1
350
1E
  3
Layout2
350
26
  3
Model
350
22
  0
DICTIONARY
  5
3B
102
{ACAD_REACTORS
330
C
102
}
330
C
100
AcDbDictionary
281
     1
  3
ByBlock
350
3D
  3
ByLayer
350
3C
  3
Global
350
3E
  0
DICTIONARY
  5
17E
102
{ACAD_REACTORS
330
C
102
}
330
C
100
AcDbDictionary
281
     1
  3
Standard
350
1AC
  0
DICTIONARY
  5
17
102
{ACAD_REACTORS
330
C
102
}
330
C
100
AcDbDictionary
281
     1
  3
Standard
350
18
  0
DICTIONARY
  5
19
102
{ACAD_REACTORS
330
C
102
}
330
C
100
AcDbDictionary
281
     1
  0
ACDBDICTIONARYWDFLT
  5
E
102
{ACAD_REACTORS
330
C
102
}
330
C
100
AcDbDictionary
281
     1
  3
Normal
350
F
100
AcDbDictionaryWithDefault
340
F
  0
DICTIONARY
  5
17F
102
{ACAD_REACTORS
330
C
102
}
330
C
100
AcDbDictionary
281
     1
  3
A0
350
180
  3
A1
350
181
  3
A2
350
182
  3
A3
350
183
  3
A4
350
184
  3
A5
350
185
  3
A6
350
186
  3
A7
350
187
  3
A8
350
188
  3
A9
350
189
  3
B0
350
18A
  3
B1
350
18B
  3
B2
350
18C
  3
B3
350
18D
  3
B4
350
18E
  3
B5
350
18F
  3
B6
350
190
  3
B7
350
191
  3
B8
350
192
  3
B9
350
193
  3
C0
350
194
  3
C1
350
195
  3
C2
350
196
  3
C3
350
197
  3
C4
350
198
  3
C5
350
199
  3
C6
350
19A
  3
C7
350
19B
  3
C8
350
19C
  3
C9
350
19D
  3
D0
350
19E
  3
D1
350
19F
  3
D2
350
1A0
  0
DICTIONARY
  5
1B6
102
{ACAD_REACTORS
330
C
102
}
330
C
100
AcDbDictionary
281
     1
  0
DICTIONARY
  5
17D
102
{ACAD_REACTORS
330
C
102
}
330
C
100
AcDbDictionary
281
     1
  3
Standard
350
1AB
  0
DICTIONARY
  5
2A
102
{ACAD_REACTORS
330
C
102
}
330
C
100
AcDbDictionary
281
     1
  3
2dWireframe
350
2F
  3
3D Hidden
350
31
  3
3dWireframe
350
30
  3
Basic
350
32
  3
Brighten
350
36
  3
ColorChange
350
3A
  3
Conceptual
350
34
  3
Dim
350
35
  3
EdgeColorOff
350
1A5
  3
Facepattern
350
39
  3
Flat
350
2B
  3
FlatWithEdges
350
2C
  3
Gouraud
350
2D
  3
GouraudWithEdges
350
2E
  3
Hidden
350
1A2
  3
JitterOff
350
1A3
  3
Linepattern
350
38
  3
OverhangOff
350
1A4
  3
Realistic
350
33
  3
Shaded
350
1AA
  3
Shaded with edges
350
1A9
  3
Shades of Gray
350
1A6
  3
Sketchy
350
1A7
  3
Thicken
350
37
  3
Wireframe
350
1A1
  3
X-Ray
350
1A8
  0
XRECORD
  5
24E
102
{ACAD_REACTORS
330
C
102
}
330
C
100
AcDbXrecord
280
     1
 90
        1
330
1AB
  0
DICTIONARY
  5
1B0
102
{ACAD_REACTORS
330
C
102
}
330
C
100
AcDbDictionary
281
     1
  3
CANNOSCALE
350
1B1
  3
CMLEADERSTYLE
350
1B3
  3
CTABLESTYLE
350
1B2
  3
XCLIPFRAME
350
1B4
  0
DICTIONARY
  5
1AD
102
{ACAD_REACTORS
330
C
102
}
330
C
100
AcDbDictionary
281
     1
  0
DICTIONARY
  5
209
102
{ACAD_REACTORS
330
208
102
}
330
208
100
AcDbDictionary
281
     1
  0
DICTIONARY
  5
212
102
{ACAD_REACTORS
330
208
102
}
330
208
100
AcDbDictionary
281
     1
1001
ACAD
1000
<All
  0
LAYOUT
  5
1E
102
{ACAD_REACTORS
330
1A
102
}
330
1A
100
AcDbPlotSettings
  1

  2
none_device
  4

  6

 40
0.0
 41
0.0
 42
0.0
 43
0.0
 44
0.0
 45
0.0
 46
0.0
 47
0.0
 48
0.0
 49
0.0
140
0.0
141
0.0
142
1.0
143
1.0
 70
   688
 72
     0
 73
     0
 74
     5
  7

 75
    16
 76
     0
 77
     2
 78
   300
147
1.0
148
0.0
149
0.0
100
AcDbLayout
  1
Layout1
 70
     1
 71
     1
 10
0.0
 20
0.0
 11
420.0
 21
297.0
 12
0.0
 22
0.0
 32
0.0
 14
1.000000000000000E+20
 24
1.000000000000000E+20
 34
1.000000000000000E+20
 15
-1.000000000000000E+20
 25
-1.000000000000000E+20
 35
-1.000000000000000E+20
146
0.0
 13
0.0
 23
0.0
 33
0.0
 16
1.0
 26
0.0
 36
0.0
 17
0.0
 27
1.0
 37
0.0
 76
     0
330
1B
  0
LAYOUT
  5
26
102
{ACAD_REACTORS
330
1A
102
}
330
1A
100
AcDbPlotSettings
  1

  2
none_device
  4

  6

 40
0.0
 41
0.0
 42
0.0
 43
0.0
 44
0.0
 45
0.0
 46
0.0
 47
0.0
 48
0.0
 49
0.0
140
0.0
141
0.0
142
1.0
143
1.0
 70
   688
 72
     0
 73
     0
 74
     5
  7

 75
    16
 76
     0
 77
     2
 78
   300
147
1.0
148
0.0
149
0.0
100
AcDbLayout
  1
Layout2
 70
     1
 71
     2
 10
0.0
 20
0.0
 11
0.0
 21
0.0
 12
0.0
 22
0.0
 32
0.0
 14
0.0
 24
0.0
 34
0.0
 15
0.0
 25
0.0
 35
0.0
146
0.0
 13
0.0
 23
0.0
 33
0.0
 16
1.0
 26
0.0
 36
0.0
 17
0.0
 27
1.0
 37
0.0
 76
     0
330
23
  0
LAYOUT
  5
22
102
{ACAD_REACTORS
330
1A
102
}
330
1A
100
AcDbPlotSettings
  1

  2
none_device
  4

  6

 40
0.0
 41
0.0
 42
0.0
 43
0.0
 44
0.0
 45
0.0
 46
0.0
 47
0.0
 48
0.0
 49
0.0
140
0.0
141
0.0
142
1.0
143
1.0
 70
  1712
 72
     0
 73
     0
 74
     0
  7

 75
     0
 76
     0
 77
     2
 78
   300
147
1.0
148
0.0
149
0.0
100
AcDbLayout
  1
Model
 70
     1
 71
     0
 10
0.0
 20
0.0
 11
420.0
 21
297.0
 12
0.0
 22
0.0
 32
0.0
 14
751709.157
 24
4175228.338
 34
661.8828109912574
 15
751918.125672844
 25
4175332.848
 35
673.3670043945312
146
0.0
 13
0.0
 23
0.0
 33
0.0
 16
1.0
 26
0.0
 36
0.0
 17
0.0
 27
1.0
 37
0.0
 76
     0
330
1F
331
29
  0
MATERIAL
  5
3D
102
{ACAD_REACTORS
330
3B
102
}
330
3B
100
AcDbMaterial
  1
ByBlock
 72
     1
 94
      127
  0
MATERIAL
  5
3C
102
{ACAD_REACTORS
330
3B
102
}
330
3B
100
AcDbMaterial
  1
ByLayer
 72
     1
 94
      127
  0
MATERIAL
  5
3E
102
{ACAD_REACTORS
330
3B
102
}
330
3B
100
AcDbMaterial
  1
Global
 72
     1
 94
      127
  0
MLEADERSTYLE
  5
1AC
102
{ACAD_REACTORS
330
17E
102
}
330
17E
100
AcDbMLeaderStyle
179
     2
170
     2
171
     1
172
     0
 90
        2
 40
0.0
 41
0.0
173
     1
 91
-1056964608
340
14
 92
       -2
290
     1
 42
2.0
291
     1
 43
8.0
  3
Standard
341
0
 44
4.0
300

342
11
174
     1
178
     1
175
     1
176
     0
 93
-1056964608
 45
4.0
292
     0
297
     0
 46
4.0
343
0
 94
-1056964608
 47
1.0
 49
1.0
140
1.0
293
     1
141
0.0
294
     1
177
     0
142
1.0
295
     0
296
     0
143
3.75
271
     0
272
     9
273
     9
  0
MLINESTYLE
  5
18
102
{ACAD_REACTORS
330
17
102
}
330
17
100
AcDbMlineStyle
  2
Standard
 70
     0
  3

 62
   256
 51
90.0
 52
90.0
 71
     2
 49
0.5
 62
   256
  6
BYLAYER
 49
-0.5
 62
   256
  6
BYLAYER
  0
ACDBPLACEHOLDER
  5
F
102
{ACAD_REACTORS
330
E
102
}
330
E
  0
SCALE
  5
180
102
{ACAD_REACTORS
330
17F
102
}
330
17F
100
AcDbScale
 70
     0
300
1:1
140
1.0
141
1.0
290
     1
  0
SCALE
  5
181
102
{ACAD_REACTORS
330
17F
102
}
330
17F
100
AcDbScale
 70
     0
300
1:2
140
1.0
141
2.0
290
     0
  0
SCALE
  5
182
102
{ACAD_REACTORS
330
17F
102
}
330
17F
100
AcDbScale
 70
     0
300
1:4
140
1.0
141
4.0
290
     0
  0
SCALE
  5
183
102
{ACAD_REACTORS
330
17F
102
}
330
17F
100
AcDbScale
 70
     0
300
1:5
140
1.0
141
5.0
290
     0
  0
SCALE
  5
184
102
{ACAD_REACTORS
330
17F
102
}
330
17F
100
AcDbScale
 70
     0
300
1:8
140
1.0
141
8.0
290
     0
  0
SCALE
  5
185
102
{ACAD_REACTORS
330
17F
102
}
330
17F
100
AcDbScale
 70
     0
300
1:10
140
1.0
141
10.0
290
     0
  0
SCALE
  5
186
102
{ACAD_REACTORS
330
17F
102
}
330
17F
100
AcDbScale
 70
     0
300
1:16
140
1.0
141
16.0
290
     0
  0
SCALE
  5
187
102
{ACAD_REACTORS
330
17F
102
}
330
17F
100
AcDbScale
 70
     0
300
1:20
140
1.0
141
20.0
290
     0
  0
SCALE
  5
188
102
{ACAD_REACTORS
330
17F
102
}
330
17F
100
AcDbScale
 70
     0
300
1:30
140
1.0
141
30.0
290
     0
  0
SCALE
  5
189
102
{ACAD_REACTORS
330
17F
102
}
330
17F
100
AcDbScale
 70
     0
300
1:40
140
1.0
141
40.0
290
     0
  0
SCALE
  5
18A
102
{ACAD_REACTORS
330
17F
102
}
330
17F
100
AcDbScale
 70
     0
300
1:50
140
1.0
141
50.0
290
     0
  0
SCALE
  5
18B
102
{ACAD_REACTORS
330
17F
102
}
330
17F
100
AcDbScale
 70
     0
300
1:100
140
1.0
141
100.0
290
     0
  0
SCALE
  5
18C
102
{ACAD_REACTORS
330
17F
102
}
330
17F
100
AcDbScale
 70
     0
300
2:1
140
2.0
141
1.0
290
     0
  0
SCALE
  5
18D
102
{ACAD_REACTORS
330
17F
102
}
330
17F
100
AcDbScale
 70
     0
300
4:1
140
4.0
141
1.0
290
     0
  0
SCALE
  5
18E
102
{ACAD_REACTORS
330
17F
102
}
330
17F
100
AcDbScale
 70
     0
300
8:1
140
8.0
141
1.0
290
     0
  0
SCALE
  5
18F
102
{ACAD_REACTORS
330
17F
102
}
330
17F
100
AcDbScale
 70
     0
300
10:1
140
10.0
141
1.0
290
     0
  0
SCALE
  5
190
102
{ACAD_REACTORS
330
17F
102
}
330
17F
100
AcDbScale
 70
     0
300
100:1
140
100.0
141
1.0
290
     0
  0
SCALE
  5
191
102
{ACAD_REACTORS
330
17F
102
}
330
17F
100
AcDbScale
 70
     0
300
1/128" = 1'-0"
140
0.0078125
141
12.0
290
     0
  0
SCALE
  5
192
102
{ACAD_REACTORS
330
17F
102
}
330
17F
100
AcDbScale
 70
     0
300
1/64" = 1'-0"
140
0.015625
141
12.0
290
     0
  0
SCALE
  5
193
102
{ACAD_REACTORS
330
17F
102
}
330
17F
100
AcDbScale
 70
     0
300
1/32" = 1'-0"
140
0.03125
141
12.0
290
     0
  0
SCALE
  5
194
102
{ACAD_REACTORS
330
17F
102
}
330
17F
100
AcDbScale
 70
     0
300
1/16" = 1'-0"
140
0.0625
141
12.0
290
     0
  0
SCALE
  5
195
102
{ACAD_REACTORS
330
17F
102
}
330
17F
100
AcDbScale
 70
     0
300
3/32" = 1'-0"
140
0.09375
141
12.0
290
     0
  0
SCALE
  5
196
102
{ACAD_REACTORS
330
17F
102
}
330
17F
100
AcDbScale
 70
     0
300
1/8" = 1'-0"
140
0.125
141
12.0
290
     0
  0
SCALE
  5
197
102
{ACAD_REACTORS
330
17F
102
}
330
17F
100
AcDbScale
 70
     0
300
3/16" = 1'-0"
140
0.1875
141
12.0
290
     0
  0
SCALE
  5
198
102
{ACAD_REACTORS
330
17F
102
}
330
17F
100
AcDbScale
 70
     0
300
1/4" = 1'-0"
140
0.25
141
12.0
290
     0
  0
SCALE
  5
199
102
{ACAD_REACTORS
330
17F
102
}
330
17F
100
AcDbScale
 70
     0
300
3/8" = 1'-0"
140
0.375
141
12.0
290
     0
  0
SCALE
  5
19A
102
{ACAD_REACTORS
330
17F
102
}
330
17F
100
AcDbScale
 70
     0
300
1/2" = 1'-0"
140
0.5
141
12.0
290
     0
  0
SCALE
  5
19B
102
{ACAD_REACTORS
330
17F
102
}
330
17F
100
AcDbScale
 70
     0
300
3/4" = 1'-0"
140
0.75
141
12.0
290
     0
  0
SCALE
  5
19C
102
{ACAD_REACTORS
330
17F
102
}
330
17F
100
AcDbScale
 70
     0
300
1" = 1'-0"
140
1.0
141
12.0
290
     0
  0
SCALE
  5
19D
102
{ACAD_REACTORS
330
17F
102
}
330
17F
100
AcDbScale
 70
     0
300
1-1/2" = 1'-0"
140
1.5
141
12.0
290
     0
  0
SCALE
  5
19E
102
{ACAD_REACTORS
330
17F
102
}
330
17F
100
AcDbScale
 70
     0
300
3" = 1'-0"
140
3.0
141
12.0
290
     0
  0
SCALE
  5
19F
102
{ACAD_REACTORS
330
17F
102
}
330
17F
100
AcDbScale
 70
     0
300
6" = 1'-0"
140
6.0
141
12.0
290
     0
  0
SCALE
  5
1A0
102
{ACAD_REACTORS
330
17F
102
}
330
17F
100
AcDbScale
 70
     0
300
1'-0" = 1'-0"
140
12.0
141
12.0
290
     0
  0
TABLESTYLE
  5
1AB
102
{ACAD_REACTORS
330
17D
102
}
102
{ACAD_XDICTIONARY
360
24C
102
}
330
17D
100
AcDbTableStyle
  3
Standard
 70
     0
 71
     0
 40
0.06
 41
0.06
280
     0
281
     0
  7
Standard
140
4.5
170
     2
 62
     0
 63
   257
283
     0
 90
        4
 91
        0
  1

274
    -2
284
     1
 64
     0
275
    -2
285
     1
 65
     0
276
    -2
286
     1
 66
     0
277
    -2
287
     1
 67
     0
278
    -2
288
     1
 68
     0
279
    -2
289
     1
 69
     0
  7
Standard
140
6.0
170
     5
 62
     0
 63
   257
283
     0
 90
        4
 91
        0
  1

274
    -2
284
     1
 64
     0
275
    -2
285
     1
 65
     0
276
    -2
286
     1
 66
     0
277
    -2
287
     1
 67
     0
278
    -2
288
     1
 68
     0
279
    -2
289
     1
 69
     0
  7
Standard
140
4.5
170
     5
 62
     0
 63
   257
283
     0
 90
        4
 91
        0
  1

274
    -2
284
     1
 64
     0
275
    -2
285
     1
 65
     0
276
    -2
286
     1
 66
     0
277
    -2
287
     1
 67
     0
278
    -2
288
     1
 68
     0
279
    -2
289
     1
 69
     0
  0
VISUALSTYLE
  5
2F
102
{ACAD_REACTORS
330
2A
102
}
330
2A
100
AcDbVisualStyle
  2
2dWireframe
 70
     4
177
     2
291
     0
 71
     0
176
     1
 72
     2
176
     1
 73
     0
176
     1
 90
        0
176
     1
 40
-0.6
176
     1
 41
-30.0
176
     1
 62
     5
 63
     7
421
 16777215
176
     1
 74
     1
176
     1
 91
        4
176
     1
 64
     7
176
     1
 65
   257
176
     1
 75
     1
176
     1
175
     1
176
     1
 42
1.0
176
     1
 92
        0
176
     1
 66
   257
176
     1
 43
1.0
176
     1
 76
     1
176
     1
 77
     6
176
     1
 78
     2
176
     1
 67
     7
176
     1
 79
     5
176
     1
170
     0
176
     1
171
     0
176
     1
290
     0
176
     1
 93
        1
176
     1
 44
0.0
176
     1
173
     0
176
     1
  0
VISUALSTYLE
  5
31
102
{ACAD_REACTORS
330
2A
102
}
330
2A
100
AcDbVisualStyle
  2
3D Hidden
 70
     6
177
     2
291
     0
 71
     1
176
     1
 72
     2
176
     1
 73
     2
176
     1
 90
        0
176
     1
 40
-0.6
176
     1
 41
-30.0
176
     1
 62
     5
 63
     7
421
 16777215
176
     1
 74
     2
176
     1
 91
        2
176
     1
 64
     7
176
     1
 65
   257
176
     1
 75
     2
176
     1
175
     1
176
     1
 42
40.0
176
     1
 92
        0
176
     1
 66
   257
176
     1
 43
1.0
176
     1
 76
     1
176
     1
 77
     6
176
     1
 78
     2
176
     1
 67
     7
176
     1
 79
     3
176
     1
170
     0
176
     1
171
     0
176
     1
290
     0
176
     1
 93
        1
176
     1
 44
0.0
176
     1
173
     0
176
     1
  0
VISUALSTYLE
  5
30
102
{ACAD_REACTORS
330
2A
102
}
330
2A
100
AcDbVisualStyle
  2
3dWireframe
 70
     5
177
     2
291
     0
 71
     0
176
     1
 72
     2
176
     1
 73
     0
176
     1
 90
        0
176
     1
 40
-0.6
176
     1
 41
-30.0
176
     1
 62
     5
 63
     7
421
 16777215
176
     1
 74
     1
176
     1
 91
        4
176
     1
 64
     7
176
     1
 65
   257
176
     1
 75
     1
176
     1
175
     1
176
     1
 42
1.0
176
     1
 92
        0
176
     1
 66
   257
176
     1
 43
1.0
176
     1
 76
     1
176
     1
 77
     6
176
     1
 78
     2
176
     1
 67
     7
176
     1
 79
     5
176
     1
170
     0
176
     1
171
     0
176
     1
290
     0
176
     1
 93
        1
176
     1
 44
0.0
176
     1
173
     0
176
     1
  0
VISUALSTYLE
  5
32
102
{ACAD_REACTORS
330
2A
102
}
330
2A
100
AcDbVisualStyle
  2
Basic
 70
     7
177
     2
291
     1
 71
     1
176
     1
 72
     0
176
     1
 73
     1
176
     1
 90
        0
176
     1
 40
-0.6
176
     1
 41
-30.0
176
     1
 62
     5
 63
     7
421
 16777215
176
     1
 74
     0
176
     1
 91
        4
176
     1
 64
     7
176
     1
 65
   257
176
     1
 75
     1
176
     1
175
     1
176
     1
 42
1.0
176
     1
 92
        8
176
     1
 66
     7
176
     1
 43
1.0
176
     1
 76
     1
176
     1
 77
     6
176
     1
 78
     2
176
     1
 67
     7
176
     1
 79
     5
176
     1
170
     0
176
     1
171
     0
176
     1
290
     0
176
     1
 93
        1
176
     1
 44
0.0
176
     1
173
     0
176
     1
  0
VISUALSTYLE
  5
36
102
{ACAD_REACTORS
330
2A
102
}
330
2A
100
AcDbVisualStyle
  2
Brighten
 70
    12
177
     2
291
     1
 71
     2
176
     1
 72
     2
176
     1
 73
     0
176
     1
 90
        0
176
     1
 40
-0.6
176
     1
 41
-30.0
176
     1
 62
     5
 63
     7
421
 16777215
176
     1
 74
     1
176
     1
 91
        4
176
     1
 64
     7
176
     1
 65
   257
176
     1
 75
     1
176
     1
175
     1
176
     1
 42
1.0
176
     1
 92
        8
176
     1
 66
     7
176
     1
 43
1.0
176
     1
 76
     1
176
     1
 77
     6
176
     1
 78
     2
176
     1
 67
     7
176
     1
 79
     5
176
     1
170
     0
176
     1
171
     0
176
     1
290
     0
176
     1
 93
        1
176
     1
 44
50.0
176
     1
173
     0
176
     1
  0
VISUALSTYLE
  5
3A
102
{ACAD_REACTORS
330
2A
102
}
330
2A
100
AcDbVisualStyle
  2
ColorChange
 70
    16
177
     2
291
     1
 71
     2
176
     1
 72
     2
176
     1
 73
     3
176
     1
 90
        0
176
     1
 40
-0.6
176
     1
 41
-30.0
176
     1
 62
     5
 63
     8
421
  8421504
176
     1
 74
     1
176
     1
 91
        4
176
     1
 64
     7
176
     1
 65
   257
176
     1
 75
     1
176
     1
175
     1
176
     1
 42
1.0
176
     1
 92
        8
176
     1
 66
     8
424
  8421504
176
     1
 43
1.0
176
     1
 76
     1
176
     1
 77
     6
176
     1
 78
     2
176
     1
 67
     7
176
     1
 79
     5
176
     1
170
     0
176
     1
171
     0
176
     1
290
     0
176
     1
 93
        1
176
     1
 44
0.0
176
     1
173
     0
176
     1
  0
VISUALSTYLE
  5
34
102
{ACAD_REACTORS
330
2A
102
}
330
2A
100
AcDbVisualStyle
  2
Conceptual
 70
     9
177
     2
291
     0
 71
     3
176
     1
 72
     2
176
     1
 73
     0
176
     1
 90
        0
176
     1
 40
-0.6
176
     1
 41
-30.0
176
     1
 62
     5
 63
     7
421
 16777215
176
     1
 74
     2
176
     1
 91
        2
176
     1
 64
     7
176
     1
 65
   257
176
     1
 75
     1
176
     1
175
     1
176
     1
 42
40.0
176
     1
 92
        8
176
     1
 66
     7
176
     1
 43
1.0
176
     1
 76
     1
176
     1
 77
     6
176
     1
 78
     2
176
     1
 67
     7
176
     1
 79
     3
176
     1
170
     0
176
     1
171
     0
176
     1
290
     0
176
     1
 93
        1
176
     1
 44
0.0
176
     1
173
     0
176
     1
  0
VISUALSTYLE
  5
35
102
{ACAD_REACTORS
330
2A
102
}
330
2A
100
AcDbVisualStyle
  2
Dim
 70
    11
177
     2
291
     1
 71
     2
176
     1
 72
     2
176
     1
 73
     0
176
     1
 90
        0
176
     1
 40
-0.6
176
     1
 41
-30.0
176
     1
 62
     5
 63
     7
421
 16777215
176
     1
 74
     1
176
     1
 91
        4
176
     1
 64
     7
176
     1
 65
   257
176
     1
 75
     1
176
     1
175
     1
176
     1
 42
1.0
176
     1
 92
        8
176
     1
 66
     7
176
     1
 43
1.0
176
     1
 76
     1
176
     1
 77
     6
176
     1
 78
     2
176
     1
 67
     7
176
     1
 79
     5
176
     1
170
     0
176
     1
171
     0
176
     1
290
     0
176
     1
 93
        1
176
     1
 44
-50.0
176
     1
173
     0
176
     1
  0
VISUALSTYLE
  5
1A5
102
{ACAD_REACTORS
330
2A
102
}
330
2A
100
AcDbVisualStyle
  2
EdgeColorOff
 70
    22
177
     2
291
     1
 71
     2
176
     0
 72
     2
176
     0
 73
     0
176
     0
 90
        0
176
     0
 40
0.6
176
     0
 41
30.0
176
     0
 62
     5
 63
     7
421
 16777215
176
     0
 74
     1
176
     0
 91
        4
176
     0
 64
     7
176
     0
 65
   257
176
     0
 75
     1
176
     0
175
     1
176
     0
 42
1.0
176
     0
 92
        8
176
     2
 66
     7
176
     0
 43
1.0
176
     0
 76
     1
176
     0
 77
     6
176
     0
 78
     2
176
     0
 67
     7
176
     0
 79
     5
176
     0
170
     0
176
     0
171
     0
176
     0
290
     0
176
     0
 93
        1
176
     0
 44
0.0
176
     0
173
     0
176
     0
  0
VISUALSTYLE
  5
39
102
{ACAD_REACTORS
330
2A
102
}
330
2A
100
AcDbVisualStyle
  2
Facepattern
 70
    15
177
     2
291
     1
 71
     2
176
     1
 72
     2
176
     1
 73
     0
176
     1
 90
        0
176
     1
 40
-0.6
176
     1
 41
-30.0
176
     1
 62
     5
 63
     7
421
 16777215
176
     1
 74
     1
176
     1
 91
        4
176
     1
 64
     7
176
     1
 65
   257
176
     1
 75
     1
176
     1
175
     1
176
     1
 42
1.0
176
     1
 92
        8
176
     1
 66
     7
176
     1
 43
1.0
176
     1
 76
     1
176
     1
 77
     6
176
     1
 78
     2
176
     1
 67
     7
176
     1
 79
     5
176
     1
170
     0
176
     1
171
     0
176
     1
290
     0
176
     1
 93
        1
176
     1
 44
0.0
176
     1
173
     0
176
     1
  0
VISUALSTYLE
  5
2B
102
{ACAD_REACTORS
330
2A
102
}
330
2A
100
AcDbVisualStyle
  2
Flat
 70
     0
177
     2
291
     1
 71
     2
176
     1
 72
     1
176
     1
 73
     1
176
     1
 90
        2
176
     1
 40
-0.6
176
     1
 41
30.0
176
     1
 62
     5
 63
     7
421
 16777215
176
     1
 74
     0
176
     1
 91
        4
176
     1
 64
     7
176
     1
 65
   257
176
     1
 75
     1
176
     1
175
     1
176
     1
 42
1.0
176
     1
 92
        8
176
     1
 66
     7
176
     1
 43
1.0
176
     1
 76
     1
176
     1
 77
     6
176
     1
 78
     2
176
     1
 67
     7
176
     1
 79
     5
176
     1
170
     0
176
     1
171
     0
176
     1
290
     0
176
     1
 93
       13
176
     1
 44
0.0
176
     1
173
     0
176
     1
  0
VISUALSTYLE
  5
2C
102
{ACAD_REACTORS
330
2A
102
}
330
2A
100
AcDbVisualStyle
  2
FlatWithEdges
 70
     1
177
     2
291
     1
 71
     2
176
     1
 72
     1
176
     1
 73
     1
176
     1
 90
        2
176
     1
 40
-0.6
176
     1
 41
30.0
176
     1
 62
     5
 63
     7
421
 16777215
176
     1
 74
     1
176
     1
 91
        4
176
     1
 64
     7
176
     1
 65
   257
176
     1
 75
     1
176
     1
175
     1
176
     1
 42
1.0
176
     1
 92
        0
176
     1
 66
   257
176
     1
 43
1.0
176
     1
 76
     1
176
     1
 77
     6
176
     1
 78
     2
176
     1
 67
     7
176
     1
 79
     5
176
     1
170
     0
176
     1
171
     0
176
     1
290
     0
176
     1
 93
       13
176
     1
 44
0.0
176
     1
173
     0
176
     1
  0
VISUALSTYLE
  5
2D
102
{ACAD_REACTORS
330
2A
102
}
330
2A
100
AcDbVisualStyle
  2
Gouraud
 70
     2
177
     2
291
     1
 71
     2
176
     1
 72
     2
176
     1
 73
     1
176
     1
 90
        2
176
     1
 40
-0.6
176
     1
 41
30.0
176
     1
 62
     5
 63
     7
421
 16777215
176
     1
 74
     0
176
     1
 91
        4
176
     1
 64
     7
176
     1
 65
   257
176
     1
 75
     1
176
     1
175
     1
176
     1
 42
1.0
176
     1
 92
        0
176
     1
 66
     7
176
     1
 43
1.0
176
     1
 76
     1
176
     1
 77
     6
176
     1
 78
     2
176
     1
 67
     7
176
     1
 79
     5
176
     1
170
     0
176
     1
171
     0
176
     1
290
     0
176
     1
 93
       13
176
     1
 44
0.0
176
     1
173
     0
176
     1
  0
VISUALSTYLE
  5
2E
102
{ACAD_REACTORS
330
2A
102
}
330
2A
100
AcDbVisualStyle
  2
GouraudWithEdges
 70
     3
177
     2
291
     1
 71
     2
176
     1
 72
     2
176
     1
 73
     1
176
     1
 90
        2
176
     1
 40
-0.6
176
     1
 41
30.0
176
     1
 62
     5
 63
     7
421
 16777215
176
     1
 74
     1
176
     1
 91
        4
176
     1
 64
     7
176
     1
 65
   257
176
     1
 75
     1
176
     1
175
     1
176
     1
 42
1.0
176
     1
 92
        0
176
     1
 66
   257
176
     1
 43
1.0
176
     1
 76
     1
176
     1
 77
     6
176
     1
 78
     2
176
     1
 67
     7
176
     1
 79
     5
176
     1
170
     0
176
     1
171
     0
176
     1
290
     0
176
     1
 93
       13
176
     1
 44
0.0
176
     1
173
     0
176
     1
  0
VISUALSTYLE
  5
1A2
102
{ACAD_REACTORS
330
2A
102
}
330
2A
100
AcDbVisualStyle
  2
Hidden
 70
     6
177
     2
291
     0
 71
     1
176
     1
 72
     2
176
     1
 73
     2
176
     1
 90
        0
176
     1
 40
0.6
176
     1
 41
30.0
176
     1
 62
     5
 63
     7
421
 16777215
176
     1
 74
     2
176
     1
 91
        2
176
     1
 64
     7
176
     1
 65
   257
176
     1
 75
     2
176
     1
175
     1
176
     1
 42
40.0
176
     1
 92
        0
176
     1
 66
   257
176
     1
 43
1.0
176
     1
 76
     1
176
     1
 77
     6
176
     1
 78
     2
176
     1
 67
     7
176
     1
 79
     3
176
     1
170
     0
176
     1
171
     0
176
     1
290
     0
176
     1
 93
        1
176
     1
 44
0.0
176
     1
173
     0
176
     1
  0
VISUALSTYLE
  5
1A3
102
{ACAD_REACTORS
330
2A
102
}
330
2A
100
AcDbVisualStyle
  2
JitterOff
 70
    20
177
     2
291
     1
 71
     2
176
     0
 72
     2
176
     0
 73
     0
176
     0
 90
        0
176
     0
 40
0.6
176
     0
 41
30.0
176
     0
 62
     5
 63
     7
421
 16777215
176
     0
 74
     1
176
     0
 91
        4
176
     0
 64
     7
176
     0
 65
   257
176
     0
 75
     1
176
     0
175
     1
176
     0
 42
1.0
176
     0
 92
       10
176
     2
 66
     7
176
     0
 43
1.0
176
     0
 76
     1
176
     0
 77
     6
176
     0
 78
     2
176
     0
 67
     7
176
     0
 79
     5
176
     0
170
     0
176
     0
171
     0
176
     0
290
     0
176
     0
 93
        1
176
     0
 44
0.0
176
     0
173
     0
176
     0
  0
VISUALSTYLE
  5
38
102
{ACAD_REACTORS
330
2A
102
}
330
2A
100
AcDbVisualStyle
  2
Linepattern
 70
    14
177
     2
291
     1
 71
     2
176
     1
 72
     2
176
     1
 73
     0
176
     1
 90
        0
176
     1
 40
-0.6
176
     1
 41
-30.0
176
     1
 62
     5
 63
     7
421
 16777215
176
     1
 74
     1
176
     1
 91
        4
176
     1
 64
     7
176
     1
 65
   257
176
     1
 75
     7
176
     1
175
     7
176
     1
 42
1.0
176
     1
 92
        8
176
     1
 66
     7
176
     1
 43
1.0
176
     1
 76
     1
176
     1
 77
     6
176
     1
 78
     2
176
     1
 67
     7
176
     1
 79
     5
176
     1
170
     0
176
     1
171
     0
176
     1
290
     0
176
     1
 93
        1
176
     1
 44
0.0
176
     1
173
     0
176
     1
  0
VISUALSTYLE
  5
1A4
102
{ACAD_REACTORS
330
2A
102
}
330
2A
100
AcDbVisualStyle
  2
OverhangOff
 70
    21
177
     2
291
     1
 71
     2
176
     0
 72
     2
176
     0
 73
     0
176
     0
 90
        0
176
     0
 40
0.6
176
     0
 41
30.0
176
     0
 62
     5
 63
     7
421
 16777215
176
     0
 74
     1
176
     0
 91
        4
176
     0
 64
     7
176
     0
 65
   257
176
     0
 75
     1
176
     0
175
     1
176
     0
 42
1.0
176
     0
 92
        9
176
     2
 66
     7
176
     0
 43
1.0
176
     0
 76
     1
176
     0
 77
     6
176
     0
 78
     2
176
     0
 67
     7
176
     0
 79
     5
176
     0
170
     0
176
     0
171
     0
176
     0
290
     0
176
     0
 93
        1
176
     0
 44
0.0
176
     0
173
     0
176
     0
  0
VISUALSTYLE
  5
33
102
{ACAD_REACTORS
330
2A
102
}
330
2A
100
AcDbVisualStyle
  2
Realistic
 70
     8
177
     2
291
     0
 71
     2
176
     1
 72
     2
176
     1
 73
     0
176
     1
 90
        0
176
     1
 40
-0.6
176
     1
 41
-30.0
176
     1
 62
     5
 63
     7
421
 16777215
176
     1
 74
     1
176
     1
 91
        0
176
     1
 64
     7
176
     1
 65
   257
176
     1
 75
     1
176
     1
175
     1
176
     1
 42
1.0
176
     1
 92
        8
176
     1
 66
     8
424
  7895160
176
     1
 43
1.0
176
     1
 76
     1
176
     1
 77
     6
176
     1
 78
     2
176
     1
 67
     7
176
     1
 79
     5
176
     1
170
     0
176
     1
171
     0
176
     1
290
     0
176
     1
 93
       13
176
     1
 44
0.0
176
     1
173
     0
176
     1
  0
VISUALSTYLE
  5
1AA
102
{ACAD_REACTORS
330
2A
102
}
330
2A
100
AcDbVisualStyle
  2
Shaded
 70
    27
177
     2
291
     0
 71
     2
176
     1
 72
     2
176
     1
 73
     1
176
     1
 90
        2
176
     1
 40
0.6
176
     1
 41
30.0
176
     1
 62
     5
 63
     7
421
 16777215
176
     1
 74
     0
176
     1
 91
        4
176
     1
 64
     7
176
     1
 65
   257
176
     1
 75
     1
176
     1
175
     1
176
     1
 42
1.0
176
     1
 92
        8
176
     1
 66
   257
176
     1
 43
1.0
176
     1
 76
     1
176
     1
 77
     6
176
     1
 78
     2
176
     1
 67
     8
425
  7895160
176
     1
 79
     3
176
     1
170
     0
176
     1
171
     0
176
     1
290
     0
176
     1
 93
        5
176
     1
 44
0.0
176
     1
173
     0
176
     1
  0
VISUALSTYLE
  5
1A9
102
{ACAD_REACTORS
330
2A
102
}
330
2A
100
AcDbVisualStyle
  2
Shaded with edges
 70
    26
177
     2
291
     0
 71
     2
176
     1
 72
     2
176
     1
 73
     1
176
     1
 90
        2
176
     1
 40
0.6
176
     1
 41
30.0
176
     1
 62
     5
 63
     7
421
 16777215
176
     1
 74
     1
176
     1
 91
       10
176
     1
 64
     7
176
     1
 65
   257
176
     1
 75
     2
176
     1
175
     1
176
     1
 42
1.0
176
     1
 92
        8
176
     1
 66
   257
176
     1
 43
1.0
176
     1
 76
     1
176
     1
 77
     6
176
     1
 78
     2
176
     1
 67
     7
176
     1
 79
     3
176
     1
170
     0
176
     1
171
     0
176
     1
290
     0
176
     1
 93
        5
176
     1
 44
0.0
176
     1
173
     0
176
     1
  0
VISUALSTYLE
  5
1A6
102
{ACAD_REACTORS
330
2A
102
}
330
2A
100
AcDbVisualStyle
  2
Shades of Gray
 70
    23
177
     2
291
     0
 71
     2
176
     1
 72
     2
176
     1
 73
     3
176
     1
 90
        0
176
     1
 40
0.6
176
     1
 41
30.0
176
     1
 62
     5
 63
     7
421
 16777215
176
     1
 74
     2
176
     1
 91
        2
176
     1
 64
     7
176
     1
 65
     7
176
     1
 75
     1
176
     1
175
     1
176
     1
 42
40.0
176
     1
 92
        8
176
     1
 66
     7
176
     1
 43
1.0
176
     1
 76
     1
176
     1
 77
     6
176
     1
 78
     2
176
     1
 67
     7
176
     1
 79
     3
176
     1
170
     0
176
     1
171
     0
176
     1
290
     0
176
     1
 93
        1
176
     1
 44
0.0
176
     1
173
     0
176
     1
  0
VISUALSTYLE
  5
1A7
102
{ACAD_REACTORS
330
2A
102
}
330
2A
100
AcDbVisualStyle
  2
Sketchy
 70
    24
177
     2
291
     0
 71
     1
176
     1
 72
     2
176
     1
 73
     2
176
     1
 90
        0
176
     1
 40
0.6
176
     1
 41
30.0
176
     1
 62
     5
 63
     7
421
 16777215
176
     1
 74
     2
176
     1
 91
        2
176
     1
 64
     7
176
     1
 65
     7
176
     1
 75
     1
176
     1
175
     1
176
     1
 42
40.0
176
     1
 92
       11
176
     1
 66
     7
176
     1
 43
1.0
176
     1
 76
     1
176
     1
 77
     6
176
     1
 78
     2
176
     1
 67
     7
176
     1
 79
     6
176
     1
170
     0
176
     1
171
     0
176
     1
290
     0
176
     1
 93
        1
176
     1
 44
0.0
176
     1
173
     0
176
     1
  0
VISUALSTYLE
  5
37
102
{ACAD_REACTORS
330
2A
102
}
330
2A
100
AcDbVisualStyle
  2
Thicken
 70
    13
177
     2
291
     1
 71
     2
176
     1
 72
     2
176
     1
 73
     0
176
     1
 90
        0
176
     1
 40
-0.6
176
     1
 41
-30.0
176
     1
 62
     5
 63
     7
421
 16777215
176
     1
 74
     1
176
     1
 91
        4
176
     1
 64
     7
176
     1
 65
   257
176
     1
 75
     1
176
     1
175
     1
176
     1
 42
1.0
176
     1
 92
       12
176
     1
 66
     7
176
     1
 43
1.0
176
     1
 76
     1
176
     1
 77
     6
176
     1
 78
     2
176
     1
 67
     7
176
     1
 79
     5
176
     1
170
     0
176
     1
171
     0
176
     1
290
     0
176
     1
 93
        1
176
     1
 44
0.0
176
     1
173
     0
176
     1
  0
VISUALSTYLE
  5
1A1
102
{ACAD_REACTORS
330
2A
102
}
330
2A
100
AcDbVisualStyle
  2
Wireframe
 70
     5
177
     2
291
     0
 71
     0
176
     1
 72
     2
176
     1
 73
     0
176
     1
 90
        0
176
     1
 40
0.6
176
     1
 41
30.0
176
     1
 62
     5
 63
     7
421
 16777215
176
     1
 74
     1
176
     1
 91
        4
176
     1
 64
     7
176
     1
 65
   257
176
     1
 75
     1
176
     1
175
     1
176
     1
 42
1.0
176
     1
 92
        0
176
     1
 66
   257
176
     1
 43
1.0
176
     1
 76
     1
176
     1
 77
     6
176
     1
 78
     2
176
     1
 67
     7
176
     1
 79
     3
176
     1
170
     0
176
     1
171
     0
176
     1
290
     0
176
     1
 93
        1
176
     1
 44
0.0
176
     1
173
     0
176
     1
  0
VISUALSTYLE
  5
1A8
102
{ACAD_REACTORS
330
2A
102
}
330
2A
100
AcDbVisualStyle
  2
X-Ray
 70
    25
177
     2
291
     0
 71
     2
176
     1
 72
     2
176
     1
 73
     1
176
     1
 90
        1
176
     1
 40
0.5
176
     1
 41
30.0
176
     1
 62
     5
 63
     7
421
 16777215
176
     1
 74
     1
176
     1
 91
        0
176
     1
 64
     7
176
     1
 65
   257
176
     1
 75
     1
176
     1
175
     1
176
     1
 42
1.0
176
     1
 92
        8
176
     1
 66
     7
176
     1
 43
1.0
176
     1
 76
     1
176
     1
 77
     6
176
     1
 78
     2
176
     1
 67
     7
176
     1
 79
     3
176
     1
170
     0
176
     1
171
     0
176
     1
290
     0
176
     1
 93
       13
176
     1
 44
0.0
176
     1
173
     0
176
     1
  0
DICTIONARYVAR
  5
1B1
102
{ACAD_REACTORS
330
1B0
102
}
330
1B0
100
DictionaryVariables
280
     0
  1
1:1
  0
DICTIONARYVAR
  5
1B3
102
{ACAD_REACTORS
330
1B0
102
}
330
1B0
100
DictionaryVariables
280
     0
  1
Standard
  0
DICTIONARYVAR
  5
1B2
102
{ACAD_REACTORS
330
1B0
102
}
330
1B0
100
DictionaryVariables
280
     0
  1
Standard
  0
DICTIONARYVAR
  5
1B4
102
{ACAD_REACTORS
330
1B0
102
}
330
1B0
100
DictionaryVariables
280
     0
  1
0
  0
DICTIONARY
  5
24C
330
1AB
100
AcDbDictionary
280
     1
281
     1
  3
ACAD_ROUNDTRIP_2008_TABLESTYLE_CELLSTYLEMAP
360
24D
  0
CELLSTYLEMAP
  5
24D
102
{ACAD_REACTORS
330
24C
102
}
330
24C
100
AcDbCellStyleMap
 90
        3
300
CELLSTYLE
  1
TABLEFORMAT_BEGIN
 90
        5
170
     1
 91
        0
 92
    32768
 62
   257
 93
        1
300
CONTENTFORMAT
  1
CONTENTFORMAT_BEGIN
 90
        0
 91
        0
 92
        4
 93
        0
300

 40
0.0
140
1.0
 94
        5
 62
     0
340
11
144
6.0
309
CONTENTFORMAT_END
171
     1
301
MARGIN
  1
CELLMARGIN_BEGIN
 40
1.5
 40
1.5
 40
1.5
 40
1.5
 40
1.5
 40
1.5
309
CELLMARGIN_END
 94
        6
 95
        1
302
GRIDFORMAT
  1
GRIDFORMAT_BEGIN
 90
        0
 91
        1
 62
     0
 92
       -2
340
14
 93
        0
 40
0.045
309
GRIDFORMAT_END
 95
        2
302
GRIDFORMAT
  1
GRIDFORMAT_BEGIN
 90
        0
 91
        1
 62
     0
 92
       -2
340
14
 93
        0
 40
0.045
309
GRIDFORMAT_END
 95
        4
302
GRIDFORMAT
  1
GRIDFORMAT_BEGIN
 90
        0
 91
        1
 62
     0
 92
       -2
340
14
 93
        0
 40
0.045
309
GRIDFORMAT_END
 95
        8
302
GRIDFORMAT
  1
GRIDFORMAT_BEGIN
 90
        0
 91
        1
 62
     0
 92
       -2
340
14
 93
        0
 40
0.045
309
GRIDFORMAT_END
 95
       16
302
GRIDFORMAT
  1
GRIDFORMAT_BEGIN
 90
        0
 91
        1
 62
     0
 92
       -2
340
14
 93
        0
 40
0.045
309
GRIDFORMAT_END
 95
       32
302
GRIDFORMAT
  1
GRIDFORMAT_BEGIN
 90
        0
 91
        1
 62
     0
 92
       -2
340
14
 93
        0
 40
0.045
309
GRIDFORMAT_END
309
TABLEFORMAT_END
  1
CELLSTYLE_BEGIN
 90
        1
 91
        1
300
_TITLE
309
CELLSTYLE_END
300
CELLSTYLE
  1
TABLEFORMAT_BEGIN
 90
        5
170
     1
 91
        0
 92
        0
 62
   257
 93
        1
300
CONTENTFORMAT
  1
CONTENTFORMAT_BEGIN
 90
        0
 91
        0
 92
        4
 93
        0
300

 40
0.0
140
1.0
 94
        5
 62
     0
340
11
144
4.5
309
CONTENTFORMAT_END
171
     1
301
MARGIN
  1
CELLMARGIN_BEGIN
 40
1.5
 40
1.5
 40
1.5
 40
1.5
 40
1.5
 40
1.5
309
CELLMARGIN_END
 94
        6
 95
        1
302
GRIDFORMAT
  1
GRIDFORMAT_BEGIN
 90
        0
 91
        1
 62
     0
 92
       -2
340
14
 93
        0
 40
0.045
309
GRIDFORMAT_END
 95
        2
302
GRIDFORMAT
  1
GRIDFORMAT_BEGIN
 90
        0
 91
        1
 62
     0
 92
       -2
340
14
 93
        0
 40
0.045
309
GRIDFORMAT_END
 95
        4
302
GRIDFORMAT
  1
GRIDFORMAT_BEGIN
 90
        0
 91
        1
 62
     0
 92
       -2
340
14
 93
        0
 40
0.045
309
GRIDFORMAT_END
 95
        8
302
GRIDFORMAT
  1
GRIDFORMAT_BEGIN
 90
        0
 91
        1
 62
     0
 92
       -2
340
14
 93
        0
 40
0.045
309
GRIDFORMAT_END
 95
       16
302
GRIDFORMAT
  1
GRIDFORMAT_BEGIN
 90
        0
 91
        1
 62
     0
 92
       -2
340
14
 93
        0
 40
0.045
309
GRIDFORMAT_END
 95
       32
302
GRIDFORMAT
  1
GRIDFORMAT_BEGIN
 90
        0
 91
        1
 62
     0
 92
       -2
340
14
 93
        0
 40
0.045
309
GRIDFORMAT_END
309
TABLEFORMAT_END
  1
CELLSTYLE_BEGIN
 90
        2
 91
        1
300
_HEADER
309
CELLSTYLE_END
300
CELLSTYLE
  1
TABLEFORMAT_BEGIN
 90
        5
170
     1
 91
        0
 92
        0
 62
   257
 93
        1
300
CONTENTFORMAT
  1
CONTENTFORMAT_BEGIN
 90
        0
 91
        0
 92
        4
 93
        0
300

 40
0.0
140
1.0
 94
        2
 62
     0
340
11
144
4.5
309
CONTENTFORMAT_END
171
     1
301
MARGIN
  1
CELLMARGIN_BEGIN
 40
1.5
 40
1.5
 40
1.5
 40
1.5
 40
1.5
 40
1.5
309
CELLMARGIN_END
 94
        6
 95
        1
302
GRIDFORMAT
  1
GRIDFORMAT_BEGIN
 90
        0
 91
        1
 62
     0
 92
       -2
340
14
 93
        0
 40
0.045
309
GRIDFORMAT_END
 95
        2
302
GRIDFORMAT
  1
GRIDFORMAT_BEGIN
 90
        0
 91
        1
 62
     0
 92
       -2
340
14
 93
        0
 40
0.045
309
GRIDFORMAT_END
 95
        4
302
GRIDFORMAT
  1
GRIDFORMAT_BEGIN
 90
        0
 91
        1
 62
     0
 92
       -2
340
14
 93
        0
 40
0.045
309
GRIDFORMAT_END
 95
        8
302
GRIDFORMAT
  1
GRIDFORMAT_BEGIN
 90
        0
 91
        1
 62
     0
 92
       -2
340
14
 93
        0
 40
0.045
309
GRIDFORMAT_END
 95
       16
302
GRIDFORMAT
  1
GRIDFORMAT_BEGIN
 90
        0
 91
        1
 62
     0
 92
       -2
340
14
 93
        0
 40
0.045
309
GRIDFORMAT_END
 95
       32
302
GRIDFORMAT
  1
GRIDFORMAT_BEGIN
 90
        0
 91
        1
 62
     0
 92
       -2
340
14
 93
        0
 40
0.045
309
GRIDFORMAT_END
309
TABLEFORMAT_END
  1
CELLSTYLE_BEGIN
 90
        3
 91
        2
300
_DATA
309
CELLSTYLE_END
  0
ENDSEC
  0
EOF
