  0
SECTION
  2
HEADER
  9
$ACADVER
  1
AC1024
  9
$ACADMAINTVER
 70
     6
  9
$DWGCODEPAGE
  3
ANSI_1252
  9
$LASTSAVEDBY
  1
mehme
  9
$INSBASE
 10
0.0
 20
0.0
 30
0.0
  9
$EXTMIN
 10
751687.9929999999
 20
4175340.725
 30
688.9219970703125
  9
$EXTMAX
 10
751978.133
 20
4175490.329
 30
719.0
  9
$LIMMIN
 10
0.0
 20
0.0
  9
$LIMMAX
 10
420.0
 20
297.0
  9
$ORTHOMODE
 70
     0
  9
$REGENMODE
 70
     1
  9
$FILLMODE
 70
     1
  9
$QTEXTMODE
 70
     0
  9
$MIRRTEXT
 70
     1
  9
$LTSCALE
 40
1.0
  9
$ATTMODE
 70
     1
  9
$TEXTSIZE
 40
2.5
  9
$TRACEWID
 40
1.0
  9
$TEXTSTYLE
  7
Standard
  9
$CLAYER
  8
INIT_COORD
  9
$CELTYPE
  6
ByLayer
  9
$CECOLOR
 62
   256
  9
$CELTSCALE
 40
1.0
  9
$DISPSILH
 70
     0
  9
$DIMSCALE
 40
1.0
  9
$DIMASZ
 40
2.5
  9
$DIMEXO
 40
0.625
  9
$DIMDLI
 40
3.75
  9
$DIMRND
 40
0.0
  9
$DIMDLE
 40
0.0
  9
$DIMEXE
 40
1.25
  9
$DIMTP
 40
0.0
  9
$DIMTM
 40
0.0
  9
$DIMTXT
 40
2.5
  9
$DIMCEN
 40
2.5
  9
$DIMTSZ
 40
0.0
  9
$DIMTOL
 70
     0
  9
$DIMLIM
 70
     0
  9
$DIMTIH
 70
     0
  9
$DIMTOH
 70
     0
  9
$DIMSE1
 70
     0
  9
$DIMSE2
 70
     0
  9
$DIMTAD
 70
     1
  9
$DIMZIN
 70
     8
  9
$DIMBLK
  1

  9
$DIMASO
 70
     1
  9
$DIMSHO
 70
     1
  9
$DIMPOST
  1

  9
$DIMAPOST
  1

  9
$DIMALT
 70
     0
  9
$DIMALTD
 70
     3
  9
$DIMALTF
 40
0.03937007874016
  9
$DIMLFAC
 40
1.0
  9
$DIMTOFL
 70
     1
  9
$DIMTVP
 40
0.0
  9
$DIMTIX
 70
     0
  9
$DIMSOXD
 70
     0
  9
$DIMSAH
 70
     0
  9
$DIMBLK1
  1

  9
$DIMBLK2
  1

  9
$DIMSTYLE
  2
ISO-25
  9
$DIMCLRD
 70
     0
  9
$DIMCLRE
 70
     0
  9
$DIMCLRT
 70
     0
  9
$DIMTFAC
 40
1.0
  9
$DIMGAP
 40
0.625
  9
$DIMJUST
 70
     0
  9
$DIMSD1
 70
     0
  9
$DIMSD2
 70
     0
  9
$DIMTOLJ
 70
     0
  9
$DIMTZIN
 70
     8
  9
$DIMALTZ
 70
     0
  9
$DIMALTTZ
 70
     0
  9
$DIMUPT
 70
     0
  9
$DIMDEC
 70
     2
  9
$DIMTDEC
 70
     2
  9
$DIMALTU
 70
     2
  9
$DIMALTTD
 70
     3
  9
$DIMTXSTY
  7
Standard
  9
$DIMAUNIT
 70
     0
  9
$DIMADEC
 70
     0
  9
$DIMALTRND
 40
0.0
  9
$DIMAZIN
 70
     0
  9
$DIMDSEP
 70
    44
  9
$DIMATFIT
 70
     3
  9
$DIMFRAC
 70
     0
  9
$DIMLDRBLK
  1

  9
$DIMLUNIT
 70
     2
  9
$DIMLWD
 70
    -2
  9
$DIMLWE
 70
    -2
  9
$DIMTMOVE
 70
     0
  9
$DIMFXL
 40
1.0
  9
$DIMFXLON
 70
     0
  9
$DIMJOGANG
 40
0.7853981633974483
  9
$DIMTFILL
 70
     0
  9
$DIMTFILLCLR
 70
     0
  9
$DIMARCSYM
 70
     0
  9
$DIMLTYPE
  6

  9
$DIMLTEX1
  6

  9
$DIMLTEX2
  6

  9
$DIMTXTDIRECTION
 70
     0
  9
$LUNITS
 70
     2
  9
$LUPREC
 70
     4
  9
$SKETCHINC
 40
1.0
  9
$FILLETRAD
 40
10.0
  9
$AUNITS
 70
     0
  9
$AUPREC
 70
     0
  9
$MENU
  1
.
  9
$ELEVATION
 40
0.0
  9
$PELEVATION
 40
0.0
  9
$THICKNESS
 40
0.0
  9
$LIMCHECK
 70
     0
  9
$CHAMFERA
 40
10.0
  9
$CHAMFERB
 40
10.0
  9
$CHAMFERC
 40
20.0
  9
$CHAMFERD
 40
0.0
  9
$SKPOLY
 70
     0
  9
$TDCREATE
 40
2457877.722954688
  9
$TDUCREATE
 40
2457877.597954688
  9
$TDUPDATE
 40
2457878.580462361
  9
$TDUUPDATE
 40
2457878.455462361
  9
$TDINDWG
 40
0.0022656134
  9
$TDUSRTIMER
 40
2457878.454673854
  9
$USRTIMER
 70
     1
  9
$ANGBASE
 50
0.0
  9
$ANGDIR
 70
     0
  9
$PDMODE
 70
     0
  9
$PDSIZE
 40
0.0
  9
$PLINEWID
 40
0.0
  9
$SPLFRAME
 70
     0
  9
$SPLINETYPE
 70
     6
  9
$SPLINESEGS
 70
     8
  9
$HANDSEED
  5
519
  9
$SURFTAB1
 70
     6
  9
$SURFTAB2
 70
     6
  9
$SURFTYPE
 70
     6
  9
$SURFU
 70
     6
  9
$SURFV
 70
     6
  9
$UCSBASE
  2

  9
$UCSNAME
  2

  9
$UCSORG
 10
0.0
 20
0.0
 30
0.0
  9
$UCSXDIR
 10
1.0
 20
0.0
 30
0.0
  9
$UCSYDIR
 10
0.0
 20
1.0
 30
0.0
  9
$UCSORTHOREF
  2

  9
$UCSORTHOVIEW
 70
     0
  9
$UCSORGTOP
 10
0.0
 20
0.0
 30
0.0
  9
$UCSORGBOTTOM
 10
0.0
 20
0.0
 30
0.0
  9
$UCSORGLEFT
 10
0.0
 20
0.0
 30
0.0
  9
$UCSORGRIGHT
 10
0.0
 20
0.0
 30
0.0
  9
$UCSORGFRONT
 10
0.0
 20
0.0
 30
0.0
  9
$UCSORGBACK
 10
0.0
 20
0.0
 30
0.0
  9
$PUCSBASE
  2

  9
$PUCSNAME
  2

  9
$PUCSORG
 10
0.0
 20
0.0
 30
0.0
  9
$PUCSXDIR
 10
1.0
 20
0.0
 30
0.0
  9
$PUCSYDIR
 10
0.0
 20
1.0
 30
0.0
  9
$PUCSORTHOREF
  2

  9
$PUCSORTHOVIEW
 70
     0
  9
$PUCSORGTOP
 10
0.0
 20
0.0
 30
0.0
  9
$PUCSORGBOTTOM
 10
0.0
 20
0.0
 30
0.0
  9
$PUCSORGLEFT
 10
0.0
 20
0.0
 30
0.0
  9
$PUCSORGRIGHT
 10
0.0
 20
0.0
 30
0.0
  9
$PUCSORGFRONT
 10
0.0
 20
0.0
 30
0.0
  9
$PUCSORGBACK
 10
0.0
 20
0.0
 30
0.0
  9
$USERI1
 70
     0
  9
$USERI2
 70
     0
  9
$USERI3
 70
     0
  9
$USERI4
 70
     0
  9
$USERI5
 70
     0
  9
$USERR1
 40
0.0
  9
$USERR2
 40
0.0
  9
$USERR3
 40
0.0
  9
$USERR4
 40
0.0
  9
$USERR5
 40
0.0
  9
$WORLDVIEW
 70
     1
  9
$SHADEDGE
 70
     3
  9
$SHADEDIF
 70
    70
  9
$TILEMODE
 70
     1
  9
$MAXACTVP
 70
    64
  9
$PINSBASE
 10
0.0
 20
0.0
 30
0.0
  9
$PLIMCHECK
 70
     0
  9
$PEXTMIN
 10
1.000000000000000E+20
 20
1.000000000000000E+20
 30
1.000000000000000E+20
  9
$PEXTMAX
 10
-1.000000000000000E+20
 20
-1.000000000000000E+20
 30
-1.000000000000000E+20
  9
$PLIMMIN
 10
0.0
 20
0.0
  9
$PLIMMAX
 10
0.0
 20
0.0
  9
$UNITMODE
 70
     0
  9
$VISRETAIN
 70
     1
  9
$PLINEGEN
 70
     0
  9
$PSLTSCALE
 70
     1
  9
$TREEDEPTH
 70
  3020
  9
$CMLSTYLE
  2
Standard
  9
$CMLJUST
 70
     0
  9
$CMLSCALE
 40
20.0
  9
$PROXYGRAPHICS
 70
     1
  9
$MEASUREMENT
 70
     1
  9
$CELWEIGHT
370
    -1
  9
$ENDCAPS
280
     0
  9
$JOINSTYLE
280
     0
  9
$LWDISPLAY
290
     0
  9
$INSUNITS
 70
     4
  9
$HYPERLINKBASE
  1

  9
$STYLESHEET
  1

  9
$XEDIT
290
     1
  9
$CEPSNTYPE
380
     0
  9
$PSTYLEMODE
290
     1
  9
$FINGERPRINTGUID
  2
{78A8277E-AE65-4E69-A350-8963087026EE}
  9
$VERSIONGUID
  2
{FAEB1C32-E019-11D5-929B-00C0DF256EC4}
  9
$EXTNAMES
290
     1
  9
$PSVPSCALE
 40
0.0
  9
$OLESTARTUP
290
     0
  9
$SORTENTS
280
   127
  9
$INDEXCTL
280
     0
  9
$HIDETEXT
280
     1
  9
$XCLIPFRAME
280
     0
  9
$HALOGAP
280
     0
  9
$OBSCOLOR
 70
   257
  9
$OBSLTYPE
280
     0
  9
$INTERSECTIONDISPLAY
280
     0
  9
$INTERSECTIONCOLOR
 70
   257
  9
$DIMASSOC
280
     2
  9
$PROJECTNAME
  1

  9
$CAMERADISPLAY
290
     0
  9
$LENSLENGTH
 40
50.0
  9
$CAMERAHEIGHT
 40
0.0
  9
$STEPSPERSEC
 40
2.0
  9
$STEPSIZE
 40
6.0
  9
$3DDWFPREC
 40
2.0
  9
$PSOLWIDTH
 40
5.0
  9
$PSOLHEIGHT
 40
80.0
  9
$LOFTANG1
 40
1.570796326794897
  9
$LOFTANG2
 40
1.570796326794897
  9
$LOFTMAG1
 40
0.0
  9
$LOFTMAG2
 40
0.0
  9
$LOFTPARAM
 70
     7
  9
$LOFTNORMALS
280
     1
  9
$LATITUDE
 40
37.795
  9
$LONGITUDE
 40
-122.394
  9
$NORTHDIRECTION
 40
0.0
  9
$TIMEZONE
 70
 -8000
  9
$LIGHTGLYPHDISPLAY
280
     1
  9
$TILEMODELIGHTSYNCH
280
     1
  9
$SOLIDHIST
280
     1
  9
$SHOWHIST
280
     1
  9
$DWFFRAME
280
     2
  9
$DGNFRAME
280
     2
  9
$REALWORLDSCALE
290
     1
  9
$INTERFERECOLOR
 62
   256
  9
$CSHADOW
280
     0
  9
$SHADOWPLANELOCATION
 40
0.0
  0
ENDSEC
  0
SECTION
  2
CLASSES
  0
CLASS
  1
ACDBDICTIONARYWDFLT
  2
AcDbDictionaryWithDefault
  3
ObjectDBX Classes
 90
        0
 91
        4
280
     0
281
     0
  0
CLASS
  1
VISUALSTYLE
  2
AcDbVisualStyle
  3
ObjectDBX Classes
 90
     4095
 91
        4
280
     0
281
     0
  0
CLASS
  1
MATERIAL
  2
AcDbMaterial
  3
ObjectDBX Classes
 90
     1153
 91
        4
280
     0
281
     0
  0
CLASS
  1
SCALE
  2
AcDbScale
  3
ObjectDBX Classes
 90
     1153
 91
        4
280
     0
281
     0
  0
CLASS
  1
TABLESTYLE
  2
AcDbTableStyle
  3
ObjectDBX Classes
 90
     4095
 91
        4
280
     0
281
     0
  0
CLASS
  1
MLEADERSTYLE
  2
AcDbMLeaderStyle
  3
ACDB_MLEADERSTYLE_CLASS
 90
     4095
 91
        4
280
     0
281
     0
  0
CLASS
  1
SUN
  2
AcDbSun
  3
SCENEOE
 90
     1153
 91
        4
280
     0
281
     0
  0
CLASS
  1
RASTERVARIABLES
  2
AcDbRasterVariables
  3
ISM
 90
        0
 91
        4
280
     0
281
     0
  0
CLASS
  1
DICTIONARYVAR
  2
AcDbDictionaryVar
  3
ObjectDBX Classes
 90
        0
 91
        4
280
     0
281
     0
  0
CLASS
  1
CELLSTYLEMAP
  2
AcDbCellStyleMap
  3
ObjectDBX Classes
 90
     1152
 91
        4
280
     0
281
     0
  0
ENDSEC
  0
SECTION
  2
TABLES
  0
TABLE
  2
VPORT
  5
8
330
0
100
AcDbSymbolTable
 70
     1
  0
VPORT
  5
29
330
8
100
AcDbSymbolTableRecord
100
AcDbViewportTableRecord
  2
*Active
 70
     0
 10
0.0
 20
0.0
 11
1.0
 21
1.0
 12
751701.917884217
 22
4175358.64819542
 13
0.0
 23
0.0
 14
10.0
 24
10.0
 15
10.0
 25
10.0
 16
0.0
 26
0.0
 36
1.0
 17
0.0
 27
0.0
 37
0.0
 40
29.65071580846115
 41
1.674528301886792
 42
50.0
 43
0.0
 44
0.0
 50
0.0
 51
0.0
 71
    16
 72
   100
 73
     1
 74
     3
 75
     0
 76
     0
 77
     0
 78
     0
281
     0
 65
     1
110
0.0
120
0.0
130
0.0
111
1.0
121
0.0
131
0.0
112
0.0
122
1.0
132
0.0
 79
     0
146
0.0
348
2F
 60
     3
 61
     5
292
     1
282
     1
141
0.0
142
0.0
 63
   250
361
34A
  0
ENDTAB
  0
TABLE
  2
LTYPE
  5
5
330
0
100
AcDbSymbolTable
 70
     1
  0
LTYPE
  5
14
330
5
100
AcDbSymbolTableRecord
100
AcDbLinetypeTableRecord
  2
ByBlock
 70
     0
  3

 72
    65
 73
     0
 40
0.0
  0
LTYPE
  5
15
330
5
100
AcDbSymbolTableRecord
100
AcDbLinetypeTableRecord
  2
ByLayer
 70
     0
  3

 72
    65
 73
     0
 40
0.0
  0
LTYPE
  5
16
330
5
100
AcDbSymbolTableRecord
100
AcDbLinetypeTableRecord
  2
Continuous
 70
     0
  3
Solid line
 72
    65
 73
     0
 40
0.0
  0
ENDTAB
  0
TABLE
  2
LAYER
  5
2
102
{ACAD_XDICTIONARY
360
34C
102
}
330
0
100
AcDbSymbolTable
 70
     4
  0
LAYER
  5
10
330
2
100
AcDbSymbolTableRecord
100
AcDbLayerTableRecord
  2
0
 70
     4
 62
     5
  6
Continuous
370
     0
390
F
347
3E
  0
LAYER
  5
3F
330
2
100
AcDbSymbolTableRecord
100
AcDbLayerTableRecord
  2
689
 70
     4
 62
    18
  6
Continuous
370
     0
390
F
347
3E
  0
LAYER
  5
34F
330
2
100
AcDbSymbolTableRecord
100
AcDbLayerTableRecord
  2
INIT_COORD
 70
     4
 62
     5
  6
Continuous
370
     0
390
F
347
3E
1001
AcAecLayerStandard
1000

1000

  0
LAYER
  5
351
330
2
100
AcDbSymbolTableRecord
100
AcDbLayerTableRecord
  2
GEOFENCE
 70
     0
 62
     3
  6
Continuous
370
     0
390
F
347
3E
1001
AcAecLayerStandard
1000

1000

  0
ENDTAB
  0
TABLE
  2
STYLE
  5
3
330
0
100
AcDbSymbolTable
 70
     9
  0
STYLE
  5
11
330
3
100
AcDbSymbolTableRecord
100
AcDbTextStyleTableRecord
  2
Standard
 70
     0
 40
0.0
 41
1.0
 50
0.0
 71
     0
 42
2.5
  3
C:\Windows\Font\TIMES.TTF
  4

  0
STYLE
  5
40
330
3
100
AcDbSymbolTableRecord
100
AcDbTextStyleTableRecord
  2
STYLE0
 70
     0
 40
0.0
 41
1.0
 50
0.0
 71
     0
 42
0.2
  3
TXT.SHX
  4

1001
ACAD
1000
TXT.SHX
1071
      256
  0
STYLE
  5
41
330
3
100
AcDbSymbolTableRecord
100
AcDbTextStyleTableRecord
  2
STYLE0P
 70
     0
 40
0.2
 41
1.0
 50
0.0
 71
     0
 42
0.2
  3
TXT.SHX
  4

1001
ACAD
1000
TXT.SHX
1071
 16777472
  0
STYLE
  5
42
330
3
100
AcDbSymbolTableRecord
100
AcDbTextStyleTableRecord
  2
STYLE1
 70
     0
 40
0.0
 41
1.0
 50
0.0
 71
     0
 42
0.2
  3
TXT.SHX
  4

1001
ACAD
1000
TXT.SHX
1071
      256
  0
STYLE
  5
43
330
3
100
AcDbSymbolTableRecord
100
AcDbTextStyleTableRecord
  2
STYLE1P
 70
     0
 40
0.2
 41
1.0
 50
0.0
 71
     0
 42
0.2
  3
TXT.SHX
  4

1001
ACAD
1000
TXT.SHX
1071
 16777472
  0
STYLE
  5
44
330
3
100
AcDbSymbolTableRecord
100
AcDbTextStyleTableRecord
  2
STYLE2
 70
     0
 40
0.0
 41
1.0
 50
0.0
 71
     0
 42
0.2
  3
TXT.SHX
  4

1001
ACAD
1000
TXT.SHX
1071
      256
  0
STYLE
  5
45
330
3
100
AcDbSymbolTableRecord
100
AcDbTextStyleTableRecord
  2
STYLE2P
 70
     0
 40
0.2
 41
1.0
 50
0.0
 71
     0
 42
0.2
  3
TXT.SHX
  4

1001
ACAD
1000
TXT.SHX
1071
 16777472
  0
STYLE
  5
46
330
3
100
AcDbSymbolTableRecord
100
AcDbTextStyleTableRecord
  2
STYLE3
 70
     0
 40
0.0
 41
1.0
 50
0.0
 71
     0
 42
0.2
  3
TXT.SHX
  4

1001
ACAD
1000
TXT.SHX
1071
      256
  0
STYLE
  5
47
330
3
100
AcDbSymbolTableRecord
100
AcDbTextStyleTableRecord
  2
STYLE3P
 70
     0
 40
0.2
 41
1.0
 50
0.0
 71
     0
 42
0.2
  3
TXT.SHX
  4

1001
ACAD
1000
TXT.SHX
1071
 16777472
  0
ENDTAB
  0
TABLE
  2
VIEW
  5
6
330
0
100
AcDbSymbolTable
 70
     0
  0
ENDTAB
  0
TABLE
  2
UCS
  5
7
330
0
100
AcDbSymbolTable
 70
     0
  0
ENDTAB
  0
TABLE
  2
APPID
  5
9
330
0
100
AcDbSymbolTable
 70
     2
  0
APPID
  5
12
330
9
100
AcDbSymbolTableRecord
100
AcDbRegAppTableRecord
  2
ACAD
 70
     0
  0
APPID
  5
350
330
9
100
AcDbSymbolTableRecord
100
AcDbRegAppTableRecord
  2
AcAecLayerStandard
 70
     0
  0
ENDTAB
  0
TABLE
  2
DIMSTYLE
  5
A
330
0
100
AcDbSymbolTable
 70
     1
100
AcDbDimStyleTable
  0
DIMSTYLE
105
27
330
A
100
AcDbSymbolTableRecord
100
AcDbDimStyleTableRecord
  2
ISO-25
 70
     0
 41
2.5
 42
0.625
 43
3.75
 44
1.25
 73
     0
 74
     0
 77
     1
 78
     8
140
2.5
141
2.5
143
0.03937007874016
147
0.625
171
     3
172
     1
178
     0
271
     2
272
     2
274
     3
278
    44
283
     0
284
     8
340
11
  0
ENDTAB
  0
TABLE
  2
BLOCK_RECORD
  5
1
330
0
100
AcDbSymbolTable
 70
     1
  0
BLOCK_RECORD
  5
1F
330
1
100
AcDbSymbolTableRecord
100
AcDbBlockTableRecord
  2
*Model_Space
340
22
 70
     0
280
     1
281
     0
  0
BLOCK_RECORD
  5
1B
330
1
100
AcDbSymbolTableRecord
100
AcDbBlockTableRecord
  2
*Paper_Space
340
1E
 70
     0
280
     1
281
     0
  0
BLOCK_RECORD
  5
23
330
1
100
AcDbSymbolTableRecord
100
AcDbBlockTableRecord
  2
*Paper_Space0
340
26
 70
     0
280
     1
281
     0
  0
ENDTAB
  0
ENDSEC
  0
SECTION
  2
BLOCKS
  0
BLOCK
  5
20
330
1F
100
AcDbEntity
  8
0
100
AcDbBlockBegin
  2
*Model_Space
 70
     0
 10
0.0
 20
0.0
 30
0.0
  3
*Model_Space
  1

  0
ENDBLK
  5
21
330
1F
100
AcDbEntity
  8
0
100
AcDbBlockEnd
  0
BLOCK
  5
1C
330
1B
100
AcDbEntity
 67
     1
  8
0
100
AcDbBlockBegin
  2
*Paper_Space
 70
     0
 10
0.0
 20
0.0
 30
0.0
  3
*Paper_Space
  1

  0
ENDBLK
  5
1D
330
1B
100
AcDbEntity
 67
     1
  8
0
100
AcDbBlockEnd
  0
BLOCK
  5
24
330
23
100
AcDbEntity
  8
0
100
AcDbBlockBegin
  2
*Paper_Space0
 70
     0
 10
0.0
 20
0.0
 30
0.0
  3
*Paper_Space0
  1

  0
ENDBLK
  5
25
330
23
100
AcDbEntity
  8
0
100
AcDbBlockEnd
  0
ENDSEC
  0
SECTION
  2
ENTITIES
  0
LINE
  5
48
330
1F
100
AcDbEntity
  8
689
370
     0
100
AcDbLine
 10
751689.021
 20
4175355.773
 30
689.4650268554688
 11
751692.239
 21
4175357.079
 31
689.3930053710938
  0
LINE
  5
49
330
1F
100
AcDbEntity
  8
689
370
     0
100
AcDbLine
 10
751692.239
 20
4175357.079
 30
689.3930053710938
 11
751697.342
 21
4175358.778
 31
689.5759887695312
  0
LINE
  5
4A
330
1F
100
AcDbEntity
  8
689
370
     0
100
AcDbLine
 10
751697.342
 20
4175358.778
 30
689.5759887695312
 11
751701.409
 21
4175359.801
 31
689.4320068359375
  0
LINE
  5
4B
330
1F
100
AcDbEntity
  8
689
370
     0
100
AcDbLine
 10
751701.409
 20
4175359.801
 30
689.4320068359375
 11
751704.274
 21
4175361.304
 31
689.3779907226562
  0
LINE
  5
4C
330
1F
100
AcDbEntity
  8
689
370
     0
100
AcDbLine
 10
751704.274
 20
4175361.304
 30
689.3779907226562
 11
751717.8659999999
 21
4175366.483
 31
689.6119995117188
  0
LINE
  5
4D
330
1F
100
AcDbEntity
  8
689
370
     0
100
AcDbLine
 10
751717.8659999999
 20
4175366.483
 30
689.6119995117188
 11
751722.7039999999
 21
4175367.554
 31
689.551025390625
  0
LINE
  5
4E
330
1F
100
AcDbEntity
  8
689
370
     0
100
AcDbLine
 10
751722.7039999999
 20
4175367.554
 30
689.551025390625
 11
751727.1848106539
 21
4175368.736651914
 31
689.5150146484375
  0
LINE
  5
4F
330
1F
100
AcDbEntity
  8
689
370
     0
100
AcDbLine
 10
751727.1848106539
 20
4175368.736651914
 30
689.5150146484375
 11
751732.9019999999
 21
4175368.043
 31
689.6110229492188
  0
LINE
  5
50
330
1F
100
AcDbEntity
  8
689
370
     0
100
AcDbLine
 10
751732.9019999999
 20
4175368.043
 30
689.6110229492188
 11
751740.5959999999
 21
4175366.116
 31
690.156005859375
  0
LINE
  5
51
330
1F
100
AcDbEntity
  8
689
370
     0
100
AcDbLine
 10
751740.5959999999
 20
4175366.116
 30
690.156005859375
 11
751743.308
 21
4175365.508
 31
690.3619995117188
  0
LINE
  5
52
330
1F
100
AcDbEntity
  8
689
370
     0
100
AcDbLine
 10
751743.308
 20
4175365.508
 30
690.3619995117188
 11
751747.803
 21
4175364.598
 31
690.3319702148438
  0
LINE
  5
53
330
1F
100
AcDbEntity
  8
689
370
     0
100
AcDbLine
 10
751747.803
 20
4175364.598
 30
690.3319702148438
 11
751750.34
 21
4175363.907
 31
690.530029296875
  0
LINE
  5
54
330
1F
100
AcDbEntity
  8
689
370
     0
100
AcDbLine
 10
751750.34
 20
4175363.907
 30
690.530029296875
 11
751754.2059999999
 21
4175363.22
 31
690.7340087890625
  0
LINE
  5
55
330
1F
100
AcDbEntity
  8
689
370
     0
100
AcDbLine
 10
751754.2059999999
 20
4175363.22
 30
690.7340087890625
 11
751756.9070234983
 21
4175362.415463748
 31
690.6849975585938
  0
LINE
  5
56
330
1F
100
AcDbEntity
  8
689
370
     0
100
AcDbLine
 10
751756.9070234983
 20
4175362.415463748
 30
690.6849975585938
 11
751763.2069999999
 21
4175361.201
 31
690.6820068359375
  0
LINE
  5
57
330
1F
100
AcDbEntity
  8
689
370
     0
100
AcDbLine
 10
751763.2069999999
 20
4175361.201
 30
690.6820068359375
 11
751763.9524541862
 21
4175360.717532118
 31
690.8770141601562
  0
LINE
  5
58
330
1F
100
AcDbEntity
  8
689
370
     0
100
AcDbLine
 10
751763.9524541862
 20
4175360.717532118
 30
690.8770141601562
 11
751765.0709700038
 21
4175361.214006848
 31
690.9429931640625
  0
LINE
  5
59
330
1F
100
AcDbEntity
  8
689
370
     0
100
AcDbLine
 10
751765.0709700038
 20
4175361.214006848
 30
690.9429931640625
 11
751767.8084932001
 21
4175361.127819
 31
691.02197265625
  0
LINE
  5
5A
330
1F
100
AcDbEntity
  8
689
370
     0
100
AcDbLine
 10
751767.8084932001
 20
4175361.127819
 30
691.02197265625
 11
751775.9604008362
 21
4175359.73574415
 31
691.6240234375
  0
LINE
  5
5B
330
1F
100
AcDbEntity
  8
689
370
     0
100
AcDbLine
 10
751775.9604008362
 20
4175359.73574415
 30
691.6240234375
 11
751777.661
 21
4175358.684
 31
691.7169799804688
  0
LINE
  5
5C
330
1F
100
AcDbEntity
  8
689
370
     0
100
AcDbLine
 10
751777.661
 20
4175358.684
 30
691.7169799804688
 11
751780.3139999999
 21
4175357.531
 31
691.6710205078125
  0
LINE
  5
5D
330
1F
100
AcDbEntity
  8
689
370
     0
100
AcDbLine
 10
751780.3139999999
 20
4175357.531
 30
691.6710205078125
 11
751782.514
 21
4175356.871
 31
691.625
  0
LINE
  5
5E
330
1F
100
AcDbEntity
  8
689
370
     0
100
AcDbLine
 10
751782.514
 20
4175356.871
 30
691.625
 11
751786.21
 21
4175357.332
 31
691.7479858398438
  0
LINE
  5
5F
330
1F
100
AcDbEntity
  8
689
370
     0
100
AcDbLine
 10
751792.5669999999
 20
4175360.025
 30
691.6290283203125
 11
751794.754
 21
4175362.312
 31
691.5430297851562
  0
LINE
  5
60
330
1F
100
AcDbEntity
  8
689
370
     0
100
AcDbLine
 10
751794.754
 20
4175362.312
 30
691.5430297851562
 11
751798.438
 21
4175367.297
 31
691.5380249023438
  0
LINE
  5
61
330
1F
100
AcDbEntity
  8
689
370
     0
100
AcDbLine
 10
751798.438
 20
4175367.297
 30
691.5380249023438
 11
751802.428
 21
4175370.421
 31
691.8270263671875
  0
LINE
  5
62
330
1F
100
AcDbEntity
  8
689
370
     0
100
AcDbLine
 10
751802.428
 20
4175370.421
 30
691.8270263671875
 11
751804.543
 21
4175372.406
 31
691.47998046875
  0
LINE
  5
63
330
1F
100
AcDbEntity
  8
689
370
     0
100
AcDbLine
 10
751804.543
 20
4175372.406
 30
691.47998046875
 11
751809.2239999999
 21
4175372.385
 31
691.3330078125
  0
LINE
  5
64
330
1F
100
AcDbEntity
  8
689
370
     0
100
AcDbLine
 10
751809.2239999999
 20
4175372.385
 30
691.3330078125
 11
751814.7239999999
 21
4175371.118
 31
691.6799926757812
  0
LINE
  5
65
330
1F
100
AcDbEntity
  8
689
370
     0
100
AcDbLine
 10
751814.7239999999
 20
4175371.118
 30
691.6799926757812
 11
751816.502
 21
4175370.363
 31
691.9229736328125
  0
LINE
  5
66
330
1F
100
AcDbEntity
  8
689
370
     0
100
AcDbLine
 10
751816.502
 20
4175370.363
 30
691.9229736328125
 11
751820.651
 21
4175370.02
 31
691.968017578125
  0
LINE
  5
67
330
1F
100
AcDbEntity
  8
689
370
     0
100
AcDbLine
 10
751820.651
 20
4175370.02
 30
691.968017578125
 11
751825.5939999999
 21
4175370.024
 31
692.2249755859375
  0
LINE
  5
68
330
1F
100
AcDbEntity
  8
689
370
     0
100
AcDbLine
 10
751830.791
 20
4175369.664
 30
692.1909790039062
 11
751836.413
 21
4175369.714
 31
692.39599609375
  0
LINE
  5
69
330
1F
100
AcDbEntity
  8
689
370
     0
100
AcDbLine
 10
751836.413
 20
4175369.714
 30
692.39599609375
 11
751845.472
 21
4175367.447
 31
692.072021484375
  0
LINE
  5
6A
330
1F
100
AcDbEntity
  8
689
370
     0
100
AcDbLine
 10
751843.7289999999
 20
4175370.719
 30
692.39697265625
 11
751836.0639999999
 21
4175372.166
 31
692.5170288085938
  0
LINE
  5
6B
330
1F
100
AcDbEntity
  8
689
370
     0
100
AcDbLine
 10
751836.0639999999
 20
4175372.166
 30
692.5170288085938
 11
751830.897
 21
4175372.015
 31
692.4840087890625
  0
LINE
  5
6C
330
1F
100
AcDbEntity
  8
689
370
     0
100
AcDbLine
 10
751830.897
 20
4175372.015
 30
692.4840087890625
 11
751825.379
 21
4175372.074
 31
692.2949829101562
  0
LINE
  5
6D
330
1F
100
AcDbEntity
  8
689
370
     0
100
AcDbLine
 10
751825.379
 20
4175372.074
 30
692.2949829101562
 11
751821.114
 21
4175372.205
 31
691.8629760742188
  0
LINE
  5
6E
330
1F
100
AcDbEntity
  8
689
370
     0
100
AcDbLine
 10
751821.114
 20
4175372.205
 30
691.8629760742188
 11
751817.6279999999
 21
4175372.541
 31
691.8590087890625
  0
LINE
  5
6F
330
1F
100
AcDbEntity
  8
689
370
     0
100
AcDbLine
 10
751817.6279999999
 20
4175372.541
 30
691.8590087890625
 11
751813.45
 21
4175373.931
 31
691.4879760742188
  0
LINE
  5
70
330
1F
100
AcDbEntity
  8
689
370
     0
100
AcDbLine
 10
751813.45
 20
4175373.931
 30
691.4879760742188
 11
751808.681
 21
4175374.619
 31
691.219970703125
  0
LINE
  5
71
330
1F
100
AcDbEntity
  8
689
370
     0
100
AcDbLine
 10
751808.681
 20
4175374.619
 30
691.219970703125
 11
751806.355
 21
4175375.625
 31
691.531982421875
  0
LINE
  5
72
330
1F
100
AcDbEntity
  8
689
370
     0
100
AcDbLine
 10
751806.355
 20
4175375.625
 30
691.531982421875
 11
751808.7799999999
 21
4175378.223
 31
691.4429931640625
  0
LINE
  5
73
330
1F
100
AcDbEntity
  8
689
370
     0
100
AcDbLine
 10
751808.7799999999
 20
4175378.223
 30
691.4429931640625
 11
751810.343
 21
4175379.313
 31
691.4959716796875
  0
LINE
  5
74
330
1F
100
AcDbEntity
  8
689
370
     0
100
AcDbLine
 10
751810.343
 20
4175379.313
 30
691.4959716796875
 11
751812.6599999999
 21
4175379.781
 31
691.5590209960938
  0
LINE
  5
75
330
1F
100
AcDbEntity
  8
689
370
     0
100
AcDbLine
 10
751812.6599999999
 20
4175379.781
 30
691.5590209960938
 11
751816.3589999999
 21
4175380.242
 31
691.5869750976562
  0
LINE
  5
76
330
1F
100
AcDbEntity
  8
689
370
     0
100
AcDbLine
 10
751816.3589999999
 20
4175380.242
 30
691.5869750976562
 11
751819.039
 21
4175380.257
 31
691.656005859375
  0
LINE
  5
77
330
1F
100
AcDbEntity
  8
689
370
     0
100
AcDbLine
 10
751819.039
 20
4175380.257
 30
691.656005859375
 11
751819.431
 21
4175382.407
 31
691.7260131835938
  0
LINE
  5
78
330
1F
100
AcDbEntity
  8
689
370
     0
100
AcDbLine
 10
751819.431
 20
4175382.407
 30
691.7260131835938
 11
751813.294
 21
4175382.625
 31
691.7219848632812
  0
LINE
  5
79
330
1F
100
AcDbEntity
  8
689
370
     0
100
AcDbLine
 10
751809.994
 20
4175382.175
 30
691.64501953125
 11
751807.5009999999
 21
4175380.534
 31
691.4550170898438
  0
LINE
  5
7A
330
1F
100
AcDbEntity
  8
689
370
     0
100
AcDbLine
 10
751807.5009999999
 20
4175380.534
 30
691.4550170898438
 11
751804.681
 21
4175377.748
 31
691.5120239257812
  0
LINE
  5
7B
330
1F
100
AcDbEntity
  8
689
370
     0
100
AcDbLine
 10
751804.681
 20
4175377.748
 30
691.5120239257812
 11
751803.1569999999
 21
4175375.643
 31
691.5980224609375
  0
LINE
  5
7C
330
1F
100
AcDbEntity
  8
689
370
     0
100
AcDbLine
 10
751803.1569999999
 20
4175375.643
 30
691.5980224609375
 11
751800.9739999999
 21
4175375.616
 31
692.114013671875
  0
LINE
  5
7D
330
1F
100
AcDbEntity
  8
689
370
     0
100
AcDbLine
 10
751800.9739999999
 20
4175375.616
 30
692.114013671875
 11
751799.3039999999
 21
4175373.132
 31
692.0609741210938
  0
LINE
  5
7E
330
1F
100
AcDbEntity
  8
689
370
     0
100
AcDbLine
 10
751799.3039999999
 20
4175373.132
 30
692.0609741210938
 11
751800.521
 21
4175372.167
 31
691.6240234375
  0
LINE
  5
7F
330
1F
100
AcDbEntity
  8
689
370
     0
100
AcDbLine
 10
751800.521
 20
4175372.167
 30
691.6240234375
 11
751799.32
 21
4175370.64
 31
691.802978515625
  0
LINE
  5
80
330
1F
100
AcDbEntity
  8
689
370
     0
100
AcDbLine
 10
751799.32
 20
4175370.64
 30
691.802978515625
 11
751796.497
 21
4175368.511
 31
691.5960083007812
  0
LINE
  5
81
330
1F
100
AcDbEntity
  8
689
370
     0
100
AcDbLine
 10
751796.497
 20
4175368.511
 30
691.5960083007812
 11
751793.1919999999
 21
4175364.022
 31
691.5900268554688
  0
LINE
  5
82
330
1F
100
AcDbEntity
  8
689
370
     0
100
AcDbLine
 10
751793.1919999999
 20
4175364.022
 30
691.5900268554688
 11
751790.5399999999
 21
4175361.154
 31
691.3809814453125
  0
LINE
  5
83
330
1F
100
AcDbEntity
  8
689
370
     0
100
AcDbLine
 10
751790.5399999999
 20
4175361.154
 30
691.3809814453125
 11
751789.142
 21
4175360.233
 31
691.4329833984375
  0
LINE
  5
84
330
1F
100
AcDbEntity
  8
689
370
     0
100
AcDbLine
 10
751789.142
 20
4175360.233
 30
691.4329833984375
 11
751784.823
 21
4175359.998
 31
691.6500244140625
  0
LINE
  5
85
330
1F
100
AcDbEntity
  8
689
370
     0
100
AcDbLine
 10
751784.823
 20
4175359.998
 30
691.6500244140625
 11
751781.708
 21
4175359.976
 31
691.531005859375
  0
LINE
  5
86
330
1F
100
AcDbEntity
  8
689
370
     0
100
AcDbLine
 10
751781.708
 20
4175359.976
 30
691.531005859375
 11
751779.8359999999
 21
4175361.126
 31
691.6530151367188
  0
LINE
  5
87
330
1F
100
AcDbEntity
  8
689
370
     0
100
AcDbLine
 10
751779.8359999999
 20
4175361.126
 30
691.6530151367188
 11
751780.0059999999
 21
4175362.148
 31
691.7109985351562
  0
LINE
  5
88
330
1F
100
AcDbEntity
  8
689
370
     0
100
AcDbLine
 10
751780.0059999999
 20
4175362.148
 30
691.7109985351562
 11
751781.0539999999
 21
4175364.596
 31
691.6160278320312
  0
LINE
  5
89
330
1F
100
AcDbEntity
  8
689
370
     0
100
AcDbLine
 10
751781.0539999999
 20
4175364.596
 30
691.6160278320312
 11
751782.267
 21
4175365.909
 31
691.8699951171875
  0
LINE
  5
8A
330
1F
100
AcDbEntity
  8
689
370
     0
100
AcDbLine
 10
751782.267
 20
4175365.909
 30
691.8699951171875
 11
751782.821
 21
4175367.837
 31
691.7109985351562
  0
LINE
  5
8B
330
1F
100
AcDbEntity
  8
689
370
     0
100
AcDbLine
 10
751782.821
 20
4175367.837
 30
691.7109985351562
 11
751784.333
 21
4175370.863
 31
691.7020263671875
  0
LINE
  5
8C
330
1F
100
AcDbEntity
  8
689
370
     0
100
AcDbLine
 10
751784.333
 20
4175370.863
 30
691.7020263671875
 11
751786.3309999999
 21
4175373.704
 31
691.781005859375
  0
LINE
  5
8D
330
1F
100
AcDbEntity
  8
689
370
     0
100
AcDbLine
 10
751786.3309999999
 20
4175373.704
 30
691.781005859375
 11
751787.96
 21
4175377.021
 31
691.9190063476562
  0
LINE
  5
8E
330
1F
100
AcDbEntity
  8
689
370
     0
100
AcDbLine
 10
751787.96
 20
4175377.021
 30
691.9190063476562
 11
751790.0499999999
 21
4175381.12
 31
692.0399780273438
  0
LINE
  5
8F
330
1F
100
AcDbEntity
  8
689
370
     0
100
AcDbLine
 10
751790.0499999999
 20
4175381.12
 30
692.0399780273438
 11
751793.767
 21
4175387.926
 31
692.2999877929688
  0
LINE
  5
90
330
1F
100
AcDbEntity
  8
689
370
     0
100
AcDbLine
 10
751793.767
 20
4175387.926
 30
692.2999877929688
 11
751795.4119999999
 21
4175391.399
 31
692.322998046875
  0
LINE
  5
91
330
1F
100
AcDbEntity
  8
689
370
     0
100
AcDbLine
 10
751795.4119999999
 20
4175391.399
 30
692.322998046875
 11
751797.1749999999
 21
4175395.569
 31
692.468017578125
  0
LINE
  5
92
330
1F
100
AcDbEntity
  8
689
370
     0
100
AcDbLine
 10
751797.1749999999
 20
4175395.569
 30
692.468017578125
 11
751797.8539999999
 21
4175397.535
 31
692.3189697265625
  0
LINE
  5
93
330
1F
100
AcDbEntity
  8
689
370
     0
100
AcDbLine
 10
751797.8539999999
 20
4175397.535
 30
692.3189697265625
 11
751798.092
 21
4175398.971
 31
692.218017578125
  0
LINE
  5
94
330
1F
100
AcDbEntity
  8
689
370
     0
100
AcDbLine
 10
751798.092
 20
4175398.971
 30
692.218017578125
 11
751798.063
 21
4175400.78
 31
692.281982421875
  0
LINE
  5
95
330
1F
100
AcDbEntity
  8
689
370
     0
100
AcDbLine
 10
751798.063
 20
4175400.78
 30
692.281982421875
 11
751798.168
 21
4175401.467
 31
692.364990234375
  0
LINE
  5
96
330
1F
100
AcDbEntity
  8
689
370
     0
100
AcDbLine
 10
751798.168
 20
4175401.467
 30
692.364990234375
 11
751798.975
 21
4175402.96
 31
692.052001953125
  0
LINE
  5
97
330
1F
100
AcDbEntity
  8
689
370
     0
100
AcDbLine
 10
751798.975
 20
4175402.96
 30
692.052001953125
 11
751801.2459999999
 21
4175402.829
 31
691.9089965820312
  0
LINE
  5
98
330
1F
100
AcDbEntity
  8
689
370
     0
100
AcDbLine
 10
751801.2459999999
 20
4175402.829
 30
691.9089965820312
 11
751803.8759999999
 21
4175403.343
 31
692.1370239257812
  0
LINE
  5
99
330
1F
100
AcDbEntity
  8
689
370
     0
100
AcDbLine
 10
751803.8759999999
 20
4175403.343
 30
692.1370239257812
 11
751806.0329999999
 21
4175404.789
 31
692.1610107421875
  0
LINE
  5
9A
330
1F
100
AcDbEntity
  8
689
370
     0
100
AcDbLine
 10
751806.0329999999
 20
4175404.789
 30
692.1610107421875
 11
751807.985
 21
4175406.738
 31
692.1309814453125
  0
LINE
  5
9B
330
1F
100
AcDbEntity
  8
689
370
     0
100
AcDbLine
 10
751807.985
 20
4175406.738
 30
692.1309814453125
 11
751809.09
 21
4175407.807
 31
692.3499755859375
  0
LINE
  5
9C
330
1F
100
AcDbEntity
  8
689
370
     0
100
AcDbLine
 10
751809.09
 20
4175407.807
 30
692.3499755859375
 11
751811.397
 21
4175409.511
 31
692.4400024414062
  0
LINE
  5
9D
330
1F
100
AcDbEntity
  8
689
370
     0
100
AcDbLine
 10
751811.397
 20
4175409.511
 30
692.4400024414062
 11
751812.8289999999
 21
4175410.753
 31
692.4569702148438
  0
LINE
  5
9E
330
1F
100
AcDbEntity
  8
689
370
     0
100
AcDbLine
 10
751812.8289999999
 20
4175410.753
 30
692.4569702148438
 11
751814.521
 21
4175412.132
 31
692.5
  0
LINE
  5
9F
330
1F
100
AcDbEntity
  8
689
370
     0
100
AcDbLine
 10
751814.521
 20
4175412.132
 30
692.5
 11
751816.443
 21
4175414.11
 31
692.5750122070312
  0
LINE
  5
A0
330
1F
100
AcDbEntity
  8
689
370
     0
100
AcDbLine
 10
751816.443
 20
4175414.11
 30
692.5750122070312
 11
751816.994
 21
4175414.506
 31
692.6849975585938
  0
LINE
  5
A1
330
1F
100
AcDbEntity
  8
689
370
     0
100
AcDbLine
 10
751816.994
 20
4175414.506
 30
692.6849975585938
 11
751821.9126480623
 21
4175417.465919244
 31
692.822021484375
  0
LINE
  5
A2
330
1F
100
AcDbEntity
  8
689
370
     0
100
AcDbLine
 10
751825.749
 20
4175415.56
 30
692.5590209960938
 11
751830.1649999999
 21
4175414.315
 31
692.9190063476562
  0
LINE
  5
A3
330
1F
100
AcDbEntity
  8
689
370
     0
100
AcDbLine
 10
751830.1649999999
 20
4175414.315
 30
692.9190063476562
 11
751832.6029999999
 21
4175412.983
 31
692.6799926757812
  0
LINE
  5
A4
330
1F
100
AcDbEntity
  8
689
370
     0
100
AcDbLine
 10
751832.6029999999
 20
4175412.983
 30
692.6799926757812
 11
751837.5959999999
 21
4175410.02
 31
692.4539794921875
  0
LINE
  5
A5
330
1F
100
AcDbEntity
  8
689
370
     0
100
AcDbLine
 10
751837.5959999999
 20
4175410.02
 30
692.4539794921875
 11
751844.8339999999
 21
4175405.155
 31
692.4819946289062
  0
LINE
  5
A6
330
1F
100
AcDbEntity
  8
689
370
     0
100
AcDbLine
 10
751844.8339999999
 20
4175405.155
 30
692.4819946289062
 11
751846.83
 21
4175403.627
 31
692.3889770507812
  0
LINE
  5
A7
330
1F
100
AcDbEntity
  8
689
370
     0
100
AcDbLine
 10
751846.83
 20
4175403.627
 30
692.3889770507812
 11
751848.276
 21
4175401.966
 31
692.3829956054688
  0
LINE
  5
A8
330
1F
100
AcDbEntity
  8
689
370
     0
100
AcDbLine
 10
751848.276
 20
4175401.966
 30
692.3829956054688
 11
751850.5689999999
 21
4175401.066
 31
692.333984375
  0
LINE
  5
A9
330
1F
100
AcDbEntity
  8
689
370
     0
100
AcDbLine
 10
751850.5689999999
 20
4175401.066
 30
692.333984375
 11
751853.666
 21
4175399.834
 31
692.4089965820312
  0
LINE
  5
AA
330
1F
100
AcDbEntity
  8
689
370
     0
100
AcDbLine
 10
751853.666
 20
4175399.834
 30
692.4089965820312
 11
751858.847
 21
4175397.697
 31
692.3670043945312
  0
LINE
  5
AB
330
1F
100
AcDbEntity
  8
689
370
     0
100
AcDbLine
 10
751858.847
 20
4175397.697
 30
692.3670043945312
 11
751863.9609999999
 21
4175396.658
 31
692.0469970703125
  0
LINE
  5
AC
330
1F
100
AcDbEntity
  8
689
370
     0
100
AcDbLine
 10
751863.9609999999
 20
4175396.658
 30
692.0469970703125
 11
751867.6868268885
 21
4175395.654619318
 31
692.1630249023438
  0
LINE
  5
AD
330
1F
100
AcDbEntity
  8
689
370
     0
100
AcDbLine
 10
751867.6868268885
 20
4175395.654619318
 30
692.1630249023438
 11
751870.1302907693
 21
4175394.980043401
 31
692.2000122070312
  0
LINE
  5
AE
330
1F
100
AcDbEntity
  8
689
370
     0
100
AcDbLine
 10
751870.1302907693
 20
4175394.980043401
 30
692.2000122070312
 11
751871.3474805052
 21
4175394.362068724
 31
692.2999877929688
  0
LINE
  5
AF
330
1F
100
AcDbEntity
  8
689
370
     0
100
AcDbLine
 10
751871.3474805052
 20
4175394.362068724
 30
692.2999877929688
 11
751873.189364269
 21
4175392.342457244
 31
692.5
  0
LINE
  5
B0
330
1F
100
AcDbEntity
  8
689
370
     0
100
AcDbLine
 10
751876.5800311182
 20
4175392.833749486
 30
692.5
 11
751877.3836846701
 21
4175393.807942685
 31
692.5
  0
LINE
  5
B1
330
1F
100
AcDbEntity
  8
689
370
     0
100
AcDbLine
 10
751874.325452157
 20
4175399.717326181
 30
692.5
 11
751870.9539999999
 21
4175398.848
 31
692.4749755859375
  0
LINE
  5
B2
330
1F
100
AcDbEntity
  8
689
370
     0
100
AcDbLine
 10
751870.9539999999
 20
4175398.848
 30
692.4749755859375
 11
751866.122
 21
4175398.662
 31
692.1090087890625
  0
LINE
  5
B3
330
1F
100
AcDbEntity
  8
689
370
     0
100
AcDbLine
 10
751866.122
 20
4175398.662
 30
692.1090087890625
 11
751863.2869999999
 21
4175399.185
 31
692.0910034179688
  0
LINE
  5
B4
330
1F
100
AcDbEntity
  8
689
370
     0
100
AcDbLine
 10
751873.189364269
 20
4175392.342457244
 30
692.2999877929688
 11
751875.3454807805
 21
4175392.291923263
 31
692.5
  0
LINE
  5
B5
330
1F
100
AcDbEntity
  8
689
370
     0
100
AcDbLine
 10
751875.3454807805
 20
4175392.291923263
 30
692.2999877929688
 11
751876.5800311182
 21
4175392.833749486
 31
692.5
  0
LINE
  5
B6
330
1F
100
AcDbEntity
  8
689
370
     0
100
AcDbLine
 10
751877.9564031184
 20
4175395.003913562
 30
692.5
 11
751877.8216458365
 21
4175395.846146575
 31
692.5
  0
LINE
  5
B7
330
1F
100
AcDbEntity
  8
689
370
     0
100
AcDbLine
 10
751877.3836846701
 20
4175393.807942685
 30
692.5
 11
751877.9564031184
 21
4175395.003913562
 31
692.5
  0
LINE
  5
B8
330
1F
100
AcDbEntity
  8
689
370
     0
100
AcDbLine
 10
751877.8216458365
 20
4175395.846146575
 30
692.5
 11
751877.5718835596
 21
4175396.502903395
 31
692.5
  0
LINE
  5
B9
330
1F
100
AcDbEntity
  8
689
370
     0
100
AcDbLine
 10
751863.2869999999
 20
4175399.185
 30
692.0910034179688
 11
751859.7189999999
 21
4175399.703
 31
692.426025390625
  0
LINE
  5
BA
330
1F
100
AcDbEntity
  8
689
370
     0
100
AcDbLine
 10
751859.7189999999
 20
4175399.703
 30
692.426025390625
 11
751854.364
 21
4175401.871
 31
692.2639770507812
  0
LINE
  5
BB
330
1F
100
AcDbEntity
  8
689
370
     0
100
AcDbLine
 10
751854.364
 20
4175401.871
 30
692.2639770507812
 11
751849.9659999999
 21
4175403.897
 31
692.2739868164062
  0
LINE
  5
BC
330
1F
100
AcDbEntity
  8
689
370
     0
100
AcDbLine
 10
751849.9659999999
 20
4175403.897
 30
692.2739868164062
 11
751848.1329999999
 21
4175405.215
 31
692.4219970703125
  0
LINE
  5
BD
330
1F
100
AcDbEntity
  8
689
370
     0
100
AcDbLine
 10
751848.1329999999
 20
4175405.215
 30
692.4219970703125
 11
751846.284
 21
4175406.836
 31
692.427978515625
  0
LINE
  5
BE
330
1F
100
AcDbEntity
  8
689
370
     0
100
AcDbLine
 10
751846.284
 20
4175406.836
 30
692.427978515625
 11
751838.8139999999
 21
4175411.966
 31
692.5009765625
  0
LINE
  5
BF
330
1F
100
AcDbEntity
  8
689
370
     0
100
AcDbLine
 10
751838.8139999999
 20
4175411.966
 30
692.5009765625
 11
751834.1649999999
 21
4175414.98
 31
692.7969970703125
  0
LINE
  5
C0
330
1F
100
AcDbEntity
  8
689
370
     0
100
AcDbLine
 10
751834.1649999999
 20
4175414.98
 30
692.7969970703125
 11
751832.019
 21
4175415.862
 31
692.9970092773438
  0
LINE
  5
C1
330
1F
100
AcDbEntity
  8
689
370
     0
100
AcDbLine
 10
751832.019
 20
4175415.862
 30
692.9970092773438
 11
751828.8529999999
 21
4175417.666
 31
692.822998046875
  0
LINE
  5
C2
330
1F
100
AcDbEntity
  8
689
370
     0
100
AcDbLine
 10
751828.8529999999
 20
4175417.666
 30
692.822998046875
 11
751825.0809999999
 21
4175418.923
 31
693.1740112304688
  0
LINE
  5
C3
330
1F
100
AcDbEntity
  8
689
370
     0
100
AcDbLine
 10
751825.7869999999
 20
4175419.728
 30
693.0339965820312
 11
751826.5149999999
 21
4175420.672
 31
693.0800170898438
  0
LINE
  5
C4
330
1F
100
AcDbEntity
  8
689
370
     0
100
AcDbLine
 10
751826.5149999999
 20
4175420.672
 30
693.0800170898438
 11
751828.592
 21
4175422.665
 31
693.1939697265625
  0
LINE
  5
C5
330
1F
100
AcDbEntity
  8
689
370
     0
100
AcDbLine
 10
751828.592
 20
4175422.665
 30
693.1939697265625
 11
751830.757
 21
4175424.587
 31
693.27197265625
  0
LINE
  5
C6
330
1F
100
AcDbEntity
  8
689
370
     0
100
AcDbLine
 10
751830.757
 20
4175424.587
 30
693.27197265625
 11
751833.3099999999
 21
4175425.71
 31
693.385009765625
  0
LINE
  5
C7
330
1F
100
AcDbEntity
  8
689
370
     0
100
AcDbLine
 10
751833.3099999999
 20
4175425.71
 30
693.385009765625
 11
751840.1179999999
 21
4175428.256
 31
693.3989868164062
  0
LINE
  5
C8
330
1F
100
AcDbEntity
  8
689
370
     0
100
AcDbLine
 10
751840.1179999999
 20
4175428.256
 30
693.3989868164062
 11
751841.612
 21
4175428.602
 31
693.4219970703125
  0
LINE
  5
C9
330
1F
100
AcDbEntity
  8
689
370
     0
100
AcDbLine
 10
751841.612
 20
4175428.602
 30
693.4219970703125
 11
751842.1869999999
 21
4175428.939
 31
693.6480102539062
  0
LINE
  5
CA
330
1F
100
AcDbEntity
  8
689
370
     0
100
AcDbLine
 10
751842.1869999999
 20
4175428.939
 30
693.6480102539062
 11
751843.264
 21
4175429.317
 31
693.2659912109375
  0
LINE
  5
CB
330
1F
100
AcDbEntity
  8
689
370
     0
100
AcDbLine
 10
751843.264
 20
4175429.317
 30
693.2659912109375
 11
751844.857
 21
4175428.894
 31
694.7680053710938
  0
LINE
  5
CC
330
1F
100
AcDbEntity
  8
689
370
     0
100
AcDbLine
 10
751844.857
 20
4175428.894
 30
694.7680053710938
 11
751847.5489999999
 21
4175427.068
 31
693.072998046875
  0
LINE
  5
CD
330
1F
100
AcDbEntity
  8
689
370
     0
100
AcDbLine
 10
751847.5489999999
 20
4175427.068
 30
693.072998046875
 11
751846.5699509896
 21
4175425.112650538
 31
692.6740112304688
  0
LINE
  5
CE
330
1F
100
AcDbEntity
  8
689
370
     0
100
AcDbLine
 10
751846.5699509896
 20
4175425.112650538
 30
692.6740112304688
 11
751847.744
 21
4175423.184
 31
692.947021484375
  0
LINE
  5
CF
330
1F
100
AcDbEntity
  8
689
370
     0
100
AcDbLine
 10
751847.744
 20
4175423.184
 30
692.947021484375
 11
751847.9807833029
 21
4175421.199559028
 31
692.7880249023438
  0
LINE
  5
D0
330
1F
100
AcDbEntity
  8
689
370
     0
100
AcDbLine
 10
751847.9807833029
 20
4175421.199559028
 30
692.7880249023438
 11
751849.5349999999
 21
4175421.049
 31
692.8729858398438
  0
LINE
  5
D1
330
1F
100
AcDbEntity
  8
689
370
     0
100
AcDbLine
 10
751849.5349999999
 20
4175421.049
 30
692.8729858398438
 11
751849.9609999999
 21
4175422.134
 31
692.7550048828125
  0
LINE
  5
D2
330
1F
100
AcDbEntity
  8
689
370
     0
100
AcDbLine
 10
751849.9609999999
 20
4175422.134
 30
692.7550048828125
 11
751852.325
 21
4175422.589
 31
692.4749755859375
  0
LINE
  5
D3
330
1F
100
AcDbEntity
  8
689
370
     0
100
AcDbLine
 10
751852.325
 20
4175422.589
 30
692.4749755859375
 11
751854.122
 21
4175424.559
 31
692.7269897460938
  0
LINE
  5
D4
330
1F
100
AcDbEntity
  8
689
370
     0
100
AcDbLine
 10
751854.122
 20
4175424.559
 30
692.7269897460938
 11
751854.593
 21
4175425.388
 31
692.3369750976562
  0
LINE
  5
D5
330
1F
100
AcDbEntity
  8
689
370
     0
100
AcDbLine
 10
751854.593
 20
4175425.388
 30
692.3369750976562
 11
751857.3309999999
 21
4175426.471
 31
691.9840087890625
  0
LINE
  5
D6
330
1F
100
AcDbEntity
  8
689
370
     0
100
AcDbLine
 10
751857.3309999999
 20
4175426.471
 30
691.9840087890625
 11
751858.1919999999
 21
4175427.255
 31
692.1900024414062
  0
LINE
  5
D7
330
1F
100
AcDbEntity
  8
689
370
     0
100
AcDbLine
 10
751858.1919999999
 20
4175427.255
 30
692.1900024414062
 11
751862.646
 21
4175427.8
 31
691.9310302734375
  0
LINE
  5
D8
330
1F
100
AcDbEntity
  8
689
370
     0
100
AcDbLine
 10
751862.646
 20
4175427.8
 30
691.9310302734375
 11
751865.9199999999
 21
4175427.37
 31
691.9970092773438
  0
LINE
  5
D9
330
1F
100
AcDbEntity
  8
689
370
     0
100
AcDbLine
 10
751865.9199999999
 20
4175427.37
 30
691.9970092773438
 11
751867.2039999999
 21
4175427.504
 31
692.2260131835938
  0
LINE
  5
DA
330
1F
100
AcDbEntity
  8
689
370
     0
100
AcDbLine
 10
751867.2039999999
 20
4175427.504
 30
692.2260131835938
 11
751867.83
 21
4175427.641
 31
692.0330200195312
  0
LINE
  5
DB
330
1F
100
AcDbEntity
  8
689
370
     0
100
AcDbLine
 10
751867.83
 20
4175427.641
 30
692.0330200195312
 11
751869.46
 21
4175428.706
 31
692.0999755859375
  0
LINE
  5
DC
330
1F
100
AcDbEntity
  8
689
370
     0
100
AcDbLine
 10
751869.46
 20
4175428.706
 30
692.0999755859375
 11
751869.0689999999
 21
4175430.458
 31
692.3480224609375
  0
LINE
  5
DD
330
1F
100
AcDbEntity
  8
689
370
     0
100
AcDbLine
 10
751869.0689999999
 20
4175430.458
 30
692.3480224609375
 11
751869.2069999999
 21
4175433.316
 31
692.5120239257812
  0
LINE
  5
DE
330
1F
100
AcDbEntity
  8
689
370
     0
100
AcDbLine
 10
751869.2069999999
 20
4175433.316
 30
692.5120239257812
 11
751869.6379999999
 21
4175436.268
 31
692.4600219726562
  0
LINE
  5
DF
330
1F
100
AcDbEntity
  8
689
370
     0
100
AcDbLine
 10
751869.6379999999
 20
4175436.268
 30
692.4600219726562
 11
751870.614
 21
4175437.157
 31
692.47802734375
  0
LINE
  5
E0
330
1F
100
AcDbEntity
  8
689
370
     0
100
AcDbLine
 10
751870.614
 20
4175437.157
 30
692.47802734375
 11
751871.61
 21
4175437.394
 31
692.5020141601562
  0
LINE
  5
E1
330
1F
100
AcDbEntity
  8
689
370
     0
100
AcDbLine
 10
751871.61
 20
4175437.394
 30
692.5020141601562
 11
751874.6499999999
 21
4175438.209
 31
692.72802734375
  0
LINE
  5
E2
330
1F
100
AcDbEntity
  8
689
370
     0
100
AcDbLine
 10
751874.6499999999
 20
4175438.209
 30
692.72802734375
 11
751876.516
 21
4175439.089
 31
693.2069702148438
  0
LINE
  5
E3
330
1F
100
AcDbEntity
  8
689
370
     0
100
AcDbLine
 10
751876.516
 20
4175439.089
 30
693.2069702148438
 11
751881.154
 21
4175439.901
 31
692.8209838867188
  0
LINE
  5
E4
330
1F
100
AcDbEntity
  8
689
370
     0
100
AcDbLine
 10
751881.154
 20
4175439.901
 30
692.8209838867188
 11
751883.097
 21
4175440.053
 31
692.5560302734375
  0
LINE
  5
E5
330
1F
100
AcDbEntity
  8
689
370
     0
100
AcDbLine
 10
751883.097
 20
4175440.053
 30
692.5560302734375
 11
751885.2209999999
 21
4175440.297
 31
692.9000244140625
  0
LINE
  5
E6
330
1F
100
AcDbEntity
  8
689
370
     0
100
AcDbLine
 10
751885.2209999999
 20
4175440.297
 30
692.9000244140625
 11
751886.5449999999
 21
4175441.065
 31
692.718017578125
  0
LINE
  5
E7
330
1F
100
AcDbEntity
  8
689
370
     0
100
AcDbLine
 10
751886.5449999999
 20
4175441.065
 30
692.718017578125
 11
751887.8085101594
 21
4175441.486505192
 31
692.7659912109375
  0
LINE
  5
E8
330
1F
100
AcDbEntity
  8
689
370
     0
100
AcDbLine
 10
751887.8085101594
 20
4175441.486505192
 30
692.7659912109375
 11
751889.7119999999
 21
4175442.064
 31
692.7979736328125
  0
LINE
  5
E9
330
1F
100
AcDbEntity
  8
689
370
     0
100
AcDbLine
 10
751889.7119999999
 20
4175442.064
 30
692.7979736328125
 11
751891.546
 21
4175442.562
 31
692.7999877929688
  0
LINE
  5
EA
330
1F
100
AcDbEntity
  8
689
370
     0
100
AcDbLine
 10
751891.546
 20
4175442.562
 30
692.7999877929688
 11
751892.4029999999
 21
4175444.159
 31
692.8709716796875
  0
LINE
  5
EB
330
1F
100
AcDbEntity
  8
689
370
     0
100
AcDbLine
 10
751892.4029999999
 20
4175444.159
 30
692.8709716796875
 11
751896.1089999999
 21
4175443.715
 31
692.7000122070312
  0
LINE
  5
EC
330
1F
100
AcDbEntity
  8
689
370
     0
100
AcDbLine
 10
751896.1089999999
 20
4175443.715
 30
692.7000122070312
 11
751898.9029999999
 21
4175443.782
 31
692.989990234375
  0
LINE
  5
ED
330
1F
100
AcDbEntity
  8
689
370
     0
100
AcDbLine
 10
751898.9029999999
 20
4175443.782
 30
692.989990234375
 11
751901.279
 21
4175444.364
 31
693.0679931640625
  0
LINE
  5
EE
330
1F
100
AcDbEntity
  8
689
370
     0
100
AcDbLine
 10
751901.279
 20
4175444.364
 30
693.0679931640625
 11
751903.703125161
 21
4175445.562840266
 31
693.3660278320312
  0
LINE
  5
EF
330
1F
100
AcDbEntity
  8
689
370
     0
100
AcDbLine
 10
751903.703125161
 20
4175445.562840266
 30
693.3660278320312
 11
751906.3139999999
 21
4175445.875
 31
693.3870239257812
  0
LINE
  5
F0
330
1F
100
AcDbEntity
  8
689
370
     0
100
AcDbLine
 10
751906.3139999999
 20
4175445.875
 30
693.3870239257812
 11
751910.916
 21
4175446.898
 31
693.4580078125
  0
LINE
  5
F1
330
1F
100
AcDbEntity
  8
689
370
     0
100
AcDbLine
 10
751910.916
 20
4175446.898
 30
693.4580078125
 11
751914.127
 21
4175447.078
 31
693.64599609375
  0
LINE
  5
F2
330
1F
100
AcDbEntity
  8
689
370
     0
100
AcDbLine
 10
751914.127
 20
4175447.078
 30
693.64599609375
 11
751913.8609999999
 21
4175449.804
 31
693.5280151367188
  0
LINE
  5
F3
330
1F
100
AcDbEntity
  8
689
370
     0
100
AcDbLine
 10
751913.8609999999
 20
4175449.804
 30
693.5280151367188
 11
751913.2089999999
 21
4175451.768
 31
693.760009765625
  0
LINE
  5
F4
330
1F
100
AcDbEntity
  8
689
370
     0
100
AcDbLine
 10
751913.2089999999
 20
4175451.768
 30
693.760009765625
 11
751912.7009999999
 21
4175452.908
 31
693.8300170898438
  0
LINE
  5
F5
330
1F
100
AcDbEntity
  8
689
370
     0
100
AcDbLine
 10
751912.7009999999
 20
4175452.908
 30
693.8300170898438
 11
751910.896
 21
4175452.641
 31
693.7069702148438
  0
LINE
  5
F6
330
1F
100
AcDbEntity
  8
689
370
     0
100
AcDbLine
 10
751910.896
 20
4175452.641
 30
693.7069702148438
 11
751909.8749999999
 21
4175451.565
 31
693.7769775390625
  0
LINE
  5
F7
330
1F
100
AcDbEntity
  8
689
370
     0
100
AcDbLine
 10
751909.8749999999
 20
4175451.565
 30
693.7769775390625
 11
751910.0719999999
 21
4175450.814
 31
693.6099853515625
  0
LINE
  5
F8
330
1F
100
AcDbEntity
  8
689
370
     0
100
AcDbLine
 10
751910.0719999999
 20
4175450.814
 30
693.6099853515625
 11
751911.0269999999
 21
4175449.151
 31
693.60498046875
  0
LINE
  5
F9
330
1F
100
AcDbEntity
  8
689
370
     0
100
AcDbLine
 10
751911.0269999999
 20
4175449.151
 30
693.60498046875
 11
751910.5789999999
 21
4175448.081
 31
693.5399780273438
  0
LINE
  5
FA
330
1F
100
AcDbEntity
  8
689
370
     0
100
AcDbLine
 10
751910.5789999999
 20
4175448.081
 30
693.5399780273438
 11
751908.6497577524
 21
4175447.657539146
 31
693.4149780273438
  0
LINE
  5
FB
330
1F
100
AcDbEntity
  8
689
370
     0
100
AcDbLine
 10
751908.6497577524
 20
4175447.657539146
 30
693.4149780273438
 11
751905.6719999999
 21
4175446.9
 31
693.3880004882812
  0
LINE
  5
FC
330
1F
100
AcDbEntity
  8
689
370
     0
100
AcDbLine
 10
751905.6719999999
 20
4175446.9
 30
693.3880004882812
 11
751903.2189999999
 21
4175446.657
 31
693.239990234375
  0
LINE
  5
FD
330
1F
100
AcDbEntity
  8
689
370
     0
100
AcDbLine
 10
751903.2189999999
 20
4175446.657
 30
693.239990234375
 11
751901.239
 21
4175445.438
 31
693.1849975585938
  0
LINE
  5
FE
330
1F
100
AcDbEntity
  8
689
370
     0
100
AcDbLine
 10
751901.239
 20
4175445.438
 30
693.1849975585938
 11
751898.9519999999
 21
4175444.83
 31
693.0130004882812
  0
LINE
  5
FF
330
1F
100
AcDbEntity
  8
689
370
     0
100
AcDbLine
 10
751898.9519999999
 20
4175444.83
 30
693.0130004882812
 11
751896.1449999999
 21
4175445.113
 31
692.7000122070312
  0
LINE
  5
100
330
1F
100
AcDbEntity
  8
689
370
     0
100
AcDbLine
 10
751896.1449999999
 20
4175445.113
 30
692.7000122070312
 11
751892.7239999999
 21
4175445.121
 31
692.7890014648438
  0
LINE
  5
101
330
1F
100
AcDbEntity
  8
689
370
     0
100
AcDbLine
 10
751892.7239999999
 20
4175445.121
 30
692.7890014648438
 11
751891.6669999999
 21
4175444.91
 31
692.7969970703125
  0
LINE
  5
102
330
1F
100
AcDbEntity
  8
689
370
     0
100
AcDbLine
 10
751891.6669999999
 20
4175444.91
 30
692.7969970703125
 11
751890.8189999999
 21
4175443.436
 31
692.802978515625
  0
LINE
  5
103
330
1F
100
AcDbEntity
  8
689
370
     0
100
AcDbLine
 10
751890.8189999999
 20
4175443.436
 30
692.802978515625
 11
751889.254
 21
4175443.045
 31
692.85498046875
  0
LINE
  5
104
330
1F
100
AcDbEntity
  8
689
370
     0
100
AcDbLine
 10
751889.254
 20
4175443.045
 30
692.85498046875
 11
751887.6386777468
 21
4175442.465539101
 31
692.8829956054688
  0
LINE
  5
105
330
1F
100
AcDbEntity
  8
689
370
     0
100
AcDbLine
 10
751887.6386777468
 20
4175442.465539101
 30
692.8829956054688
 11
751886.0279999999
 21
4175441.918
 31
692.7119750976562
  0
LINE
  5
106
330
1F
100
AcDbEntity
  8
689
370
     0
100
AcDbLine
 10
751886.0279999999
 20
4175441.918
 30
692.7119750976562
 11
751884.1249999999
 21
4175441.576
 31
693.1510009765625
  0
LINE
  5
107
330
1F
100
AcDbEntity
  8
689
370
     0
100
AcDbLine
 10
751884.1249999999
 20
4175441.576
 30
693.1510009765625
 11
751880.8509999999
 21
4175441.12
 31
692.885009765625
  0
LINE
  5
108
330
1F
100
AcDbEntity
  8
689
370
     0
100
AcDbLine
 10
751880.8509999999
 20
4175441.12
 30
692.885009765625
 11
751876.061
 21
4175440.031
 31
692.958984375
  0
LINE
  5
109
330
1F
100
AcDbEntity
  8
689
370
     0
100
AcDbLine
 10
751876.061
 20
4175440.031
 30
692.958984375
 11
751874.0009999999
 21
4175439.353
 31
692.7899780273438
  0
LINE
  5
10A
330
1F
100
AcDbEntity
  8
689
370
     0
100
AcDbLine
 10
751874.0009999999
 20
4175439.353
 30
692.7899780273438
 11
751870.2849999999
 21
4175438.565
 31
692.5070190429688
  0
LINE
  5
10B
330
1F
100
AcDbEntity
  8
689
370
     0
100
AcDbLine
 10
751870.2849999999
 20
4175438.565
 30
692.5070190429688
 11
751869.641
 21
4175439.07
 31
692.39697265625
  0
LINE
  5
10C
330
1F
100
AcDbEntity
  8
689
370
     0
100
AcDbLine
 10
751869.641
 20
4175439.07
 30
692.39697265625
 11
751869.9299999999
 21
4175440.529
 31
692.3740234375
  0
LINE
  5
10D
330
1F
100
AcDbEntity
  8
689
370
     0
100
AcDbLine
 10
751869.9299999999
 20
4175440.529
 30
692.3740234375
 11
751873.0149999999
 21
4175442.167
 31
692.2219848632812
  0
LINE
  5
10E
330
1F
100
AcDbEntity
  8
689
370
     0
100
AcDbLine
 10
751873.0149999999
 20
4175442.167
 30
692.2219848632812
 11
751874.223
 21
4175443.129
 31
692.2639770507812
  0
LINE
  5
10F
330
1F
100
AcDbEntity
  8
689
370
     0
100
AcDbLine
 10
751874.223
 20
4175443.129
 30
692.2639770507812
 11
751874.4809999999
 21
4175444.018
 31
692.0640258789062
  0
LINE
  5
110
330
1F
100
AcDbEntity
  8
689
370
     0
100
AcDbLine
 10
751874.4809999999
 20
4175444.018
 30
692.0640258789062
 11
751875.9349999999
 21
4175446.711
 31
692.6890258789062
  0
LINE
  5
111
330
1F
100
AcDbEntity
  8
689
370
     0
100
AcDbLine
 10
751875.9349999999
 20
4175446.711
 30
692.6890258789062
 11
751877.058
 21
4175448.276
 31
692.7260131835938
  0
LINE
  5
112
330
1F
100
AcDbEntity
  8
689
370
     0
100
AcDbLine
 10
751877.058
 20
4175448.276
 30
692.7260131835938
 11
751878.3779999999
 21
4175449.767
 31
692.2849731445312
  0
LINE
  5
113
330
1F
100
AcDbEntity
  8
689
370
     0
100
AcDbLine
 10
751878.3779999999
 20
4175449.767
 30
692.2849731445312
 11
751881.3659999999
 21
4175450.214
 31
692.7849731445312
  0
LINE
  5
114
330
1F
100
AcDbEntity
  8
689
370
     0
100
AcDbLine
 10
751881.3659999999
 20
4175450.214
 30
692.7849731445312
 11
751886.306
 21
4175451.393
 31
692.7260131835938
  0
LINE
  5
115
330
1F
100
AcDbEntity
  8
689
370
     0
100
AcDbLine
 10
751886.306
 20
4175451.393
 30
692.7260131835938
 11
751891.1249999999
 21
4175451.762
 31
692.968017578125
  0
LINE
  5
116
330
1F
100
AcDbEntity
  8
689
370
     0
100
AcDbLine
 10
751891.1249999999
 20
4175451.762
 30
692.968017578125
 11
751896.2559999999
 21
4175452.263
 31
692.8720092773438
  0
LINE
  5
117
330
1F
100
AcDbEntity
  8
689
370
     0
100
AcDbLine
 10
751896.2559999999
 20
4175452.263
 30
692.8720092773438
 11
751901.563
 21
4175452.669
 31
692.9039916992188
  0
LINE
  5
118
330
1F
100
AcDbEntity
  8
689
370
     0
100
AcDbLine
 10
751901.274
 20
4175454.948
 30
692.7849731445312
 11
751896.7969999999
 21
4175454.723
 31
692.697021484375
  0
LINE
  5
119
330
1F
100
AcDbEntity
  8
689
370
     0
100
AcDbLine
 10
751896.7969999999
 20
4175454.723
 30
692.697021484375
 11
751891.3629999999
 21
4175454.275
 31
692.7990112304688
  0
LINE
  5
11A
330
1F
100
AcDbEntity
  8
689
370
     0
100
AcDbLine
 10
751891.3629999999
 20
4175454.275
 30
692.7990112304688
 11
751886.0109999999
 21
4175453.518
 31
692.93798828125
  0
LINE
  5
11B
330
1F
100
AcDbEntity
  8
689
370
     0
100
AcDbLine
 10
751873.056
 20
4175446.907
 30
692.89599609375
 11
751871.348
 21
4175445.165
 31
692.8350219726562
  0
LINE
  5
11C
330
1F
100
AcDbEntity
  8
689
370
     0
100
AcDbLine
 10
751871.348
 20
4175445.165
 30
692.8350219726562
 11
751868.6059999999
 21
4175443.474
 31
693.1010131835938
  0
LINE
  5
11D
330
1F
100
AcDbEntity
  8
689
370
     0
100
AcDbLine
 10
751860.4079999999
 20
4175438.801
 30
693.06201171875
 11
751859.377
 21
4175438.118
 31
693.0999755859375
  0
LINE
  5
11E
330
1F
100
AcDbEntity
  8
689
370
     0
100
AcDbLine
 10
751859.377
 20
4175438.118
 30
693.0999755859375
 11
751852.683
 21
4175434.31
 31
692.9580078125
  0
LINE
  5
11F
330
1F
100
AcDbEntity
  8
689
370
     0
100
AcDbLine
 10
751852.683
 20
4175434.31
 30
692.9580078125
 11
751848.843
 21
4175432.231
 31
692.9730224609375
  0
LINE
  5
120
330
1F
100
AcDbEntity
  8
689
370
     0
100
AcDbLine
 10
751848.843
 20
4175432.231
 30
692.9730224609375
 11
751847.0909999999
 21
4175433.684
 31
693.0380249023438
  0
LINE
  5
121
330
1F
100
AcDbEntity
  8
689
370
     0
100
AcDbLine
 10
751847.0909999999
 20
4175433.684
 30
693.0380249023438
 11
751846.696
 21
4175434.419
 31
696.6389770507812
  0
LINE
  5
122
330
1F
100
AcDbEntity
  8
689
370
     0
100
AcDbLine
 10
751846.696
 20
4175434.419
 30
696.6389770507812
 11
751845.5769999999
 21
4175435.178
 31
697.3460083007812
  0
LINE
  5
123
330
1F
100
AcDbEntity
  8
689
370
     0
100
AcDbLine
 10
751845.5769999999
 20
4175435.178
 30
697.3460083007812
 11
751845.22
 21
4175435.735
 31
698.2130126953125
  0
LINE
  5
124
330
1F
100
AcDbEntity
  8
689
370
     0
100
AcDbLine
 10
751845.22
 20
4175435.735
 30
698.2130126953125
 11
751843.426
 21
4175436.563
 31
699.31298828125
  0
LINE
  5
125
330
1F
100
AcDbEntity
  8
689
370
     0
100
AcDbLine
 10
751843.426
 20
4175436.563
 30
699.31298828125
 11
751842.3019999999
 21
4175439.257
 31
701.5759887695312
  0
LINE
  5
126
330
1F
100
AcDbEntity
  8
689
370
     0
100
AcDbLine
 10
751842.3019999999
 20
4175439.257
 30
701.5759887695312
 11
751842.0163240115
 21
4175442.450585526
 31
702.0
  0
LINE
  5
127
330
1F
100
AcDbEntity
  8
689
370
     0
100
AcDbLine
 10
751842.0163240115
 20
4175442.450585526
 30
702.0
 11
751841.021
 21
4175442.261
 31
702.0
  0
LINE
  5
128
330
1F
100
AcDbEntity
  8
689
370
     0
100
AcDbLine
 10
751841.021
 20
4175442.261
 30
702.0
 11
751838.835
 21
4175444.195
 31
704.9940185546875
  0
LINE
  5
129
330
1F
100
AcDbEntity
  8
689
370
     0
100
AcDbLine
 10
751838.835
 20
4175444.195
 30
704.9940185546875
 11
751836.198
 21
4175447.419
 31
707.8920288085938
  0
LINE
  5
12A
330
1F
100
AcDbEntity
  8
689
370
     0
100
AcDbLine
 10
751836.198
 20
4175447.419
 30
707.8920288085938
 11
751835.0817614673
 21
4175449.064633199
 31
710.0919799804688
  0
LINE
  5
12B
330
1F
100
AcDbEntity
  8
689
370
     0
100
AcDbLine
 10
751835.0817614673
 20
4175449.064633199
 30
710.0919799804688
 11
751834.2099613593
 21
4175450.209903001
 31
712.6519775390625
  0
LINE
  5
12C
330
1F
100
AcDbEntity
  8
689
370
     0
100
AcDbLine
 10
751834.2099613593
 20
4175450.209903001
 30
712.6519775390625
 11
751833.8360184912
 21
4175451.487917249
 31
716.5999755859375
  0
LINE
  5
12D
330
1F
100
AcDbEntity
  8
689
370
     0
100
AcDbLine
 10
751833.8360184912
 20
4175451.487917249
 30
716.5999755859375
 11
751832.9865795932
 21
4175453.13682805
 31
719.0
  0
LINE
  5
12E
330
1F
100
AcDbEntity
  8
689
370
     0
100
AcDbLine
 10
751831.6274773563
 20
4175452.427296736
 30
719.0
 11
751832.179912442
 21
4175450.608498154
 31
716.5999755859375
  0
LINE
  5
12F
330
1F
100
AcDbEntity
  8
689
370
     0
100
AcDbLine
 10
751832.179912442
 20
4175450.608498154
 30
716.5999755859375
 11
751832.5341930446
 21
4175449.350969822
 31
712.6519775390625
  0
LINE
  5
130
330
1F
100
AcDbEntity
  8
689
370
     0
100
AcDbLine
 10
751832.5341930446
 20
4175449.350969822
 30
712.6519775390625
 11
751833.5725501272
 21
4175448.273649816
 31
710.0919799804688
  0
LINE
  5
131
330
1F
100
AcDbEntity
  8
689
370
     0
100
AcDbLine
 10
751833.5725501272
 20
4175448.273649816
 30
710.0919799804688
 11
751834.841607148
 21
4175446.617495133
 31
707.8920288085938
  0
LINE
  5
132
330
1F
100
AcDbEntity
  8
689
370
     0
100
AcDbLine
 10
751834.841607148
 20
4175446.617495133
 30
707.8920288085938
 11
751837.4786071479
 21
4175443.393495133
 31
704.9940185546875
  0
LINE
  5
133
330
1F
100
AcDbEntity
  8
689
370
     0
100
AcDbLine
 10
751837.4786071479
 20
4175443.393495133
 30
704.9940185546875
 11
751839.6646071479
 21
4175441.459495133
 31
702.0
  0
LINE
  5
134
330
1F
100
AcDbEntity
  8
689
370
     0
100
AcDbLine
 10
751839.6646071479
 20
4175441.459495133
 30
702.0
 11
751840.497
 21
4175440.065
 31
702.2830200195312
  0
LINE
  5
135
330
1F
100
AcDbEntity
  8
689
370
     0
100
AcDbLine
 10
751840.497
 20
4175440.065
 30
702.2830200195312
 11
751842.3832796069
 21
4175436.23122533
 31
699.31298828125
  0
LINE
  5
136
330
1F
100
AcDbEntity
  8
689
370
     0
100
AcDbLine
 10
751842.3832796069
 20
4175436.23122533
 30
699.31298828125
 11
751843.4174668192
 21
4175435.229636716
 31
698.1859741210938
  0
LINE
  5
137
330
1F
100
AcDbEntity
  8
689
370
     0
100
AcDbLine
 10
751843.4174668192
 20
4175435.229636716
 30
698.1859741210938
 11
751844.0894641266
 21
4175433.694740009
 31
696.3889770507812
  0
LINE
  5
138
330
1F
100
AcDbEntity
  8
689
370
     0
100
AcDbLine
 10
751844.0894641266
 20
4175433.694740009
 30
696.3889770507812
 11
751842.7969999999
 21
4175432.078
 31
693.1810302734375
  0
LINE
  5
139
330
1F
100
AcDbEntity
  8
689
370
     0
100
AcDbLine
 10
751842.7969999999
 20
4175432.078
 30
693.1810302734375
 11
751839.5349999999
 21
4175430.451
 31
693.3980102539062
  0
LINE
  5
13A
330
1F
100
AcDbEntity
  8
689
370
     0
100
AcDbLine
 10
751839.5349999999
 20
4175430.451
 30
693.3980102539062
 11
751837.3389999999
 21
4175429.853
 31
693.4979858398438
  0
LINE
  5
13B
330
1F
100
AcDbEntity
  8
689
370
     0
100
AcDbLine
 10
751837.3389999999
 20
4175429.853
 30
693.4979858398438
 11
751832.468
 21
4175428.159
 31
693.4099731445312
  0
LINE
  5
13C
330
1F
100
AcDbEntity
  8
689
370
     0
100
AcDbLine
 10
751832.468
 20
4175428.159
 30
693.4099731445312
 11
751829.33
 21
4175426.181
 31
693.364990234375
  0
LINE
  5
13D
330
1F
100
AcDbEntity
  8
689
370
     0
100
AcDbLine
 10
751829.33
 20
4175426.181
 30
693.364990234375
 11
751826.6956295025
 21
4175423.891950215
 31
693.1939697265625
  0
LINE
  5
13E
330
1F
100
AcDbEntity
  8
689
370
     0
100
AcDbLine
 10
751826.6956295025
 20
4175423.891950215
 30
693.1939697265625
 11
751825.08
 21
4175422.1
 31
693.0800170898438
  0
LINE
  5
13F
330
1F
100
AcDbEntity
  8
689
370
     0
100
AcDbLine
 10
751825.08
 20
4175422.1
 30
693.0800170898438
 11
751822.9489999999
 21
4175420.862
 31
693.0360107421875
  0
LINE
  5
140
330
1F
100
AcDbEntity
  8
689
370
     0
100
AcDbLine
 10
751822.9489999999
 20
4175420.862
 30
693.0360107421875
 11
751820.7549999999
 21
4175419.738
 31
692.822021484375
  0
LINE
  5
141
330
1F
100
AcDbEntity
  8
689
370
     0
100
AcDbLine
 10
751820.7549999999
 20
4175419.738
 30
692.822021484375
 11
751817.948
 21
4175417.942
 31
692.666015625
  0
LINE
  5
142
330
1F
100
AcDbEntity
  8
689
370
     0
100
AcDbLine
 10
751817.948
 20
4175417.942
 30
692.666015625
 11
751815.97
 21
4175416.827
 31
692.6849975585938
  0
LINE
  5
143
330
1F
100
AcDbEntity
  8
689
370
     0
100
AcDbLine
 10
751815.97
 20
4175416.827
 30
692.6849975585938
 11
751814.8219999999
 21
4175416.219
 31
692.6339721679688
  0
LINE
  5
144
330
1F
100
AcDbEntity
  8
689
370
     0
100
AcDbLine
 10
751814.8219999999
 20
4175416.219
 30
692.6339721679688
 11
751813.6449999999
 21
4175415.172
 31
692.5
  0
LINE
  5
145
330
1F
100
AcDbEntity
  8
689
370
     0
100
AcDbLine
 10
751813.6449999999
 20
4175415.172
 30
692.5
 11
751812.59
 21
4175414.805
 31
692.4810180664062
  0
LINE
  5
146
330
1F
100
AcDbEntity
  8
689
370
     0
100
AcDbLine
 10
751812.59
 20
4175414.805
 30
692.4810180664062
 11
751812.249
 21
4175416.502
 31
692.4349975585938
  0
LINE
  5
147
330
1F
100
AcDbEntity
  8
689
370
     0
100
AcDbLine
 10
751812.249
 20
4175416.502
 30
692.4349975585938
 11
751812.0369999999
 21
4175417.591
 31
692.4979858398438
  0
LINE
  5
148
330
1F
100
AcDbEntity
  8
689
370
     0
100
AcDbLine
 10
751812.0369999999
 20
4175417.591
 30
692.4979858398438
 11
751811.5279999999
 21
4175419.316
 31
692.4559936523438
  0
LINE
  5
149
330
1F
100
AcDbEntity
  8
689
370
     0
100
AcDbLine
 10
751811.5279999999
 20
4175419.316
 30
692.4559936523438
 11
751810.941
 21
4175420.445
 31
692.489990234375
  0
LINE
  5
14A
330
1F
100
AcDbEntity
  8
689
370
     0
100
AcDbLine
 10
751810.941
 20
4175420.445
 30
692.489990234375
 11
751810.4639999999
 21
4175421.358
 31
692.3590087890625
  0
LINE
  5
14B
330
1F
100
AcDbEntity
  8
689
370
     0
100
AcDbLine
 10
751810.4639999999
 20
4175421.358
 30
692.3590087890625
 11
751810.044
 21
4175421.862
 31
692.3090209960938
  0
LINE
  5
14C
330
1F
100
AcDbEntity
  8
689
370
     0
100
AcDbLine
 10
751810.044
 20
4175421.862
 30
692.3090209960938
 11
751810.3659999999
 21
4175423.518
 31
692.405029296875
  0
LINE
  5
14D
330
1F
100
AcDbEntity
  8
689
370
     0
100
AcDbLine
 10
751810.3659999999
 20
4175423.518
 30
692.405029296875
 11
751811.065
 21
4175424.949
 31
692.4600219726562
  0
LINE
  5
14E
330
1F
100
AcDbEntity
  8
689
370
     0
100
AcDbLine
 10
751811.065
 20
4175424.949
 30
692.4600219726562
 11
751812.08
 21
4175427.982
 31
692.3109741210938
  0
LINE
  5
14F
330
1F
100
AcDbEntity
  8
689
370
     0
100
AcDbLine
 10
751812.08
 20
4175427.982
 30
692.3109741210938
 11
751813.058
 21
4175429.757
 31
692.2059936523438
  0
LINE
  5
150
330
1F
100
AcDbEntity
  8
689
370
     0
100
AcDbLine
 10
751813.058
 20
4175429.757
 30
692.2059936523438
 11
751813.443
 21
4175430.097
 31
692.364990234375
  0
LINE
  5
151
330
1F
100
AcDbEntity
  8
689
370
     0
100
AcDbLine
 10
751813.443
 20
4175430.097
 30
692.364990234375
 11
751814.2699999999
 21
4175430.662
 31
692.5640258789062
  0
LINE
  5
152
330
1F
100
AcDbEntity
  8
689
370
     0
100
AcDbLine
 10
751814.2699999999
 20
4175430.662
 30
692.5640258789062
 11
751817.284
 21
4175431.623
 31
692.56201171875
  0
LINE
  5
153
330
1F
100
AcDbEntity
  8
689
370
     0
100
AcDbLine
 10
751817.284
 20
4175431.623
 30
692.56201171875
 11
751817.389
 21
4175432.842
 31
692.4769897460938
  0
LINE
  5
154
330
1F
100
AcDbEntity
  8
689
370
     0
100
AcDbLine
 10
751817.389
 20
4175432.842
 30
692.4769897460938
 11
751816.4489999999
 21
4175433.97
 31
692.6589965820312
  0
LINE
  5
155
330
1F
100
AcDbEntity
  8
689
370
     0
100
AcDbLine
 10
751816.4489999999
 20
4175433.97
 30
692.6589965820312
 11
751813.872
 21
4175433.651
 31
692.594970703125
  0
LINE
  5
156
330
1F
100
AcDbEntity
  8
689
370
     0
100
AcDbLine
 10
751813.872
 20
4175433.651
 30
692.594970703125
 11
751811.5769999999
 21
4175432.534
 31
692.1199951171875
  0
LINE
  5
157
330
1F
100
AcDbEntity
  8
689
370
     0
100
AcDbLine
 10
751811.5769999999
 20
4175432.534
 30
692.1199951171875
 11
751810.171
 21
4175430.891
 31
692.2760009765625
  0
LINE
  5
158
330
1F
100
AcDbEntity
  8
689
370
     0
100
AcDbLine
 10
751810.171
 20
4175430.891
 30
692.2760009765625
 11
751809.6649999999
 21
4175430.223
 31
692.2329711914062
  0
LINE
  5
159
330
1F
100
AcDbEntity
  8
689
370
     0
100
AcDbLine
 10
751809.6649999999
 20
4175430.223
 30
692.2329711914062
 11
751809.411
 21
4175427.77
 31
692.3460083007812
  0
LINE
  5
15A
330
1F
100
AcDbEntity
  8
689
370
     0
100
AcDbLine
 10
751809.411
 20
4175427.77
 30
692.3460083007812
 11
751808.735
 21
4175425.29
 31
692.4409790039062
  0
LINE
  5
15B
330
1F
100
AcDbEntity
  8
689
370
     0
100
AcDbLine
 10
751808.735
 20
4175425.29
 30
692.4409790039062
 11
751807.9349999999
 21
4175424.378
 31
692.593994140625
  0
LINE
  5
15C
330
1F
100
AcDbEntity
  8
689
370
     0
100
AcDbLine
 10
751807.9349999999
 20
4175424.378
 30
692.593994140625
 11
751806.7209999999
 21
4175424.966
 31
692.593994140625
  0
LINE
  5
15D
330
1F
100
AcDbEntity
  8
689
370
     0
100
AcDbLine
 10
751806.7209999999
 20
4175424.966
 30
692.593994140625
 11
751804.0769999999
 21
4175426.931
 31
692.6170043945312
  0
LINE
  5
15E
330
1F
100
AcDbEntity
  8
689
370
     0
100
AcDbLine
 10
751799.4124834259
 20
4175430.426498953
 30
692.6090087890625
 11
751796.825
 21
4175432.661
 31
692.5230102539062
  0
LINE
  5
15F
330
1F
100
AcDbEntity
  8
689
370
     0
100
AcDbLine
 10
751796.825
 20
4175432.661
 30
692.5230102539062
 11
751795.4968670096
 21
4175434.717954563
 31
692.708984375
  0
LINE
  5
160
330
1F
100
AcDbEntity
  8
689
370
     0
100
AcDbLine
 10
751795.4968670096
 20
4175434.717954563
 30
692.708984375
 11
751793.4270135694
 21
4175435.226363442
 31
692.531982421875
  0
LINE
  5
161
330
1F
100
AcDbEntity
  8
689
370
     0
100
AcDbLine
 10
751793.4270135694
 20
4175435.226363442
 30
692.531982421875
 11
751792.1228096272
 21
4175433.209423149
 31
692.5880126953125
  0
LINE
  5
162
330
1F
100
AcDbEntity
  8
689
370
     0
100
AcDbLine
 10
751792.1228096272
 20
4175433.209423149
 30
692.5880126953125
 11
751792.632
 21
4175432.761
 31
692.708984375
  0
LINE
  5
163
330
1F
100
AcDbEntity
  8
689
370
     0
100
AcDbLine
 10
751792.632
 20
4175432.761
 30
692.708984375
 11
751792.913
 21
4175432.382
 31
694.3289794921875
  0
LINE
  5
164
330
1F
100
AcDbEntity
  8
689
370
     0
100
AcDbLine
 10
751792.913
 20
4175432.382
 30
694.3289794921875
 11
751790.9954763253
 21
4175430.767243222
 31
698.0239868164062
  0
LINE
  5
165
330
1F
100
AcDbEntity
  8
689
370
     0
100
AcDbLine
 10
751790.9954763253
 20
4175430.767243222
 30
698.0239868164062
 11
751792.0624763253
 21
4175429.950243222
 31
698.0239868164062
  0
LINE
  5
166
330
1F
100
AcDbEntity
  8
689
370
     0
100
AcDbLine
 10
751792.0624763253
 20
4175429.950243222
 30
698.0239868164062
 11
751793.98
 21
4175431.565
 31
694.0239868164062
  0
LINE
  5
167
330
1F
100
AcDbEntity
  8
689
370
     0
100
AcDbLine
 10
751793.98
 20
4175431.565
 30
694.0239868164062
 11
751795.4169999999
 21
4175430.599
 31
692.60498046875
  0
LINE
  5
168
330
1F
100
AcDbEntity
  8
689
370
     0
100
AcDbLine
 10
751795.4169999999
 20
4175430.599
 30
692.60498046875
 11
751797.8019999999
 21
4175428.989
 31
692.5349731445312
  0
LINE
  5
169
330
1F
100
AcDbEntity
  8
689
370
     0
100
AcDbLine
 10
751797.8019999999
 20
4175428.989
 30
692.5349731445312
 11
751805.786
 21
4175422.944
 31
692.4450073242188
  0
LINE
  5
16A
330
1F
100
AcDbEntity
  8
689
370
     0
100
AcDbLine
 10
751805.786
 20
4175422.944
 30
692.4450073242188
 11
751807.2729999999
 21
4175421.496
 31
692.333984375
  0
LINE
  5
16B
330
1F
100
AcDbEntity
  8
689
370
     0
100
AcDbLine
 10
751807.2729999999
 20
4175421.496
 30
692.333984375
 11
751808.3069999999
 21
4175420.285
 31
692.3560180664062
  0
LINE
  5
16C
330
1F
100
AcDbEntity
  8
689
370
     0
100
AcDbLine
 10
751808.3069999999
 20
4175420.285
 30
692.3560180664062
 11
751809.274
 21
4175418.251
 31
692.4110107421875
  0
LINE
  5
16D
330
1F
100
AcDbEntity
  8
689
370
     0
100
AcDbLine
 10
751809.274
 20
4175418.251
 30
692.4110107421875
 11
751809.666
 21
4175416.74
 31
692.4420166015625
  0
LINE
  5
16E
330
1F
100
AcDbEntity
  8
689
370
     0
100
AcDbLine
 10
751809.666
 20
4175416.74
 30
692.4420166015625
 11
751809.6479999999
 21
4175415.064
 31
692.3359985351562
  0
LINE
  5
16F
330
1F
100
AcDbEntity
  8
689
370
     0
100
AcDbLine
 10
751809.6479999999
 20
4175415.064
 30
692.3359985351562
 11
751809.3359999999
 21
4175413.493
 31
692.3209838867188
  0
LINE
  5
170
330
1F
100
AcDbEntity
  8
689
370
     0
100
AcDbLine
 10
751809.3359999999
 20
4175413.493
 30
692.3209838867188
 11
751809.058
 21
4175412.306
 31
692.4219970703125
  0
LINE
  5
171
330
1F
100
AcDbEntity
  8
689
370
     0
100
AcDbLine
 10
751809.058
 20
4175412.306
 30
692.4219970703125
 11
751806.955
 21
4175408.963
 31
692.2050170898438
  0
LINE
  5
172
330
1F
100
AcDbEntity
  8
689
370
     0
100
AcDbLine
 10
751806.955
 20
4175408.963
 30
692.2050170898438
 11
751804.8509999999
 21
4175407.664
 31
692.2050170898438
  0
LINE
  5
173
330
1F
100
AcDbEntity
  8
689
370
     0
100
AcDbLine
 10
751804.8509999999
 20
4175407.664
 30
692.2050170898438
 11
751804.0689999999
 21
4175406.854
 31
692.02099609375
  0
LINE
  5
174
330
1F
100
AcDbEntity
  8
689
370
     0
100
AcDbLine
 10
751804.0689999999
 20
4175406.854
 30
692.02099609375
 11
751802.4439999999
 21
4175405.689
 31
692.1160278320312
  0
LINE
  5
175
330
1F
100
AcDbEntity
  8
689
370
     0
100
AcDbLine
 10
751802.4439999999
 20
4175405.689
 30
692.1160278320312
 11
751800.198
 21
4175405.808
 31
692.2269897460938
  0
LINE
  5
176
330
1F
100
AcDbEntity
  8
689
370
     0
100
AcDbLine
 10
751796.056
 20
4175406.307
 30
692.1270141601562
 11
751795.0809999999
 21
4175407.168
 31
692.0700073242188
  0
LINE
  5
177
330
1F
100
AcDbEntity
  8
689
370
     0
100
AcDbLine
 10
751795.0809999999
 20
4175407.168
 30
692.0700073242188
 11
751794.3559999999
 21
4175408.588
 31
692.2639770507812
  0
LINE
  5
178
330
1F
100
AcDbEntity
  8
689
370
     0
100
AcDbLine
 10
751794.3559999999
 20
4175408.588
 30
692.2639770507812
 11
751794.019
 21
4175410.841
 31
692.333984375
  0
LINE
  5
179
330
1F
100
AcDbEntity
  8
689
370
     0
100
AcDbLine
 10
751794.019
 20
4175410.841
 30
692.333984375
 11
751792.8099999999
 21
4175412.11
 31
692.4310302734375
  0
LINE
  5
17A
330
1F
100
AcDbEntity
  8
689
370
     0
100
AcDbLine
 10
751792.8099999999
 20
4175412.11
 30
692.4310302734375
 11
751792.3389999999
 21
4175412.82
 31
692.4219970703125
  0
LINE
  5
17B
330
1F
100
AcDbEntity
  8
689
370
     0
100
AcDbLine
 10
751792.3389999999
 20
4175412.82
 30
692.4219970703125
 11
751791.3309999999
 21
4175413.962
 31
692.5360107421875
  0
LINE
  5
17C
330
1F
100
AcDbEntity
  8
689
370
     0
100
AcDbLine
 10
751791.3309999999
 20
4175413.962
 30
692.5360107421875
 11
751789.725
 21
4175415.722
 31
692.6370239257812
  0
LINE
  5
17D
330
1F
100
AcDbEntity
  8
689
370
     0
100
AcDbLine
 10
751789.725
 20
4175415.722
 30
692.6370239257812
 11
751787.757
 21
4175417.793
 31
692.5479736328125
  0
LINE
  5
17E
330
1F
100
AcDbEntity
  8
689
370
     0
100
AcDbLine
 10
751787.757
 20
4175417.793
 30
692.5479736328125
 11
751784.5951436164
 21
4175419.752408065
 31
692.6160278320312
  0
LINE
  5
17F
330
1F
100
AcDbEntity
  8
689
370
     0
100
AcDbLine
 10
751784.5951436164
 20
4175419.752408065
 30
692.6160278320312
 11
751783.6759597808
 21
4175419.292816147
 31
692.8939819335938
  0
LINE
  5
180
330
1F
100
AcDbEntity
  8
689
370
     0
100
AcDbLine
 10
751783.6759597808
 20
4175419.292816147
 30
692.8939819335938
 11
751783.6759597808
 21
4175418.220435006
 31
692.6649780273438
  0
LINE
  5
181
330
1F
100
AcDbEntity
  8
689
370
     0
100
AcDbLine
 10
751783.6759597808
 20
4175418.220435006
 30
692.6649780273438
 11
751787.406
 21
4175414.614
 31
692.6409912109375
  0
LINE
  5
182
330
1F
100
AcDbEntity
  8
689
370
     0
100
AcDbLine
 10
751787.406
 20
4175414.614
 30
692.6409912109375
 11
751788.7969999999
 21
4175413.117
 31
692.5490112304688
  0
LINE
  5
183
330
1F
100
AcDbEntity
  8
689
370
     0
100
AcDbLine
 10
751788.7969999999
 20
4175413.117
 30
692.5490112304688
 11
751790.3259999999
 21
4175411.526
 31
692.3049926757812
  0
LINE
  5
184
330
1F
100
AcDbEntity
  8
689
370
     0
100
AcDbLine
 10
751790.3259999999
 20
4175411.526
 30
692.3049926757812
 11
751791.524
 21
4175409.428
 31
692.280029296875
  0
LINE
  5
185
330
1F
100
AcDbEntity
  8
689
370
     0
100
AcDbLine
 10
751791.524
 20
4175409.428
 30
692.280029296875
 11
751792.2089999999
 21
4175407.058
 31
692.1939697265625
  0
LINE
  5
186
330
1F
100
AcDbEntity
  8
689
370
     0
100
AcDbLine
 10
751792.2089999999
 20
4175407.058
 30
692.1939697265625
 11
751790.9469999999
 21
4175406.486
 31
692.6209716796875
  0
LINE
  5
187
330
1F
100
AcDbEntity
  8
689
370
     0
100
AcDbLine
 10
751790.9469999999
 20
4175406.486
 30
692.6209716796875
 11
751789.847
 21
4175406.354
 31
692.6630249023438
  0
LINE
  5
188
330
1F
100
AcDbEntity
  8
689
370
     0
100
AcDbLine
 10
751789.847
 20
4175406.354
 30
692.6630249023438
 11
751788.2327876758
 21
4175406.473230096
 31
692.3489990234375
  0
LINE
  5
189
330
1F
100
AcDbEntity
  8
689
370
     0
100
AcDbLine
 10
751788.2327876758
 20
4175406.473230096
 30
692.3489990234375
 11
751783.4934521718
 21
4175407.539154503
 31
692.8770141601562
  0
LINE
  5
18A
330
1F
100
AcDbEntity
  8
689
370
     0
100
AcDbLine
 10
751783.4934521718
 20
4175407.539154503
 30
692.8770141601562
 11
751778.2028791533
 21
4175408.473884719
 31
692.8770141601562
  0
LINE
  5
18B
330
1F
100
AcDbEntity
  8
689
370
     0
100
AcDbLine
 10
751737.2485028777
 20
4175374.287849784
 30
688.9219970703125
 11
751740.637
 21
4175374.962
 31
689.18701171875
  0
LINE
  5
18C
330
1F
100
AcDbEntity
  8
689
370
     0
100
AcDbLine
 10
751740.637
 20
4175374.962
 30
689.18701171875
 11
751744.955
 21
4175375.651
 31
689.06298828125
  0
LINE
  5
18D
330
1F
100
AcDbEntity
  8
689
370
     0
100
AcDbLine
 10
751744.955
 20
4175375.651
 30
689.06298828125
 11
751748.0129999999
 21
4175377.893
 31
689.260986328125
  0
LINE
  5
18E
330
1F
100
AcDbEntity
  8
689
370
     0
100
AcDbLine
 10
751748.0129999999
 20
4175377.893
 30
689.260986328125
 11
751748.7849999999
 21
4175378.292
 31
689.2160034179688
  0
LINE
  5
18F
330
1F
100
AcDbEntity
  8
689
370
     0
100
AcDbLine
 10
751748.7849999999
 20
4175378.292
 30
689.2160034179688
 11
751755.772
 21
4175380.779
 31
689.3380126953125
  0
LINE
  5
190
330
1F
100
AcDbEntity
  8
689
370
     0
100
AcDbLine
 10
751755.772
 20
4175380.779
 30
689.3380126953125
 11
751757.355
 21
4175380.939
 31
689.3660278320312
  0
LINE
  5
191
330
1F
100
AcDbEntity
  8
689
370
     0
100
AcDbLine
 10
751757.355
 20
4175380.939
 30
689.3660278320312
 11
751760.9829999999
 21
4175383.112
 31
689.405029296875
  0
LINE
  5
192
330
1F
100
AcDbEntity
  8
689
370
     0
100
AcDbLine
 10
751760.9829999999
 20
4175383.112
 30
689.405029296875
 11
751763.0109999999
 21
4175383.756
 31
689.3989868164062
  0
LINE
  5
193
330
1F
100
AcDbEntity
  8
689
370
     0
100
AcDbLine
 10
751763.0109999999
 20
4175383.756
 30
689.3989868164062
 11
751764.943
 21
4175384.549
 31
689.22802734375
  0
LINE
  5
194
330
1F
100
AcDbEntity
  8
689
370
     0
100
AcDbLine
 10
751764.943
 20
4175384.549
 30
689.22802734375
 11
751764.8949999999
 21
4175385.447
 31
689.1320190429688
  0
LINE
  5
195
330
1F
100
AcDbEntity
  8
689
370
     0
100
AcDbLine
 10
751764.8949999999
 20
4175385.447
 30
689.1320190429688
 11
751763.9879999999
 21
4175385.883
 31
689.4030151367188
  0
LINE
  5
196
330
1F
100
AcDbEntity
  8
689
370
     0
100
AcDbLine
 10
751763.9879999999
 20
4175385.883
 30
689.4030151367188
 11
751765.3879999999
 21
4175387.89
 31
689.39501953125
  0
LINE
  5
197
330
1F
100
AcDbEntity
  8
689
370
     0
100
AcDbLine
 10
751765.3879999999
 20
4175387.89
 30
689.39501953125
 11
751769.5819999999
 21
4175389.727
 31
689.6079711914062
  0
LINE
  5
198
330
1F
100
AcDbEntity
  8
689
370
     0
100
AcDbLine
 10
751769.5819999999
 20
4175389.727
 30
689.6079711914062
 11
751772.0419999999
 21
4175391.515
 31
689.541015625
  0
LINE
  5
199
330
1F
100
AcDbEntity
  8
689
370
     0
100
AcDbLine
 10
751772.0419999999
 20
4175391.515
 30
689.541015625
 11
751773.8389999999
 21
4175393.661
 31
689.6320190429688
  0
LINE
  5
19A
330
1F
100
AcDbEntity
  8
689
370
     0
100
AcDbLine
 10
751773.8389999999
 20
4175393.661
 30
689.6320190429688
 11
751774.6669999999
 21
4175394.841
 31
689.5789794921875
  0
LINE
  5
19B
330
1F
100
AcDbEntity
  8
689
370
     0
100
AcDbLine
 10
751774.6669999999
 20
4175394.841
 30
689.5789794921875
 11
751776.696
 21
4175398.607
 31
689.89501953125
  0
LINE
  5
19C
330
1F
100
AcDbEntity
  8
689
370
     0
100
AcDbLine
 10
751776.696
 20
4175398.607
 30
689.89501953125
 11
751777.539
 21
4175401.951
 31
690.1090087890625
  0
LINE
  5
19D
330
1F
100
AcDbEntity
  8
689
370
     0
100
AcDbLine
 10
751777.539
 20
4175401.951
 30
690.1090087890625
 11
751777.9569999999
 21
4175404.714
 31
690.10400390625
  0
LINE
  5
19E
330
1F
100
AcDbEntity
  8
689
370
     0
100
AcDbLine
 10
751777.281
 20
4175409.923
 30
690.2550048828125
 11
751778.0690265744
 21
4175417.148927369
 31
689.8359985351562
  0
LINE
  5
19F
330
1F
100
AcDbEntity
  8
689
370
     0
100
AcDbLine
 10
751778.0690265744
 20
4175417.148927369
 30
689.8359985351562
 11
751778.6
 21
4175422.418
 31
690.1690063476562
  0
LINE
  5
1A0
330
1F
100
AcDbEntity
  8
689
370
     0
100
AcDbLine
 10
751778.6
 20
4175422.418
 30
690.1690063476562
 11
751777.217
 21
4175422.38
 31
689.968994140625
  0
LINE
  5
1A1
330
1F
100
AcDbEntity
  8
689
370
     0
100
AcDbLine
 10
751777.217
 20
4175422.38
 30
689.968994140625
 11
751776.72
 21
4175417.335
 31
689.8359985351562
  0
LINE
  5
1A2
330
1F
100
AcDbEntity
  8
689
370
     0
100
AcDbLine
 10
751776.72
 20
4175417.335
 30
689.8359985351562
 11
751775.7159999999
 21
4175413.059
 31
689.926025390625
  0
LINE
  5
1A3
330
1F
100
AcDbEntity
  8
689
370
     0
100
AcDbLine
 10
751775.7159999999
 20
4175413.059
 30
689.926025390625
 11
751775.352
 21
4175409.773
 31
690.051025390625
  0
LINE
  5
1A4
330
1F
100
AcDbEntity
  8
689
370
     0
100
AcDbLine
 10
751775.352
 20
4175409.773
 30
690.051025390625
 11
751771.5179999999
 21
4175414.715
 31
700.177001953125
  0
LINE
  5
1A5
330
1F
100
AcDbEntity
  8
689
370
     0
100
AcDbLine
 10
751771.5179999999
 20
4175414.715
 30
700.177001953125
 11
751769.215
 21
4175414.963
 31
701.6790161132812
  0
LINE
  5
1A6
330
1F
100
AcDbEntity
  8
689
370
     0
100
AcDbLine
 10
751769.215
 20
4175414.963
 30
701.6790161132812
 11
751768.9906647484
 21
4175414.065658994
 31
701.6790161132812
  0
LINE
  5
1A7
330
1F
100
AcDbEntity
  8
689
370
     0
100
AcDbLine
 10
751768.9906647484
 20
4175414.065658994
 30
701.6790161132812
 11
751770.8449942452
 21
4175413.727924893
 31
700.177001953125
  0
LINE
  5
1A8
330
1F
100
AcDbEntity
  8
689
370
     0
100
AcDbLine
 10
751770.8449942452
 20
4175413.727924893
 30
700.177001953125
 11
751772.1009999999
 21
4175411.755
 31
697.822998046875
  0
LINE
  5
1A9
330
1F
100
AcDbEntity
  8
689
370
     0
100
AcDbLine
 10
751772.1009999999
 20
4175411.755
 30
697.822998046875
 11
751774.865
 21
4175408.899
 31
694.2459716796875
  0
LINE
  5
1AA
330
1F
100
AcDbEntity
  8
689
370
     0
100
AcDbLine
 10
751774.865
 20
4175408.899
 30
694.2459716796875
 11
751775.3680705312
 21
4175408.664133347
 31
690.051025390625
  0
LINE
  5
1AB
330
1F
100
AcDbEntity
  8
689
370
     0
100
AcDbLine
 10
751775.3680705312
 20
4175408.664133347
 30
690.051025390625
 11
751775.2649999999
 21
4175404.409
 31
689.9520263671875
  0
LINE
  5
1AC
330
1F
100
AcDbEntity
  8
689
370
     0
100
AcDbLine
 10
751775.2649999999
 20
4175404.409
 30
689.9520263671875
 11
751774.254
 21
4175400.703
 31
689.8330078125
  0
LINE
  5
1AD
330
1F
100
AcDbEntity
  8
689
370
     0
100
AcDbLine
 10
751774.254
 20
4175400.703
 30
689.8330078125
 11
751773.7289999999
 21
4175398.386
 31
689.7130126953125
  0
LINE
  5
1AE
330
1F
100
AcDbEntity
  8
689
370
     0
100
AcDbLine
 10
751773.7289999999
 20
4175398.386
 30
689.7130126953125
 11
751772.2819999999
 21
4175395.709
 31
689.7059936523438
  0
LINE
  5
1AF
330
1F
100
AcDbEntity
  8
689
370
     0
100
AcDbLine
 10
751772.2819999999
 20
4175395.709
 30
689.7059936523438
 11
751771.948
 21
4175395.428
 31
689.5180053710938
  0
LINE
  5
1B0
330
1F
100
AcDbEntity
  8
689
370
     0
100
AcDbLine
 10
751771.948
 20
4175395.428
 30
689.5180053710938
 11
751770.3559999999
 21
4175393.271
 31
689.552001953125
  0
LINE
  5
1B1
330
1F
100
AcDbEntity
  8
689
370
     0
100
AcDbLine
 10
751770.3559999999
 20
4175393.271
 30
689.552001953125
 11
751767.8899999999
 21
4175391.534
 31
689.5269775390625
  0
LINE
  5
1B2
330
1F
100
AcDbEntity
  8
689
370
     0
100
AcDbLine
 10
751767.8899999999
 20
4175391.534
 30
689.5269775390625
 11
751767.0989999999
 21
4175391.512
 31
691.6300048828125
  0
LINE
  5
1B3
330
1F
100
AcDbEntity
  8
689
370
     0
100
AcDbLine
 10
751767.0989999999
 20
4175391.512
 30
691.6300048828125
 11
751767.617
 21
4175395.172
 31
695.2650146484375
  0
LINE
  5
1B4
330
1F
100
AcDbEntity
  8
689
370
     0
100
AcDbLine
 10
751767.617
 20
4175395.172
 30
695.2650146484375
 11
751768.1989999999
 21
4175399.927
 31
700.8989868164062
  0
LINE
  5
1B5
330
1F
100
AcDbEntity
  8
689
370
     0
100
AcDbLine
 10
751768.1989999999
 20
4175399.927
 30
700.8989868164062
 11
751767.5129999999
 21
4175401.569
 31
702.5150146484375
  0
LINE
  5
1B6
330
1F
100
AcDbEntity
  8
689
370
     0
100
AcDbLine
 10
751767.5129999999
 20
4175401.569
 30
702.5150146484375
 11
751766.343
 21
4175398.786
 31
699.5999755859375
  0
LINE
  5
1B7
330
1F
100
AcDbEntity
  8
689
370
     0
100
AcDbLine
 10
751766.343
 20
4175398.786
 30
699.5999755859375
 11
751765.6209999999
 21
4175393.223
 31
693.447998046875
  0
LINE
  5
1B8
330
1F
100
AcDbEntity
  8
689
370
     0
100
AcDbLine
 10
751765.6209999999
 20
4175393.223
 30
693.447998046875
 11
751765.521
 21
4175391.075
 31
691.4010009765625
  0
LINE
  5
1B9
330
1F
100
AcDbEntity
  8
689
370
     0
100
AcDbLine
 10
751765.521
 20
4175391.075
 30
691.4010009765625
 11
751763.683
 21
4175389.619
 31
689.5430297851562
  0
LINE
  5
1BA
330
1F
100
AcDbEntity
  8
689
370
     0
100
AcDbLine
 10
751763.683
 20
4175389.619
 30
689.5430297851562
 11
751761.816
 21
4175386.608
 31
689.4019775390625
  0
LINE
  5
1BB
330
1F
100
AcDbEntity
  8
689
370
     0
100
AcDbLine
 10
751761.816
 20
4175386.608
 30
689.4019775390625
 11
751759.423
 21
4175384.738
 31
689.427001953125
  0
LINE
  5
1BC
330
1F
100
AcDbEntity
  8
689
370
     0
100
AcDbLine
 10
751759.423
 20
4175384.738
 30
689.427001953125
 11
751755.9619999999
 21
4175383.18
 31
689.3499755859375
  0
LINE
  5
1BD
330
1F
100
AcDbEntity
  8
689
370
     0
100
AcDbLine
 10
751755.9619999999
 20
4175383.18
 30
689.3499755859375
 11
751752.6699999999
 21
4175382.136
 31
689.4000244140625
  0
LINE
  5
1BE
330
1F
100
AcDbEntity
  8
689
370
     0
100
AcDbLine
 10
751752.6699999999
 20
4175382.136
 30
689.4000244140625
 11
751748.661
 21
4175384.877
 31
689.1069946289062
  0
LINE
  5
1BF
330
1F
100
AcDbEntity
  8
689
370
     0
100
AcDbLine
 10
751748.661
 20
4175384.877
 30
689.1069946289062
 11
751746.928
 21
4175384.493
 31
689.47900390625
  0
LINE
  5
1C0
330
1F
100
AcDbEntity
  8
689
370
     0
100
AcDbLine
 10
751746.928
 20
4175384.493
 30
689.47900390625
 11
751749.808
 21
4175381.297
 31
689.35498046875
  0
LINE
  5
1C1
330
1F
100
AcDbEntity
  8
689
370
     0
100
AcDbLine
 10
751749.808
 20
4175381.297
 30
689.35498046875
 11
751747.637
 21
4175380.382
 31
689.2559814453125
  0
LINE
  5
1C2
330
1F
100
AcDbEntity
  8
689
370
     0
100
AcDbLine
 10
751747.637
 20
4175380.382
 30
689.2559814453125
 11
751744.9169999999
 21
4175378.82
 31
689.1669921875
  0
LINE
  5
1C3
330
1F
100
AcDbEntity
  8
689
370
     0
100
AcDbLine
 10
751744.9169999999
 20
4175378.82
 30
689.1669921875
 11
751741.2989999999
 21
4175377.736
 31
689.1580200195312
  0
LINE
  5
1C4
330
1F
100
AcDbEntity
  8
689
370
     0
100
AcDbLine
 10
751741.2989999999
 20
4175377.736
 30
689.1580200195312
 11
751736.9119999999
 21
4175376.262
 31
688.9219970703125
  0
LINE
  5
1C5
330
1F
100
AcDbEntity
  8
689
370
     0
100
AcDbLine
 10
751777.9544269815
 20
4175407.078730216
 30
692.8770141601562
 11
751783.245
 21
4175406.144
 31
692.8770141601562
  0
LINE
  5
1C6
330
1F
100
AcDbEntity
  8
689
370
     0
100
AcDbLine
 10
751783.245
 20
4175406.144
 30
692.8770141601562
 11
751785.7919999999
 21
4175405.604
 31
692.4080200195312
  0
LINE
  5
1C7
330
1F
100
AcDbEntity
  8
689
370
     0
100
AcDbLine
 10
751785.7919999999
 20
4175405.604
 30
692.4080200195312
 11
751788.524
 21
4175405.001
 31
692.3820190429688
  0
LINE
  5
1C8
330
1F
100
AcDbEntity
  8
689
370
     0
100
AcDbLine
 10
751788.524
 20
4175405.001
 30
692.3820190429688
 11
751790.546
 21
4175404.577
 31
692.3300170898438
  0
LINE
  5
1C9
330
1F
100
AcDbEntity
  8
689
370
     0
100
AcDbLine
 10
751790.546
 20
4175404.577
 30
692.3300170898438
 11
751791.401
 21
4175404.661
 31
692.2100219726562
  0
LINE
  5
1CA
330
1F
100
AcDbEntity
  8
689
370
     0
100
AcDbLine
 10
751791.401
 20
4175404.661
 30
692.2100219726562
 11
751794.2429999999
 21
4175404.97
 31
692.1589965820312
  0
LINE
  5
1CB
330
1F
100
AcDbEntity
  8
689
370
     0
100
AcDbLine
 10
751794.2429999999
 20
4175404.97
 30
692.1589965820312
 11
751795.585
 21
4175403.969
 31
692.114990234375
  0
LINE
  5
1CC
330
1F
100
AcDbEntity
  8
689
370
     0
100
AcDbLine
 10
751795.585
 20
4175403.969
 30
692.114990234375
 11
751795.695
 21
4175401.997
 31
692.0079956054688
  0
LINE
  5
1CD
330
1F
100
AcDbEntity
  8
689
370
     0
100
AcDbLine
 10
751795.695
 20
4175401.997
 30
692.0079956054688
 11
751795.769
 21
4175400.399
 31
692.3150024414062
  0
LINE
  5
1CE
330
1F
100
AcDbEntity
  8
689
370
     0
100
AcDbLine
 10
751795.769
 20
4175400.399
 30
692.3150024414062
 11
751795.2209999999
 21
4175397.816
 31
692.39501953125
  0
LINE
  5
1CF
330
1F
100
AcDbEntity
  8
689
370
     0
100
AcDbLine
 10
751795.2209999999
 20
4175397.816
 30
692.39501953125
 11
751794.8921551348
 21
4175396.198135437
 31
692.6240234375
  0
LINE
  5
1D0
330
1F
100
AcDbEntity
  8
689
370
     0
100
AcDbLine
 10
751794.8921551348
 20
4175396.198135437
 30
692.6240234375
 11
751793.3709999999
 21
4175392.476
 31
692.541015625
  0
LINE
  5
1D1
330
1F
100
AcDbEntity
  8
689
370
     0
100
AcDbLine
 10
751793.3709999999
 20
4175392.476
 30
692.541015625
 11
751791.9319999999
 21
4175389.414
 31
692.2620239257812
  0
LINE
  5
1D2
330
1F
100
AcDbEntity
  8
689
370
     0
100
AcDbLine
 10
751791.9319999999
 20
4175389.414
 30
692.2620239257812
 11
751788.3559999999
 21
4175382.868
 31
691.9749755859375
  0
LINE
  5
1D3
330
1F
100
AcDbEntity
  8
689
370
     0
100
AcDbLine
 10
751788.3559999999
 20
4175382.868
 30
691.9749755859375
 11
751787.419
 21
4175380.987
 31
694.125
  0
LINE
  5
1D4
330
1F
100
AcDbEntity
  8
689
370
     0
100
AcDbLine
 10
751787.419
 20
4175380.987
 30
694.125
 11
751786.6919999999
 21
4175381.017
 31
696.7130126953125
  0
LINE
  5
1D5
330
1F
100
AcDbEntity
  8
689
370
     0
100
AcDbLine
 10
751786.6919999999
 20
4175381.017
 30
696.7130126953125
 11
751785.372
 21
4175379.998
 31
695.4619750976562
  0
LINE
  5
1D6
330
1F
100
AcDbEntity
  8
689
370
     0
100
AcDbLine
 10
751785.372
 20
4175379.998
 30
695.4619750976562
 11
751786.4269999999
 21
4175379.364
 31
693.958984375
  0
LINE
  5
1D7
330
1F
100
AcDbEntity
  8
689
370
     0
100
AcDbLine
 10
751786.4269999999
 20
4175379.364
 30
693.958984375
 11
751785.3489999999
 21
4175377.311
 31
691.7620239257812
  0
LINE
  5
1D8
330
1F
100
AcDbEntity
  8
689
370
     0
100
AcDbLine
 10
751785.3489999999
 20
4175377.311
 30
691.7620239257812
 11
751783.705
 21
4175374.725
 31
691.9730224609375
  0
LINE
  5
1D9
330
1F
100
AcDbEntity
  8
689
370
     0
100
AcDbLine
 10
751783.705
 20
4175374.725
 30
691.9730224609375
 11
751781.1799999999
 21
4175369.539
 31
691.864013671875
  0
LINE
  5
1DA
330
1F
100
AcDbEntity
  8
689
370
     0
100
AcDbLine
 10
751781.1799999999
 20
4175369.539
 30
691.864013671875
 11
751780.5129999999
 21
4175368.686
 31
691.7550048828125
  0
LINE
  5
1DB
330
1F
100
AcDbEntity
  8
689
370
     0
100
AcDbLine
 10
751780.5129999999
 20
4175368.686
 30
691.7550048828125
 11
751779.2699999999
 21
4175366.161
 31
691.7769775390625
  0
LINE
  5
1DC
330
1F
100
AcDbEntity
  8
689
370
     0
100
AcDbLine
 10
751779.2699999999
 20
4175366.161
 30
691.7769775390625
 11
751776.899
 21
4175363.949
 31
691.6489868164062
  0
LINE
  5
1DD
330
1F
100
AcDbEntity
  8
689
370
     0
100
AcDbLine
 10
751776.899
 20
4175363.949
 30
691.6489868164062
 11
751776.046
 21
4175362.785
 31
691.583984375
  0
LINE
  5
1DE
330
1F
100
AcDbEntity
  8
689
370
     0
100
AcDbLine
 10
751776.046
 20
4175362.785
 30
691.583984375
 11
751773.568
 21
4175362.744
 31
691.2780151367188
  0
LINE
  5
1DF
330
1F
100
AcDbEntity
  8
689
370
     0
100
AcDbLine
 10
751773.568
 20
4175362.744
 30
691.2780151367188
 11
751768.874
 21
4175363.531
 31
691.177001953125
  0
LINE
  5
1E0
330
1F
100
AcDbEntity
  8
689
370
     0
100
AcDbLine
 10
751768.874
 20
4175363.531
 30
691.177001953125
 11
751765.098
 21
4175363.441
 31
691.0260009765625
  0
LINE
  5
1E1
330
1F
100
AcDbEntity
  8
689
370
     0
100
AcDbLine
 10
751765.098
 20
4175363.441
 30
691.0260009765625
 11
751762.847
 21
4175363.746
 31
690.9039916992188
  0
LINE
  5
1E2
330
1F
100
AcDbEntity
  8
689
370
     0
100
AcDbLine
 10
751762.847
 20
4175363.746
 30
690.9039916992188
 11
751757.2824888498
 21
4175364.733183747
 31
690.8989868164062
  0
LINE
  5
1E3
330
1F
100
AcDbEntity
  8
689
370
     0
100
AcDbLine
 10
751757.2824888498
 20
4175364.733183747
 30
690.8989868164062
 11
751748.223
 21
4175366.605
 31
690.3469848632812
  0
LINE
  5
1E4
330
1F
100
AcDbEntity
  8
689
370
     0
100
AcDbLine
 10
751748.223
 20
4175366.605
 30
690.3469848632812
 11
751741.245
 21
4175368.397
 31
690.0889892578125
  0
LINE
  5
1E5
330
1F
100
AcDbEntity
  8
689
370
     0
100
AcDbLine
 10
751741.245
 20
4175368.397
 30
690.0889892578125
 11
751733.6452456512
 21
4175370.412553825
 31
689.7369995117188
  0
LINE
  5
1E6
330
1F
100
AcDbEntity
  8
689
370
     0
100
AcDbLine
 10
751733.6452456512
 20
4175370.412553825
 30
689.7369995117188
 11
751730.5249999999
 21
4175371.043
 31
689.4829711914062
  0
LINE
  5
1E7
330
1F
100
AcDbEntity
  8
689
370
     0
100
AcDbLine
 10
751730.5249999999
 20
4175371.043
 30
689.4829711914062
 11
751729.051
 21
4175371.207
 31
689.5349731445312
  0
LINE
  5
1E8
330
1F
100
AcDbEntity
  8
689
370
     0
100
AcDbLine
 10
751729.051
 20
4175371.207
 30
689.5349731445312
 11
751726.3609999999
 21
4175371.028
 31
689.385986328125
  0
LINE
  5
1E9
330
1F
100
AcDbEntity
  8
689
370
     0
100
AcDbLine
 10
751726.3609999999
 20
4175371.028
 30
689.385986328125
 11
751722.4879999999
 21
4175370.025
 31
689.2520141601562
  0
LINE
  5
1EA
330
1F
100
AcDbEntity
  8
689
370
     0
100
AcDbLine
 10
751722.4879999999
 20
4175370.025
 30
689.2520141601562
 11
751718.0349999999
 21
4175368.953
 31
689.4240112304688
  0
LINE
  5
1EB
330
1F
100
AcDbEntity
  8
689
370
     0
100
AcDbLine
 10
751718.0349999999
 20
4175368.953
 30
689.4240112304688
 11
751703.4119999999
 21
4175363.139
 31
689.4630126953125
  0
LINE
  5
1EC
330
1F
100
AcDbEntity
  8
689
370
     0
100
AcDbLine
 10
751703.4119999999
 20
4175363.139
 30
689.4630126953125
 11
751700.6839999999
 21
4175362.006
 31
689.4879760742188
  0
LINE
  5
1ED
330
1F
100
AcDbEntity
  8
689
370
     0
100
AcDbLine
 10
751700.6839999999
 20
4175362.006
 30
689.4879760742188
 11
751691.8069999999
 21
4175359.155
 31
689.4359741210938
  0
LINE
  5
1EE
330
1F
100
AcDbEntity
  8
689
370
     0
100
AcDbLine
 10
751691.8069999999
 20
4175359.155
 30
689.4359741210938
 11
751687.9929999999
 21
4175358.075
 31
689.4739990234375
  0
LINE
  5
1EF
330
1F
100
AcDbEntity
  8
689
370
     0
100
AcDbLine
 10
751868.7290923842
 20
4175439.835374526
 30
692.3579711914062
 11
751865.59
 21
4175438.447
 31
693.0670166015625
  0
LINE
  5
1F0
330
1F
100
AcDbEntity
  8
689
370
     0
100
AcDbLine
 10
751865.59
 20
4175438.447
 30
693.0670166015625
 11
751861.9419999999
 21
4175436.973
 31
693.18701171875
  0
LINE
  5
1F1
330
1F
100
AcDbEntity
  8
689
370
     0
100
AcDbLine
 10
751861.9419999999
 20
4175436.973
 30
693.18701171875
 11
751860.5909999999
 21
4175436.237
 31
692.9080200195312
  0
LINE
  5
1F2
330
1F
100
AcDbEntity
  8
689
370
     0
100
AcDbLine
 10
751860.5909999999
 20
4175436.237
 30
692.9080200195312
 11
751854.7350750451
 21
4175432.114952457
 31
692.8790283203125
  0
LINE
  5
1F3
330
1F
100
AcDbEntity
  8
689
370
     0
100
AcDbLine
 10
751854.7350750451
 20
4175432.114952457
 30
692.8790283203125
 11
751850.788
 21
4175429.076
 31
692.697998046875
  0
LINE
  5
1F4
330
1F
100
AcDbEntity
  8
689
370
     0
100
AcDbLine
 10
751850.788
 20
4175429.076
 30
692.697998046875
 11
751850.762
 21
4175428.394
 31
693.322998046875
  0
LINE
  5
1F5
330
1F
100
AcDbEntity
  8
689
370
     0
100
AcDbLine
 10
751850.762
 20
4175428.394
 30
693.322998046875
 11
751849.494
 21
4175427.008
 31
693.1599731445312
  0
LINE
  5
1F6
330
1F
100
AcDbEntity
  8
689
370
     0
100
AcDbLine
 10
751849.494
 20
4175427.008
 30
693.1599731445312
 11
751849.294
 21
4175424.846
 31
692.6900024414062
  0
LINE
  5
1F7
330
1F
100
AcDbEntity
  8
689
370
     0
100
AcDbLine
 10
751849.294
 20
4175424.846
 30
692.6900024414062
 11
751849.2329999999
 21
4175423.348
 31
692.8400268554688
  0
LINE
  5
1F8
330
1F
100
AcDbEntity
  8
689
370
     0
100
AcDbLine
 10
751849.2329999999
 20
4175423.348
 30
692.8400268554688
 11
751850.666
 21
4175423.49
 31
692.2990112304688
  0
LINE
  5
1F9
330
1F
100
AcDbEntity
  8
689
370
     0
100
AcDbLine
 10
751850.666
 20
4175423.49
 30
692.2990112304688
 11
751851.3050817288
 21
4175425.082161343
 31
692.677001953125
  0
LINE
  5
1FA
330
1F
100
AcDbEntity
  8
689
370
     0
100
AcDbLine
 10
751851.3050817288
 20
4175425.082161343
 30
692.677001953125
 11
751853.1359999999
 21
4175427.455
 31
692.1690063476562
  0
LINE
  5
1FB
330
1F
100
AcDbEntity
  8
689
370
     0
100
AcDbLine
 10
751853.1359999999
 20
4175427.455
 30
692.1690063476562
 11
751856.6079999999
 21
4175428.696
 31
692.0599975585938
  0
LINE
  5
1FC
330
1F
100
AcDbEntity
  8
689
370
     0
100
AcDbLine
 10
751856.6079999999
 20
4175428.696
 30
692.0599975585938
 11
751858.453
 21
4175428.938
 31
692.0159912109375
  0
LINE
  5
1FD
330
1F
100
AcDbEntity
  8
689
370
     0
100
AcDbLine
 10
751858.453
 20
4175428.938
 30
692.0159912109375
 11
751862.5179999999
 21
4175429.017
 31
692.0280151367188
  0
LINE
  5
1FE
330
1F
100
AcDbEntity
  8
689
370
     0
100
AcDbLine
 10
751862.5179999999
 20
4175429.017
 30
692.0280151367188
 11
751866.754
 21
4175428.868
 31
691.9439697265625
  0
LINE
  5
1FF
330
1F
100
AcDbEntity
  8
689
370
     0
100
AcDbLine
 10
751866.754
 20
4175428.868
 30
691.9439697265625
 11
751867.9509999999
 21
4175429.816
 31
692.3920288085938
  0
LINE
  5
200
330
1F
100
AcDbEntity
  8
689
370
     0
100
AcDbLine
 10
751867.9509999999
 20
4175429.816
 30
692.3920288085938
 11
751867.8219999999
 21
4175430.823
 31
692.3419799804688
  0
LINE
  5
201
330
1F
100
AcDbEntity
  8
689
370
     0
100
AcDbLine
 10
751867.8219999999
 20
4175430.823
 30
692.3419799804688
 11
751867.9389999999
 21
4175433.293
 31
692.4829711914062
  0
LINE
  5
202
330
1F
100
AcDbEntity
  8
689
370
     0
100
AcDbLine
 10
751867.9389999999
 20
4175433.293
 30
692.4829711914062
 11
751868.495
 21
4175437.224
 31
692.6439819335938
  0
LINE
  5
203
330
1F
100
AcDbEntity
  8
689
370
     0
100
AcDbLine
 10
751868.495
 20
4175437.224
 30
692.6439819335938
 11
751868.7290923842
 21
4175439.835374526
 31
692.3579711914062
  0
LINE
  5
204
330
1F
100
AcDbEntity
  8
689
370
     0
100
AcDbLine
 10
751878.2637264361
 20
4175452.318727973
 30
692.4130249023438
 11
751873.056
 21
4175446.907
 31
692.89599609375
  0
LINE
  5
205
330
1F
100
AcDbEntity
  8
689
370
     0
100
AcDbLine
 10
751886.0109999999
 20
4175453.518
 30
692.93798828125
 11
751883.058
 21
4175453.32
 31
692.9010009765625
  0
LINE
  5
206
330
1F
100
AcDbEntity
  8
689
370
     0
100
AcDbLine
 10
751883.058
 20
4175453.32
 30
692.9010009765625
 11
751882.116
 21
4175454.252
 31
692.5430297851562
  0
LINE
  5
207
330
1F
100
AcDbEntity
  8
689
370
     0
100
AcDbLine
 10
751882.116
 20
4175454.252
 30
692.5430297851562
 11
751882.084
 21
4175456.847
 31
692.8900146484375
  0
LINE
  5
208
330
1F
100
AcDbEntity
  8
689
370
     0
100
AcDbLine
 10
751882.084
 20
4175456.847
 30
692.8900146484375
 11
751882.202
 21
4175458.8
 31
693.0390014648438
  0
LINE
  5
209
330
1F
100
AcDbEntity
  8
689
370
     0
100
AcDbLine
 10
751882.202
 20
4175458.8
 30
693.0390014648438
 11
751882.045
 21
4175464.047
 31
693.0960083007812
  0
LINE
  5
20A
330
1F
100
AcDbEntity
  8
689
370
     0
100
AcDbLine
 10
751879.69
 20
4175457.742
 30
693.155029296875
 11
751879.43
 21
4175455.848
 31
692.875
  0
LINE
  5
20B
330
1F
100
AcDbEntity
  8
689
370
     0
100
AcDbLine
 10
751879.43
 20
4175455.848
 30
692.875
 11
751878.2637264361
 21
4175452.318727973
 31
692.4130249023438
  0
LINE
  5
20C
330
1F
100
AcDbEntity
  8
689
370
     0
100
AcDbLine
 10
751845.472
 20
4175367.447
 30
692.072021484375
 11
751849.0844866547
 21
4175366.661997195
 31
692.4329833984375
  0
LINE
  5
20D
330
1F
100
AcDbEntity
  8
689
370
     0
100
AcDbLine
 10
751849.0844866547
 20
4175366.661997195
 30
692.4329833984375
 11
751851.7664385171
 21
4175366.393239395
 31
692.5139770507812
  0
LINE
  5
20E
330
1F
100
AcDbEntity
  8
689
370
     0
100
AcDbLine
 10
751851.7664385171
 20
4175366.393239395
 30
692.5139770507812
 11
751854.6398558036
 21
4175366.532725671
 31
692.6749877929688
  0
LINE
  5
20F
330
1F
100
AcDbEntity
  8
689
370
     0
100
AcDbLine
 10
751854.6398558036
 20
4175366.532725671
 30
692.6749877929688
 11
751856.5368691577
 21
4175366.672211947
 31
692.7379760742188
  0
LINE
  5
210
330
1F
100
AcDbEntity
  8
689
370
     0
100
AcDbLine
 10
751856.5368691577
 20
4175366.672211947
 30
692.7379760742188
 11
751859.5164375205
 21
4175366.911461861
 31
692.9299926757812
  0
LINE
  5
211
330
1F
100
AcDbEntity
  8
689
370
     0
100
AcDbLine
 10
751859.5164375205
 20
4175366.911461861
 30
692.9299926757812
 11
751861.6420668608
 21
4175367.174362541
 31
693.0819702148438
  0
LINE
  5
212
330
1F
100
AcDbEntity
  8
689
370
     0
100
AcDbLine
 10
751861.6420668608
 20
4175367.174362541
 30
693.0819702148438
 11
751864.2005416596
 21
4175367.25196336
 31
693.0910034179688
  0
LINE
  5
213
330
1F
100
AcDbEntity
  8
689
370
     0
100
AcDbLine
 10
751867.3520122761
 20
4175369.964787601
 30
693.4149780273438
 11
751863.1565979392
 21
4175369.683856849
 31
693.0969848632812
  0
LINE
  5
214
330
1F
100
AcDbEntity
  8
689
370
     0
100
AcDbLine
 10
751863.1565979392
 20
4175369.683856849
 30
693.0969848632812
 11
751860.9538507074
 21
4175369.445722013
 31
693.0560302734375
  0
LINE
  5
215
330
1F
100
AcDbEntity
  8
689
370
     0
100
AcDbLine
 10
751860.9538507074
 20
4175369.445722013
 30
693.0560302734375
 11
751858.7321543371
 21
4175369.142562917
 31
692.9299926757812
  0
LINE
  5
216
330
1F
100
AcDbEntity
  8
689
370
     0
100
AcDbLine
 10
751858.7321543371
 20
4175369.142562917
 30
692.9299926757812
 11
751855.5838274728
 21
4175368.787819406
 31
692.7379760742188
  0
LINE
  5
217
330
1F
100
AcDbEntity
  8
689
370
     0
100
AcDbLine
 10
751855.5838274728
 20
4175368.787819406
 30
692.7379760742188
 11
751854.2718809233
 21
4175368.794020833
 31
692.7559814453125
  0
LINE
  5
218
330
1F
100
AcDbEntity
  8
689
370
     0
100
AcDbLine
 10
751854.2718809233
 20
4175368.794020833
 30
692.7559814453125
 11
751851.8905325645
 21
4175368.893243681
 31
692.6510009765625
  0
LINE
  5
219
330
1F
100
AcDbEntity
  8
689
370
     0
100
AcDbLine
 10
751851.8905325645
 20
4175368.893243681
 30
692.6510009765625
 11
751849.0909999999
 21
4175369.078
 31
692.5579833984375
  0
LINE
  5
21A
330
1F
100
AcDbEntity
  8
689
370
     0
100
AcDbLine
 10
751849.0909999999
 20
4175369.078
 30
692.5579833984375
 11
751843.7289999999
 21
4175370.719
 31
692.39697265625
  0
LINE
  5
21B
330
1F
100
AcDbEntity
  8
689
370
     0
100
AcDbLine
 10
751882.045
 20
4175464.047
 30
693.0960083007812
 11
751882.049
 21
4175466.701
 31
693.1480102539062
  0
LINE
  5
21C
330
1F
100
AcDbEntity
  8
689
370
     0
100
AcDbLine
 10
751882.049
 20
4175466.701
 30
693.1480102539062
 11
751881.508
 21
4175468.843
 31
693.2210083007812
  0
LINE
  5
21D
330
1F
100
AcDbEntity
  8
689
370
     0
100
AcDbLine
 10
751881.508
 20
4175468.843
 30
693.2210083007812
 11
751879.67
 21
4175472.459
 31
693.2150268554688
  0
LINE
  5
21E
330
1F
100
AcDbEntity
  8
689
370
     0
100
AcDbLine
 10
751879.67
 20
4175472.459
 30
693.2150268554688
 11
751877.866
 21
4175476.305
 31
693.593994140625
  0
LINE
  5
21F
330
1F
100
AcDbEntity
  8
689
370
     0
100
AcDbLine
 10
751877.46
 20
4175471.779
 30
693.4650268554688
 11
751879.032
 21
4175467.795
 31
693.4630126953125
  0
LINE
  5
220
330
1F
100
AcDbEntity
  8
689
370
     0
100
AcDbLine
 10
751879.032
 20
4175467.795
 30
693.4630126953125
 11
751879.679
 21
4175464.216
 31
693.3800048828125
  0
LINE
  5
221
330
1F
100
AcDbEntity
  8
689
370
     0
100
AcDbLine
 10
751879.679
 20
4175464.216
 30
693.3800048828125
 11
751879.69
 21
4175457.742
 31
693.155029296875
  0
LINE
  5
222
330
1F
100
AcDbEntity
  8
689
370
     0
100
AcDbLine
 10
751877.866
 20
4175476.305
 30
693.593994140625
 11
751875.831
 21
4175479.477
 31
693.4310302734375
  0
LINE
  5
223
330
1F
100
AcDbEntity
  8
689
370
     0
100
AcDbLine
 10
751875.831
 20
4175479.477
 30
693.4310302734375
 11
751873.186
 21
4175483.218
 31
693.4310302734375
  0
LINE
  5
224
330
1F
100
AcDbEntity
  8
689
370
     0
100
AcDbLine
 10
751872.152
 20
4175480.159
 30
693.5360107421875
 11
751877.46
 21
4175471.779
 31
693.4650268554688
  0
LINE
  5
225
330
1F
100
AcDbEntity
  8
689
370
     0
100
AcDbLine
 10
751873.186
 20
4175483.218
 30
693.4310302734375
 11
751870.711
 21
4175486.289
 31
693.5689697265625
  0
LINE
  5
226
330
1F
100
AcDbEntity
  8
689
370
     0
100
AcDbLine
 10
751870.711
 20
4175486.289
 30
693.5689697265625
 11
751868.84
 21
4175487.535
 31
693.5070190429688
  0
LINE
  5
227
330
1F
100
AcDbEntity
  8
689
370
     0
100
AcDbLine
 10
751863.492
 20
4175487.801
 30
693.4550170898438
 11
751870.214
 21
4175482.759
 31
693.4619750976562
  0
LINE
  5
228
330
1F
100
AcDbEntity
  8
689
370
     0
100
AcDbLine
 10
751870.214
 20
4175482.759
 30
693.4619750976562
 11
751872.152
 21
4175480.159
 31
693.5360107421875
  0
LINE
  5
229
330
1F
100
AcDbEntity
  8
689
370
     0
100
AcDbLine
 10
751863.235
 20
4175488.382
 30
694.927978515625
 11
751863.492
 21
4175487.801
 31
693.4550170898438
  0
LINE
  5
22A
330
1F
100
AcDbEntity
  8
689
370
     0
100
AcDbLine
 10
751862.2988726862
 20
4175489.682161653
 30
700.218017578125
 11
751862.7722495137
 21
4175489.408541298
 31
699.5120239257812
  0
LINE
  5
22B
330
1F
100
AcDbEntity
  8
689
370
     0
100
AcDbLine
 10
751862.7722495137
 20
4175489.408541298
 30
699.5120239257812
 11
751863.622
 21
4175488.635
 31
697.4180297851562
  0
LINE
  5
22C
330
1F
100
AcDbEntity
  8
689
370
     0
100
AcDbLine
 10
751863.622
 20
4175488.635
 30
697.4180297851562
 11
751863.235
 21
4175488.382
 31
694.927978515625
  0
LINE
  5
22D
330
1F
100
AcDbEntity
  8
689
370
     0
100
AcDbLine
 10
751868.84
 20
4175487.535
 30
693.5070190429688
 11
751867.24
 21
4175488.453
 31
693.9030151367188
  0
LINE
  5
22E
330
1F
100
AcDbEntity
  8
689
370
     0
100
AcDbLine
 10
751867.24
 20
4175488.453
 30
693.9030151367188
 11
751865.77
 21
4175489.927
 31
693.9030151367188
  0
LINE
  5
22F
330
1F
100
AcDbEntity
  8
689
370
     0
100
AcDbLine
 10
751865.77
 20
4175489.927
 30
693.9030151367188
 11
751864.937
 21
4175490.329
 31
693.9030151367188
  0
LINE
  5
230
330
1F
100
AcDbEntity
  8
689
370
     0
100
AcDbLine
 10
751864.937
 20
4175490.329
 30
693.9030151367188
 11
751863.6564692566
 21
4175489.607891992
 31
697.9869995117188
  0
LINE
  5
231
330
1F
100
AcDbEntity
  8
689
370
     0
100
AcDbLine
 10
751864.2005416596
 20
4175367.25196336
 30
693.0910034179688
 11
751872.101
 21
4175367.879
 31
693.1849975585938
  0
LINE
  5
232
330
1F
100
AcDbEntity
  8
689
370
     0
100
AcDbLine
 10
751872.101
 20
4175367.879
 30
693.1849975585938
 11
751877.841
 21
4175369.98
 31
693.343017578125
  0
LINE
  5
233
330
1F
100
AcDbEntity
  8
689
370
     0
100
AcDbLine
 10
751877.841
 20
4175369.98
 30
693.343017578125
 11
751881.108
 21
4175370.085
 31
693.3629760742188
  0
LINE
  5
234
330
1F
100
AcDbEntity
  8
689
370
     0
100
AcDbLine
 10
751881.108
 20
4175370.085
 30
693.3629760742188
 11
751883.648
 21
4175370.168
 31
693.5330200195312
  0
LINE
  5
235
330
1F
100
AcDbEntity
  8
689
370
     0
100
AcDbLine
 10
751883.648
 20
4175370.168
 30
693.5330200195312
 11
751886.371
 21
4175371.216
 31
693.3350219726562
  0
LINE
  5
236
330
1F
100
AcDbEntity
  8
689
370
     0
100
AcDbLine
 10
751884.509
 20
4175373.185
 30
693.718994140625
 11
751882.795
 21
4175372.65
 31
693.60400390625
  0
LINE
  5
237
330
1F
100
AcDbEntity
  8
689
370
     0
100
AcDbLine
 10
751882.795
 20
4175372.65
 30
693.60400390625
 11
751880.144
 21
4175372.612
 31
693.5260009765625
  0
LINE
  5
238
330
1F
100
AcDbEntity
  8
689
370
     0
100
AcDbLine
 10
751880.144
 20
4175372.612
 30
693.5260009765625
 11
751877.879
 21
4175372.795
 31
693.5029907226562
  0
LINE
  5
239
330
1F
100
AcDbEntity
  8
689
370
     0
100
AcDbLine
 10
751877.879
 20
4175372.795
 30
693.5029907226562
 11
751871.072
 21
4175369.969
 31
693.3699951171875
  0
LINE
  5
23A
330
1F
100
AcDbEntity
  8
689
370
     0
100
AcDbLine
 10
751871.072
 20
4175369.969
 30
693.3699951171875
 11
751867.3520122761
 21
4175369.964787601
 31
693.4149780273438
  0
LINE
  5
23B
330
1F
100
AcDbEntity
  8
689
370
     0
100
AcDbLine
 10
751886.371
 20
4175371.216
 30
693.3350219726562
 11
751887.18
 21
4175371.388
 31
693.7150268554688
  0
LINE
  5
23C
330
1F
100
AcDbEntity
  8
689
370
     0
100
AcDbLine
 10
751887.18
 20
4175371.388
 30
693.7150268554688
 11
751888.854
 21
4175372.256
 31
693.7329711914062
  0
LINE
  5
23D
330
1F
100
AcDbEntity
  8
689
370
     0
100
AcDbLine
 10
751888.854
 20
4175372.256
 30
693.7329711914062
 11
751890.626
 21
4175373.244
 31
693.3790283203125
  0
LINE
  5
23E
330
1F
100
AcDbEntity
  8
689
370
     0
100
AcDbLine
 10
751887.6403399484
 20
4175374.569967447
 30
693.7630004882812
 11
751885.5580968224
 21
4175373.760206231
 31
693.5889892578125
  0
LINE
  5
23F
330
1F
100
AcDbEntity
  8
689
370
     0
100
AcDbLine
 10
751885.5580968224
 20
4175373.760206231
 30
693.5889892578125
 11
751884.509
 21
4175373.185
 31
693.718994140625
  0
LINE
  5
240
330
1F
100
AcDbEntity
  8
689
370
     0
100
AcDbLine
 10
751890.626
 20
4175373.244
 30
693.3790283203125
 11
751892.035
 21
4175373.75
 31
693.8629760742188
  0
LINE
  5
241
330
1F
100
AcDbEntity
  8
689
370
     0
100
AcDbLine
 10
751892.035
 20
4175373.75
 30
693.7030029296875
 11
751894.678
 21
4175374.809
 31
693.7030029296875
  0
LINE
  5
242
330
1F
100
AcDbEntity
  8
689
370
     0
100
AcDbLine
 10
751893.764
 20
4175377.248
 30
693.7030029296875
 11
751890.908
 21
4175376.189
 31
693.7030029296875
  0
LINE
  5
243
330
1F
100
AcDbEntity
  8
689
370
     0
100
AcDbLine
 10
751890.908
 20
4175376.189
 30
693.7030029296875
 11
751888.926
 21
4175375.234
 31
693.7030029296875
  0
LINE
  5
244
330
1F
100
AcDbEntity
  8
689
370
     0
100
AcDbLine
 10
751888.926
 20
4175375.234
 30
693.7030029296875
 11
751887.6403399484
 21
4175374.569967447
 31
693.7630004882812
  0
LINE
  5
245
330
1F
100
AcDbEntity
  8
689
370
     0
100
AcDbLine
 10
751894.678
 20
4175374.809
 30
693.7030029296875
 11
751902.971
 21
4175378.546
 31
693.85400390625
  0
LINE
  5
246
330
1F
100
AcDbEntity
  8
689
370
     0
100
AcDbLine
 10
751902.087
 20
4175380.776
 30
693.8920288085938
 11
751893.594
 21
4175377.212
 31
693.7030029296875
  0
LINE
  5
247
330
1F
100
AcDbEntity
  8
689
370
     0
100
AcDbLine
 10
751902.971
 20
4175378.546
 30
693.85400390625
 11
751904.345
 21
4175379.517
 31
693.9409790039062
  0
LINE
  5
248
330
1F
100
AcDbEntity
  8
689
370
     0
100
AcDbLine
 10
751904.345
 20
4175379.517
 30
693.9409790039062
 11
751909.436
 21
4175383.707
 31
693.6409912109375
  0
LINE
  5
249
330
1F
100
AcDbEntity
  8
689
370
     0
100
AcDbLine
 10
751908.3243786613
 20
4175386.027039606
 30
693.6939697265625
 11
751906.5638193155
 21
4175384.486527687
 31
693.5
  0
LINE
  5
24A
330
1F
100
AcDbEntity
  8
689
370
     0
100
AcDbLine
 10
751906.5638193155
 20
4175384.486527687
 30
693.5
 11
751902.087
 21
4175380.776
 31
693.8920288085938
  0
LINE
  5
24B
330
1F
100
AcDbEntity
  8
689
370
     0
100
AcDbLine
 10
751909.436
 20
4175383.707
 30
693.6409912109375
 11
751910.233
 21
4175384.093
 31
693.8250122070312
  0
LINE
  5
24C
330
1F
100
AcDbEntity
  8
689
370
     0
100
AcDbLine
 10
751910.233
 20
4175384.093
 30
693.8250122070312
 11
751913.192
 21
4175385.992
 31
693.8250122070312
  0
LINE
  5
24D
330
1F
100
AcDbEntity
  8
689
370
     0
100
AcDbLine
 10
751913.192
 20
4175385.992
 30
693.8250122070312
 11
751914.633
 21
4175386.881
 31
693.8250122070312
  0
LINE
  5
24E
330
1F
100
AcDbEntity
  8
689
370
     0
100
AcDbLine
 10
751914.633
 20
4175386.881
 30
693.8250122070312
 11
751913.501
 21
4175388.899
 31
693.8250122070312
  0
LINE
  5
24F
330
1F
100
AcDbEntity
  8
689
370
     0
100
AcDbLine
 10
751913.501
 20
4175388.899
 30
693.8250122070312
 11
751911.959
 21
4175390.539
 31
693.8250122070312
  0
LINE
  5
250
330
1F
100
AcDbEntity
  8
689
370
     0
100
AcDbLine
 10
751908.2305023776
 20
4175390.34303528
 30
693.8250122070312
 11
751906.878416243
 21
4175388.379291132
 31
693.8250122070312
  0
LINE
  5
251
330
1F
100
AcDbEntity
  8
689
370
     0
100
AcDbLine
 10
751906.878416243
 20
4175388.379291132
 30
693.8250122070312
 11
751908.3243786613
 21
4175386.027039606
 31
693.6939697265625
  0
LINE
  5
252
330
1F
100
AcDbEntity
  8
689
370
     0
100
AcDbLine
 10
751911.959
 20
4175390.539
 30
693.8250122070312
 11
751910.0376060352
 21
4175391.088232665
 31
693.8250122070312
  0
LINE
  5
253
330
1F
100
AcDbEntity
  8
689
370
     0
100
AcDbLine
 10
751910.0376060352
 20
4175391.088232665
 30
693.8250122070312
 11
751908.2305023776
 21
4175390.34303528
 31
693.8250122070312
  0
LINE
  5
254
330
1F
100
AcDbEntity
  8
689
370
     0
100
AcDbLine
 10
751877.5718835596
 20
4175396.502903395
 30
692.5
 11
751878.079
 21
4175398.227
 31
692.4459838867188
  0
LINE
  5
255
330
1F
100
AcDbEntity
  8
689
370
     0
100
AcDbLine
 10
751878.079
 20
4175398.227
 30
692.4459838867188
 11
751878.895
 21
4175398.603
 31
692.3469848632812
  0
LINE
  5
256
330
1F
100
AcDbEntity
  8
689
370
     0
100
AcDbLine
 10
751878.239
 20
4175399.98
 30
692.218994140625
 11
751874.325452157
 21
4175399.717326181
 31
692.5
  0
LINE
  5
257
330
1F
100
AcDbEntity
  8
689
370
     0
100
AcDbLine
 10
751797.395
 20
4175406.482
 30
692.1920166015625
 11
751796.056
 21
4175406.307
 31
692.1270141601562
  0
LINE
  5
258
330
1F
100
AcDbEntity
  8
689
370
     0
100
AcDbLine
 10
751786.21
 20
4175357.332
 30
691.7479858398438
 11
751789.229
 21
4175357.215
 31
691.4600219726562
  0
LINE
  5
259
330
1F
100
AcDbEntity
  8
689
370
     0
100
AcDbLine
 10
751789.229
 20
4175357.215
 30
691.4600219726562
 11
751791.607
 21
4175356.36
 31
691.5540161132812
  0
LINE
  5
25A
330
1F
100
AcDbEntity
  8
689
370
     0
100
AcDbLine
 10
751791.607
 20
4175356.36
 30
691.5540161132812
 11
751794.804
 21
4175354.815
 31
691.5750122070312
  0
LINE
  5
25B
330
1F
100
AcDbEntity
  8
689
370
     0
100
AcDbLine
 10
751796.405
 20
4175357.15
 30
691.7440185546875
 11
751792.691
 21
4175358.5
 31
691.4869995117188
  0
LINE
  5
25C
330
1F
100
AcDbEntity
  8
689
370
     0
100
AcDbLine
 10
751792.691
 20
4175358.5
 30
691.4869995117188
 11
751792.5669999999
 21
4175360.025
 31
691.6290283203125
  0
LINE
  5
25D
330
1F
100
AcDbEntity
  8
689
370
     0
100
AcDbLine
 10
751794.804
 20
4175354.815
 30
691.5750122070312
 11
751797.092
 21
4175353.483
 31
691.6740112304688
  0
LINE
  5
25E
330
1F
100
AcDbEntity
  8
689
370
     0
100
AcDbLine
 10
751797.092
 20
4175353.483
 30
691.6740112304688
 11
751799.63
 21
4175352.903
 31
691.3889770507812
  0
LINE
  5
25F
330
1F
100
AcDbEntity
  8
689
370
     0
100
AcDbLine
 10
751808.049
 20
4175352.391
 30
691.4140014648438
 11
751808.44
 21
4175354.455
 31
691.4140014648438
  0
LINE
  5
260
330
1F
100
AcDbEntity
  8
689
370
     0
100
AcDbLine
 10
751808.44
 20
4175354.455
 30
691.4140014648438
 11
751803.562
 21
4175355.067
 31
691.6079711914062
  0
LINE
  5
261
330
1F
100
AcDbEntity
  8
689
370
     0
100
AcDbLine
 10
751803.562
 20
4175355.067
 30
691.6079711914062
 11
751802.088
 21
4175355.337
 31
691.8179931640625
  0
LINE
  5
262
330
1F
100
AcDbEntity
  8
689
370
     0
100
AcDbLine
 10
751802.088
 20
4175355.337
 30
691.8179931640625
 11
751798.201
 21
4175356.662
 31
691.4409790039062
  0
LINE
  5
263
330
1F
100
AcDbEntity
  8
689
370
     0
100
AcDbLine
 10
751798.201
 20
4175356.662
 30
691.4409790039062
 11
751796.405
 21
4175357.15
 31
691.7440185546875
  0
LINE
  5
264
330
1F
100
AcDbEntity
  8
689
370
     0
100
AcDbLine
 10
751804.0769999999
 20
4175426.931
 30
692.6170043945312
 11
751803.926
 21
4175427.769
 31
694.4019775390625
  0
LINE
  5
265
330
1F
100
AcDbEntity
  8
689
370
     0
100
AcDbLine
 10
751803.926
 20
4175427.769
 30
694.4019775390625
 11
751804.12
 21
4175428.862
 31
695.4749755859375
  0
LINE
  5
266
330
1F
100
AcDbEntity
  8
689
370
     0
100
AcDbLine
 10
751804.12
 20
4175428.862
 30
695.4749755859375
 11
751803.197
 21
4175429.572
 31
696.5549926757812
  0
LINE
  5
267
330
1F
100
AcDbEntity
  8
689
370
     0
100
AcDbLine
 10
751803.197
 20
4175429.572
 30
696.5549926757812
 11
751802.914
 21
4175430.077
 31
699.052978515625
  0
LINE
  5
268
330
1F
100
AcDbEntity
  8
689
370
     0
100
AcDbLine
 10
751802.914
 20
4175430.077
 30
699.052978515625
 11
751802.655
 21
4175430.554
 31
700.1259765625
  0
LINE
  5
269
330
1F
100
AcDbEntity
  8
689
370
     0
100
AcDbLine
 10
751802.655
 20
4175430.554
 30
700.1259765625
 11
751801.69
 21
4175429.985
 31
700.0599975585938
  0
LINE
  5
26A
330
1F
100
AcDbEntity
  8
689
370
     0
100
AcDbLine
 10
751801.69
 20
4175429.985
 30
700.0599975585938
 11
751801.753
 21
4175429.419
 31
698.9739990234375
  0
LINE
  5
26B
330
1F
100
AcDbEntity
  8
689
370
     0
100
AcDbLine
 10
751801.753
 20
4175429.419
 30
698.9739990234375
 11
751801.9860940576
 21
4175428.541862206
 31
695.56298828125
  0
LINE
  5
26C
330
1F
100
AcDbEntity
  8
689
370
     0
100
AcDbLine
 10
751799.63
 20
4175352.903
 30
691.3889770507812
 11
751801.76
 21
4175352.385
 31
691.6329956054688
  0
LINE
  5
26D
330
1F
100
AcDbEntity
  8
689
370
     0
100
AcDbLine
 10
751801.76
 20
4175352.385
 30
691.6329956054688
 11
751803.407
 21
4175350.751
 31
691.635009765625
  0
LINE
  5
26E
330
1F
100
AcDbEntity
  8
689
370
     0
100
AcDbLine
 10
751803.407
 20
4175350.751
 30
691.635009765625
 11
751802.539
 21
4175347.614
 31
691.7890014648438
  0
LINE
  5
26F
330
1F
100
AcDbEntity
  8
689
370
     0
100
AcDbLine
 10
751802.539
 20
4175347.614
 30
691.7890014648438
 11
751801.803
 21
4175346.987
 31
691.7520141601562
  0
LINE
  5
270
330
1F
100
AcDbEntity
  8
689
370
     0
100
AcDbLine
 10
751801.803
 20
4175346.987
 30
691.7520141601562
 11
751799.726716359
 21
4175346.327472291
 31
691.843994140625
  0
LINE
  5
271
330
1F
100
AcDbEntity
  8
689
370
     0
100
AcDbLine
 10
751799.726716359
 20
4175346.327472291
 30
691.843994140625
 11
751798.8952524593
 21
4175343.435018478
 31
691.9249877929688
  0
LINE
  5
272
330
1F
100
AcDbEntity
  8
689
370
     0
100
AcDbLine
 10
751798.8952524593
 20
4175343.435018478
 30
691.9249877929688
 11
751799.974
 21
4175342.47
 31
692.1190185546875
  0
LINE
  5
273
330
1F
100
AcDbEntity
  8
689
370
     0
100
AcDbLine
 10
751799.974
 20
4175342.47
 30
692.1190185546875
 11
751801.241
 21
4175341.201
 31
691.8759765625
  0
LINE
  5
274
330
1F
100
AcDbEntity
  8
689
370
     0
100
AcDbLine
 10
751801.241
 20
4175341.201
 30
691.8759765625
 11
751802.659
 21
4175340.757
 31
691.7969970703125
  0
LINE
  5
275
330
1F
100
AcDbEntity
  8
689
370
     0
100
AcDbLine
 10
751802.659
 20
4175340.757
 30
691.7969970703125
 11
751803.95
 21
4175340.725
 31
691.801025390625
  0
LINE
  5
276
330
1F
100
AcDbEntity
  8
689
370
     0
100
AcDbLine
 10
751803.95
 20
4175340.725
 30
691.801025390625
 11
751804.817
 21
4175342.717
 31
691.656982421875
  0
LINE
  5
277
330
1F
100
AcDbEntity
  8
689
370
     0
100
AcDbLine
 10
751804.817
 20
4175342.717
 30
691.656982421875
 11
751805.33
 21
4175344.154
 31
691.5980224609375
  0
LINE
  5
278
330
1F
100
AcDbEntity
  8
689
370
     0
100
AcDbLine
 10
751805.33
 20
4175344.154
 30
691.5980224609375
 11
751805.483
 21
4175344.898
 31
692.0989990234375
  0
LINE
  5
279
330
1F
100
AcDbEntity
  8
689
370
     0
100
AcDbLine
 10
751805.483
 20
4175344.898
 30
692.0989990234375
 11
751805.297
 21
4175345.742
 31
691.6290283203125
  0
LINE
  5
27A
330
1F
100
AcDbEntity
  8
689
370
     0
100
AcDbLine
 10
751805.297
 20
4175345.742
 30
691.6290283203125
 11
751805.65
 21
4175346.397
 31
691.8179931640625
  0
LINE
  5
27B
330
1F
100
AcDbEntity
  8
689
370
     0
100
AcDbLine
 10
751805.65
 20
4175346.397
 30
691.8179931640625
 11
751806.466
 21
4175351.788
 31
691.7319946289062
  0
LINE
  5
27C
330
1F
100
AcDbEntity
  8
689
370
     0
100
AcDbLine
 10
751810.962
 20
4175382.654
 30
693.9609985351562
 11
751810.856
 21
4175383.649
 31
695.0490112304688
  0
LINE
  5
27D
330
1F
100
AcDbEntity
  8
689
370
     0
100
AcDbLine
 10
751810.856
 20
4175383.649
 30
695.0490112304688
 11
751811.101
 21
4175384.567
 31
695.6489868164062
  0
LINE
  5
27E
330
1F
100
AcDbEntity
  8
689
370
     0
100
AcDbLine
 10
751811.101
 20
4175384.567
 30
695.6489868164062
 11
751812.075
 21
4175386.016
 31
696.8150024414062
  0
LINE
  5
27F
330
1F
100
AcDbEntity
  8
689
370
     0
100
AcDbLine
 10
751812.075
 20
4175386.016
 30
696.8150024414062
 11
751811.031
 21
4175386.515
 31
696.8980102539062
  0
LINE
  5
280
330
1F
100
AcDbEntity
  8
689
370
     0
100
AcDbLine
 10
751811.031
 20
4175386.515
 30
696.8980102539062
 11
751810.226
 21
4175385.995
 31
696.7310180664062
  0
LINE
  5
281
330
1F
100
AcDbEntity
  8
689
370
     0
100
AcDbLine
 10
751810.226
 20
4175385.995
 30
696.7310180664062
 11
751809.53
 21
4175384.02
 31
695.281005859375
  0
LINE
  5
282
330
1F
100
AcDbEntity
  8
689
370
     0
100
AcDbLine
 10
751809.53
 20
4175384.02
 30
695.281005859375
 11
751809.229
 21
4175382.079
 31
693.906982421875
  0
LINE
  5
283
330
1F
100
AcDbEntity
  8
689
370
     0
100
AcDbLine
 10
751809.229
 20
4175382.079
 30
693.906982421875
 11
751809.976
 21
4175382.598
 31
693.8510131835938
  0
LINE
  5
284
330
1F
100
AcDbEntity
  8
689
370
     0
100
AcDbLine
 10
751809.976
 20
4175382.598
 30
693.8510131835938
 11
751810.962
 21
4175382.654
 31
693.9609985351562
  0
LINE
  5
285
330
1F
100
AcDbEntity
  8
689
370
     0
100
AcDbLine
 10
751868.6059999999
 20
4175443.474
 30
693.1010131835938
 11
751866.935
 21
4175443.226
 31
692.9299926757812
  0
LINE
  5
286
330
1F
100
AcDbEntity
  8
689
370
     0
100
AcDbLine
 10
751866.935
 20
4175443.226
 30
692.9299926757812
 11
751865.613
 21
4175444.687
 31
693.0850219726562
  0
LINE
  5
287
330
1F
100
AcDbEntity
  8
689
370
     0
100
AcDbLine
 10
751865.613
 20
4175444.687
 30
693.0850219726562
 11
751864.269
 21
4175447.029
 31
693.2150268554688
  0
LINE
  5
288
330
1F
100
AcDbEntity
  8
689
370
     0
100
AcDbLine
 10
751864.269
 20
4175447.029
 30
693.2150268554688
 11
751861.667
 21
4175445.556
 31
693.27197265625
  0
LINE
  5
289
330
1F
100
AcDbEntity
  8
689
370
     0
100
AcDbLine
 10
751861.667
 20
4175445.556
 30
693.27197265625
 11
751862.575
 21
4175444.274
 31
692.947998046875
  0
LINE
  5
28A
330
1F
100
AcDbEntity
  8
689
370
     0
100
AcDbLine
 10
751862.575
 20
4175444.274
 30
692.947998046875
 11
751863.657
 21
4175441.917
 31
692.9520263671875
  0
LINE
  5
28B
330
1F
100
AcDbEntity
  8
689
370
     0
100
AcDbLine
 10
751863.657
 20
4175441.917
 30
692.9520263671875
 11
751863.322
 21
4175440.482
 31
692.8939819335938
  0
LINE
  5
28C
330
1F
100
AcDbEntity
  8
689
370
     0
100
AcDbLine
 10
751863.322
 20
4175440.482
 30
692.8939819335938
 11
751860.4079999999
 21
4175438.801
 31
693.06201171875
  0
LINE
  5
28D
330
1F
100
AcDbEntity
  8
689
370
     0
100
AcDbLine
 10
751778.2028791533
 20
4175408.473884719
 30
692.8770141601562
 11
751777.5407030819
 21
4175408.563714794
 31
690.1500244140625
  0
LINE
  5
28E
330
1F
100
AcDbEntity
  8
689
370
     0
100
AcDbLine
 10
751777.5407030819
 20
4175408.563714794
 30
690.1500244140625
 11
751777.281
 21
4175409.923
 31
690.2550048828125
  0
LINE
  5
28F
330
1F
100
AcDbEntity
  8
689
370
     0
100
AcDbLine
 10
751777.9544269815
 20
4175407.078730216
 30
692.8770141601562
 11
751777.7213391174
 21
4175407.103828307
 31
690.1500244140625
  0
LINE
  5
290
330
1F
100
AcDbEntity
  8
689
370
     0
100
AcDbLine
 10
751777.7213391174
 20
4175407.103828307
 30
690.1500244140625
 11
751777.9569999999
 21
4175404.714
 31
690.10400390625
  0
LINE
  5
291
330
1F
100
AcDbEntity
  8
689
370
     0
100
AcDbLine
 10
751801.9860940576
 20
4175428.541862206
 30
695.56298828125
 11
751801.9781152983
 21
4175428.499456895
 31
692.5999755859375
  0
LINE
  5
292
330
1F
100
AcDbEntity
  8
689
370
     0
100
AcDbLine
 10
751801.9781152983
 20
4175428.499456895
 30
692.5999755859375
 11
751799.4124834259
 21
4175430.426498953
 31
692.6090087890625
  0
LINE
  5
293
330
1F
100
AcDbEntity
  8
689
370
     0
100
AcDbLine
 10
751801.69
 20
4175429.985
 30
700.0599975585938
 11
751798.9265693862
 21
4175430.372112826
 31
712.6939697265625
  0
LINE
  5
294
330
1F
100
AcDbEntity
  8
689
370
     0
100
AcDbLine
 10
751802.655
 20
4175430.554
 30
700.1259765625
 11
751798.9265693862
 21
4175431.455710412
 31
712.6939697265625
  0
LINE
  5
295
330
1F
100
AcDbEntity
  8
689
370
     0
100
AcDbLine
 10
751813.294
 20
4175382.625
 30
691.7219848632812
 11
751809.994
 21
4175382.175
 31
691.64501953125
  0
LINE
  5
296
330
1F
100
AcDbEntity
  8
689
370
     0
100
AcDbLine
 10
751878.239
 20
4175399.98
 30
692.218994140625
 11
751879.454
 21
4175401.083
 31
692.5440063476562
  0
LINE
  5
297
330
1F
100
AcDbEntity
  8
689
370
     0
100
AcDbLine
 10
751879.454
 20
4175401.083
 30
692.5440063476562
 11
751882.628
 21
4175402.499
 31
692.594970703125
  0
LINE
  5
298
330
1F
100
AcDbEntity
  8
689
370
     0
100
AcDbLine
 10
751882.628
 20
4175402.499
 30
692.594970703125
 11
751885.0779635828
 21
4175403.606408396
 31
692.594970703125
  0
LINE
  5
299
330
1F
100
AcDbEntity
  8
689
370
     0
100
AcDbLine
 10
751885.0779635828
 20
4175403.606408396
 30
692.594970703125
 11
751887.2487130037
 21
4175406.424010147
 31
692.594970703125
  0
LINE
  5
29A
330
1F
100
AcDbEntity
  8
689
370
     0
100
AcDbLine
 10
751887.2487130037
 20
4175406.424010147
 30
692.594970703125
 11
751888.5227779968
 21
4175404.747576127
 31
692.6090087890625
  0
LINE
  5
29B
330
1F
100
AcDbEntity
  8
689
370
     0
100
AcDbLine
 10
751888.5227779968
 20
4175404.747576127
 30
692.6090087890625
 11
751886.765
 21
4175402.536
 31
692.6290283203125
  0
LINE
  5
29C
330
1F
100
AcDbEntity
  8
689
370
     0
100
AcDbLine
 10
751886.765
 20
4175402.536
 30
692.6290283203125
 11
751885.188
 21
4175401.111
 31
692.6090087890625
  0
LINE
  5
29D
330
1F
100
AcDbEntity
  8
689
370
     0
100
AcDbLine
 10
751885.188
 20
4175401.111
 30
692.6090087890625
 11
751881.0
 21
4175398.824
 31
692.4439697265625
  0
LINE
  5
29E
330
1F
100
AcDbEntity
  8
689
370
     0
100
AcDbLine
 10
751881.0
 20
4175398.824
 30
692.4439697265625
 11
751878.895
 21
4175398.603
 31
692.3469848632812
  0
LINE
  5
29F
330
1F
100
AcDbEntity
  8
689
370
     0
100
AcDbLine
 10
751800.287
 20
4175405.836
 30
692.3790283203125
 11
751800.232
 21
4175408.98
 31
692.3359985351562
  0
LINE
  5
2A0
330
1F
100
AcDbEntity
  8
689
370
     0
100
AcDbLine
 10
751800.232
 20
4175408.98
 30
692.3359985351562
 11
751800.987
 21
4175413.309
 31
692.2319946289062
  0
LINE
  5
2A1
330
1F
100
AcDbEntity
  8
689
370
     0
100
AcDbLine
 10
751800.987
 20
4175413.309
 30
692.2319946289062
 11
751801.021
 21
4175415.105
 31
692.405029296875
  0
LINE
  5
2A2
330
1F
100
AcDbEntity
  8
689
370
     0
100
AcDbLine
 10
751801.021
 20
4175415.105
 30
692.405029296875
 11
751799.029
 21
4175414.893
 31
692.4149780273438
  0
LINE
  5
2A3
330
1F
100
AcDbEntity
  8
689
370
     0
100
AcDbLine
 10
751799.029
 20
4175414.893
 30
692.4149780273438
 11
751798.752
 21
4175413.125
 31
692.3179931640625
  0
LINE
  5
2A4
330
1F
100
AcDbEntity
  8
689
370
     0
100
AcDbLine
 10
751798.752
 20
4175413.125
 30
692.3179931640625
 11
751797.74
 21
4175408.201
 31
692.4860229492188
  0
LINE
  5
2A5
330
1F
100
AcDbEntity
  8
689
370
     0
100
AcDbLine
 10
751797.74
 20
4175408.201
 30
692.4860229492188
 11
751797.395
 21
4175406.482
 31
692.1920166015625
  0
LINE
  5
2A6
330
1F
100
AcDbEntity
  8
689
370
     0
100
AcDbLine
 10
751799.47
 20
4175411.648
 30
694.4860229492188
 11
751800.385
 21
4175411.514
 31
694.4310302734375
  0
LINE
  5
2A7
330
1F
100
AcDbEntity
  8
689
370
     0
100
AcDbLine
 10
751800.385
 20
4175411.514
 30
694.4310302734375
 11
751800.888
 21
4175413.807
 31
694.6220092773438
  0
LINE
  5
2A8
330
1F
100
AcDbEntity
  8
689
370
     0
100
AcDbLine
 10
751800.888
 20
4175413.807
 30
694.6220092773438
 11
751799.606
 21
4175413.819
 31
694.6320190429688
  0
LINE
  5
2A9
330
1F
100
AcDbEntity
  8
689
370
     0
100
AcDbLine
 10
751799.606
 20
4175413.819
 30
694.6320190429688
 11
751799.47
 21
4175411.648
 31
694.4860229492188
  0
LINE
  5
2AA
330
1F
100
AcDbEntity
  8
689
370
     0
100
AcDbLine
 10
751799.5444816661
 20
4175412.83696836
 30
694.5659790039062
 11
751800.660662736
 21
4175412.770649411
 31
694.5357055664062
  0
LINE
  5
2AB
330
1F
100
AcDbEntity
  8
689
370
     0
100
AcDbLine
 10
751821.9126480623
 20
4175417.465919244
 30
692.822021484375
 11
751824.433
 21
4175415.962
 31
692.6220092773438
  0
LINE
  5
2AC
330
1F
100
AcDbEntity
  8
689
370
     0
100
AcDbLine
 10
751824.433
 20
4175415.962
 30
692.6220092773438
 11
751825.749
 21
4175415.56
 31
692.5590209960938
  0
LINE
  5
2AD
330
1F
100
AcDbEntity
  8
689
370
     0
100
AcDbLine
 10
751825.0809999999
 20
4175418.923
 30
693.1740112304688
 11
751825.7869999999
 21
4175419.728
 31
693.0339965820312
  0
LINE
  5
2AE
330
1F
100
AcDbEntity
  8
689
370
     0
100
AcDbLine
 10
751901.563
 20
4175452.669
 30
692.9039916992188
 11
751904.735
 21
4175452.633
 31
692.7760009765625
  0
LINE
  5
2AF
330
1F
100
AcDbEntity
  8
689
370
     0
100
AcDbLine
 10
751904.735
 20
4175452.633
 30
692.7760009765625
 11
751906.889
 21
4175453.905
 31
692.8300170898438
  0
LINE
  5
2B0
330
1F
100
AcDbEntity
  8
689
370
     0
100
AcDbLine
 10
751906.889
 20
4175453.905
 30
692.8300170898438
 11
751908.907
 21
4175456.334
 31
692.6610107421875
  0
LINE
  5
2B1
330
1F
100
AcDbEntity
  8
689
370
     0
100
AcDbLine
 10
751908.907
 20
4175456.334
 30
692.6610107421875
 11
751911.227
 21
4175459.122
 31
692.8359985351562
  0
LINE
  5
2B2
330
1F
100
AcDbEntity
  8
689
370
     0
100
AcDbLine
 10
751906.533
 20
4175458.42
 30
692.7930297851562
 11
751904.2450771114
 21
4175455.876898793
 31
692.7379760742188
  0
LINE
  5
2B3
330
1F
100
AcDbEntity
  8
689
370
     0
100
AcDbLine
 10
751904.2450771114
 20
4175455.876898793
 30
692.7379760742188
 11
751901.274
 21
4175454.948
 31
692.7849731445312
  0
LINE
  5
2B4
330
1F
100
AcDbEntity
  8
689
370
     0
100
AcDbLine
 10
751825.5939999999
 20
4175370.024
 30
692.2249755859375
 11
751829.3383249836
 21
4175369.719104585
 31
692.1909790039062
  0
LINE
  5
2B5
330
1F
100
AcDbEntity
  8
689
370
     0
100
AcDbLine
 10
751911.227
 20
4175459.122
 30
692.8359985351562
 11
751913.759
 21
4175460.74
 31
693.3389892578125
  0
LINE
  5
2B6
330
1F
100
AcDbEntity
  8
689
370
     0
100
AcDbLine
 10
751913.759
 20
4175460.74
 30
693.3389892578125
 11
751915.768
 21
4175462.563
 31
693.2160034179688
  0
LINE
  5
2B7
330
1F
100
AcDbEntity
  8
689
370
     0
100
AcDbLine
 10
751915.768
 20
4175462.563
 30
693.2160034179688
 11
751916.14
 21
4175464.681
 31
693.281005859375
  0
LINE
  5
2B8
330
1F
100
AcDbEntity
  8
689
370
     0
100
AcDbLine
 10
751916.14
 20
4175464.681
 30
693.281005859375
 11
751919.753
 21
4175468.377
 31
693.35302734375
  0
LINE
  5
2B9
330
1F
100
AcDbEntity
  8
689
370
     0
100
AcDbLine
 10
751919.753
 20
4175468.377
 30
693.35302734375
 11
751922.053
 21
4175470.315
 31
693.5999755859375
  0
LINE
  5
2BA
330
1F
100
AcDbEntity
  8
689
370
     0
100
AcDbLine
 10
751922.053
 20
4175470.315
 30
693.5999755859375
 11
751923.7080075942
 21
4175472.212593663
 31
693.5999755859375
  0
LINE
  5
2BB
330
1F
100
AcDbEntity
  8
689
370
     0
100
AcDbLine
 10
751914.32
 20
4175466.823
 30
693.177001953125
 11
751912.457
 21
4175466.422
 31
693.291015625
  0
LINE
  5
2BC
330
1F
100
AcDbEntity
  8
689
370
     0
100
AcDbLine
 10
751912.457
 20
4175466.422
 30
693.291015625
 11
751910.131
 21
4175463.581
 31
693.3989868164062
  0
LINE
  5
2BD
330
1F
100
AcDbEntity
  8
689
370
     0
100
AcDbLine
 10
751910.131
 20
4175463.581
 30
693.3989868164062
 11
751907.594
 21
4175459.774
 31
692.9580078125
  0
LINE
  5
2BE
330
1F
100
AcDbEntity
  8
689
370
     0
100
AcDbLine
 10
751907.594
 20
4175459.774
 30
692.9580078125
 11
751906.533
 21
4175458.42
 31
692.7930297851562
  0
LINE
  5
2BF
330
1F
100
AcDbEntity
  8
689
370
     0
100
AcDbLine
 10
751923.7080075942
 20
4175472.212593663
 30
693.5999755859375
 11
751927.356
 21
4175475.302
 31
694.3560180664062
  0
LINE
  5
2C0
330
1F
100
AcDbEntity
  8
689
370
     0
100
AcDbLine
 10
751927.356
 20
4175475.302
 30
694.3560180664062
 11
751930.0584609598
 21
4175476.629741099
 31
694.4000244140625
  0
LINE
  5
2C1
330
1F
100
AcDbEntity
  8
689
370
     0
100
AcDbLine
 10
751930.0584609598
 20
4175476.629741099
 30
694.4000244140625
 11
751931.701
 21
4175478.362
 31
694.4000244140625
  0
LINE
  5
2C2
330
1F
100
AcDbEntity
  8
689
370
     0
100
AcDbLine
 10
751931.701
 20
4175478.362
 30
694.4000244140625
 11
751932.8339620982
 21
4175480.192036376
 31
694.4000244140625
  0
LINE
  5
2C3
330
1F
100
AcDbEntity
  8
689
370
     0
100
AcDbLine
 10
751932.8339620982
 20
4175480.192036376
 30
694.4000244140625
 11
751930.8770707559
 21
4175482.714970668
 31
694.4000244140625
  0
LINE
  5
2C4
330
1F
100
AcDbEntity
  8
689
370
     0
100
AcDbLine
 10
751930.8770707559
 20
4175482.714970668
 30
694.4000244140625
 11
751927.093
 21
4175479.319
 31
694.6129760742188
  0
LINE
  5
2C5
330
1F
100
AcDbEntity
  8
689
370
     0
100
AcDbLine
 10
751927.093
 20
4175479.319
 30
694.6129760742188
 11
751925.823
 21
4175477.768
 31
694.4169921875
  0
LINE
  5
2C6
330
1F
100
AcDbEntity
  8
689
370
     0
100
AcDbLine
 10
751925.823
 20
4175477.768
 30
694.4169921875
 11
751922.913
 21
4175475.571
 31
694.166015625
  0
LINE
  5
2C7
330
1F
100
AcDbEntity
  8
689
370
     0
100
AcDbLine
 10
751922.913
 20
4175475.571
 30
694.166015625
 11
751919.3123292364
 21
4175472.035999883
 31
693.7000122070312
  0
LINE
  5
2C8
330
1F
100
AcDbEntity
  8
689
370
     0
100
AcDbLine
 10
751919.3123292364
 20
4175472.035999883
 30
693.7000122070312
 11
751914.32
 21
4175466.823
 31
693.177001953125
  0
LINE
  5
2C9
330
1F
100
AcDbEntity
  8
689
370
     0
100
AcDbLine
 10
751932.8339620982
 20
4175480.192036376
 30
694.4000244140625
 11
751933.529
 21
4175481.103
 31
694.2999877929688
  0
LINE
  5
2CA
330
1F
100
AcDbEntity
  8
689
370
     0
100
AcDbLine
 10
751933.529
 20
4175481.103
 30
694.2999877929688
 11
751931.531
 21
4175483.385
 31
694.2999877929688
  0
LINE
  5
2CB
330
1F
100
AcDbEntity
  8
689
370
     0
100
AcDbLine
 10
751931.531
 20
4175483.385
 30
694.2999877929688
 11
751930.8770707559
 21
4175482.714970668
 31
694.4000244140625
  0
LINE
  5
2CC
330
1F
100
AcDbEntity
  8
689
370
     0
100
AcDbLine
 10
751933.529
 20
4175481.103
 30
694.2999877929688
 11
751934.087
 21
4175481.648
 31
694.4000244140625
  0
LINE
  5
2CD
330
1F
100
AcDbEntity
  8
689
370
     0
100
AcDbLine
 10
751934.087
 20
4175481.648
 30
694.4000244140625
 11
751932.032
 21
4175484.1
 31
694.4000244140625
  0
LINE
  5
2CE
330
1F
100
AcDbEntity
  8
689
370
     0
100
AcDbLine
 10
751932.032
 20
4175484.1
 30
694.4000244140625
 11
751931.531
 21
4175483.385
 31
694.2999877929688
  0
LINE
  5
2CF
330
1F
100
AcDbEntity
  8
689
370
     0
100
AcDbLine
 10
751934.087
 20
4175481.648
 30
694.4000244140625
 11
751935.2951214549
 21
4175482.18507957
 31
694.4000244140625
  0
LINE
  5
2D0
330
1F
100
AcDbEntity
  8
689
370
     0
100
AcDbLine
 10
751935.2951214549
 20
4175482.18507957
 30
694.4000244140625
 11
751933.4384809582
 21
4175484.876243924
 31
694.4000244140625
  0
LINE
  5
2D1
330
1F
100
AcDbEntity
  8
689
370
     0
100
AcDbLine
 10
751933.4384809582
 20
4175484.876243924
 30
694.4000244140625
 11
751932.032
 21
4175484.1
 31
694.4000244140625
  0
LINE
  5
2D2
330
1F
100
AcDbEntity
  8
689
370
     0
100
AcDbLine
 10
751936.2208598304
 20
4175485.46550801
 30
694.5999755859375
 11
751933.4384809582
 21
4175484.876243924
 31
694.4000244140625
  0
LINE
  5
2D3
330
1F
100
AcDbEntity
  8
689
370
     0
100
AcDbLine
 10
751940.0697111913
 20
4175482.808760521
 30
694.5999755859375
 11
751941.988
 21
4175482.758
 31
694.4000244140625
  0
LINE
  5
2D4
330
1F
100
AcDbEntity
  8
689
370
     0
100
AcDbLine
 10
751943.006
 20
4175485.894
 30
694.5999755859375
 11
751938.809
 21
4175485.792
 31
694.4000244140625
  0
LINE
  5
2D5
330
1F
100
AcDbEntity
  8
689
370
     0
100
AcDbLine
 10
751938.809
 20
4175485.792
 30
694.4000244140625
 11
751936.2208598304
 21
4175485.46550801
 31
694.5999755859375
  0
LINE
  5
2D6
330
1F
100
AcDbEntity
  8
689
370
     0
100
AcDbLine
 10
751944.784
 20
4175485.102
 30
694.9000244140625
 11
751943.006
 21
4175485.894
 31
694.5999755859375
  0
LINE
  5
2D7
330
1F
100
AcDbEntity
  8
689
370
     0
100
AcDbLine
 10
751935.2951214549
 20
4175482.18507957
 30
694.4000244140625
 11
751938.449070306
 21
4175482.810950195
 31
694.6500244140625
  0
LINE
  5
2D8
330
1F
100
AcDbEntity
  8
689
370
     0
100
AcDbLine
 10
751941.988
 20
4175482.758
 30
694.4000244140625
 11
751942.724
 21
4175482.56
 31
695.2000122070312
  0
LINE
  5
2D9
330
1F
100
AcDbEntity
  8
689
370
     0
100
AcDbLine
 10
751942.724
 20
4175482.56
 30
695.2000122070312
 11
751945.122
 21
4175480.965
 31
695.2000122070312
  0
LINE
  5
2DA
330
1F
100
AcDbEntity
  8
689
370
     0
100
AcDbLine
 10
751945.122
 20
4175480.965
 30
695.2000122070312
 11
751948.263
 21
4175478.625
 31
695.2000122070312
  0
LINE
  5
2DB
330
1F
100
AcDbEntity
  8
689
370
     0
100
AcDbLine
 10
751948.263
 20
4175478.625
 30
695.2000122070312
 11
751949.802
 21
4175477.428
 31
695.2000122070312
  0
LINE
  5
2DC
330
1F
100
AcDbEntity
  8
689
370
     0
100
AcDbLine
 10
751950.625
 20
4175480.573
 30
695.2000122070312
 11
751948.383
 21
4175482.357
 31
695.2000122070312
  0
LINE
  5
2DD
330
1F
100
AcDbEntity
  8
689
370
     0
100
AcDbLine
 10
751948.383
 20
4175482.357
 30
695.2000122070312
 11
751945.531
 21
4175484.394
 31
695.2000122070312
  0
LINE
  5
2DE
330
1F
100
AcDbEntity
  8
689
370
     0
100
AcDbLine
 10
751945.531
 20
4175484.394
 30
695.2000122070312
 11
751944.784
 21
4175485.102
 31
694.9000244140625
  0
LINE
  5
2DF
330
1F
100
AcDbEntity
  8
689
370
     0
100
AcDbLine
 10
751952.478
 20
4175479.423
 30
695.4000244140625
 11
751950.625
 21
4175480.573
 31
695.2000122070312
  0
LINE
  5
2E0
330
1F
100
AcDbEntity
  8
689
370
     0
100
AcDbLine
 10
751949.802
 20
4175477.428
 30
695.2000122070312
 11
751950.936
 21
4175476.802
 31
695.4000244140625
  0
LINE
  5
2E1
330
1F
100
AcDbEntity
  8
689
370
     0
100
AcDbLine
 10
751951.862
 20
4175476.343
 30
695.7999877929688
 11
751953.137
 21
4175475.916
 31
695.5999755859375
  0
LINE
  5
2E2
330
1F
100
AcDbEntity
  8
689
370
     0
100
AcDbLine
 10
751953.137
 20
4175475.916
 30
695.5999755859375
 11
751958.649
 21
4175475.218
 31
695.5999755859375
  0
LINE
  5
2E3
330
1F
100
AcDbEntity
  8
689
370
     0
100
AcDbLine
 10
751955.6209542515
 20
4175478.796627466
 30
695.5999755859375
 11
751952.412
 21
4175479.431
 31
695.9180297851562
  0
LINE
  5
2E4
330
1F
100
AcDbEntity
  8
689
370
     0
100
AcDbLine
 10
751958.649
 20
4175475.218
 30
695.5999755859375
 11
751962.1137976118
 21
4175474.608134306
 31
695.7000122070312
  0
LINE
  5
2E5
330
1F
100
AcDbEntity
  8
689
370
     0
100
AcDbLine
 10
751958.0414399281
 20
4175478.33687041
 30
696.10400390625
 11
751955.6209542515
 21
4175478.796627466
 31
695.5999755859375
  0
LINE
  5
2E6
330
1F
100
AcDbEntity
  8
689
370
     0
100
AcDbLine
 10
751938.449070306
 20
4175482.810950195
 30
694.6500244140625
 11
751940.0697111913
 21
4175482.808760521
 31
694.5999755859375
  0
LINE
  5
2E7
330
1F
100
AcDbEntity
  8
689
370
     0
100
AcDbLine
 10
751962.1137976118
 20
4175474.608134306
 30
695.7000122070312
 11
751964.212
 21
4175474.645
 31
696.625
  0
LINE
  5
2E8
330
1F
100
AcDbEntity
  8
689
370
     0
100
AcDbLine
 10
751961.654
 20
4175477.674
 30
696.6259765625
 11
751958.0414399281
 21
4175478.33687041
 31
696.10400390625
  0
LINE
  5
2E9
330
1F
100
AcDbEntity
  8
689
370
     0
100
AcDbLine
 10
751950.936
 20
4175476.802
 30
695.4000244140625
 11
751951.862
 21
4175476.343
 31
695.7999877929688
  0
LINE
  5
2EA
330
1F
100
AcDbEntity
  8
689
370
     0
100
AcDbLine
 10
751964.212
 20
4175474.645
 30
696.625
 11
751968.2356898444
 21
4175475.323570623
 31
696.7000122070312
  0
LINE
  5
2EB
330
1F
100
AcDbEntity
  8
689
370
     0
100
AcDbLine
 10
751967.632
 20
4175478.609
 30
696.8489990234375
 11
751964.09
 21
4175477.747
 31
696.4810180664062
  0
LINE
  5
2EC
330
1F
100
AcDbEntity
  8
689
370
     0
100
AcDbLine
 10
751964.09
 20
4175477.747
 30
696.4810180664062
 11
751961.654
 21
4175477.674
 31
696.6259765625
  0
LINE
  5
2ED
330
1F
100
AcDbEntity
  8
689
370
     0
100
AcDbLine
 10
751971.493
 20
4175476.506
 30
697.1119995117188
 11
751972.932
 21
4175476.352
 31
697.1539916992188
  0
LINE
  5
2EE
330
1F
100
AcDbEntity
  8
689
370
     0
100
AcDbLine
 10
751972.932
 20
4175476.352
 30
697.1539916992188
 11
751974.802
 21
4175477.03
 31
697.2150268554688
  0
LINE
  5
2EF
330
1F
100
AcDbEntity
  8
689
370
     0
100
AcDbLine
 10
751974.802
 20
4175477.03
 30
697.2150268554688
 11
751977.415
 21
4175479.207
 31
697.426025390625
  0
LINE
  5
2F0
330
1F
100
AcDbEntity
  8
689
370
     0
100
AcDbLine
 10
751977.415
 20
4175479.207
 30
697.426025390625
 11
751978.133
 21
4175481.381
 31
697.47900390625
  0
LINE
  5
2F1
330
1F
100
AcDbEntity
  8
689
370
     0
100
AcDbLine
 10
751978.133
 20
4175481.381
 30
697.47900390625
 11
751976.616
 21
4175483.762
 31
697.6740112304688
  0
LINE
  5
2F2
330
1F
100
AcDbEntity
  8
689
370
     0
100
AcDbLine
 10
751976.616
 20
4175483.762
 30
697.6740112304688
 11
751973.351
 21
4175483.992
 31
697.6489868164062
  0
LINE
  5
2F3
330
1F
100
AcDbEntity
  8
689
370
     0
100
AcDbLine
 10
751973.351
 20
4175483.992
 30
697.6489868164062
 11
751972.251
 21
4175482.291
 31
697.343017578125
  0
LINE
  5
2F4
330
1F
100
AcDbEntity
  8
689
370
     0
100
AcDbLine
 10
751972.251
 20
4175482.291
 30
697.343017578125
 11
751970.913
 21
4175480.037
 31
697.1110229492188
  0
LINE
  5
2F5
330
1F
100
AcDbEntity
  8
689
370
     0
100
AcDbLine
 10
751970.913
 20
4175480.037
 30
697.1110229492188
 11
751969.018
 21
4175479.101
 31
696.7960205078125
  0
LINE
  5
2F6
330
1F
100
AcDbEntity
  8
689
370
     0
100
AcDbLine
 10
751969.018
 20
4175479.101
 30
696.7960205078125
 11
751967.632
 21
4175478.609
 31
696.8489990234375
  0
LINE
  5
2F7
330
1F
100
AcDbEntity
  8
689
370
     0
100
AcDbLine
 10
751968.2356898444
 20
4175475.323570623
 30
696.7000122070312
 11
751969.497
 21
4175475.824
 31
696.85498046875
  0
LINE
  5
2F8
330
1F
100
AcDbEntity
  8
689
370
     0
100
AcDbLine
 10
751969.497
 20
4175475.824
 30
696.85498046875
 11
751971.493
 21
4175476.506
 31
697.1119995117188
  0
POINT
  5
510
330
1F
100
AcDbEntity
  8
INIT_COORD
100
AcDbPoint
 10
751688.507
 20
4175356.924
 30
689.4695129394531
  0
ENDSEC
  0
SECTION
  2
OBJECTS
  0
DICTIONARY
  5
C
330
0
100
AcDbDictionary
281
     1
  3
ACAD_DETAILVIEWSTYLE
350
3FE
  3
ACAD_GROUP
350
D
  3
ACAD_IMAGE_VARS
350
34B
  3
ACAD_LAYOUT
350
1A
  3
ACAD_MATERIAL
350
3B
  3
ACAD_MLEADERSTYLE
350
31A
  3
ACAD_MLINESTYLE
350
17
  3
ACAD_PLOTSETTINGS
350
19
  3
ACAD_PLOTSTYLENAME
350
E
  3
ACAD_SCALELIST
350
31B
  3
ACAD_SECTIONVIEWSTYLE
350
3FF
  3
ACAD_TABLESTYLE
350
319
  3
ACAD_VISUALSTYLE
350
2A
  3
ACDB_RECOMPOSE_DATA
350
518
  3
AcDbVariableDictionary
350
3F9
  3
APPDATA
350
349
  0
SUN
  5
34A
330
29
100
AcDbSun
 90
        1
290
     0
 63
     7
421
 16777215
 40
1.0
291
     1
 91
  2455826
 92
 54000000
292
     0
 70
     2
 71
   256
280
     1
  0
DICTIONARY
  5
34C
330
2
100
AcDbDictionary
280
     1
281
     1
  3
ACAD_LAYERSTATES
360
34D
  3
ACLYDICTIONARY
360
355
  0
DICTIONARY
  5
3FE
102
{ACAD_REACTORS
330
C
102
}
330
C
100
AcDbDictionary
281
     1
  0
DICTIONARY
  5
D
102
{ACAD_REACTORS
330
C
102
}
330
C
100
AcDbDictionary
281
     1
  0
RASTERVARIABLES
  5
34B
102
{ACAD_REACTORS
330
C
102
}
330
C
100
AcDbRasterVariables
 90
        0
 70
     1
 71
     1
 72
     1
  0
DICTIONARY
  5
1A
102
{ACAD_REACTORS
330
C
102
}
330
C
100
AcDbDictionary
281
     1
  3
Layout1
350
1E
  3
Layout2
350
26
  3
Model
350
22
  0
DICTIONARY
  5
3B
102
{ACAD_REACTORS
330
C
102
}
330
C
100
AcDbDictionary
281
     1
  3
ByBlock
350
3D
  3
ByLayer
350
3C
  3
Global
350
3E
  0
DICTIONARY
  5
31A
102
{ACAD_REACTORS
330
C
102
}
330
C
100
AcDbDictionary
281
     1
  3
Standard
350
348
  0
DICTIONARY
  5
17
102
{ACAD_REACTORS
330
C
102
}
330
C
100
AcDbDictionary
281
     1
  3
Standard
350
18
  0
DICTIONARY
  5
19
102
{ACAD_REACTORS
330
C
102
}
330
C
100
AcDbDictionary
281
     1
  0
ACDBDICTIONARYWDFLT
  5
E
102
{ACAD_REACTORS
330
C
102
}
330
C
100
AcDbDictionary
281
     1
  3
Normal
350
F
100
AcDbDictionaryWithDefault
340
F
  0
DICTIONARY
  5
31B
102
{ACAD_REACTORS
330
C
102
}
330
C
100
AcDbDictionary
281
     1
  3
A0
350
31C
  3
A1
350
31D
  3
A2
350
31E
  3
A3
350
31F
  3
A4
350
320
  3
A5
350
321
  3
A6
350
322
  3
A7
350
323
  3
A8
350
324
  3
A9
350
325
  3
B0
350
326
  3
B1
350
327
  3
B2
350
328
  3
B3
350
329
  3
B4
350
32A
  3
B5
350
32B
  3
B6
350
32C
  3
B7
350
32D
  3
B8
350
32E
  3
B9
350
32F
  3
C0
350
330
  3
C1
350
331
  3
C2
350
332
  3
C3
350
333
  3
C4
350
334
  3
C5
350
335
  3
C6
350
336
  3
C7
350
337
  3
C8
350
338
  3
C9
350
339
  3
D0
350
33A
  3
D1
350
33B
  3
D2
350
33C
  0
DICTIONARY
  5
3FF
102
{ACAD_REACTORS
330
C
102
}
330
C
100
AcDbDictionary
281
     1
  0
DICTIONARY
  5
319
102
{ACAD_REACTORS
330
C
102
}
330
C
100
AcDbDictionary
281
     1
  3
Standard
350
347
  0
DICTIONARY
  5
2A
102
{ACAD_REACTORS
330
C
102
}
330
C
100
AcDbDictionary
281
     1
  3
2dWireframe
350
2F
  3
3D Hidden
350
31
  3
3dWireframe
350
30
  3
Basic
350
32
  3
Brighten
350
36
  3
ColorChange
350
3A
  3
Conceptual
350
34
  3
Dim
350
35
  3
EdgeColorOff
350
341
  3
Facepattern
350
39
  3
Flat
350
2B
  3
FlatWithEdges
350
2C
  3
Gouraud
350
2D
  3
GouraudWithEdges
350
2E
  3
Hidden
350
33E
  3
JitterOff
350
33F
  3
Linepattern
350
38
  3
OverhangOff
350
340
  3
Realistic
350
33
  3
Shaded
350
346
  3
Shaded with edges
350
345
  3
Shades of Gray
350
342
  3
Sketchy
350
343
  3
Thicken
350
37
  3
Wireframe
350
33D
  3
X-Ray
350
344
  0
XRECORD
  5
518
102
{ACAD_REACTORS
330
C
102
}
330
C
100
AcDbXrecord
280
     1
 90
        1
330
347
  0
DICTIONARY
  5
3F9
102
{ACAD_REACTORS
330
C
102
}
330
C
100
AcDbDictionary
281
     1
  3
CANNOSCALE
350
3FA
  3
CMLEADERSTYLE
350
3FC
  3
CTABLESTYLE
350
3FB
  3
XCLIPFRAME
350
3FD
  0
DICTIONARY
  5
349
102
{ACAD_REACTORS
330
C
102
}
330
C
100
AcDbDictionary
281
     1
  0
DICTIONARY
  5
34D
102
{ACAD_REACTORS
330
34C
102
}
330
34C
100
AcDbDictionary
281
     1
  0
DICTIONARY
  5
355
102
{ACAD_REACTORS
330
34C
102
}
330
34C
100
AcDbDictionary
281
     1
1001
ACAD
1000
<All
  0
LAYOUT
  5
1E
102
{ACAD_REACTORS
330
1A
102
}
330
1A
100
AcDbPlotSettings
  1

  2
none_device
  4

  6

 40
0.0
 41
0.0
 42
0.0
 43
0.0
 44
0.0
 45
0.0
 46
0.0
 47
0.0
 48
0.0
 49
0.0
140
0.0
141
0.0
142
1.0
143
1.0
 70
   688
 72
     0
 73
     0
 74
     5
  7

 75
    16
 76
     0
 77
     2
 78
   300
147
1.0
148
0.0
149
0.0
100
AcDbLayout
  1
Layout1
 70
     1
 71
     1
 10
0.0
 20
0.0
 11
420.0
 21
297.0
 12
0.0
 22
0.0
 32
0.0
 14
1.000000000000000E+20
 24
1.000000000000000E+20
 34
1.000000000000000E+20
 15
-1.000000000000000E+20
 25
-1.000000000000000E+20
 35
-1.000000000000000E+20
146
0.0
 13
0.0
 23
0.0
 33
0.0
 16
1.0
 26
0.0
 36
0.0
 17
0.0
 27
1.0
 37
0.0
 76
     0
330
1B
  0
LAYOUT
  5
26
102
{ACAD_REACTORS
330
1A
102
}
330
1A
100
AcDbPlotSettings
  1

  2
none_device
  4

  6

 40
0.0
 41
0.0
 42
0.0
 43
0.0
 44
0.0
 45
0.0
 46
0.0
 47
0.0
 48
0.0
 49
0.0
140
0.0
141
0.0
142
1.0
143
1.0
 70
   688
 72
     0
 73
     0
 74
     5
  7

 75
    16
 76
     0
 77
     2
 78
   300
147
1.0
148
0.0
149
0.0
100
AcDbLayout
  1
Layout2
 70
     1
 71
     2
 10
0.0
 20
0.0
 11
0.0
 21
0.0
 12
0.0
 22
0.0
 32
0.0
 14
0.0
 24
0.0
 34
0.0
 15
0.0
 25
0.0
 35
0.0
146
0.0
 13
0.0
 23
0.0
 33
0.0
 16
1.0
 26
0.0
 36
0.0
 17
0.0
 27
1.0
 37
0.0
 76
     0
330
23
  0
LAYOUT
  5
22
102
{ACAD_REACTORS
330
1A
102
}
330
1A
100
AcDbPlotSettings
  1

  2
none_device
  4

  6

 40
0.0
 41
0.0
 42
0.0
 43
0.0
 44
0.0
 45
0.0
 46
0.0
 47
0.0
 48
0.0
 49
0.0
140
0.0
141
0.0
142
1.0
143
1.0
 70
  1712
 72
     0
 73
     0
 74
     0
  7

 75
     0
 76
     0
 77
     2
 78
   300
147
1.0
148
0.0
149
0.0
100
AcDbLayout
  1
Model
 70
     1
 71
     0
 10
0.0
 20
0.0
 11
420.0
 21
297.0
 12
0.0
 22
0.0
 32
0.0
 14
751687.9929999999
 24
4175340.725
 34
688.9219970703125
 15
751978.133
 25
4175490.329
 35
719.0
146
0.0
 13
0.0
 23
0.0
 33
0.0
 16
1.0
 26
0.0
 36
0.0
 17
0.0
 27
1.0
 37
0.0
 76
     0
330
1F
331
29
  0
MATERIAL
  5
3D
102
{ACAD_REACTORS
330
3B
102
}
330
3B
100
AcDbMaterial
  1
ByBlock
 72
     1
 94
      127
  0
MATERIAL
  5
3C
102
{ACAD_REACTORS
330
3B
102
}
330
3B
100
AcDbMaterial
  1
ByLayer
 72
     1
 94
      127
  0
MATERIAL
  5
3E
102
{ACAD_REACTORS
330
3B
102
}
330
3B
100
AcDbMaterial
  1
Global
 72
     1
 94
      127
  0
MLEADERSTYLE
  5
348
102
{ACAD_REACTORS
330
31A
102
}
330
31A
100
AcDbMLeaderStyle
179
     2
170
     2
171
     1
172
     0
 90
        2
 40
0.0
 41
0.0
173
     1
 91
-1056964608
340
14
 92
       -2
290
     1
 42
2.0
291
     1
 43
8.0
  3
Standard
341
0
 44
4.0
300

342
11
174
     1
178
     1
175
     1
176
     0
 93
-1056964608
 45
4.0
292
     0
297
     0
 46
4.0
343
0
 94
-1056964608
 47
1.0
 49
1.0
140
1.0
293
     1
141
0.0
294
     1
177
     0
142
1.0
295
     0
296
     0
143
3.75
271
     0
272
     9
273
     9
  0
MLINESTYLE
  5
18
102
{ACAD_REACTORS
330
17
102
}
330
17
100
AcDbMlineStyle
  2
Standard
 70
     0
  3

 62
   256
 51
90.0
 52
90.0
 71
     2
 49
0.5
 62
   256
  6
BYLAYER
 49
-0.5
 62
   256
  6
BYLAYER
  0
ACDBPLACEHOLDER
  5
F
102
{ACAD_REACTORS
330
E
102
}
330
E
  0
SCALE
  5
31C
102
{ACAD_REACTORS
330
31B
102
}
330
31B
100
AcDbScale
 70
     0
300
1:1
140
1.0
141
1.0
290
     1
  0
SCALE
  5
31D
102
{ACAD_REACTORS
330
31B
102
}
330
31B
100
AcDbScale
 70
     0
300
1:2
140
1.0
141
2.0
290
     0
  0
SCALE
  5
31E
102
{ACAD_REACTORS
330
31B
102
}
330
31B
100
AcDbScale
 70
     0
300
1:4
140
1.0
141
4.0
290
     0
  0
SCALE
  5
31F
102
{ACAD_REACTORS
330
31B
102
}
330
31B
100
AcDbScale
 70
     0
300
1:5
140
1.0
141
5.0
290
     0
  0
SCALE
  5
320
102
{ACAD_REACTORS
330
31B
102
}
330
31B
100
AcDbScale
 70
     0
300
1:8
140
1.0
141
8.0
290
     0
  0
SCALE
  5
321
102
{ACAD_REACTORS
330
31B
102
}
330
31B
100
AcDbScale
 70
     0
300
1:10
140
1.0
141
10.0
290
     0
  0
SCALE
  5
322
102
{ACAD_REACTORS
330
31B
102
}
330
31B
100
AcDbScale
 70
     0
300
1:16
140
1.0
141
16.0
290
     0
  0
SCALE
  5
323
102
{ACAD_REACTORS
330
31B
102
}
330
31B
100
AcDbScale
 70
     0
300
1:20
140
1.0
141
20.0
290
     0
  0
SCALE
  5
324
102
{ACAD_REACTORS
330
31B
102
}
330
31B
100
AcDbScale
 70
     0
300
1:30
140
1.0
141
30.0
290
     0
  0
SCALE
  5
325
102
{ACAD_REACTORS
330
31B
102
}
330
31B
100
AcDbScale
 70
     0
300
1:40
140
1.0
141
40.0
290
     0
  0
SCALE
  5
326
102
{ACAD_REACTORS
330
31B
102
}
330
31B
100
AcDbScale
 70
     0
300
1:50
140
1.0
141
50.0
290
     0
  0
SCALE
  5
327
102
{ACAD_REACTORS
330
31B
102
}
330
31B
100
AcDbScale
 70
     0
300
1:100
140
1.0
141
100.0
290
     0
  0
SCALE
  5
328
102
{ACAD_REACTORS
330
31B
102
}
330
31B
100
AcDbScale
 70
     0
300
2:1
140
2.0
141
1.0
290
     0
  0
SCALE
  5
329
102
{ACAD_REACTORS
330
31B
102
}
330
31B
100
AcDbScale
 70
     0
300
4:1
140
4.0
141
1.0
290
     0
  0
SCALE
  5
32A
102
{ACAD_REACTORS
330
31B
102
}
330
31B
100
AcDbScale
 70
     0
300
8:1
140
8.0
141
1.0
290
     0
  0
SCALE
  5
32B
102
{ACAD_REACTORS
330
31B
102
}
330
31B
100
AcDbScale
 70
     0
300
10:1
140
10.0
141
1.0
290
     0
  0
SCALE
  5
32C
102
{ACAD_REACTORS
330
31B
102
}
330
31B
100
AcDbScale
 70
     0
300
100:1
140
100.0
141
1.0
290
     0
  0
SCALE
  5
32D
102
{ACAD_REACTORS
330
31B
102
}
330
31B
100
AcDbScale
 70
     0
300
1/128" = 1'-0"
140
0.0078125
141
12.0
290
     0
  0
SCALE
  5
32E
102
{ACAD_REACTORS
330
31B
102
}
330
31B
100
AcDbScale
 70
     0
300
1/64" = 1'-0"
140
0.015625
141
12.0
290
     0
  0
SCALE
  5
32F
102
{ACAD_REACTORS
330
31B
102
}
330
31B
100
AcDbScale
 70
     0
300
1/32" = 1'-0"
140
0.03125
141
12.0
290
     0
  0
SCALE
  5
330
102
{ACAD_REACTORS
330
31B
102
}
330
31B
100
AcDbScale
 70
     0
300
1/16" = 1'-0"
140
0.0625
141
12.0
290
     0
  0
SCALE
  5
331
102
{ACAD_REACTORS
330
31B
102
}
330
31B
100
AcDbScale
 70
     0
300
3/32" = 1'-0"
140
0.09375
141
12.0
290
     0
  0
SCALE
  5
332
102
{ACAD_REACTORS
330
31B
102
}
330
31B
100
AcDbScale
 70
     0
300
1/8" = 1'-0"
140
0.125
141
12.0
290
     0
  0
SCALE
  5
333
102
{ACAD_REACTORS
330
31B
102
}
330
31B
100
AcDbScale
 70
     0
300
3/16" = 1'-0"
140
0.1875
141
12.0
290
     0
  0
SCALE
  5
334
102
{ACAD_REACTORS
330
31B
102
}
330
31B
100
AcDbScale
 70
     0
300
1/4" = 1'-0"
140
0.25
141
12.0
290
     0
  0
SCALE
  5
335
102
{ACAD_REACTORS
330
31B
102
}
330
31B
100
AcDbScale
 70
     0
300
3/8" = 1'-0"
140
0.375
141
12.0
290
     0
  0
SCALE
  5
336
102
{ACAD_REACTORS
330
31B
102
}
330
31B
100
AcDbScale
 70
     0
300
1/2" = 1'-0"
140
0.5
141
12.0
290
     0
  0
SCALE
  5
337
102
{ACAD_REACTORS
330
31B
102
}
330
31B
100
AcDbScale
 70
     0
300
3/4" = 1'-0"
140
0.75
141
12.0
290
     0
  0
SCALE
  5
338
102
{ACAD_REACTORS
330
31B
102
}
330
31B
100
AcDbScale
 70
     0
300
1" = 1'-0"
140
1.0
141
12.0
290
     0
  0
SCALE
  5
339
102
{ACAD_REACTORS
330
31B
102
}
330
31B
100
AcDbScale
 70
     0
300
1-1/2" = 1'-0"
140
1.5
141
12.0
290
     0
  0
SCALE
  5
33A
102
{ACAD_REACTORS
330
31B
102
}
330
31B
100
AcDbScale
 70
     0
300
3" = 1'-0"
140
3.0
141
12.0
290
     0
  0
SCALE
  5
33B
102
{ACAD_REACTORS
330
31B
102
}
330
31B
100
AcDbScale
 70
     0
300
6" = 1'-0"
140
6.0
141
12.0
290
     0
  0
SCALE
  5
33C
102
{ACAD_REACTORS
330
31B
102
}
330
31B
100
AcDbScale
 70
     0
300
1'-0" = 1'-0"
140
12.0
141
12.0
290
     0
  0
TABLESTYLE
  5
347
102
{ACAD_REACTORS
330
319
102
}
102
{ACAD_XDICTIONARY
360
516
102
}
330
319
100
AcDbTableStyle
  3
Standard
 70
     0
 71
     0
 40
0.06
 41
0.06
280
     0
281
     0
  7
Standard
140
4.5
170
     2
 62
     0
 63
   257
283
     0
 90
        4
 91
        0
  1

274
    -2
284
     1
 64
     0
275
    -2
285
     1
 65
     0
276
    -2
286
     1
 66
     0
277
    -2
287
     1
 67
     0
278
    -2
288
     1
 68
     0
279
    -2
289
     1
 69
     0
  7
Standard
140
6.0
170
     5
 62
     0
 63
   257
283
     0
 90
        4
 91
        0
  1

274
    -2
284
     1
 64
     0
275
    -2
285
     1
 65
     0
276
    -2
286
     1
 66
     0
277
    -2
287
     1
 67
     0
278
    -2
288
     1
 68
     0
279
    -2
289
     1
 69
     0
  7
Standard
140
4.5
170
     5
 62
     0
 63
   257
283
     0
 90
        4
 91
        0
  1

274
    -2
284
     1
 64
     0
275
    -2
285
     1
 65
     0
276
    -2
286
     1
 66
     0
277
    -2
287
     1
 67
     0
278
    -2
288
     1
 68
     0
279
    -2
289
     1
 69
     0
  0
VISUALSTYLE
  5
2F
102
{ACAD_REACTORS
330
2A
102
}
330
2A
100
AcDbVisualStyle
  2
2dWireframe
 70
     4
177
     2
291
     0
 71
     0
176
     1
 72
     2
176
     1
 73
     0
176
     1
 90
        0
176
     1
 40
-0.6
176
     1
 41
-30.0
176
     1
 62
     5
 63
     7
421
 16777215
176
     1
 74
     1
176
     1
 91
        4
176
     1
 64
     7
176
     1
 65
   257
176
     1
 75
     1
176
     1
175
     1
176
     1
 42
1.0
176
     1
 92
        0
176
     1
 66
   257
176
     1
 43
1.0
176
     1
 76
     1
176
     1
 77
     6
176
     1
 78
     2
176
     1
 67
     7
176
     1
 79
     5
176
     1
170
     0
176
     1
171
     0
176
     1
290
     0
176
     1
 93
        1
176
     1
 44
0.0
176
     1
173
     0
176
     1
  0
VISUALSTYLE
  5
31
102
{ACAD_REACTORS
330
2A
102
}
330
2A
100
AcDbVisualStyle
  2
3D Hidden
 70
     6
177
     2
291
     0
 71
     1
176
     1
 72
     2
176
     1
 73
     2
176
     1
 90
        0
176
     1
 40
-0.6
176
     1
 41
-30.0
176
     1
 62
     5
 63
     7
421
 16777215
176
     1
 74
     2
176
     1
 91
        2
176
     1
 64
     7
176
     1
 65
   257
176
     1
 75
     2
176
     1
175
     1
176
     1
 42
40.0
176
     1
 92
        0
176
     1
 66
   257
176
     1
 43
1.0
176
     1
 76
     1
176
     1
 77
     6
176
     1
 78
     2
176
     1
 67
     7
176
     1
 79
     3
176
     1
170
     0
176
     1
171
     0
176
     1
290
     0
176
     1
 93
        1
176
     1
 44
0.0
176
     1
173
     0
176
     1
  0
VISUALSTYLE
  5
30
102
{ACAD_REACTORS
330
2A
102
}
330
2A
100
AcDbVisualStyle
  2
3dWireframe
 70
     5
177
     2
291
     0
 71
     0
176
     1
 72
     2
176
     1
 73
     0
176
     1
 90
        0
176
     1
 40
-0.6
176
     1
 41
-30.0
176
     1
 62
     5
 63
     7
421
 16777215
176
     1
 74
     1
176
     1
 91
        4
176
     1
 64
     7
176
     1
 65
   257
176
     1
 75
     1
176
     1
175
     1
176
     1
 42
1.0
176
     1
 92
        0
176
     1
 66
   257
176
     1
 43
1.0
176
     1
 76
     1
176
     1
 77
     6
176
     1
 78
     2
176
     1
 67
     7
176
     1
 79
     5
176
     1
170
     0
176
     1
171
     0
176
     1
290
     0
176
     1
 93
        1
176
     1
 44
0.0
176
     1
173
     0
176
     1
  0
VISUALSTYLE
  5
32
102
{ACAD_REACTORS
330
2A
102
}
330
2A
100
AcDbVisualStyle
  2
Basic
 70
     7
177
     2
291
     1
 71
     1
176
     1
 72
     0
176
     1
 73
     1
176
     1
 90
        0
176
     1
 40
-0.6
176
     1
 41
-30.0
176
     1
 62
     5
 63
     7
421
 16777215
176
     1
 74
     0
176
     1
 91
        4
176
     1
 64
     7
176
     1
 65
   257
176
     1
 75
     1
176
     1
175
     1
176
     1
 42
1.0
176
     1
 92
        8
176
     1
 66
     7
176
     1
 43
1.0
176
     1
 76
     1
176
     1
 77
     6
176
     1
 78
     2
176
     1
 67
     7
176
     1
 79
     5
176
     1
170
     0
176
     1
171
     0
176
     1
290
     0
176
     1
 93
        1
176
     1
 44
0.0
176
     1
173
     0
176
     1
  0
VISUALSTYLE
  5
36
102
{ACAD_REACTORS
330
2A
102
}
330
2A
100
AcDbVisualStyle
  2
Brighten
 70
    12
177
     2
291
     1
 71
     2
176
     1
 72
     2
176
     1
 73
     0
176
     1
 90
        0
176
     1
 40
-0.6
176
     1
 41
-30.0
176
     1
 62
     5
 63
     7
421
 16777215
176
     1
 74
     1
176
     1
 91
        4
176
     1
 64
     7
176
     1
 65
   257
176
     1
 75
     1
176
     1
175
     1
176
     1
 42
1.0
176
     1
 92
        8
176
     1
 66
     7
176
     1
 43
1.0
176
     1
 76
     1
176
     1
 77
     6
176
     1
 78
     2
176
     1
 67
     7
176
     1
 79
     5
176
     1
170
     0
176
     1
171
     0
176
     1
290
     0
176
     1
 93
        1
176
     1
 44
50.0
176
     1
173
     0
176
     1
  0
VISUALSTYLE
  5
3A
102
{ACAD_REACTORS
330
2A
102
}
330
2A
100
AcDbVisualStyle
  2
ColorChange
 70
    16
177
     2
291
     1
 71
     2
176
     1
 72
     2
176
     1
 73
     3
176
     1
 90
        0
176
     1
 40
-0.6
176
     1
 41
-30.0
176
     1
 62
     5
 63
     8
421
  8421504
176
     1
 74
     1
176
     1
 91
        4
176
     1
 64
     7
176
     1
 65
   257
176
     1
 75
     1
176
     1
175
     1
176
     1
 42
1.0
176
     1
 92
        8
176
     1
 66
     8
424
  8421504
176
     1
 43
1.0
176
     1
 76
     1
176
     1
 77
     6
176
     1
 78
     2
176
     1
 67
     7
176
     1
 79
     5
176
     1
170
     0
176
     1
171
     0
176
     1
290
     0
176
     1
 93
        1
176
     1
 44
0.0
176
     1
173
     0
176
     1
  0
VISUALSTYLE
  5
34
102
{ACAD_REACTORS
330
2A
102
}
330
2A
100
AcDbVisualStyle
  2
Conceptual
 70
     9
177
     2
291
     0
 71
     3
176
     1
 72
     2
176
     1
 73
     0
176
     1
 90
        0
176
     1
 40
-0.6
176
     1
 41
-30.0
176
     1
 62
     5
 63
     7
421
 16777215
176
     1
 74
     2
176
     1
 91
        2
176
     1
 64
     7
176
     1
 65
   257
176
     1
 75
     1
176
     1
175
     1
176
     1
 42
40.0
176
     1
 92
        8
176
     1
 66
     7
176
     1
 43
1.0
176
     1
 76
     1
176
     1
 77
     6
176
     1
 78
     2
176
     1
 67
     7
176
     1
 79
     3
176
     1
170
     0
176
     1
171
     0
176
     1
290
     0
176
     1
 93
        1
176
     1
 44
0.0
176
     1
173
     0
176
     1
  0
VISUALSTYLE
  5
35
102
{ACAD_REACTORS
330
2A
102
}
330
2A
100
AcDbVisualStyle
  2
Dim
 70
    11
177
     2
291
     1
 71
     2
176
     1
 72
     2
176
     1
 73
     0
176
     1
 90
        0
176
     1
 40
-0.6
176
     1
 41
-30.0
176
     1
 62
     5
 63
     7
421
 16777215
176
     1
 74
     1
176
     1
 91
        4
176
     1
 64
     7
176
     1
 65
   257
176
     1
 75
     1
176
     1
175
     1
176
     1
 42
1.0
176
     1
 92
        8
176
     1
 66
     7
176
     1
 43
1.0
176
     1
 76
     1
176
     1
 77
     6
176
     1
 78
     2
176
     1
 67
     7
176
     1
 79
     5
176
     1
170
     0
176
     1
171
     0
176
     1
290
     0
176
     1
 93
        1
176
     1
 44
-50.0
176
     1
173
     0
176
     1
  0
VISUALSTYLE
  5
341
102
{ACAD_REACTORS
330
2A
102
}
330
2A
100
AcDbVisualStyle
  2
EdgeColorOff
 70
    22
177
     2
291
     1
 71
     2
176
     0
 72
     2
176
     0
 73
     0
176
     0
 90
        0
176
     0
 40
0.6
176
     0
 41
30.0
176
     0
 62
     5
 63
     7
421
 16777215
176
     0
 74
     1
176
     0
 91
        4
176
     0
 64
     7
176
     0
 65
   257
176
     0
 75
     1
176
     0
175
     1
176
     0
 42
1.0
176
     0
 92
        8
176
     2
 66
     7
176
     0
 43
1.0
176
     0
 76
     1
176
     0
 77
     6
176
     0
 78
     2
176
     0
 67
     7
176
     0
 79
     5
176
     0
170
     0
176
     0
171
     0
176
     0
290
     0
176
     0
 93
        1
176
     0
 44
0.0
176
     0
173
     0
176
     0
  0
VISUALSTYLE
  5
39
102
{ACAD_REACTORS
330
2A
102
}
330
2A
100
AcDbVisualStyle
  2
Facepattern
 70
    15
177
     2
291
     1
 71
     2
176
     1
 72
     2
176
     1
 73
     0
176
     1
 90
        0
176
     1
 40
-0.6
176
     1
 41
-30.0
176
     1
 62
     5
 63
     7
421
 16777215
176
     1
 74
     1
176
     1
 91
        4
176
     1
 64
     7
176
     1
 65
   257
176
     1
 75
     1
176
     1
175
     1
176
     1
 42
1.0
176
     1
 92
        8
176
     1
 66
     7
176
     1
 43
1.0
176
     1
 76
     1
176
     1
 77
     6
176
     1
 78
     2
176
     1
 67
     7
176
     1
 79
     5
176
     1
170
     0
176
     1
171
     0
176
     1
290
     0
176
     1
 93
        1
176
     1
 44
0.0
176
     1
173
     0
176
     1
  0
VISUALSTYLE
  5
2B
102
{ACAD_REACTORS
330
2A
102
}
330
2A
100
AcDbVisualStyle
  2
Flat
 70
     0
177
     2
291
     1
 71
     2
176
     1
 72
     1
176
     1
 73
     1
176
     1
 90
        2
176
     1
 40
-0.6
176
     1
 41
30.0
176
     1
 62
     5
 63
     7
421
 16777215
176
     1
 74
     0
176
     1
 91
        4
176
     1
 64
     7
176
     1
 65
   257
176
     1
 75
     1
176
     1
175
     1
176
     1
 42
1.0
176
     1
 92
        8
176
     1
 66
     7
176
     1
 43
1.0
176
     1
 76
     1
176
     1
 77
     6
176
     1
 78
     2
176
     1
 67
     7
176
     1
 79
     5
176
     1
170
     0
176
     1
171
     0
176
     1
290
     0
176
     1
 93
       13
176
     1
 44
0.0
176
     1
173
     0
176
     1
  0
VISUALSTYLE
  5
2C
102
{ACAD_REACTORS
330
2A
102
}
330
2A
100
AcDbVisualStyle
  2
FlatWithEdges
 70
     1
177
     2
291
     1
 71
     2
176
     1
 72
     1
176
     1
 73
     1
176
     1
 90
        2
176
     1
 40
-0.6
176
     1
 41
30.0
176
     1
 62
     5
 63
     7
421
 16777215
176
     1
 74
     1
176
     1
 91
        4
176
     1
 64
     7
176
     1
 65
   257
176
     1
 75
     1
176
     1
175
     1
176
     1
 42
1.0
176
     1
 92
        0
176
     1
 66
   257
176
     1
 43
1.0
176
     1
 76
     1
176
     1
 77
     6
176
     1
 78
     2
176
     1
 67
     7
176
     1
 79
     5
176
     1
170
     0
176
     1
171
     0
176
     1
290
     0
176
     1
 93
       13
176
     1
 44
0.0
176
     1
173
     0
176
     1
  0
VISUALSTYLE
  5
2D
102
{ACAD_REACTORS
330
2A
102
}
330
2A
100
AcDbVisualStyle
  2
Gouraud
 70
     2
177
     2
291
     1
 71
     2
176
     1
 72
     2
176
     1
 73
     1
176
     1
 90
        2
176
     1
 40
-0.6
176
     1
 41
30.0
176
     1
 62
     5
 63
     7
421
 16777215
176
     1
 74
     0
176
     1
 91
        4
176
     1
 64
     7
176
     1
 65
   257
176
     1
 75
     1
176
     1
175
     1
176
     1
 42
1.0
176
     1
 92
        0
176
     1
 66
     7
176
     1
 43
1.0
176
     1
 76
     1
176
     1
 77
     6
176
     1
 78
     2
176
     1
 67
     7
176
     1
 79
     5
176
     1
170
     0
176
     1
171
     0
176
     1
290
     0
176
     1
 93
       13
176
     1
 44
0.0
176
     1
173
     0
176
     1
  0
VISUALSTYLE
  5
2E
102
{ACAD_REACTORS
330
2A
102
}
330
2A
100
AcDbVisualStyle
  2
GouraudWithEdges
 70
     3
177
     2
291
     1
 71
     2
176
     1
 72
     2
176
     1
 73
     1
176
     1
 90
        2
176
     1
 40
-0.6
176
     1
 41
30.0
176
     1
 62
     5
 63
     7
421
 16777215
176
     1
 74
     1
176
     1
 91
        4
176
     1
 64
     7
176
     1
 65
   257
176
     1
 75
     1
176
     1
175
     1
176
     1
 42
1.0
176
     1
 92
        0
176
     1
 66
   257
176
     1
 43
1.0
176
     1
 76
     1
176
     1
 77
     6
176
     1
 78
     2
176
     1
 67
     7
176
     1
 79
     5
176
     1
170
     0
176
     1
171
     0
176
     1
290
     0
176
     1
 93
       13
176
     1
 44
0.0
176
     1
173
     0
176
     1
  0
VISUALSTYLE
  5
33E
102
{ACAD_REACTORS
330
2A
102
}
330
2A
100
AcDbVisualStyle
  2
Hidden
 70
     6
177
     2
291
     0
 71
     1
176
     1
 72
     2
176
     1
 73
     2
176
     1
 90
        0
176
     1
 40
0.6
176
     1
 41
30.0
176
     1
 62
     5
 63
     7
421
 16777215
176
     1
 74
     2
176
     1
 91
        2
176
     1
 64
     7
176
     1
 65
   257
176
     1
 75
     2
176
     1
175
     1
176
     1
 42
40.0
176
     1
 92
        0
176
     1
 66
   257
176
     1
 43
1.0
176
     1
 76
     1
176
     1
 77
     6
176
     1
 78
     2
176
     1
 67
     7
176
     1
 79
     3
176
     1
170
     0
176
     1
171
     0
176
     1
290
     0
176
     1
 93
        1
176
     1
 44
0.0
176
     1
173
     0
176
     1
  0
VISUALSTYLE
  5
33F
102
{ACAD_REACTORS
330
2A
102
}
330
2A
100
AcDbVisualStyle
  2
JitterOff
 70
    20
177
     2
291
     1
 71
     2
176
     0
 72
     2
176
     0
 73
     0
176
     0
 90
        0
176
     0
 40
0.6
176
     0
 41
30.0
176
     0
 62
     5
 63
     7
421
 16777215
176
     0
 74
     1
176
     0
 91
        4
176
     0
 64
     7
176
     0
 65
   257
176
     0
 75
     1
176
     0
175
     1
176
     0
 42
1.0
176
     0
 92
       10
176
     2
 66
     7
176
     0
 43
1.0
176
     0
 76
     1
176
     0
 77
     6
176
     0
 78
     2
176
     0
 67
     7
176
     0
 79
     5
176
     0
170
     0
176
     0
171
     0
176
     0
290
     0
176
     0
 93
        1
176
     0
 44
0.0
176
     0
173
     0
176
     0
  0
VISUALSTYLE
  5
38
102
{ACAD_REACTORS
330
2A
102
}
330
2A
100
AcDbVisualStyle
  2
Linepattern
 70
    14
177
     2
291
     1
 71
     2
176
     1
 72
     2
176
     1
 73
     0
176
     1
 90
        0
176
     1
 40
-0.6
176
     1
 41
-30.0
176
     1
 62
     5
 63
     7
421
 16777215
176
     1
 74
     1
176
     1
 91
        4
176
     1
 64
     7
176
     1
 65
   257
176
     1
 75
     7
176
     1
175
     7
176
     1
 42
1.0
176
     1
 92
        8
176
     1
 66
     7
176
     1
 43
1.0
176
     1
 76
     1
176
     1
 77
     6
176
     1
 78
     2
176
     1
 67
     7
176
     1
 79
     5
176
     1
170
     0
176
     1
171
     0
176
     1
290
     0
176
     1
 93
        1
176
     1
 44
0.0
176
     1
173
     0
176
     1
  0
VISUALSTYLE
  5
340
102
{ACAD_REACTORS
330
2A
102
}
330
2A
100
AcDbVisualStyle
  2
OverhangOff
 70
    21
177
     2
291
     1
 71
     2
176
     0
 72
     2
176
     0
 73
     0
176
     0
 90
        0
176
     0
 40
0.6
176
     0
 41
30.0
176
     0
 62
     5
 63
     7
421
 16777215
176
     0
 74
     1
176
     0
 91
        4
176
     0
 64
     7
176
     0
 65
   257
176
     0
 75
     1
176
     0
175
     1
176
     0
 42
1.0
176
     0
 92
        9
176
     2
 66
     7
176
     0
 43
1.0
176
     0
 76
     1
176
     0
 77
     6
176
     0
 78
     2
176
     0
 67
     7
176
     0
 79
     5
176
     0
170
     0
176
     0
171
     0
176
     0
290
     0
176
     0
 93
        1
176
     0
 44
0.0
176
     0
173
     0
176
     0
  0
VISUALSTYLE
  5
33
102
{ACAD_REACTORS
330
2A
102
}
330
2A
100
AcDbVisualStyle
  2
Realistic
 70
     8
177
     2
291
     0
 71
     2
176
     1
 72
     2
176
     1
 73
     0
176
     1
 90
        0
176
     1
 40
-0.6
176
     1
 41
-30.0
176
     1
 62
     5
 63
     7
421
 16777215
176
     1
 74
     1
176
     1
 91
        0
176
     1
 64
     7
176
     1
 65
   257
176
     1
 75
     1
176
     1
175
     1
176
     1
 42
1.0
176
     1
 92
        8
176
     1
 66
     8
424
  7895160
176
     1
 43
1.0
176
     1
 76
     1
176
     1
 77
     6
176
     1
 78
     2
176
     1
 67
     7
176
     1
 79
     5
176
     1
170
     0
176
     1
171
     0
176
     1
290
     0
176
     1
 93
       13
176
     1
 44
0.0
176
     1
173
     0
176
     1
  0
VISUALSTYLE
  5
346
102
{ACAD_REACTORS
330
2A
102
}
330
2A
100
AcDbVisualStyle
  2
Shaded
 70
    27
177
     2
291
     0
 71
     2
176
     1
 72
     2
176
     1
 73
     1
176
     1
 90
        2
176
     1
 40
0.6
176
     1
 41
30.0
176
     1
 62
     5
 63
     7
421
 16777215
176
     1
 74
     0
176
     1
 91
        4
176
     1
 64
     7
176
     1
 65
   257
176
     1
 75
     1
176
     1
175
     1
176
     1
 42
1.0
176
     1
 92
        8
176
     1
 66
   257
176
     1
 43
1.0
176
     1
 76
     1
176
     1
 77
     6
176
     1
 78
     2
176
     1
 67
     8
425
  7895160
176
     1
 79
     3
176
     1
170
     0
176
     1
171
     0
176
     1
290
     0
176
     1
 93
        5
176
     1
 44
0.0
176
     1
173
     0
176
     1
  0
VISUALSTYLE
  5
345
102
{ACAD_REACTORS
330
2A
102
}
330
2A
100
AcDbVisualStyle
  2
Shaded with edges
 70
    26
177
     2
291
     0
 71
     2
176
     1
 72
     2
176
     1
 73
     1
176
     1
 90
        2
176
     1
 40
0.6
176
     1
 41
30.0
176
     1
 62
     5
 63
     7
421
 16777215
176
     1
 74
     1
176
     1
 91
       10
176
     1
 64
     7
176
     1
 65
   257
176
     1
 75
     2
176
     1
175
     1
176
     1
 42
1.0
176
     1
 92
        8
176
     1
 66
   257
176
     1
 43
1.0
176
     1
 76
     1
176
     1
 77
     6
176
     1
 78
     2
176
     1
 67
     7
176
     1
 79
     3
176
     1
170
     0
176
     1
171
     0
176
     1
290
     0
176
     1
 93
        5
176
     1
 44
0.0
176
     1
173
     0
176
     1
  0
VISUALSTYLE
  5
342
102
{ACAD_REACTORS
330
2A
102
}
330
2A
100
AcDbVisualStyle
  2
Shades of Gray
 70
    23
177
     2
291
     0
 71
     2
176
     1
 72
     2
176
     1
 73
     3
176
     1
 90
        0
176
     1
 40
0.6
176
     1
 41
30.0
176
     1
 62
     5
 63
     7
421
 16777215
176
     1
 74
     2
176
     1
 91
        2
176
     1
 64
     7
176
     1
 65
     7
176
     1
 75
     1
176
     1
175
     1
176
     1
 42
40.0
176
     1
 92
        8
176
     1
 66
     7
176
     1
 43
1.0
176
     1
 76
     1
176
     1
 77
     6
176
     1
 78
     2
176
     1
 67
     7
176
     1
 79
     3
176
     1
170
     0
176
     1
171
     0
176
     1
290
     0
176
     1
 93
        1
176
     1
 44
0.0
176
     1
173
     0
176
     1
  0
VISUALSTYLE
  5
343
102
{ACAD_REACTORS
330
2A
102
}
330
2A
100
AcDbVisualStyle
  2
Sketchy
 70
    24
177
     2
291
     0
 71
     1
176
     1
 72
     2
176
     1
 73
     2
176
     1
 90
        0
176
     1
 40
0.6
176
     1
 41
30.0
176
     1
 62
     5
 63
     7
421
 16777215
176
     1
 74
     2
176
     1
 91
        2
176
     1
 64
     7
176
     1
 65
     7
176
     1
 75
     1
176
     1
175
     1
176
     1
 42
40.0
176
     1
 92
       11
176
     1
 66
     7
176
     1
 43
1.0
176
     1
 76
     1
176
     1
 77
     6
176
     1
 78
     2
176
     1
 67
     7
176
     1
 79
     6
176
     1
170
     0
176
     1
171
     0
176
     1
290
     0
176
     1
 93
        1
176
     1
 44
0.0
176
     1
173
     0
176
     1
  0
VISUALSTYLE
  5
37
102
{ACAD_REACTORS
330
2A
102
}
330
2A
100
AcDbVisualStyle
  2
Thicken
 70
    13
177
     2
291
     1
 71
     2
176
     1
 72
     2
176
     1
 73
     0
176
     1
 90
        0
176
     1
 40
-0.6
176
     1
 41
-30.0
176
     1
 62
     5
 63
     7
421
 16777215
176
     1
 74
     1
176
     1
 91
        4
176
     1
 64
     7
176
     1
 65
   257
176
     1
 75
     1
176
     1
175
     1
176
     1
 42
1.0
176
     1
 92
       12
176
     1
 66
     7
176
     1
 43
1.0
176
     1
 76
     1
176
     1
 77
     6
176
     1
 78
     2
176
     1
 67
     7
176
     1
 79
     5
176
     1
170
     0
176
     1
171
     0
176
     1
290
     0
176
     1
 93
        1
176
     1
 44
0.0
176
     1
173
     0
176
     1
  0
VISUALSTYLE
  5
33D
102
{ACAD_REACTORS
330
2A
102
}
330
2A
100
AcDbVisualStyle
  2
Wireframe
 70
     5
177
     2
291
     0
 71
     0
176
     1
 72
     2
176
     1
 73
     0
176
     1
 90
        0
176
     1
 40
0.6
176
     1
 41
30.0
176
     1
 62
     5
 63
     7
421
 16777215
176
     1
 74
     1
176
     1
 91
        4
176
     1
 64
     7
176
     1
 65
   257
176
     1
 75
     1
176
     1
175
     1
176
     1
 42
1.0
176
     1
 92
        0
176
     1
 66
   257
176
     1
 43
1.0
176
     1
 76
     1
176
     1
 77
     6
176
     1
 78
     2
176
     1
 67
     7
176
     1
 79
     3
176
     1
170
     0
176
     1
171
     0
176
     1
290
     0
176
     1
 93
        1
176
     1
 44
0.0
176
     1
173
     0
176
     1
  0
VISUALSTYLE
  5
344
102
{ACAD_REACTORS
330
2A
102
}
330
2A
100
AcDbVisualStyle
  2
X-Ray
 70
    25
177
     2
291
     0
 71
     2
176
     1
 72
     2
176
     1
 73
     1
176
     1
 90
        1
176
     1
 40
0.5
176
     1
 41
30.0
176
     1
 62
     5
 63
     7
421
 16777215
176
     1
 74
     1
176
     1
 91
        0
176
     1
 64
     7
176
     1
 65
   257
176
     1
 75
     1
176
     1
175
     1
176
     1
 42
1.0
176
     1
 92
        8
176
     1
 66
     7
176
     1
 43
1.0
176
     1
 76
     1
176
     1
 77
     6
176
     1
 78
     2
176
     1
 67
     7
176
     1
 79
     3
176
     1
170
     0
176
     1
171
     0
176
     1
290
     0
176
     1
 93
       13
176
     1
 44
0.0
176
     1
173
     0
176
     1
  0
DICTIONARYVAR
  5
3FA
102
{ACAD_REACTORS
330
3F9
102
}
330
3F9
100
DictionaryVariables
280
     0
  1
1:1
  0
DICTIONARYVAR
  5
3FC
102
{ACAD_REACTORS
330
3F9
102
}
330
3F9
100
DictionaryVariables
280
     0
  1
Standard
  0
DICTIONARYVAR
  5
3FB
102
{ACAD_REACTORS
330
3F9
102
}
330
3F9
100
DictionaryVariables
280
     0
  1
Standard
  0
DICTIONARYVAR
  5
3FD
102
{ACAD_REACTORS
330
3F9
102
}
330
3F9
100
DictionaryVariables
280
     0
  1
0
  0
DICTIONARY
  5
516
330
347
100
AcDbDictionary
280
     1
281
     1
  3
ACAD_ROUNDTRIP_2008_TABLESTYLE_CELLSTYLEMAP
360
517
  0
CELLSTYLEMAP
  5
517
102
{ACAD_REACTORS
330
516
102
}
330
516
100
AcDbCellStyleMap
 90
        3
300
CELLSTYLE
  1
TABLEFORMAT_BEGIN
 90
        5
170
     1
 91
        0
 92
    32768
 62
   257
 93
        1
300
CONTENTFORMAT
  1
CONTENTFORMAT_BEGIN
 90
        0
 91
        0
 92
        4
 93
        0
300

 40
0.0
140
1.0
 94
        5
 62
     0
340
11
144
6.0
309
CONTENTFORMAT_END
171
     1
301
MARGIN
  1
CELLMARGIN_BEGIN
 40
1.5
 40
1.5
 40
1.5
 40
1.5
 40
1.5
 40
1.5
309
CELLMARGIN_END
 94
        6
 95
        1
302
GRIDFORMAT
  1
GRIDFORMAT_BEGIN
 90
        0
 91
        1
 62
     0
 92
       -2
340
14
 93
        0
 40
0.045
309
GRIDFORMAT_END
 95
        2
302
GRIDFORMAT
  1
GRIDFORMAT_BEGIN
 90
        0
 91
        1
 62
     0
 92
       -2
340
14
 93
        0
 40
0.045
309
GRIDFORMAT_END
 95
        4
302
GRIDFORMAT
  1
GRIDFORMAT_BEGIN
 90
        0
 91
        1
 62
     0
 92
       -2
340
14
 93
        0
 40
0.045
309
GRIDFORMAT_END
 95
        8
302
GRIDFORMAT
  1
GRIDFORMAT_BEGIN
 90
        0
 91
        1
 62
     0
 92
       -2
340
14
 93
        0
 40
0.045
309
GRIDFORMAT_END
 95
       16
302
GRIDFORMAT
  1
GRIDFORMAT_BEGIN
 90
        0
 91
        1
 62
     0
 92
       -2
340
14
 93
        0
 40
0.045
309
GRIDFORMAT_END
 95
       32
302
GRIDFORMAT
  1
GRIDFORMAT_BEGIN
 90
        0
 91
        1
 62
     0
 92
       -2
340
14
 93
        0
 40
0.045
309
GRIDFORMAT_END
309
TABLEFORMAT_END
  1
CELLSTYLE_BEGIN
 90
        1
 91
        1
300
_TITLE
309
CELLSTYLE_END
300
CELLSTYLE
  1
TABLEFORMAT_BEGIN
 90
        5
170
     1
 91
        0
 92
        0
 62
   257
 93
        1
300
CONTENTFORMAT
  1
CONTENTFORMAT_BEGIN
 90
        0
 91
        0
 92
        4
 93
        0
300

 40
0.0
140
1.0
 94
        5
 62
     0
340
11
144
4.5
309
CONTENTFORMAT_END
171
     1
301
MARGIN
  1
CELLMARGIN_BEGIN
 40
1.5
 40
1.5
 40
1.5
 40
1.5
 40
1.5
 40
1.5
309
CELLMARGIN_END
 94
        6
 95
        1
302
GRIDFORMAT
  1
GRIDFORMAT_BEGIN
 90
        0
 91
        1
 62
     0
 92
       -2
340
14
 93
        0
 40
0.045
309
GRIDFORMAT_END
 95
        2
302
GRIDFORMAT
  1
GRIDFORMAT_BEGIN
 90
        0
 91
        1
 62
     0
 92
       -2
340
14
 93
        0
 40
0.045
309
GRIDFORMAT_END
 95
        4
302
GRIDFORMAT
  1
GRIDFORMAT_BEGIN
 90
        0
 91
        1
 62
     0
 92
       -2
340
14
 93
        0
 40
0.045
309
GRIDFORMAT_END
 95
        8
302
GRIDFORMAT
  1
GRIDFORMAT_BEGIN
 90
        0
 91
        1
 62
     0
 92
       -2
340
14
 93
        0
 40
0.045
309
GRIDFORMAT_END
 95
       16
302
GRIDFORMAT
  1
GRIDFORMAT_BEGIN
 90
        0
 91
        1
 62
     0
 92
       -2
340
14
 93
        0
 40
0.045
309
GRIDFORMAT_END
 95
       32
302
GRIDFORMAT
  1
GRIDFORMAT_BEGIN
 90
        0
 91
        1
 62
     0
 92
       -2
340
14
 93
        0
 40
0.045
309
GRIDFORMAT_END
309
TABLEFORMAT_END
  1
CELLSTYLE_BEGIN
 90
        2
 91
        1
300
_HEADER
309
CELLSTYLE_END
300
CELLSTYLE
  1
TABLEFORMAT_BEGIN
 90
        5
170
     1
 91
        0
 92
        0
 62
   257
 93
        1
300
CONTENTFORMAT
  1
CONTENTFORMAT_BEGIN
 90
        0
 91
        0
 92
        4
 93
        0
300

 40
0.0
140
1.0
 94
        2
 62
     0
340
11
144
4.5
309
CONTENTFORMAT_END
171
     1
301
MARGIN
  1
CELLMARGIN_BEGIN
 40
1.5
 40
1.5
 40
1.5
 40
1.5
 40
1.5
 40
1.5
309
CELLMARGIN_END
 94
        6
 95
        1
302
GRIDFORMAT
  1
GRIDFORMAT_BEGIN
 90
        0
 91
        1
 62
     0
 92
       -2
340
14
 93
        0
 40
0.045
309
GRIDFORMAT_END
 95
        2
302
GRIDFORMAT
  1
GRIDFORMAT_BEGIN
 90
        0
 91
        1
 62
     0
 92
       -2
340
14
 93
        0
 40
0.045
309
GRIDFORMAT_END
 95
        4
302
GRIDFORMAT
  1
GRIDFORMAT_BEGIN
 90
        0
 91
        1
 62
     0
 92
       -2
340
14
 93
        0
 40
0.045
309
GRIDFORMAT_END
 95
        8
302
GRIDFORMAT
  1
GRIDFORMAT_BEGIN
 90
        0
 91
        1
 62
     0
 92
       -2
340
14
 93
        0
 40
0.045
309
GRIDFORMAT_END
 95
       16
302
GRIDFORMAT
  1
GRIDFORMAT_BEGIN
 90
        0
 91
        1
 62
     0
 92
       -2
340
14
 93
        0
 40
0.045
309
GRIDFORMAT_END
 95
       32
302
GRIDFORMAT
  1
GRIDFORMAT_BEGIN
 90
        0
 91
        1
 62
     0
 92
       -2
340
14
 93
        0
 40
0.045
309
GRIDFORMAT_END
309
TABLEFORMAT_END
  1
CELLSTYLE_BEGIN
 90
        3
 91
        2
300
_DATA
309
CELLSTYLE_END
  0
ENDSEC
  0
EOF
