  0
SECTION
  2
HEADER
  9
$ACADVER
  1
AC1024
  9
$ACADMAINTVER
 70
     6
  9
$DWGCODEPAGE
  3
ANSI_1252
  9
$LASTSAVEDBY
  1
mehme
  9
$INSBASE
 10
0.0
 20
0.0
 30
0.0
  9
$EXTMIN
 10
751730.258
 20
4175371.572
 30
715.2150268554688
  9
$EXTMAX
 10
751906.654
 20
4175582.27
 30
745.2375969449058
  9
$LIMMIN
 10
0.0
 20
0.0
  9
$LIMMAX
 10
420.0
 20
297.0
  9
$ORTHOMODE
 70
     0
  9
$REGENMODE
 70
     1
  9
$FILLMODE
 70
     1
  9
$QTEXTMODE
 70
     0
  9
$MIRRTEXT
 70
     1
  9
$LTSCALE
 40
1.0
  9
$ATTMODE
 70
     1
  9
$TEXTSIZE
 40
2.5
  9
$TRACEWID
 40
1.0
  9
$TEXTSTYLE
  7
Standard
  9
$CLAYER
  8
INIT_COORD
  9
$CELTYPE
  6
ByLayer
  9
$CECOLOR
 62
   256
  9
$CELTSCALE
 40
1.0
  9
$DISPSILH
 70
     0
  9
$DIMSCALE
 40
1.0
  9
$DIMASZ
 40
2.5
  9
$DIMEXO
 40
0.625
  9
$DIMDLI
 40
3.75
  9
$DIMRND
 40
0.0
  9
$DIMDLE
 40
0.0
  9
$DIMEXE
 40
1.25
  9
$DIMTP
 40
0.0
  9
$DIMTM
 40
0.0
  9
$DIMTXT
 40
2.5
  9
$DIMCEN
 40
2.5
  9
$DIMTSZ
 40
0.0
  9
$DIMTOL
 70
     0
  9
$DIMLIM
 70
     0
  9
$DIMTIH
 70
     0
  9
$DIMTOH
 70
     0
  9
$DIMSE1
 70
     0
  9
$DIMSE2
 70
     0
  9
$DIMTAD
 70
     1
  9
$DIMZIN
 70
     8
  9
$DIMBLK
  1

  9
$DIMASO
 70
     1
  9
$DIMSHO
 70
     1
  9
$DIMPOST
  1

  9
$DIMAPOST
  1

  9
$DIMALT
 70
     0
  9
$DIMALTD
 70
     3
  9
$DIMALTF
 40
0.03937007874016
  9
$DIMLFAC
 40
1.0
  9
$DIMTOFL
 70
     1
  9
$DIMTVP
 40
0.0
  9
$DIMTIX
 70
     0
  9
$DIMSOXD
 70
     0
  9
$DIMSAH
 70
     0
  9
$DIMBLK1
  1

  9
$DIMBLK2
  1

  9
$DIMSTYLE
  2
ISO-25
  9
$DIMCLRD
 70
     0
  9
$DIMCLRE
 70
     0
  9
$DIMCLRT
 70
     0
  9
$DIMTFAC
 40
1.0
  9
$DIMGAP
 40
0.625
  9
$DIMJUST
 70
     0
  9
$DIMSD1
 70
     0
  9
$DIMSD2
 70
     0
  9
$DIMTOLJ
 70
     0
  9
$DIMTZIN
 70
     8
  9
$DIMALTZ
 70
     0
  9
$DIMALTTZ
 70
     0
  9
$DIMUPT
 70
     0
  9
$DIMDEC
 70
     2
  9
$DIMTDEC
 70
     2
  9
$DIMALTU
 70
     2
  9
$DIMALTTD
 70
     3
  9
$DIMTXSTY
  7
Standard
  9
$DIMAUNIT
 70
     0
  9
$DIMADEC
 70
     0
  9
$DIMALTRND
 40
0.0
  9
$DIMAZIN
 70
     0
  9
$DIMDSEP
 70
    44
  9
$DIMATFIT
 70
     3
  9
$DIMFRAC
 70
     0
  9
$DIMLDRBLK
  1

  9
$DIMLUNIT
 70
     2
  9
$DIMLWD
 70
    -2
  9
$DIMLWE
 70
    -2
  9
$DIMTMOVE
 70
     0
  9
$DIMFXL
 40
1.0
  9
$DIMFXLON
 70
     0
  9
$DIMJOGANG
 40
0.7853981633974483
  9
$DIMTFILL
 70
     0
  9
$DIMTFILLCLR
 70
     0
  9
$DIMARCSYM
 70
     0
  9
$DIMLTYPE
  6

  9
$DIMLTEX1
  6

  9
$DIMLTEX2
  6

  9
$DIMTXTDIRECTION
 70
     0
  9
$LUNITS
 70
     2
  9
$LUPREC
 70
     4
  9
$SKETCHINC
 40
1.0
  9
$FILLETRAD
 40
10.0
  9
$AUNITS
 70
     0
  9
$AUPREC
 70
     0
  9
$MENU
  1
.
  9
$ELEVATION
 40
0.0
  9
$PELEVATION
 40
0.0
  9
$THICKNESS
 40
0.0
  9
$LIMCHECK
 70
     0
  9
$CHAMFERA
 40
10.0
  9
$CHAMFERB
 40
10.0
  9
$CHAMFERC
 40
20.0
  9
$CHAMFERD
 40
0.0
  9
$SKPOLY
 70
     0
  9
$TDCREATE
 40
2457877.720808808
  9
$TDUCREATE
 40
2457877.595808808
  9
$TDUPDATE
 40
2457878.369163136
  9
$TDUUPDATE
 40
2457878.244163136
  9
$TDINDWG
 40
0.0016493403
  9
$TDUSRTIMER
 40
2457878.222046319
  9
$USRTIMER
 70
     1
  9
$ANGBASE
 50
0.0
  9
$ANGDIR
 70
     0
  9
$PDMODE
 70
     0
  9
$PDSIZE
 40
0.0
  9
$PLINEWID
 40
0.0
  9
$SPLFRAME
 70
     0
  9
$SPLINETYPE
 70
     6
  9
$SPLINESEGS
 70
     8
  9
$HANDSEED
  5
3FC
  9
$SURFTAB1
 70
     6
  9
$SURFTAB2
 70
     6
  9
$SURFTYPE
 70
     6
  9
$SURFU
 70
     6
  9
$SURFV
 70
     6
  9
$UCSBASE
  2

  9
$UCSNAME
  2

  9
$UCSORG
 10
0.0
 20
0.0
 30
0.0
  9
$UCSXDIR
 10
1.0
 20
0.0
 30
0.0
  9
$UCSYDIR
 10
0.0
 20
1.0
 30
0.0
  9
$UCSORTHOREF
  2

  9
$UCSORTHOVIEW
 70
     1
  9
$UCSORGTOP
 10
0.0
 20
0.0
 30
0.0
  9
$UCSORGBOTTOM
 10
0.0
 20
0.0
 30
0.0
  9
$UCSORGLEFT
 10
0.0
 20
0.0
 30
0.0
  9
$UCSORGRIGHT
 10
0.0
 20
0.0
 30
0.0
  9
$UCSORGFRONT
 10
0.0
 20
0.0
 30
0.0
  9
$UCSORGBACK
 10
0.0
 20
0.0
 30
0.0
  9
$PUCSBASE
  2

  9
$PUCSNAME
  2

  9
$PUCSORG
 10
0.0
 20
0.0
 30
0.0
  9
$PUCSXDIR
 10
1.0
 20
0.0
 30
0.0
  9
$PUCSYDIR
 10
0.0
 20
1.0
 30
0.0
  9
$PUCSORTHOREF
  2

  9
$PUCSORTHOVIEW
 70
     0
  9
$PUCSORGTOP
 10
0.0
 20
0.0
 30
0.0
  9
$PUCSORGBOTTOM
 10
0.0
 20
0.0
 30
0.0
  9
$PUCSORGLEFT
 10
0.0
 20
0.0
 30
0.0
  9
$PUCSORGRIGHT
 10
0.0
 20
0.0
 30
0.0
  9
$PUCSORGFRONT
 10
0.0
 20
0.0
 30
0.0
  9
$PUCSORGBACK
 10
0.0
 20
0.0
 30
0.0
  9
$USERI1
 70
     0
  9
$USERI2
 70
     0
  9
$USERI3
 70
     0
  9
$USERI4
 70
     0
  9
$USERI5
 70
     0
  9
$USERR1
 40
0.0
  9
$USERR2
 40
0.0
  9
$USERR3
 40
0.0
  9
$USERR4
 40
0.0
  9
$USERR5
 40
0.0
  9
$WORLDVIEW
 70
     1
  9
$SHADEDGE
 70
     3
  9
$SHADEDIF
 70
    70
  9
$TILEMODE
 70
     1
  9
$MAXACTVP
 70
    64
  9
$PINSBASE
 10
0.0
 20
0.0
 30
0.0
  9
$PLIMCHECK
 70
     0
  9
$PEXTMIN
 10
1.000000000000000E+20
 20
1.000000000000000E+20
 30
1.000000000000000E+20
  9
$PEXTMAX
 10
-1.000000000000000E+20
 20
-1.000000000000000E+20
 30
-1.000000000000000E+20
  9
$PLIMMIN
 10
0.0
 20
0.0
  9
$PLIMMAX
 10
0.0
 20
0.0
  9
$UNITMODE
 70
     0
  9
$VISRETAIN
 70
     1
  9
$PLINEGEN
 70
     0
  9
$PSLTSCALE
 70
     1
  9
$TREEDEPTH
 70
  3020
  9
$CMLSTYLE
  2
Standard
  9
$CMLJUST
 70
     0
  9
$CMLSCALE
 40
20.0
  9
$PROXYGRAPHICS
 70
     1
  9
$MEASUREMENT
 70
     1
  9
$CELWEIGHT
370
    -1
  9
$ENDCAPS
280
     0
  9
$JOINSTYLE
280
     0
  9
$LWDISPLAY
290
     0
  9
$INSUNITS
 70
     4
  9
$HYPERLINKBASE
  1

  9
$STYLESHEET
  1

  9
$XEDIT
290
     1
  9
$CEPSNTYPE
380
     0
  9
$PSTYLEMODE
290
     1
  9
$FINGERPRINTGUID
  2
{BAE00637-9E91-4033-B054-1A4B35A8BC87}
  9
$VERSIONGUID
  2
{FAEB1C32-E019-11D5-929B-00C0DF256EC4}
  9
$EXTNAMES
290
     1
  9
$PSVPSCALE
 40
0.0
  9
$OLESTARTUP
290
     0
  9
$SORTENTS
280
   127
  9
$INDEXCTL
280
     0
  9
$HIDETEXT
280
     1
  9
$XCLIPFRAME
280
     0
  9
$HALOGAP
280
     0
  9
$OBSCOLOR
 70
   257
  9
$OBSLTYPE
280
     0
  9
$INTERSECTIONDISPLAY
280
     0
  9
$INTERSECTIONCOLOR
 70
   257
  9
$DIMASSOC
280
     2
  9
$PROJECTNAME
  1

  9
$CAMERADISPLAY
290
     0
  9
$LENSLENGTH
 40
50.0
  9
$CAMERAHEIGHT
 40
0.0
  9
$STEPSPERSEC
 40
2.0
  9
$STEPSIZE
 40
6.0
  9
$3DDWFPREC
 40
2.0
  9
$PSOLWIDTH
 40
5.0
  9
$PSOLHEIGHT
 40
80.0
  9
$LOFTANG1
 40
1.570796326794897
  9
$LOFTANG2
 40
1.570796326794897
  9
$LOFTMAG1
 40
0.0
  9
$LOFTMAG2
 40
0.0
  9
$LOFTPARAM
 70
     7
  9
$LOFTNORMALS
280
     1
  9
$LATITUDE
 40
37.795
  9
$LONGITUDE
 40
-122.394
  9
$NORTHDIRECTION
 40
0.0
  9
$TIMEZONE
 70
 -8000
  9
$LIGHTGLYPHDISPLAY
280
     1
  9
$TILEMODELIGHTSYNCH
280
     1
  9
$SOLIDHIST
280
     1
  9
$SHOWHIST
280
     1
  9
$DWFFRAME
280
     2
  9
$DGNFRAME
280
     2
  9
$REALWORLDSCALE
290
     1
  9
$INTERFERECOLOR
 62
   256
  9
$CSHADOW
280
     0
  9
$SHADOWPLANELOCATION
 40
0.0
  0
ENDSEC
  0
SECTION
  2
CLASSES
  0
CLASS
  1
ACDBDICTIONARYWDFLT
  2
AcDbDictionaryWithDefault
  3
ObjectDBX Classes
 90
        0
 91
        4
280
     0
281
     0
  0
CLASS
  1
VISUALSTYLE
  2
AcDbVisualStyle
  3
ObjectDBX Classes
 90
     4095
 91
        4
280
     0
281
     0
  0
CLASS
  1
MATERIAL
  2
AcDbMaterial
  3
ObjectDBX Classes
 90
     1153
 91
        4
280
     0
281
     0
  0
CLASS
  1
SCALE
  2
AcDbScale
  3
ObjectDBX Classes
 90
     1153
 91
        4
280
     0
281
     0
  0
CLASS
  1
TABLESTYLE
  2
AcDbTableStyle
  3
ObjectDBX Classes
 90
     4095
 91
        4
280
     0
281
     0
  0
CLASS
  1
MLEADERSTYLE
  2
AcDbMLeaderStyle
  3
ACDB_MLEADERSTYLE_CLASS
 90
     4095
 91
        4
280
     0
281
     0
  0
CLASS
  1
SUN
  2
AcDbSun
  3
SCENEOE
 90
     1153
 91
        4
280
     0
281
     0
  0
CLASS
  1
RASTERVARIABLES
  2
AcDbRasterVariables
  3
ISM
 90
        0
 91
        4
280
     0
281
     0
  0
CLASS
  1
DICTIONARYVAR
  2
AcDbDictionaryVar
  3
ObjectDBX Classes
 90
        0
 91
        4
280
     0
281
     0
  0
CLASS
  1
CELLSTYLEMAP
  2
AcDbCellStyleMap
  3
ObjectDBX Classes
 90
     1152
 91
        4
280
     0
281
     0
  0
ENDSEC
  0
SECTION
  2
TABLES
  0
TABLE
  2
VPORT
  5
8
330
0
100
AcDbSymbolTable
 70
     1
  0
VPORT
  5
29
330
8
100
AcDbSymbolTableRecord
100
AcDbViewportTableRecord
  2
*Active
 70
     0
 10
0.0
 20
0.0
 11
1.0
 21
1.0
 12
2930146.976188074
 22
-1824391.687017101
 13
0.0
 23
0.0
 14
10.0
 24
10.0
 15
10.0
 25
10.0
 16
0.0
 26
0.0
 36
1.0
 17
-2178412.846112616
 27
5999770.203641498
 37
-2466114.125583031
 40
18.46079679437282
 41
1.82311320754717
 42
50.0
 43
0.0
 44
0.0
 50
0.0
 51
0.0
 71
    16
 72
   100
 73
     1
 74
     3
 75
     0
 76
     0
 77
     0
 78
     0
281
     0
 65
     1
110
0.0
120
0.0
130
0.0
111
1.0
121
0.0
131
0.0
112
0.0
122
1.0
132
0.0
 79
     1
146
0.0
348
2F
 60
     3
 61
     5
292
     1
282
     1
141
0.0
142
0.0
 63
   250
361
2BB
  0
ENDTAB
  0
TABLE
  2
LTYPE
  5
5
330
0
100
AcDbSymbolTable
 70
     1
  0
LTYPE
  5
14
330
5
100
AcDbSymbolTableRecord
100
AcDbLinetypeTableRecord
  2
ByBlock
 70
     0
  3

 72
    65
 73
     0
 40
0.0
  0
LTYPE
  5
15
330
5
100
AcDbSymbolTableRecord
100
AcDbLinetypeTableRecord
  2
ByLayer
 70
     0
  3

 72
    65
 73
     0
 40
0.0
  0
LTYPE
  5
16
330
5
100
AcDbSymbolTableRecord
100
AcDbLinetypeTableRecord
  2
Continuous
 70
     0
  3
Solid line
 72
    65
 73
     0
 40
0.0
  0
ENDTAB
  0
TABLE
  2
LAYER
  5
2
102
{ACAD_XDICTIONARY
360
2BD
102
}
330
0
100
AcDbSymbolTable
 70
     4
  0
LAYER
  5
10
330
2
100
AcDbSymbolTableRecord
100
AcDbLayerTableRecord
  2
0
 70
     0
 62
     7
  6
Continuous
370
     0
390
F
347
3E
  0
LAYER
  5
3F
330
2
100
AcDbSymbolTableRecord
100
AcDbLayerTableRecord
  2
720
 70
     4
 62
     5
  6
Continuous
370
    13
390
F
347
3E
  0
LAYER
  5
38B
330
2
100
AcDbSymbolTableRecord
100
AcDbLayerTableRecord
  2
GEOFENCE
 70
     0
 62
     3
  6
Continuous
370
     0
390
F
347
3E
1001
AcAecLayerStandard
1000

1000

  0
LAYER
  5
38D
330
2
100
AcDbSymbolTableRecord
100
AcDbLayerTableRecord
  2
INIT_COORD
 70
     0
 62
     5
  6
Continuous
370
     0
390
F
347
3E
1001
AcAecLayerStandard
1000

1000

  0
ENDTAB
  0
TABLE
  2
STYLE
  5
3
330
0
100
AcDbSymbolTable
 70
     3
  0
STYLE
  5
11
330
3
100
AcDbSymbolTableRecord
100
AcDbTextStyleTableRecord
  2
Standard
 70
     0
 40
0.0
 41
1.0
 50
0.0
 71
     0
 42
2.5
  3
C:\Windows\Font\TIMES.TTF
  4

  0
STYLE
  5
40
330
3
100
AcDbSymbolTableRecord
100
AcDbTextStyleTableRecord
  2
STYLE0
 70
     0
 40
0.0
 41
1.0
 50
0.0
 71
     0
 42
0.2
  3
TXT.SHX
  4

1001
ACAD
1000
TXT.SHX
1071
      256
  0
STYLE
  5
41
330
3
100
AcDbSymbolTableRecord
100
AcDbTextStyleTableRecord
  2
STYLE0P
 70
     0
 40
0.2
 41
1.0
 50
0.0
 71
     0
 42
0.2
  3
TXT.SHX
  4

1001
ACAD
1000
TXT.SHX
1071
 16777472
  0
ENDTAB
  0
TABLE
  2
VIEW
  5
6
330
0
100
AcDbSymbolTable
 70
     0
  0
ENDTAB
  0
TABLE
  2
UCS
  5
7
330
0
100
AcDbSymbolTable
 70
     0
  0
ENDTAB
  0
TABLE
  2
APPID
  5
9
330
0
100
AcDbSymbolTable
 70
     2
  0
APPID
  5
12
330
9
100
AcDbSymbolTableRecord
100
AcDbRegAppTableRecord
  2
ACAD
 70
     0
  0
APPID
  5
38C
330
9
100
AcDbSymbolTableRecord
100
AcDbRegAppTableRecord
  2
AcAecLayerStandard
 70
     0
  0
ENDTAB
  0
TABLE
  2
DIMSTYLE
  5
A
330
0
100
AcDbSymbolTable
 70
     1
100
AcDbDimStyleTable
  0
DIMSTYLE
105
27
330
A
100
AcDbSymbolTableRecord
100
AcDbDimStyleTableRecord
  2
ISO-25
 70
     0
 41
2.5
 42
0.625
 43
3.75
 44
1.25
 73
     0
 74
     0
 77
     1
 78
     8
140
2.5
141
2.5
143
0.03937007874016
147
0.625
171
     3
172
     1
178
     0
271
     2
272
     2
274
     3
278
    44
283
     0
284
     8
340
11
  0
ENDTAB
  0
TABLE
  2
BLOCK_RECORD
  5
1
330
0
100
AcDbSymbolTable
 70
     1
  0
BLOCK_RECORD
  5
1F
330
1
100
AcDbSymbolTableRecord
100
AcDbBlockTableRecord
  2
*Model_Space
340
22
 70
     0
280
     1
281
     0
  0
BLOCK_RECORD
  5
1B
330
1
100
AcDbSymbolTableRecord
100
AcDbBlockTableRecord
  2
*Paper_Space
340
1E
 70
     0
280
     1
281
     0
  0
BLOCK_RECORD
  5
23
330
1
100
AcDbSymbolTableRecord
100
AcDbBlockTableRecord
  2
*Paper_Space0
340
26
 70
     0
280
     1
281
     0
  0
ENDTAB
  0
ENDSEC
  0
SECTION
  2
BLOCKS
  0
BLOCK
  5
20
330
1F
100
AcDbEntity
  8
0
100
AcDbBlockBegin
  2
*Model_Space
 70
     0
 10
0.0
 20
0.0
 30
0.0
  3
*Model_Space
  1

  0
ENDBLK
  5
21
330
1F
100
AcDbEntity
  8
0
100
AcDbBlockEnd
  0
BLOCK
  5
1C
330
1B
100
AcDbEntity
 67
     1
  8
0
100
AcDbBlockBegin
  2
*Paper_Space
 70
     0
 10
0.0
 20
0.0
 30
0.0
  3
*Paper_Space
  1

  0
ENDBLK
  5
1D
330
1B
100
AcDbEntity
 67
     1
  8
0
100
AcDbBlockEnd
  0
BLOCK
  5
24
330
23
100
AcDbEntity
  8
0
100
AcDbBlockBegin
  2
*Paper_Space0
 70
     0
 10
0.0
 20
0.0
 30
0.0
  3
*Paper_Space0
  1

  0
ENDBLK
  5
25
330
23
100
AcDbEntity
  8
0
100
AcDbBlockEnd
  0
ENDSEC
  0
SECTION
  2
ENTITIES
  0
LINE
  5
42
330
1F
100
AcDbEntity
  8
720
370
     0
100
AcDbLine
 10
751831.43
 20
4175494.846
 30
730.9010009765625
 11
751833.692
 21
4175493.108
 31
731.698974609375
  0
LINE
  5
43
330
1F
100
AcDbEntity
  8
720
370
     0
100
AcDbLine
 10
751833.692
 20
4175493.108
 30
731.698974609375
 11
751836.426
 21
4175490.733
 31
732.864990234375
  0
LINE
  5
44
330
1F
100
AcDbEntity
  8
720
370
     0
100
AcDbLine
 10
751839.298
 20
4175488.71
 30
733.2050170898438
 11
751841.466
 21
4175487.535
 31
733.343017578125
  0
LINE
  5
45
330
1F
100
AcDbEntity
  8
720
370
     0
100
AcDbLine
 10
751841.466
 20
4175487.535
 30
733.343017578125
 11
751843.574
 21
4175486.261
 31
733.6890258789062
  0
LINE
  5
46
330
1F
100
AcDbEntity
  8
720
370
     0
100
AcDbLine
 10
751843.574
 20
4175486.261
 30
733.6890258789062
 11
751847.044
 21
4175484.9
 31
733.85400390625
  0
LINE
  5
47
330
1F
100
AcDbEntity
  8
720
370
     0
100
AcDbLine
 10
751847.044
 20
4175484.9
 30
733.85400390625
 11
751851.565
 21
4175482.278
 31
733.801025390625
  0
LINE
  5
48
330
1F
100
AcDbEntity
  8
720
370
     0
100
AcDbLine
 10
751851.565
 20
4175482.278
 30
733.801025390625
 11
751853.401
 21
4175481.195
 31
734.4240112304688
  0
LINE
  5
49
330
1F
100
AcDbEntity
  8
720
370
     0
100
AcDbLine
 10
751849.695
 20
4175486.601
 30
734.052001953125
 11
751848.095
 21
4175487.603
 31
734.2420043945312
  0
LINE
  5
4A
330
1F
100
AcDbEntity
  8
720
370
     0
100
AcDbLine
 10
751848.095
 20
4175487.603
 30
734.2420043945312
 11
751845.708
 21
4175488.466
 31
733.68701171875
  0
LINE
  5
4B
330
1F
100
AcDbEntity
  8
720
370
     0
100
AcDbLine
 10
751845.708
 20
4175488.466
 30
733.68701171875
 11
751843.213
 21
4175490.22
 31
733.041015625
  0
LINE
  5
4C
330
1F
100
AcDbEntity
  8
720
370
     0
100
AcDbLine
 10
751838.441
 20
4175492.668
 30
732.81201171875
 11
751835.872
 21
4175494.943
 31
731.822998046875
  0
LINE
  5
4D
330
1F
100
AcDbEntity
  8
720
370
     0
100
AcDbLine
 10
751835.872
 20
4175494.943
 30
731.822998046875
 11
751834.071
 21
4175496.383
 31
731.3040161132812
  0
LINE
  5
4E
330
1F
100
AcDbEntity
  8
720
370
     0
100
AcDbLine
 10
751763.992
 20
4175398.036
 30
719.31201171875
 11
751764.6279999999
 21
4175397.3
 31
719.3870239257812
  0
LINE
  5
4F
330
1F
100
AcDbEntity
  8
720
370
     0
100
AcDbLine
 10
751768.7239999999
 20
4175392.443
 30
719.4979858398438
 11
751769.9979999999
 21
4175391.431
 31
719.2169799804688
  0
LINE
  5
50
330
1F
100
AcDbEntity
  8
720
370
     0
100
AcDbLine
 10
751769.9979999999
 20
4175391.431
 30
719.2169799804688
 11
751771.156208544
 21
4175390.286081806
 31
719.343017578125
  0
LINE
  5
51
330
1F
100
AcDbEntity
  8
720
370
     0
100
AcDbLine
 10
751771.156208544
 20
4175390.286081806
 30
719.343017578125
 11
751772.3049999999
 21
4175390.944
 31
719.2310180664062
  0
LINE
  5
52
330
1F
100
AcDbEntity
  8
720
370
     0
100
AcDbLine
 10
751772.3049999999
 20
4175390.944
 30
719.2310180664062
 11
751773.2459999999
 21
4175390.563
 31
719.2239990234375
  0
LINE
  5
53
330
1F
100
AcDbEntity
  8
720
370
     0
100
AcDbLine
 10
751773.2459999999
 20
4175390.563
 30
719.2239990234375
 11
751774.164
 21
4175389.409
 31
718.9169921875
  0
LINE
  5
54
330
1F
100
AcDbEntity
  8
720
370
     0
100
AcDbLine
 10
751774.164
 20
4175389.409
 30
718.9169921875
 11
751775.150406366
 21
4175385.210762052
 31
717.9749755859375
  0
LINE
  5
55
330
1F
100
AcDbEntity
  8
720
370
     0
100
AcDbLine
 10
751775.150406366
 20
4175385.210762052
 30
717.9749755859375
 11
751775.7972153896
 21
4175385.267833436
 31
717.9749755859375
  0
LINE
  5
56
330
1F
100
AcDbEntity
  8
720
370
     0
100
AcDbLine
 10
751775.7972153896
 20
4175385.267833436
 30
717.9749755859375
 11
751775.9588117333
 21
4175380.974503535
 31
715.8270263671875
  0
LINE
  5
57
330
1F
100
AcDbEntity
  8
720
370
     0
100
AcDbLine
 10
751776.294
 20
4175380.0
 30
715.2150268554688
 11
751777.343
 21
4175380.748
 31
715.8270263671875
  0
LINE
  5
58
330
1F
100
AcDbEntity
  8
720
370
     0
100
AcDbLine
 10
751777.343
 20
4175380.748
 30
715.8270263671875
 11
751776.9589999999
 21
4175383.406
 31
717.2730102539062
  0
LINE
  5
59
330
1F
100
AcDbEntity
  8
720
370
     0
100
AcDbLine
 10
751776.9589999999
 20
4175383.406
 30
717.2730102539062
 11
751777.1309999999
 21
4175385.224
 31
718.6640014648438
  0
LINE
  5
5A
330
1F
100
AcDbEntity
  8
720
370
     0
100
AcDbLine
 10
751777.1309999999
 20
4175385.224
 30
718.6640014648438
 11
751777.2239999999
 21
4175385.401
 31
717.9749755859375
  0
LINE
  5
5B
330
1F
100
AcDbEntity
  8
720
370
     0
100
AcDbLine
 10
751777.2239999999
 20
4175385.401
 30
717.9749755859375
 11
751776.9049999999
 21
4175388.153
 31
718.5910034179688
  0
LINE
  5
5C
330
1F
100
AcDbEntity
  8
720
370
     0
100
AcDbLine
 10
751776.9049999999
 20
4175388.153
 30
718.5910034179688
 11
751777.0669999999
 21
4175390.014
 31
718.9739990234375
  0
LINE
  5
5D
330
1F
100
AcDbEntity
  8
720
370
     0
100
AcDbLine
 10
751777.0669999999
 20
4175390.014
 30
718.9739990234375
 11
751776.6159999999
 21
4175391.267
 31
719.2969970703125
  0
LINE
  5
5E
330
1F
100
AcDbEntity
  8
720
370
     0
100
AcDbLine
 10
751776.6159999999
 20
4175391.267
 30
719.2969970703125
 11
751775.7089999999
 21
4175391.557
 31
719.0469970703125
  0
LINE
  5
5F
330
1F
100
AcDbEntity
  8
720
370
     0
100
AcDbLine
 10
751775.7089999999
 20
4175391.557
 30
719.0469970703125
 11
751774.705
 21
4175392.485
 31
719.2760009765625
  0
LINE
  5
60
330
1F
100
AcDbEntity
  8
720
370
     0
100
AcDbLine
 10
751774.705
 20
4175392.485
 30
719.2760009765625
 11
751774.766
 21
4175394.313
 31
719.2969970703125
  0
LINE
  5
61
330
1F
100
AcDbEntity
  8
720
370
     0
100
AcDbLine
 10
751773.0299999999
 20
4175406.437
 30
719.541015625
 11
751772.3439999999
 21
4175408.421
 31
719.6199951171875
  0
LINE
  5
62
330
1F
100
AcDbEntity
  8
720
370
     0
100
AcDbLine
 10
751750.841552246
 20
4175401.058620817
 30
719.927001953125
 11
751750.8553838407
 21
4175403.941954938
 31
722.9730224609375
  0
LINE
  5
63
330
1F
100
AcDbEntity
  8
720
370
     0
100
AcDbLine
 10
751750.8553838407
 20
4175403.941954938
 30
722.9730224609375
 11
751752.7879437734
 21
4175406.478037659
 31
724.0759887695312
  0
LINE
  5
64
330
1F
100
AcDbEntity
  8
720
370
     0
100
AcDbLine
 10
751752.7879437734
 20
4175406.478037659
 30
724.0759887695312
 11
751753.2371425419
 21
4175409.071634487
 31
725.7360229492188
  0
LINE
  5
65
330
1F
100
AcDbEntity
  8
720
370
     0
100
AcDbLine
 10
751742.2213128478
 20
4175408.812587479
 30
725.9669799804688
 11
751741.7147496665
 21
4175407.215138073
 31
725.2780151367188
  0
LINE
  5
66
330
1F
100
AcDbEntity
  8
720
370
     0
100
AcDbLine
 10
751745.041
 20
4175404.294
 30
723.343017578125
 11
751744.8259999999
 21
4175403.646
 31
723.1690063476562
  0
LINE
  5
67
330
1F
100
AcDbEntity
  8
720
370
     0
100
AcDbLine
 10
751744.8259999999
 20
4175403.646
 30
723.1690063476562
 11
751744.166
 21
4175401.945
 31
723.7440185546875
  0
LINE
  5
68
330
1F
100
AcDbEntity
  8
720
370
     0
100
AcDbLine
 10
751744.166
 20
4175401.945
 30
723.7440185546875
 11
751745.1197674599
 21
4175401.662069254
 31
723.3690185546875
  0
LINE
  5
69
330
1F
100
AcDbEntity
  8
720
370
     0
100
AcDbLine
 10
751745.1197674599
 20
4175401.662069254
 30
723.3690185546875
 11
751748.0758647197
 21
4175401.071904588
 31
721.8989868164062
  0
LINE
  5
6A
330
1F
100
AcDbEntity
  8
720
370
     0
100
AcDbLine
 10
751748.0758647197
 20
4175401.071904588
 30
721.8989868164062
 11
751749.4343444888
 21
4175400.597241225
 31
719.927001953125
  0
LINE
  5
6B
330
1F
100
AcDbEntity
  8
720
370
     0
100
AcDbLine
 10
751749.4343444888
 20
4175400.597241225
 30
719.927001953125
 11
751750.232
 21
4175394.685
 31
719.4110107421875
  0
LINE
  5
6C
330
1F
100
AcDbEntity
  8
720
370
     0
100
AcDbLine
 10
751753.2371425419
 20
4175409.071634487
 30
725.7360229492188
 11
751753.114
 21
4175413.379
 31
728.4940185546875
  0
LINE
  5
6D
330
1F
100
AcDbEntity
  8
720
370
     0
100
AcDbLine
 10
751753.114
 20
4175413.379
 30
728.4940185546875
 11
751752.4741699153
 21
4175418.383540214
 31
730.7249755859375
  0
LINE
  5
6E
330
1F
100
AcDbEntity
  8
720
370
     0
100
AcDbLine
 10
751752.4741699153
 20
4175418.383540214
 30
730.7249755859375
 11
751752.315
 21
4175420.525
 31
731.1909790039062
  0
LINE
  5
6F
330
1F
100
AcDbEntity
  8
720
370
     0
100
AcDbLine
 10
751752.315
 20
4175420.525
 30
731.1909790039062
 11
751751.686
 21
4175419.95
 31
730.68798828125
  0
LINE
  5
70
330
1F
100
AcDbEntity
  8
720
370
     0
100
AcDbLine
 10
751751.686
 20
4175419.95
 30
730.68798828125
 11
751750.769
 21
4175414.7
 31
728.7780151367188
  0
LINE
  5
71
330
1F
100
AcDbEntity
  8
720
370
     0
100
AcDbLine
 10
751750.769
 20
4175414.7
 30
728.7780151367188
 11
751748.1569999999
 21
4175413.976
 31
728.9219970703125
  0
LINE
  5
72
330
1F
100
AcDbEntity
  8
720
370
     0
100
AcDbLine
 10
751748.1569999999
 20
4175413.976
 30
728.9219970703125
 11
751747.24
 21
4175414.811
 31
729.989013671875
  0
LINE
  5
73
330
1F
100
AcDbEntity
  8
720
370
     0
100
AcDbLine
 10
751747.24
 20
4175414.811
 30
729.989013671875
 11
751745.578
 21
4175412.584
 31
728.8870239257812
  0
LINE
  5
74
330
1F
100
AcDbEntity
  8
720
370
     0
100
AcDbLine
 10
751745.578
 20
4175412.584
 30
728.8870239257812
 11
751743.6229999999
 21
4175409.382
 31
726.426025390625
  0
LINE
  5
75
330
1F
100
AcDbEntity
  8
720
370
     0
100
AcDbLine
 10
751743.6229999999
 20
4175409.382
 30
726.426025390625
 11
751742.2213128478
 21
4175408.812587479
 31
725.9669799804688
  0
LINE
  5
76
330
1F
100
AcDbEntity
  8
720
370
     0
100
AcDbLine
 10
751741.7147496665
 20
4175407.215138073
 30
725.2780151367188
 11
751745.041
 21
4175404.294
 31
723.343017578125
  0
LINE
  5
77
330
1F
100
AcDbEntity
  8
720
370
     0
100
AcDbLine
 10
751749.45
 20
4175384.763
 30
719.2750244140625
 11
751752.795
 21
4175390.362
 31
719.1270141601562
  0
LINE
  5
78
330
1F
100
AcDbEntity
  8
720
370
     0
100
AcDbLine
 10
751752.795
 20
4175390.362
 30
719.1270141601562
 11
751754.072
 21
4175393.528
 31
719.0560302734375
  0
LINE
  5
79
330
1F
100
AcDbEntity
  8
720
370
     0
100
AcDbLine
 10
751754.072
 20
4175393.528
 30
719.0560302734375
 11
751755.322
 21
4175395.08
 31
719.0789794921875
  0
LINE
  5
7A
330
1F
100
AcDbEntity
  8
720
370
     0
100
AcDbLine
 10
751755.322
 20
4175395.08
 30
719.0789794921875
 11
751757.866
 21
4175397.293
 31
719.072021484375
  0
LINE
  5
7B
330
1F
100
AcDbEntity
  8
720
370
     0
100
AcDbLine
 10
751757.866
 20
4175397.293
 30
719.072021484375
 11
751760.577
 21
4175398.023
 31
719.0859985351562
  0
LINE
  5
7C
330
1F
100
AcDbEntity
  8
720
370
     0
100
AcDbLine
 10
751760.577
 20
4175398.023
 30
719.0859985351562
 11
751763.959
 21
4175398.104
 31
719.2940063476562
  0
LINE
  5
7D
330
1F
100
AcDbEntity
  8
720
370
     0
100
AcDbLine
 10
751763.959
 20
4175398.104
 30
719.2940063476562
 11
751766.901
 21
4175394.286
 31
719.364013671875
  0
LINE
  5
7E
330
1F
100
AcDbEntity
  8
720
370
     0
100
AcDbLine
 10
751766.901
 20
4175394.286
 30
719.364013671875
 11
751768.718
 21
4175392.269
 31
719.2769775390625
  0
LINE
  5
7F
330
1F
100
AcDbEntity
  8
720
370
     0
100
AcDbLine
 10
751767.917
 20
4175398.404
 30
719.2490234375
 11
751772.292
 21
4175400.314
 31
719.260009765625
  0
LINE
  5
80
330
1F
100
AcDbEntity
  8
720
370
     0
100
AcDbLine
 10
751772.647
 20
4175403.091
 30
719.3839721679688
 11
751772.755
 21
4175404.909
 31
719.3829956054688
  0
LINE
  5
81
330
1F
100
AcDbEntity
  8
720
370
     0
100
AcDbLine
 10
751768.842
 20
4175410.417
 30
719.4249877929688
 11
751769.765
 21
4175406.796
 31
719.2890014648438
  0
LINE
  5
82
330
1F
100
AcDbEntity
  8
720
370
     0
100
AcDbLine
 10
751769.765
 20
4175406.796
 30
719.2890014648438
 11
751769.292
 21
4175404.38
 31
719.1690063476562
  0
LINE
  5
83
330
1F
100
AcDbEntity
  8
720
370
     0
100
AcDbLine
 10
751769.292
 20
4175404.38
 30
719.1690063476562
 11
751768.291
 21
4175403.011
 31
719.1199951171875
  0
LINE
  5
84
330
1F
100
AcDbEntity
  8
720
370
     0
100
AcDbLine
 10
751768.291
 20
4175403.011
 30
719.1199951171875
 11
751765.049
 21
4175401.766
 31
719.0579833984375
  0
LINE
  5
85
330
1F
100
AcDbEntity
  8
720
370
     0
100
AcDbLine
 10
751765.049
 20
4175401.766
 30
719.0579833984375
 11
751762.692
 21
4175401.448
 31
719.1719970703125
  0
LINE
  5
86
330
1F
100
AcDbEntity
  8
720
370
     0
100
AcDbLine
 10
751754.849
 20
4175399.082
 30
719.1489868164062
 11
751753.852
 21
4175397.867
 31
719.0490112304688
  0
LINE
  5
87
330
1F
100
AcDbEntity
  8
720
370
     0
100
AcDbLine
 10
751753.852
 20
4175397.867
 30
719.0490112304688
 11
751752.199
 21
4175396.133
 31
719.2109985351562
  0
LINE
  5
88
330
1F
100
AcDbEntity
  8
720
370
     0
100
AcDbLine
 10
751750.33
 20
4175393.544
 30
719.1279907226562
 11
751749.971
 21
4175391.467
 31
719.1680297851562
  0
LINE
  5
89
330
1F
100
AcDbEntity
  8
720
370
     0
100
AcDbLine
 10
751749.971
 20
4175391.467
 30
719.1680297851562
 11
751748.743
 21
4175388.831
 31
719.2169799804688
  0
LINE
  5
8A
330
1F
100
AcDbEntity
  8
720
370
     0
100
AcDbLine
 10
751748.743
 20
4175388.831
 30
719.2169799804688
 11
751746.851
 21
4175386.57
 31
719.3410034179688
  0
LINE
  5
8B
330
1F
100
AcDbEntity
  8
720
370
     0
100
AcDbLine
 10
751746.851
 20
4175386.57
 30
719.3410034179688
 11
751744.575
 21
4175383.052
 31
719.4199829101562
  0
LINE
  5
8C
330
1F
100
AcDbEntity
  8
720
370
     0
100
AcDbLine
 10
751744.575
 20
4175383.052
 30
719.4199829101562
 11
751741.173
 21
4175379.04
 31
719.4580078125
  0
LINE
  5
8D
330
1F
100
AcDbEntity
  8
720
370
     0
100
AcDbLine
 10
751772.755
 20
4175404.909
 30
719.3829956054688
 11
751773.0299999999
 21
4175406.437
 31
719.541015625
  0
LINE
  5
8E
330
1F
100
AcDbEntity
  8
720
370
     0
100
AcDbLine
 10
751768.531
 20
4175396.536
 30
719.3309936523438
 11
751767.917
 21
4175398.404
 31
719.2490234375
  0
LINE
  5
8F
330
1F
100
AcDbEntity
  8
720
370
     0
100
AcDbLine
 10
751752.199
 20
4175396.133
 30
719.2109985351562
 11
751750.841552246
 21
4175401.058620817
 31
719.927001953125
  0
LINE
  5
90
330
1F
100
AcDbEntity
  8
720
370
     0
100
AcDbLine
 10
751750.232
 20
4175394.685
 30
719.4110107421875
 11
751750.33
 21
4175393.544
 31
719.1279907226562
  0
LINE
  5
91
330
1F
100
AcDbEntity
  8
720
370
     0
100
AcDbLine
 10
751772.3439999999
 20
4175408.421
 30
719.6199951171875
 11
751772.245
 21
4175409.602
 31
719.5349731445312
  0
LINE
  5
92
330
1F
100
AcDbEntity
  8
720
370
     0
100
AcDbLine
 10
751772.245
 20
4175409.602
 30
719.5349731445312
 11
751771.05
 21
4175411.591
 31
719.5989990234375
  0
LINE
  5
93
330
1F
100
AcDbEntity
  8
720
370
     0
100
AcDbLine
 10
751771.05
 20
4175411.591
 30
719.5989990234375
 11
751770.323
 21
4175413.76
 31
719.77197265625
  0
LINE
  5
94
330
1F
100
AcDbEntity
  8
720
370
     0
100
AcDbLine
 10
751767.878648635
 20
4175417.022379306
 30
719.8489990234375
 11
751765.8261872211
 21
4175415.86786976
 31
719.989013671875
  0
LINE
  5
95
330
1F
100
AcDbEntity
  8
720
370
     0
100
AcDbLine
 10
751765.8261872211
 20
4175415.86786976
 30
719.989013671875
 11
751767.384
 21
4175413.058
 31
719.7630004882812
  0
LINE
  5
96
330
1F
100
AcDbEntity
  8
720
370
     0
100
AcDbLine
 10
751767.384
 20
4175413.058
 30
719.7630004882812
 11
751768.842
 21
4175410.417
 31
719.4249877929688
  0
LINE
  5
97
330
1F
100
AcDbEntity
  8
720
370
     0
100
AcDbLine
 10
751770.323
 20
4175413.76
 30
719.77197265625
 11
751771.521
 21
4175415.867
 31
719.7780151367188
  0
LINE
  5
98
330
1F
100
AcDbEntity
  8
720
370
     0
100
AcDbLine
 10
751771.521
 20
4175415.867
 30
719.7780151367188
 11
751773.467
 21
4175417.85
 31
719.843994140625
  0
LINE
  5
99
330
1F
100
AcDbEntity
  8
720
370
     0
100
AcDbLine
 10
751773.467
 20
4175417.85
 30
719.843994140625
 11
751778.097
 21
4175422.834
 31
720.2890014648438
  0
LINE
  5
9A
330
1F
100
AcDbEntity
  8
720
370
     0
100
AcDbLine
 10
751771.887
 20
4175421.309
 30
719.8989868164062
 11
751770.8
 21
4175419.207
 31
719.7459716796875
  0
LINE
  5
9B
330
1F
100
AcDbEntity
  8
720
370
     0
100
AcDbLine
 10
751770.8
 20
4175419.207
 30
719.7459716796875
 11
751768.839
 21
4175417.354
 31
719.8280029296875
  0
LINE
  5
9C
330
1F
100
AcDbEntity
  8
720
370
     0
100
AcDbLine
 10
751768.839
 20
4175417.354
 30
719.8280029296875
 11
751767.878648635
 21
4175417.022379306
 31
719.8489990234375
  0
LINE
  5
9D
330
1F
100
AcDbEntity
  8
720
370
     0
100
AcDbLine
 10
751777.973767296
 20
4175426.476770702
 30
720.4509887695312
 11
751776.121
 21
4175424.817
 31
720.4509887695312
  0
LINE
  5
9E
330
1F
100
AcDbEntity
  8
720
370
     0
100
AcDbLine
 10
751780.497
 20
4175428.326
 30
720.5
 11
751777.973767296
 21
4175426.476770702
 31
720.4509887695312
  0
LINE
  5
9F
330
1F
100
AcDbEntity
  8
720
370
     0
100
AcDbLine
 10
751776.121
 20
4175424.817
 30
720.4509887695312
 11
751771.887
 21
4175421.309
 31
719.8989868164062
  0
LINE
  5
A0
330
1F
100
AcDbEntity
  8
720
370
     0
100
AcDbLine
 10
751778.097
 20
4175422.834
 30
720.2890014648438
 11
751783.907
 21
4175426.877
 31
720.6599731445312
  0
LINE
  5
A1
330
1F
100
AcDbEntity
  8
720
370
     0
100
AcDbLine
 10
751785.119
 20
4175432.929
 30
720.5159912109375
 11
751782.895
 21
4175435.207
 31
720.4249877929688
  0
LINE
  5
A2
330
1F
100
AcDbEntity
  8
720
370
     0
100
AcDbLine
 10
751782.895
 20
4175435.207
 30
720.4249877929688
 11
751780.815
 21
4175436.953
 31
720.3419799804688
  0
LINE
  5
A3
330
1F
100
AcDbEntity
  8
720
370
     0
100
AcDbLine
 10
751780.815
 20
4175436.953
 30
720.3419799804688
 11
751780.118
 21
4175438.171
 31
720.3460083007812
  0
LINE
  5
A4
330
1F
100
AcDbEntity
  8
720
370
     0
100
AcDbLine
 10
751780.118
 20
4175438.171
 30
720.3460083007812
 11
751779.147
 21
4175441.056
 31
720.4760131835938
  0
LINE
  5
A5
330
1F
100
AcDbEntity
  8
720
370
     0
100
AcDbLine
 10
751777.532
 20
4175437.009
 30
720.2780151367188
 11
751780.012
 21
4175433.676
 31
720.4840087890625
  0
LINE
  5
A6
330
1F
100
AcDbEntity
  8
720
370
     0
100
AcDbLine
 10
751780.012
 20
4175433.676
 30
720.4840087890625
 11
751782.901
 21
4175430.697
 31
720.5830078125
  0
LINE
  5
A7
330
1F
100
AcDbEntity
  8
720
370
     0
100
AcDbLine
 10
751782.901
 20
4175430.697
 30
720.5830078125
 11
751780.497
 21
4175428.326
 31
720.5
  0
LINE
  5
A8
330
1F
100
AcDbEntity
  8
720
370
     0
100
AcDbLine
 10
751779.147
 20
4175441.056
 30
720.4760131835938
 11
751778.589
 21
4175444.103
 31
719.8380126953125
  0
LINE
  5
A9
330
1F
100
AcDbEntity
  8
720
370
     0
100
AcDbLine
 10
751780.801
 20
4175446.161
 30
720.2239990234375
 11
751783.3455485547
 21
4175447.378561931
 31
720.5089721679688
  0
LINE
  5
AA
330
1F
100
AcDbEntity
  8
720
370
     0
100
AcDbLine
 10
751782.0265491825
 20
4175450.08362844
 30
720.3610229492188
 11
751779.897
 21
4175448.817
 31
720.1480102539062
  0
LINE
  5
AB
330
1F
100
AcDbEntity
  8
720
370
     0
100
AcDbLine
 10
751779.897
 20
4175448.817
 30
720.1480102539062
 11
751777.528
 21
4175448.538
 31
720.0700073242188
  0
LINE
  5
AC
330
1F
100
AcDbEntity
  8
720
370
     0
100
AcDbLine
 10
751783.3455485547
 20
4175447.378561931
 30
720.5089721679688
 11
751784.53
 21
4175448.507
 31
720.4979858398438
  0
LINE
  5
AD
330
1F
100
AcDbEntity
  8
720
370
     0
100
AcDbLine
 10
751778.589
 20
4175444.103
 30
719.8380126953125
 11
751780.801
 21
4175446.161
 31
720.2239990234375
  0
LINE
  5
AE
330
1F
100
AcDbEntity
  8
720
370
     0
100
AcDbLine
 10
751784.53
 20
4175448.507
 30
720.4979858398438
 11
751789.144
 21
4175453.704
 31
721.31201171875
  0
LINE
  5
AF
330
1F
100
AcDbEntity
  8
720
370
     0
100
AcDbLine
 10
751789.144
 20
4175453.704
 30
721.31201171875
 11
751790.385
 21
4175455.292
 31
721.3989868164062
  0
LINE
  5
B0
330
1F
100
AcDbEntity
  8
720
370
     0
100
AcDbLine
 10
751790.385
 20
4175455.292
 30
721.3989868164062
 11
751792.293
 21
4175457.673
 31
721.718017578125
  0
LINE
  5
B1
330
1F
100
AcDbEntity
  8
720
370
     0
100
AcDbLine
 10
751792.293
 20
4175457.673
 30
721.718017578125
 11
751794.187
 21
4175459.273
 31
722.2329711914062
  0
LINE
  5
B2
330
1F
100
AcDbEntity
  8
720
370
     0
100
AcDbLine
 10
751794.187
 20
4175459.273
 30
722.2329711914062
 11
751797.579
 21
4175461.743
 31
722.7059936523438
  0
LINE
  5
B3
330
1F
100
AcDbEntity
  8
720
370
     0
100
AcDbLine
 10
751792.408
 20
4175461.528
 30
722.1790161132812
 11
751790.416
 21
4175459.835
 31
721.7949829101562
  0
LINE
  5
B4
330
1F
100
AcDbEntity
  8
720
370
     0
100
AcDbLine
 10
751790.416
 20
4175459.835
 30
721.7949829101562
 11
751787.933
 21
4175457.09
 31
721.385986328125
  0
LINE
  5
B5
330
1F
100
AcDbEntity
  8
720
370
     0
100
AcDbLine
 10
751787.933
 20
4175457.09
 30
721.385986328125
 11
751786.499
 21
4175455.126
 31
721.1619873046875
  0
LINE
  5
B6
330
1F
100
AcDbEntity
  8
720
370
     0
100
AcDbLine
 10
751786.499
 20
4175455.126
 30
721.1619873046875
 11
751784.604
 21
4175452.839
 31
720.8889770507812
  0
LINE
  5
B7
330
1F
100
AcDbEntity
  8
720
370
     0
100
AcDbLine
 10
751784.604
 20
4175452.839
 30
720.8889770507812
 11
751782.9061758429
 21
4175451.044314573
 31
720.541015625
  0
LINE
  5
B8
330
1F
100
AcDbEntity
  8
720
370
     0
100
AcDbLine
 10
751788.6866905295
 20
4175432.041007393
 30
720.4840087890625
 11
751790.978
 21
4175430.469
 31
720.5360107421875
  0
LINE
  5
B9
330
1F
100
AcDbEntity
  8
720
370
     0
100
AcDbLine
 10
751790.978
 20
4175430.469
 30
720.5360107421875
 11
751791.559
 21
4175430.426
 31
720.8690185546875
  0
LINE
  5
BA
330
1F
100
AcDbEntity
  8
720
370
     0
100
AcDbLine
 10
751792.487
 20
4175427.089
 30
720.8330078125
 11
751790.751
 21
4175427.293
 31
720.4819946289062
  0
LINE
  5
BB
330
1F
100
AcDbEntity
  8
720
370
     0
100
AcDbLine
 10
751790.751
 20
4175427.293
 30
720.4819946289062
 11
751789.383
 21
4175427.921
 31
720.5969848632812
  0
LINE
  5
BC
330
1F
100
AcDbEntity
  8
720
370
     0
100
AcDbLine
 10
751789.383
 20
4175427.921
 30
720.5969848632812
 11
751786.4093086786
 21
4175429.509563502
 31
720.4420166015625
  0
LINE
  5
BD
330
1F
100
AcDbEntity
  8
720
370
     0
100
AcDbLine
 10
751795.279
 20
4175463.675
 30
722.666015625
 11
751792.408
 21
4175461.528
 31
722.1790161132812
  0
LINE
  5
BE
330
1F
100
AcDbEntity
  8
720
370
     0
100
AcDbLine
 10
751783.907
 20
4175426.877
 30
720.6599731445312
 11
751786.4093086786
 21
4175429.509563502
 31
720.4420166015625
  0
LINE
  5
BF
330
1F
100
AcDbEntity
  8
720
370
     0
100
AcDbLine
 10
751792.487
 20
4175427.089
 30
720.8330078125
 11
751794.131
 21
4175426.492
 31
720.9730224609375
  0
LINE
  5
C0
330
1F
100
AcDbEntity
  8
720
370
     0
100
AcDbLine
 10
751794.131
 20
4175426.492
 30
720.9730224609375
 11
751795.528
 21
4175426.398
 31
720.4509887695312
  0
LINE
  5
C1
330
1F
100
AcDbEntity
  8
720
370
     0
100
AcDbLine
 10
751795.528
 20
4175426.398
 30
720.4509887695312
 11
751797.069
 21
4175427.779
 31
720.593994140625
  0
LINE
  5
C2
330
1F
100
AcDbEntity
  8
720
370
     0
100
AcDbLine
 10
751797.069
 20
4175427.779
 30
720.593994140625
 11
751797.277
 21
4175428.589
 31
720.7080078125
  0
LINE
  5
C3
330
1F
100
AcDbEntity
  8
720
370
     0
100
AcDbLine
 10
751797.277
 20
4175428.589
 30
720.7080078125
 11
751796.327
 21
4175429.727
 31
720.719970703125
  0
LINE
  5
C4
330
1F
100
AcDbEntity
  8
720
370
     0
100
AcDbLine
 10
751796.327
 20
4175429.727
 30
720.719970703125
 11
751794.087
 21
4175429.955
 31
720.6580200195312
  0
LINE
  5
C5
330
1F
100
AcDbEntity
  8
720
370
     0
100
AcDbLine
 10
751794.087
 20
4175429.955
 30
720.6580200195312
 11
751791.559
 21
4175430.426
 31
720.8690185546875
  0
LINE
  5
C6
330
1F
100
AcDbEntity
  8
720
370
     0
100
AcDbLine
 10
751800.234
 20
4175463.508
 30
723.9409790039062
 11
751801.543
 21
4175464.219
 31
724.3900146484375
  0
LINE
  5
C7
330
1F
100
AcDbEntity
  8
720
370
     0
100
AcDbLine
 10
751801.543
 20
4175464.219
 30
724.3900146484375
 11
751803.264
 21
4175464.225
 31
724.7570190429688
  0
LINE
  5
C8
330
1F
100
AcDbEntity
  8
720
370
     0
100
AcDbLine
 10
751797.579
 20
4175461.743
 30
722.7059936523438
 11
751800.234
 21
4175463.508
 31
723.9409790039062
  0
LINE
  5
C9
330
1F
100
AcDbEntity
  8
720
370
     0
100
AcDbLine
 10
751782.9061758429
 20
4175451.044314573
 30
720.541015625
 11
751782.0265491825
 21
4175450.08362844
 31
720.3610229492188
  0
LINE
  5
CA
330
1F
100
AcDbEntity
  8
720
370
     0
100
AcDbLine
 10
751795.279
 20
4175463.675
 30
722.666015625
 11
751797.7075618076
 21
4175465.64110051
 31
723.9409790039062
  0
LINE
  5
CB
330
1F
100
AcDbEntity
  8
720
370
     0
100
AcDbLine
 10
751797.7075618076
 20
4175465.64110051
 30
723.9409790039062
 11
751799.364
 21
4175467.313
 31
724.0999755859375
  0
LINE
  5
CC
330
1F
100
AcDbEntity
  8
720
370
     0
100
AcDbLine
 10
751799.364
 20
4175467.313
 30
724.0999755859375
 11
751801.212
 21
4175468.883
 31
724.2000122070312
  0
LINE
  5
CD
330
1F
100
AcDbEntity
  8
720
370
     0
100
AcDbLine
 10
751801.212
 20
4175468.883
 30
724.2000122070312
 11
751808.9883491755
 21
4175477.320110605
 31
725.9869995117188
  0
LINE
  5
CE
330
1F
100
AcDbEntity
  8
720
370
     0
100
AcDbLine
 10
751807.475
 20
4175465.727
 30
724.77099609375
 11
751804.753
 21
4175467.493
 31
724.2999877929688
  0
LINE
  5
CF
330
1F
100
AcDbEntity
  8
720
370
     0
100
AcDbLine
 10
751804.753
 20
4175467.493
 30
724.2999877929688
 11
751804.526612147
 21
4175468.629452507
 31
724.2999877929688
  0
LINE
  5
D0
330
1F
100
AcDbEntity
  8
720
370
     0
100
AcDbLine
 10
751804.526612147
 20
4175468.629452507
 30
724.2999877929688
 11
751811.286
 21
4175475.677
 31
725.9000244140625
  0
LINE
  5
D1
330
1F
100
AcDbEntity
  8
720
370
     0
100
AcDbLine
 10
751817.3938584151
 20
4175484.177385502
 30
727.1129760742188
 11
751821.404
 21
4175489.189
 31
728.2329711914062
  0
LINE
  5
D2
330
1F
100
AcDbEntity
  8
720
370
     0
100
AcDbLine
 10
751821.404
 20
4175489.189
 30
728.2329711914062
 11
751823.528
 21
4175490.854
 31
728.77099609375
  0
LINE
  5
D3
330
1F
100
AcDbEntity
  8
720
370
     0
100
AcDbLine
 10
751823.528
 20
4175490.854
 30
728.77099609375
 11
751825.154
 21
4175492.742
 31
729.0130004882812
  0
LINE
  5
D4
330
1F
100
AcDbEntity
  8
720
370
     0
100
AcDbLine
 10
751834.024
 20
4175505.172
 30
731.8179931640625
 11
751831.277
 21
4175502.454
 31
731.1539916992188
  0
LINE
  5
D5
330
1F
100
AcDbEntity
  8
720
370
     0
100
AcDbLine
 10
751822.475
 20
4175494.856
 30
729.0
 11
751826.894
 21
4175498.569
 31
730.2410278320312
  0
LINE
  5
D6
330
1F
100
AcDbEntity
  8
720
370
     0
100
AcDbLine
 10
751826.894
 20
4175498.569
 30
730.2410278320312
 11
751828.2444616457
 21
4175500.706747293
 31
730.697998046875
  0
LINE
  5
D7
330
1F
100
AcDbEntity
  8
720
370
     0
100
AcDbLine
 10
751814.243
 20
4175485.305
 30
727.0659790039062
 11
751808.9883491755
 21
4175477.320110605
 31
725.9869995117188
  0
LINE
  5
D8
330
1F
100
AcDbEntity
  8
720
370
     0
100
AcDbLine
 10
751803.264
 20
4175464.225
 30
724.7570190429688
 11
751805.433
 21
4175463.537
 31
724.3109741210938
  0
LINE
  5
D9
330
1F
100
AcDbEntity
  8
720
370
     0
100
AcDbLine
 10
751828.2444616457
 20
4175500.706747293
 30
730.697998046875
 11
751831.277
 21
4175502.454
 31
731.1539916992188
  0
LINE
  5
DA
330
1F
100
AcDbEntity
  8
720
370
     0
100
AcDbLine
 10
751837.207
 20
4175503.445
 30
731.780029296875
 11
751843.254
 21
4175506.745
 31
732.4580078125
  0
LINE
  5
DB
330
1F
100
AcDbEntity
  8
720
370
     0
100
AcDbLine
 10
751843.254
 20
4175506.745
 30
732.4580078125
 11
751846.526
 21
4175509.083
 31
732.969970703125
  0
LINE
  5
DC
330
1F
100
AcDbEntity
  8
720
370
     0
100
AcDbLine
 10
751841.229
 20
4175509.527
 30
732.0789794921875
 11
751835.311
 21
4175505.52
 31
731.6649780273438
  0
LINE
  5
DD
330
1F
100
AcDbEntity
  8
720
370
     0
100
AcDbLine
 10
751832.4
 20
4175498.101
 30
730.7780151367188
 11
751837.207
 21
4175503.445
 31
731.780029296875
  0
LINE
  5
DE
330
1F
100
AcDbEntity
  8
720
370
     0
100
AcDbLine
 10
751835.311
 20
4175505.52
 30
731.6649780273438
 11
751834.024
 21
4175505.172
 31
731.8179931640625
  0
LINE
  5
DF
330
1F
100
AcDbEntity
  8
720
370
     0
100
AcDbLine
 10
751846.526
 20
4175509.083
 30
732.4000244140625
 11
751849.31
 21
4175511.121
 31
732.5499877929688
  0
LINE
  5
E0
330
1F
100
AcDbEntity
  8
720
370
     0
100
AcDbLine
 10
751849.31
 20
4175511.121
 30
732.5499877929688
 11
751852.208
 21
4175513.836
 31
732.7000122070312
  0
LINE
  5
E1
330
1F
100
AcDbEntity
  8
720
370
     0
100
AcDbLine
 10
751852.208
 20
4175513.836
 30
732.7000122070312
 11
751853.448
 21
4175516.035
 31
733.2150268554688
  0
LINE
  5
E2
330
1F
100
AcDbEntity
  8
720
370
     0
100
AcDbLine
 10
751853.448
 20
4175516.035
 30
733.2150268554688
 11
751856.092
 21
4175517.866
 31
733.9929809570312
  0
LINE
  5
E3
330
1F
100
AcDbEntity
  8
720
370
     0
100
AcDbLine
 10
751851.206
 20
4175518.164
 30
733.2150268554688
 11
751848.564
 21
4175514.705
 31
732.7000122070312
  0
LINE
  5
E4
330
1F
100
AcDbEntity
  8
720
370
     0
100
AcDbLine
 10
751847.474
 20
4175513.993
 30
732.5499877929688
 11
751843.651
 21
4175511.559
 31
732.4000244140625
  0
LINE
  5
E5
330
1F
100
AcDbEntity
  8
720
370
     0
100
AcDbLine
 10
751843.651
 20
4175511.559
 30
732.4000244140625
 11
751841.229
 21
4175509.527
 31
732.0789794921875
  0
LINE
  5
E6
330
1F
100
AcDbEntity
  8
720
370
     0
100
AcDbLine
 10
751856.092
 20
4175517.866
 30
733.9929809570312
 11
751863.54
 21
4175522.923
 31
734.68701171875
  0
LINE
  5
E7
330
1F
100
AcDbEntity
  8
720
370
     0
100
AcDbLine
 10
751863.54
 20
4175522.923
 30
734.68701171875
 11
751866.744
 21
4175524.925
 31
735.0460205078125
  0
LINE
  5
E8
330
1F
100
AcDbEntity
  8
720
370
     0
100
AcDbLine
 10
751866.744
 20
4175524.925
 30
735.0460205078125
 11
751868.646
 21
4175525.906
 31
735.3499755859375
  0
LINE
  5
E9
330
1F
100
AcDbEntity
  8
720
370
     0
100
AcDbLine
 10
751868.646
 20
4175525.906
 30
735.3499755859375
 11
751872.825
 21
4175527.678
 31
735.6079711914062
  0
LINE
  5
EA
330
1F
100
AcDbEntity
  8
720
370
     0
100
AcDbLine
 10
751873.588
 20
4175531.537
 30
735.7349853515625
 11
751867.413
 21
4175529.281
 31
735.43798828125
  0
LINE
  5
EB
330
1F
100
AcDbEntity
  8
720
370
     0
100
AcDbLine
 10
751867.413
 20
4175529.281
 30
735.43798828125
 11
751864.172
 21
4175527.784
 31
735.0700073242188
  0
LINE
  5
EC
330
1F
100
AcDbEntity
  8
720
370
     0
100
AcDbLine
 10
751864.172
 20
4175527.784
 30
735.0700073242188
 11
751861.963
 21
4175526.05
 31
734.8510131835938
  0
LINE
  5
ED
330
1F
100
AcDbEntity
  8
720
370
     0
100
AcDbLine
 10
751878.289
 20
4175534.03
 30
736.0390014648438
 11
751875.853
 21
4175532.735
 31
735.93701171875
  0
LINE
  5
EE
330
1F
100
AcDbEntity
  8
720
370
     0
100
AcDbLine
 10
751887.4120106084
 20
4175544.369014693
 30
737.2999877929688
 11
751887.269
 21
4175547.266
 31
737.4910278320312
  0
LINE
  5
EF
330
1F
100
AcDbEntity
  8
720
370
     0
100
AcDbLine
 10
751884.209
 20
4175546.367
 30
737.4119873046875
 11
751884.09
 21
4175545.285
 31
737.2999877929688
  0
LINE
  5
F0
330
1F
100
AcDbEntity
  8
720
370
     0
100
AcDbLine
 10
751884.09
 20
4175545.285
 30
737.2999877929688
 11
751882.743
 21
4175540.325
 31
737.0809936523438
  0
LINE
  5
F1
330
1F
100
AcDbEntity
  8
720
370
     0
100
AcDbLine
 10
751887.269
 20
4175547.266
 30
737.4910278320312
 11
751887.8902636248
 21
4175550.290380059
 31
737.4099731445312
  0
LINE
  5
F2
330
1F
100
AcDbEntity
  8
720
370
     0
100
AcDbLine
 10
751887.8902636248
 20
4175550.290380059
 30
737.4099731445312
 11
751889.3469894626
 21
4175551.814127764
 31
737.4099731445312
  0
LINE
  5
F3
330
1F
100
AcDbEntity
  8
720
370
     0
100
AcDbLine
 10
751889.236
 20
4175555.545
 30
737.4099731445312
 11
751887.186
 21
4175554.612
 31
737.4099731445312
  0
LINE
  5
F4
330
1F
100
AcDbEntity
  8
720
370
     0
100
AcDbLine
 10
751884.435
 20
4175551.094
 30
737.4099731445312
 11
751884.117
 21
4175547.562
 31
737.4130249023438
  0
LINE
  5
F5
330
1F
100
AcDbEntity
  8
720
370
     0
100
AcDbLine
 10
751884.117
 20
4175547.562
 30
737.4130249023438
 11
751884.209
 21
4175546.367
 31
737.4119873046875
  0
LINE
  5
F6
330
1F
100
AcDbEntity
  8
720
370
     0
100
AcDbLine
 10
751887.186
 20
4175554.612
 30
737.4099731445312
 11
751885.3358666416
 21
4175553.191834819
 31
737.4099731445312
  0
LINE
  5
F7
330
1F
100
AcDbEntity
  8
720
370
     0
100
AcDbLine
 10
751885.3358666416
 20
4175553.191834819
 30
737.4099731445312
 11
751884.435
 21
4175551.094
 31
737.4099731445312
  0
LINE
  5
F8
330
1F
100
AcDbEntity
  8
720
370
     0
100
AcDbLine
 10
751889.3469894626
 20
4175551.814127764
 30
737.4099731445312
 11
751892.045
 21
4175552.582
 31
737.530029296875
  0
LINE
  5
F9
330
1F
100
AcDbEntity
  8
720
370
     0
100
AcDbLine
 10
751892.045
 20
4175552.582
 30
737.530029296875
 11
751894.472
 21
4175553.321
 31
737.530029296875
  0
LINE
  5
FA
330
1F
100
AcDbEntity
  8
720
370
     0
100
AcDbLine
 10
751892.444
 20
4175556.579
 30
737.530029296875
 11
751889.236
 21
4175555.545
 31
737.4099731445312
  0
LINE
  5
FB
330
1F
100
AcDbEntity
  8
720
370
     0
100
AcDbLine
 10
751896.524
 20
4175554.981
 30
738.125
 11
751897.727
 21
4175557.415
 31
738.0759887695312
  0
LINE
  5
FC
330
1F
100
AcDbEntity
  8
720
370
     0
100
AcDbLine
 10
751895.3848853471
 20
4175561.263171561
 30
738.2420043945312
 11
751893.9144426736
 21
4175558.92108578
 31
737.530029296875
  0
LINE
  5
FD
330
1F
100
AcDbEntity
  8
720
370
     0
100
AcDbLine
 10
751893.9144426736
 20
4175558.92108578
 30
738.2420043945312
 11
751892.444
 21
4175556.579
 31
737.530029296875
  0
LINE
  5
FE
330
1F
100
AcDbEntity
  8
720
370
     0
100
AcDbLine
 10
751879.711
 20
4175535.631
 30
736.6500244140625
 11
751878.289
 21
4175534.03
 31
736.0390014648438
  0
LINE
  5
FF
330
1F
100
AcDbEntity
  8
720
370
     0
100
AcDbLine
 10
751872.825
 20
4175527.678
 30
735.6079711914062
 11
751876.906
 21
4175529.39
 31
735.9119873046875
  0
LINE
  5
100
330
1F
100
AcDbEntity
  8
720
370
     0
100
AcDbLine
 10
751875.853
 20
4175532.735
 30
735.93701171875
 11
751873.588
 21
4175531.537
 31
735.7349853515625
  0
LINE
  5
101
330
1F
100
AcDbEntity
  8
720
370
     0
100
AcDbLine
 10
751861.963
 20
4175526.05
 30
734.8510131835938
 11
751856.451
 21
4175522.558
 31
734.1199951171875
  0
LINE
  5
102
330
1F
100
AcDbEntity
  8
720
370
     0
100
AcDbLine
 10
751856.451
 20
4175522.558
 30
734.1199951171875
 11
751856.116
 21
4175526.081
 31
733.9929809570312
  0
LINE
  5
103
330
1F
100
AcDbEntity
  8
720
370
     0
100
AcDbLine
 10
751856.116
 20
4175526.081
 30
733.9929809570312
 11
751857.089
 21
4175530.274
 31
734.2000122070312
  0
LINE
  5
104
330
1F
100
AcDbEntity
  8
720
370
     0
100
AcDbLine
 10
751853.113
 20
4175524.952
 30
733.9929809570312
 11
751853.287
 21
4175521.123
 31
733.9929809570312
  0
LINE
  5
105
330
1F
100
AcDbEntity
  8
720
370
     0
100
AcDbLine
 10
751853.287
 20
4175521.123
 30
733.9929809570312
 11
751851.206
 21
4175518.164
 31
733.2150268554688
  0
LINE
  5
106
330
1F
100
AcDbEntity
  8
720
370
     0
100
AcDbLine
 10
751857.089
 20
4175530.274
 30
734.2000122070312
 11
751859.034
 21
4175536.614
 31
733.2659912109375
  0
LINE
  5
107
330
1F
100
AcDbEntity
  8
720
370
     0
100
AcDbLine
 10
751856.1571404164
 20
4175537.326099253
 30
733.302978515625
 11
751854.682
 21
4175533.357
 31
733.822998046875
  0
LINE
  5
108
330
1F
100
AcDbEntity
  8
720
370
     0
100
AcDbLine
 10
751897.727
 20
4175557.415
 30
738.0759887695312
 11
751900.246
 21
4175562.328
 31
738.2000122070312
  0
LINE
  5
109
330
1F
100
AcDbEntity
  8
720
370
     0
100
AcDbLine
 10
751900.246
 20
4175562.328
 30
738.2000122070312
 11
751901.646
 21
4175563.998
 31
738.5999755859375
  0
LINE
  5
10A
330
1F
100
AcDbEntity
  8
720
370
     0
100
AcDbLine
 10
751898.747
 20
4175566.161
 30
738.5999755859375
 11
751897.199
 21
4175563.935
 31
738.2000122070312
  0
LINE
  5
10B
330
1F
100
AcDbEntity
  8
720
370
     0
100
AcDbLine
 10
751897.199
 20
4175563.935
 30
738.2000122070312
 11
751895.3848853471
 21
4175561.263171561
 31
738.2420043945312
  0
LINE
  5
10C
330
1F
100
AcDbEntity
  8
720
370
     0
100
AcDbLine
 10
751901.646
 20
4175563.998
 30
738.5999755859375
 11
751903.925
 21
4175566.094
 31
739.4439697265625
  0
LINE
  5
10D
330
1F
100
AcDbEntity
  8
720
370
     0
100
AcDbLine
 10
751903.925
 20
4175566.094
 30
739.4439697265625
 11
751906.654
 21
4175568.972
 31
740.4290161132812
  0
LINE
  5
10E
330
1F
100
AcDbEntity
  8
720
370
     0
100
AcDbLine
 10
751902.181
 20
4175569.82
 30
739.43798828125
 11
751901.15
 21
4175568.594
 31
739.2069702148438
  0
LINE
  5
10F
330
1F
100
AcDbEntity
  8
720
370
     0
100
AcDbLine
 10
751901.15
 20
4175568.594
 30
739.2069702148438
 11
751898.747
 21
4175566.161
 31
738.5999755859375
  0
LINE
  5
110
330
1F
100
AcDbEntity
  8
720
370
     0
100
AcDbLine
 10
751905.185
 20
4175571.738
 30
740.3109741210938
 11
751903.987
 21
4175574.669
 31
740.4860229492188
  0
LINE
  5
111
330
1F
100
AcDbEntity
  8
720
370
     0
100
AcDbLine
 10
751903.987
 20
4175574.669
 30
740.4860229492188
 11
751902.1029322329
 21
4175576.93238002
 31
741.5269775390625
  0
LINE
  5
112
330
1F
100
AcDbEntity
  8
720
370
     0
100
AcDbLine
 10
751900.723
 20
4175572.877
 30
740.4860229492188
 11
751902.181
 21
4175569.82
 31
739.43798828125
  0
LINE
  5
113
330
1F
100
AcDbEntity
  8
720
370
     0
100
AcDbLine
 10
751906.654
 20
4175568.972
 30
740.4290161132812
 11
751905.185
 21
4175571.738
 31
740.3109741210938
  0
LINE
  5
114
330
1F
100
AcDbEntity
  8
720
370
     0
100
AcDbLine
 10
751902.1029322329
 20
4175576.93238002
 30
741.5269775390625
 11
751900.988
 21
4175578.505
 31
741.7999877929688
  0
LINE
  5
115
330
1F
100
AcDbEntity
  8
720
370
     0
100
AcDbLine
 10
751900.988
 20
4175578.505
 30
741.7999877929688
 11
751899.97
 21
4175580.077
 31
742.2059936523438
  0
LINE
  5
116
330
1F
100
AcDbEntity
  8
720
370
     0
100
AcDbLine
 10
751899.97
 20
4175580.077
 30
742.2059936523438
 11
751899.35
 21
4175580.198
 31
742.208984375
  0
LINE
  5
117
330
1F
100
AcDbEntity
  8
720
370
     0
100
AcDbLine
 10
751897.865
 20
4175577.625
 30
741.8740234375
 11
751900.723
 21
4175572.877
 31
740.4860229492188
  0
LINE
  5
118
330
1F
100
AcDbEntity
  8
720
370
     0
100
AcDbLine
 10
751897.059
 20
4175578.375
 30
742.2109985351562
 11
751897.865
 21
4175577.625
 31
741.8740234375
  0
LINE
  5
119
330
1F
100
AcDbEntity
  8
720
370
     0
100
AcDbLine
 10
751899.35
 20
4175580.198
 30
742.208984375
 11
751897.1788875482
 21
4175581.600678635
 31
742.2999877929688
  0
LINE
  5
11A
330
1F
100
AcDbEntity
  8
720
370
     0
100
AcDbLine
 10
751897.1788875482
 20
4175581.600678635
 30
742.2999877929688
 11
751895.7892776328
 21
4175582.043836884
 31
742.7999877929688
  0
LINE
  5
11B
330
1F
100
AcDbEntity
  8
720
370
     0
100
AcDbLine
 10
751895.7892776328
 20
4175582.043836884
 30
742.7999877929688
 11
751894.143
 21
4175582.27
 31
743.3889770507812
  0
LINE
  5
11C
330
1F
100
AcDbEntity
  8
720
370
     0
100
AcDbLine
 10
751894.143
 20
4175582.27
 30
743.3889770507812
 11
751890.833
 21
4175581.567
 31
742.2109985351562
  0
LINE
  5
11D
330
1F
100
AcDbEntity
  8
720
370
     0
100
AcDbLine
 10
751890.833
 20
4175581.567
 30
742.2109985351562
 11
751888.86
 21
4175579.759
 31
743.5960083007812
  0
LINE
  5
11E
330
1F
100
AcDbEntity
  8
720
370
     0
100
AcDbLine
 10
751888.86
 20
4175579.759
 30
743.5960083007812
 11
751888.109
 21
4175578.587
 31
743.875
  0
LINE
  5
11F
330
1F
100
AcDbEntity
  8
720
370
     0
100
AcDbLine
 10
751889.691
 20
4175576.568
 30
743.8109741210938
 11
751890.963
 21
4175578.055
 31
743.5
  0
LINE
  5
120
330
1F
100
AcDbEntity
  8
720
370
     0
100
AcDbLine
 10
751890.963
 20
4175578.055
 30
743.5
 11
751893.966
 21
4175578.96
 31
743.4000244140625
  0
LINE
  5
121
330
1F
100
AcDbEntity
  8
720
370
     0
100
AcDbLine
 10
751893.966
 20
4175578.96
 30
743.4000244140625
 11
751895.79
 21
4175578.826
 31
742.7999877929688
  0
LINE
  5
122
330
1F
100
AcDbEntity
  8
720
370
     0
100
AcDbLine
 10
751895.79
 20
4175578.826
 30
742.7999877929688
 11
751897.059
 21
4175578.375
 31
742.2109985351562
  0
LINE
  5
123
330
1F
100
AcDbEntity
  8
720
370
     0
100
AcDbLine
 10
751890.2492493088
 20
4175569.768096443
 30
743.9500122070312
 11
751889.343
 21
4175572.729
 31
743.9500122070312
  0
LINE
  5
124
330
1F
100
AcDbEntity
  8
720
370
     0
100
AcDbLine
 10
751889.343
 20
4175572.729
 30
743.9500122070312
 11
751889.691
 21
4175576.568
 31
743.8109741210938
  0
LINE
  5
125
330
1F
100
AcDbEntity
  8
720
370
     0
100
AcDbLine
 10
751885.333
 20
4175569.774
 30
743.7999877929688
 11
751886.271
 21
4175571.514
 31
743.6810302734375
  0
LINE
  5
126
330
1F
100
AcDbEntity
  8
720
370
     0
100
AcDbLine
 10
751885.333
 20
4175569.774
 30
743.7999877929688
 11
751884.964
 21
4175568.864
 31
744.3599853515625
  0
LINE
  5
127
330
1F
100
AcDbEntity
  8
720
370
     0
100
AcDbLine
 10
751887.019
 20
4175566.207
 30
744.3599853515625
 11
751888.528
 21
4175568.174
 31
743.9500122070312
  0
LINE
  5
128
330
1F
100
AcDbEntity
  8
720
370
     0
100
AcDbLine
 10
751888.528
 20
4175568.174
 30
743.9500122070312
 11
751890.2492493088
 21
4175569.768096443
 31
743.9500122070312
  0
LINE
  5
129
330
1F
100
AcDbEntity
  8
720
370
     0
100
AcDbLine
 10
751885.4971146266
 20
4175536.565833124
 30
736.7349853515625
 11
751887.4120106084
 21
4175544.369014693
 31
737.2999877929688
  0
LINE
  5
12A
330
1F
100
AcDbEntity
  8
720
370
     0
100
AcDbLine
 10
751882.734
 20
4175532.603
 30
736.4829711914062
 11
751883.881
 21
4175532.76
 31
736.5549926757812
  0
LINE
  5
12B
330
1F
100
AcDbEntity
  8
720
370
     0
100
AcDbLine
 10
751883.881
 20
4175532.76
 30
736.5549926757812
 11
751884.626
 21
4175531.505
 31
736.7730102539062
  0
LINE
  5
12C
330
1F
100
AcDbEntity
  8
720
370
     0
100
AcDbLine
 10
751886.553
 20
4175534.311
 30
737.1279907226562
 11
751885.4971146266
 21
4175536.565833124
 31
736.7349853515625
  0
LINE
  5
12D
330
1F
100
AcDbEntity
  8
720
370
     0
100
AcDbLine
 10
751876.906
 20
4175529.39
 30
735.9119873046875
 11
751882.734
 21
4175532.603
 31
736.4829711914062
  0
LINE
  5
12E
330
1F
100
AcDbEntity
  8
720
370
     0
100
AcDbLine
 10
751848.564
 20
4175514.705
 30
732.7000122070312
 11
751847.474
 21
4175513.993
 31
732.5499877929688
  0
LINE
  5
12F
330
1F
100
AcDbEntity
  8
720
370
     0
100
AcDbLine
 10
751826.597
 20
4175494.561
 30
729.2589721679688
 11
751829.244
 21
4175495.94
 31
730.135009765625
  0
LINE
  5
130
330
1F
100
AcDbEntity
  8
720
370
     0
100
AcDbLine
 10
751832.4
 20
4175498.101
 30
730.7780151367188
 11
751832.933
 21
4175497.283
 31
730.594970703125
  0
LINE
  5
131
330
1F
100
AcDbEntity
  8
720
370
     0
100
AcDbLine
 10
751752.1211214678
 20
4175389.23403411
 30
719.1568603515625
 11
751749.5533101879
 21
4175390.570395485
 31
719.1846923828125
  0
LINE
  5
132
330
1F
100
AcDbEntity
  8
720
370
     0
100
AcDbLine
 10
751755.6021529459
 20
4175395.323702229
 30
719.0781860351562
 11
751753.4876222691
 21
4175397.484767099
 31
719.084716796875
  0
LINE
  5
133
330
1F
100
AcDbEntity
  8
720
370
     0
100
AcDbLine
 10
751894.472
 20
4175553.321
 30
737.530029296875
 11
751895.378
 21
4175554.038
 31
737.9710083007812
  0
LINE
  5
134
330
1F
100
AcDbEntity
  8
720
370
     0
100
AcDbLine
 10
751895.378
 20
4175554.038
 30
737.9710083007812
 11
751896.524
 21
4175554.981
 31
738.125
  0
LINE
  5
135
330
1F
100
AcDbEntity
  8
720
370
     0
100
AcDbLine
 10
751854.682
 20
4175533.357
 30
733.822998046875
 11
751853.758
 21
4175532.426
 31
734.22998046875
  0
LINE
  5
136
330
1F
100
AcDbEntity
  8
720
370
     0
100
AcDbLine
 10
751851.3208340335
 20
4175529.748976279
 30
734.22998046875
 11
751853.339
 21
4175529.019
 31
734.22998046875
  0
LINE
  5
137
330
1F
100
AcDbEntity
  8
720
370
     0
100
AcDbLine
 10
751853.339
 20
4175529.019
 30
734.22998046875
 11
751853.113
 21
4175524.952
 31
733.9929809570312
  0
LINE
  5
138
330
1F
100
AcDbEntity
  8
720
370
     0
100
AcDbLine
 10
751882.021
 20
4175540.131
 30
737.739990234375
 11
751880.04
 21
4175540.26
 31
737.8460083007812
  0
LINE
  5
139
330
1F
100
AcDbEntity
  8
720
370
     0
100
AcDbLine
 10
751880.04
 20
4175540.26
 30
737.8460083007812
 11
751877.493
 21
4175542.053
 31
738.5040283203125
  0
LINE
  5
13A
330
1F
100
AcDbEntity
  8
720
370
     0
100
AcDbLine
 10
751877.493
 20
4175542.053
 30
738.5040283203125
 11
751873.9693702317
 21
4175544.804510103
 31
739.7420043945312
  0
LINE
  5
13B
330
1F
100
AcDbEntity
  8
720
370
     0
100
AcDbLine
 10
751874.866671568
 20
4175539.745452614
 30
738.7930297851562
 11
751879.57
 21
4175535.503
 31
737.2360229492188
  0
LINE
  5
13C
330
1F
100
AcDbEntity
  8
720
370
     0
100
AcDbLine
 10
751879.57
 20
4175535.503
 30
737.2360229492188
 11
751878.289
 21
4175534.03
 31
736.0390014648438
  0
LINE
  5
13D
330
1F
100
AcDbEntity
  8
720
370
     0
100
AcDbLine
 10
751882.743
 20
4175540.325
 30
737.0809936523438
 11
751882.021
 21
4175540.131
 31
737.739990234375
  0
LINE
  5
13E
330
1F
100
AcDbEntity
  8
720
370
     0
100
AcDbLine
 10
751873.9693702317
 20
4175544.804510103
 30
739.7420043945312
 11
751873.601
 21
4175545.025
 31
740.02099609375
  0
LINE
  5
13F
330
1F
100
AcDbEntity
  8
720
370
     0
100
AcDbLine
 10
751853.758
 20
4175532.426
 30
734.22998046875
 11
751851.473
 21
4175533.103
 31
734.0120239257812
  0
LINE
  5
140
330
1F
100
AcDbEntity
  8
720
370
     0
100
AcDbLine
 10
751851.473
 20
4175533.103
 30
734.0120239257812
 11
751850.113
 21
4175534.983
 31
734.198974609375
  0
LINE
  5
141
330
1F
100
AcDbEntity
  8
720
370
     0
100
AcDbLine
 10
751850.113
 20
4175534.983
 30
734.198974609375
 11
751848.707
 21
4175538.106
 31
734.0399780273438
  0
LINE
  5
142
330
1F
100
AcDbEntity
  8
720
370
     0
100
AcDbLine
 10
751848.707
 20
4175538.106
 30
734.0399780273438
 11
751848.392
 21
4175539.929
 31
733.9409790039062
  0
LINE
  5
143
330
1F
100
AcDbEntity
  8
720
370
     0
100
AcDbLine
 10
751848.392
 20
4175539.929
 30
733.9409790039062
 11
751848.861
 21
4175542.497
 31
733.7999877929688
  0
LINE
  5
144
330
1F
100
AcDbEntity
  8
720
370
     0
100
AcDbLine
 10
751846.85
 20
4175545.754
 30
733.5999755859375
 11
751845.677
 21
4175544.327
 31
733.7999877929688
  0
LINE
  5
145
330
1F
100
AcDbEntity
  8
720
370
     0
100
AcDbLine
 10
751845.677
 20
4175544.327
 30
733.7999877929688
 11
751844.928
 21
4175541.8
 31
734.2000122070312
  0
LINE
  5
146
330
1F
100
AcDbEntity
  8
720
370
     0
100
AcDbLine
 10
751844.928
 20
4175541.8
 30
734.2000122070312
 11
751844.9952471828
 21
4175538.371446139
 31
734.1939697265625
  0
LINE
  5
147
330
1F
100
AcDbEntity
  8
720
370
     0
100
AcDbLine
 10
751844.9952471828
 20
4175538.371446139
 30
734.1939697265625
 11
751845.191
 21
4175536.482
 31
734.22998046875
  0
LINE
  5
148
330
1F
100
AcDbEntity
  8
720
370
     0
100
AcDbLine
 10
751845.191
 20
4175536.482
 30
734.22998046875
 11
751846.1557938152
 21
4175534.364509739
 31
734.3839721679688
  0
LINE
  5
149
330
1F
100
AcDbEntity
  8
720
370
     0
100
AcDbLine
 10
751846.1557938152
 20
4175534.364509739
 30
734.3839721679688
 11
751846.803
 21
4175533.404
 31
734.375
  0
LINE
  5
14A
330
1F
100
AcDbEntity
  8
720
370
     0
100
AcDbLine
 10
751846.803
 20
4175533.404
 30
734.375
 11
751848.18
 21
4175532.098
 31
734.3319702148438
  0
LINE
  5
14B
330
1F
100
AcDbEntity
  8
720
370
     0
100
AcDbLine
 10
751848.18
 20
4175532.098
 30
734.3319702148438
 11
751849.316
 21
4175530.893
 31
734.2550048828125
  0
LINE
  5
14C
330
1F
100
AcDbEntity
  8
720
370
     0
100
AcDbLine
 10
751849.316
 20
4175530.893
 30
734.2550048828125
 11
751851.3208340335
 21
4175529.748976279
 31
734.22998046875
  0
LINE
  5
14D
330
1F
100
AcDbEntity
  8
720
370
     0
100
AcDbLine
 10
751848.861
 20
4175542.497
 30
733.7999877929688
 11
751850.455
 21
4175544.529
 31
733.6209716796875
  0
LINE
  5
14E
330
1F
100
AcDbEntity
  8
720
370
     0
100
AcDbLine
 10
751850.455
 20
4175544.529
 30
733.6209716796875
 11
751852.255
 21
4175546.429
 31
733.4500122070312
  0
LINE
  5
14F
330
1F
100
AcDbEntity
  8
720
370
     0
100
AcDbLine
 10
751848.9474752749
 20
4175548.595370393
 30
733.4500122070312
 11
751846.85
 21
4175545.754
 31
733.5999755859375
  0
LINE
  5
150
330
1F
100
AcDbEntity
  8
720
370
     0
100
AcDbLine
 10
751842.897
 20
4175490.914
 30
732.0980224609375
 11
751846.027
 21
4175493.112
 31
732.8820190429688
  0
LINE
  5
151
330
1F
100
AcDbEntity
  8
720
370
     0
100
AcDbLine
 10
751846.027
 20
4175493.112
 30
732.8820190429688
 11
751848.924
 21
4175494.887
 31
733.8800048828125
  0
LINE
  5
152
330
1F
100
AcDbEntity
  8
720
370
     0
100
AcDbLine
 10
751847.808
 20
4175498.998
 30
734.3209838867188
 11
751843.649
 21
4175495.396
 31
732.7769775390625
  0
LINE
  5
153
330
1F
100
AcDbEntity
  8
720
370
     0
100
AcDbLine
 10
751843.649
 20
4175495.396
 30
732.7769775390625
 11
751840.578
 21
4175493.016
 31
731.9920043945312
  0
LINE
  5
154
330
1F
100
AcDbEntity
  8
720
370
     0
100
AcDbLine
 10
751825.154
 20
4175492.742
 30
729.0130004882812
 11
751826.597
 21
4175494.561
 31
729.2589721679688
  0
LINE
  5
155
330
1F
100
AcDbEntity
  8
720
370
     0
100
AcDbLine
 10
751822.475
 20
4175494.856
 30
729.0
 11
751821.314
 21
4175493.735
 31
728.6420288085938
  0
LINE
  5
156
330
1F
100
AcDbEntity
  8
720
370
     0
100
AcDbLine
 10
751821.314
 20
4175493.735
 30
728.6420288085938
 11
751820.013
 21
4175494.571
 31
728.6500244140625
  0
LINE
  5
157
330
1F
100
AcDbEntity
  8
720
370
     0
100
AcDbLine
 10
751818.273
 20
4175490.937
 30
728.2109985351562
 11
751814.243
 21
4175485.305
 31
727.0659790039062
  0
LINE
  5
158
330
1F
100
AcDbEntity
  8
720
370
     0
100
AcDbLine
 10
751852.255
 20
4175546.429
 30
733.4500122070312
 11
751853.2670512514
 21
4175547.20712924
 31
733.343017578125
  0
LINE
  5
159
330
1F
100
AcDbEntity
  8
720
370
     0
100
AcDbLine
 10
751853.2670512514
 20
4175547.20712924
 30
733.343017578125
 11
751855.368
 21
4175548.406
 31
733.6630249023438
  0
LINE
  5
15A
330
1F
100
AcDbEntity
  8
720
370
     0
100
AcDbLine
 10
751816.222
 20
4175494.157
 30
728.5809936523438
 11
751818.273
 21
4175490.937
 31
728.2109985351562
  0
LINE
  5
15B
330
1F
100
AcDbEntity
  8
720
370
     0
100
AcDbLine
 10
751820.013
 20
4175494.571
 30
728.6500244140625
 11
751818.428
 21
4175496.703
 31
728.3599853515625
  0
LINE
  5
15C
330
1F
100
AcDbEntity
  8
720
370
     0
100
AcDbLine
 10
751818.428
 20
4175496.703
 30
728.3599853515625
 11
751817.471
 21
4175498.514
 31
728.3599853515625
  0
LINE
  5
15D
330
1F
100
AcDbEntity
  8
720
370
     0
100
AcDbLine
 10
751851.93
 20
4175551.26
 30
733.2999877929688
 11
751848.9474752749
 21
4175548.595370393
 31
733.4500122070312
  0
LINE
  5
15E
330
1F
100
AcDbEntity
  8
720
370
     0
100
AcDbLine
 10
751817.471
 20
4175498.514
 30
728.3599853515625
 11
751816.86
 21
4175501.179
 31
728.4000244140625
  0
LINE
  5
15F
330
1F
100
AcDbEntity
  8
720
370
     0
100
AcDbLine
 10
751864.8092044751
 20
4175559.200733084
 30
734.0999755859375
 11
751862.702
 21
4175557.948
 31
734.302978515625
  0
LINE
  5
160
330
1F
100
AcDbEntity
  8
720
370
     0
100
AcDbLine
 10
751862.702
 20
4175557.948
 30
734.302978515625
 11
751858.037
 21
4175554.853
 31
733.8070068359375
  0
LINE
  5
161
330
1F
100
AcDbEntity
  8
720
370
     0
100
AcDbLine
 10
751858.037
 20
4175554.853
 30
733.8070068359375
 11
751851.93
 21
4175551.26
 31
733.2999877929688
  0
LINE
  5
162
330
1F
100
AcDbEntity
  8
720
370
     0
100
AcDbLine
 10
751866.4540533745
 20
4175560.38896167
 30
734.1209716796875
 11
751864.8092044751
 21
4175559.200733084
 31
734.0999755859375
  0
LINE
  5
163
330
1F
100
AcDbEntity
  8
720
370
     0
100
AcDbLine
 10
751868.3280468812
 20
4175558.223745932
 30
734.1099853515625
 11
751870.424
 21
4175559.662
 31
733.9619750976562
  0
LINE
  5
164
330
1F
100
AcDbEntity
  8
720
370
     0
100
AcDbLine
 10
751871.667
 20
4175564.014
 30
734.0999755859375
 11
751867.934
 21
4175561.497
 31
734.0040283203125
  0
LINE
  5
165
330
1F
100
AcDbEntity
  8
720
370
     0
100
AcDbLine
 10
751867.934
 20
4175561.497
 30
734.0040283203125
 11
751866.4540533745
 21
4175560.38896167
 31
734.1209716796875
  0
LINE
  5
166
330
1F
100
AcDbEntity
  8
720
370
     0
100
AcDbLine
 10
751878.321
 20
4175568.327
 30
734.030029296875
 11
751873.385
 21
4175565.154
 31
734.030029296875
  0
LINE
  5
167
330
1F
100
AcDbEntity
  8
720
370
     0
100
AcDbLine
 10
751873.385
 20
4175565.154
 30
734.030029296875
 11
751871.667
 21
4175564.014
 31
734.0999755859375
  0
LINE
  5
168
330
1F
100
AcDbEntity
  8
720
370
     0
100
AcDbLine
 10
751879.8284752737
 20
4175565.58561313
 30
734.030029296875
 11
751882.034
 21
4175566.616
 31
734.4000244140625
  0
LINE
  5
169
330
1F
100
AcDbEntity
  8
720
370
     0
100
AcDbLine
 10
751879.8276497092
 20
4175569.488142181
 30
734.0999755859375
 11
751878.321
 21
4175568.327
 31
734.030029296875
  0
LINE
  5
16A
330
1F
100
AcDbEntity
  8
720
370
     0
100
AcDbLine
 10
751882.034
 20
4175566.616
 30
734.4000244140625
 11
751883.554
 21
4175567.573
 31
734.2000122070312
  0
LINE
  5
16B
330
1F
100
AcDbEntity
  8
720
370
     0
100
AcDbLine
 10
751883.554
 20
4175567.573
 30
734.2000122070312
 11
751883.252
 21
4175568.592
 31
734.2000122070312
  0
LINE
  5
16C
330
1F
100
AcDbEntity
  8
720
370
     0
100
AcDbLine
 10
751883.252
 20
4175568.592
 30
734.2000122070312
 11
751884.6
 21
4175570.363
 31
734.2000122070312
  0
LINE
  5
16D
330
1F
100
AcDbEntity
  8
720
370
     0
100
AcDbLine
 10
751884.6
 20
4175570.363
 30
734.2000122070312
 11
751882.337
 21
4175573.432
 31
734.2000122070312
  0
LINE
  5
16E
330
1F
100
AcDbEntity
  8
720
370
     0
100
AcDbLine
 10
751882.337
 20
4175573.432
 30
734.2000122070312
 11
751881.88
 21
4175572.839
 31
734.2000122070312
  0
LINE
  5
16F
330
1F
100
AcDbEntity
  8
720
370
     0
100
AcDbLine
 10
751881.88
 20
4175572.839
 30
734.2000122070312
 11
751880.608
 21
4175570.308
 31
734.2000122070312
  0
LINE
  5
170
330
1F
100
AcDbEntity
  8
720
370
     0
100
AcDbLine
 10
751880.608
 20
4175570.308
 30
734.2000122070312
 11
751879.8276497092
 21
4175569.488142181
 31
734.0999755859375
  0
LINE
  5
179
330
1F
100
AcDbEntity
  8
720
370
     0
100
AcDbLine
 10
751788.6866905295
 20
4175432.041007393
 30
720.4840087890625
 11
751785.119
 21
4175432.929
 31
720.5159912109375
  0
LINE
  5
17A
330
1F
100
AcDbEntity
  8
720
370
     0
100
AcDbLine
 10
751772.212
 20
4175394.685
 30
718.926025390625
 11
751770.458
 21
4175394.925
 31
719.0540161132812
  0
LINE
  5
17B
330
1F
100
AcDbEntity
  8
720
370
     0
100
AcDbLine
 10
751770.458
 20
4175394.925
 30
719.0540161132812
 11
751768.531
 21
4175396.536
 31
719.3309936523438
  0
LINE
  5
17C
330
1F
100
AcDbEntity
  8
720
370
     0
100
AcDbLine
 10
751813.809
 20
4175504.146
 30
728.4000244140625
 11
751813.806
 21
4175503.16
 31
728.7849731445312
  0
LINE
  5
17D
330
1F
100
AcDbEntity
  8
720
370
     0
100
AcDbLine
 10
751813.806
 20
4175503.16
 30
728.7849731445312
 11
751813.435
 21
4175501.301
 31
728.8699951171875
  0
LINE
  5
17E
330
1F
100
AcDbEntity
  8
720
370
     0
100
AcDbLine
 10
751813.869
 20
4175497.375
 30
728.47802734375
 11
751815.263
 21
4175494.977
 31
728.541015625
  0
LINE
  5
17F
330
1F
100
AcDbEntity
  8
720
370
     0
100
AcDbLine
 10
751815.263
 20
4175494.977
 30
728.541015625
 11
751816.222
 21
4175494.157
 31
728.5809936523438
  0
LINE
  5
180
330
1F
100
AcDbEntity
  8
720
370
     0
100
AcDbLine
 10
751876.834
 20
4175563.586
 30
734.1929931640625
 11
751879.8284752737
 21
4175565.58561313
 31
734.030029296875
  0
LINE
  5
181
330
1F
100
AcDbEntity
  8
720
370
     0
100
AcDbLine
 10
751777.528
 20
4175448.538
 30
720.0700073242188
 11
751774.869
 21
4175447.991
 31
720.0999755859375
  0
LINE
  5
182
330
1F
100
AcDbEntity
  8
720
370
     0
100
AcDbLine
 10
751774.869
 20
4175447.991
 30
720.0999755859375
 11
751774.528
 21
4175446.005
 31
720.3140258789062
  0
LINE
  5
183
330
1F
100
AcDbEntity
  8
720
370
     0
100
AcDbLine
 10
751774.528
 20
4175446.005
 30
720.3140258789062
 11
751771.547
 21
4175443.138
 31
720.27197265625
  0
LINE
  5
184
330
1F
100
AcDbEntity
  8
720
370
     0
100
AcDbLine
 10
751773.213
 20
4175440.073
 30
720.1959838867188
 11
751775.5
 21
4175442.285
 31
720.10400390625
  0
LINE
  5
185
330
1F
100
AcDbEntity
  8
720
370
     0
100
AcDbLine
 10
751775.5
 20
4175442.285
 30
720.10400390625
 11
751776.226
 21
4175441.04
 31
720.1199951171875
  0
LINE
  5
186
330
1F
100
AcDbEntity
  8
720
370
     0
100
AcDbLine
 10
751776.226
 20
4175441.04
 30
720.1199951171875
 11
751777.532
 21
4175437.009
 31
720.2780151367188
  0
LINE
  5
187
330
1F
100
AcDbEntity
  8
720
370
     0
100
AcDbLine
 10
751816.86
 20
4175501.179
 30
728.4000244140625
 11
751817.212
 21
4175504.006
 31
728.4000244140625
  0
LINE
  5
188
330
1F
100
AcDbEntity
  8
720
370
     0
100
AcDbLine
 10
751817.212
 20
4175504.006
 30
728.4000244140625
 11
751818.175
 21
4175506.177
 31
728.8400268554688
  0
LINE
  5
189
330
1F
100
AcDbEntity
  8
720
370
     0
100
AcDbLine
 10
751814.977
 20
4175507.33
 30
728.8720092773438
 11
751813.809
 21
4175504.146
 31
728.4000244140625
  0
LINE
  5
18A
330
1F
100
AcDbEntity
  8
720
370
     0
100
AcDbLine
 10
751771.547
 20
4175443.138
 30
720.27197265625
 11
751769.377
 21
4175439.432
 31
719.885986328125
  0
LINE
  5
18B
330
1F
100
AcDbEntity
  8
720
370
     0
100
AcDbLine
 10
751771.736
 20
4175436.416
 30
719.9459838867188
 11
751772.322
 21
4175438.652
 31
719.8790283203125
  0
LINE
  5
18C
330
1F
100
AcDbEntity
  8
720
370
     0
100
AcDbLine
 10
751772.322
 20
4175438.652
 30
719.8790283203125
 11
751773.213
 21
4175440.073
 31
720.1959838867188
  0
LINE
  5
18D
330
1F
100
AcDbEntity
  8
720
370
     0
100
AcDbLine
 10
751829.287
 20
4175530.705
 30
733.4429931640625
 11
751831.3670386996
 21
4175534.626835295
 31
734.4910278320312
  0
LINE
  5
18E
330
1F
100
AcDbEntity
  8
720
370
     0
100
AcDbLine
 10
751769.377
 20
4175439.432
 30
719.885986328125
 11
751768.591
 21
4175438.079
 31
719.85498046875
  0
LINE
  5
18F
330
1F
100
AcDbEntity
  8
720
370
     0
100
AcDbLine
 10
751768.591
 20
4175438.079
 30
719.85498046875
 11
751767.649
 21
4175434.505
 31
719.85498046875
  0
LINE
  5
190
330
1F
100
AcDbEntity
  8
720
370
     0
100
AcDbLine
 10
751767.649
 20
4175434.505
 30
719.85498046875
 11
751767.432
 21
4175430.618
 31
719.9000244140625
  0
LINE
  5
191
330
1F
100
AcDbEntity
  8
720
370
     0
100
AcDbLine
 10
751767.432
 20
4175430.618
 30
719.9000244140625
 11
751766.908
 21
4175427.789
 31
719.9000244140625
  0
LINE
  5
192
330
1F
100
AcDbEntity
  8
720
370
     0
100
AcDbLine
 10
751768.369
 20
4175422.222
 30
720.0999755859375
 11
751769.18
 21
4175424.032
 31
720.0999755859375
  0
LINE
  5
193
330
1F
100
AcDbEntity
  8
720
370
     0
100
AcDbLine
 10
751769.18
 20
4175424.032
 30
720.0999755859375
 11
751770.158
 21
4175427.088
 31
719.9000244140625
  0
LINE
  5
194
330
1F
100
AcDbEntity
  8
720
370
     0
100
AcDbLine
 10
751770.158
 20
4175427.088
 30
719.9000244140625
 11
751771.431
 21
4175432.266
 31
719.85498046875
  0
LINE
  5
195
330
1F
100
AcDbEntity
  8
720
370
     0
100
AcDbLine
 10
751771.431
 20
4175432.266
 30
719.85498046875
 11
751771.736
 21
4175436.416
 31
719.9459838867188
  0
LINE
  5
196
330
1F
100
AcDbEntity
  8
720
370
     0
100
AcDbLine
 10
751766.908
 20
4175427.789
 30
719.9000244140625
 11
751765.588
 21
4175425.578
 31
720.0999755859375
  0
LINE
  5
197
330
1F
100
AcDbEntity
  8
720
370
     0
100
AcDbLine
 10
751765.588
 20
4175425.578
 30
720.0999755859375
 11
751763.1680691063
 21
4175421.49751614
 31
720.0999755859375
  0
LINE
  5
198
330
1F
100
AcDbEntity
  8
720
370
     0
100
AcDbLine
 10
751767.292
 20
4175421.033
 30
720.0999755859375
 11
751768.369
 21
4175422.222
 31
720.0999755859375
  0
LINE
  5
199
330
1F
100
AcDbEntity
  8
720
370
     0
100
AcDbLine
 10
751831.3670386996
 20
4175534.626835295
 30
734.4910278320312
 11
751833.151
 21
4175537.481
 31
734.9099731445312
  0
LINE
  5
19A
330
1F
100
AcDbEntity
  8
720
370
     0
100
AcDbLine
 10
751830.119
 20
4175539.637
 30
734.9099731445312
 11
751827.76
 21
4175535.736
 31
734.3319702148438
  0
LINE
  5
19B
330
1F
100
AcDbEntity
  8
720
370
     0
100
AcDbLine
 10
751762.754
 20
4175420.975
 30
720.0999755859375
 11
751761.373
 21
4175419.374
 31
720.0999755859375
  0
LINE
  5
19C
330
1F
100
AcDbEntity
  8
720
370
     0
100
AcDbLine
 10
751830.609
 20
4175540.722
 30
735.2999877929688
 11
751830.119
 21
4175539.637
 31
734.9099731445312
  0
LINE
  5
19D
330
1F
100
AcDbEntity
  8
720
370
     0
100
AcDbLine
 10
751833.151
 20
4175537.481
 30
734.9099731445312
 11
751833.823
 21
4175539.936
 31
735.2999877929688
  0
LINE
  5
19E
330
1F
100
AcDbEntity
  8
720
370
     0
100
AcDbLine
 10
751870.424
 20
4175559.662
 30
733.9619750976562
 11
751871.328
 21
4175559.949
 31
734.010009765625
  0
LINE
  5
19F
330
1F
100
AcDbEntity
  8
720
370
     0
100
AcDbLine
 10
751761.373
 20
4175419.374
 30
720.0999755859375
 11
751757.045
 21
4175414.776
 31
720.0999755859375
  0
LINE
  5
1A0
330
1F
100
AcDbEntity
  8
720
370
     0
100
AcDbLine
 10
751763.2631853556
 20
4175414.723024013
 30
720.0999755859375
 11
751764.637
 21
4175416.788
 31
720.0999755859375
  0
LINE
  5
1A1
330
1F
100
AcDbEntity
  8
720
370
     0
100
AcDbLine
 10
751764.637
 20
4175416.788
 30
720.0999755859375
 11
751767.292
 21
4175421.033
 31
720.0999755859375
  0
LINE
  5
1A2
330
1F
100
AcDbEntity
  8
720
370
     0
100
AcDbLine
 10
751757.045
 20
4175414.776
 30
720.0999755859375
 11
751759.0339541105
 21
4175412.372899859
 31
720.0999755859375
  0
LINE
  5
1A3
330
1F
100
AcDbEntity
  8
720
370
     0
100
AcDbLine
 10
751833.823
 20
4175539.936
 30
735.2999877929688
 11
751834.183
 21
4175541.9
 31
736.4000244140625
  0
LINE
  5
1A4
330
1F
100
AcDbEntity
  8
720
370
     0
100
AcDbLine
 10
751831.2204295285
 20
4175542.706757413
 30
736.4000244140625
 11
751830.609
 21
4175540.722
 31
735.2999877929688
  0
LINE
  5
1A5
330
1F
100
AcDbEntity
  8
720
370
     0
100
AcDbLine
 10
751759.0339541105
 20
4175412.372899859
 30
720.0999755859375
 11
751759.406
 21
4175411.817
 31
720.2000122070312
  0
LINE
  5
1A6
330
1F
100
AcDbEntity
  8
720
370
     0
100
AcDbLine
 10
751763.379
 20
4175413.032
 30
720.2160034179688
 11
751763.2631853556
 21
4175414.723024013
 31
720.0999755859375
  0
LINE
  5
1A7
330
1F
100
AcDbEntity
  8
720
370
     0
100
AcDbLine
 10
751834.183
 20
4175541.9
 30
736.4000244140625
 11
751834.558
 21
4175544.114
 31
736.5999755859375
  0
LINE
  5
1A8
330
1F
100
AcDbEntity
  8
720
370
     0
100
AcDbLine
 10
751831.192
 20
4175545.327
 30
736.5999755859375
 11
751831.137
 21
4175544.243
 31
736.5999755859375
  0
LINE
  5
1A9
330
1F
100
AcDbEntity
  8
720
370
     0
100
AcDbLine
 10
751831.137
 20
4175544.243
 30
736.5999755859375
 11
751831.2204295285
 21
4175542.706757413
 31
736.4000244140625
  0
LINE
  5
1AA
330
1F
100
AcDbEntity
  8
720
370
     0
100
AcDbLine
 10
751759.406
 20
4175411.817
 30
720.2000122070312
 11
751759.8687665912
 21
4175408.161316592
 31
719.9000244140625
  0
LINE
  5
1AB
330
1F
100
AcDbEntity
  8
720
370
     0
100
AcDbLine
 10
751762.7796777922
 20
4175405.231728175
 30
719.8499755859375
 11
751763.245
 21
4175409.77
 31
719.9000244140625
  0
LINE
  5
1AC
330
1F
100
AcDbEntity
  8
720
370
     0
100
AcDbLine
 10
751866.516
 20
4175555.89
 30
733.9140014648438
 11
751868.3280468812
 21
4175558.223745932
 31
734.1099853515625
  0
LINE
  5
1AD
330
1F
100
AcDbEntity
  8
720
370
     0
100
AcDbLine
 10
751759.8687665912
 20
4175408.161316592
 30
719.9000244140625
 11
751759.09
 21
4175405.113
 31
719.8250122070312
  0
LINE
  5
1AE
330
1F
100
AcDbEntity
  8
720
370
     0
100
AcDbLine
 10
751759.09
 20
4175405.113
 30
719.8250122070312
 11
751757.228
 21
4175403.025
 31
719.52197265625
  0
LINE
  5
1AF
330
1F
100
AcDbEntity
  8
720
370
     0
100
AcDbLine
 10
751757.228
 20
4175403.025
 30
719.52197265625
 11
751756.114
 21
4175400.741
 31
719.2169799804688
  0
LINE
  5
1B0
330
1F
100
AcDbEntity
  8
720
370
     0
100
AcDbLine
 10
751756.114
 20
4175400.741
 30
719.2169799804688
 11
751754.849
 21
4175399.082
 31
719.1489868164062
  0
LINE
  5
1B1
330
1F
100
AcDbEntity
  8
720
370
     0
100
AcDbLine
 10
751762.692
 20
4175401.448
 30
719.1719970703125
 11
751761.5189235286
 21
4175402.058348607
 31
719.416015625
  0
LINE
  5
1B2
330
1F
100
AcDbEntity
  8
720
370
     0
100
AcDbLine
 10
751761.5189235286
 20
4175402.058348607
 30
719.416015625
 11
751761.7865390737
 21
4175403.697512401
 31
719.7329711914062
  0
LINE
  5
1B3
330
1F
100
AcDbEntity
  8
720
370
     0
100
AcDbLine
 10
751761.7865390737
 20
4175403.697512401
 30
719.7329711914062
 11
751762.7796777922
 21
4175405.231728175
 31
719.8499755859375
  0
LINE
  5
1B4
330
1F
100
AcDbEntity
  8
720
370
     0
100
AcDbLine
 10
751834.558
 20
4175544.114
 30
736.5999755859375
 11
751834.685
 21
4175545.681
 31
737.0999755859375
  0
LINE
  5
1B5
330
1F
100
AcDbEntity
  8
720
370
     0
100
AcDbLine
 10
751834.685
 20
4175545.681
 30
737.0999755859375
 11
751834.565
 21
4175549.689
 31
737.6890258789062
  0
LINE
  5
1B6
330
1F
100
AcDbEntity
  8
720
370
     0
100
AcDbLine
 10
751834.565
 20
4175549.689
 30
737.6890258789062
 11
751835.7234027429
 21
4175554.146219335
 31
738.4819946289062
  0
LINE
  5
1B7
330
1F
100
AcDbEntity
  8
720
370
     0
100
AcDbLine
 10
751833.632
 20
4175562.607
 30
740.0599975585938
 11
751832.286
 21
4175560.839
 31
739.5999755859375
  0
LINE
  5
1B8
330
1F
100
AcDbEntity
  8
720
370
     0
100
AcDbLine
 10
751832.286
 20
4175560.839
 30
739.5999755859375
 11
751831.667
 21
4175555.498
 31
738.4819946289062
  0
LINE
  5
1B9
330
1F
100
AcDbEntity
  8
720
370
     0
100
AcDbLine
 10
751831.667
 20
4175555.498
 30
738.4819946289062
 11
751831.331
 21
4175550.023
 31
737.6890258789062
  0
LINE
  5
1BA
330
1F
100
AcDbEntity
  8
720
370
     0
100
AcDbLine
 10
751831.331
 20
4175550.023
 30
737.6890258789062
 11
751831.192
 21
4175545.327
 31
736.5999755859375
  0
LINE
  5
1BB
330
1F
100
AcDbEntity
  8
720
370
     0
100
AcDbLine
 10
751813.435
 20
4175501.301
 30
728.8699951171875
 11
751810.356
 21
4175501.011
 31
728.6099853515625
  0
LINE
  5
1BC
330
1F
100
AcDbEntity
  8
720
370
     0
100
AcDbLine
 10
751810.356
 20
4175501.011
 30
728.6099853515625
 11
751809.467
 21
4175498.543
 31
728.6099853515625
  0
LINE
  5
1BD
330
1F
100
AcDbEntity
  8
720
370
     0
100
AcDbLine
 10
751809.467
 20
4175498.543
 30
728.6099853515625
 11
751812.268
 21
4175497.999
 31
728.6370239257812
  0
LINE
  5
1BE
330
1F
100
AcDbEntity
  8
720
370
     0
100
AcDbLine
 10
751812.268
 20
4175497.999
 30
728.6370239257812
 11
751813.869
 21
4175497.375
 31
728.47802734375
  0
LINE
  5
1BF
330
1F
100
AcDbEntity
  8
720
370
     0
100
AcDbLine
 10
751836.639
 20
4175559.207
 30
739.5999755859375
 11
751837.487
 21
4175563.895
 31
740.1339721679688
  0
LINE
  5
1C0
330
1F
100
AcDbEntity
  8
720
370
     0
100
AcDbLine
 10
751837.487
 20
4175563.895
 30
740.1339721679688
 11
751839.295
 21
4175567.149
 31
740.5079956054688
  0
LINE
  5
1C1
330
1F
100
AcDbEntity
  8
720
370
     0
100
AcDbLine
 10
751840.803
 20
4175572.94
 30
741.4849853515625
 11
751838.898
 21
4175571.258
 31
741.1740112304688
  0
LINE
  5
1C2
330
1F
100
AcDbEntity
  8
720
370
     0
100
AcDbLine
 10
751741.173
 20
4175379.04
 30
719.4580078125
 11
751738.32
 21
4175377.728
 31
719.1170043945312
  0
LINE
  5
1C3
330
1F
100
AcDbEntity
  8
720
370
     0
100
AcDbLine
 10
751738.32
 20
4175377.728
 30
719.1170043945312
 11
751730.258
 21
4175374.913
 31
718.2000122070312
  0
LINE
  5
1C4
330
1F
100
AcDbEntity
  8
720
370
     0
100
AcDbLine
 10
751731.437
 20
4175371.572
 30
717.8519897460938
 11
751732.672
 21
4175371.864
 31
718.3070068359375
  0
LINE
  5
1C5
330
1F
100
AcDbEntity
  8
720
370
     0
100
AcDbLine
 10
751732.672
 20
4175371.864
 30
718.3070068359375
 11
751737.174
 21
4175373.535
 31
718.6489868164062
  0
LINE
  5
1C6
330
1F
100
AcDbEntity
  8
720
370
     0
100
AcDbLine
 10
751737.174
 20
4175373.535
 30
718.6489868164062
 11
751739.32
 21
4175374.347
 31
718.8889770507812
  0
LINE
  5
1C7
330
1F
100
AcDbEntity
  8
720
370
     0
100
AcDbLine
 10
751739.32
 20
4175374.347
 30
718.8889770507812
 11
751739.712
 21
4175374.544
 31
718.926025390625
  0
LINE
  5
1C8
330
1F
100
AcDbEntity
  8
720
370
     0
100
AcDbLine
 10
751739.712
 20
4175374.544
 30
718.926025390625
 11
751741.396
 21
4175374.521
 31
719.1069946289062
  0
LINE
  5
1C9
330
1F
100
AcDbEntity
  8
720
370
     0
100
AcDbLine
 10
751741.396
 20
4175374.521
 30
719.1069946289062
 11
751742.616
 21
4175374.509
 31
719.125
  0
LINE
  5
1CA
330
1F
100
AcDbEntity
  8
720
370
     0
100
AcDbLine
 10
751742.616
 20
4175374.509
 30
719.125
 11
751743.716
 21
4175374.104
 31
719.0689697265625
  0
LINE
  5
1CB
330
1F
100
AcDbEntity
  8
720
370
     0
100
AcDbLine
 10
751744.485
 20
4175376.954
 30
719.260009765625
 11
751743.961
 21
4175377.66
 31
719.1790161132812
  0
LINE
  5
1CC
330
1F
100
AcDbEntity
  8
720
370
     0
100
AcDbLine
 10
751743.961
 20
4175377.66
 30
719.1790161132812
 11
751745.32
 21
4175379.672
 31
719.4080200195312
  0
LINE
  5
1CD
330
1F
100
AcDbEntity
  8
720
370
     0
100
AcDbLine
 10
751745.32
 20
4175379.672
 30
719.4080200195312
 11
751749.45
 21
4175384.763
 31
719.2750244140625
  0
LINE
  5
1CE
330
1F
100
AcDbEntity
  8
720
370
     0
100
AcDbLine
 10
751805.433
 20
4175463.537
 30
724.3109741210938
 11
751807.475
 21
4175465.727
 31
724.77099609375
  0
LINE
  5
1CF
330
1F
100
AcDbEntity
  8
720
370
     0
100
AcDbLine
 10
751839.295
 20
4175567.149
 30
740.5079956054688
 11
751840.262
 21
4175567.759
 31
740.9110107421875
  0
LINE
  5
1D0
330
1F
100
AcDbEntity
  8
720
370
     0
100
AcDbLine
 10
751840.262
 20
4175567.759
 30
740.9110107421875
 11
751842.47
 21
4175569.172
 31
741.5079956054688
  0
LINE
  5
1D1
330
1F
100
AcDbEntity
  8
720
370
     0
100
AcDbLine
 10
751842.47
 20
4175569.172
 30
741.5079956054688
 11
751847.219
 21
4175570.53
 31
741.5800170898438
  0
LINE
  5
1D2
330
1F
100
AcDbEntity
  8
720
370
     0
100
AcDbLine
 10
751847.219
 20
4175570.53
 30
741.5800170898438
 11
751849.582
 21
4175571.277
 31
741.5800170898438
  0
LINE
  5
1D3
330
1F
100
AcDbEntity
  8
720
370
     0
100
AcDbLine
 10
751849.582
 20
4175571.277
 30
741.5800170898438
 11
751847.975
 21
4175574.09
 31
741.5800170898438
  0
LINE
  5
1D4
330
1F
100
AcDbEntity
  8
720
370
     0
100
AcDbLine
 10
751847.975
 20
4175574.09
 30
741.5800170898438
 11
751845.539
 21
4175573.659
 31
741.5800170898438
  0
LINE
  5
1D5
330
1F
100
AcDbEntity
  8
720
370
     0
100
AcDbLine
 10
751845.539
 20
4175573.659
 30
741.5800170898438
 11
751844.101
 21
4175573.565
 31
741.5800170898438
  0
LINE
  5
1D6
330
1F
100
AcDbEntity
  8
720
370
     0
100
AcDbLine
 10
751838.898
 20
4175571.258
 30
741.1740112304688
 11
751837.41
 21
4175570.546
 31
741.0469970703125
  0
LINE
  5
1D7
330
1F
100
AcDbEntity
  8
720
370
     0
100
AcDbLine
 10
751837.41
 20
4175570.546
 30
741.0469970703125
 11
751835.984
 21
4175570.869
 31
741.1929931640625
  0
LINE
  5
1D8
330
1F
100
AcDbEntity
  8
720
370
     0
100
AcDbLine
 10
751835.984
 20
4175570.869
 30
741.1929931640625
 11
751834.685
 21
4175572.812
 31
741.5050048828125
  0
LINE
  5
1D9
330
1F
100
AcDbEntity
  8
720
370
     0
100
AcDbLine
 10
751833.786
 20
4175567.485
 30
740.916015625
 11
751833.927
 21
4175565.626
 31
740.7249755859375
  0
LINE
  5
1DA
330
1F
100
AcDbEntity
  8
720
370
     0
100
AcDbLine
 10
751833.927
 20
4175565.626
 30
740.7249755859375
 11
751833.632
 21
4175562.607
 31
740.0599975585938
  0
LINE
  5
1DB
330
1F
100
AcDbEntity
  8
720
370
     0
100
AcDbLine
 10
751829.244
 20
4175495.94
 30
730.135009765625
 11
751831.43
 21
4175494.846
 31
730.9010009765625
  0
LINE
  5
1DC
330
1F
100
AcDbEntity
  8
720
370
     0
100
AcDbLine
 10
751834.071
 20
4175496.383
 30
731.3040161132812
 11
751832.933
 21
4175497.283
 31
730.594970703125
  0
LINE
  5
1DD
330
1F
100
AcDbEntity
  8
720
370
     0
100
AcDbLine
 10
751838.441
 20
4175492.668
 30
732.81201171875
 11
751840.578
 21
4175493.016
 31
731.9920043945312
  0
LINE
  5
1DE
330
1F
100
AcDbEntity
  8
720
370
     0
100
AcDbLine
 10
751843.213
 20
4175490.22
 30
733.041015625
 11
751842.897
 21
4175490.914
 31
732.0980224609375
  0
LINE
  5
1DF
330
1F
100
AcDbEntity
  8
720
370
     0
100
AcDbLine
 10
751853.401
 20
4175481.195
 30
734.4240112304688
 11
751853.9
 21
4175481.06
 31
733.7999877929688
  0
LINE
  5
1E0
330
1F
100
AcDbEntity
  8
720
370
     0
100
AcDbLine
 10
751853.9
 20
4175481.06
 30
733.7999877929688
 11
751854.725
 21
4175483.401
 31
733.7999877929688
  0
LINE
  5
1E1
330
1F
100
AcDbEntity
  8
720
370
     0
100
AcDbLine
 10
751851.011
 20
4175485.744
 30
733.7440185546875
 11
751849.695
 21
4175486.601
 31
734.052001953125
  0
LINE
  5
1E2
330
1F
100
AcDbEntity
  8
720
370
     0
100
AcDbLine
 10
751763.1680691063
 20
4175421.49751614
 30
720.0999755859375
 11
751762.754
 21
4175420.975
 31
720.0999755859375
  0
LINE
  5
1E3
330
1F
100
AcDbEntity
  8
720
370
     0
100
AcDbLine
 10
751855.368
 20
4175548.406
 30
733.6630249023438
 11
751856.58
 21
4175549.398
 31
734.0419921875
  0
LINE
  5
1E4
330
1F
100
AcDbEntity
  8
720
370
     0
100
AcDbLine
 10
751856.58
 20
4175549.398
 30
734.0419921875
 11
751857.282
 21
4175549.302
 31
734.1719970703125
  0
LINE
  5
1E5
330
1F
100
AcDbEntity
  8
720
370
     0
100
AcDbLine
 10
751857.282
 20
4175549.302
 30
734.1719970703125
 11
751857.964
 21
4175548.624
 31
734.7360229492188
  0
LINE
  5
1E6
330
1F
100
AcDbEntity
  8
720
370
     0
100
AcDbLine
 10
751859.713
 20
4175551.486
 30
734.0819702148438
 11
751860.432
 21
4175552.367
 31
734.14697265625
  0
LINE
  5
1E7
330
1F
100
AcDbEntity
  8
720
370
     0
100
AcDbLine
 10
751860.432
 20
4175552.367
 30
734.14697265625
 11
751863.819
 21
4175554.026
 31
733.9580078125
  0
LINE
  5
1E8
330
1F
100
AcDbEntity
  8
720
370
     0
100
AcDbLine
 10
751854.725
 20
4175483.401
 30
733.7999877929688
 11
751855.2309829444
 21
4175484.222980274
 31
734.3889770507812
  0
LINE
  5
1E9
330
1F
100
AcDbEntity
  8
720
370
     0
100
AcDbLine
 10
751855.2309829444
 20
4175484.222980274
 30
734.3889770507812
 11
751855.591
 21
4175484.688
 31
734.427001953125
  0
LINE
  5
1EA
330
1F
100
AcDbEntity
  8
720
370
     0
100
AcDbLine
 10
751852.42
 20
4175486.045
 30
734.3629760742188
 11
751851.011
 21
4175485.744
 31
733.7440185546875
  0
LINE
  5
1EB
330
1F
100
AcDbEntity
  8
720
370
     0
100
AcDbLine
 10
751834.685
 20
4175572.812
 30
741.5050048828125
 11
751832.572
 21
4175576.991
 31
742.2830200195312
  0
LINE
  5
1EC
330
1F
100
AcDbEntity
  8
720
370
     0
100
AcDbLine
 10
751832.572
 20
4175576.991
 30
742.2830200195312
 11
751831.908
 21
4175577.935
 31
742.2000122070312
  0
LINE
  5
1ED
330
1F
100
AcDbEntity
  8
720
370
     0
100
AcDbLine
 10
751831.908
 20
4175577.935
 30
742.2000122070312
 11
751830.4316597319
 21
4175578.795277652
 31
742.64697265625
  0
LINE
  5
1EE
330
1F
100
AcDbEntity
  8
720
370
     0
100
AcDbLine
 10
751838.651
 20
4175554.671
 30
739.7620239257812
 11
751840.512942402
 21
4175554.100281935
 31
740.2589721679688
  0
LINE
  5
1EF
330
1F
100
AcDbEntity
  8
720
370
     0
100
AcDbLine
 10
751839.975
 20
4175557.825
 30
739.89697265625
 11
751837.96
 21
4175558.56
 31
739.573974609375
  0
LINE
  5
1F0
330
1F
100
AcDbEntity
  8
720
370
     0
100
AcDbLine
 10
751837.96
 20
4175558.56
 30
739.573974609375
 11
751836.639
 21
4175559.207
 31
739.5999755859375
  0
LINE
  5
1F1
330
1F
100
AcDbEntity
  8
720
370
     0
100
AcDbLine
 10
751835.7234027429
 20
4175554.146219335
 30
738.4819946289062
 11
751836.4053602206
 21
4175554.667716229
 31
739.0789794921875
  0
LINE
  5
1F2
330
1F
100
AcDbEntity
  8
720
370
     0
100
AcDbLine
 10
751836.4053602206
 20
4175554.667716229
 30
739.0789794921875
 11
751838.651
 21
4175554.671
 31
739.7620239257812
  0
LINE
  5
1F3
330
1F
100
AcDbEntity
  8
720
370
     0
100
AcDbLine
 10
751855.591
 20
4175484.688
 30
734.427001953125
 11
751857.086
 21
4175485.758
 31
734.2999877929688
  0
LINE
  5
1F4
330
1F
100
AcDbEntity
  8
720
370
     0
100
AcDbLine
 10
751854.738
 20
4175488.006
 30
734.2999877929688
 11
751853.26
 21
4175486.849
 31
734.2999877929688
  0
LINE
  5
1F5
330
1F
100
AcDbEntity
  8
720
370
     0
100
AcDbLine
 10
751853.26
 20
4175486.849
 30
734.2999877929688
 11
751852.42
 21
4175486.045
 31
734.3629760742188
  0
LINE
  5
1F6
330
1F
100
AcDbEntity
  8
720
370
     0
100
AcDbLine
 10
751857.964
 20
4175548.624
 30
734.7360229492188
 11
751858.2784437304
 21
4175548.251600976
 31
734.7670288085938
  0
LINE
  5
1F7
330
1F
100
AcDbEntity
  8
720
370
     0
100
AcDbLine
 10
751840.512942402
 20
4175554.100281935
 30
740.2589721679688
 11
751843.302
 21
4175554.689
 31
740.3670043945312
  0
LINE
  5
1F8
330
1F
100
AcDbEntity
  8
720
370
     0
100
AcDbLine
 10
751843.302
 20
4175554.689
 30
740.3670043945312
 11
751844.779
 21
4175554.958
 31
740.4940185546875
  0
LINE
  5
1F9
330
1F
100
AcDbEntity
  8
720
370
     0
100
AcDbLine
 10
751845.261
 20
4175558.41
 30
740.2459716796875
 11
751842.898
 21
4175557.969
 31
740.2429809570312
  0
LINE
  5
1FA
330
1F
100
AcDbEntity
  8
720
370
     0
100
AcDbLine
 10
751842.898
 20
4175557.969
 30
740.2429809570312
 11
751841.664
 21
4175557.736
 31
740.0029907226562
  0
LINE
  5
1FB
330
1F
100
AcDbEntity
  8
720
370
     0
100
AcDbLine
 10
751841.664
 20
4175557.736
 30
740.0029907226562
 11
751839.975
 21
4175557.825
 31
739.89697265625
  0
LINE
  5
1FC
330
1F
100
AcDbEntity
  8
720
370
     0
100
AcDbLine
 10
751857.086
 20
4175485.758
 30
734.2999877929688
 11
751857.808
 21
4175486.696
 31
734.9169921875
  0
LINE
  5
1FD
330
1F
100
AcDbEntity
  8
720
370
     0
100
AcDbLine
 10
751857.808
 20
4175486.696
 30
734.9169921875
 11
751859.586
 21
4175488.548
 31
735.135986328125
  0
LINE
  5
1FE
330
1F
100
AcDbEntity
  8
720
370
     0
100
AcDbLine
 10
751859.586
 20
4175488.548
 30
735.135986328125
 11
751860.093
 21
4175489.254
 31
735.2349853515625
  0
LINE
  5
1FF
330
1F
100
AcDbEntity
  8
720
370
     0
100
AcDbLine
 10
751856.208
 20
4175489.522
 30
734.7169799804688
 11
751855.534
 21
4175488.755
 31
734.5590209960938
  0
LINE
  5
200
330
1F
100
AcDbEntity
  8
720
370
     0
100
AcDbLine
 10
751855.534
 20
4175488.755
 30
734.5590209960938
 11
751854.738
 21
4175488.006
 31
734.2999877929688
  0
LINE
  5
201
330
1F
100
AcDbEntity
  8
720
370
     0
100
AcDbLine
 10
751844.779
 20
4175554.958
 30
740.4940185546875
 11
751848.46
 21
4175556.199
 31
740.447021484375
  0
LINE
  5
202
330
1F
100
AcDbEntity
  8
720
370
     0
100
AcDbLine
 10
751848.46
 20
4175556.199
 30
740.447021484375
 11
751851.752
 21
4175557.713
 31
740.6530151367188
  0
LINE
  5
203
330
1F
100
AcDbEntity
  8
720
370
     0
100
AcDbLine
 10
751850.2949323027
 20
4175560.617210336
 30
740.7990112304688
 11
751847.310671428
 21
4175558.959597243
 31
740.3909912109375
  0
LINE
  5
204
330
1F
100
AcDbEntity
  8
720
370
     0
100
AcDbLine
 10
751811.286
 20
4175475.677
 30
725.9000244140625
 11
751814.724
 21
4175478.27
 31
726.6810302734375
  0
LINE
  5
205
330
1F
100
AcDbEntity
  8
720
370
     0
100
AcDbLine
 10
751814.724
 20
4175478.27
 30
726.6810302734375
 11
751816.524
 21
4175476.833
 31
727.5269775390625
  0
LINE
  5
206
330
1F
100
AcDbEntity
  8
720
370
     0
100
AcDbLine
 10
751818.632
 20
4175479.406
 30
727.3980102539062
 11
751817.728
 21
4175480.204
 31
727.030029296875
  0
LINE
  5
207
330
1F
100
AcDbEntity
  8
720
370
     0
100
AcDbLine
 10
751817.728
 20
4175480.204
 30
727.030029296875
 11
751816.16
 21
4175481.763
 31
726.7379760742188
  0
LINE
  5
208
330
1F
100
AcDbEntity
  8
720
370
     0
100
AcDbLine
 10
751816.16
 20
4175481.763
 30
726.7379760742188
 11
751817.3938584151
 21
4175484.177385502
 31
727.1129760742188
  0
LINE
  5
209
330
1F
100
AcDbEntity
  8
720
370
     0
100
AcDbLine
 10
751851.752
 20
4175557.713
 30
740.6530151367188
 11
751853.21
 21
4175558.275
 31
740.8800048828125
  0
LINE
  5
20A
330
1F
100
AcDbEntity
  8
720
370
     0
100
AcDbLine
 10
751853.21
 20
4175558.275
 30
740.8800048828125
 11
751854.655
 21
4175559.42
 31
741.010009765625
  0
LINE
  5
20B
330
1F
100
AcDbEntity
  8
720
370
     0
100
AcDbLine
 10
751852.536
 20
4175562.729
 30
741.010009765625
 11
751850.2949323027
 21
4175560.617210336
 31
740.7990112304688
  0
LINE
  5
20C
330
1F
100
AcDbEntity
  8
720
370
     0
100
AcDbLine
 10
751854.655
 20
4175559.42
 30
741.010009765625
 11
751856.898
 21
4175562.113
 31
741.8579711914062
  0
LINE
  5
20D
330
1F
100
AcDbEntity
  8
720
370
     0
100
AcDbLine
 10
751854.875
 20
4175564.74
 30
741.8579711914062
 11
751852.536
 21
4175562.729
 31
741.010009765625
  0
LINE
  5
20E
330
1F
100
AcDbEntity
  8
720
370
     0
100
AcDbLine
 10
751830.4316597319
 20
4175578.795277652
 30
742.64697265625
 11
751828.452
 21
4175579.384
 31
743.43701171875
  0
LINE
  5
20F
330
1F
100
AcDbEntity
  8
720
370
     0
100
AcDbLine
 10
751828.452
 20
4175579.384
 30
743.43701171875
 11
751825.296
 21
4175579.513
 31
743.7420043945312
  0
LINE
  5
210
330
1F
100
AcDbEntity
  8
720
370
     0
100
AcDbLine
 10
751824.804
 20
4175575.643
 30
743.7760009765625
 11
751828.144
 21
4175574.772
 31
742.8040161132812
  0
LINE
  5
211
330
1F
100
AcDbEntity
  8
720
370
     0
100
AcDbLine
 10
751828.144
 20
4175574.772
 30
742.8040161132812
 11
751830.064
 21
4175573.618
 31
742.1950073242188
  0
LINE
  5
212
330
1F
100
AcDbEntity
  8
720
370
     0
100
AcDbLine
 10
751856.898
 20
4175562.113
 30
741.8579711914062
 11
751860.2652432743
 21
4175565.171219462
 31
742.4580078125
  0
LINE
  5
213
330
1F
100
AcDbEntity
  8
720
370
     0
100
AcDbLine
 10
751860.2652432743
 20
4175565.171219462
 30
742.4580078125
 11
751861.6612090613
 21
4175566.214821602
 31
742.8389892578125
  0
LINE
  5
214
330
1F
100
AcDbEntity
  8
720
370
     0
100
AcDbLine
 10
751861.6612090613
 20
4175566.214821602
 30
742.8389892578125
 11
751862.309
 21
4175566.47
 31
742.9000244140625
  0
LINE
  5
215
330
1F
100
AcDbEntity
  8
720
370
     0
100
AcDbLine
 10
751862.309
 20
4175566.47
 30
742.9000244140625
 11
751863.827
 21
4175567.527
 31
743.25
  0
LINE
  5
216
330
1F
100
AcDbEntity
  8
720
370
     0
100
AcDbLine
 10
751864.1845233423
 20
4175571.75850677
 30
743.7000122070312
 11
751860.407
 21
4175570.488
 31
742.9000244140625
  0
LINE
  5
217
330
1F
100
AcDbEntity
  8
720
370
     0
100
AcDbLine
 10
751860.407
 20
4175570.488
 30
742.9000244140625
 11
751857.921
 21
4175568.0
 31
742.9600219726562
  0
LINE
  5
218
330
1F
100
AcDbEntity
  8
720
370
     0
100
AcDbLine
 10
751857.921
 20
4175568.0
 30
742.9600219726562
 11
751854.875
 21
4175564.74
 31
741.8579711914062
  0
LINE
  5
219
330
1F
100
AcDbEntity
  8
720
370
     0
100
AcDbLine
 10
751863.827
 20
4175567.527
 30
743.25
 11
751865.42
 21
4175567.938
 31
743.5679931640625
  0
LINE
  5
21A
330
1F
100
AcDbEntity
  8
720
370
     0
100
AcDbLine
 10
751865.42
 20
4175567.938
 30
743.5679931640625
 11
751868.586
 21
4175569.254
 31
744.0079956054688
  0
LINE
  5
21B
330
1F
100
AcDbEntity
  8
720
370
     0
100
AcDbLine
 10
751868.097
 20
4175572.856
 30
743.8560180664062
 11
751864.1845233423
 21
4175571.75850677
 31
743.7000122070312
  0
LINE
  5
21C
330
1F
100
AcDbEntity
  8
720
370
     0
100
AcDbLine
 10
751847.310671428
 20
4175558.959597243
 30
740.3909912109375
 11
751845.261
 21
4175558.41
 31
740.2459716796875
  0
LINE
  5
21D
330
1F
100
AcDbEntity
  8
720
370
     0
100
AcDbLine
 10
751868.586
 20
4175569.254
 30
744.0079956054688
 11
751871.7149015159
 21
4175570.527379375
 31
744.0700073242188
  0
LINE
  5
21E
330
1F
100
AcDbEntity
  8
720
370
     0
100
AcDbLine
 10
751871.7149015159
 20
4175570.527379375
 30
744.0700073242188
 11
751876.8349211428
 21
4175572.029886629
 31
744.3200073242188
  0
LINE
  5
21F
330
1F
100
AcDbEntity
  8
720
370
     0
100
AcDbLine
 10
751877.4431527209
 20
4175575.186204454
 30
744.385986328125
 11
751872.660556701
 21
4175574.607164335
 31
744.4099731445312
  0
LINE
  5
220
330
1F
100
AcDbEntity
  8
720
370
     0
100
AcDbLine
 10
751872.660556701
 20
4175574.607164335
 30
744.4099731445312
 11
751868.097
 21
4175572.856
 31
743.8560180664062
  0
LINE
  5
221
330
1F
100
AcDbEntity
  8
720
370
     0
100
AcDbLine
 10
751876.8349211428
 20
4175572.029886629
 30
744.3200073242188
 11
751880.8341328193
 21
4175572.63670608
 31
744.3189697265625
  0
LINE
  5
222
330
1F
100
AcDbEntity
  8
720
370
     0
100
AcDbLine
 10
751886.2724738194
 20
4175574.413465149
 30
744.3099975585938
 11
751886.358
 21
4175571.695
 31
744.47998046875
  0
LINE
  5
223
330
1F
100
AcDbEntity
  8
720
370
     0
100
AcDbLine
 10
751880.8341328193
 20
4175572.63670608
 30
744.3189697265625
 11
751886.2724738194
 21
4175574.413465149
 31
744.3099975585938
  0
LINE
  5
224
330
1F
100
AcDbEntity
  8
720
370
     0
100
AcDbLine
 10
751879.8032806405
 20
4175575.981440648
 30
744.3189697265625
 11
751877.4431527209
 21
4175575.186204454
 31
744.385986328125
  0
LINE
  5
225
330
1F
100
AcDbEntity
  8
720
370
     0
100
AcDbLine
 10
751771.589
 20
4175400.166
 30
721.219970703125
 11
751777.622
 21
4175399.682
 31
723.0120239257812
  0
LINE
  5
226
330
1F
100
AcDbEntity
  8
720
370
     0
100
AcDbLine
 10
751777.622
 20
4175399.682
 30
723.0120239257812
 11
751784.422
 21
4175401.537
 31
723.9879760742188
  0
LINE
  5
227
330
1F
100
AcDbEntity
  8
720
370
     0
100
AcDbLine
 10
751784.422
 20
4175401.537
 30
723.9879760742188
 11
751785.637
 21
4175404.827
 31
723.885009765625
  0
LINE
  5
228
330
1F
100
AcDbEntity
  8
720
370
     0
100
AcDbLine
 10
751785.637
 20
4175404.827
 30
723.885009765625
 11
751788.453
 21
4175407.26
 31
723.89501953125
  0
LINE
  5
229
330
1F
100
AcDbEntity
  8
720
370
     0
100
AcDbLine
 10
751788.453
 20
4175407.26
 30
723.89501953125
 11
751791.582
 21
4175409.564
 31
724.8679809570312
  0
LINE
  5
22A
330
1F
100
AcDbEntity
  8
720
370
     0
100
AcDbLine
 10
751791.582
 20
4175409.564
 30
724.8679809570312
 11
751792.754
 21
4175410.791
 31
724.8679809570312
  0
LINE
  5
22B
330
1F
100
AcDbEntity
  8
720
370
     0
100
AcDbLine
 10
751792.754
 20
4175410.791
 30
724.8679809570312
 11
751794.099
 21
4175412.828
 31
725.1069946289062
  0
LINE
  5
22C
330
1F
100
AcDbEntity
  8
720
370
     0
100
AcDbLine
 10
751794.099
 20
4175412.828
 30
725.1069946289062
 11
751797.761
 21
4175415.354
 31
724.9400024414062
  0
LINE
  5
22D
330
1F
100
AcDbEntity
  8
720
370
     0
100
AcDbLine
 10
751797.761
 20
4175415.354
 30
724.9400024414062
 11
751795.395
 21
4175416.635
 31
724.9400024414062
  0
LINE
  5
22E
330
1F
100
AcDbEntity
  8
720
370
     0
100
AcDbLine
 10
751795.395
 20
4175416.635
 30
724.9400024414062
 11
751790.063
 21
4175412.715
 31
724.8679809570312
  0
LINE
  5
22F
330
1F
100
AcDbEntity
  8
720
370
     0
100
AcDbLine
 10
751790.063
 20
4175412.715
 30
724.8679809570312
 11
751785.642
 21
4175409.642
 31
723.89501953125
  0
LINE
  5
230
330
1F
100
AcDbEntity
  8
720
370
     0
100
AcDbLine
 10
751785.642
 20
4175409.642
 30
723.89501953125
 11
751783.765
 21
4175408.748
 31
723.8079833984375
  0
LINE
  5
231
330
1F
100
AcDbEntity
  8
720
370
     0
100
AcDbLine
 10
751783.765
 20
4175408.748
 30
723.8079833984375
 11
751776.585
 21
4175405.38
 31
722.7059936523438
  0
LINE
  5
232
330
1F
100
AcDbEntity
  8
720
370
     0
100
AcDbLine
 10
751776.585
 20
4175405.38
 30
722.7059936523438
 11
751775.26
 21
4175403.66
 31
722.0360107421875
  0
LINE
  5
233
330
1F
100
AcDbEntity
  8
720
370
     0
100
AcDbLine
 10
751775.26
 20
4175403.66
 30
722.0360107421875
 11
751772.647
 21
4175403.091
 31
719.3839721679688
  0
LINE
  5
234
330
1F
100
AcDbEntity
  8
720
370
     0
100
AcDbLine
 10
751827.76
 20
4175535.736
 30
734.3319702148438
 11
751825.859
 21
4175532.421
 31
733.52001953125
  0
LINE
  5
235
330
1F
100
AcDbEntity
  8
720
370
     0
100
AcDbLine
 10
751825.859
 20
4175532.421
 30
733.52001953125
 11
751824.558
 21
4175529.585
 31
732.7890014648438
  0
LINE
  5
236
330
1F
100
AcDbEntity
  8
720
370
     0
100
AcDbLine
 10
751824.558
 20
4175529.585
 30
732.7890014648438
 11
751823.503
 21
4175525.413
 31
731.89599609375
  0
LINE
  5
237
330
1F
100
AcDbEntity
  8
720
370
     0
100
AcDbLine
 10
751823.503
 20
4175525.413
 30
731.89599609375
 11
751821.341
 21
4175521.11
 31
730.9249877929688
  0
LINE
  5
238
330
1F
100
AcDbEntity
  8
720
370
     0
100
AcDbLine
 10
751821.341
 20
4175521.11
 30
730.9249877929688
 11
751819.709
 21
4175517.369
 31
730.3400268554688
  0
LINE
  5
239
330
1F
100
AcDbEntity
  8
720
370
     0
100
AcDbLine
 10
751819.709
 20
4175517.369
 30
730.3400268554688
 11
751817.233
 21
4175512.334
 31
729.2789916992188
  0
LINE
  5
23A
330
1F
100
AcDbEntity
  8
720
370
     0
100
AcDbLine
 10
751817.233
 20
4175512.334
 30
729.2789916992188
 11
751814.977
 21
4175507.33
 31
728.8720092773438
  0
LINE
  5
23B
330
1F
100
AcDbEntity
  8
720
370
     0
100
AcDbLine
 10
751818.175
 20
4175506.177
 30
728.8400268554688
 11
751819.844
 21
4175510.452
 31
729.0139770507812
  0
LINE
  5
23C
330
1F
100
AcDbEntity
  8
720
370
     0
100
AcDbLine
 10
751819.844
 20
4175510.452
 30
729.0139770507812
 11
751820.946
 21
4175512.875
 31
729.5689697265625
  0
LINE
  5
23D
330
1F
100
AcDbEntity
  8
720
370
     0
100
AcDbLine
 10
751820.946
 20
4175512.875
 30
729.5689697265625
 11
751822.671
 21
4175516.368
 31
730.3389892578125
  0
LINE
  5
23E
330
1F
100
AcDbEntity
  8
720
370
     0
100
AcDbLine
 10
751822.671
 20
4175516.368
 30
730.3389892578125
 11
751825.322
 21
4175520.876
 31
731.302001953125
  0
LINE
  5
23F
330
1F
100
AcDbEntity
  8
720
370
     0
100
AcDbLine
 10
751825.322
 20
4175520.876
 30
731.302001953125
 11
751826.439
 21
4175523.335
 31
731.77099609375
  0
LINE
  5
240
330
1F
100
AcDbEntity
  8
720
370
     0
100
AcDbLine
 10
751826.439
 20
4175523.335
 30
731.77099609375
 11
751829.287
 21
4175530.705
 31
733.4429931640625
  0
LINE
  5
241
330
1F
100
AcDbEntity
  8
720
370
     0
100
AcDbLine
 10
751825.296
 20
4175579.513
 30
743.7420043945312
 11
751821.9186235615
 21
4175579.162557371
 31
743.9650268554688
  0
LINE
  5
242
330
1F
100
AcDbEntity
  8
720
370
     0
100
AcDbLine
 10
751821.9186235615
 20
4175579.162557371
 30
743.9650268554688
 11
751822.1137241735
 21
4175575.104464641
 31
743.8679809570312
  0
LINE
  5
243
330
1F
100
AcDbEntity
  8
720
370
     0
100
AcDbLine
 10
751822.1137241735
 20
4175575.104464641
 30
743.8679809570312
 11
751824.804
 21
4175575.643
 31
743.7760009765625
  0
LINE
  5
244
330
1F
100
AcDbEntity
  8
720
370
     0
100
AcDbLine
 10
751830.064
 20
4175573.618
 30
742.1950073242188
 11
751830.2287259946
 21
4175573.251107575
 31
742.2949829101562
  0
LINE
  5
245
330
1F
100
AcDbEntity
  8
720
370
     0
100
AcDbLine
 10
751830.2287259946
 20
4175573.251107575
 30
742.2949829101562
 11
751829.0705414183
 21
4175571.7633229
 31
742.6649780273438
  0
LINE
  5
246
330
1F
100
AcDbEntity
  8
720
370
     0
100
AcDbLine
 10
751829.0705414183
 20
4175571.7633229
 30
742.6649780273438
 11
751828.107
 21
4175571.442
 31
742.0900268554688
  0
LINE
  5
247
330
1F
100
AcDbEntity
  8
720
370
     0
100
AcDbLine
 10
751828.107
 20
4175571.442
 30
742.0900268554688
 11
751825.947
 21
4175570.829
 31
742.2670288085938
  0
LINE
  5
248
330
1F
100
AcDbEntity
  8
720
370
     0
100
AcDbLine
 10
751825.947
 20
4175570.829
 30
742.2670288085938
 11
751826.964
 21
4175568.13
 31
742.0159912109375
  0
LINE
  5
249
330
1F
100
AcDbEntity
  8
720
370
     0
100
AcDbLine
 10
751826.964
 20
4175568.13
 30
742.0159912109375
 11
751830.847
 21
4175569.074
 31
741.8200073242188
  0
LINE
  5
24A
330
1F
100
AcDbEntity
  8
720
370
     0
100
AcDbLine
 10
751830.847
 20
4175569.074
 30
741.8200073242188
 11
751832.818
 21
4175568.811
 31
741.2459716796875
  0
LINE
  5
24B
330
1F
100
AcDbEntity
  8
720
370
     0
100
AcDbLine
 10
751832.818
 20
4175568.811
 30
741.2459716796875
 11
751833.405
 21
4175568.574
 31
741.1300048828125
  0
LINE
  5
24C
330
1F
100
AcDbEntity
  8
720
370
     0
100
AcDbLine
 10
751833.405
 20
4175568.574
 30
741.1300048828125
 11
751833.786
 21
4175567.485
 31
740.916015625
  0
LINE
  5
24D
330
1F
100
AcDbEntity
  8
720
370
     0
100
AcDbLine
 10
751763.245
 20
4175409.77
 30
719.9000244140625
 11
751763.379
 21
4175413.032
 31
720.2160034179688
  0
LINE
  5
24E
330
1F
100
AcDbEntity
  8
720
370
     0
100
AcDbLine
 10
751859.0673776432
 20
4175536.584112891
 30
734.6519775390625
 11
751860.538
 21
4175538.569
 31
733.6740112304688
  0
LINE
  5
24F
330
1F
100
AcDbEntity
  8
720
370
     0
100
AcDbLine
 10
751856.962
 20
4175538.469
 30
733.4219970703125
 11
751856.1571404164
 21
4175537.326099253
 31
733.302978515625
  0
LINE
  5
250
330
1F
100
AcDbEntity
  8
720
370
     0
100
AcDbLine
 10
751873.601
 20
4175545.025
 30
740.02099609375
 11
751871.213
 21
4175546.324
 31
739.0759887695312
  0
LINE
  5
251
330
1F
100
AcDbEntity
  8
720
370
     0
100
AcDbLine
 10
751872.475
 20
4175541.719
 30
739.9509887695312
 11
751874.866671568
 21
4175539.745452614
 31
738.7930297851562
  0
LINE
  5
252
330
1F
100
AcDbEntity
  8
720
370
     0
100
AcDbLine
 10
751888.109
 20
4175578.587
 30
743.875
 11
751879.8032806405
 21
4175575.981440648
 31
744.3189697265625
  0
LINE
  5
253
330
1F
100
AcDbEntity
  8
720
370
     0
100
AcDbLine
 10
751871.328
 20
4175559.949
 30
734.010009765625
 11
751876.834
 21
4175563.586
 31
734.1929931640625
  0
LINE
  5
254
330
1F
100
AcDbEntity
  8
720
370
     0
100
AcDbLine
 10
751863.819
 20
4175554.026
 30
733.9580078125
 11
751866.516
 21
4175555.89
 31
733.9140014648438
  0
LINE
  5
255
330
1F
100
AcDbEntity
  8
720
370
     0
100
AcDbLine
 10
751840.803
 20
4175572.94
 30
741.4849853515625
 11
751844.101
 21
4175573.565
 31
741.5800170898438
  0
LINE
  5
256
330
1F
100
AcDbEntity
  8
720
370
     0
100
AcDbLine
 10
751848.924
 20
4175494.887
 30
733.8800048828125
 11
751849.36
 21
4175495.531
 31
734.0260009765625
  0
LINE
  5
257
330
1F
100
AcDbEntity
  8
720
370
     0
100
AcDbLine
 10
751849.36
 20
4175495.531
 30
734.0260009765625
 11
751850.527
 21
4175496.815
 31
735.10400390625
  0
LINE
  5
258
330
1F
100
AcDbEntity
  8
720
370
     0
100
AcDbLine
 10
751850.527
 20
4175496.815
 30
735.10400390625
 11
751852.82
 21
4175495.747
 31
737.2329711914062
  0
LINE
  5
259
330
1F
100
AcDbEntity
  8
720
370
     0
100
AcDbLine
 10
751852.82
 20
4175495.747
 30
737.2329711914062
 11
751855.082
 21
4175496.713
 31
736.0989990234375
  0
LINE
  5
25A
330
1F
100
AcDbEntity
  8
720
370
     0
100
AcDbLine
 10
751855.082
 20
4175496.713
 30
736.0989990234375
 11
751856.034
 21
4175495.176
 31
735.302001953125
  0
LINE
  5
25B
330
1F
100
AcDbEntity
  8
720
370
     0
100
AcDbLine
 10
751856.034
 20
4175495.176
 30
735.302001953125
 11
751856.403
 21
4175490.848
 31
735.0460205078125
  0
LINE
  5
25C
330
1F
100
AcDbEntity
  8
720
370
     0
100
AcDbLine
 10
751856.403
 20
4175490.848
 30
735.0460205078125
 11
751856.208
 21
4175489.522
 31
734.7169799804688
  0
LINE
  5
25D
330
1F
100
AcDbEntity
  8
720
370
     0
100
AcDbLine
 10
751860.093
 20
4175489.254
 30
735.2349853515625
 11
751859.953
 21
4175490.993
 31
735.6939697265625
  0
LINE
  5
25E
330
1F
100
AcDbEntity
  8
720
370
     0
100
AcDbLine
 10
751859.953
 20
4175490.993
 30
735.6939697265625
 11
751859.465
 21
4175494.137
 31
735.3460083007812
  0
LINE
  5
25F
330
1F
100
AcDbEntity
  8
720
370
     0
100
AcDbLine
 10
751859.465
 20
4175494.137
 30
735.3460083007812
 11
751859.452
 21
4175495.605
 31
735.2780151367188
  0
LINE
  5
260
330
1F
100
AcDbEntity
  8
720
370
     0
100
AcDbLine
 10
751859.452
 20
4175495.605
 30
735.2780151367188
 11
751859.543
 21
4175496.52
 31
735.2150268554688
  0
LINE
  5
261
330
1F
100
AcDbEntity
  8
720
370
     0
100
AcDbLine
 10
751859.543
 20
4175496.52
 30
735.2150268554688
 11
751859.657
 21
4175498.497
 31
735.8679809570312
  0
LINE
  5
262
330
1F
100
AcDbEntity
  8
720
370
     0
100
AcDbLine
 10
751859.657
 20
4175498.497
 30
735.8679809570312
 11
751859.784
 21
4175503.376
 31
738.6290283203125
  0
LINE
  5
263
330
1F
100
AcDbEntity
  8
720
370
     0
100
AcDbLine
 10
751859.784
 20
4175503.376
 30
738.6290283203125
 11
751854.082
 21
4175504.949
 31
738.5479736328125
  0
LINE
  5
264
330
1F
100
AcDbEntity
  8
720
370
     0
100
AcDbLine
 10
751854.082
 20
4175504.949
 30
738.5479736328125
 11
751851.384
 21
4175502.808
 31
737.2260131835938
  0
LINE
  5
265
330
1F
100
AcDbEntity
  8
720
370
     0
100
AcDbLine
 10
751851.384
 20
4175502.808
 30
737.2260131835938
 11
751849.583
 21
4175501.644
 31
735.4409790039062
  0
LINE
  5
266
330
1F
100
AcDbEntity
  8
720
370
     0
100
AcDbLine
 10
751849.583
 20
4175501.644
 30
735.4409790039062
 11
751848.95
 21
4175500.643
 31
735.0460205078125
  0
LINE
  5
267
330
1F
100
AcDbEntity
  8
720
370
     0
100
AcDbLine
 10
751848.95
 20
4175500.643
 30
735.0460205078125
 11
751847.808
 21
4175498.998
 31
734.3209838867188
  0
LINE
  5
268
330
1F
100
AcDbEntity
  8
720
370
     0
100
AcDbLine
 10
751816.524
 20
4175476.833
 30
727.5269775390625
 11
751818.632
 21
4175479.406
 31
727.3980102539062
  0
LINE
  5
269
330
1F
100
AcDbEntity
  8
720
370
     0
100
AcDbLine
 10
751774.766
 20
4175394.313
 30
719.2969970703125
 11
751772.212
 21
4175394.685
 31
718.926025390625
  0
LINE
  5
394
330
1F
100
AcDbEntity
  8
GEOFENCE
100
AcDbLine
 10
751730.8475
 20
4175373.2425
 30
718.0260009765625
 11
751741.7923992231
 21
4175378.012419603
 31
719.2330834024398
  0
LINE
  5
396
330
1F
100
AcDbEntity
  8
GEOFENCE
100
AcDbLine
 10
751741.7923992231
 20
4175378.012419603
 30
719.2330834024398
 11
751750.8740241945
 21
4175389.950600957
 31
719.1705228053621
  0
LINE
  5
397
330
1F
100
AcDbEntity
  8
GEOFENCE
100
AcDbLine
 10
751750.8740241945
 20
4175389.950600957
 30
719.1705228053621
 11
751751.9217812463
 21
4175394.839484337
 31
719.2025299794872
  0
LINE
  5
398
330
1F
100
AcDbEntity
  8
GEOFENCE
100
AcDbLine
 10
751751.9217812463
 20
4175394.839484337
 30
719.2025299794872
 11
751747.6680396211
 21
4175409.119580433
 31
720.9301114289714
  0
LINE
  5
399
330
1F
100
AcDbEntity
  8
GEOFENCE
100
AcDbLine
 10
751751.9217812463
 20
4175394.839484337
 30
719.2025299794872
 11
751759.9023161653
 21
4175400.863075415
 31
719.036961470001
  0
LINE
  5
39B
330
1F
100
AcDbEntity
  8
GEOFENCE
100
AcDbLine
 10
751759.9023161653
 20
4175400.863075415
 30
719.036961470001
 11
751764.8504512411
 21
4175400.154831093
 31
719.1567498349524
  0
LINE
  5
39D
330
1F
100
AcDbEntity
  8
GEOFENCE
100
AcDbLine
 10
751764.8504512411
 20
4175400.154831093
 30
719.1567498349524
 11
751767.5224314816
 21
4175395.930849461
 31
719.2927673417307
  0
LINE
  5
39E
330
1F
100
AcDbEntity
  8
GEOFENCE
100
AcDbLine
 10
751767.5224314816
 20
4175395.930849461
 30
719.2927673417307
 11
751775.6316380387
 21
4175390.083820512
 31
719.0625034015975
  0
LINE
  5
39F
330
1F
100
AcDbEntity
  8
GEOFENCE
100
AcDbLine
 10
751775.6316380387
 20
4175390.083820512
 30
719.0625034015975
 11
751776.187203183
 21
4175385.305881026
 31
717.9749755859375
  0
LINE
  5
3A1
330
1F
100
AcDbEntity
  8
GEOFENCE
100
AcDbLine
 10
751759.9023161653
 20
4175400.863075415
 30
719.036961470001
 11
751761.5069691575
 21
4175415.742281328
 31
720.0539767901129
  0
LINE
  5
3A2
330
1F
100
AcDbEntity
  8
GEOFENCE
100
AcDbLine
 10
751761.5069691575
 20
4175415.742281328
 30
720.0539767901129
 11
751768.5105279455
 21
4175429.006029789
 31
719.901854942403
  0
LINE
  5
3A3
330
1F
100
AcDbEntity
  8
GEOFENCE
100
AcDbLine
 10
751768.5105279455
 20
4175429.006029789
 30
719.901854942403
 11
751770.9935919623
 21
4175438.692405357
 31
719.9941667002207
  0
LINE
  5
3A4
330
1F
100
AcDbEntity
  8
GEOFENCE
100
AcDbLine
 10
751770.9935919623
 20
4175438.692405357
 30
719.9941667002207
 11
751776.4441020634
 21
4175447.075261386
 31
720.1343965967922
  0
LINE
  5
3A5
330
1F
100
AcDbEntity
  8
GEOFENCE
100
AcDbLine
 10
751776.4441020634
 20
4175447.075261386
 30
720.1343965967922
 11
751781.2333783543
 21
4175448.494848611
 31
720.3525816535155
  0
LINE
  5
3A6
330
1F
100
AcDbEntity
  8
GEOFENCE
100
AcDbLine
 10
751781.2333783543
 20
4175448.494848611
 30
720.3525816535155
 11
751802.7319441644
 21
4175469.025829209
 31
724.3887312810435
  0
LINE
  5
3A7
330
1F
100
AcDbEntity
  8
GEOFENCE
100
AcDbLine
 10
751802.7319441644
 20
4175469.025829209
 30
724.3887312810435
 11
751813.1147648494
 21
4175479.624673816
 31
726.5936184927267
  0
LINE
  5
3AA
330
1F
100
AcDbEntity
  8
GEOFENCE
100
AcDbLine
 10
751813.1147648494
 20
4175479.624673816
 30
726.5936184927267
 11
751820.0947552461
 21
4175490.460825879
 31
728.2840452234216
  0
LINE
  5
3AE
330
1F
100
AcDbEntity
  8
GEOFENCE
100
AcDbLine
 10
751858.821301227
 20
4175521.338066177
 30
735.1287999991993
 11
751880.6739762498
 21
4175533.440952974
 31
736.1191158674512
  0
LINE
  5
3AF
330
1F
100
AcDbEntity
  8
GEOFENCE
100
AcDbLine
 10
751880.6739762498
 20
4175533.440952974
 30
736.1191158674512
 11
751883.4860983657
 21
4175537.524769482
 31
736.7628642161982
  0
LINE
  5
3B2
330
1F
100
AcDbEntity
  8
GEOFENCE
100
AcDbLine
 10
751883.4860983657
 20
4175537.524769482
 30
736.7628642161982
 11
751886.7052287725
 21
4175552.16011715
 31
737.4290459132059
  0
LINE
  5
3B3
330
1F
100
AcDbEntity
  8
GEOFENCE
100
AcDbLine
 10
751886.7052287725
 20
4175552.16011715
 30
737.4290459132059
 11
751895.6371621353
 21
4175556.620051814
 31
738.0031096735578
  0
LINE
  5
3B6
330
1F
100
AcDbEntity
  8
GEOFENCE
100
AcDbLine
 10
751895.6371621353
 20
4175556.620051814
 30
738.0031096735578
 11
751902.4633661143
 21
4175567.618544905
 31
739.2014789630771
  0
LINE
  5
3B7
330
1F
100
AcDbEntity
  8
GEOFENCE
100
AcDbLine
 10
751902.4633661143
 20
4175567.618544905
 30
739.2014789630771
 11
751902.3771973155
 21
4175572.512344099
 31
740.222901692891
  0
LINE
  5
3B9
330
1F
100
AcDbEntity
  8
GEOFENCE
100
AcDbLine
 10
751902.3771973155
 20
4175572.512344099
 30
740.222901692891
 11
751897.0047505498
 21
4175580.62981743
 31
742.5127581208491
  0
LINE
  5
3BB
330
1F
100
AcDbEntity
  8
GEOFENCE
100
AcDbLine
 10
751897.0047505498
 20
4175580.62981743
 30
742.5127581208491
 11
751892.1849767575
 21
4175579.523006054
 31
743.2508293686024
  0
LINE
  5
3BE
330
1F
100
AcDbEntity
  8
GEOFENCE
100
AcDbLine
 10
751854.9486466289
 20
4175518.250342147
 30
734.4443245216215
 11
751858.821301227
 21
4175521.338066177
 31
735.1287999991993
  0
LINE
  5
3BF
330
1F
100
AcDbEntity
  8
GEOFENCE
100
AcDbLine
 10
751892.1849767575
 20
4175579.523006054
 30
743.2508293686024
 11
751864.2457704864
 21
4175568.778076666
 31
745.2375969449587
  0
LINE
  5
3C0
330
1F
100
AcDbEntity
  8
GEOFENCE
100
AcDbLine
 10
751864.2457704864
 20
4175568.778076666
 30
745.2375969449587
 11
751852.6755079641
 21
4175560.261425026
 31
740.9253272413915
  0
LINE
  5
3C2
330
1F
100
AcDbEntity
  8
GEOFENCE
100
AcDbLine
 10
751852.6755079641
 20
4175560.261425026
 30
740.9253272413915
 11
751843.3309570357
 21
4175556.758714202
 31
740.2847143825571
  0
LINE
  5
3C3
330
1F
100
AcDbEntity
  8
GEOFENCE
100
AcDbLine
 10
751843.3309570357
 20
4175556.758714202
 30
740.2847143825571
 11
751833.4795382313
 21
4175556.645584999
 31
738.5710197412354
  0
LINE
  5
3C6
330
1F
100
AcDbEntity
  8
GEOFENCE
100
AcDbLine
 10
751833.4795382313
 20
4175556.645584999
 30
738.5710197412354
 11
751836.7283060203
 21
4175567.971747146
 31
740.8433663007629
  0
LINE
  5
3C7
330
1F
100
AcDbEntity
  8
GEOFENCE
100
AcDbLine
 10
751836.7283060203
 20
4175567.971747146
 30
740.8433663007629
 11
751848.7785
 21
4175572.6835
 31
741.5800170898438
  0
LINE
  5
3C9
330
1F
100
AcDbEntity
  8
GEOFENCE
100
AcDbLine
 10
751836.7283060203
 20
4175567.971747146
 30
740.8433663007629
 11
751830.6261902596
 21
4175575.732808346
 31
742.433998967344
  0
LINE
  5
3CB
330
1F
100
AcDbEntity
  8
GEOFENCE
100
AcDbLine
 10
751833.4795382313
 20
4175556.645584999
 30
738.5710197412354
 11
751832.6763571616
 21
4175541.8358125
 31
736.3292484101584
  0
LINE
  5
3CF
330
1F
100
AcDbEntity
  8
GEOFENCE
100
AcDbLine
 10
751832.6763571616
 20
4175541.8358125
 30
736.3292484101584
 11
751816.251229563
 21
4175506.243150595
 31
728.3682433327639
  0
LINE
  5
3D1
330
1F
100
AcDbEntity
  8
GEOFENCE
100
AcDbLine
 10
751816.251229563
 20
4175506.243150595
 30
728.3682433327639
 11
751815.5525636965
 21
4175496.267773779
 31
728.4292629161403
  0
LINE
  5
3D2
330
1F
100
AcDbEntity
  8
GEOFENCE
100
AcDbLine
 10
751815.5525636965
 20
4175496.267773779
 30
728.4292629161403
 11
751820.0947552461
 21
4175490.460825879
 31
728.2840452234216
  0
LINE
  5
3D4
330
1F
100
AcDbEntity
  8
GEOFENCE
100
AcDbLine
 10
751854.9486466289
 20
4175518.250342147
 30
734.4443245216215
 11
751854.9721341669
 21
4175529.246261102
 31
734.1456362381756
  0
LINE
  5
3D5
330
1F
100
AcDbEntity
  8
GEOFENCE
100
AcDbLine
 10
751854.9721341669
 20
4175529.246261102
 30
734.1456362381756
 11
751847.4040412577
 21
4175535.781664502
 31
734.2573148278981
  0
LINE
  5
3D6
330
1F
100
AcDbEntity
  8
GEOFENCE
100
AcDbLine
 10
751847.4040412577
 20
4175535.781664502
 30
734.2573148278981
 11
751847.750042857
 21
4175545.755273534
 31
733.6190313695487
  0
LINE
  5
3D8
330
1F
100
AcDbEntity
  8
GEOFENCE
100
AcDbLine
 10
751847.750042857
 20
4175545.755273534
 30
733.6190313695487
 11
751880.8741234666
 21
4175568.174158444
 31
734.0536382690195
  0
LINE
  5
3DA
330
1F
100
AcDbEntity
  8
GEOFENCE
100
AcDbLine
 10
751820.0947552461
 20
4175490.460825879
 30
728.2840452234216
 11
751828.7676179175
 21
4175498.554969688
 31
730.0913329896024
  0
LINE
  5
3DB
330
1F
100
AcDbEntity
  8
GEOFENCE
100
AcDbLine
 10
751828.7676179175
 20
4175498.554969688
 30
730.0913329896024
 11
751854.9486466289
 21
4175518.250342147
 31
734.4443245216215
  0
LINE
  5
3DC
330
1F
100
AcDbEntity
  8
GEOFENCE
100
AcDbLine
 10
751828.7676179175
 20
4175498.554969688
 30
730.0913329896024
 11
751840.1846781133
 21
4175489.524395271
 31
733.7106509051323
  0
LINE
  5
3DE
330
1F
100
AcDbEntity
  8
GEOFENCE
100
AcDbLine
 10
751840.1846781133
 20
4175489.524395271
 30
733.7106509051323
 11
751853.6193879145
 21
4175482.853340766
 31
733.785513171197
  0
LINE
  5
3DF
330
1F
100
AcDbEntity
  8
GEOFENCE
100
AcDbLine
 10
751853.6193879145
 20
4175482.853340766
 30
733.785513171197
 11
751858.253239735
 21
4175491.599827035
 31
735.2090282782972
  0
LINE
  5
3E0
330
1F
100
AcDbEntity
  8
GEOFENCE
100
AcDbLine
 10
751858.253239735
 20
4175491.599827035
 30
735.2090282782972
 11
751856.451299783
 21
4175501.209931329
 31
737.3063856312702
  0
LINE
  5
3E1
330
1F
100
AcDbEntity
  8
GEOFENCE
100
AcDbLine
 10
751856.451299783
 20
4175501.209931329
 30
737.3063856312702
 11
751847.6455648732
 21
4175497.570792841
 31
734.2706478680357
  0
LINE
  5
3E2
330
1F
100
AcDbEntity
  8
GEOFENCE
100
AcDbLine
 10
751847.6455648732
 20
4175497.570792841
 30
734.2706478680357
 11
751840.1846781133
 21
4175489.524395271
 31
733.7106509051323
  0
LINE
  5
3E4
330
1F
100
AcDbEntity
  8
GEOFENCE
100
AcDbLine
 10
751764.8504512411
 20
4175400.154831093
 30
719.1567498349524
 11
751769.6914404279
 21
4175401.405622585
 31
719.1753061654807
  0
LINE
  5
3E5
330
1F
100
AcDbEntity
  8
GEOFENCE
100
AcDbLine
 10
751769.6914404279
 20
4175401.405622585
 30
719.1753061654807
 11
751783.5246730291
 21
4175404.758727087
 31
723.9079973663002
  0
LINE
  5
3E6
330
1F
100
AcDbEntity
  8
GEOFENCE
100
AcDbLine
 10
751783.5246730291
 20
4175404.758727087
 30
723.9079973663002
 11
751796.578
 21
4175415.9945
 31
724.9400024414062
  0
LINE
  5
3E7
330
1F
100
AcDbEntity
  8
GEOFENCE
100
AcDbLine
 10
751769.6914404279
 20
4175401.405622585
 30
719.1753061654807
 11
751771.1773682436
 21
4175406.175131517
 31
719.3845980004468
  0
LINE
  5
3E8
330
1F
100
AcDbEntity
  8
GEOFENCE
100
AcDbLine
 10
751771.1773682436
 20
4175406.175131517
 30
719.3845980004468
 11
751768.1227079428
 21
4175415.683850842
 31
719.8878943999548
  0
LINE
  5
3E9
330
1F
100
AcDbEntity
  8
GEOFENCE
100
AcDbLine
 10
751768.1227079428
 20
4175415.683850842
 30
719.8878943999548
 11
751775.5276210957
 21
4175422.392758648
 31
720.2851565765394
  0
LINE
  5
3ED
330
1F
100
AcDbEntity
  8
GEOFENCE
100
AcDbLine
 10
751775.5276210957
 20
4175422.392758648
 30
720.2851565765394
 11
751785.4566955772
 21
4175430.780387172
 31
720.5324776137476
  0
LINE
  5
3EE
330
1F
100
AcDbEntity
  8
GEOFENCE
100
AcDbLine
 10
751785.4566955772
 20
4175430.780387172
 30
720.5324776137476
 11
751797.069
 21
4175427.779
 31
720.593994140625
  0
LINE
  5
3EF
330
1F
100
AcDbEntity
  8
GEOFENCE
100
AcDbLine
 10
751785.4566955772
 20
4175430.780387172
 30
720.5324776137476
 11
751777.98311422
 21
4175437.423494883
 31
720.4112273554725
  0
LINE
  5
3F0
330
1F
100
AcDbEntity
  8
GEOFENCE
100
AcDbLine
 10
751777.98311422
 20
4175437.423494883
 30
720.4112273554725
 11
751776.4441020634
 21
4175447.075261386
 31
720.1343965967922
  0
POINT
  5
3F8
330
1F
100
AcDbEntity
  8
INIT_COORD
100
AcDbPoint
 10
751730.8475
 20
4175373.2425
 30
718.0260009765625
  0
ENDSEC
  0
SECTION
  2
OBJECTS
  0
DICTIONARY
  5
C
330
0
100
AcDbDictionary
281
     1
  3
ACAD_DETAILVIEWSTYLE
350
35A
  3
ACAD_GROUP
350
D
  3
ACAD_IMAGE_VARS
350
2BC
  3
ACAD_LAYOUT
350
1A
  3
ACAD_MATERIAL
350
3B
  3
ACAD_MLEADERSTYLE
350
28B
  3
ACAD_MLINESTYLE
350
17
  3
ACAD_PLOTSETTINGS
350
19
  3
ACAD_PLOTSTYLENAME
350
E
  3
ACAD_SCALELIST
350
28C
  3
ACAD_SECTIONVIEWSTYLE
350
35B
  3
ACAD_TABLESTYLE
350
28A
  3
ACAD_VISUALSTYLE
350
2A
  3
ACDB_RECOMPOSE_DATA
350
3FB
  3
AcDbVariableDictionary
350
355
  3
APPDATA
350
2BA
  0
SUN
  5
2BB
330
29
100
AcDbSun
 90
        1
290
     0
 63
     7
421
 16777215
 40
1.0
291
     1
 91
  2455826
 92
 54000000
292
     0
 70
     2
 71
   256
280
     1
  0
DICTIONARY
  5
2BD
330
2
100
AcDbDictionary
280
     1
281
     1
  3
ACAD_LAYERSTATES
360
2BE
  3
ACLYDICTIONARY
360
38E
  0
DICTIONARY
  5
35A
102
{ACAD_REACTORS
330
C
102
}
330
C
100
AcDbDictionary
281
     1
  0
DICTIONARY
  5
D
102
{ACAD_REACTORS
330
C
102
}
330
C
100
AcDbDictionary
281
     1
  0
RASTERVARIABLES
  5
2BC
102
{ACAD_REACTORS
330
C
102
}
330
C
100
AcDbRasterVariables
 90
        0
 70
     1
 71
     1
 72
     1
  0
DICTIONARY
  5
1A
102
{ACAD_REACTORS
330
C
102
}
330
C
100
AcDbDictionary
281
     1
  3
Layout1
350
1E
  3
Layout2
350
26
  3
Model
350
22
  0
DICTIONARY
  5
3B
102
{ACAD_REACTORS
330
C
102
}
330
C
100
AcDbDictionary
281
     1
  3
ByBlock
350
3D
  3
ByLayer
350
3C
  3
Global
350
3E
  0
DICTIONARY
  5
28B
102
{ACAD_REACTORS
330
C
102
}
330
C
100
AcDbDictionary
281
     1
  3
Standard
350
2B9
  0
DICTIONARY
  5
17
102
{ACAD_REACTORS
330
C
102
}
330
C
100
AcDbDictionary
281
     1
  3
Standard
350
18
  0
DICTIONARY
  5
19
102
{ACAD_REACTORS
330
C
102
}
330
C
100
AcDbDictionary
281
     1
  0
ACDBDICTIONARYWDFLT
  5
E
102
{ACAD_REACTORS
330
C
102
}
330
C
100
AcDbDictionary
281
     1
  3
Normal
350
F
100
AcDbDictionaryWithDefault
340
F
  0
DICTIONARY
  5
28C
102
{ACAD_REACTORS
330
C
102
}
330
C
100
AcDbDictionary
281
     1
  3
A0
350
28D
  3
A1
350
28E
  3
A2
350
28F
  3
A3
350
290
  3
A4
350
291
  3
A5
350
292
  3
A6
350
293
  3
A7
350
294
  3
A8
350
295
  3
A9
350
296
  3
B0
350
297
  3
B1
350
298
  3
B2
350
299
  3
B3
350
29A
  3
B4
350
29B
  3
B5
350
29C
  3
B6
350
29D
  3
B7
350
29E
  3
B8
350
29F
  3
B9
350
2A0
  3
C0
350
2A1
  3
C1
350
2A2
  3
C2
350
2A3
  3
C3
350
2A4
  3
C4
350
2A5
  3
C5
350
2A6
  3
C6
350
2A7
  3
C7
350
2A8
  3
C8
350
2A9
  3
C9
350
2AA
  3
D0
350
2AB
  3
D1
350
2AC
  3
D2
350
2AD
  0
DICTIONARY
  5
35B
102
{ACAD_REACTORS
330
C
102
}
330
C
100
AcDbDictionary
281
     1
  0
DICTIONARY
  5
28A
102
{ACAD_REACTORS
330
C
102
}
330
C
100
AcDbDictionary
281
     1
  3
Standard
350
2B8
  0
DICTIONARY
  5
2A
102
{ACAD_REACTORS
330
C
102
}
330
C
100
AcDbDictionary
281
     1
  3
2dWireframe
350
2F
  3
3D Hidden
350
31
  3
3dWireframe
350
30
  3
Basic
350
32
  3
Brighten
350
36
  3
ColorChange
350
3A
  3
Conceptual
350
34
  3
Dim
350
35
  3
EdgeColorOff
350
2B2
  3
Facepattern
350
39
  3
Flat
350
2B
  3
FlatWithEdges
350
2C
  3
Gouraud
350
2D
  3
GouraudWithEdges
350
2E
  3
Hidden
350
2AF
  3
JitterOff
350
2B0
  3
Linepattern
350
38
  3
OverhangOff
350
2B1
  3
Realistic
350
33
  3
Shaded
350
2B7
  3
Shaded with edges
350
2B6
  3
Shades of Gray
350
2B3
  3
Sketchy
350
2B4
  3
Thicken
350
37
  3
Wireframe
350
2AE
  3
X-Ray
350
2B5
  0
XRECORD
  5
3FB
102
{ACAD_REACTORS
330
C
102
}
330
C
100
AcDbXrecord
280
     1
 90
        1
330
2B8
  0
DICTIONARY
  5
355
102
{ACAD_REACTORS
330
C
102
}
330
C
100
AcDbDictionary
281
     1
  3
CANNOSCALE
350
356
  3
CMLEADERSTYLE
350
358
  3
CTABLESTYLE
350
357
  3
XCLIPFRAME
350
359
  0
DICTIONARY
  5
2BA
102
{ACAD_REACTORS
330
C
102
}
330
C
100
AcDbDictionary
281
     1
  0
DICTIONARY
  5
2BE
102
{ACAD_REACTORS
330
2BD
102
}
330
2BD
100
AcDbDictionary
281
     1
  0
DICTIONARY
  5
38E
102
{ACAD_REACTORS
330
2BD
102
}
330
2BD
100
AcDbDictionary
281
     1
1001
ACAD
1000
<All
  0
LAYOUT
  5
1E
102
{ACAD_REACTORS
330
1A
102
}
330
1A
100
AcDbPlotSettings
  1

  2
none_device
  4

  6

 40
0.0
 41
0.0
 42
0.0
 43
0.0
 44
0.0
 45
0.0
 46
0.0
 47
0.0
 48
0.0
 49
0.0
140
0.0
141
0.0
142
1.0
143
1.0
 70
   688
 72
     0
 73
     0
 74
     5
  7

 75
    16
 76
     0
 77
     2
 78
   300
147
1.0
148
0.0
149
0.0
100
AcDbLayout
  1
Layout1
 70
     1
 71
     1
 10
0.0
 20
0.0
 11
420.0
 21
297.0
 12
0.0
 22
0.0
 32
0.0
 14
1.000000000000000E+20
 24
1.000000000000000E+20
 34
1.000000000000000E+20
 15
-1.000000000000000E+20
 25
-1.000000000000000E+20
 35
-1.000000000000000E+20
146
0.0
 13
0.0
 23
0.0
 33
0.0
 16
1.0
 26
0.0
 36
0.0
 17
0.0
 27
1.0
 37
0.0
 76
     0
330
1B
  0
LAYOUT
  5
26
102
{ACAD_REACTORS
330
1A
102
}
330
1A
100
AcDbPlotSettings
  1

  2
none_device
  4

  6

 40
0.0
 41
0.0
 42
0.0
 43
0.0
 44
0.0
 45
0.0
 46
0.0
 47
0.0
 48
0.0
 49
0.0
140
0.0
141
0.0
142
1.0
143
1.0
 70
   688
 72
     0
 73
     0
 74
     5
  7

 75
    16
 76
     0
 77
     2
 78
   300
147
1.0
148
0.0
149
0.0
100
AcDbLayout
  1
Layout2
 70
     1
 71
     2
 10
0.0
 20
0.0
 11
0.0
 21
0.0
 12
0.0
 22
0.0
 32
0.0
 14
0.0
 24
0.0
 34
0.0
 15
0.0
 25
0.0
 35
0.0
146
0.0
 13
0.0
 23
0.0
 33
0.0
 16
1.0
 26
0.0
 36
0.0
 17
0.0
 27
1.0
 37
0.0
 76
     0
330
23
  0
LAYOUT
  5
22
102
{ACAD_REACTORS
330
1A
102
}
330
1A
100
AcDbPlotSettings
  1

  2
none_device
  4

  6

 40
0.0
 41
0.0
 42
0.0
 43
0.0
 44
0.0
 45
0.0
 46
0.0
 47
0.0
 48
0.0
 49
0.0
140
0.0
141
0.0
142
1.0
143
1.0
 70
  1712
 72
     0
 73
     0
 74
     0
  7

 75
     0
 76
     0
 77
     2
 78
   300
147
1.0
148
0.0
149
0.0
100
AcDbLayout
  1
Model
 70
     1
 71
     0
 10
0.0
 20
0.0
 11
420.0
 21
297.0
 12
0.0
 22
0.0
 32
0.0
 14
751730.258
 24
4175371.572
 34
715.2150268554688
 15
751906.654
 25
4175582.27
 35
745.2375969449058
146
0.0
 13
0.0
 23
0.0
 33
0.0
 16
1.0
 26
0.0
 36
0.0
 17
0.0
 27
1.0
 37
0.0
 76
     0
330
1F
331
29
  0
MATERIAL
  5
3D
102
{ACAD_REACTORS
330
3B
102
}
330
3B
100
AcDbMaterial
  1
ByBlock
 72
     1
 94
      127
  0
MATERIAL
  5
3C
102
{ACAD_REACTORS
330
3B
102
}
330
3B
100
AcDbMaterial
  1
ByLayer
 72
     1
 94
      127
  0
MATERIAL
  5
3E
102
{ACAD_REACTORS
330
3B
102
}
330
3B
100
AcDbMaterial
  1
Global
 72
     1
 94
      127
  0
MLEADERSTYLE
  5
2B9
102
{ACAD_REACTORS
330
28B
102
}
330
28B
100
AcDbMLeaderStyle
179
     2
170
     2
171
     1
172
     0
 90
        2
 40
0.0
 41
0.0
173
     1
 91
-1056964608
340
14
 92
       -2
290
     1
 42
2.0
291
     1
 43
8.0
  3
Standard
341
0
 44
4.0
300

342
11
174
     1
178
     1
175
     1
176
     0
 93
-1056964608
 45
4.0
292
     0
297
     0
 46
4.0
343
0
 94
-1056964608
 47
1.0
 49
1.0
140
1.0
293
     1
141
0.0
294
     1
177
     0
142
1.0
295
     0
296
     0
143
3.75
271
     0
272
     9
273
     9
  0
MLINESTYLE
  5
18
102
{ACAD_REACTORS
330
17
102
}
330
17
100
AcDbMlineStyle
  2
Standard
 70
     0
  3

 62
   256
 51
90.0
 52
90.0
 71
     2
 49
0.5
 62
   256
  6
BYLAYER
 49
-0.5
 62
   256
  6
BYLAYER
  0
ACDBPLACEHOLDER
  5
F
102
{ACAD_REACTORS
330
E
102
}
330
E
  0
SCALE
  5
28D
102
{ACAD_REACTORS
330
28C
102
}
330
28C
100
AcDbScale
 70
     0
300
1:1
140
1.0
141
1.0
290
     1
  0
SCALE
  5
28E
102
{ACAD_REACTORS
330
28C
102
}
330
28C
100
AcDbScale
 70
     0
300
1:2
140
1.0
141
2.0
290
     0
  0
SCALE
  5
28F
102
{ACAD_REACTORS
330
28C
102
}
330
28C
100
AcDbScale
 70
     0
300
1:4
140
1.0
141
4.0
290
     0
  0
SCALE
  5
290
102
{ACAD_REACTORS
330
28C
102
}
330
28C
100
AcDbScale
 70
     0
300
1:5
140
1.0
141
5.0
290
     0
  0
SCALE
  5
291
102
{ACAD_REACTORS
330
28C
102
}
330
28C
100
AcDbScale
 70
     0
300
1:8
140
1.0
141
8.0
290
     0
  0
SCALE
  5
292
102
{ACAD_REACTORS
330
28C
102
}
330
28C
100
AcDbScale
 70
     0
300
1:10
140
1.0
141
10.0
290
     0
  0
SCALE
  5
293
102
{ACAD_REACTORS
330
28C
102
}
330
28C
100
AcDbScale
 70
     0
300
1:16
140
1.0
141
16.0
290
     0
  0
SCALE
  5
294
102
{ACAD_REACTORS
330
28C
102
}
330
28C
100
AcDbScale
 70
     0
300
1:20
140
1.0
141
20.0
290
     0
  0
SCALE
  5
295
102
{ACAD_REACTORS
330
28C
102
}
330
28C
100
AcDbScale
 70
     0
300
1:30
140
1.0
141
30.0
290
     0
  0
SCALE
  5
296
102
{ACAD_REACTORS
330
28C
102
}
330
28C
100
AcDbScale
 70
     0
300
1:40
140
1.0
141
40.0
290
     0
  0
SCALE
  5
297
102
{ACAD_REACTORS
330
28C
102
}
330
28C
100
AcDbScale
 70
     0
300
1:50
140
1.0
141
50.0
290
     0
  0
SCALE
  5
298
102
{ACAD_REACTORS
330
28C
102
}
330
28C
100
AcDbScale
 70
     0
300
1:100
140
1.0
141
100.0
290
     0
  0
SCALE
  5
299
102
{ACAD_REACTORS
330
28C
102
}
330
28C
100
AcDbScale
 70
     0
300
2:1
140
2.0
141
1.0
290
     0
  0
SCALE
  5
29A
102
{ACAD_REACTORS
330
28C
102
}
330
28C
100
AcDbScale
 70
     0
300
4:1
140
4.0
141
1.0
290
     0
  0
SCALE
  5
29B
102
{ACAD_REACTORS
330
28C
102
}
330
28C
100
AcDbScale
 70
     0
300
8:1
140
8.0
141
1.0
290
     0
  0
SCALE
  5
29C
102
{ACAD_REACTORS
330
28C
102
}
330
28C
100
AcDbScale
 70
     0
300
10:1
140
10.0
141
1.0
290
     0
  0
SCALE
  5
29D
102
{ACAD_REACTORS
330
28C
102
}
330
28C
100
AcDbScale
 70
     0
300
100:1
140
100.0
141
1.0
290
     0
  0
SCALE
  5
29E
102
{ACAD_REACTORS
330
28C
102
}
330
28C
100
AcDbScale
 70
     0
300
1/128" = 1'-0"
140
0.0078125
141
12.0
290
     0
  0
SCALE
  5
29F
102
{ACAD_REACTORS
330
28C
102
}
330
28C
100
AcDbScale
 70
     0
300
1/64" = 1'-0"
140
0.015625
141
12.0
290
     0
  0
SCALE
  5
2A0
102
{ACAD_REACTORS
330
28C
102
}
330
28C
100
AcDbScale
 70
     0
300
1/32" = 1'-0"
140
0.03125
141
12.0
290
     0
  0
SCALE
  5
2A1
102
{ACAD_REACTORS
330
28C
102
}
330
28C
100
AcDbScale
 70
     0
300
1/16" = 1'-0"
140
0.0625
141
12.0
290
     0
  0
SCALE
  5
2A2
102
{ACAD_REACTORS
330
28C
102
}
330
28C
100
AcDbScale
 70
     0
300
3/32" = 1'-0"
140
0.09375
141
12.0
290
     0
  0
SCALE
  5
2A3
102
{ACAD_REACTORS
330
28C
102
}
330
28C
100
AcDbScale
 70
     0
300
1/8" = 1'-0"
140
0.125
141
12.0
290
     0
  0
SCALE
  5
2A4
102
{ACAD_REACTORS
330
28C
102
}
330
28C
100
AcDbScale
 70
     0
300
3/16" = 1'-0"
140
0.1875
141
12.0
290
     0
  0
SCALE
  5
2A5
102
{ACAD_REACTORS
330
28C
102
}
330
28C
100
AcDbScale
 70
     0
300
1/4" = 1'-0"
140
0.25
141
12.0
290
     0
  0
SCALE
  5
2A6
102
{ACAD_REACTORS
330
28C
102
}
330
28C
100
AcDbScale
 70
     0
300
3/8" = 1'-0"
140
0.375
141
12.0
290
     0
  0
SCALE
  5
2A7
102
{ACAD_REACTORS
330
28C
102
}
330
28C
100
AcDbScale
 70
     0
300
1/2" = 1'-0"
140
0.5
141
12.0
290
     0
  0
SCALE
  5
2A8
102
{ACAD_REACTORS
330
28C
102
}
330
28C
100
AcDbScale
 70
     0
300
3/4" = 1'-0"
140
0.75
141
12.0
290
     0
  0
SCALE
  5
2A9
102
{ACAD_REACTORS
330
28C
102
}
330
28C
100
AcDbScale
 70
     0
300
1" = 1'-0"
140
1.0
141
12.0
290
     0
  0
SCALE
  5
2AA
102
{ACAD_REACTORS
330
28C
102
}
330
28C
100
AcDbScale
 70
     0
300
1-1/2" = 1'-0"
140
1.5
141
12.0
290
     0
  0
SCALE
  5
2AB
102
{ACAD_REACTORS
330
28C
102
}
330
28C
100
AcDbScale
 70
     0
300
3" = 1'-0"
140
3.0
141
12.0
290
     0
  0
SCALE
  5
2AC
102
{ACAD_REACTORS
330
28C
102
}
330
28C
100
AcDbScale
 70
     0
300
6" = 1'-0"
140
6.0
141
12.0
290
     0
  0
SCALE
  5
2AD
102
{ACAD_REACTORS
330
28C
102
}
330
28C
100
AcDbScale
 70
     0
300
1'-0" = 1'-0"
140
12.0
141
12.0
290
     0
  0
TABLESTYLE
  5
2B8
102
{ACAD_REACTORS
330
28A
102
}
102
{ACAD_XDICTIONARY
360
3F9
102
}
330
28A
100
AcDbTableStyle
  3
Standard
 70
     0
 71
     0
 40
0.06
 41
0.06
280
     0
281
     0
  7
Standard
140
4.5
170
     2
 62
     0
 63
   257
283
     0
 90
        4
 91
        0
  1

274
    -2
284
     1
 64
     0
275
    -2
285
     1
 65
     0
276
    -2
286
     1
 66
     0
277
    -2
287
     1
 67
     0
278
    -2
288
     1
 68
     0
279
    -2
289
     1
 69
     0
  7
Standard
140
6.0
170
     5
 62
     0
 63
   257
283
     0
 90
        4
 91
        0
  1

274
    -2
284
     1
 64
     0
275
    -2
285
     1
 65
     0
276
    -2
286
     1
 66
     0
277
    -2
287
     1
 67
     0
278
    -2
288
     1
 68
     0
279
    -2
289
     1
 69
     0
  7
Standard
140
4.5
170
     5
 62
     0
 63
   257
283
     0
 90
        4
 91
        0
  1

274
    -2
284
     1
 64
     0
275
    -2
285
     1
 65
     0
276
    -2
286
     1
 66
     0
277
    -2
287
     1
 67
     0
278
    -2
288
     1
 68
     0
279
    -2
289
     1
 69
     0
  0
VISUALSTYLE
  5
2F
102
{ACAD_REACTORS
330
2A
102
}
330
2A
100
AcDbVisualStyle
  2
2dWireframe
 70
     4
177
     2
291
     0
 71
     0
176
     1
 72
     2
176
     1
 73
     0
176
     1
 90
        0
176
     1
 40
-0.6
176
     1
 41
-30.0
176
     1
 62
     5
 63
     7
421
 16777215
176
     1
 74
     1
176
     1
 91
        4
176
     1
 64
     7
176
     1
 65
   257
176
     1
 75
     1
176
     1
175
     1
176
     1
 42
1.0
176
     1
 92
        0
176
     1
 66
   257
176
     1
 43
1.0
176
     1
 76
     1
176
     1
 77
     6
176
     1
 78
     2
176
     1
 67
     7
176
     1
 79
     5
176
     1
170
     0
176
     1
171
     0
176
     1
290
     0
176
     1
 93
        1
176
     1
 44
0.0
176
     1
173
     0
176
     1
  0
VISUALSTYLE
  5
31
102
{ACAD_REACTORS
330
2A
102
}
330
2A
100
AcDbVisualStyle
  2
3D Hidden
 70
     6
177
     2
291
     0
 71
     1
176
     1
 72
     2
176
     1
 73
     2
176
     1
 90
        0
176
     1
 40
-0.6
176
     1
 41
-30.0
176
     1
 62
     5
 63
     7
421
 16777215
176
     1
 74
     2
176
     1
 91
        2
176
     1
 64
     7
176
     1
 65
   257
176
     1
 75
     2
176
     1
175
     1
176
     1
 42
40.0
176
     1
 92
        0
176
     1
 66
   257
176
     1
 43
1.0
176
     1
 76
     1
176
     1
 77
     6
176
     1
 78
     2
176
     1
 67
     7
176
     1
 79
     3
176
     1
170
     0
176
     1
171
     0
176
     1
290
     0
176
     1
 93
        1
176
     1
 44
0.0
176
     1
173
     0
176
     1
  0
VISUALSTYLE
  5
30
102
{ACAD_REACTORS
330
2A
102
}
330
2A
100
AcDbVisualStyle
  2
3dWireframe
 70
     5
177
     2
291
     0
 71
     0
176
     1
 72
     2
176
     1
 73
     0
176
     1
 90
        0
176
     1
 40
-0.6
176
     1
 41
-30.0
176
     1
 62
     5
 63
     7
421
 16777215
176
     1
 74
     1
176
     1
 91
        4
176
     1
 64
     7
176
     1
 65
   257
176
     1
 75
     1
176
     1
175
     1
176
     1
 42
1.0
176
     1
 92
        0
176
     1
 66
   257
176
     1
 43
1.0
176
     1
 76
     1
176
     1
 77
     6
176
     1
 78
     2
176
     1
 67
     7
176
     1
 79
     5
176
     1
170
     0
176
     1
171
     0
176
     1
290
     0
176
     1
 93
        1
176
     1
 44
0.0
176
     1
173
     0
176
     1
  0
VISUALSTYLE
  5
32
102
{ACAD_REACTORS
330
2A
102
}
330
2A
100
AcDbVisualStyle
  2
Basic
 70
     7
177
     2
291
     1
 71
     1
176
     1
 72
     0
176
     1
 73
     1
176
     1
 90
        0
176
     1
 40
-0.6
176
     1
 41
-30.0
176
     1
 62
     5
 63
     7
421
 16777215
176
     1
 74
     0
176
     1
 91
        4
176
     1
 64
     7
176
     1
 65
   257
176
     1
 75
     1
176
     1
175
     1
176
     1
 42
1.0
176
     1
 92
        8
176
     1
 66
     7
176
     1
 43
1.0
176
     1
 76
     1
176
     1
 77
     6
176
     1
 78
     2
176
     1
 67
     7
176
     1
 79
     5
176
     1
170
     0
176
     1
171
     0
176
     1
290
     0
176
     1
 93
        1
176
     1
 44
0.0
176
     1
173
     0
176
     1
  0
VISUALSTYLE
  5
36
102
{ACAD_REACTORS
330
2A
102
}
330
2A
100
AcDbVisualStyle
  2
Brighten
 70
    12
177
     2
291
     1
 71
     2
176
     1
 72
     2
176
     1
 73
     0
176
     1
 90
        0
176
     1
 40
-0.6
176
     1
 41
-30.0
176
     1
 62
     5
 63
     7
421
 16777215
176
     1
 74
     1
176
     1
 91
        4
176
     1
 64
     7
176
     1
 65
   257
176
     1
 75
     1
176
     1
175
     1
176
     1
 42
1.0
176
     1
 92
        8
176
     1
 66
     7
176
     1
 43
1.0
176
     1
 76
     1
176
     1
 77
     6
176
     1
 78
     2
176
     1
 67
     7
176
     1
 79
     5
176
     1
170
     0
176
     1
171
     0
176
     1
290
     0
176
     1
 93
        1
176
     1
 44
50.0
176
     1
173
     0
176
     1
  0
VISUALSTYLE
  5
3A
102
{ACAD_REACTORS
330
2A
102
}
330
2A
100
AcDbVisualStyle
  2
ColorChange
 70
    16
177
     2
291
     1
 71
     2
176
     1
 72
     2
176
     1
 73
     3
176
     1
 90
        0
176
     1
 40
-0.6
176
     1
 41
-30.0
176
     1
 62
     5
 63
     8
421
  8421504
176
     1
 74
     1
176
     1
 91
        4
176
     1
 64
     7
176
     1
 65
   257
176
     1
 75
     1
176
     1
175
     1
176
     1
 42
1.0
176
     1
 92
        8
176
     1
 66
     8
424
  8421504
176
     1
 43
1.0
176
     1
 76
     1
176
     1
 77
     6
176
     1
 78
     2
176
     1
 67
     7
176
     1
 79
     5
176
     1
170
     0
176
     1
171
     0
176
     1
290
     0
176
     1
 93
        1
176
     1
 44
0.0
176
     1
173
     0
176
     1
  0
VISUALSTYLE
  5
34
102
{ACAD_REACTORS
330
2A
102
}
330
2A
100
AcDbVisualStyle
  2
Conceptual
 70
     9
177
     2
291
     0
 71
     3
176
     1
 72
     2
176
     1
 73
     0
176
     1
 90
        0
176
     1
 40
-0.6
176
     1
 41
-30.0
176
     1
 62
     5
 63
     7
421
 16777215
176
     1
 74
     2
176
     1
 91
        2
176
     1
 64
     7
176
     1
 65
   257
176
     1
 75
     1
176
     1
175
     1
176
     1
 42
40.0
176
     1
 92
        8
176
     1
 66
     7
176
     1
 43
1.0
176
     1
 76
     1
176
     1
 77
     6
176
     1
 78
     2
176
     1
 67
     7
176
     1
 79
     3
176
     1
170
     0
176
     1
171
     0
176
     1
290
     0
176
     1
 93
        1
176
     1
 44
0.0
176
     1
173
     0
176
     1
  0
VISUALSTYLE
  5
35
102
{ACAD_REACTORS
330
2A
102
}
330
2A
100
AcDbVisualStyle
  2
Dim
 70
    11
177
     2
291
     1
 71
     2
176
     1
 72
     2
176
     1
 73
     0
176
     1
 90
        0
176
     1
 40
-0.6
176
     1
 41
-30.0
176
     1
 62
     5
 63
     7
421
 16777215
176
     1
 74
     1
176
     1
 91
        4
176
     1
 64
     7
176
     1
 65
   257
176
     1
 75
     1
176
     1
175
     1
176
     1
 42
1.0
176
     1
 92
        8
176
     1
 66
     7
176
     1
 43
1.0
176
     1
 76
     1
176
     1
 77
     6
176
     1
 78
     2
176
     1
 67
     7
176
     1
 79
     5
176
     1
170
     0
176
     1
171
     0
176
     1
290
     0
176
     1
 93
        1
176
     1
 44
-50.0
176
     1
173
     0
176
     1
  0
VISUALSTYLE
  5
2B2
102
{ACAD_REACTORS
330
2A
102
}
330
2A
100
AcDbVisualStyle
  2
EdgeColorOff
 70
    22
177
     2
291
     1
 71
     2
176
     0
 72
     2
176
     0
 73
     0
176
     0
 90
        0
176
     0
 40
0.6
176
     0
 41
30.0
176
     0
 62
     5
 63
     7
421
 16777215
176
     0
 74
     1
176
     0
 91
        4
176
     0
 64
     7
176
     0
 65
   257
176
     0
 75
     1
176
     0
175
     1
176
     0
 42
1.0
176
     0
 92
        8
176
     2
 66
     7
176
     0
 43
1.0
176
     0
 76
     1
176
     0
 77
     6
176
     0
 78
     2
176
     0
 67
     7
176
     0
 79
     5
176
     0
170
     0
176
     0
171
     0
176
     0
290
     0
176
     0
 93
        1
176
     0
 44
0.0
176
     0
173
     0
176
     0
  0
VISUALSTYLE
  5
39
102
{ACAD_REACTORS
330
2A
102
}
330
2A
100
AcDbVisualStyle
  2
Facepattern
 70
    15
177
     2
291
     1
 71
     2
176
     1
 72
     2
176
     1
 73
     0
176
     1
 90
        0
176
     1
 40
-0.6
176
     1
 41
-30.0
176
     1
 62
     5
 63
     7
421
 16777215
176
     1
 74
     1
176
     1
 91
        4
176
     1
 64
     7
176
     1
 65
   257
176
     1
 75
     1
176
     1
175
     1
176
     1
 42
1.0
176
     1
 92
        8
176
     1
 66
     7
176
     1
 43
1.0
176
     1
 76
     1
176
     1
 77
     6
176
     1
 78
     2
176
     1
 67
     7
176
     1
 79
     5
176
     1
170
     0
176
     1
171
     0
176
     1
290
     0
176
     1
 93
        1
176
     1
 44
0.0
176
     1
173
     0
176
     1
  0
VISUALSTYLE
  5
2B
102
{ACAD_REACTORS
330
2A
102
}
330
2A
100
AcDbVisualStyle
  2
Flat
 70
     0
177
     2
291
     1
 71
     2
176
     1
 72
     1
176
     1
 73
     1
176
     1
 90
        2
176
     1
 40
-0.6
176
     1
 41
30.0
176
     1
 62
     5
 63
     7
421
 16777215
176
     1
 74
     0
176
     1
 91
        4
176
     1
 64
     7
176
     1
 65
   257
176
     1
 75
     1
176
     1
175
     1
176
     1
 42
1.0
176
     1
 92
        8
176
     1
 66
     7
176
     1
 43
1.0
176
     1
 76
     1
176
     1
 77
     6
176
     1
 78
     2
176
     1
 67
     7
176
     1
 79
     5
176
     1
170
     0
176
     1
171
     0
176
     1
290
     0
176
     1
 93
       13
176
     1
 44
0.0
176
     1
173
     0
176
     1
  0
VISUALSTYLE
  5
2C
102
{ACAD_REACTORS
330
2A
102
}
330
2A
100
AcDbVisualStyle
  2
FlatWithEdges
 70
     1
177
     2
291
     1
 71
     2
176
     1
 72
     1
176
     1
 73
     1
176
     1
 90
        2
176
     1
 40
-0.6
176
     1
 41
30.0
176
     1
 62
     5
 63
     7
421
 16777215
176
     1
 74
     1
176
     1
 91
        4
176
     1
 64
     7
176
     1
 65
   257
176
     1
 75
     1
176
     1
175
     1
176
     1
 42
1.0
176
     1
 92
        0
176
     1
 66
   257
176
     1
 43
1.0
176
     1
 76
     1
176
     1
 77
     6
176
     1
 78
     2
176
     1
 67
     7
176
     1
 79
     5
176
     1
170
     0
176
     1
171
     0
176
     1
290
     0
176
     1
 93
       13
176
     1
 44
0.0
176
     1
173
     0
176
     1
  0
VISUALSTYLE
  5
2D
102
{ACAD_REACTORS
330
2A
102
}
330
2A
100
AcDbVisualStyle
  2
Gouraud
 70
     2
177
     2
291
     1
 71
     2
176
     1
 72
     2
176
     1
 73
     1
176
     1
 90
        2
176
     1
 40
-0.6
176
     1
 41
30.0
176
     1
 62
     5
 63
     7
421
 16777215
176
     1
 74
     0
176
     1
 91
        4
176
     1
 64
     7
176
     1
 65
   257
176
     1
 75
     1
176
     1
175
     1
176
     1
 42
1.0
176
     1
 92
        0
176
     1
 66
     7
176
     1
 43
1.0
176
     1
 76
     1
176
     1
 77
     6
176
     1
 78
     2
176
     1
 67
     7
176
     1
 79
     5
176
     1
170
     0
176
     1
171
     0
176
     1
290
     0
176
     1
 93
       13
176
     1
 44
0.0
176
     1
173
     0
176
     1
  0
VISUALSTYLE
  5
2E
102
{ACAD_REACTORS
330
2A
102
}
330
2A
100
AcDbVisualStyle
  2
GouraudWithEdges
 70
     3
177
     2
291
     1
 71
     2
176
     1
 72
     2
176
     1
 73
     1
176
     1
 90
        2
176
     1
 40
-0.6
176
     1
 41
30.0
176
     1
 62
     5
 63
     7
421
 16777215
176
     1
 74
     1
176
     1
 91
        4
176
     1
 64
     7
176
     1
 65
   257
176
     1
 75
     1
176
     1
175
     1
176
     1
 42
1.0
176
     1
 92
        0
176
     1
 66
   257
176
     1
 43
1.0
176
     1
 76
     1
176
     1
 77
     6
176
     1
 78
     2
176
     1
 67
     7
176
     1
 79
     5
176
     1
170
     0
176
     1
171
     0
176
     1
290
     0
176
     1
 93
       13
176
     1
 44
0.0
176
     1
173
     0
176
     1
  0
VISUALSTYLE
  5
2AF
102
{ACAD_REACTORS
330
2A
102
}
330
2A
100
AcDbVisualStyle
  2
Hidden
 70
     6
177
     2
291
     0
 71
     1
176
     1
 72
     2
176
     1
 73
     2
176
     1
 90
        0
176
     1
 40
0.6
176
     1
 41
30.0
176
     1
 62
     5
 63
     7
421
 16777215
176
     1
 74
     2
176
     1
 91
        2
176
     1
 64
     7
176
     1
 65
   257
176
     1
 75
     2
176
     1
175
     1
176
     1
 42
40.0
176
     1
 92
        0
176
     1
 66
   257
176
     1
 43
1.0
176
     1
 76
     1
176
     1
 77
     6
176
     1
 78
     2
176
     1
 67
     7
176
     1
 79
     3
176
     1
170
     0
176
     1
171
     0
176
     1
290
     0
176
     1
 93
        1
176
     1
 44
0.0
176
     1
173
     0
176
     1
  0
VISUALSTYLE
  5
2B0
102
{ACAD_REACTORS
330
2A
102
}
330
2A
100
AcDbVisualStyle
  2
JitterOff
 70
    20
177
     2
291
     1
 71
     2
176
     0
 72
     2
176
     0
 73
     0
176
     0
 90
        0
176
     0
 40
0.6
176
     0
 41
30.0
176
     0
 62
     5
 63
     7
421
 16777215
176
     0
 74
     1
176
     0
 91
        4
176
     0
 64
     7
176
     0
 65
   257
176
     0
 75
     1
176
     0
175
     1
176
     0
 42
1.0
176
     0
 92
       10
176
     2
 66
     7
176
     0
 43
1.0
176
     0
 76
     1
176
     0
 77
     6
176
     0
 78
     2
176
     0
 67
     7
176
     0
 79
     5
176
     0
170
     0
176
     0
171
     0
176
     0
290
     0
176
     0
 93
        1
176
     0
 44
0.0
176
     0
173
     0
176
     0
  0
VISUALSTYLE
  5
38
102
{ACAD_REACTORS
330
2A
102
}
330
2A
100
AcDbVisualStyle
  2
Linepattern
 70
    14
177
     2
291
     1
 71
     2
176
     1
 72
     2
176
     1
 73
     0
176
     1
 90
        0
176
     1
 40
-0.6
176
     1
 41
-30.0
176
     1
 62
     5
 63
     7
421
 16777215
176
     1
 74
     1
176
     1
 91
        4
176
     1
 64
     7
176
     1
 65
   257
176
     1
 75
     7
176
     1
175
     7
176
     1
 42
1.0
176
     1
 92
        8
176
     1
 66
     7
176
     1
 43
1.0
176
     1
 76
     1
176
     1
 77
     6
176
     1
 78
     2
176
     1
 67
     7
176
     1
 79
     5
176
     1
170
     0
176
     1
171
     0
176
     1
290
     0
176
     1
 93
        1
176
     1
 44
0.0
176
     1
173
     0
176
     1
  0
VISUALSTYLE
  5
2B1
102
{ACAD_REACTORS
330
2A
102
}
330
2A
100
AcDbVisualStyle
  2
OverhangOff
 70
    21
177
     2
291
     1
 71
     2
176
     0
 72
     2
176
     0
 73
     0
176
     0
 90
        0
176
     0
 40
0.6
176
     0
 41
30.0
176
     0
 62
     5
 63
     7
421
 16777215
176
     0
 74
     1
176
     0
 91
        4
176
     0
 64
     7
176
     0
 65
   257
176
     0
 75
     1
176
     0
175
     1
176
     0
 42
1.0
176
     0
 92
        9
176
     2
 66
     7
176
     0
 43
1.0
176
     0
 76
     1
176
     0
 77
     6
176
     0
 78
     2
176
     0
 67
     7
176
     0
 79
     5
176
     0
170
     0
176
     0
171
     0
176
     0
290
     0
176
     0
 93
        1
176
     0
 44
0.0
176
     0
173
     0
176
     0
  0
VISUALSTYLE
  5
33
102
{ACAD_REACTORS
330
2A
102
}
330
2A
100
AcDbVisualStyle
  2
Realistic
 70
     8
177
     2
291
     0
 71
     2
176
     1
 72
     2
176
     1
 73
     0
176
     1
 90
        0
176
     1
 40
-0.6
176
     1
 41
-30.0
176
     1
 62
     5
 63
     7
421
 16777215
176
     1
 74
     1
176
     1
 91
        0
176
     1
 64
     7
176
     1
 65
   257
176
     1
 75
     1
176
     1
175
     1
176
     1
 42
1.0
176
     1
 92
        8
176
     1
 66
     8
424
  7895160
176
     1
 43
1.0
176
     1
 76
     1
176
     1
 77
     6
176
     1
 78
     2
176
     1
 67
     7
176
     1
 79
     5
176
     1
170
     0
176
     1
171
     0
176
     1
290
     0
176
     1
 93
       13
176
     1
 44
0.0
176
     1
173
     0
176
     1
  0
VISUALSTYLE
  5
2B7
102
{ACAD_REACTORS
330
2A
102
}
330
2A
100
AcDbVisualStyle
  2
Shaded
 70
    27
177
     2
291
     0
 71
     2
176
     1
 72
     2
176
     1
 73
     1
176
     1
 90
        2
176
     1
 40
0.6
176
     1
 41
30.0
176
     1
 62
     5
 63
     7
421
 16777215
176
     1
 74
     0
176
     1
 91
        4
176
     1
 64
     7
176
     1
 65
   257
176
     1
 75
     1
176
     1
175
     1
176
     1
 42
1.0
176
     1
 92
        8
176
     1
 66
   257
176
     1
 43
1.0
176
     1
 76
     1
176
     1
 77
     6
176
     1
 78
     2
176
     1
 67
     8
425
  7895160
176
     1
 79
     3
176
     1
170
     0
176
     1
171
     0
176
     1
290
     0
176
     1
 93
        5
176
     1
 44
0.0
176
     1
173
     0
176
     1
  0
VISUALSTYLE
  5
2B6
102
{ACAD_REACTORS
330
2A
102
}
330
2A
100
AcDbVisualStyle
  2
Shaded with edges
 70
    26
177
     2
291
     0
 71
     2
176
     1
 72
     2
176
     1
 73
     1
176
     1
 90
        2
176
     1
 40
0.6
176
     1
 41
30.0
176
     1
 62
     5
 63
     7
421
 16777215
176
     1
 74
     1
176
     1
 91
       10
176
     1
 64
     7
176
     1
 65
   257
176
     1
 75
     2
176
     1
175
     1
176
     1
 42
1.0
176
     1
 92
        8
176
     1
 66
   257
176
     1
 43
1.0
176
     1
 76
     1
176
     1
 77
     6
176
     1
 78
     2
176
     1
 67
     7
176
     1
 79
     3
176
     1
170
     0
176
     1
171
     0
176
     1
290
     0
176
     1
 93
        5
176
     1
 44
0.0
176
     1
173
     0
176
     1
  0
VISUALSTYLE
  5
2B3
102
{ACAD_REACTORS
330
2A
102
}
330
2A
100
AcDbVisualStyle
  2
Shades of Gray
 70
    23
177
     2
291
     0
 71
     2
176
     1
 72
     2
176
     1
 73
     3
176
     1
 90
        0
176
     1
 40
0.6
176
     1
 41
30.0
176
     1
 62
     5
 63
     7
421
 16777215
176
     1
 74
     2
176
     1
 91
        2
176
     1
 64
     7
176
     1
 65
     7
176
     1
 75
     1
176
     1
175
     1
176
     1
 42
40.0
176
     1
 92
        8
176
     1
 66
     7
176
     1
 43
1.0
176
     1
 76
     1
176
     1
 77
     6
176
     1
 78
     2
176
     1
 67
     7
176
     1
 79
     3
176
     1
170
     0
176
     1
171
     0
176
     1
290
     0
176
     1
 93
        1
176
     1
 44
0.0
176
     1
173
     0
176
     1
  0
VISUALSTYLE
  5
2B4
102
{ACAD_REACTORS
330
2A
102
}
330
2A
100
AcDbVisualStyle
  2
Sketchy
 70
    24
177
     2
291
     0
 71
     1
176
     1
 72
     2
176
     1
 73
     2
176
     1
 90
        0
176
     1
 40
0.6
176
     1
 41
30.0
176
     1
 62
     5
 63
     7
421
 16777215
176
     1
 74
     2
176
     1
 91
        2
176
     1
 64
     7
176
     1
 65
     7
176
     1
 75
     1
176
     1
175
     1
176
     1
 42
40.0
176
     1
 92
       11
176
     1
 66
     7
176
     1
 43
1.0
176
     1
 76
     1
176
     1
 77
     6
176
     1
 78
     2
176
     1
 67
     7
176
     1
 79
     6
176
     1
170
     0
176
     1
171
     0
176
     1
290
     0
176
     1
 93
        1
176
     1
 44
0.0
176
     1
173
     0
176
     1
  0
VISUALSTYLE
  5
37
102
{ACAD_REACTORS
330
2A
102
}
330
2A
100
AcDbVisualStyle
  2
Thicken
 70
    13
177
     2
291
     1
 71
     2
176
     1
 72
     2
176
     1
 73
     0
176
     1
 90
        0
176
     1
 40
-0.6
176
     1
 41
-30.0
176
     1
 62
     5
 63
     7
421
 16777215
176
     1
 74
     1
176
     1
 91
        4
176
     1
 64
     7
176
     1
 65
   257
176
     1
 75
     1
176
     1
175
     1
176
     1
 42
1.0
176
     1
 92
       12
176
     1
 66
     7
176
     1
 43
1.0
176
     1
 76
     1
176
     1
 77
     6
176
     1
 78
     2
176
     1
 67
     7
176
     1
 79
     5
176
     1
170
     0
176
     1
171
     0
176
     1
290
     0
176
     1
 93
        1
176
     1
 44
0.0
176
     1
173
     0
176
     1
  0
VISUALSTYLE
  5
2AE
102
{ACAD_REACTORS
330
2A
102
}
330
2A
100
AcDbVisualStyle
  2
Wireframe
 70
     5
177
     2
291
     0
 71
     0
176
     1
 72
     2
176
     1
 73
     0
176
     1
 90
        0
176
     1
 40
0.6
176
     1
 41
30.0
176
     1
 62
     5
 63
     7
421
 16777215
176
     1
 74
     1
176
     1
 91
        4
176
     1
 64
     7
176
     1
 65
   257
176
     1
 75
     1
176
     1
175
     1
176
     1
 42
1.0
176
     1
 92
        0
176
     1
 66
   257
176
     1
 43
1.0
176
     1
 76
     1
176
     1
 77
     6
176
     1
 78
     2
176
     1
 67
     7
176
     1
 79
     3
176
     1
170
     0
176
     1
171
     0
176
     1
290
     0
176
     1
 93
        1
176
     1
 44
0.0
176
     1
173
     0
176
     1
  0
VISUALSTYLE
  5
2B5
102
{ACAD_REACTORS
330
2A
102
}
330
2A
100
AcDbVisualStyle
  2
X-Ray
 70
    25
177
     2
291
     0
 71
     2
176
     1
 72
     2
176
     1
 73
     1
176
     1
 90
        1
176
     1
 40
0.5
176
     1
 41
30.0
176
     1
 62
     5
 63
     7
421
 16777215
176
     1
 74
     1
176
     1
 91
        0
176
     1
 64
     7
176
     1
 65
   257
176
     1
 75
     1
176
     1
175
     1
176
     1
 42
1.0
176
     1
 92
        8
176
     1
 66
     7
176
     1
 43
1.0
176
     1
 76
     1
176
     1
 77
     6
176
     1
 78
     2
176
     1
 67
     7
176
     1
 79
     3
176
     1
170
     0
176
     1
171
     0
176
     1
290
     0
176
     1
 93
       13
176
     1
 44
0.0
176
     1
173
     0
176
     1
  0
DICTIONARYVAR
  5
356
102
{ACAD_REACTORS
330
355
102
}
330
355
100
DictionaryVariables
280
     0
  1
1:1
  0
DICTIONARYVAR
  5
358
102
{ACAD_REACTORS
330
355
102
}
330
355
100
DictionaryVariables
280
     0
  1
Standard
  0
DICTIONARYVAR
  5
357
102
{ACAD_REACTORS
330
355
102
}
330
355
100
DictionaryVariables
280
     0
  1
Standard
  0
DICTIONARYVAR
  5
359
102
{ACAD_REACTORS
330
355
102
}
330
355
100
DictionaryVariables
280
     0
  1
0
  0
DICTIONARY
  5
3F9
330
2B8
100
AcDbDictionary
280
     1
281
     1
  3
ACAD_ROUNDTRIP_2008_TABLESTYLE_CELLSTYLEMAP
360
3FA
  0
CELLSTYLEMAP
  5
3FA
102
{ACAD_REACTORS
330
3F9
102
}
330
3F9
100
AcDbCellStyleMap
 90
        3
300
CELLSTYLE
  1
TABLEFORMAT_BEGIN
 90
        5
170
     1
 91
        0
 92
    32768
 62
   257
 93
        1
300
CONTENTFORMAT
  1
CONTENTFORMAT_BEGIN
 90
        0
 91
        0
 92
        4
 93
        0
300

 40
0.0
140
1.0
 94
        5
 62
     0
340
11
144
6.0
309
CONTENTFORMAT_END
171
     1
301
MARGIN
  1
CELLMARGIN_BEGIN
 40
1.5
 40
1.5
 40
1.5
 40
1.5
 40
1.5
 40
1.5
309
CELLMARGIN_END
 94
        6
 95
        1
302
GRIDFORMAT
  1
GRIDFORMAT_BEGIN
 90
        0
 91
        1
 62
     0
 92
       -2
340
14
 93
        0
 40
0.045
309
GRIDFORMAT_END
 95
        2
302
GRIDFORMAT
  1
GRIDFORMAT_BEGIN
 90
        0
 91
        1
 62
     0
 92
       -2
340
14
 93
        0
 40
0.045
309
GRIDFORMAT_END
 95
        4
302
GRIDFORMAT
  1
GRIDFORMAT_BEGIN
 90
        0
 91
        1
 62
     0
 92
       -2
340
14
 93
        0
 40
0.045
309
GRIDFORMAT_END
 95
        8
302
GRIDFORMAT
  1
GRIDFORMAT_BEGIN
 90
        0
 91
        1
 62
     0
 92
       -2
340
14
 93
        0
 40
0.045
309
GRIDFORMAT_END
 95
       16
302
GRIDFORMAT
  1
GRIDFORMAT_BEGIN
 90
        0
 91
        1
 62
     0
 92
       -2
340
14
 93
        0
 40
0.045
309
GRIDFORMAT_END
 95
       32
302
GRIDFORMAT
  1
GRIDFORMAT_BEGIN
 90
        0
 91
        1
 62
     0
 92
       -2
340
14
 93
        0
 40
0.045
309
GRIDFORMAT_END
309
TABLEFORMAT_END
  1
CELLSTYLE_BEGIN
 90
        1
 91
        1
300
_TITLE
309
CELLSTYLE_END
300
CELLSTYLE
  1
TABLEFORMAT_BEGIN
 90
        5
170
     1
 91
        0
 92
        0
 62
   257
 93
        1
300
CONTENTFORMAT
  1
CONTENTFORMAT_BEGIN
 90
        0
 91
        0
 92
        4
 93
        0
300

 40
0.0
140
1.0
 94
        5
 62
     0
340
11
144
4.5
309
CONTENTFORMAT_END
171
     1
301
MARGIN
  1
CELLMARGIN_BEGIN
 40
1.5
 40
1.5
 40
1.5
 40
1.5
 40
1.5
 40
1.5
309
CELLMARGIN_END
 94
        6
 95
        1
302
GRIDFORMAT
  1
GRIDFORMAT_BEGIN
 90
        0
 91
        1
 62
     0
 92
       -2
340
14
 93
        0
 40
0.045
309
GRIDFORMAT_END
 95
        2
302
GRIDFORMAT
  1
GRIDFORMAT_BEGIN
 90
        0
 91
        1
 62
     0
 92
       -2
340
14
 93
        0
 40
0.045
309
GRIDFORMAT_END
 95
        4
302
GRIDFORMAT
  1
GRIDFORMAT_BEGIN
 90
        0
 91
        1
 62
     0
 92
       -2
340
14
 93
        0
 40
0.045
309
GRIDFORMAT_END
 95
        8
302
GRIDFORMAT
  1
GRIDFORMAT_BEGIN
 90
        0
 91
        1
 62
     0
 92
       -2
340
14
 93
        0
 40
0.045
309
GRIDFORMAT_END
 95
       16
302
GRIDFORMAT
  1
GRIDFORMAT_BEGIN
 90
        0
 91
        1
 62
     0
 92
       -2
340
14
 93
        0
 40
0.045
309
GRIDFORMAT_END
 95
       32
302
GRIDFORMAT
  1
GRIDFORMAT_BEGIN
 90
        0
 91
        1
 62
     0
 92
       -2
340
14
 93
        0
 40
0.045
309
GRIDFORMAT_END
309
TABLEFORMAT_END
  1
CELLSTYLE_BEGIN
 90
        2
 91
        1
300
_HEADER
309
CELLSTYLE_END
300
CELLSTYLE
  1
TABLEFORMAT_BEGIN
 90
        5
170
     1
 91
        0
 92
        0
 62
   257
 93
        1
300
CONTENTFORMAT
  1
CONTENTFORMAT_BEGIN
 90
        0
 91
        0
 92
        4
 93
        0
300

 40
0.0
140
1.0
 94
        2
 62
     0
340
11
144
4.5
309
CONTENTFORMAT_END
171
     1
301
MARGIN
  1
CELLMARGIN_BEGIN
 40
1.5
 40
1.5
 40
1.5
 40
1.5
 40
1.5
 40
1.5
309
CELLMARGIN_END
 94
        6
 95
        1
302
GRIDFORMAT
  1
GRIDFORMAT_BEGIN
 90
        0
 91
        1
 62
     0
 92
       -2
340
14
 93
        0
 40
0.045
309
GRIDFORMAT_END
 95
        2
302
GRIDFORMAT
  1
GRIDFORMAT_BEGIN
 90
        0
 91
        1
 62
     0
 92
       -2
340
14
 93
        0
 40
0.045
309
GRIDFORMAT_END
 95
        4
302
GRIDFORMAT
  1
GRIDFORMAT_BEGIN
 90
        0
 91
        1
 62
     0
 92
       -2
340
14
 93
        0
 40
0.045
309
GRIDFORMAT_END
 95
        8
302
GRIDFORMAT
  1
GRIDFORMAT_BEGIN
 90
        0
 91
        1
 62
     0
 92
       -2
340
14
 93
        0
 40
0.045
309
GRIDFORMAT_END
 95
       16
302
GRIDFORMAT
  1
GRIDFORMAT_BEGIN
 90
        0
 91
        1
 62
     0
 92
       -2
340
14
 93
        0
 40
0.045
309
GRIDFORMAT_END
 95
       32
302
GRIDFORMAT
  1
GRIDFORMAT_BEGIN
 90
        0
 91
        1
 62
     0
 92
       -2
340
14
 93
        0
 40
0.045
309
GRIDFORMAT_END
309
TABLEFORMAT_END
  1
CELLSTYLE_BEGIN
 90
        3
 91
        2
300
_DATA
309
CELLSTYLE_END
  0
ENDSEC
  0
EOF
