  0
SECTION
  2
HEADER
  9
$ACADVER
  1
AC1024
  9
$ACADMAINTVER
 70
     6
  9
$DWGCODEPAGE
  3
ANSI_1254
  9
$LASTSAVEDBY
  1
DOZ 3
  9
$INSBASE
 10
0.0
 20
0.0
 30
0.0
  9
$EXTMIN
 10
748204.3717641
 20
4188451.066
 30
950.1199951171875
  9
$EXTMAX
 10
748380.344
 20
4188703.469212874
 30
964.8720092773438
  9
$LIMMIN
 10
0.0
 20
0.0
  9
$LIMMAX
 10
420.0
 20
297.0
  9
$ORTHOMODE
 70
     0
  9
$REGENMODE
 70
     1
  9
$FILLMODE
 70
     1
  9
$QTEXTMODE
 70
     0
  9
$MIRRTEXT
 70
     1
  9
$LTSCALE
 40
1.0
  9
$ATTMODE
 70
     1
  9
$TEXTSIZE
 40
2.5
  9
$TRACEWID
 40
1.0
  9
$TEXTSTYLE
  7
Standard
  9
$CLAYER
  8
GEOFENCE
  9
$CELTYPE
  6
ByLayer
  9
$CECOLOR
 62
   256
  9
$CELTSCALE
 40
1.0
  9
$DISPSILH
 70
     0
  9
$DIMSCALE
 40
1.0
  9
$DIMASZ
 40
2.5
  9
$DIMEXO
 40
0.625
  9
$DIMDLI
 40
3.75
  9
$DIMRND
 40
0.0
  9
$DIMDLE
 40
0.0
  9
$DIMEXE
 40
1.25
  9
$DIMTP
 40
0.0
  9
$DIMTM
 40
0.0
  9
$DIMTXT
 40
2.5
  9
$DIMCEN
 40
2.5
  9
$DIMTSZ
 40
0.0
  9
$DIMTOL
 70
     0
  9
$DIMLIM
 70
     0
  9
$DIMTIH
 70
     0
  9
$DIMTOH
 70
     0
  9
$DIMSE1
 70
     0
  9
$DIMSE2
 70
     0
  9
$DIMTAD
 70
     1
  9
$DIMZIN
 70
     8
  9
$DIMBLK
  1

  9
$DIMASO
 70
     1
  9
$DIMSHO
 70
     1
  9
$DIMPOST
  1

  9
$DIMAPOST
  1

  9
$DIMALT
 70
     0
  9
$DIMALTD
 70
     3
  9
$DIMALTF
 40
0.03937007874016
  9
$DIMLFAC
 40
1.0
  9
$DIMTOFL
 70
     1
  9
$DIMTVP
 40
0.0
  9
$DIMTIX
 70
     0
  9
$DIMSOXD
 70
     0
  9
$DIMSAH
 70
     0
  9
$DIMBLK1
  1

  9
$DIMBLK2
  1

  9
$DIMSTYLE
  2
ISO-25
  9
$DIMCLRD
 70
     0
  9
$DIMCLRE
 70
     0
  9
$DIMCLRT
 70
     0
  9
$DIMTFAC
 40
1.0
  9
$DIMGAP
 40
0.625
  9
$DIMJUST
 70
     0
  9
$DIMSD1
 70
     0
  9
$DIMSD2
 70
     0
  9
$DIMTOLJ
 70
     0
  9
$DIMTZIN
 70
     8
  9
$DIMALTZ
 70
     0
  9
$DIMALTTZ
 70
     0
  9
$DIMUPT
 70
     0
  9
$DIMDEC
 70
     2
  9
$DIMTDEC
 70
     2
  9
$DIMALTU
 70
     2
  9
$DIMALTTD
 70
     3
  9
$DIMTXSTY
  7
Standard
  9
$DIMAUNIT
 70
     0
  9
$DIMADEC
 70
     0
  9
$DIMALTRND
 40
0.0
  9
$DIMAZIN
 70
     0
  9
$DIMDSEP
 70
    44
  9
$DIMATFIT
 70
     3
  9
$DIMFRAC
 70
     0
  9
$DIMLDRBLK
  1

  9
$DIMLUNIT
 70
     2
  9
$DIMLWD
 70
    -2
  9
$DIMLWE
 70
    -2
  9
$DIMTMOVE
 70
     0
  9
$DIMFXL
 40
1.0
  9
$DIMFXLON
 70
     0
  9
$DIMJOGANG
 40
0.7853981633974483
  9
$DIMTFILL
 70
     0
  9
$DIMTFILLCLR
 70
     0
  9
$DIMARCSYM
 70
     0
  9
$DIMLTYPE
  6

  9
$DIMLTEX1
  6

  9
$DIMLTEX2
  6

  9
$DIMTXTDIRECTION
 70
     0
  9
$LUNITS
 70
     2
  9
$LUPREC
 70
     4
  9
$SKETCHINC
 40
1.0
  9
$FILLETRAD
 40
10.0
  9
$AUNITS
 70
     0
  9
$AUPREC
 70
     0
  9
$MENU
  1
.
  9
$ELEVATION
 40
0.0
  9
$PELEVATION
 40
0.0
  9
$THICKNESS
 40
0.0
  9
$LIMCHECK
 70
     0
  9
$CHAMFERA
 40
10.0
  9
$CHAMFERB
 40
10.0
  9
$CHAMFERC
 40
20.0
  9
$CHAMFERD
 40
0.0
  9
$SKPOLY
 70
     0
  9
$TDCREATE
 40
2458253.360850382
  9
$TDUCREATE
 40
2458253.235850382
  9
$TDUPDATE
 40
2458260.142790648
  9
$TDUUPDATE
 40
2458260.017790648
  9
$TDINDWG
 40
0.0216790741
  9
$TDUSRTIMER
 40
0.0575321991
  9
$USRTIMER
 70
     1
  9
$ANGBASE
 50
0.0
  9
$ANGDIR
 70
     0
  9
$PDMODE
 70
     0
  9
$PDSIZE
 40
0.0
  9
$PLINEWID
 40
0.0
  9
$SPLFRAME
 70
     0
  9
$SPLINETYPE
 70
     6
  9
$SPLINESEGS
 70
     8
  9
$HANDSEED
  5
422
  9
$SURFTAB1
 70
     6
  9
$SURFTAB2
 70
     6
  9
$SURFTYPE
 70
     6
  9
$SURFU
 70
     6
  9
$SURFV
 70
     6
  9
$UCSBASE
  2

  9
$UCSNAME
  2

  9
$UCSORG
 10
0.0
 20
0.0
 30
0.0
  9
$UCSXDIR
 10
1.0
 20
0.0
 30
0.0
  9
$UCSYDIR
 10
0.0
 20
1.0
 30
0.0
  9
$UCSORTHOREF
  2

  9
$UCSORTHOVIEW
 70
     1
  9
$UCSORGTOP
 10
0.0
 20
0.0
 30
0.0
  9
$UCSORGBOTTOM
 10
0.0
 20
0.0
 30
0.0
  9
$UCSORGLEFT
 10
0.0
 20
0.0
 30
0.0
  9
$UCSORGRIGHT
 10
0.0
 20
0.0
 30
0.0
  9
$UCSORGFRONT
 10
0.0
 20
0.0
 30
0.0
  9
$UCSORGBACK
 10
0.0
 20
0.0
 30
0.0
  9
$PUCSBASE
  2

  9
$PUCSNAME
  2

  9
$PUCSORG
 10
0.0
 20
0.0
 30
0.0
  9
$PUCSXDIR
 10
1.0
 20
0.0
 30
0.0
  9
$PUCSYDIR
 10
0.0
 20
1.0
 30
0.0
  9
$PUCSORTHOREF
  2

  9
$PUCSORTHOVIEW
 70
     0
  9
$PUCSORGTOP
 10
0.0
 20
0.0
 30
0.0
  9
$PUCSORGBOTTOM
 10
0.0
 20
0.0
 30
0.0
  9
$PUCSORGLEFT
 10
0.0
 20
0.0
 30
0.0
  9
$PUCSORGRIGHT
 10
0.0
 20
0.0
 30
0.0
  9
$PUCSORGFRONT
 10
0.0
 20
0.0
 30
0.0
  9
$PUCSORGBACK
 10
0.0
 20
0.0
 30
0.0
  9
$USERI1
 70
     0
  9
$USERI2
 70
     0
  9
$USERI3
 70
     0
  9
$USERI4
 70
     0
  9
$USERI5
 70
     0
  9
$USERR1
 40
0.0
  9
$USERR2
 40
0.0
  9
$USERR3
 40
0.0
  9
$USERR4
 40
0.0
  9
$USERR5
 40
0.0
  9
$WORLDVIEW
 70
     1
  9
$SHADEDGE
 70
     3
  9
$SHADEDIF
 70
    70
  9
$TILEMODE
 70
     1
  9
$MAXACTVP
 70
    64
  9
$PINSBASE
 10
0.0
 20
0.0
 30
0.0
  9
$PLIMCHECK
 70
     0
  9
$PEXTMIN
 10
1.000000000000000E+20
 20
1.000000000000000E+20
 30
1.000000000000000E+20
  9
$PEXTMAX
 10
-1.000000000000000E+20
 20
-1.000000000000000E+20
 30
-1.000000000000000E+20
  9
$PLIMMIN
 10
0.0
 20
0.0
  9
$PLIMMAX
 10
0.0
 20
0.0
  9
$UNITMODE
 70
     0
  9
$VISRETAIN
 70
     1
  9
$PLINEGEN
 70
     0
  9
$PSLTSCALE
 70
     1
  9
$TREEDEPTH
 70
  3020
  9
$CMLSTYLE
  2
Standard
  9
$CMLJUST
 70
     0
  9
$CMLSCALE
 40
20.0
  9
$PROXYGRAPHICS
 70
     1
  9
$MEASUREMENT
 70
     1
  9
$CELWEIGHT
370
    -1
  9
$ENDCAPS
280
     0
  9
$JOINSTYLE
280
     0
  9
$LWDISPLAY
290
     0
  9
$INSUNITS
 70
     4
  9
$HYPERLINKBASE
  1

  9
$STYLESHEET
  1

  9
$XEDIT
290
     1
  9
$CEPSNTYPE
380
     0
  9
$PSTYLEMODE
290
     1
  9
$FINGERPRINTGUID
  2
{4D8D12E3-BBFF-4427-9F17-D4394C852717}
  9
$VERSIONGUID
  2
{FAEB1C32-E019-11D5-929B-00C0DF256EC4}
  9
$EXTNAMES
290
     1
  9
$PSVPSCALE
 40
0.0
  9
$OLESTARTUP
290
     0
  9
$SORTENTS
280
   127
  9
$INDEXCTL
280
     0
  9
$HIDETEXT
280
     1
  9
$XCLIPFRAME
280
     0
  9
$HALOGAP
280
     0
  9
$OBSCOLOR
 70
   257
  9
$OBSLTYPE
280
     0
  9
$INTERSECTIONDISPLAY
280
     0
  9
$INTERSECTIONCOLOR
 70
   257
  9
$DIMASSOC
280
     2
  9
$PROJECTNAME
  1

  9
$CAMERADISPLAY
290
     0
  9
$LENSLENGTH
 40
50.0
  9
$CAMERAHEIGHT
 40
0.0
  9
$STEPSPERSEC
 40
2.0
  9
$STEPSIZE
 40
6.0
  9
$3DDWFPREC
 40
2.0
  9
$PSOLWIDTH
 40
5.0
  9
$PSOLHEIGHT
 40
80.0
  9
$LOFTANG1
 40
1.570796326794897
  9
$LOFTANG2
 40
1.570796326794897
  9
$LOFTMAG1
 40
0.0
  9
$LOFTMAG2
 40
0.0
  9
$LOFTPARAM
 70
     7
  9
$LOFTNORMALS
280
     1
  9
$LATITUDE
 40
37.795
  9
$LONGITUDE
 40
-122.394
  9
$NORTHDIRECTION
 40
0.0
  9
$TIMEZONE
 70
 -8000
  9
$LIGHTGLYPHDISPLAY
280
     1
  9
$TILEMODELIGHTSYNCH
280
     1
  9
$SOLIDHIST
280
     1
  9
$SHOWHIST
280
     1
  9
$DWFFRAME
280
     2
  9
$DGNFRAME
280
     2
  9
$REALWORLDSCALE
290
     1
  9
$INTERFERECOLOR
 62
   256
  9
$CSHADOW
280
     0
  9
$SHADOWPLANELOCATION
 40
0.0
  0
ENDSEC
  0
SECTION
  2
CLASSES
  0
CLASS
  1
ACDBDICTIONARYWDFLT
  2
AcDbDictionaryWithDefault
  3
ObjectDBX Classes
 90
        0
 91
        4
280
     0
281
     0
  0
CLASS
  1
VISUALSTYLE
  2
AcDbVisualStyle
  3
ObjectDBX Classes
 90
     4095
 91
        4
280
     0
281
     0
  0
CLASS
  1
MATERIAL
  2
AcDbMaterial
  3
ObjectDBX Classes
 90
     1153
 91
        4
280
     0
281
     0
  0
CLASS
  1
SCALE
  2
AcDbScale
  3
ObjectDBX Classes
 90
     1153
 91
        4
280
     0
281
     0
  0
CLASS
  1
TABLESTYLE
  2
AcDbTableStyle
  3
ObjectDBX Classes
 90
     4095
 91
        4
280
     0
281
     0
  0
CLASS
  1
MLEADERSTYLE
  2
AcDbMLeaderStyle
  3
ACDB_MLEADERSTYLE_CLASS
 90
     4095
 91
        4
280
     0
281
     0
  0
CLASS
  1
SUN
  2
AcDbSun
  3
SCENEOE
 90
     1153
 91
        4
280
     0
281
     0
  0
CLASS
  1
DICTIONARYVAR
  2
AcDbDictionaryVar
  3
ObjectDBX Classes
 90
        0
 91
        4
280
     0
281
     0
  0
CLASS
  1
CELLSTYLEMAP
  2
AcDbCellStyleMap
  3
ObjectDBX Classes
 90
     1152
 91
        4
280
     0
281
     0
  0
ENDSEC
  0
SECTION
  2
TABLES
  0
TABLE
  2
VPORT
  5
8
330
0
100
AcDbSymbolTable
 70
     1
  0
VPORT
  5
29
330
8
100
AcDbSymbolTableRecord
100
AcDbViewportTableRecord
  2
*Active
 70
     0
 10
0.0
 20
0.0
 11
1.0
 21
1.0
 12
214763.3635848803
 22
-2501612.35162662
 13
0.0
 23
0.0
 14
10.0
 24
10.0
 15
10.0
 25
10.0
 16
0.0
 26
0.0
 36
1.0
 17
533516.1361649025
 27
6690143.623828826
 37
-6636.192452124087
 40
34.55452548724875
 41
2.542929292929293
 42
50.0
 43
0.0
 44
0.0
 50
0.0
 51
0.0
 71
    16
 72
   100
 73
     1
 74
     3
 75
     0
 76
     0
 77
     0
 78
     0
281
     0
 65
     1
110
0.0
120
0.0
130
0.0
111
1.0
121
0.0
131
0.0
112
0.0
122
1.0
132
0.0
 79
     1
146
0.0
348
2F
 60
     3
 61
     5
292
     1
282
     1
141
0.0
142
0.0
 63
   250
361
2E3
  0
ENDTAB
  0
TABLE
  2
LTYPE
  5
5
330
0
100
AcDbSymbolTable
 70
     1
  0
LTYPE
  5
14
330
5
100
AcDbSymbolTableRecord
100
AcDbLinetypeTableRecord
  2
ByBlock
 70
     0
  3

 72
    65
 73
     0
 40
0.0
  0
LTYPE
  5
15
330
5
100
AcDbSymbolTableRecord
100
AcDbLinetypeTableRecord
  2
ByLayer
 70
     0
  3

 72
    65
 73
     0
 40
0.0
  0
LTYPE
  5
16
330
5
100
AcDbSymbolTableRecord
100
AcDbLinetypeTableRecord
  2
Continuous
 70
     0
  3
Solid line
 72
    65
 73
     0
 40
0.0
  0
ENDTAB
  0
TABLE
  2
LAYER
  5
2
102
{ACAD_XDICTIONARY
360
2EB
102
}
330
0
100
AcDbSymbolTable
 70
     5
  0
LAYER
  5
10
330
2
100
AcDbSymbolTableRecord
100
AcDbLayerTableRecord
  2
0
 70
     4
 62
     1
  6
Continuous
370
     0
390
F
347
3E
  0
LAYER
  5
3F
330
2
100
AcDbSymbolTableRecord
100
AcDbLayerTableRecord
  2
957_957
 70
     4
 62
     4
  6
Continuous
370
     0
390
F
347
3E
  0
LAYER
  5
2EE
330
2
100
AcDbSymbolTableRecord
100
AcDbLayerTableRecord
  2
INIT_COORD
 70
     4
 62
     1
  6
Continuous
370
     0
390
F
347
3E
1001
AcAecLayerStandard
1000

1000

  0
LAYER
  5
335
330
2
100
AcDbSymbolTableRecord
100
AcDbLayerTableRecord
  2
GEOFENCE
 70
     0
 62
     2
  6
Continuous
370
     0
390
F
347
3E
1001
AcAecLayerStandard
1000

1000

  0
ENDTAB
  0
TABLE
  2
STYLE
  5
3
330
0
100
AcDbSymbolTable
 70
     1
  0
STYLE
  5
11
330
3
100
AcDbSymbolTableRecord
100
AcDbTextStyleTableRecord
  2
Standard
 70
     0
 40
0.0
 41
1.0
 50
0.0
 71
     0
 42
2.5
  3
C:\Windows\Font\TIMES.TTF
  4

  0
ENDTAB
  0
TABLE
  2
VIEW
  5
6
330
0
100
AcDbSymbolTable
 70
     0
  0
ENDTAB
  0
TABLE
  2
UCS
  5
7
330
0
100
AcDbSymbolTable
 70
     0
  0
ENDTAB
  0
TABLE
  2
APPID
  5
9
330
0
100
AcDbSymbolTable
 70
     2
  0
APPID
  5
12
330
9
100
AcDbSymbolTableRecord
100
AcDbRegAppTableRecord
  2
ACAD
 70
     0
  0
APPID
  5
2EF
330
9
100
AcDbSymbolTableRecord
100
AcDbRegAppTableRecord
  2
AcAecLayerStandard
 70
     0
  0
ENDTAB
  0
TABLE
  2
DIMSTYLE
  5
A
330
0
100
AcDbSymbolTable
 70
     1
100
AcDbDimStyleTable
  0
DIMSTYLE
105
27
330
A
100
AcDbSymbolTableRecord
100
AcDbDimStyleTableRecord
  2
ISO-25
 70
     0
 41
2.5
 42
0.625
 43
3.75
 44
1.25
 73
     0
 74
     0
 77
     1
 78
     8
140
2.5
141
2.5
143
0.03937007874016
147
0.625
171
     3
172
     1
178
     0
271
     2
272
     2
274
     3
278
    44
283
     0
284
     8
340
11
  0
ENDTAB
  0
TABLE
  2
BLOCK_RECORD
  5
1
330
0
100
AcDbSymbolTable
 70
     1
  0
BLOCK_RECORD
  5
1F
330
1
100
AcDbSymbolTableRecord
100
AcDbBlockTableRecord
  2
*Model_Space
340
22
 70
     0
280
     1
281
     0
  0
BLOCK_RECORD
  5
1B
330
1
100
AcDbSymbolTableRecord
100
AcDbBlockTableRecord
  2
*Paper_Space
340
1E
 70
     0
280
     1
281
     0
  0
BLOCK_RECORD
  5
23
330
1
100
AcDbSymbolTableRecord
100
AcDbBlockTableRecord
  2
*Paper_Space0
340
26
 70
     0
280
     1
281
     0
  0
ENDTAB
  0
ENDSEC
  0
SECTION
  2
BLOCKS
  0
BLOCK
  5
20
330
1F
100
AcDbEntity
  8
0
100
AcDbBlockBegin
  2
*Model_Space
 70
     0
 10
0.0
 20
0.0
 30
0.0
  3
*Model_Space
  1

  0
ENDBLK
  5
21
330
1F
100
AcDbEntity
  8
0
100
AcDbBlockEnd
  0
BLOCK
  5
1C
330
1B
100
AcDbEntity
 67
     1
  8
0
100
AcDbBlockBegin
  2
*Paper_Space
 70
     0
 10
0.0
 20
0.0
 30
0.0
  3
*Paper_Space
  1

  0
ENDBLK
  5
1D
330
1B
100
AcDbEntity
 67
     1
  8
0
100
AcDbBlockEnd
  0
BLOCK
  5
24
330
23
100
AcDbEntity
  8
0
100
AcDbBlockBegin
  2
*Paper_Space0
 70
     0
 10
0.0
 20
0.0
 30
0.0
  3
*Paper_Space0
  1

  0
ENDBLK
  5
25
330
23
100
AcDbEntity
  8
0
100
AcDbBlockEnd
  0
ENDSEC
  0
SECTION
  2
ENTITIES
  0
LINE
  5
41
330
1F
100
AcDbEntity
  8
957_957
370
     0
100
AcDbLine
 10
748318.42
 20
4188697.483
 30
956.4140014648438
 11
748294.874
 21
4188683.74
 31
957.594970703125
  0
LINE
  5
42
330
1F
100
AcDbEntity
  8
957_957
370
     0
100
AcDbLine
 10
748294.874
 20
4188683.74
 30
957.594970703125
 11
748293.972
 21
4188683.718
 31
957.656005859375
  0
LINE
  5
43
330
1F
100
AcDbEntity
  8
957_957
370
     0
100
AcDbLine
 10
748293.972
 20
4188683.718
 30
957.656005859375
 11
748291.549
 21
4188682.357
 31
957.5150146484375
  0
LINE
  5
44
330
1F
100
AcDbEntity
  8
957_957
370
     0
100
AcDbLine
 10
748291.549
 20
4188682.357
 30
957.5150146484375
 11
748289.548
 21
4188681.159
 31
957.4429931640625
  0
LINE
  5
45
330
1F
100
AcDbEntity
  8
957_957
370
     0
100
AcDbLine
 10
748289.548
 20
4188681.159
 30
957.4429931640625
 11
748288.614
 21
4188680.641
 31
957.5750122070312
  0
LINE
  5
46
330
1F
100
AcDbEntity
  8
957_957
370
     0
100
AcDbLine
 10
748288.614
 20
4188680.641
 30
957.5750122070312
 11
748287.673
 21
4188679.99
 31
957.5809936523438
  0
LINE
  5
47
330
1F
100
AcDbEntity
  8
957_957
370
     0
100
AcDbLine
 10
748287.673
 20
4188679.99
 30
957.5809936523438
 11
748286.746
 21
4188679.215
 31
957.5850219726562
  0
LINE
  5
48
330
1F
100
AcDbEntity
  8
957_957
370
     0
100
AcDbLine
 10
748286.746
 20
4188679.215
 30
957.5850219726562
 11
748285.892
 21
4188678.33
 31
957.635986328125
  0
LINE
  5
49
330
1F
100
AcDbEntity
  8
957_957
370
     0
100
AcDbLine
 10
748285.892
 20
4188678.33
 30
957.635986328125
 11
748285.259
 21
4188677.302
 31
957.6859741210938
  0
LINE
  5
4A
330
1F
100
AcDbEntity
  8
957_957
370
     0
100
AcDbLine
 10
748285.259
 20
4188677.302
 30
957.6859741210938
 11
748284.353
 21
4188675.937
 31
957.4739990234375
  0
LINE
  5
4B
330
1F
100
AcDbEntity
  8
957_957
370
     0
100
AcDbLine
 10
748284.353
 20
4188675.937
 30
957.4739990234375
 11
748283.622
 21
4188673.702
 31
957.5130004882812
  0
LINE
  5
4C
330
1F
100
AcDbEntity
  8
957_957
370
     0
100
AcDbLine
 10
748286.897
 20
4188673.968
 30
957.5499877929688
 11
748287.306
 21
4188674.801
 31
957.5040283203125
  0
LINE
  5
4D
330
1F
100
AcDbEntity
  8
957_957
370
     0
100
AcDbLine
 10
748287.306
 20
4188674.801
 30
957.5040283203125
 11
748287.891
 21
4188675.649
 31
957.5120239257812
  0
LINE
  5
4E
330
1F
100
AcDbEntity
  8
957_957
370
     0
100
AcDbLine
 10
748287.891
 20
4188675.649
 30
957.5120239257812
 11
748288.587
 21
4188676.414
 31
957.4849853515625
  0
LINE
  5
4F
330
1F
100
AcDbEntity
  8
957_957
370
     0
100
AcDbLine
 10
748288.587
 20
4188676.414
 30
957.4849853515625
 11
748290.22
 21
4188677.669
 31
957.5339965820312
  0
LINE
  5
50
330
1F
100
AcDbEntity
  8
957_957
370
     0
100
AcDbLine
 10
748290.22
 20
4188677.669
 30
957.5339965820312
 11
748291.995
 21
4188678.87
 31
957.5280151367188
  0
LINE
  5
51
330
1F
100
AcDbEntity
  8
957_957
370
     0
100
AcDbLine
 10
748291.995
 20
4188678.87
 30
957.5280151367188
 11
748294.382
 21
4188680.218
 31
957.5280151367188
  0
LINE
  5
52
330
1F
100
AcDbEntity
  8
957_957
370
     0
100
AcDbLine
 10
748296.028
 20
4188681.497
 30
957.47998046875
 11
748300.9
 21
4188684.282
 31
957.2969970703125
  0
LINE
  5
53
330
1F
100
AcDbEntity
  8
957_957
370
     0
100
AcDbLine
 10
748300.9
 20
4188684.282
 30
957.2969970703125
 11
748308.276
 21
4188688.583
 31
956.9140014648438
  0
LINE
  5
54
330
1F
100
AcDbEntity
  8
957_957
370
     0
100
AcDbLine
 10
748308.276
 20
4188688.583
 30
956.9140014648438
 11
748318.249
 21
4188694.519
 31
956.4860229492188
  0
LINE
  5
55
330
1F
100
AcDbEntity
  8
957_957
370
     0
100
AcDbLine
 10
748318.249
 20
4188694.519
 30
956.4860229492188
 11
748321.936
 21
4188696.688
 31
956.2869873046875
  0
LINE
  5
56
330
1F
100
AcDbEntity
  8
957_957
370
     0
100
AcDbLine
 10
748321.936
 20
4188696.688
 30
956.2869873046875
 11
748324.566
 21
4188698.182
 31
956.2769775390625
  0
LINE
  5
57
330
1F
100
AcDbEntity
  8
957_957
370
     0
100
AcDbLine
 10
748283.622
 20
4188673.702
 30
957.5130004882812
 11
748281.544
 21
4188668.97
 31
957.5859985351562
  0
LINE
  5
58
330
1F
100
AcDbEntity
  8
957_957
370
     0
100
AcDbLine
 10
748281.544
 20
4188668.97
 30
957.5859985351562
 11
748280.224
 21
4188665.217
 31
957.676025390625
  0
LINE
  5
59
330
1F
100
AcDbEntity
  8
957_957
370
     0
100
AcDbLine
 10
748280.224
 20
4188665.217
 30
957.676025390625
 11
748277.606
 21
4188658.708
 31
957.7999877929688
  0
LINE
  5
5A
330
1F
100
AcDbEntity
  8
957_957
370
     0
100
AcDbLine
 10
748280.874
 20
4188657.452
 30
957.7999877929688
 11
748282.799
 21
4188663.01
 31
957.676025390625
  0
LINE
  5
5B
330
1F
100
AcDbEntity
  8
957_957
370
     0
100
AcDbLine
 10
748282.799
 20
4188663.01
 30
957.676025390625
 11
748285.01
 21
4188668.578
 31
957.5859985351562
  0
LINE
  5
5C
330
1F
100
AcDbEntity
  8
957_957
370
     0
100
AcDbLine
 10
748285.01
 20
4188668.578
 30
957.5859985351562
 11
748286.897
 21
4188673.968
 31
957.5499877929688
  0
LINE
  5
5D
330
1F
100
AcDbEntity
  8
957_957
370
     0
100
AcDbLine
 10
748294.382
 20
4188680.218
 30
957.5280151367188
 11
748296.028
 21
4188681.497
 31
957.47998046875
  0
LINE
  5
5E
330
1F
100
AcDbEntity
  8
957_957
370
     0
100
AcDbLine
 10
748276.613
 20
4188655.269
 30
958.3400268554688
 11
748275.534
 21
4188653.065
 31
958.4110107421875
  0
LINE
  5
5F
330
1F
100
AcDbEntity
  8
957_957
370
     0
100
AcDbLine
 10
748275.534
 20
4188653.065
 30
958.4110107421875
 11
748274.591
 21
4188650.811
 31
958.427001953125
  0
LINE
  5
60
330
1F
100
AcDbEntity
  8
957_957
370
     0
100
AcDbLine
 10
748274.591
 20
4188650.811
 30
958.427001953125
 11
748273.718
 21
4188648.872
 31
958.5499877929688
  0
LINE
  5
61
330
1F
100
AcDbEntity
  8
957_957
370
     0
100
AcDbLine
 10
748273.718
 20
4188648.872
 30
958.5499877929688
 11
748272.803
 21
4188646.767
 31
958.5159912109375
  0
LINE
  5
62
330
1F
100
AcDbEntity
  8
957_957
370
     0
100
AcDbLine
 10
748272.803
 20
4188646.767
 30
958.5159912109375
 11
748271.917
 21
4188644.39
 31
958.60498046875
  0
LINE
  5
63
330
1F
100
AcDbEntity
  8
957_957
370
     0
100
AcDbLine
 10
748271.917
 20
4188644.39
 30
958.60498046875
 11
748270.437
 21
4188640.189
 31
958.6500244140625
  0
LINE
  5
64
330
1F
100
AcDbEntity
  8
957_957
370
     0
100
AcDbLine
 10
748270.437
 20
4188640.189
 30
958.6500244140625
 11
748268.463
 21
4188635.697
 31
958.7990112304688
  0
LINE
  5
65
330
1F
100
AcDbEntity
  8
957_957
370
     0
100
AcDbLine
 10
748271.279
 20
4188634.694
 30
958.6749877929688
 11
748272.136
 21
4188636.898
 31
958.676025390625
  0
LINE
  5
66
330
1F
100
AcDbEntity
  8
957_957
370
     0
100
AcDbLine
 10
748272.136
 20
4188636.898
 30
958.676025390625
 11
748273.768
 21
4188641.307
 31
958.7169799804688
  0
LINE
  5
67
330
1F
100
AcDbEntity
  8
957_957
370
     0
100
AcDbLine
 10
748273.768
 20
4188641.307
 30
958.7169799804688
 11
748275.126
 21
4188644.5
 31
958.5189819335938
  0
LINE
  5
68
330
1F
100
AcDbEntity
  8
957_957
370
     0
100
AcDbLine
 10
748275.126
 20
4188644.5
 30
958.5189819335938
 11
748275.991
 21
4188646.765
 31
958.4550170898438
  0
LINE
  5
69
330
1F
100
AcDbEntity
  8
957_957
370
     0
100
AcDbLine
 10
748275.991
 20
4188646.765
 30
958.4550170898438
 11
748276.572
 21
4188648.795
 31
958.4669799804688
  0
LINE
  5
6A
330
1F
100
AcDbEntity
  8
957_957
370
     0
100
AcDbLine
 10
748276.572
 20
4188648.795
 30
958.4669799804688
 11
748277.033
 21
4188649.873
 31
958.4509887695312
  0
LINE
  5
6B
330
1F
100
AcDbEntity
  8
957_957
370
     0
100
AcDbLine
 10
748277.033
 20
4188649.873
 30
958.4509887695312
 11
748277.959
 21
4188652.144
 31
958.4559936523438
  0
LINE
  5
6C
330
1F
100
AcDbEntity
  8
957_957
370
     0
100
AcDbLine
 10
748277.959
 20
4188652.144
 30
958.4559936523438
 11
748279.018
 21
4188654.323
 31
958.3889770507812
  0
LINE
  5
6D
330
1F
100
AcDbEntity
  8
957_957
370
     0
100
AcDbLine
 10
748277.606
 20
4188658.708
 30
957.7999877929688
 11
748276.613
 21
4188655.269
 31
958.3400268554688
  0
LINE
  5
6E
330
1F
100
AcDbEntity
  8
957_957
370
     0
100
AcDbLine
 10
748279.018
 20
4188654.323
 30
958.3889770507812
 11
748280.874
 21
4188657.452
 31
957.7999877929688
  0
LINE
  5
6F
330
1F
100
AcDbEntity
  8
957_957
370
     0
100
AcDbLine
 10
748268.463
 20
4188635.697
 30
958.7990112304688
 11
748267.784
 21
4188634.344
 31
958.510009765625
  0
LINE
  5
70
330
1F
100
AcDbEntity
  8
957_957
370
     0
100
AcDbLine
 10
748267.784
 20
4188634.344
 30
958.510009765625
 11
748267.046
 21
4188632.746
 31
958.510009765625
  0
LINE
  5
71
330
1F
100
AcDbEntity
  8
957_957
370
     0
100
AcDbLine
 10
748267.046
 20
4188632.746
 30
958.510009765625
 11
748266.142
 21
4188631.71
 31
958.510009765625
  0
LINE
  5
72
330
1F
100
AcDbEntity
  8
957_957
370
     0
100
AcDbLine
 10
748268.401
 20
4188627.146
 30
958.510009765625
 11
748268.971
 21
4188628.589
 31
958.510009765625
  0
LINE
  5
73
330
1F
100
AcDbEntity
  8
957_957
370
     0
100
AcDbLine
 10
748268.971
 20
4188628.589
 30
958.510009765625
 11
748269.914
 21
4188631.387
 31
958.510009765625
  0
LINE
  5
74
330
1F
100
AcDbEntity
  8
957_957
370
     0
100
AcDbLine
 10
748269.914
 20
4188631.387
 30
958.510009765625
 11
748271.279
 21
4188634.694
 31
958.6749877929688
  0
LINE
  5
75
330
1F
100
AcDbEntity
  8
957_957
370
     0
100
AcDbLine
 10
748265.712
 20
4188627.5395
 30
958.510009765625
 11
748265.037
 21
4188626.36
 31
958.5809936523438
  0
LINE
  5
76
330
1F
100
AcDbEntity
  8
957_957
370
     0
100
AcDbLine
 10
748265.037
 20
4188626.36
 30
958.5809936523438
 11
748264.347
 21
4188624.638
 31
958.5809936523438
  0
LINE
  5
77
330
1F
100
AcDbEntity
  8
957_957
370
     0
100
AcDbLine
 10
748264.347
 20
4188624.638
 30
958.5809936523438
 11
748263.581
 21
4188623.052
 31
958.5809936523438
  0
LINE
  5
78
330
1F
100
AcDbEntity
  8
957_957
370
     0
100
AcDbLine
 10
748264.858
 20
4188619.879
 30
958.5809936523438
 11
748265.473
 21
4188620.755
 31
958.5809936523438
  0
LINE
  5
79
330
1F
100
AcDbEntity
  8
957_957
370
     0
100
AcDbLine
 10
748265.473
 20
4188620.755
 30
958.5809936523438
 11
748265.661
 21
4188621.679
 31
958.5809936523438
  0
LINE
  5
7A
330
1F
100
AcDbEntity
  8
957_957
370
     0
100
AcDbLine
 10
748265.661
 20
4188621.679
 30
958.5809936523438
 11
748266.437
 21
4188623.423
 31
958.5809936523438
  0
LINE
  5
7B
330
1F
100
AcDbEntity
  8
957_957
370
     0
100
AcDbLine
 10
748266.437
 20
4188623.423
 30
958.5809936523438
 11
748267.069
 21
4188624.733
 31
958.5809936523438
  0
LINE
  5
7C
330
1F
100
AcDbEntity
  8
957_957
370
     0
100
AcDbLine
 10
748267.069
 20
4188624.733
 30
958.5809936523438
 11
748267.761
 21
4188625.506
 31
958.5809936523438
  0
LINE
  5
7D
330
1F
100
AcDbEntity
  8
957_957
370
     0
100
AcDbLine
 10
748267.761
 20
4188625.506
 30
958.5809936523438
 11
748268.401
 21
4188627.146
 31
958.510009765625
  0
LINE
  5
7E
330
1F
100
AcDbEntity
  8
957_957
370
     0
100
AcDbLine
 10
748257.505
 20
4188609.027
 30
958.8790283203125
 11
748255.762
 21
4188603.714
 31
958.9520263671875
  0
LINE
  5
7F
330
1F
100
AcDbEntity
  8
957_957
370
     0
100
AcDbLine
 10
748255.762
 20
4188603.714
 30
958.9520263671875
 11
748255.91
 21
4188601.615
 31
958.8350219726562
  0
LINE
  5
80
330
1F
100
AcDbEntity
  8
957_957
370
     0
100
AcDbLine
 10
748258.8061949
 20
4188600.985503
 30
958.8670043945312
 11
748258.496
 21
4188603.915
 31
958.9749755859375
  0
LINE
  5
81
330
1F
100
AcDbEntity
  8
957_957
370
     0
100
AcDbLine
 10
748258.496
 20
4188603.915
 30
958.9749755859375
 11
748259.526
 21
4188606.335
 31
958.9149780273438
  0
LINE
  5
82
330
1F
100
AcDbEntity
  8
957_957
370
     0
100
AcDbLine
 10
748259.526
 20
4188606.335
 30
958.9149780273438
 11
748260.348
 21
4188609.165
 31
959.010009765625
  0
LINE
  5
83
330
1F
100
AcDbEntity
  8
957_957
370
     0
100
AcDbLine
 10
748260.348
 20
4188609.165
 30
959.010009765625
 11
748261.522
 21
4188612.06
 31
958.9520263671875
  0
LINE
  5
84
330
1F
100
AcDbEntity
  8
957_957
370
     0
100
AcDbLine
 10
748261.522
 20
4188612.06
 30
958.9520263671875
 11
748263.311
 21
4188616.646
 31
958.81201171875
  0
LINE
  5
85
330
1F
100
AcDbEntity
  8
957_957
370
     0
100
AcDbLine
 10
748263.311
 20
4188616.646
 30
958.81201171875
 11
748264.858
 21
4188619.879
 31
958.5809936523438
  0
LINE
  5
86
330
1F
100
AcDbEntity
  8
957_957
370
     0
100
AcDbLine
 10
748255.91
 20
4188601.615
 30
958.8350219726562
 11
748256.57
 21
4188599.039
 31
958.7969970703125
  0
LINE
  5
87
330
1F
100
AcDbEntity
  8
957_957
370
     0
100
AcDbLine
 10
748256.57
 20
4188599.039
 30
958.7969970703125
 11
748257.003
 21
4188587.906
 31
958.5659790039062
  0
LINE
  5
88
330
1F
100
AcDbEntity
  8
957_957
370
     0
100
AcDbLine
 10
748259.138
 20
4188592.622
 30
958.7080078125
 11
748258.8061949
 21
4188600.985503
 31
958.8670043945312
  0
LINE
  5
89
330
1F
100
AcDbEntity
  8
957_957
370
     0
100
AcDbLine
 10
748257.003
 20
4188587.906
 30
958.5999755859375
 11
748257.303
 21
4188587.157
 31
958.5479736328125
  0
LINE
  5
8A
330
1F
100
AcDbEntity
  8
957_957
370
     0
100
AcDbLine
 10
748257.303
 20
4188587.157
 30
958.5479736328125
 11
748257.447
 21
4188586.66
 31
958.60498046875
  0
LINE
  5
8B
330
1F
100
AcDbEntity
  8
957_957
370
     0
100
AcDbLine
 10
748259.409
 20
4188590.204
 30
958.656982421875
 11
748259.138
 21
4188592.622
 31
958.7080078125
  0
LINE
  5
8C
330
1F
100
AcDbEntity
  8
957_957
370
     0
100
AcDbLine
 10
748264.666
 20
4188574.687
 30
957.4920043945312
 11
748265.675
 21
4188573.577
 31
957.3150024414062
  0
LINE
  5
8D
330
1F
100
AcDbEntity
  8
957_957
370
     0
100
AcDbLine
 10
748269.159
 20
4188572.359
 30
957.176025390625
 11
748267.241
 21
4188574.958
 31
957.3150024414062
  0
LINE
  5
8E
330
1F
100
AcDbEntity
  8
957_957
370
     0
100
AcDbLine
 10
748266.448
 20
4188576.207
 30
957.344970703125
 11
748263.932
 21
4188579.762
 31
957.708984375
  0
LINE
  5
8F
330
1F
100
AcDbEntity
  8
957_957
370
     0
100
AcDbLine
 10
748263.932
 20
4188579.762
 30
957.708984375
 11
748262.477
 21
4188582.19
 31
957.8380126953125
  0
LINE
  5
90
330
1F
100
AcDbEntity
  8
957_957
370
     0
100
AcDbLine
 10
748257.447
 20
4188586.66
 30
958.60498046875
 11
748258.244
 21
4188584.611
 31
958.22998046875
  0
LINE
  5
91
330
1F
100
AcDbEntity
  8
957_957
370
     0
100
AcDbLine
 10
748267.197
 20
4188569.793
 30
956.8839721679688
 11
748267.4
 21
4188568.276
 31
956.9359741210938
  0
LINE
  5
92
330
1F
100
AcDbEntity
  8
957_957
370
     0
100
AcDbLine
 10
748267.4
 20
4188568.276
 30
956.9359741210938
 11
748267.731
 21
4188566.718
 31
956.8889770507812
  0
LINE
  5
93
330
1F
100
AcDbEntity
  8
957_957
370
     0
100
AcDbLine
 10
748267.731
 20
4188566.718
 30
956.8889770507812
 11
748268.477
 21
4188565.295
 31
956.9929809570312
  0
LINE
  5
94
330
1F
100
AcDbEntity
  8
957_957
370
     0
100
AcDbLine
 10
748268.477
 20
4188565.295
 30
956.9929809570312
 11
748269.81
 21
4188563.855
 31
956.802978515625
  0
LINE
  5
95
330
1F
100
AcDbEntity
  8
957_957
370
     0
100
AcDbLine
 10
748269.81
 20
4188563.855
 30
956.802978515625
 11
748271.116
 21
4188561.862
 31
956.7630004882812
  0
LINE
  5
96
330
1F
100
AcDbEntity
  8
957_957
370
     0
100
AcDbLine
 10
748271.116
 20
4188561.862
 30
956.7630004882812
 11
748271.6007678
 21
4188560.228248
 31
956.8179931640625
  0
LINE
  5
97
330
1F
100
AcDbEntity
  8
957_957
370
     0
100
AcDbLine
 10
748274.026
 20
4188561.341
 30
956.927978515625
 11
748273.499
 21
4188563.095
 31
956.718017578125
  0
LINE
  5
98
330
1F
100
AcDbEntity
  8
957_957
370
     0
100
AcDbLine
 10
748273.499
 20
4188563.095
 30
956.718017578125
 11
748272.814
 21
4188564.667
 31
956.843994140625
  0
LINE
  5
99
330
1F
100
AcDbEntity
  8
957_957
370
     0
100
AcDbLine
 10
748272.814
 20
4188564.667
 30
956.843994140625
 11
748271.81
 21
4188566.093
 31
956.8150024414062
  0
LINE
  5
9A
330
1F
100
AcDbEntity
  8
957_957
370
     0
100
AcDbLine
 10
748271.81
 20
4188566.093
 30
956.8150024414062
 11
748271.018
 21
4188566.97
 31
956.8699951171875
  0
LINE
  5
9B
330
1F
100
AcDbEntity
  8
957_957
370
     0
100
AcDbLine
 10
748271.018
 20
4188566.97
 30
956.8699951171875
 11
748270.496
 21
4188568.047
 31
956.7860107421875
  0
LINE
  5
9C
330
1F
100
AcDbEntity
  8
957_957
370
     0
100
AcDbLine
 10
748270.496
 20
4188568.047
 30
956.7860107421875
 11
748270.154
 21
4188569.04
 31
956.8870239257812
  0
LINE
  5
9D
330
1F
100
AcDbEntity
  8
957_957
370
     0
100
AcDbLine
 10
748260.835
 20
4188586.866
 30
958.3519897460938
 11
748259.755
 21
4188587.626
 31
958.406005859375
  0
LINE
  5
9E
330
1F
100
AcDbEntity
  8
957_957
370
     0
100
AcDbLine
 10
748259.755
 20
4188587.626
 30
958.406005859375
 11
748259.409
 21
4188590.204
 31
958.656982421875
  0
LINE
  5
9F
330
1F
100
AcDbEntity
  8
957_957
370
     0
100
AcDbLine
 10
748271.6007678
 20
4188560.228248
 30
956.8179931640625
 11
748271.956
 21
4188558.989
 31
956.927978515625
  0
LINE
  5
A0
330
1F
100
AcDbEntity
  8
957_957
370
     0
100
AcDbLine
 10
748271.956
 20
4188558.989
 30
956.8389892578125
 11
748272.066
 21
4188556.099
 31
956.5709838867188
  0
LINE
  5
A1
330
1F
100
AcDbEntity
  8
957_957
370
     0
100
AcDbLine
 10
748272.066
 20
4188556.099
 30
956.5709838867188
 11
748272.077
 21
4188554.556
 31
956.5709838867188
  0
LINE
  5
A2
330
1F
100
AcDbEntity
  8
957_957
370
     0
100
AcDbLine
 10
748272.077
 20
4188554.556
 30
956.5709838867188
 11
748272.309
 21
4188552.582
 31
956.4849853515625
  0
LINE
  5
A3
330
1F
100
AcDbEntity
  8
957_957
370
     0
100
AcDbLine
 10
748272.309
 20
4188552.582
 30
956.4849853515625
 11
748271.8118129
 21
4188548.986636
 31
956.3590087890625
  0
LINE
  5
A4
330
1F
100
AcDbEntity
  8
957_957
370
     0
100
AcDbLine
 10
748273.933
 20
4188545.714
 30
956.1199951171875
 11
748273.941
 21
4188546.504
 31
956.1580200195312
  0
LINE
  5
A5
330
1F
100
AcDbEntity
  8
957_957
370
     0
100
AcDbLine
 10
748273.941
 20
4188546.504
 30
956.1580200195312
 11
748273.755
 21
4188548.843
 31
956.3469848632812
  0
LINE
  5
A6
330
1F
100
AcDbEntity
  8
957_957
370
     0
100
AcDbLine
 10
748273.755
 20
4188548.843
 30
956.3469848632812
 11
748274.007
 21
4188550.912
 31
956.4219970703125
  0
LINE
  5
A7
330
1F
100
AcDbEntity
  8
957_957
370
     0
100
AcDbLine
 10
748274.007
 20
4188550.912
 30
956.4219970703125
 11
748274.492
 21
4188553.104
 31
956.4849853515625
  0
LINE
  5
A8
330
1F
100
AcDbEntity
  8
957_957
370
     0
100
AcDbLine
 10
748274.492
 20
4188553.104
 30
956.4849853515625
 11
748274.589
 21
4188554.858
 31
956.5709838867188
  0
LINE
  5
A9
330
1F
100
AcDbEntity
  8
957_957
370
     0
100
AcDbLine
 10
748274.589
 20
4188554.858
 30
956.5709838867188
 11
748274.561
 21
4188556.532
 31
956.5709838867188
  0
LINE
  5
AA
330
1F
100
AcDbEntity
  8
957_957
370
     0
100
AcDbLine
 10
748274.561
 20
4188556.532
 30
956.5709838867188
 11
748274.589
 21
4188558.354
 31
956.5709838867188
  0
LINE
  5
AB
330
1F
100
AcDbEntity
  8
957_957
370
     0
100
AcDbLine
 10
748274.589
 20
4188558.354
 30
956.5709838867188
 11
748274.289
 21
4188559.563
 31
956.8369750976562
  0
LINE
  5
AC
330
1F
100
AcDbEntity
  8
957_957
370
     0
100
AcDbLine
 10
748274.289
 20
4188559.563
 30
956.8369750976562
 11
748274.081
 21
4188560.792
 31
956.885009765625
  0
LINE
  5
AD
330
1F
100
AcDbEntity
  8
957_957
370
     0
100
AcDbLine
 10
748274.081
 20
4188560.792
 30
956.885009765625
 11
748273.905
 21
4188561.83
 31
956.916015625
  0
LINE
  5
AE
330
1F
100
AcDbEntity
  8
957_957
370
     0
100
AcDbLine
 10
748271.6007678
 20
4188560.228248
 30
956.8179931640625
 11
748271.956
 21
4188558.989
 31
956.8389892578125
  0
LINE
  5
AF
330
1F
100
AcDbEntity
  8
957_957
370
     0
100
AcDbLine
 10
748271.956
 20
4188558.989
 30
956.8179931640625
 11
748272.066
 21
4188556.099
 31
956.927978515625
  0
LINE
  5
B0
330
1F
100
AcDbEntity
  8
957_957
370
     0
100
AcDbLine
 10
748274.081
 20
4188560.792
 30
956.8179931640625
 11
748274.026
 21
4188561.341
 31
956.927978515625
  0
LINE
  5
B1
330
1F
100
AcDbEntity
  8
957_957
370
     0
100
AcDbLine
 10
748274.289
 20
4188559.563
 30
956.8179931640625
 11
748274.081
 21
4188560.792
 31
956.927978515625
  0
LINE
  5
B2
330
1F
100
AcDbEntity
  8
957_957
370
     0
100
AcDbLine
 10
748271.588
 20
4188547.323
 30
956.2750244140625
 11
748270.599
 21
4188546.691
 31
956.8939819335938
  0
LINE
  5
B3
330
1F
100
AcDbEntity
  8
957_957
370
     0
100
AcDbLine
 10
748270.599
 20
4188546.691
 30
956.8939819335938
 11
748269.498
 21
4188545.876
 31
957.3460083007812
  0
LINE
  5
B4
330
1F
100
AcDbEntity
  8
957_957
370
     0
100
AcDbLine
 10
748269.498
 20
4188545.876
 30
957.3460083007812
 11
748268.758
 21
4188544.685
 31
957.6929931640625
  0
LINE
  5
B5
330
1F
100
AcDbEntity
  8
957_957
370
     0
100
AcDbLine
 10
748268.758
 20
4188544.685
 30
957.6929931640625
 11
748268.656
 21
4188543.53
 31
958.031005859375
  0
LINE
  5
B6
330
1F
100
AcDbEntity
  8
957_957
370
     0
100
AcDbLine
 10
748268.656
 20
4188543.53
 30
958.031005859375
 11
748269.066
 21
4188542.21
 31
957.4910278320312
  0
LINE
  5
B7
330
1F
100
AcDbEntity
  8
957_957
370
     0
100
AcDbLine
 10
748269.066
 20
4188542.21
 30
957.4910278320312
 11
748270.145
 21
4188541.064
 31
957.3800048828125
  0
LINE
  5
B8
330
1F
100
AcDbEntity
  8
957_957
370
     0
100
AcDbLine
 10
748270.145
 20
4188541.064
 30
957.3800048828125
 11
748271.584
 21
4188540.546
 31
956.6950073242188
  0
LINE
  5
B9
330
1F
100
AcDbEntity
  8
957_957
370
     0
100
AcDbLine
 10
748276.473
 20
4188539.347
 30
955.780029296875
 11
748274.5
 21
4188541.811
 31
955.780029296875
  0
LINE
  5
BA
330
1F
100
AcDbEntity
  8
957_957
370
     0
100
AcDbLine
 10
748274.5
 20
4188541.811
 30
955.780029296875
 11
748274.421
 21
4188542.718
 31
955.780029296875
  0
LINE
  5
BB
330
1F
100
AcDbEntity
  8
957_957
370
     0
100
AcDbLine
 10
748274.421
 20
4188542.718
 30
955.780029296875
 11
748274.11
 21
4188544.629
 31
955.780029296875
  0
LINE
  5
BC
330
1F
100
AcDbEntity
  8
957_957
370
     0
100
AcDbLine
 10
748273.9369999999
 20
4188546.109
 30
956.1390075683594
 11
748274.11
 21
4188544.629
 31
955.780029296875
  0
LINE
  5
BD
330
1F
100
AcDbEntity
  8
957_957
370
     0
100
AcDbLine
 10
748271.8118129
 20
4188548.986636
 30
956.3590087890625
 11
748271.588
 21
4188547.323
 31
955.780029296875
  0
LINE
  5
BE
330
1F
100
AcDbEntity
  8
957_957
370
     0
100
AcDbLine
 10
748270.154
 20
4188569.04
 30
956.8870239257812
 11
748270.092
 21
4188569.768
 31
957.0150146484375
  0
LINE
  5
BF
330
1F
100
AcDbEntity
  8
957_957
370
     0
100
AcDbLine
 10
748265.85
 20
4188572.633
 30
957.3480224609375
 11
748265.675
 21
4188573.577
 31
957.3150024414062
  0
LINE
  5
C0
330
1F
100
AcDbEntity
  8
957_957
370
     0
100
AcDbLine
 10
748267.241
 20
4188574.958
 30
957.3150024414062
 11
748266.448
 21
4188576.207
 31
957.344970703125
  0
LINE
  5
C1
330
1F
100
AcDbEntity
  8
957_957
370
     0
100
AcDbLine
 10
748277.489
 20
4188534.3
 30
955.4569702148438
 11
748278.66
 21
4188532.313
 31
955.4359741210938
  0
LINE
  5
C2
330
1F
100
AcDbEntity
  8
957_957
370
     0
100
AcDbLine
 10
748278.66
 20
4188532.313
 30
955.4359741210938
 11
748279.1005
 21
4188531.4235
 31
955.4039916992188
  0
LINE
  5
C3
330
1F
100
AcDbEntity
  8
957_957
370
     0
100
AcDbLine
 10
748280.2785
 20
4188529.7425
 30
955.3320007324219
 11
748281.016
 21
4188528.951
 31
955.2919921875
  0
LINE
  5
C4
330
1F
100
AcDbEntity
  8
957_957
370
     0
100
AcDbLine
 10
748281.016
 20
4188528.951
 30
955.2919921875
 11
748281.587
 21
4188528.652
 31
955.1820068359375
  0
LINE
  5
C5
330
1F
100
AcDbEntity
  8
957_957
370
     0
100
AcDbLine
 10
748285.043
 20
4188528.456
 30
955.635009765625
 11
748282.629
 21
4188531.342
 31
955.1270141601562
  0
LINE
  5
C6
330
1F
100
AcDbEntity
  8
957_957
370
     0
100
AcDbLine
 10
748282.629
 20
4188531.342
 30
955.1270141601562
 11
748280.858
 21
4188532.768
 31
955.1010131835938
  0
LINE
  5
C7
330
1F
100
AcDbEntity
  8
957_957
370
     0
100
AcDbLine
 10
748280.858
 20
4188532.768
 30
955.1010131835938
 11
748280.009
 21
4188534.059
 31
955.3079833984375
  0
LINE
  5
C8
330
1F
100
AcDbEntity
  8
957_957
370
     0
100
AcDbLine
 10
748280.009
 20
4188534.059
 30
955.3079833984375
 11
748278.192
 21
4188536.544
 31
955.4600219726562
  0
LINE
  5
C9
330
1F
100
AcDbEntity
  8
957_957
370
     0
100
AcDbLine
 10
748278.391
 20
4188569.959
 30
957.468994140625
 11
748277.603
 21
4188570.839
 31
957.4630126953125
  0
LINE
  5
CA
330
1F
100
AcDbEntity
  8
957_957
370
     0
100
AcDbLine
 10
748278.192
 20
4188536.544
 30
955.4600219726562
 11
748276.473
 21
4188539.347
 31
955.780029296875
  0
LINE
  5
CB
330
1F
100
AcDbEntity
  8
957_957
370
     0
100
AcDbLine
 10
748288.096
 20
4188519.785
 30
954.6400146484375
 11
748291.903
 21
4188516.494
 31
954.1710205078125
  0
LINE
  5
CC
330
1F
100
AcDbEntity
  8
957_957
370
     0
100
AcDbLine
 10
748291.903
 20
4188516.494
 30
954.1710205078125
 11
748294.868
 21
4188513.219
 31
954.0369873046875
  0
LINE
  5
CD
330
1F
100
AcDbEntity
  8
957_957
370
     0
100
AcDbLine
 10
748294.868
 20
4188513.219
 30
954.0369873046875
 11
748297.405
 21
4188510.512
 31
953.7789916992188
  0
LINE
  5
CE
330
1F
100
AcDbEntity
  8
957_957
370
     0
100
AcDbLine
 10
748297.405
 20
4188510.512
 30
953.7789916992188
 11
748299.954
 21
4188507.178
 31
953.7050170898438
  0
LINE
  5
CF
330
1F
100
AcDbEntity
  8
957_957
370
     0
100
AcDbLine
 10
748299.954
 20
4188507.178
 30
953.7050170898438
 11
748302.567
 21
4188503.918
 31
953.2100219726562
  0
LINE
  5
D0
330
1F
100
AcDbEntity
  8
957_957
370
     0
100
AcDbLine
 10
748303.063
 20
4188506.827
 30
953.6519775390625
 11
748301.779
 21
4188508.856
 31
953.6400146484375
  0
LINE
  5
D1
330
1F
100
AcDbEntity
  8
957_957
370
     0
100
AcDbLine
 10
748301.779
 20
4188508.856
 30
953.6400146484375
 11
748299.55
 21
4188511.426
 31
953.6480102539062
  0
LINE
  5
D2
330
1F
100
AcDbEntity
  8
957_957
370
     0
100
AcDbLine
 10
748299.55
 20
4188511.426
 30
953.6480102539062
 11
748296.81
 21
4188514.407
 31
953.8560180664062
  0
LINE
  5
D3
330
1F
100
AcDbEntity
  8
957_957
370
     0
100
AcDbLine
 10
748296.81
 20
4188514.407
 30
953.8560180664062
 11
748294.65
 21
4188517.357
 31
954.0700073242188
  0
LINE
  5
D4
330
1F
100
AcDbEntity
  8
957_957
370
     0
100
AcDbLine
 10
748294.65
 20
4188517.357
 30
954.0700073242188
 11
748292.255
 21
4188518.872
 31
954.2230224609375
  0
LINE
  5
D5
330
1F
100
AcDbEntity
  8
957_957
370
     0
100
AcDbLine
 10
748292.255
 20
4188518.872
 30
954.2230224609375
 11
748289.006
 21
4188523.001
 31
954.43701171875
  0
LINE
  5
D6
330
1F
100
AcDbEntity
  8
957_957
370
     0
100
AcDbLine
 10
748281.587
 20
4188528.652
 30
955.1820068359375
 11
748284.839
 21
4188524.832
 31
954.7130126953125
  0
LINE
  5
D7
330
1F
100
AcDbEntity
  8
957_957
370
     0
100
AcDbLine
 10
748286.004
 20
4188527.236
 30
954.677978515625
 11
748285.043
 21
4188528.456
 31
955.635009765625
  0
LINE
  5
D8
330
1F
100
AcDbEntity
  8
957_957
370
     0
100
AcDbLine
 10
748279.926
 20
4188567.296
 30
957.6580200195312
 11
748281.137
 21
4188567.027
 31
957.6580200195312
  0
LINE
  5
D9
330
1F
100
AcDbEntity
  8
957_957
370
     0
100
AcDbLine
 10
748281.805
 20
4188568.887
 30
957.6580200195312
 11
748279.923
 21
4188569.31
 31
957.5460205078125
  0
LINE
  5
DA
330
1F
100
AcDbEntity
  8
957_957
370
     0
100
AcDbLine
 10
748279.923
 20
4188569.31
 30
957.5460205078125
 11
748278.745
 21
4188569.702
 31
957.3909912109375
  0
LINE
  5
DB
330
1F
100
AcDbEntity
  8
957_957
370
     0
100
AcDbLine
 10
748306.618
 20
4188499.396
 30
952.7000122070312
 11
748309.065
 21
4188495.207
 31
952.1610107421875
  0
LINE
  5
DC
330
1F
100
AcDbEntity
  8
957_957
370
     0
100
AcDbLine
 10
748309.065
 20
4188495.207
 30
952.1610107421875
 11
748310.353
 21
4188493.467
 31
952.0670166015625
  0
LINE
  5
DD
330
1F
100
AcDbEntity
  8
957_957
370
     0
100
AcDbLine
 10
748310.353
 20
4188493.467
 30
952.0670166015625
 11
748312.618
 21
4188490.916
 31
951.9559936523438
  0
LINE
  5
DE
330
1F
100
AcDbEntity
  8
957_957
370
     0
100
AcDbLine
 10
748312.618
 20
4188490.916
 30
951.9559936523438
 11
748314.762
 21
4188488.935
 31
951.7620239257812
  0
LINE
  5
DF
330
1F
100
AcDbEntity
  8
957_957
370
     0
100
AcDbLine
 10
748314.762
 20
4188488.935
 30
951.7620239257812
 11
748315.847
 21
4188487.165
 31
951.4500122070312
  0
LINE
  5
E0
330
1F
100
AcDbEntity
  8
957_957
370
     0
100
AcDbLine
 10
748315.847
 20
4188487.165
 30
951.4500122070312
 11
748318.233
 21
4188483.574
 31
951.072998046875
  0
LINE
  5
E1
330
1F
100
AcDbEntity
  8
957_957
370
     0
100
AcDbLine
 10
748318.488
 20
4188488.181
 30
951.4500122070312
 11
748315.945
 21
4188490.838
 31
951.7620239257812
  0
LINE
  5
E2
330
1F
100
AcDbEntity
  8
957_957
370
     0
100
AcDbLine
 10
748311.278
 20
4188496.583
 30
952.1610107421875
 11
748308.225
 21
4188501.308
 31
952.7000122070312
  0
LINE
  5
E3
330
1F
100
AcDbEntity
  8
957_957
370
     0
100
AcDbLine
 10
748302.567
 20
4188503.918
 30
953.2100219726562
 11
748306.618
 21
4188499.396
 31
952.7000122070312
  0
LINE
  5
E4
330
1F
100
AcDbEntity
  8
957_957
370
     0
100
AcDbLine
 10
748303.063
 20
4188506.827
 30
953.6519775390625
 11
748308.225
 21
4188501.308
 31
952.7000122070312
  0
LINE
  5
E5
330
1F
100
AcDbEntity
  8
957_957
370
     0
100
AcDbLine
 10
748278.745
 20
4188569.702
 30
957.3909912109375
 11
748278.391
 21
4188569.959
 31
957.468994140625
  0
LINE
  5
E6
330
1F
100
AcDbEntity
  8
957_957
370
     0
100
AcDbLine
 10
748282.45
 20
4188566.291
 30
957.7940063476562
 11
748284.104
 21
4188565.16
 31
957.7100219726562
  0
LINE
  5
E7
330
1F
100
AcDbEntity
  8
957_957
370
     0
100
AcDbLine
 10
748321.496
 20
4188479.061
 30
951.0150146484375
 11
748323.428
 21
4188476.903
 31
950.9600219726562
  0
LINE
  5
E8
330
1F
100
AcDbEntity
  8
957_957
370
     0
100
AcDbLine
 10
748323.428
 20
4188476.903
 30
950.9600219726562
 11
748325.505
 21
4188474.26
 31
951.0869750976562
  0
LINE
  5
E9
330
1F
100
AcDbEntity
  8
957_957
370
     0
100
AcDbLine
 10
748325.505
 20
4188474.26
 30
951.0869750976562
 11
748327.164
 21
4188472.326
 31
950.8319702148438
  0
LINE
  5
EA
330
1F
100
AcDbEntity
  8
957_957
370
     0
100
AcDbLine
 10
748327.164
 20
4188472.326
 30
950.8319702148438
 11
748327.89
 21
4188471.418
 31
950.7310180664062
  0
LINE
  5
EB
330
1F
100
AcDbEntity
  8
957_957
370
     0
100
AcDbLine
 10
748327.89
 20
4188471.418
 30
950.7310180664062
 11
748328.796
 21
4188470.55
 31
950.6519775390625
  0
LINE
  5
EC
330
1F
100
AcDbEntity
  8
957_957
370
     0
100
AcDbLine
 10
748328.796
 20
4188470.55
 30
950.6519775390625
 11
748330.161
 21
4188469.573
 31
950.5889892578125
  0
LINE
  5
ED
330
1F
100
AcDbEntity
  8
957_957
370
     0
100
AcDbLine
 10
748330.161
 20
4188469.573
 30
950.5889892578125
 11
748331.209
 21
4188468.259
 31
950.364990234375
  0
LINE
  5
EE
330
1F
100
AcDbEntity
  8
957_957
370
     0
100
AcDbLine
 10
748331.209
 20
4188468.259
 30
950.364990234375
 11
748332.304
 21
4188466.825
 31
950.3590087890625
  0
LINE
  5
EF
330
1F
100
AcDbEntity
  8
957_957
370
     0
100
AcDbLine
 10
748335.89
 20
4188466.751
 30
950.2979736328125
 11
748334.086
 21
4188468.66
 31
950.3590087890625
  0
LINE
  5
F0
330
1F
100
AcDbEntity
  8
957_957
370
     0
100
AcDbLine
 10
748334.086
 20
4188468.66
 30
950.3590087890625
 11
748332.713
 21
4188470.123
 31
950.364013671875
  0
LINE
  5
F1
330
1F
100
AcDbEntity
  8
957_957
370
     0
100
AcDbLine
 10
748332.713
 20
4188470.123
 30
950.364013671875
 11
748331.626
 21
4188471.38
 31
950.5440063476562
  0
LINE
  5
F2
330
1F
100
AcDbEntity
  8
957_957
370
     0
100
AcDbLine
 10
748331.626
 20
4188471.38
 30
950.5440063476562
 11
748330.242
 21
4188472.699
 31
950.6300048828125
  0
LINE
  5
F3
330
1F
100
AcDbEntity
  8
957_957
370
     0
100
AcDbLine
 10
748330.242
 20
4188472.699
 30
950.6300048828125
 11
748328.832
 21
4188474.218
 31
950.780029296875
  0
LINE
  5
F4
330
1F
100
AcDbEntity
  8
957_957
370
     0
100
AcDbLine
 10
748328.832
 20
4188474.218
 30
950.780029296875
 11
748328.173
 21
4188475.051
 31
950.9229736328125
  0
LINE
  5
F5
330
1F
100
AcDbEntity
  8
957_957
370
     0
100
AcDbLine
 10
748328.173
 20
4188475.051
 30
950.9229736328125
 11
748327.549
 21
4188475.877
 31
951.0260009765625
  0
LINE
  5
F6
330
1F
100
AcDbEntity
  8
957_957
370
     0
100
AcDbLine
 10
748327.549
 20
4188475.877
 30
951.0260009765625
 11
748326.392
 21
4188477.31
 31
951.0490112304688
  0
LINE
  5
F7
330
1F
100
AcDbEntity
  8
957_957
370
     0
100
AcDbLine
 10
748326.392
 20
4188477.31
 30
951.0490112304688
 11
748325.181
 21
4188478.57
 31
951.0280151367188
  0
LINE
  5
F8
330
1F
100
AcDbEntity
  8
957_957
370
     0
100
AcDbLine
 10
748325.181
 20
4188478.57
 30
951.0280151367188
 11
748323.029
 21
4188480.768
 31
950.9169921875
  0
LINE
  5
F9
330
1F
100
AcDbEntity
  8
957_957
370
     0
100
AcDbLine
 10
748323.029
 20
4188480.768
 30
950.9169921875
 11
748320.341
 21
4188485.495
 31
951.156982421875
  0
LINE
  5
FA
330
1F
100
AcDbEntity
  8
957_957
370
     0
100
AcDbLine
 10
748318.233
 20
4188483.574
 30
951.072998046875
 11
748319.517
 21
4188481.479
 31
950.7999877929688
  0
LINE
  5
FB
330
1F
100
AcDbEntity
  8
957_957
370
     0
100
AcDbLine
 10
748319.517
 20
4188481.479
 30
950.7999877929688
 11
748321.496
 21
4188479.061
 31
951.0150146484375
  0
LINE
  5
FC
330
1F
100
AcDbEntity
  8
957_957
370
     0
100
AcDbLine
 10
748320.341
 20
4188485.495
 30
951.156982421875
 11
748318.488
 21
4188488.181
 31
951.4500122070312
  0
LINE
  5
FD
330
1F
100
AcDbEntity
  8
957_957
370
     0
100
AcDbLine
 10
748262.656
 20
4188584.22
 30
958.0880126953125
 11
748265.343
 21
4188583.387
 31
957.9249877929688
  0
LINE
  5
FE
330
1F
100
AcDbEntity
  8
957_957
370
     0
100
AcDbLine
 10
748265.343
 20
4188583.387
 30
957.9249877929688
 11
748269.079
 21
4188581.864
 31
957.72900390625
  0
LINE
  5
FF
330
1F
100
AcDbEntity
  8
957_957
370
     0
100
AcDbLine
 10
748269.079
 20
4188581.864
 30
957.72900390625
 11
748270.983
 21
4188581.178
 31
957.52197265625
  0
LINE
  5
100
330
1F
100
AcDbEntity
  8
957_957
370
     0
100
AcDbLine
 10
748270.983
 20
4188581.178
 30
957.52197265625
 11
748272.42
 21
4188580.778
 31
957.4099731445312
  0
LINE
  5
101
330
1F
100
AcDbEntity
  8
957_957
370
     0
100
AcDbLine
 10
748272.42
 20
4188580.778
 30
957.4099731445312
 11
748274.518
 21
4188580.354
 31
957.2969970703125
  0
LINE
  5
102
330
1F
100
AcDbEntity
  8
957_957
370
     0
100
AcDbLine
 10
748274.518
 20
4188580.354
 30
957.2969970703125
 11
748276.207
 21
4188579.521
 31
957.2260131835938
  0
LINE
  5
103
330
1F
100
AcDbEntity
  8
957_957
370
     0
100
AcDbLine
 10
748276.207
 20
4188579.521
 30
957.2260131835938
 11
748277.417
 21
4188578.833
 31
957.7650146484375
  0
LINE
  5
104
330
1F
100
AcDbEntity
  8
957_957
370
     0
100
AcDbLine
 10
748277.417
 20
4188578.833
 30
957.7650146484375
 11
748278.215
 21
4188579.801
 31
957.6799926757812
  0
LINE
  5
105
330
1F
100
AcDbEntity
  8
957_957
370
     0
100
AcDbLine
 10
748278.215
 20
4188579.801
 30
957.6799926757812
 11
748278.99
 21
4188579.9
 31
959.114990234375
  0
LINE
  5
106
330
1F
100
AcDbEntity
  8
957_957
370
     0
100
AcDbLine
 10
748278.99
 20
4188579.9
 30
959.114990234375
 11
748280.53
 21
4188580.023
 31
959.2020263671875
  0
LINE
  5
107
330
1F
100
AcDbEntity
  8
957_957
370
     0
100
AcDbLine
 10
748280.53
 20
4188580.023
 30
959.2020263671875
 11
748281.941
 21
4188579.884
 31
959.343994140625
  0
LINE
  5
108
330
1F
100
AcDbEntity
  8
957_957
370
     0
100
AcDbLine
 10
748279.9853098
 20
4188581.177737
 30
959.3699951171875
 11
748278.81
 21
4188581.085
 31
959.0150146484375
  0
LINE
  5
109
330
1F
100
AcDbEntity
  8
957_957
370
     0
100
AcDbLine
 10
748278.81
 20
4188581.085
 30
959.0150146484375
 11
748277.766
 21
4188581.323
 31
957.4520263671875
  0
LINE
  5
10A
330
1F
100
AcDbEntity
  8
957_957
370
     0
100
AcDbLine
 10
748277.766
 20
4188581.323
 30
957.4520263671875
 11
748276.835
 21
4188581.508
 31
957.219970703125
  0
LINE
  5
10B
330
1F
100
AcDbEntity
  8
957_957
370
     0
100
AcDbLine
 10
748276.835
 20
4188581.508
 30
957.219970703125
 11
748274.048
 21
4188582.335
 31
957.3499755859375
  0
LINE
  5
10C
330
1F
100
AcDbEntity
  8
957_957
370
     0
100
AcDbLine
 10
748274.048
 20
4188582.335
 30
957.3499755859375
 11
748272.129
 21
4188582.837
 31
957.4439697265625
  0
LINE
  5
10D
330
1F
100
AcDbEntity
  8
957_957
370
     0
100
AcDbLine
 10
748272.129
 20
4188582.837
 30
957.4439697265625
 11
748269.95
 21
4188583.427
 31
957.6929931640625
  0
LINE
  5
10E
330
1F
100
AcDbEntity
  8
957_957
370
     0
100
AcDbLine
 10
748269.95
 20
4188583.427
 30
957.6929931640625
 11
748267.022
 21
4188584.738
 31
957.7739868164062
  0
LINE
  5
10F
330
1F
100
AcDbEntity
  8
957_957
370
     0
100
AcDbLine
 10
748267.022
 20
4188584.738
 30
957.7739868164062
 11
748262.708
 21
4188585.932
 31
958.0709838867188
  0
LINE
  5
110
330
1F
100
AcDbEntity
  8
957_957
370
     0
100
AcDbLine
 10
748281.2844756
 20
4188581.336818
 30
959.4140014648438
 11
748279.9853098
 21
4188581.177737
 31
959.3699951171875
  0
LINE
  5
111
330
1F
100
AcDbEntity
  8
957_957
370
     0
100
AcDbLine
 10
748281.941
 20
4188579.884
 30
959.343994140625
 11
748283.4568636
 21
4188579.400008
 31
959.4010009765625
  0
LINE
  5
112
330
1F
100
AcDbEntity
  8
957_957
370
     0
100
AcDbLine
 10
748262.477
 20
4188582.19
 30
957.8380126953125
 11
748261.582
 21
4188584.651
 31
958.0999755859375
  0
LINE
  5
113
330
1F
100
AcDbEntity
  8
957_957
370
     0
100
AcDbLine
 10
748261.582
 20
4188584.651
 30
958.0999755859375
 11
748262.656
 21
4188584.22
 31
958.0880126953125
  0
LINE
  5
114
330
1F
100
AcDbEntity
  8
957_957
370
     0
100
AcDbLine
 10
748262.708
 20
4188585.932
 30
958.0709838867188
 11
748260.835
 21
4188586.866
 31
958.3519897460938
  0
LINE
  5
115
330
1F
100
AcDbEntity
  8
957_957
370
     0
100
AcDbLine
 10
748283.064
 20
4188581.029
 30
959.4420166015625
 11
748282.299
 21
4188581.36
 31
959.3729858398438
  0
LINE
  5
116
330
1F
100
AcDbEntity
  8
957_957
370
     0
100
AcDbLine
 10
748282.299
 20
4188581.36
 30
959.3729858398438
 11
748281.2844756
 21
4188581.336818
 31
959.4140014648438
  0
LINE
  5
117
330
1F
100
AcDbEntity
  8
957_957
370
     0
100
AcDbLine
 10
748285.817
 20
4188580.453
 30
959.85400390625
 11
748283.451
 21
4188580.814
 31
959.427001953125
  0
LINE
  5
118
330
1F
100
AcDbEntity
  8
957_957
370
     0
100
AcDbLine
 10
748281.137
 20
4188567.027
 30
957.6580200195312
 11
748282.45
 21
4188566.291
 31
957.7940063476562
  0
LINE
  5
119
330
1F
100
AcDbEntity
  8
957_957
370
     0
100
AcDbLine
 10
748284.043
 20
4188566.878
 30
957.7160034179688
 11
748281.805
 21
4188568.887
 31
957.6580200195312
  0
LINE
  5
11A
330
1F
100
AcDbEntity
  8
957_957
370
     0
100
AcDbLine
 10
748283.4568636
 20
4188579.400008
 30
959.4010009765625
 11
748284.566754
 21
4188578.866331
 31
959.5079956054688
  0
LINE
  5
11B
330
1F
100
AcDbEntity
  8
957_957
370
     0
100
AcDbLine
 10
748283.451
 20
4188580.814
 30
959.427001953125
 11
748283.064
 21
4188581.029
 31
959.4420166015625
  0
LINE
  5
11C
330
1F
100
AcDbEntity
  8
957_957
370
     0
100
AcDbLine
 10
748258.484
 20
4188613.059
 30
959.0360107421875
 11
748257.505
 21
4188609.027
 31
958.8790283203125
  0
LINE
  5
11D
330
1F
100
AcDbEntity
  8
957_957
370
     0
100
AcDbLine
 10
748251.1194897
 20
4188616.083023
 30
958.9199829101562
 11
748249.6275169
 21
4188614.586917
 31
958.7440185546875
  0
LINE
  5
11E
330
1F
100
AcDbEntity
  8
957_957
370
     0
100
AcDbLine
 10
748249.6275169
 20
4188614.586917
 30
958.7440185546875
 11
748248.8981928
 21
4188612.205369
 31
958.6329956054688
  0
LINE
  5
11F
330
1F
100
AcDbEntity
  8
957_957
370
     0
100
AcDbLine
 10
748248.8981928
 20
4188612.205369
 30
958.6329956054688
 11
748247.5636056
 21
4188609.272657
 31
958.2540283203125
  0
LINE
  5
120
330
1F
100
AcDbEntity
  8
957_957
370
     0
100
AcDbLine
 10
748263.581
 20
4188623.052
 30
958.5809936523438
 11
748262.571
 21
4188621.306
 31
958.5809936523438
  0
LINE
  5
121
330
1F
100
AcDbEntity
  8
957_957
370
     0
100
AcDbLine
 10
748260.4769062
 20
4188617.183745
 30
959.1599731445312
 11
748258.484
 21
4188613.059
 31
959.0360107421875
  0
LINE
  5
122
330
1F
100
AcDbEntity
  8
957_957
370
     0
100
AcDbLine
 10
748333.127
 20
4188465.75
 30
950.3489990234375
 11
748336.561
 21
4188462.356
 31
950.2459716796875
  0
LINE
  5
123
330
1F
100
AcDbEntity
  8
957_957
370
     0
100
AcDbLine
 10
748336.561
 20
4188462.356
 30
950.2459716796875
 11
748339.708
 21
4188459.082
 31
950.3489990234375
  0
LINE
  5
124
330
1F
100
AcDbEntity
  8
957_957
370
     0
100
AcDbLine
 10
748339.708
 20
4188459.082
 30
950.3489990234375
 11
748343.334
 21
4188454.655
 31
950.5
  0
LINE
  5
125
330
1F
100
AcDbEntity
  8
957_957
370
     0
100
AcDbLine
 10
748343.334
 20
4188454.655
 30
950.5
 11
748344.885
 21
4188453.442
 31
950.5
  0
LINE
  5
126
330
1F
100
AcDbEntity
  8
957_957
370
     0
100
AcDbLine
 10
748344.885
 20
4188453.442
 30
950.5
 11
748347.002
 21
4188452.06
 31
950.5
  0
LINE
  5
127
330
1F
100
AcDbEntity
  8
957_957
370
     0
100
AcDbLine
 10
748347.002
 20
4188452.06
 30
950.5
 11
748348.502
 21
4188451.066
 31
950.5
  0
LINE
  5
128
330
1F
100
AcDbEntity
  8
957_957
370
     0
100
AcDbLine
 10
748348.502
 20
4188451.066
 30
950.5
 11
748349.918
 21
4188451.61
 31
950.5
  0
LINE
  5
129
330
1F
100
AcDbEntity
  8
957_957
370
     0
100
AcDbLine
 10
748349.918
 20
4188451.61
 30
950.5
 11
748351.255
 21
4188451.514
 31
950.5
  0
LINE
  5
12B
330
1F
100
AcDbEntity
  8
957_957
370
     0
100
AcDbLine
 10
748351.225
 20
4188452.912
 30
950.5
 11
748350.204
 21
4188452.908
 31
950.5
  0
LINE
  5
12C
330
1F
100
AcDbEntity
  8
957_957
370
     0
100
AcDbLine
 10
748350.204
 20
4188452.908
 30
950.5
 11
748349.403
 21
4188452.892
 31
950.5
  0
LINE
  5
12D
330
1F
100
AcDbEntity
  8
957_957
370
     0
100
AcDbLine
 10
748349.403
 20
4188452.892
 30
950.5
 11
748348.468
 21
4188453.708
 31
950.5
  0
LINE
  5
12E
330
1F
100
AcDbEntity
  8
957_957
370
     0
100
AcDbLine
 10
748348.468
 20
4188453.708
 30
950.5
 11
748346.678
 21
4188454.87
 31
950.5
  0
LINE
  5
12F
330
1F
100
AcDbEntity
  8
957_957
370
     0
100
AcDbLine
 10
748343.6393558
 20
4188458.038125
 30
950.75
 11
748341.189
 21
4188460.737
 31
950.3629760742188
  0
LINE
  5
130
330
1F
100
AcDbEntity
  8
957_957
370
     0
100
AcDbLine
 10
748341.189
 20
4188460.737
 30
950.3629760742188
 11
748338.426
 21
4188464.066
 31
950.2030029296875
  0
LINE
  5
131
330
1F
100
AcDbEntity
  8
957_957
370
     0
100
AcDbLine
 10
748284.763
 20
4188564.719
 30
957.77197265625
 11
748285.046
 21
4188564.017
 31
957.708984375
  0
LINE
  5
132
330
1F
100
AcDbEntity
  8
957_957
370
     0
100
AcDbLine
 10
748285.046
 20
4188564.017
 30
957.708984375
 11
748286.183
 21
4188563.42
 31
957.7659912109375
  0
LINE
  5
133
330
1F
100
AcDbEntity
  8
957_957
370
     0
100
AcDbLine
 10
748286.183
 20
4188563.42
 30
957.7659912109375
 11
748287.382
 21
4188564.244
 31
957.7680053710938
  0
LINE
  5
134
330
1F
100
AcDbEntity
  8
957_957
370
     0
100
AcDbLine
 10
748287.382
 20
4188564.244
 30
957.7680053710938
 11
748287.986
 21
4188565.534
 31
957.8900146484375
  0
LINE
  5
135
330
1F
100
AcDbEntity
  8
957_957
370
     0
100
AcDbLine
 10
748287.986
 20
4188565.534
 30
957.8900146484375
 11
748288.7358686
 21
4188566.672762
 31
957.7219848632812
  0
LINE
  5
136
330
1F
100
AcDbEntity
  8
957_957
370
     0
100
AcDbLine
 10
748288.7358686
 20
4188566.672762
 30
957.7219848632812
 11
748290.141
 21
4188568.057
 31
957.9000244140625
  0
LINE
  5
137
330
1F
100
AcDbEntity
  8
957_957
370
     0
100
AcDbLine
 10
748290.141
 20
4188568.057
 30
957.9000244140625
 11
748290.336
 21
4188569.046
 31
957.8939819335938
  0
LINE
  5
138
330
1F
100
AcDbEntity
  8
957_957
370
     0
100
AcDbLine
 10
748289.121
 20
4188569.761
 30
957.8939819335938
 11
748288.615
 21
4188568.659
 31
957.7990112304688
  0
LINE
  5
139
330
1F
100
AcDbEntity
  8
957_957
370
     0
100
AcDbLine
 10
748288.615
 20
4188568.659
 30
957.7990112304688
 11
748287.246
 21
4188567.152
 31
957.718017578125
  0
LINE
  5
13A
330
1F
100
AcDbEntity
  8
957_957
370
     0
100
AcDbLine
 10
748287.246
 20
4188567.152
 30
957.718017578125
 11
748286.069
 21
4188566.071
 31
957.6959838867188
  0
LINE
  5
13B
330
1F
100
AcDbEntity
  8
957_957
370
     0
100
AcDbLine
 10
748286.069
 20
4188566.071
 30
957.6959838867188
 11
748285.255
 21
4188566.152
 31
957.7150268554688
  0
LINE
  5
13C
330
1F
100
AcDbEntity
  8
957_957
370
     0
100
AcDbLine
 10
748285.255
 20
4188566.152
 30
957.7150268554688
 11
748284.149
 21
4188566.728
 31
957.6300048828125
  0
LINE
  5
13D
330
1F
100
AcDbEntity
  8
957_957
370
     0
100
AcDbLine
 10
748262.571
 20
4188621.306
 30
959.02099609375
 11
748260.259
 21
4188619.66
 31
959.1840209960938
  0
LINE
  5
13E
330
1F
100
AcDbEntity
  8
957_957
370
     0
100
AcDbLine
 10
748260.259
 20
4188619.66
 30
959.1840209960938
 11
748257.345
 21
4188619.089
 31
959.052978515625
  0
LINE
  5
13F
330
1F
100
AcDbEntity
  8
957_957
370
     0
100
AcDbLine
 10
748257.345
 20
4188619.089
 30
959.052978515625
 11
748254.326
 21
4188618.229
 31
959.072021484375
  0
LINE
  5
140
330
1F
100
AcDbEntity
  8
957_957
370
     0
100
AcDbLine
 10
748254.326
 20
4188618.229
 30
959.072021484375
 11
748251.304
 21
4188616.355
 31
958.8939819335938
  0
LINE
  5
141
330
1F
100
AcDbEntity
  8
957_957
370
     0
100
AcDbLine
 10
748247.695
 20
4188609.476
 30
958.3049926757812
 11
748246.737
 21
4188608.124
 31
957.9210205078125
  0
LINE
  5
142
330
1F
100
AcDbEntity
  8
957_957
370
     0
100
AcDbLine
 10
748246.737
 20
4188608.124
 30
957.9210205078125
 11
748245.13
 21
4188606.525
 31
957.7919921875
  0
LINE
  5
143
330
1F
100
AcDbEntity
  8
957_957
370
     0
100
AcDbLine
 10
748245.13
 20
4188606.525
 30
957.7919921875
 11
748243.375
 21
4188605.018
 31
957.5050048828125
  0
LINE
  5
144
330
1F
100
AcDbEntity
  8
957_957
370
     0
100
AcDbLine
 10
748240.779
 20
4188599.058
 30
957.5050048828125
 11
748243.918
 21
4188602.296
 31
957.5050048828125
  0
LINE
  5
145
330
1F
100
AcDbEntity
  8
957_957
370
     0
100
AcDbLine
 10
748243.918
 20
4188602.296
 30
957.5050048828125
 11
748245.94
 21
4188604.128
 31
957.5050048828125
  0
LINE
  5
146
330
1F
100
AcDbEntity
  8
957_957
370
     0
100
AcDbLine
 10
748245.94
 20
4188604.128
 30
957.5050048828125
 11
748247.799
 21
4188605.812
 31
957.7919921875
  0
LINE
  5
147
330
1F
100
AcDbEntity
  8
957_957
370
     0
100
AcDbLine
 10
748247.799
 20
4188605.812
 30
957.7919921875
 11
748249.804
 21
4188606.58
 31
957.9210205078125
  0
LINE
  5
148
330
1F
100
AcDbEntity
  8
957_957
370
     0
100
AcDbLine
 10
748249.804
 20
4188606.58
 30
957.9210205078125
 11
748250.221
 21
4188608.986
 31
958.3510131835938
  0
LINE
  5
149
330
1F
100
AcDbEntity
  8
957_957
370
     0
100
AcDbLine
 10
748250.221
 20
4188608.986
 30
958.3510131835938
 11
748250.948
 21
4188610.517
 31
958.47900390625
  0
LINE
  5
14A
330
1F
100
AcDbEntity
  8
957_957
370
     0
100
AcDbLine
 10
748250.948
 20
4188610.517
 30
958.47900390625
 11
748251.755
 21
4188612.18
 31
959.6640014648438
  0
LINE
  5
14B
330
1F
100
AcDbEntity
  8
957_957
370
     0
100
AcDbLine
 10
748251.755
 20
4188612.18
 30
959.6640014648438
 11
748253.459
 21
4188614.745
 31
958.802978515625
  0
LINE
  5
14C
330
1F
100
AcDbEntity
  8
957_957
370
     0
100
AcDbLine
 10
748253.459
 20
4188614.745
 30
958.802978515625
 11
748256.338
 21
4188616.608
 31
959.1179809570312
  0
LINE
  5
14D
330
1F
100
AcDbEntity
  8
957_957
370
     0
100
AcDbLine
 10
748256.338
 20
4188616.608
 30
959.1179809570312
 11
748260.4769062
 21
4188617.183745
 31
959.1710205078125
  0
LINE
  5
14E
330
1F
100
AcDbEntity
  8
957_957
370
     0
100
AcDbLine
 10
748284.104
 20
4188565.16
 30
957.7100219726562
 11
748284.763
 21
4188564.719
 31
957.77197265625
  0
LINE
  5
14F
330
1F
100
AcDbEntity
  8
957_957
370
     0
100
AcDbLine
 10
748284.149
 20
4188566.728
 30
957.6300048828125
 11
748284.043
 21
4188566.878
 31
957.7160034179688
  0
LINE
  5
150
330
1F
100
AcDbEntity
  8
957_957
370
     0
100
AcDbLine
 10
748346.678
 20
4188454.87
 30
950.5
 11
748343.6393558
 21
4188458.038125
 31
950.75
  0
LINE
  5
151
330
1F
100
AcDbEntity
  8
957_957
370
     0
100
AcDbLine
 10
748338.426
 20
4188464.066
 30
950.2030029296875
 11
748335.89
 21
4188466.751
 31
950.1199951171875
  0
LINE
  5
152
330
1F
100
AcDbEntity
  8
957_957
370
     0
100
AcDbLine
 10
748332.304
 20
4188466.825
 30
950.3590087890625
 11
748333.127
 21
4188465.75
 31
950.3489990234375
  0
LINE
  5
154
330
1F
100
AcDbEntity
  8
957_957
370
     0
100
AcDbLine
 10
748351.225
 20
4188452.912
 30
950.5
 11
748353.461
 21
4188452.339
 31
956.5479736328125
  0
LINE
  5
155
330
1F
100
AcDbEntity
  8
957_957
370
     0
100
AcDbLine
 10
748353.461
 20
4188452.339
 30
956.5479736328125
 11
748351.255
 21
4188451.514
 31
950.5
  0
LINE
  5
156
330
1F
100
AcDbEntity
  8
957_957
370
     0
100
AcDbLine
 10
748238.490877
 20
4188600.067631
 30
957.5050048828125
 11
748237.1
 21
4188596.433
 31
957.3270263671875
  0
LINE
  5
157
330
1F
100
AcDbEntity
  8
957_957
370
     0
100
AcDbLine
 10
748237.1
 20
4188596.433
 30
957.3270263671875
 11
748236.131
 21
4188593.709
 31
956.9840087890625
  0
LINE
  5
158
330
1F
100
AcDbEntity
  8
957_957
370
     0
100
AcDbLine
 10
748236.131
 20
4188593.709
 30
956.9840087890625
 11
748234.902
 21
4188591.751
 31
957.7139892578125
  0
LINE
  5
159
330
1F
100
AcDbEntity
  8
957_957
370
     0
100
AcDbLine
 10
748234.902
 20
4188591.751
 30
957.7139892578125
 11
748235.203
 21
4188590.529
 31
958.1799926757812
  0
LINE
  5
15A
330
1F
100
AcDbEntity
  8
957_957
370
     0
100
AcDbLine
 10
748235.203
 20
4188590.529
 30
958.1799926757812
 11
748235.724
 21
4188589.866
 31
958.708984375
  0
LINE
  5
15B
330
1F
100
AcDbEntity
  8
957_957
370
     0
100
AcDbLine
 10
748235.724
 20
4188589.866
 30
958.708984375
 11
748235.932
 21
4188588.951
 31
959.2559814453125
  0
LINE
  5
15C
330
1F
100
AcDbEntity
  8
957_957
370
     0
100
AcDbLine
 10
748235.932
 20
4188588.951
 30
959.2559814453125
 11
748236.207
 21
4188588.855
 31
959.4329833984375
  0
LINE
  5
15D
330
1F
100
AcDbEntity
  8
957_957
370
     0
100
AcDbLine
 10
748236.207
 20
4188588.855
 30
959.4329833984375
 11
748237.622
 21
4188587.851
 31
960.801025390625
  0
LINE
  5
15E
330
1F
100
AcDbEntity
  8
957_957
370
     0
100
AcDbLine
 10
748237.622
 20
4188587.851
 30
960.801025390625
 11
748237.9274677
 21
4188588.783518
 31
960.1929931640625
  0
LINE
  5
15F
330
1F
100
AcDbEntity
  8
957_957
370
     0
100
AcDbLine
 10
748237.9274677
 20
4188588.783518
 30
960.1929931640625
 11
748237.151
 21
4188589.761
 31
959.1710205078125
  0
LINE
  5
160
330
1F
100
AcDbEntity
  8
957_957
370
     0
100
AcDbLine
 10
748237.151
 20
4188589.761
 30
959.1710205078125
 11
748237.229
 21
4188590.444
 31
958.552001953125
  0
LINE
  5
161
330
1F
100
AcDbEntity
  8
957_957
370
     0
100
AcDbLine
 10
748237.229
 20
4188590.444
 30
958.552001953125
 11
748238.085
 21
4188593.646
 31
957.1619873046875
  0
LINE
  5
162
330
1F
100
AcDbEntity
  8
957_957
370
     0
100
AcDbLine
 10
748238.085
 20
4188593.646
 30
957.1619873046875
 11
748239.202
 21
4188596.635
 31
957.3619995117188
  0
LINE
  5
163
330
1F
100
AcDbEntity
  8
957_957
370
     0
100
AcDbLine
 10
748239.202
 20
4188596.635
 30
957.3619995117188
 11
748240.779
 21
4188599.058
 31
957.5050048828125
  0
LINE
  5
164
330
1F
100
AcDbEntity
  8
957_957
370
     0
100
AcDbLine
 10
748290.902
 20
4188569.682
 30
958.052978515625
 11
748292.1634654
 21
4188570.960415
 31
958.1420288085938
  0
LINE
  5
165
330
1F
100
AcDbEntity
  8
957_957
370
     0
100
AcDbLine
 10
748292.1634654
 20
4188570.960415
 30
958.1420288085938
 11
748295.166
 21
4188572.361
 31
958.469970703125
  0
LINE
  5
166
330
1F
100
AcDbEntity
  8
957_957
370
     0
100
AcDbLine
 10
748295.166
 20
4188572.361
 30
958.469970703125
 11
748296.546
 21
4188573.593
 31
958.4810180664062
  0
LINE
  5
167
330
1F
100
AcDbEntity
  8
957_957
370
     0
100
AcDbLine
 10
748296.546
 20
4188573.593
 30
958.4810180664062
 11
748298.423
 21
4188574.525
 31
958.5889892578125
  0
LINE
  5
168
330
1F
100
AcDbEntity
  8
957_957
370
     0
100
AcDbLine
 10
748298.423
 20
4188574.525
 30
958.5889892578125
 11
748297.883
 21
4188575.987
 31
958.7030029296875
  0
LINE
  5
169
330
1F
100
AcDbEntity
  8
957_957
370
     0
100
AcDbLine
 10
748297.883
 20
4188575.987
 30
958.7030029296875
 11
748296.406
 21
4188575.468
 31
958.5919799804688
  0
LINE
  5
16A
330
1F
100
AcDbEntity
  8
957_957
370
     0
100
AcDbLine
 10
748296.406
 20
4188575.468
 30
958.5919799804688
 11
748294.835
 21
4188573.973
 31
958.4439697265625
  0
LINE
  5
16B
330
1F
100
AcDbEntity
  8
957_957
370
     0
100
AcDbLine
 10
748294.835
 20
4188573.973
 30
958.4439697265625
 11
748293.44
 21
4188573.08
 31
958.635009765625
  0
LINE
  5
16C
330
1F
100
AcDbEntity
  8
957_957
370
     0
100
AcDbLine
 10
748293.44
 20
4188573.08
 30
958.635009765625
 11
748292.599
 21
4188574.41
 31
958.7269897460938
  0
LINE
  5
16D
330
1F
100
AcDbEntity
  8
957_957
370
     0
100
AcDbLine
 10
748292.599
 20
4188574.41
 30
958.7269897460938
 11
748291.7454601
 21
4188573.927593
 31
958.5050048828125
  0
LINE
  5
16E
330
1F
100
AcDbEntity
  8
957_957
370
     0
100
AcDbLine
 10
748291.7454601
 20
4188573.927593
 30
958.5050048828125
 11
748291.537
 21
4188572.798
 31
958.1389770507812
  0
LINE
  5
16F
330
1F
100
AcDbEntity
  8
957_957
370
     0
100
AcDbLine
 10
748291.537
 20
4188572.798
 30
958.1389770507812
 11
748289.92
 21
4188571.649
 31
958.0079956054688
  0
LINE
  5
170
330
1F
100
AcDbEntity
  8
957_957
370
     0
100
AcDbLine
 10
748289.92
 20
4188571.649
 30
958.0079956054688
 11
748289.121
 21
4188569.761
 31
957.8939819335938
  0
LINE
  5
171
330
1F
100
AcDbEntity
  8
957_957
370
     0
100
AcDbLine
 10
748290.336
 20
4188569.046
 30
957.8939819335938
 11
748290.902
 21
4188569.682
 31
958.052978515625
  0
LINE
  5
172
330
1F
100
AcDbEntity
  8
957_957
370
     0
100
AcDbLine
 10
748315.945
 20
4188490.838
 30
951.7620239257812
 11
748314.569
 21
4188492.54
 31
951.9559936523438
  0
LINE
  5
173
330
1F
100
AcDbEntity
  8
957_957
370
     0
100
AcDbLine
 10
748314.569
 20
4188492.54
 30
951.9559936523438
 11
748314.933
 21
4188492.795
 31
952.1799926757812
  0
LINE
  5
174
330
1F
100
AcDbEntity
  8
957_957
370
     0
100
AcDbLine
 10
748314.933
 20
4188492.795
 30
952.1799926757812
 11
748316.828
 21
4188493.025
 31
952.4080200195312
  0
LINE
  5
175
330
1F
100
AcDbEntity
  8
957_957
370
     0
100
AcDbLine
 10
748316.828
 20
4188493.025
 30
952.4080200195312
 11
748319.477
 21
4188492.508
 31
952.9000244140625
  0
LINE
  5
176
330
1F
100
AcDbEntity
  8
957_957
370
     0
100
AcDbLine
 10
748319.477
 20
4188492.508
 30
952.9000244140625
 11
748322.184
 21
4188492.668
 31
953.2329711914062
  0
LINE
  5
177
330
1F
100
AcDbEntity
  8
957_957
370
     0
100
AcDbLine
 10
748322.241
 20
4188495.002
 30
953.3569946289062
 11
748319.194
 21
4188495.074
 31
952.8909912109375
  0
LINE
  5
178
330
1F
100
AcDbEntity
  8
957_957
370
     0
100
AcDbLine
 10
748319.194
 20
4188495.074
 30
952.8909912109375
 11
748316.577
 21
4188495.433
 31
952.447021484375
  0
LINE
  5
179
330
1F
100
AcDbEntity
  8
957_957
370
     0
100
AcDbLine
 10
748316.577
 20
4188495.433
 30
952.447021484375
 11
748313.073
 21
4188495.865
 31
952.3280029296875
  0
LINE
  5
17A
330
1F
100
AcDbEntity
  8
957_957
370
     0
100
AcDbLine
 10
748313.073
 20
4188495.865
 30
952.3280029296875
 11
748311.278
 21
4188496.583
 31
952.1610107421875
  0
LINE
  5
17B
330
1F
100
AcDbEntity
  8
957_957
370
     0
100
AcDbLine
 10
748243.375
 20
4188605.018
 30
957.5050048828125
 11
748240.607
 21
4188602.848
 31
957.177978515625
  0
LINE
  5
17C
330
1F
100
AcDbEntity
  8
957_957
370
     0
100
AcDbLine
 10
748240.607
 20
4188602.848
 30
957.177978515625
 11
748238.867
 21
4188602.868
 31
957.177978515625
  0
LINE
  5
17D
330
1F
100
AcDbEntity
  8
957_957
370
     0
100
AcDbLine
 10
748238.867
 20
4188602.868
 30
957.177978515625
 11
748236.38
 21
4188603.39
 31
957.177978515625
  0
LINE
  5
17E
330
1F
100
AcDbEntity
  8
957_957
370
     0
100
AcDbLine
 10
748236.449
 20
4188601.086
 30
957.177978515625
 11
748238.229
 21
4188600.452
 31
957.177978515625
  0
LINE
  5
17F
330
1F
100
AcDbEntity
  8
957_957
370
     0
100
AcDbLine
 10
748238.229
 20
4188600.452
 30
957.177978515625
 11
748238.490877
 21
4188600.067631
 31
957.5050048828125
  0
LINE
  5
180
330
1F
100
AcDbEntity
  8
957_957
370
     0
100
AcDbLine
 10
748322.184
 20
4188492.668
 30
953.2329711914062
 11
748324.54
 21
4188492.808
 31
953.3579711914062
  0
LINE
  5
181
330
1F
100
AcDbEntity
  8
957_957
370
     0
100
AcDbLine
 10
748324.54
 20
4188492.808
 30
953.3579711914062
 11
748327.857
 21
4188493.064
 31
953.791015625
  0
LINE
  5
182
330
1F
100
AcDbEntity
  8
957_957
370
     0
100
AcDbLine
 10
748327.857
 20
4188493.064
 30
953.791015625
 11
748336.588
 21
4188493.654
 31
954.2999877929688
  0
LINE
  5
183
330
1F
100
AcDbEntity
  8
957_957
370
     0
100
AcDbLine
 10
748336.588
 20
4188493.654
 30
954.2999877929688
 11
748338.371
 21
4188494.18
 31
954.2999877929688
  0
LINE
  5
184
330
1F
100
AcDbEntity
  8
957_957
370
     0
100
AcDbLine
 10
748338.371
 20
4188494.18
 30
954.2999877929688
 11
748339.841
 21
4188494.458
 31
954.2999877929688
  0
LINE
  5
185
330
1F
100
AcDbEntity
  8
957_957
370
     0
100
AcDbLine
 10
748339.822
 20
4188496.303
 30
954.2999877929688
 11
748333.804
 21
4188495.98
 31
954.2429809570312
  0
LINE
  5
186
330
1F
100
AcDbEntity
  8
957_957
370
     0
100
AcDbLine
 10
748333.804
 20
4188495.98
 30
954.2429809570312
 11
748329.567
 21
4188495.66
 31
953.8889770507812
  0
LINE
  5
187
330
1F
100
AcDbEntity
  8
957_957
370
     0
100
AcDbLine
 10
748329.567
 20
4188495.66
 30
953.8889770507812
 11
748323.513
 21
4188495.129
 31
953.22900390625
  0
LINE
  5
188
330
1F
100
AcDbEntity
  8
957_957
370
     0
100
AcDbLine
 10
748323.513
 20
4188495.129
 30
953.22900390625
 11
748322.241
 21
4188495.002
 31
953.3569946289062
  0
LINE
  5
189
330
1F
100
AcDbEntity
  8
957_957
370
     0
100
AcDbLine
 10
748339.841
 20
4188494.458
 30
954.2999877929688
 11
748341.692
 21
4188494.554
 31
954.8070068359375
  0
LINE
  5
18A
330
1F
100
AcDbEntity
  8
957_957
370
     0
100
AcDbLine
 10
748341.692
 20
4188494.554
 30
954.8070068359375
 11
748344.721
 21
4188495.127
 31
955.0180053710938
  0
LINE
  5
18B
330
1F
100
AcDbEntity
  8
957_957
370
     0
100
AcDbLine
 10
748344.721
 20
4188495.127
 30
955.0180053710938
 11
748346.983
 21
4188495.587
 31
955.0
  0
LINE
  5
18C
330
1F
100
AcDbEntity
  8
957_957
370
     0
100
AcDbLine
 10
748346.983
 20
4188495.587
 30
955.0
 11
748348.753
 21
4188495.909
 31
955.0
  0
LINE
  5
18D
330
1F
100
AcDbEntity
  8
957_957
370
     0
100
AcDbLine
 10
748348.785
 20
4188497.877
 30
955.0
 11
748346.645
 21
4188497.695
 31
955.0
  0
LINE
  5
18E
330
1F
100
AcDbEntity
  8
957_957
370
     0
100
AcDbLine
 10
748346.645
 20
4188497.695
 30
955.0
 11
748344.282
 21
4188497.377
 31
955.0
  0
LINE
  5
18F
330
1F
100
AcDbEntity
  8
957_957
370
     0
100
AcDbLine
 10
748344.282
 20
4188497.377
 30
955.0
 11
748341.9463693
 21
4188496.876122
 31
954.85302734375
  0
LINE
  5
190
330
1F
100
AcDbEntity
  8
957_957
370
     0
100
AcDbLine
 10
748341.9463693
 20
4188496.876122
 30
954.85302734375
 11
748339.822
 21
4188496.303
 31
954.2999877929688
  0
LINE
  5
191
330
1F
100
AcDbEntity
  8
957_957
370
     0
100
AcDbLine
 10
748348.753
 20
4188495.909
 30
955.0
 11
748351.731
 21
4188496.571
 31
956.364013671875
  0
LINE
  5
192
330
1F
100
AcDbEntity
  8
957_957
370
     0
100
AcDbLine
 10
748351.731
 20
4188496.571
 30
956.364013671875
 11
748354.601
 21
4188496.789
 31
956.6740112304688
  0
LINE
  5
193
330
1F
100
AcDbEntity
  8
957_957
370
     0
100
AcDbLine
 10
748354.601
 20
4188496.789
 30
956.6740112304688
 11
748357.333
 21
4188496.829
 31
957.052001953125
  0
LINE
  5
194
330
1F
100
AcDbEntity
  8
957_957
370
     0
100
AcDbLine
 10
748362.137
 20
4188498.245
 30
957.7620239257812
 11
748360.192
 21
4188498.409
 31
957.468017578125
  0
LINE
  5
195
330
1F
100
AcDbEntity
  8
957_957
370
     0
100
AcDbLine
 10
748360.192
 20
4188498.409
 30
957.468017578125
 11
748358.04
 21
4188498.707
 31
957.1500244140625
  0
LINE
  5
196
330
1F
100
AcDbEntity
  8
957_957
370
     0
100
AcDbLine
 10
748358.04
 20
4188498.707
 30
957.1500244140625
 11
748355.536
 21
4188498.851
 31
956.8690185546875
  0
LINE
  5
197
330
1F
100
AcDbEntity
  8
957_957
370
     0
100
AcDbLine
 10
748355.536
 20
4188498.851
 30
956.8690185546875
 11
748351.837
 21
4188498.317
 31
956.4619750976562
  0
LINE
  5
198
330
1F
100
AcDbEntity
  8
957_957
370
     0
100
AcDbLine
 10
748351.837
 20
4188498.317
 30
956.4619750976562
 11
748348.785
 21
4188497.877
 31
955.0
  0
LINE
  5
199
330
1F
100
AcDbEntity
  8
957_957
370
     0
100
AcDbLine
 10
748267.046
 20
4188632.746
 30
958.510009765625
 11
748266.724
 21
4188632.078
 31
958.77197265625
  0
LINE
  5
19A
330
1F
100
AcDbEntity
  8
957_957
370
     0
100
AcDbLine
 10
748266.724
 20
4188632.078
 30
958.77197265625
 11
748265.316
 21
4188631.223
 31
958.677001953125
  0
LINE
  5
19B
330
1F
100
AcDbEntity
  8
957_957
370
     0
100
AcDbLine
 10
748265.316
 20
4188631.223
 30
958.677001953125
 11
748263.175
 21
4188631.43
 31
959.010009765625
  0
LINE
  5
19C
330
1F
100
AcDbEntity
  8
957_957
370
     0
100
AcDbLine
 10
748263.175
 20
4188631.43
 30
959.010009765625
 11
748262.132
 21
4188631.546
 31
959.0700073242188
  0
LINE
  5
19D
330
1F
100
AcDbEntity
  8
957_957
370
     0
100
AcDbLine
 10
748260.252
 20
4188629.439
 30
959.10400390625
 11
748263.321
 21
4188629.351
 31
958.9949951171875
  0
LINE
  5
19E
330
1F
100
AcDbEntity
  8
957_957
370
     0
100
AcDbLine
 10
748264.928
 20
4188629.091
 30
958.947998046875
 11
748265.534
 21
4188628.654
 31
958.7839965820312
  0
LINE
  5
19F
330
1F
100
AcDbEntity
  8
957_957
370
     0
100
AcDbLine
 10
748265.534
 20
4188628.654
 30
958.7839965820312
 11
748265.712
 21
4188627.5395
 31
958.510009765625
  0
LINE
  5
1A0
330
1F
100
AcDbEntity
  8
957_957
370
     0
100
AcDbLine
 10
748357.333
 20
4188496.829
 30
957.052001953125
 11
748360.872
 21
4188496.482
 31
957.52197265625
  0
LINE
  5
1A1
330
1F
100
AcDbEntity
  8
957_957
370
     0
100
AcDbLine
 10
748360.872
 20
4188496.482
 30
957.52197265625
 11
748363.098
 21
4188496.266
 31
957.7589721679688
  0
LINE
  5
1A2
330
1F
100
AcDbEntity
  8
957_957
370
     0
100
AcDbLine
 10
748363.098
 20
4188496.266
 30
957.7589721679688
 11
748367.155
 21
4188496.782
 31
958.1729736328125
  0
LINE
  5
1A3
330
1F
100
AcDbEntity
  8
957_957
370
     0
100
AcDbLine
 10
748367.155
 20
4188496.782
 30
958.1729736328125
 11
748368.837
 21
4188496.785
 31
958.43798828125
  0
LINE
  5
1A4
330
1F
100
AcDbEntity
  8
957_957
370
     0
100
AcDbLine
 10
748368.837
 20
4188496.785
 30
958.43798828125
 11
748370.228
 21
4188497.073
 31
958.9520263671875
  0
LINE
  5
1A5
330
1F
100
AcDbEntity
  8
957_957
370
     0
100
AcDbLine
 10
748370.228
 20
4188497.073
 30
958.9520263671875
 11
748371.122
 21
4188497.016
 31
959.4990234375
  0
LINE
  5
1A6
330
1F
100
AcDbEntity
  8
957_957
370
     0
100
AcDbLine
 10
748371.122
 20
4188497.016
 30
959.4990234375
 11
748371.933
 21
4188496.893
 31
960.4180297851562
  0
LINE
  5
1A7
330
1F
100
AcDbEntity
  8
957_957
370
     0
100
AcDbLine
 10
748372.001
 20
4188499.218
 30
960.3690185546875
 11
748370.844
 21
4188498.983
 31
959.2589721679688
  0
LINE
  5
1A8
330
1F
100
AcDbEntity
  8
957_957
370
     0
100
AcDbLine
 10
748370.844
 20
4188498.983
 30
959.2589721679688
 11
748370.082
 21
4188499.045
 31
958.9010009765625
  0
LINE
  5
1A9
330
1F
100
AcDbEntity
  8
957_957
370
     0
100
AcDbLine
 10
748370.082
 20
4188499.045
 30
958.9010009765625
 11
748369.235
 21
4188499.019
 31
958.60302734375
  0
LINE
  5
1AA
330
1F
100
AcDbEntity
  8
957_957
370
     0
100
AcDbLine
 10
748369.235
 20
4188499.019
 30
958.60302734375
 11
748367.659
 21
4188498.855
 31
958.198974609375
  0
LINE
  5
1AB
330
1F
100
AcDbEntity
  8
957_957
370
     0
100
AcDbLine
 10
748367.659
 20
4188498.855
 30
958.198974609375
 11
748366.093
 21
4188498.556
 31
958.1489868164062
  0
LINE
  5
1AC
330
1F
100
AcDbEntity
  8
957_957
370
     0
100
AcDbLine
 10
748366.093
 20
4188498.556
 30
958.1489868164062
 11
748363.226
 21
4188498.208
 31
957.7449951171875
  0
LINE
  5
1AD
330
1F
100
AcDbEntity
  8
957_957
370
     0
100
AcDbLine
 10
748363.226
 20
4188498.208
 30
957.7449951171875
 11
748362.137
 21
4188498.245
 31
957.7620239257812
  0
LINE
  5
1AE
330
1F
100
AcDbEntity
  8
957_957
370
     0
100
AcDbLine
 10
748263.321
 20
4188629.351
 30
958.9949951171875
 11
748264.928
 21
4188629.091
 31
958.947998046875
  0
LINE
  5
1AF
330
1F
100
AcDbEntity
  8
957_957
370
     0
100
AcDbLine
 10
748236.38
 20
4188603.39
 30
957.177978515625
 11
748233.867
 21
4188603.846
 31
957.1840209960938
  0
LINE
  5
1B0
330
1F
100
AcDbEntity
  8
957_957
370
     0
100
AcDbLine
 10
748233.867
 20
4188603.846
 30
957.1840209960938
 11
748231.04
 21
4188605.429
 31
957.06298828125
  0
LINE
  5
1B1
330
1F
100
AcDbEntity
  8
957_957
370
     0
100
AcDbLine
 10
748231.04
 20
4188605.429
 30
957.06298828125
 11
748228.057
 21
4188606.954
 31
957.0269775390625
  0
LINE
  5
1B2
330
1F
100
AcDbEntity
  8
957_957
370
     0
100
AcDbLine
 10
748228.057
 20
4188606.954
 30
957.0269775390625
 11
748225.361
 21
4188608.667
 31
957.2080078125
  0
LINE
  5
1B3
330
1F
100
AcDbEntity
  8
957_957
370
     0
100
AcDbLine
 10
748225.361
 20
4188608.667
 30
957.2080078125
 11
748224.202
 21
4188610.058
 31
957.4329833984375
  0
LINE
  5
1B4
330
1F
100
AcDbEntity
  8
957_957
370
     0
100
AcDbLine
 10
748224.202
 20
4188610.058
 30
957.4329833984375
 11
748223.662
 21
4188611.13
 31
957.4829711914062
  0
LINE
  5
1B5
330
1F
100
AcDbEntity
  8
957_957
370
     0
100
AcDbLine
 10
748223.662
 20
4188611.13
 30
957.4829711914062
 11
748222.924
 21
4188613.093
 31
957.6209716796875
  0
LINE
  5
1B6
330
1F
100
AcDbEntity
  8
957_957
370
     0
100
AcDbLine
 10
748222.924
 20
4188613.093
 30
957.6209716796875
 11
748221.593
 21
4188614.744
 31
957.5540161132812
  0
LINE
  5
1B7
330
1F
100
AcDbEntity
  8
957_957
370
     0
100
AcDbLine
 10
748221.593
 20
4188614.744
 30
957.5540161132812
 11
748220.586
 21
4188616.242
 31
957.7150268554688
  0
LINE
  5
1B8
330
1F
100
AcDbEntity
  8
957_957
370
     0
100
AcDbLine
 10
748220.586
 20
4188616.242
 30
957.7150268554688
 11
748219.213
 21
4188617.651
 31
957.7940063476562
  0
LINE
  5
1B9
330
1F
100
AcDbEntity
  8
957_957
370
     0
100
AcDbLine
 10
748218.115
 20
4188615.293
 30
957.8049926757812
 11
748220.46
 21
4188611.734
 31
957.5239868164062
  0
LINE
  5
1BA
330
1F
100
AcDbEntity
  8
957_957
370
     0
100
AcDbLine
 10
748220.46
 20
4188611.734
 30
957.5239868164062
 11
748221.787
 21
4188609.679
 31
957.4429931640625
  0
LINE
  5
1BB
330
1F
100
AcDbEntity
  8
957_957
370
     0
100
AcDbLine
 10
748221.787
 20
4188609.679
 30
957.4429931640625
 11
748222.871
 21
4188607.724
 31
957.2830200195312
  0
LINE
  5
1BC
330
1F
100
AcDbEntity
  8
957_957
370
     0
100
AcDbLine
 10
748222.871
 20
4188607.724
 30
957.2830200195312
 11
748224.226
 21
4188606.851
 31
957.1010131835938
  0
LINE
  5
1BD
330
1F
100
AcDbEntity
  8
957_957
370
     0
100
AcDbLine
 10
748224.226
 20
4188606.851
 30
957.1010131835938
 11
748225.44
 21
4188606.111
 31
957.0819702148438
  0
LINE
  5
1BE
330
1F
100
AcDbEntity
  8
957_957
370
     0
100
AcDbLine
 10
748225.44
 20
4188606.111
 30
957.0819702148438
 11
748228.449
 21
4188604.207
 31
957.0050048828125
  0
LINE
  5
1BF
330
1F
100
AcDbEntity
  8
957_957
370
     0
100
AcDbLine
 10
748228.449
 20
4188604.207
 30
957.0050048828125
 11
748233.014
 21
4188601.753
 31
957.18701171875
  0
LINE
  5
1C0
330
1F
100
AcDbEntity
  8
957_957
370
     0
100
AcDbLine
 10
748233.014
 20
4188601.753
 30
957.18701171875
 11
748236.449
 21
4188601.086
 31
957.177978515625
  0
LINE
  5
1C1
330
1F
100
AcDbEntity
  8
957_957
370
     0
100
AcDbLine
 10
748371.933
 20
4188496.893
 30
960.4180297851562
 11
748375.118
 21
4188496.408
 31
962.7550048828125
  0
LINE
  5
1C2
330
1F
100
AcDbEntity
  8
957_957
370
     0
100
AcDbLine
 10
748375.118
 20
4188496.408
 30
962.7550048828125
 11
748376.393
 21
4188496.639
 31
963.2130126953125
  0
LINE
  5
1C3
330
1F
100
AcDbEntity
  8
957_957
370
     0
100
AcDbLine
 10
748376.393
 20
4188496.639
 30
963.2130126953125
 11
748377.275
 21
4188497.5
 31
962.3920288085938
  0
LINE
  5
1C4
330
1F
100
AcDbEntity
  8
957_957
370
     0
100
AcDbLine
 10
748377.275
 20
4188497.5
 30
962.3920288085938
 11
748378.987
 21
4188498.303
 31
962.3140258789062
  0
LINE
  5
1C5
330
1F
100
AcDbEntity
  8
957_957
370
     0
100
AcDbLine
 10
748378.987
 20
4188498.303
 30
962.3140258789062
 11
748379.683
 21
4188498.82
 31
962.2069702148438
  0
LINE
  5
1C6
330
1F
100
AcDbEntity
  8
957_957
370
     0
100
AcDbLine
 10
748379.683
 20
4188498.82
 30
962.2069702148438
 11
748380.344
 21
4188501.047
 31
962.135009765625
  0
LINE
  5
1C7
330
1F
100
AcDbEntity
  8
957_957
370
     0
100
AcDbLine
 10
748380.344
 20
4188501.047
 30
962.135009765625
 11
748380.278
 21
4188502.631
 31
962.1580200195312
  0
LINE
  5
1C8
330
1F
100
AcDbEntity
  8
957_957
370
     0
100
AcDbLine
 10
748380.278
 20
4188502.631
 30
962.1580200195312
 11
748379.123
 21
4188503.821
 31
962.4000244140625
  0
LINE
  5
1C9
330
1F
100
AcDbEntity
  8
957_957
370
     0
100
AcDbLine
 10
748379.123
 20
4188503.821
 30
962.4000244140625
 11
748378.575
 21
4188505.268
 31
962.3389892578125
  0
LINE
  5
1CA
330
1F
100
AcDbEntity
  8
957_957
370
     0
100
AcDbLine
 10
748378.575
 20
4188505.268
 30
962.3389892578125
 11
748378.033
 21
4188506.718
 31
962.375
  0
LINE
  5
1CB
330
1F
100
AcDbEntity
  8
957_957
370
     0
100
AcDbLine
 10
748378.033
 20
4188506.718
 30
962.375
 11
748378.564
 21
4188500.997
 31
962.3410034179688
  0
LINE
  5
1CC
330
1F
100
AcDbEntity
  8
957_957
370
     0
100
AcDbLine
 10
748378.564
 20
4188500.997
 30
962.3410034179688
 11
748377.986
 21
4188499.774
 31
962.1389770507812
  0
LINE
  5
1CD
330
1F
100
AcDbEntity
  8
957_957
370
     0
100
AcDbLine
 10
748377.986
 20
4188499.774
 30
962.1389770507812
 11
748376.354
 21
4188498.279
 31
962.4760131835938
  0
LINE
  5
1CE
330
1F
100
AcDbEntity
  8
957_957
370
     0
100
AcDbLine
 10
748376.354
 20
4188498.279
 30
962.4760131835938
 11
748372.001
 21
4188499.218
 31
960.3690185546875
  0
LINE
  5
1CF
330
1F
100
AcDbEntity
  8
957_957
370
     0
100
AcDbLine
 10
748284.566754
 20
4188578.866331
 30
959.5079956054688
 11
748289.627
 21
4188581.858
 31
958.9119873046875
  0
LINE
  5
1D3
330
1F
100
AcDbEntity
  8
957_957
370
     0
100
AcDbLine
 10
748289.627
 20
4188581.858
 30
958.9119873046875
 11
748290.845
 21
4188582.957
 31
959.2420043945312
  0
LINE
  5
1D4
330
1F
100
AcDbEntity
  8
957_957
370
     0
100
AcDbLine
 10
748290.845
 20
4188582.957
 30
959.2420043945312
 11
748291.3250266
 21
4188583.580506
 31
958.8889770507812
  0
LINE
  5
1D5
330
1F
100
AcDbEntity
  8
957_957
370
     0
100
AcDbLine
 10
748291.3250266
 20
4188583.580506
 30
958.8889770507812
 11
748293.1331528
 21
4188583.778692
 31
960.4000244140625
  0
LINE
  5
1D6
330
1F
100
AcDbEntity
  8
957_957
370
     0
100
AcDbLine
 10
748293.1331528
 20
4188583.778692
 30
960.4000244140625
 11
748293.3291403
 21
4188584.344616
 31
960.4000244140625
  0
LINE
  5
1D7
330
1F
100
AcDbEntity
  8
957_957
370
     0
100
AcDbLine
 10
748293.3291403
 20
4188584.344616
 30
960.4000244140625
 11
748292.984
 21
4188584.941
 31
960.4019775390625
  0
LINE
  5
1D8
330
1F
100
AcDbEntity
  8
957_957
370
     0
100
AcDbLine
 10
748292.984
 20
4188584.941
 30
960.4019775390625
 11
748291.757
 21
4188584.699
 31
959.7459716796875
  0
LINE
  5
1D9
330
1F
100
AcDbEntity
  8
957_957
370
     0
100
AcDbLine
 10
748291.757
 20
4188584.699
 30
959.7459716796875
 11
748290.2942017
 21
4188584.136457
 31
958.8889770507812
  0
LINE
  5
1DA
330
1F
100
AcDbEntity
  8
957_957
370
     0
100
AcDbLine
 10
748290.2942017
 20
4188584.136457
 30
958.8889770507812
 11
748289.2487876
 21
4188583.419197
 31
959.2410278320312
  0
LINE
  5
1DB
330
1F
100
AcDbEntity
  8
957_957
370
     0
100
AcDbLine
 10
748289.2487876
 20
4188583.419197
 30
959.2410278320312
 11
748288.5731533
 21
4188583.017033
 31
959.2410278320312
  0
LINE
  5
1DE
330
1F
100
AcDbEntity
  8
957_957
370
     0
100
AcDbLine
 10
748288.5731533
 20
4188583.017033
 30
959.2410278320312
 11
748285.817
 21
4188580.453
 31
959.85400390625
  0
LINE
  5
1DF
330
1F
100
AcDbEntity
  8
957_957
370
     0
100
AcDbLine
 10
748280.2785
 20
4188529.7425
 30
955.3320007324219
 11
748280.225
 21
4188530.092
 31
957.1370239257812
  0
LINE
  5
1E0
330
1F
100
AcDbEntity
  8
957_957
370
     0
100
AcDbLine
 10
748280.225
 20
4188530.092
 30
957.1370239257812
 11
748280.109
 21
4188529.946
 31
958.1439819335938
  0
LINE
  5
1E1
330
1F
100
AcDbEntity
  8
957_957
370
     0
100
AcDbLine
 10
748280.109
 20
4188529.946
 30
958.1439819335938
 11
748280.096
 21
4188529.681
 31
958.2949829101562
  0
LINE
  5
1E2
330
1F
100
AcDbEntity
  8
957_957
370
     0
100
AcDbLine
 10
748280.096
 20
4188529.681
 30
958.2949829101562
 11
748279.363
 21
4188529.953
 31
958.5960083007812
  0
LINE
  5
1E3
330
1F
100
AcDbEntity
  8
957_957
370
     0
100
AcDbLine
 10
748279.526
 20
4188531.603
 30
958.1599731445312
 11
748279.563
 21
4188531.36
 31
957.4039916992188
  0
LINE
  5
1E4
330
1F
100
AcDbEntity
  8
957_957
370
     0
100
AcDbLine
 10
748279.563
 20
4188531.36
 30
957.4039916992188
 11
748279.136
 21
4188531.314
 31
956.5479736328125
  0
LINE
  5
1E5
330
1F
100
AcDbEntity
  8
957_957
370
     0
100
AcDbLine
 10
748279.136
 20
4188531.314
 30
956.5479736328125
 11
748279.1005
 21
4188531.4235
 31
955.4039916992188
  0
LINE
  5
1E6
330
1F
100
AcDbEntity
  8
957_957
370
     0
100
AcDbLine
 10
748216.266
 20
4188621.199
 30
957.7340087890625
 11
748215.666
 21
4188622.385
 31
957.8079833984375
  0
LINE
  5
1E7
330
1F
100
AcDbEntity
  8
957_957
370
     0
100
AcDbLine
 10
748215.666
 20
4188622.385
 30
957.8079833984375
 11
748215.884
 21
4188623.231
 31
957.89599609375
  0
LINE
  5
1E8
330
1F
100
AcDbEntity
  8
957_957
370
     0
100
AcDbLine
 10
748215.884
 20
4188623.231
 30
957.89599609375
 11
748216.471
 21
4188624.569
 31
958.0689697265625
  0
LINE
  5
1E9
330
1F
100
AcDbEntity
  8
957_957
370
     0
100
AcDbLine
 10
748216.471
 20
4188624.569
 30
958.0689697265625
 11
748217.292
 21
4188625.536
 31
958.2369995117188
  0
LINE
  5
1EA
330
1F
100
AcDbEntity
  8
957_957
370
     0
100
AcDbLine
 10
748217.292
 20
4188625.536
 30
958.2369995117188
 11
748218.672
 21
4188626.939
 31
958.3510131835938
  0
LINE
  5
1EB
330
1F
100
AcDbEntity
  8
957_957
370
     0
100
AcDbLine
 10
748216.919
 20
4188629.517
 30
959.1370239257812
 11
748216.297
 21
4188628.394
 31
958.7979736328125
  0
LINE
  5
1EC
330
1F
100
AcDbEntity
  8
957_957
370
     0
100
AcDbLine
 10
748216.297
 20
4188628.394
 30
958.7979736328125
 11
748215.768
 21
4188627.147
 31
958.219970703125
  0
LINE
  5
1ED
330
1F
100
AcDbEntity
  8
957_957
370
     0
100
AcDbLine
 10
748215.768
 20
4188627.147
 30
958.219970703125
 11
748214.938
 21
4188625.527
 31
957.9719848632812
  0
LINE
  5
1EE
330
1F
100
AcDbEntity
  8
957_957
370
     0
100
AcDbLine
 10
748214.938
 20
4188625.527
 30
957.9719848632812
 11
748214.061
 21
4188624.589
 31
957.9390258789062
  0
LINE
  5
1EF
330
1F
100
AcDbEntity
  8
957_957
370
     0
100
AcDbLine
 10
748214.061
 20
4188624.589
 30
957.9390258789062
 11
748213.117
 21
4188625.02
 31
958.1110229492188
  0
LINE
  5
1F0
330
1F
100
AcDbEntity
  8
957_957
370
     0
100
AcDbLine
 10
748213.117
 20
4188625.02
 30
958.1110229492188
 11
748212.264
 21
4188625.679
 31
958.8489990234375
  0
LINE
  5
1F1
330
1F
100
AcDbEntity
  8
957_957
370
     0
100
AcDbLine
 10
748212.264
 20
4188625.679
 30
958.8489990234375
 11
748211.334
 21
4188626.389
 31
959.1920166015625
  0
LINE
  5
1F2
330
1F
100
AcDbEntity
  8
957_957
370
     0
100
AcDbLine
 10
748211.334
 20
4188626.389
 30
959.1920166015625
 11
748209.929
 21
4188624.622
 31
958.9730224609375
  0
LINE
  5
1F3
330
1F
100
AcDbEntity
  8
957_957
370
     0
100
AcDbLine
 10
748209.929
 20
4188624.622
 30
958.9730224609375
 11
748210.828
 21
4188623.619
 31
958.551025390625
  0
LINE
  5
1F4
330
1F
100
AcDbEntity
  8
957_957
370
     0
100
AcDbLine
 10
748210.828
 20
4188623.619
 30
958.551025390625
 11
748211.748
 21
4188623.047
 31
957.8880004882812
  0
LINE
  5
1F5
330
1F
100
AcDbEntity
  8
957_957
370
     0
100
AcDbLine
 10
748211.748
 20
4188623.047
 30
957.8880004882812
 11
748211.613
 21
4188622.55
 31
957.9530029296875
  0
LINE
  5
1F6
330
1F
100
AcDbEntity
  8
957_957
370
     0
100
AcDbLine
 10
748211.613
 20
4188622.55
 30
957.9530029296875
 11
748211.495
 21
4188621.829
 31
957.906982421875
  0
LINE
  5
1F7
330
1F
100
AcDbEntity
  8
957_957
370
     0
100
AcDbLine
 10
748211.495
 20
4188621.829
 30
957.906982421875
 11
748210.643
 21
4188621.382
 31
958.0159912109375
  0
LINE
  5
1F8
330
1F
100
AcDbEntity
  8
957_957
370
     0
100
AcDbLine
 10
748210.643
 20
4188621.382
 30
958.0159912109375
 11
748210.121
 21
4188620.917
 31
958.1290283203125
  0
LINE
  5
1F9
330
1F
100
AcDbEntity
  8
957_957
370
     0
100
AcDbLine
 10
748210.121
 20
4188620.917
 30
958.1290283203125
 11
748208.721
 21
4188619.65
 31
958.2639770507812
  0
LINE
  5
1FA
330
1F
100
AcDbEntity
  8
957_957
370
     0
100
AcDbLine
 10
748208.721
 20
4188619.65
 30
958.2639770507812
 11
748208.581
 21
4188619.288
 31
958.3209838867188
  0
LINE
  5
1FB
330
1F
100
AcDbEntity
  8
957_957
370
     0
100
AcDbLine
 10
748208.581
 20
4188619.288
 30
958.3209838867188
 11
748208.15
 21
4188618.424
 31
958.614013671875
  0
LINE
  5
1FC
330
1F
100
AcDbEntity
  8
957_957
370
     0
100
AcDbLine
 10
748208.981
 20
4188617.688
 30
958.625
 11
748209.618
 21
4188618.284
 31
958.52001953125
  0
LINE
  5
1FD
330
1F
100
AcDbEntity
  8
957_957
370
     0
100
AcDbLine
 10
748209.618
 20
4188618.284
 30
958.52001953125
 11
748210.94
 21
4188619.131
 31
958.1099853515625
  0
LINE
  5
1FE
330
1F
100
AcDbEntity
  8
957_957
370
     0
100
AcDbLine
 10
748210.94
 20
4188619.131
 30
958.1099853515625
 11
748212.401
 21
4188619.539
 31
957.9910278320312
  0
LINE
  5
1FF
330
1F
100
AcDbEntity
  8
957_957
370
     0
100
AcDbLine
 10
748212.401
 20
4188619.539
 30
957.9910278320312
 11
748214.062
 21
4188619.99
 31
957.7490234375
  0
LINE
  5
200
330
1F
100
AcDbEntity
  8
957_957
370
     0
100
AcDbLine
 10
748214.062
 20
4188619.99
 30
957.7490234375
 11
748214.836
 21
4188619.237
 31
957.802001953125
  0
LINE
  5
201
330
1F
100
AcDbEntity
  8
957_957
370
     0
100
AcDbLine
 10
748219.213
 20
4188617.651
 30
957.7940063476562
 11
748216.266
 21
4188621.199
 31
957.7340087890625
  0
LINE
  5
202
330
1F
100
AcDbEntity
  8
957_957
370
     0
100
AcDbLine
 10
748214.836
 20
4188619.237
 30
957.802001953125
 11
748218.115
 21
4188615.293
 31
957.8049926757812
  0
LINE
  5
203
330
1F
100
AcDbEntity
  8
957_957
370
     0
100
AcDbLine
 10
748208.15
 20
4188618.424
 30
958.614013671875
 11
748206.472
 21
4188617.029
 31
958.9639892578125
  0
LINE
  5
204
330
1F
100
AcDbEntity
  8
957_957
370
     0
100
AcDbLine
 10
748206.472
 20
4188617.029
 30
958.9639892578125
 11
748206.168
 21
4188616.24
 31
959.0709838867188
  0
LINE
  5
205
330
1F
100
AcDbEntity
  8
957_957
370
     0
100
AcDbLine
 10
748206.168
 20
4188616.24
 30
959.0709838867188
 11
748205.267
 21
4188615.14
 31
959.1309814453125
  0
LINE
  5
206
330
1F
100
AcDbEntity
  8
957_957
370
     0
100
AcDbLine
 10
748205.267
 20
4188615.14
 30
959.1309814453125
 11
748204.3717641
 21
4188614.311623
 31
959.2739868164062
  0
LINE
  5
207
330
1F
100
AcDbEntity
  8
957_957
370
     0
100
AcDbLine
 10
748204.3717641
 20
4188614.311623
 30
959.2739868164062
 11
748205.2113213
 21
4188613.204515
 31
959.344970703125
  0
LINE
  5
208
330
1F
100
AcDbEntity
  8
957_957
370
     0
100
AcDbLine
 10
748205.2113213
 20
4188613.204515
 30
959.344970703125
 11
748207.0237194
 21
4188614.819187
 31
958.8309936523438
  0
LINE
  5
209
330
1F
100
AcDbEntity
  8
957_957
370
     0
100
AcDbLine
 10
748207.0237194
 20
4188614.819187
 30
958.8309936523438
 11
748207.696
 21
4188616.296
 31
958.8309936523438
  0
LINE
  5
20A
330
1F
100
AcDbEntity
  8
957_957
370
     0
100
AcDbLine
 10
748207.696
 20
4188616.296
 30
958.8309936523438
 11
748208.981
 21
4188617.688
 31
958.625
  0
LINE
  5
20B
330
1F
100
AcDbEntity
  8
957_957
370
     0
100
AcDbLine
 10
748284.839
 20
4188524.832
 30
954.7130126953125
 11
748283.773
 21
4188524.704
 31
955.0369873046875
  0
LINE
  5
20C
330
1F
100
AcDbEntity
  8
957_957
370
     0
100
AcDbLine
 10
748283.632
 20
4188524.117
 30
955.60498046875
 11
748282.805
 21
4188524.366
 31
956.2869873046875
  0
LINE
  5
20D
330
1F
100
AcDbEntity
  8
957_957
370
     0
100
AcDbLine
 10
748282.805
 20
4188524.366
 30
956.2869873046875
 11
748281.579
 21
4188524.742
 31
957.0659790039062
  0
LINE
  5
20E
330
1F
100
AcDbEntity
  8
957_957
370
     0
100
AcDbLine
 10
748281.579
 20
4188524.742
 30
957.0659790039062
 11
748281.09
 21
4188524.709
 31
957.572998046875
  0
LINE
  5
20F
330
1F
100
AcDbEntity
  8
957_957
370
     0
100
AcDbLine
 10
748281.09
 20
4188524.709
 30
957.572998046875
 11
748281.544
 21
4188523.246
 31
957.0130004882812
  0
LINE
  5
210
330
1F
100
AcDbEntity
  8
957_957
370
     0
100
AcDbLine
 10
748281.544
 20
4188523.246
 30
957.0130004882812
 11
748282.457
 21
4188522.972
 31
956.60498046875
  0
LINE
  5
211
330
1F
100
AcDbEntity
  8
957_957
370
     0
100
AcDbLine
 10
748282.457
 20
4188522.972
 30
956.60498046875
 11
748282.735
 21
4188522.624
 31
956.5770263671875
  0
LINE
  5
212
330
1F
100
AcDbEntity
  8
957_957
370
     0
100
AcDbLine
 10
748282.735
 20
4188522.624
 30
956.5770263671875
 11
748283.65
 21
4188522.887
 31
956.041015625
  0
LINE
  5
213
330
1F
100
AcDbEntity
  8
957_957
370
     0
100
AcDbLine
 10
748283.65
 20
4188522.887
 30
956.041015625
 11
748284.537
 21
4188523.194
 31
955.2940063476562
  0
LINE
  5
214
330
1F
100
AcDbEntity
  8
957_957
370
     0
100
AcDbLine
 10
748284.537
 20
4188523.194
 30
955.2940063476562
 11
748285.28
 21
4188523.384
 31
954.7960205078125
  0
LINE
  5
215
330
1F
100
AcDbEntity
  8
957_957
370
     0
100
AcDbLine
 10
748285.28
 20
4188523.384
 30
954.7960205078125
 11
748286.153
 21
4188522.744
 31
954.5430297851562
  0
LINE
  5
216
330
1F
100
AcDbEntity
  8
957_957
370
     0
100
AcDbLine
 10
748289.006
 20
4188523.001
 30
954.43701171875
 11
748288.921
 21
4188524.072
 31
954.6290283203125
  0
LINE
  5
217
330
1F
100
AcDbEntity
  8
957_957
370
     0
100
AcDbLine
 10
748288.921
 20
4188524.072
 30
954.6290283203125
 11
748290.003
 21
4188524.078
 31
954.7080078125
  0
LINE
  5
218
330
1F
100
AcDbEntity
  8
957_957
370
     0
100
AcDbLine
 10
748290.003
 20
4188524.078
 30
954.7080078125
 11
748290.723
 21
4188524.191
 31
954.9400024414062
  0
LINE
  5
219
330
1F
100
AcDbEntity
  8
957_957
370
     0
100
AcDbLine
 10
748290.723
 20
4188524.191
 30
954.9400024414062
 11
748290.864
 21
4188524.403
 31
955.0079956054688
  0
LINE
  5
21A
330
1F
100
AcDbEntity
  8
957_957
370
     0
100
AcDbLine
 10
748290.864
 20
4188524.403
 30
955.0079956054688
 11
748289.84
 21
4188525.409
 31
954.9630126953125
  0
LINE
  5
21B
330
1F
100
AcDbEntity
  8
957_957
370
     0
100
AcDbLine
 10
748289.84
 20
4188525.409
 30
954.9630126953125
 11
748288.892
 21
4188525.507
 31
954.6729736328125
  0
LINE
  5
21C
330
1F
100
AcDbEntity
  8
957_957
370
     0
100
AcDbLine
 10
748288.892
 20
4188525.507
 30
954.6729736328125
 11
748287.723
 21
4188525.709
 31
954.52001953125
  0
LINE
  5
21D
330
1F
100
AcDbEntity
  8
957_957
370
     0
100
AcDbLine
 10
748287.723
 20
4188525.709
 30
954.52001953125
 11
748286.004
 21
4188527.236
 31
954.677978515625
  0
LINE
  5
21E
330
1F
100
AcDbEntity
  8
957_957
370
     0
100
AcDbLine
 10
748286.153
 20
4188522.744
 30
954.5430297851562
 11
748288.096
 21
4188519.785
 31
954.6400146484375
  0
LINE
  5
21F
330
1F
100
AcDbEntity
  8
957_957
370
     0
100
AcDbLine
 10
748283.773
 20
4188524.704
 30
955.0369873046875
 11
748283.632
 21
4188524.117
 31
955.60498046875
  0
LINE
  5
220
330
1F
100
AcDbEntity
  8
957_957
370
     0
100
AcDbLine
 10
748271.584
 20
4188540.546
 30
955.780029296875
 11
748273.091
 21
4188538.981
 31
955.781982421875
  0
LINE
  5
221
330
1F
100
AcDbEntity
  8
957_957
370
     0
100
AcDbLine
 10
748273.091
 20
4188538.981
 30
955.781982421875
 11
748273.063
 21
4188538.407
 31
955.781982421875
  0
LINE
  5
222
330
1F
100
AcDbEntity
  8
957_957
370
     0
100
AcDbLine
 10
748273.063
 20
4188538.407
 30
955.781982421875
 11
748272.771
 21
4188537.931
 31
955.781982421875
  0
LINE
  5
223
330
1F
100
AcDbEntity
  8
957_957
370
     0
100
AcDbLine
 10
748272.771
 20
4188537.931
 30
955.781982421875
 11
748270.68
 21
4188536.29
 31
955.781982421875
  0
LINE
  5
224
330
1F
100
AcDbEntity
  8
957_957
370
     0
100
AcDbLine
 10
748275.093
 20
4188536.439
 30
955.822998046875
 11
748277.489
 21
4188534.3
 31
955.4569702148438
  0
LINE
  5
225
330
1F
100
AcDbEntity
  8
957_957
370
     0
100
AcDbLine
 10
748218.672
 20
4188626.939
 30
958.3510131835938
 11
748218.929
 21
4188628.633
 31
958.1170043945312
  0
LINE
  5
226
330
1F
100
AcDbEntity
  8
957_957
370
     0
100
AcDbLine
 10
748218.929
 20
4188628.633
 30
958.1170043945312
 11
748219.224
 21
4188630.908
 31
958.3579711914062
  0
LINE
  5
227
330
1F
100
AcDbEntity
  8
957_957
370
     0
100
AcDbLine
 10
748219.224
 20
4188630.908
 30
958.3579711914062
 11
748219.192
 21
4188631.315
 31
958.4739990234375
  0
LINE
  5
228
330
1F
100
AcDbEntity
  8
957_957
370
     0
100
AcDbLine
 10
748219.192
 20
4188631.315
 30
958.4739990234375
 11
748218.736
 21
4188631.837
 31
959.0130004882812
  0
LINE
  5
229
330
1F
100
AcDbEntity
  8
957_957
370
     0
100
AcDbLine
 10
748218.736
 20
4188631.837
 30
959.0130004882812
 11
748217.89407
 21
4188631.190433
 31
958.239990234375
  0
LINE
  5
22A
330
1F
100
AcDbEntity
  8
957_957
370
     0
100
AcDbLine
 10
748217.89407
 20
4188631.190433
 30
958.239990234375
 11
748217.14
 21
4188629.907
 31
958.1480102539062
  0
LINE
  5
22B
330
1F
100
AcDbEntity
  8
957_957
370
     0
100
AcDbLine
 10
748217.14
 20
4188629.907
 30
958.1480102539062
 11
748216.919
 21
4188629.517
 31
959.1370239257812
  0
LINE
  5
22C
330
1F
100
AcDbEntity
  8
957_957
370
     0
100
AcDbLine
 10
748270.68
 20
4188536.29
 30
955.85400390625
 11
748268.795
 21
4188534.561
 31
955.8820190429688
  0
LINE
  5
22D
330
1F
100
AcDbEntity
  8
957_957
370
     0
100
AcDbLine
 10
748268.795
 20
4188534.561
 30
955.8820190429688
 11
748268.447
 21
4188533.688
 31
956.1339721679688
  0
LINE
  5
22E
330
1F
100
AcDbEntity
  8
957_957
370
     0
100
AcDbLine
 10
748268.447
 20
4188533.688
 30
956.1339721679688
 11
748269.232
 21
4188532.663
 31
955.8660278320312
  0
LINE
  5
22F
330
1F
100
AcDbEntity
  8
957_957
370
     0
100
AcDbLine
 10
748269.232
 20
4188532.663
 30
955.8660278320312
 11
748270.044
 21
4188532.415
 31
955.9349975585938
  0
LINE
  5
230
330
1F
100
AcDbEntity
  8
957_957
370
     0
100
AcDbLine
 10
748270.044
 20
4188532.415
 30
955.9349975585938
 11
748271.879
 21
4188534.133
 31
955.7839965820312
  0
LINE
  5
231
330
1F
100
AcDbEntity
  8
957_957
370
     0
100
AcDbLine
 10
748271.879
 20
4188534.133
 30
955.7839965820312
 11
748274.292
 21
4188535.629
 31
955.5609741210938
  0
LINE
  5
232
330
1F
100
AcDbEntity
  8
957_957
370
     0
100
AcDbLine
 10
748274.292
 20
4188535.629
 30
955.5609741210938
 11
748275.093
 21
4188536.439
 31
955.822998046875
  0
LINE
  5
233
330
1F
100
AcDbEntity
  8
957_957
370
     0
100
AcDbLine
 10
748258.368
 20
4188632.501
 30
959.2559814453125
 11
748256.634
 21
4188633.627
 31
959.4400024414062
  0
LINE
  5
234
330
1F
100
AcDbEntity
  8
957_957
370
     0
100
AcDbLine
 10
748256.634
 20
4188633.627
 30
959.4400024414062
 11
748255.279
 21
4188634.231
 31
959.5800170898438
  0
LINE
  5
235
330
1F
100
AcDbEntity
  8
957_957
370
     0
100
AcDbLine
 10
748255.279
 20
4188634.231
 30
959.5800170898438
 11
748253.629
 21
4188634.681
 31
959.85400390625
  0
LINE
  5
236
330
1F
100
AcDbEntity
  8
957_957
370
     0
100
AcDbLine
 10
748253.629
 20
4188634.681
 30
959.85400390625
 11
748251.804
 21
4188634.888
 31
960.1680297851562
  0
LINE
  5
237
330
1F
100
AcDbEntity
  8
957_957
370
     0
100
AcDbLine
 10
748251.804
 20
4188634.888
 30
960.1680297851562
 11
748250.187
 21
4188635.541
 31
960.6090087890625
  0
LINE
  5
238
330
1F
100
AcDbEntity
  8
957_957
370
     0
100
AcDbLine
 10
748250.187
 20
4188635.541
 30
960.6090087890625
 11
748248.957
 21
4188635.965
 31
960.864013671875
  0
LINE
  5
239
330
1F
100
AcDbEntity
  8
957_957
370
     0
100
AcDbLine
 10
748248.957
 20
4188635.965
 30
960.864013671875
 11
748248.507
 21
4188634.617
 31
960.6400146484375
  0
LINE
  5
23A
330
1F
100
AcDbEntity
  8
957_957
370
     0
100
AcDbLine
 10
748248.507
 20
4188634.617
 30
960.6400146484375
 11
748248.432
 21
4188633.355
 31
960.3729858398438
  0
LINE
  5
23B
330
1F
100
AcDbEntity
  8
957_957
370
     0
100
AcDbLine
 10
748248.432
 20
4188633.355
 30
960.3729858398438
 11
748250.985
 21
4188632.806
 31
959.9080200195312
  0
LINE
  5
23C
330
1F
100
AcDbEntity
  8
957_957
370
     0
100
AcDbLine
 10
748250.985
 20
4188632.806
 30
959.9080200195312
 11
748252.926
 21
4188632.361
 31
959.468994140625
  0
LINE
  5
23D
330
1F
100
AcDbEntity
  8
957_957
370
     0
100
AcDbLine
 10
748252.926
 20
4188632.361
 30
959.468994140625
 11
748254.537
 21
4188631.793
 31
959.2329711914062
  0
LINE
  5
23E
330
1F
100
AcDbEntity
  8
957_957
370
     0
100
AcDbLine
 10
748254.537
 20
4188631.793
 30
959.2329711914062
 11
748255.665
 21
4188631.239
 31
959.239013671875
  0
LINE
  5
23F
330
1F
100
AcDbEntity
  8
957_957
370
     0
100
AcDbLine
 10
748255.665
 20
4188631.239
 30
959.239013671875
 11
748256.936
 21
4188630.385
 31
959.2150268554688
  0
LINE
  5
240
330
1F
100
AcDbEntity
  8
957_957
370
     0
100
AcDbLine
 10
748256.936
 20
4188630.385
 30
959.2150268554688
 11
748258.389
 21
4188629.852
 31
959.1090087890625
  0
LINE
  5
241
330
1F
100
AcDbEntity
  8
957_957
370
     0
100
AcDbLine
 10
748279.526
 20
4188531.603
 30
958.1599731445312
 11
748279.162
 21
4188531.518
 31
958.7509765625
  0
LINE
  5
242
330
1F
100
AcDbEntity
  8
957_957
370
     0
100
AcDbLine
 10
748279.162
 20
4188531.518
 30
958.7509765625
 11
748278.603
 21
4188531.634
 31
958.822998046875
  0
LINE
  5
243
330
1F
100
AcDbEntity
  8
957_957
370
     0
100
AcDbLine
 10
748278.603
 20
4188531.634
 30
958.822998046875
 11
748277.315
 21
4188532.008
 31
958.7630004882812
  0
LINE
  5
244
330
1F
100
AcDbEntity
  8
957_957
370
     0
100
AcDbLine
 10
748277.315
 20
4188532.008
 30
958.7630004882812
 11
748276.218
 21
4188532.306
 31
958.9429931640625
  0
LINE
  5
245
330
1F
100
AcDbEntity
  8
957_957
370
     0
100
AcDbLine
 10
748276.218
 20
4188532.306
 30
958.9429931640625
 11
748275.146
 21
4188532.306
 31
959.2329711914062
  0
LINE
  5
246
330
1F
100
AcDbEntity
  8
957_957
370
     0
100
AcDbLine
 10
748275.146
 20
4188532.306
 30
959.2329711914062
 11
748274.244
 21
4188533.066
 31
959.8740234375
  0
LINE
  5
247
330
1F
100
AcDbEntity
  8
957_957
370
     0
100
AcDbLine
 10
748274.244
 20
4188533.066
 30
959.8740234375
 11
748273.097
 21
4188534.188
 31
961.4650268554688
  0
LINE
  5
248
330
1F
100
AcDbEntity
  8
957_957
370
     0
100
AcDbLine
 10
748273.097
 20
4188534.188
 30
961.4650268554688
 11
748271.692
 21
4188535.268
 31
962.677978515625
  0
LINE
  5
249
330
1F
100
AcDbEntity
  8
957_957
370
     0
100
AcDbLine
 10
748271.692
 20
4188535.268
 30
962.677978515625
 11
748270.815
 21
4188534.055
 31
962.3410034179688
  0
LINE
  5
24A
330
1F
100
AcDbEntity
  8
957_957
370
     0
100
AcDbLine
 10
748270.815
 20
4188534.055
 30
962.3410034179688
 11
748269.732
 21
4188532.548
 31
962.6409912109375
  0
LINE
  5
24B
330
1F
100
AcDbEntity
  8
957_957
370
     0
100
AcDbLine
 10
748269.732
 20
4188532.548
 30
962.6409912109375
 11
748271.477
 21
4188531.854
 31
961.385986328125
  0
LINE
  5
24C
330
1F
100
AcDbEntity
  8
957_957
370
     0
100
AcDbLine
 10
748271.477
 20
4188531.854
 30
961.385986328125
 11
748272.554
 21
4188531.396
 31
960.4390258789062
  0
LINE
  5
24D
330
1F
100
AcDbEntity
  8
957_957
370
     0
100
AcDbLine
 10
748272.554
 20
4188531.396
 30
960.4390258789062
 11
748273.437
 21
4188530.557
 31
959.60498046875
  0
LINE
  5
24E
330
1F
100
AcDbEntity
  8
957_957
370
     0
100
AcDbLine
 10
748273.437
 20
4188530.557
 30
959.60498046875
 11
748274.918
 21
4188530.492
 31
959.1530151367188
  0
LINE
  5
24F
330
1F
100
AcDbEntity
  8
957_957
370
     0
100
AcDbLine
 10
748274.918
 20
4188530.492
 30
959.1530151367188
 11
748275.931
 21
4188530.162
 31
958.9669799804688
  0
LINE
  5
250
330
1F
100
AcDbEntity
  8
957_957
370
     0
100
AcDbLine
 10
748275.931
 20
4188530.162
 30
958.9669799804688
 11
748277.015
 21
4188530.362
 31
958.8989868164062
  0
LINE
  5
251
330
1F
100
AcDbEntity
  8
957_957
370
     0
100
AcDbLine
 10
748277.015
 20
4188530.362
 30
958.8989868164062
 11
748278.141
 21
4188529.938
 31
958.7249755859375
  0
LINE
  5
252
330
1F
100
AcDbEntity
  8
957_957
370
     0
100
AcDbLine
 10
748278.141
 20
4188529.938
 30
958.7249755859375
 11
748279.526
 21
4188530.014
 31
958.4829711914062
  0
LINE
  5
253
330
1F
100
AcDbEntity
  8
957_957
370
     0
100
AcDbLine
 10
748279.526
 20
4188530.014
 30
958.4829711914062
 11
748280.448
 21
4188529.794
 31
958.3900146484375
  0
LINE
  5
254
330
1F
100
AcDbEntity
  8
957_957
370
     0
100
AcDbLine
 10
748280.448
 20
4188529.794
 30
958.3900146484375
 11
748281.232
 21
4188529.699
 31
958.0289916992188
  0
LINE
  5
255
330
1F
100
AcDbEntity
  8
957_957
370
     0
100
AcDbLine
 10
748281.232
 20
4188529.699
 30
958.0289916992188
 11
748281.8
 21
4188529.804
 31
958.2960205078125
  0
LINE
  5
256
330
1F
100
AcDbEntity
  8
957_957
370
     0
100
AcDbLine
 10
748281.8
 20
4188529.804
 30
958.2960205078125
 11
748282.809
 21
4188530.055
 31
958.8629760742188
  0
LINE
  5
257
330
1F
100
AcDbEntity
  8
957_957
370
     0
100
AcDbLine
 10
748282.809
 20
4188530.055
 30
958.8629760742188
 11
748285.818
 21
4188529.963
 31
958.844970703125
  0
LINE
  5
258
330
1F
100
AcDbEntity
  8
957_957
370
     0
100
AcDbLine
 10
748285.818
 20
4188529.963
 30
958.844970703125
 11
748285.711
 21
4188530.686
 31
958.8900146484375
  0
LINE
  5
259
330
1F
100
AcDbEntity
  8
957_957
370
     0
100
AcDbLine
 10
748285.711
 20
4188530.686
 30
958.8900146484375
 11
748284.778
 21
4188531.72
 31
958.9840087890625
  0
LINE
  5
25A
330
1F
100
AcDbEntity
  8
957_957
370
     0
100
AcDbLine
 10
748284.778
 20
4188531.72
 30
958.9840087890625
 11
748281.756
 21
4188531.675
 31
958.583984375
  0
LINE
  5
25B
330
1F
100
AcDbEntity
  8
957_957
370
     0
100
AcDbLine
 10
748281.756
 20
4188531.675
 30
958.583984375
 11
748279.635
 21
4188531.537
 31
958.7349853515625
  0
LINE
  5
25C
330
1F
100
AcDbEntity
  8
957_957
370
     0
100
AcDbLine
 10
748279.635
 20
4188531.537
 30
958.7349853515625
 11
748279.162
 21
4188531.518
 31
958.7509765625
  0
LINE
  5
261
330
1F
100
AcDbEntity
  8
957_957
370
     0
100
AcDbLine
 10
748258.244
 20
4188584.611
 30
958.22998046875
 11
748259.541
 21
4188581.993
 31
957.7839965820312
  0
LINE
  5
262
330
1F
100
AcDbEntity
  8
957_957
370
     0
100
AcDbLine
 10
748259.541
 20
4188581.993
 30
957.7839965820312
 11
748259.923
 21
4188581.051
 31
957.6199951171875
  0
LINE
  5
263
330
1F
100
AcDbEntity
  8
957_957
370
     0
100
AcDbLine
 10
748259.923
 20
4188581.051
 30
957.6199951171875
 11
748259.515
 21
4188580.216
 31
957.8090209960938
  0
LINE
  5
264
330
1F
100
AcDbEntity
  8
957_957
370
     0
100
AcDbLine
 10
748259.515
 20
4188580.216
 30
957.8090209960938
 11
748258.488
 21
4188579.066
 31
957.85302734375
  0
LINE
  5
265
330
1F
100
AcDbEntity
  8
957_957
370
     0
100
AcDbLine
 10
748258.488
 20
4188579.066
 30
957.85302734375
 11
748257.354
 21
4188577.593
 31
957.8820190429688
  0
LINE
  5
266
330
1F
100
AcDbEntity
  8
957_957
370
     0
100
AcDbLine
 10
748257.354
 20
4188577.593
 30
957.8820190429688
 11
748255.591
 21
4188575.546
 31
958.1389770507812
  0
LINE
  5
267
330
1F
100
AcDbEntity
  8
957_957
370
     0
100
AcDbLine
 10
748255.591
 20
4188575.546
 30
958.1389770507812
 11
748253.5
 21
4188573.947
 31
958.3309936523438
  0
LINE
  5
268
330
1F
100
AcDbEntity
  8
957_957
370
     0
100
AcDbLine
 10
748253.5
 20
4188573.947
 30
958.3309936523438
 11
748253.584
 21
4188572.847
 31
958.3610229492188
  0
LINE
  5
269
330
1F
100
AcDbEntity
  8
957_957
370
     0
100
AcDbLine
 10
748253.584
 20
4188572.847
 30
958.3610229492188
 11
748254.532
 21
4188572.245
 31
958.3250122070312
  0
LINE
  5
26A
330
1F
100
AcDbEntity
  8
957_957
370
     0
100
AcDbLine
 10
748254.532
 20
4188572.245
 30
958.3250122070312
 11
748255.519
 21
4188573.103
 31
958.1489868164062
  0
LINE
  5
26B
330
1F
100
AcDbEntity
  8
957_957
370
     0
100
AcDbLine
 10
748255.519
 20
4188573.103
 30
958.1489868164062
 11
748257.738
 21
4188574.748
 31
958.052978515625
  0
LINE
  5
26C
330
1F
100
AcDbEntity
  8
957_957
370
     0
100
AcDbLine
 10
748257.738
 20
4188574.748
 30
958.052978515625
 11
748259.45
 21
4188577.075
 31
957.7949829101562
  0
LINE
  5
26D
330
1F
100
AcDbEntity
  8
957_957
370
     0
100
AcDbLine
 10
748259.45
 20
4188577.075
 30
957.7949829101562
 11
748260.851
 21
4188578.775
 31
957.6829833984375
  0
LINE
  5
26E
330
1F
100
AcDbEntity
  8
957_957
370
     0
100
AcDbLine
 10
748260.851
 20
4188578.775
 30
957.6829833984375
 11
748262.03
 21
4188578.155
 31
957.593017578125
  0
LINE
  5
26F
330
1F
100
AcDbEntity
  8
957_957
370
     0
100
AcDbLine
 10
748262.03
 20
4188578.155
 30
957.593017578125
 11
748264.666
 21
4188574.687
 31
957.4920043945312
  0
LINE
  5
270
330
1F
100
AcDbEntity
  8
957_957
370
     0
100
AcDbLine
 10
748265.85
 20
4188572.633
 30
957.3480224609375
 11
748265.72
 21
4188572.724
 31
957.197021484375
  0
LINE
  5
271
330
1F
100
AcDbEntity
  8
957_957
370
     0
100
AcDbLine
 10
748265.72
 20
4188572.724
 30
957.197021484375
 11
748264.242
 21
4188572.4
 31
957.5490112304688
  0
LINE
  5
272
330
1F
100
AcDbEntity
  8
957_957
370
     0
100
AcDbLine
 10
748264.242
 20
4188572.4
 30
957.5490112304688
 11
748264.131
 21
4188572.44
 31
958.4550170898438
  0
LINE
  5
273
330
1F
100
AcDbEntity
  8
957_957
370
     0
100
AcDbLine
 10
748264.131
 20
4188572.44
 30
958.4550170898438
 11
748263.6
 21
4188572.643
 31
960.2969970703125
  0
LINE
  5
274
330
1F
100
AcDbEntity
  8
957_957
370
     0
100
AcDbLine
 10
748263.6
 20
4188572.643
 30
960.2969970703125
 11
748262.507
 21
4188573.24
 31
962.344970703125
  0
LINE
  5
275
330
1F
100
AcDbEntity
  8
957_957
370
     0
100
AcDbLine
 10
748262.507
 20
4188573.24
 30
962.344970703125
 11
748260.724
 21
4188574.179
 31
964.8720092773438
  0
LINE
  5
276
330
1F
100
AcDbEntity
  8
957_957
370
     0
100
AcDbLine
 10
748260.724
 20
4188574.179
 30
964.8720092773438
 11
748260.7
 21
4188572.839
 31
964.4949951171875
  0
LINE
  5
277
330
1F
100
AcDbEntity
  8
957_957
370
     0
100
AcDbLine
 10
748260.7
 20
4188572.839
 30
964.4949951171875
 11
748261.611
 21
4188571.873
 31
962.4429931640625
  0
LINE
  5
278
330
1F
100
AcDbEntity
  8
957_957
370
     0
100
AcDbLine
 10
748261.611
 20
4188571.873
 30
962.4429931640625
 11
748262.672
 21
4188571.689
 31
960.9010009765625
  0
LINE
  5
279
330
1F
100
AcDbEntity
  8
957_957
370
     0
100
AcDbLine
 10
748262.672
 20
4188571.689
 30
960.9010009765625
 11
748264.161
 21
4188571.395
 31
957.5830078125
  0
LINE
  5
27A
330
1F
100
AcDbEntity
  8
957_957
370
     0
100
AcDbLine
 10
748264.161
 20
4188571.395
 30
957.5830078125
 11
748266.358
 21
4188570.557
 31
957.0079956054688
  0
LINE
  5
27B
330
1F
100
AcDbEntity
  8
957_957
370
     0
100
AcDbLine
 10
748266.358
 20
4188570.557
 30
957.0079956054688
 11
748267.197
 21
4188569.793
 31
956.8839721679688
  0
LINE
  5
27C
330
1F
100
AcDbEntity
  8
957_957
370
     0
100
AcDbLine
 10
748270.225
 20
4188569.547
 30
957.041015625
 11
748272.208
 21
4188569.619
 31
957.10498046875
  0
LINE
  5
27D
330
1F
100
AcDbEntity
  8
957_957
370
     0
100
AcDbLine
 10
748272.208
 20
4188569.619
 30
957.10498046875
 11
748274.129
 21
4188569.547
 31
957.3519897460938
  0
LINE
  5
27E
330
1F
100
AcDbEntity
  8
957_957
370
     0
100
AcDbLine
 10
748274.129
 20
4188569.547
 30
957.3519897460938
 11
748274.64
 21
4188567.925
 31
957.5289916992188
  0
LINE
  5
27F
330
1F
100
AcDbEntity
  8
957_957
370
     0
100
AcDbLine
 10
748274.64
 20
4188567.925
 30
957.5289916992188
 11
748275.469
 21
4188566.771
 31
957.4769897460938
  0
LINE
  5
280
330
1F
100
AcDbEntity
  8
957_957
370
     0
100
AcDbLine
 10
748275.469
 20
4188566.771
 30
957.4769897460938
 11
748277.692
 21
4188564.762
 31
957.5059814453125
  0
LINE
  5
281
330
1F
100
AcDbEntity
  8
957_957
370
     0
100
AcDbLine
 10
748277.692
 20
4188564.762
 30
957.5059814453125
 11
748278.789
 21
4188563.841
 31
957.5070190429688
  0
LINE
  5
282
330
1F
100
AcDbEntity
  8
957_957
370
     0
100
AcDbLine
 10
748278.789
 20
4188563.841
 30
957.5070190429688
 11
748279.115
 21
4188563.22
 31
957.5070190429688
  0
LINE
  5
283
330
1F
100
AcDbEntity
  8
957_957
370
     0
100
AcDbLine
 10
748279.115
 20
4188563.22
 30
957.5070190429688
 11
748279.912
 21
4188563.82
 31
957.5070190429688
  0
LINE
  5
284
330
1F
100
AcDbEntity
  8
957_957
370
     0
100
AcDbLine
 10
748279.912
 20
4188563.82
 30
957.5070190429688
 11
748280.493
 21
4188564.36
 31
957.5070190429688
  0
LINE
  5
285
330
1F
100
AcDbEntity
  8
957_957
370
     0
100
AcDbLine
 10
748280.493
 20
4188564.36
 30
957.5070190429688
 11
748279.695
 21
4188565.309
 31
957.5070190429688
  0
LINE
  5
286
330
1F
100
AcDbEntity
  8
957_957
370
     0
100
AcDbLine
 10
748279.695
 20
4188565.309
 30
957.5070190429688
 11
748277.883
 21
4188567.42
 31
957.3109741210938
  0
LINE
  5
287
330
1F
100
AcDbEntity
  8
957_957
370
     0
100
AcDbLine
 10
748277.883
 20
4188567.42
 30
957.3109741210938
 11
748277.285
 21
4188568.461
 31
957.3839721679688
  0
LINE
  5
288
330
1F
100
AcDbEntity
  8
957_957
370
     0
100
AcDbLine
 10
748277.285
 20
4188568.461
 30
957.3839721679688
 11
748278.546
 21
4188568.05
 31
957.64599609375
  0
LINE
  5
289
330
1F
100
AcDbEntity
  8
957_957
370
     0
100
AcDbLine
 10
748278.546
 20
4188568.05
 30
957.64599609375
 11
748279.926
 21
4188567.296
 31
957.6580200195312
  0
LINE
  5
28A
330
1F
100
AcDbEntity
  8
957_957
370
     0
100
AcDbLine
 10
748277.603
 20
4188570.839
 30
957.4630126953125
 11
748276.545
 21
4188571.346
 31
957.593017578125
  0
LINE
  5
28B
330
1F
100
AcDbEntity
  8
957_957
370
     0
100
AcDbLine
 10
748276.545
 20
4188571.346
 30
957.593017578125
 11
748275.105
 21
4188571.578
 31
957.4829711914062
  0
LINE
  5
28C
330
1F
100
AcDbEntity
  8
957_957
370
     0
100
AcDbLine
 10
748275.105
 20
4188571.578
 30
957.4829711914062
 11
748274.139
 21
4188571.743
 31
957.406982421875
  0
LINE
  5
28D
330
1F
100
AcDbEntity
  8
957_957
370
     0
100
AcDbLine
 10
748274.139
 20
4188571.743
 30
957.406982421875
 11
748272.002
 21
4188571.962
 31
957.1920166015625
  0
LINE
  5
28E
330
1F
100
AcDbEntity
  8
957_957
370
     0
100
AcDbLine
 10
748272.002
 20
4188571.962
 30
957.1920166015625
 11
748269.618
 21
4188572.471
 31
957.1019897460938
  0
LINE
  5
28F
330
1F
100
AcDbEntity
  8
957_957
370
     0
100
AcDbLine
 10
748269.618
 20
4188572.471
 30
957.1019897460938
 11
748269.159
 21
4188572.359
 31
957.176025390625
  0
LINE
  5
290
330
1F
100
AcDbEntity
  8
957_957
370
     0
100
AcDbLine
 10
748262.132
 20
4188631.546
 30
959.0700073242188
 11
748258.368
 21
4188632.501
 31
959.2559814453125
  0
LINE
  5
291
330
1F
100
AcDbEntity
  8
957_957
370
     0
100
AcDbLine
 10
748258.389
 20
4188629.852
 30
959.1090087890625
 11
748260.252
 21
4188629.439
 31
959.10400390625
  0
POINT
  5
2F3
330
1F
100
AcDbEntity
  8
INIT_COORD
100
AcDbPoint
 10
748323.935
 20
4188699.2445
 30
956.2554931640625
  0
LINE
  5
2FA
330
1F
100
AcDbEntity
  8
957_957
100
AcDbLine
 10
748327.3491097307
 20
4188702.479574438
 30
956.1390873820637
 11
748327.3491097307
 21
4188700.315901169
 31
956.1390873820637
  0
LINE
  5
2FB
330
1F
100
AcDbEntity
  8
957_957
100
AcDbLine
 10
748327.3491097307
 20
4188700.315901169
 30
956.1390873820637
 11
748330.7141160998
 21
4188700.315901169
 31
956.1390873820637
  0
LINE
  5
2FC
330
1F
100
AcDbEntity
  8
957_957
100
AcDbLine
 10
748330.7141160998
 20
4188700.315901169
 30
956.1390873820637
 11
748330.7141160998
 21
4188702.479574438
 31
956.1390873820637
  0
LINE
  5
2FD
330
1F
100
AcDbEntity
  8
957_957
100
AcDbLine
 10
748330.7141160998
 20
4188702.479574438
 30
956.1390873820637
 11
748327.3491097307
 21
4188702.479574438
 31
956.1390873820637
  0
MTEXT
  5
2FE
330
1F
100
AcDbEntity
  8
957_957
100
AcDbMText
 10
748327.2163661789
 20
4188703.469212874
 30
956.1390873822384
 40
0.5
 41
5.93867127224803
 46
1.566913231275976
 71
     1
 72
     5
  1
{Sarj Istasyonu}
 73
     1
 44
1.0
1001
ACAD
1000
ACAD_MTEXT_DEFINED_HEIGHT_BEGIN
1070
    46
1040
1.566913231275976
1000
ACAD_MTEXT_DEFINED_HEIGHT_END
  0
LWPOLYLINE
  5
30F
330
1F
100
AcDbEntity
  8
957_957
370
     0
100
AcDbPolyline
 90
        2
 70
     0
 43
0.0
 38
-3251581.483188764
 10
2744524.710647607
 20
956.234008789063
 10
2744519.06897835
 20
956.4140014648442
210
0.5005610700712373
220
-0.8657012274041995
230
0.0
  0
ENDSEC
  0
SECTION
  2
OBJECTS
  0
DICTIONARY
  5
C
330
0
100
AcDbDictionary
281
     1
  3
ACAD_DETAILVIEWSTYLE
350
2E9
  3
ACAD_GROUP
350
D
  3
ACAD_LAYOUT
350
1A
  3
ACAD_MATERIAL
350
3B
  3
ACAD_MLEADERSTYLE
350
2B3
  3
ACAD_MLINESTYLE
350
17
  3
ACAD_PLOTSETTINGS
350
19
  3
ACAD_PLOTSTYLENAME
350
E
  3
ACAD_SCALELIST
350
2B4
  3
ACAD_SECTIONVIEWSTYLE
350
2EA
  3
ACAD_TABLESTYLE
350
2B2
  3
ACAD_VISUALSTYLE
350
2A
  3
ACDB_RECOMPOSE_DATA
350
421
  3
AcDbVariableDictionary
350
2E4
  3
APPDATA
350
2E2
  0
SUN
  5
2E3
330
29
100
AcDbSun
 90
        1
290
     0
 63
     7
421
 16777215
 40
1.0
291
     1
 91
  2455826
 92
 54000000
292
     0
 70
     2
 71
   256
280
     1
  0
DICTIONARY
  5
2EB
330
2
100
AcDbDictionary
280
     1
281
     1
  3
ACAD_LAYERSTATES
360
2EC
  3
ACLYDICTIONARY
360
41E
  0
DICTIONARY
  5
2E9
102
{ACAD_REACTORS
330
C
102
}
330
C
100
AcDbDictionary
281
     1
  0
DICTIONARY
  5
D
102
{ACAD_REACTORS
330
C
102
}
330
C
100
AcDbDictionary
281
     1
  0
DICTIONARY
  5
1A
102
{ACAD_REACTORS
330
C
102
}
330
C
100
AcDbDictionary
281
     1
  3
Layout1
350
1E
  3
Layout2
350
26
  3
Model
350
22
  0
DICTIONARY
  5
3B
102
{ACAD_REACTORS
330
C
102
}
330
C
100
AcDbDictionary
281
     1
  3
ByBlock
350
3D
  3
ByLayer
350
3C
  3
Global
350
3E
  0
DICTIONARY
  5
2B3
102
{ACAD_REACTORS
330
C
102
}
330
C
100
AcDbDictionary
281
     1
  3
Standard
350
2E1
  0
DICTIONARY
  5
17
102
{ACAD_REACTORS
330
C
102
}
330
C
100
AcDbDictionary
281
     1
  3
Standard
350
18
  0
DICTIONARY
  5
19
102
{ACAD_REACTORS
330
C
102
}
330
C
100
AcDbDictionary
281
     1
  0
ACDBDICTIONARYWDFLT
  5
E
102
{ACAD_REACTORS
330
C
102
}
330
C
100
AcDbDictionary
281
     1
  3
Normal
350
F
100
AcDbDictionaryWithDefault
340
F
  0
DICTIONARY
  5
2B4
102
{ACAD_REACTORS
330
C
102
}
330
C
100
AcDbDictionary
281
     1
  3
A0
350
2B5
  3
A1
350
2B6
  3
A2
350
2B7
  3
A3
350
2B8
  3
A4
350
2B9
  3
A5
350
2BA
  3
A6
350
2BB
  3
A7
350
2BC
  3
A8
350
2BD
  3
A9
350
2BE
  3
B0
350
2BF
  3
B1
350
2C0
  3
B2
350
2C1
  3
B3
350
2C2
  3
B4
350
2C3
  3
B5
350
2C4
  3
B6
350
2C5
  3
B7
350
2C6
  3
B8
350
2C7
  3
B9
350
2C8
  3
C0
350
2C9
  3
C1
350
2CA
  3
C2
350
2CB
  3
C3
350
2CC
  3
C4
350
2CD
  3
C5
350
2CE
  3
C6
350
2CF
  3
C7
350
2D0
  3
C8
350
2D1
  3
C9
350
2D2
  3
D0
350
2D3
  3
D1
350
2D4
  3
D2
350
2D5
  0
DICTIONARY
  5
2EA
102
{ACAD_REACTORS
330
C
102
}
330
C
100
AcDbDictionary
281
     1
  0
DICTIONARY
  5
2B2
102
{ACAD_REACTORS
330
C
102
}
330
C
100
AcDbDictionary
281
     1
  3
Standard
350
2E0
  0
DICTIONARY
  5
2A
102
{ACAD_REACTORS
330
C
102
}
330
C
100
AcDbDictionary
281
     1
  3
2dWireframe
350
2F
  3
3D Hidden
350
31
  3
3dWireframe
350
30
  3
Basic
350
32
  3
Brighten
350
36
  3
ColorChange
350
3A
  3
Conceptual
350
34
  3
Dim
350
35
  3
EdgeColorOff
350
2DA
  3
Facepattern
350
39
  3
Flat
350
2B
  3
FlatWithEdges
350
2C
  3
Gouraud
350
2D
  3
GouraudWithEdges
350
2E
  3
Hidden
350
2D7
  3
JitterOff
350
2D8
  3
Linepattern
350
38
  3
OverhangOff
350
2D9
  3
Realistic
350
33
  3
Shaded
350
2DF
  3
Shaded with edges
350
2DE
  3
Shades of Gray
350
2DB
  3
Sketchy
350
2DC
  3
Thicken
350
37
  3
Wireframe
350
2D6
  3
X-Ray
350
2DD
  0
XRECORD
  5
421
102
{ACAD_REACTORS
330
C
102
}
330
C
100
AcDbXrecord
280
     1
 90
        1
330
2E0
  0
DICTIONARY
  5
2E4
102
{ACAD_REACTORS
330
C
102
}
330
C
100
AcDbDictionary
281
     1
  3
CANNOSCALE
350
2E5
  3
CMLEADERSTYLE
350
2E7
  3
CTABLESTYLE
350
2E6
  3
XCLIPFRAME
350
2E8
  0
DICTIONARY
  5
2E2
102
{ACAD_REACTORS
330
C
102
}
330
C
100
AcDbDictionary
281
     1
  0
DICTIONARY
  5
2EC
102
{ACAD_REACTORS
330
2EB
102
}
330
2EB
100
AcDbDictionary
281
     1
  0
DICTIONARY
  5
41E
102
{ACAD_REACTORS
330
2EB
102
}
330
2EB
100
AcDbDictionary
281
     1
1001
ACAD
1000
<All
  0
LAYOUT
  5
1E
102
{ACAD_REACTORS
330
1A
102
}
330
1A
100
AcDbPlotSettings
  1

  2
none_device
  4

  6

 40
0.0
 41
0.0
 42
0.0
 43
0.0
 44
0.0
 45
0.0
 46
0.0
 47
0.0
 48
0.0
 49
0.0
140
0.0
141
0.0
142
1.0
143
1.0
 70
   688
 72
     0
 73
     0
 74
     5
  7

 75
    16
 76
     0
 77
     2
 78
   300
147
1.0
148
0.0
149
0.0
100
AcDbLayout
  1
Layout1
 70
     1
 71
     1
 10
0.0
 20
0.0
 11
420.0
 21
297.0
 12
0.0
 22
0.0
 32
0.0
 14
1.000000000000000E+20
 24
1.000000000000000E+20
 34
1.000000000000000E+20
 15
-1.000000000000000E+20
 25
-1.000000000000000E+20
 35
-1.000000000000000E+20
146
0.0
 13
0.0
 23
0.0
 33
0.0
 16
1.0
 26
0.0
 36
0.0
 17
0.0
 27
1.0
 37
0.0
 76
     0
330
1B
  0
LAYOUT
  5
26
102
{ACAD_REACTORS
330
1A
102
}
330
1A
100
AcDbPlotSettings
  1

  2
none_device
  4

  6

 40
0.0
 41
0.0
 42
0.0
 43
0.0
 44
0.0
 45
0.0
 46
0.0
 47
0.0
 48
0.0
 49
0.0
140
0.0
141
0.0
142
1.0
143
1.0
 70
   688
 72
     0
 73
     0
 74
     5
  7

 75
    16
 76
     0
 77
     2
 78
   300
147
1.0
148
0.0
149
0.0
100
AcDbLayout
  1
Layout2
 70
     1
 71
     2
 10
0.0
 20
0.0
 11
0.0
 21
0.0
 12
0.0
 22
0.0
 32
0.0
 14
0.0
 24
0.0
 34
0.0
 15
0.0
 25
0.0
 35
0.0
146
0.0
 13
0.0
 23
0.0
 33
0.0
 16
1.0
 26
0.0
 36
0.0
 17
0.0
 27
1.0
 37
0.0
 76
     0
330
23
  0
LAYOUT
  5
22
102
{ACAD_REACTORS
330
1A
102
}
330
1A
100
AcDbPlotSettings
  1

  2
none_device
  4

  6

 40
0.0
 41
0.0
 42
0.0
 43
0.0
 44
0.0
 45
0.0
 46
0.0
 47
0.0
 48
0.0
 49
0.0
140
0.0
141
0.0
142
1.0
143
1.0
 70
  1712
 72
     0
 73
     0
 74
     0
  7

 75
     0
 76
     0
 77
     2
 78
   300
147
1.0
148
0.0
149
0.0
100
AcDbLayout
  1
Model
 70
     1
 71
     0
 10
0.0
 20
0.0
 11
420.0
 21
297.0
 12
0.0
 22
0.0
 32
0.0
 14
748204.3717641
 24
4188451.066
 34
950.1199951171875
 15
748380.344
 25
4188703.469212874
 35
964.8720092773438
146
0.0
 13
0.0
 23
0.0
 33
0.0
 16
1.0
 26
0.0
 36
0.0
 17
0.0
 27
1.0
 37
0.0
 76
     0
330
1F
331
29
  0
MATERIAL
  5
3D
102
{ACAD_REACTORS
330
3B
102
}
330
3B
100
AcDbMaterial
  1
ByBlock
 72
     1
 94
      127
  0
MATERIAL
  5
3C
102
{ACAD_REACTORS
330
3B
102
}
330
3B
100
AcDbMaterial
  1
ByLayer
 72
     1
 94
      127
  0
MATERIAL
  5
3E
102
{ACAD_REACTORS
330
3B
102
}
330
3B
100
AcDbMaterial
  1
Global
 72
     1
 94
      127
  0
MLEADERSTYLE
  5
2E1
102
{ACAD_REACTORS
330
2B3
102
}
330
2B3
100
AcDbMLeaderStyle
179
     2
170
     2
171
     1
172
     0
 90
        2
 40
0.0
 41
0.0
173
     1
 91
-1056964608
340
14
 92
       -2
290
     1
 42
2.0
291
     1
 43
8.0
  3
Standard
341
0
 44
4.0
300

342
11
174
     1
178
     1
175
     1
176
     0
 93
-1056964608
 45
4.0
292
     0
297
     0
 46
4.0
343
0
 94
-1056964608
 47
1.0
 49
1.0
140
1.0
293
     1
141
0.0
294
     1
177
     0
142
1.0
295
     0
296
     0
143
3.75
271
     0
272
     9
273
     9
  0
MLINESTYLE
  5
18
102
{ACAD_REACTORS
330
17
102
}
330
17
100
AcDbMlineStyle
  2
Standard
 70
     0
  3

 62
   256
 51
90.0
 52
90.0
 71
     2
 49
0.5
 62
   256
  6
BYLAYER
 49
-0.5
 62
   256
  6
BYLAYER
  0
ACDBPLACEHOLDER
  5
F
102
{ACAD_REACTORS
330
E
102
}
330
E
  0
SCALE
  5
2B5
102
{ACAD_REACTORS
330
2B4
102
}
330
2B4
100
AcDbScale
 70
     0
300
1:1
140
1.0
141
1.0
290
     1
  0
SCALE
  5
2B6
102
{ACAD_REACTORS
330
2B4
102
}
330
2B4
100
AcDbScale
 70
     0
300
1:2
140
1.0
141
2.0
290
     0
  0
SCALE
  5
2B7
102
{ACAD_REACTORS
330
2B4
102
}
330
2B4
100
AcDbScale
 70
     0
300
1:4
140
1.0
141
4.0
290
     0
  0
SCALE
  5
2B8
102
{ACAD_REACTORS
330
2B4
102
}
330
2B4
100
AcDbScale
 70
     0
300
1:5
140
1.0
141
5.0
290
     0
  0
SCALE
  5
2B9
102
{ACAD_REACTORS
330
2B4
102
}
330
2B4
100
AcDbScale
 70
     0
300
1:8
140
1.0
141
8.0
290
     0
  0
SCALE
  5
2BA
102
{ACAD_REACTORS
330
2B4
102
}
330
2B4
100
AcDbScale
 70
     0
300
1:10
140
1.0
141
10.0
290
     0
  0
SCALE
  5
2BB
102
{ACAD_REACTORS
330
2B4
102
}
330
2B4
100
AcDbScale
 70
     0
300
1:16
140
1.0
141
16.0
290
     0
  0
SCALE
  5
2BC
102
{ACAD_REACTORS
330
2B4
102
}
330
2B4
100
AcDbScale
 70
     0
300
1:20
140
1.0
141
20.0
290
     0
  0
SCALE
  5
2BD
102
{ACAD_REACTORS
330
2B4
102
}
330
2B4
100
AcDbScale
 70
     0
300
1:30
140
1.0
141
30.0
290
     0
  0
SCALE
  5
2BE
102
{ACAD_REACTORS
330
2B4
102
}
330
2B4
100
AcDbScale
 70
     0
300
1:40
140
1.0
141
40.0
290
     0
  0
SCALE
  5
2BF
102
{ACAD_REACTORS
330
2B4
102
}
330
2B4
100
AcDbScale
 70
     0
300
1:50
140
1.0
141
50.0
290
     0
  0
SCALE
  5
2C0
102
{ACAD_REACTORS
330
2B4
102
}
330
2B4
100
AcDbScale
 70
     0
300
1:100
140
1.0
141
100.0
290
     0
  0
SCALE
  5
2C1
102
{ACAD_REACTORS
330
2B4
102
}
330
2B4
100
AcDbScale
 70
     0
300
2:1
140
2.0
141
1.0
290
     0
  0
SCALE
  5
2C2
102
{ACAD_REACTORS
330
2B4
102
}
330
2B4
100
AcDbScale
 70
     0
300
4:1
140
4.0
141
1.0
290
     0
  0
SCALE
  5
2C3
102
{ACAD_REACTORS
330
2B4
102
}
330
2B4
100
AcDbScale
 70
     0
300
8:1
140
8.0
141
1.0
290
     0
  0
SCALE
  5
2C4
102
{ACAD_REACTORS
330
2B4
102
}
330
2B4
100
AcDbScale
 70
     0
300
10:1
140
10.0
141
1.0
290
     0
  0
SCALE
  5
2C5
102
{ACAD_REACTORS
330
2B4
102
}
330
2B4
100
AcDbScale
 70
     0
300
100:1
140
100.0
141
1.0
290
     0
  0
SCALE
  5
2C6
102
{ACAD_REACTORS
330
2B4
102
}
330
2B4
100
AcDbScale
 70
     0
300
1/128" = 1'-0"
140
0.0078125
141
12.0
290
     0
  0
SCALE
  5
2C7
102
{ACAD_REACTORS
330
2B4
102
}
330
2B4
100
AcDbScale
 70
     0
300
1/64" = 1'-0"
140
0.015625
141
12.0
290
     0
  0
SCALE
  5
2C8
102
{ACAD_REACTORS
330
2B4
102
}
330
2B4
100
AcDbScale
 70
     0
300
1/32" = 1'-0"
140
0.03125
141
12.0
290
     0
  0
SCALE
  5
2C9
102
{ACAD_REACTORS
330
2B4
102
}
330
2B4
100
AcDbScale
 70
     0
300
1/16" = 1'-0"
140
0.0625
141
12.0
290
     0
  0
SCALE
  5
2CA
102
{ACAD_REACTORS
330
2B4
102
}
330
2B4
100
AcDbScale
 70
     0
300
3/32" = 1'-0"
140
0.09375
141
12.0
290
     0
  0
SCALE
  5
2CB
102
{ACAD_REACTORS
330
2B4
102
}
330
2B4
100
AcDbScale
 70
     0
300
1/8" = 1'-0"
140
0.125
141
12.0
290
     0
  0
SCALE
  5
2CC
102
{ACAD_REACTORS
330
2B4
102
}
330
2B4
100
AcDbScale
 70
     0
300
3/16" = 1'-0"
140
0.1875
141
12.0
290
     0
  0
SCALE
  5
2CD
102
{ACAD_REACTORS
330
2B4
102
}
330
2B4
100
AcDbScale
 70
     0
300
1/4" = 1'-0"
140
0.25
141
12.0
290
     0
  0
SCALE
  5
2CE
102
{ACAD_REACTORS
330
2B4
102
}
330
2B4
100
AcDbScale
 70
     0
300
3/8" = 1'-0"
140
0.375
141
12.0
290
     0
  0
SCALE
  5
2CF
102
{ACAD_REACTORS
330
2B4
102
}
330
2B4
100
AcDbScale
 70
     0
300
1/2" = 1'-0"
140
0.5
141
12.0
290
     0
  0
SCALE
  5
2D0
102
{ACAD_REACTORS
330
2B4
102
}
330
2B4
100
AcDbScale
 70
     0
300
3/4" = 1'-0"
140
0.75
141
12.0
290
     0
  0
SCALE
  5
2D1
102
{ACAD_REACTORS
330
2B4
102
}
330
2B4
100
AcDbScale
 70
     0
300
1" = 1'-0"
140
1.0
141
12.0
290
     0
  0
SCALE
  5
2D2
102
{ACAD_REACTORS
330
2B4
102
}
330
2B4
100
AcDbScale
 70
     0
300
1-1/2" = 1'-0"
140
1.5
141
12.0
290
     0
  0
SCALE
  5
2D3
102
{ACAD_REACTORS
330
2B4
102
}
330
2B4
100
AcDbScale
 70
     0
300
3" = 1'-0"
140
3.0
141
12.0
290
     0
  0
SCALE
  5
2D4
102
{ACAD_REACTORS
330
2B4
102
}
330
2B4
100
AcDbScale
 70
     0
300
6" = 1'-0"
140
6.0
141
12.0
290
     0
  0
SCALE
  5
2D5
102
{ACAD_REACTORS
330
2B4
102
}
330
2B4
100
AcDbScale
 70
     0
300
1'-0" = 1'-0"
140
12.0
141
12.0
290
     0
  0
TABLESTYLE
  5
2E0
102
{ACAD_REACTORS
330
2B2
102
}
102
{ACAD_XDICTIONARY
360
41F
102
}
330
2B2
100
AcDbTableStyle
  3
Standard
 70
     0
 71
     0
 40
0.06
 41
0.06
280
     0
281
     0
  7
Standard
140
4.5
170
     2
 62
     0
 63
   257
283
     0
 90
        4
 91
        0
  1

274
    -2
284
     1
 64
     0
275
    -2
285
     1
 65
     0
276
    -2
286
     1
 66
     0
277
    -2
287
     1
 67
     0
278
    -2
288
     1
 68
     0
279
    -2
289
     1
 69
     0
  7
Standard
140
6.0
170
     5
 62
     0
 63
   257
283
     0
 90
        4
 91
        0
  1

274
    -2
284
     1
 64
     0
275
    -2
285
     1
 65
     0
276
    -2
286
     1
 66
     0
277
    -2
287
     1
 67
     0
278
    -2
288
     1
 68
     0
279
    -2
289
     1
 69
     0
  7
Standard
140
4.5
170
     5
 62
     0
 63
   257
283
     0
 90
        4
 91
        0
  1

274
    -2
284
     1
 64
     0
275
    -2
285
     1
 65
     0
276
    -2
286
     1
 66
     0
277
    -2
287
     1
 67
     0
278
    -2
288
     1
 68
     0
279
    -2
289
     1
 69
     0
  0
VISUALSTYLE
  5
2F
102
{ACAD_REACTORS
330
2A
102
}
330
2A
100
AcDbVisualStyle
  2
2dWireframe
 70
     4
177
     2
291
     0
 71
     0
176
     1
 72
     2
176
     1
 73
     0
176
     1
 90
        0
176
     1
 40
-0.6
176
     1
 41
-30.0
176
     1
 62
     5
 63
     7
421
 16777215
176
     1
 74
     1
176
     1
 91
        4
176
     1
 64
     7
176
     1
 65
   257
176
     1
 75
     1
176
     1
175
     1
176
     1
 42
1.0
176
     1
 92
        0
176
     1
 66
   257
176
     1
 43
1.0
176
     1
 76
     1
176
     1
 77
     6
176
     1
 78
     2
176
     1
 67
     7
176
     1
 79
     5
176
     1
170
     0
176
     1
171
     0
176
     1
290
     0
176
     1
 93
        1
176
     1
 44
0.0
176
     1
173
     0
176
     1
  0
VISUALSTYLE
  5
31
102
{ACAD_REACTORS
330
2A
102
}
330
2A
100
AcDbVisualStyle
  2
3D Hidden
 70
     6
177
     2
291
     0
 71
     1
176
     1
 72
     2
176
     1
 73
     2
176
     1
 90
        0
176
     1
 40
-0.6
176
     1
 41
-30.0
176
     1
 62
     5
 63
     7
421
 16777215
176
     1
 74
     2
176
     1
 91
        2
176
     1
 64
     7
176
     1
 65
   257
176
     1
 75
     2
176
     1
175
     1
176
     1
 42
40.0
176
     1
 92
        0
176
     1
 66
   257
176
     1
 43
1.0
176
     1
 76
     1
176
     1
 77
     6
176
     1
 78
     2
176
     1
 67
     7
176
     1
 79
     3
176
     1
170
     0
176
     1
171
     0
176
     1
290
     0
176
     1
 93
        1
176
     1
 44
0.0
176
     1
173
     0
176
     1
  0
VISUALSTYLE
  5
30
102
{ACAD_REACTORS
330
2A
102
}
330
2A
100
AcDbVisualStyle
  2
3dWireframe
 70
     5
177
     2
291
     0
 71
     0
176
     1
 72
     2
176
     1
 73
     0
176
     1
 90
        0
176
     1
 40
-0.6
176
     1
 41
-30.0
176
     1
 62
     5
 63
     7
421
 16777215
176
     1
 74
     1
176
     1
 91
        4
176
     1
 64
     7
176
     1
 65
   257
176
     1
 75
     1
176
     1
175
     1
176
     1
 42
1.0
176
     1
 92
        0
176
     1
 66
   257
176
     1
 43
1.0
176
     1
 76
     1
176
     1
 77
     6
176
     1
 78
     2
176
     1
 67
     7
176
     1
 79
     5
176
     1
170
     0
176
     1
171
     0
176
     1
290
     0
176
     1
 93
        1
176
     1
 44
0.0
176
     1
173
     0
176
     1
  0
VISUALSTYLE
  5
32
102
{ACAD_REACTORS
330
2A
102
}
330
2A
100
AcDbVisualStyle
  2
Basic
 70
     7
177
     2
291
     1
 71
     1
176
     1
 72
     0
176
     1
 73
     1
176
     1
 90
        0
176
     1
 40
-0.6
176
     1
 41
-30.0
176
     1
 62
     5
 63
     7
421
 16777215
176
     1
 74
     0
176
     1
 91
        4
176
     1
 64
     7
176
     1
 65
   257
176
     1
 75
     1
176
     1
175
     1
176
     1
 42
1.0
176
     1
 92
        8
176
     1
 66
     7
176
     1
 43
1.0
176
     1
 76
     1
176
     1
 77
     6
176
     1
 78
     2
176
     1
 67
     7
176
     1
 79
     5
176
     1
170
     0
176
     1
171
     0
176
     1
290
     0
176
     1
 93
        1
176
     1
 44
0.0
176
     1
173
     0
176
     1
  0
VISUALSTYLE
  5
36
102
{ACAD_REACTORS
330
2A
102
}
330
2A
100
AcDbVisualStyle
  2
Brighten
 70
    12
177
     2
291
     1
 71
     2
176
     1
 72
     2
176
     1
 73
     0
176
     1
 90
        0
176
     1
 40
-0.6
176
     1
 41
-30.0
176
     1
 62
     5
 63
     7
421
 16777215
176
     1
 74
     1
176
     1
 91
        4
176
     1
 64
     7
176
     1
 65
   257
176
     1
 75
     1
176
     1
175
     1
176
     1
 42
1.0
176
     1
 92
        8
176
     1
 66
     7
176
     1
 43
1.0
176
     1
 76
     1
176
     1
 77
     6
176
     1
 78
     2
176
     1
 67
     7
176
     1
 79
     5
176
     1
170
     0
176
     1
171
     0
176
     1
290
     0
176
     1
 93
        1
176
     1
 44
50.0
176
     1
173
     0
176
     1
  0
VISUALSTYLE
  5
3A
102
{ACAD_REACTORS
330
2A
102
}
330
2A
100
AcDbVisualStyle
  2
ColorChange
 70
    16
177
     2
291
     1
 71
     2
176
     1
 72
     2
176
     1
 73
     3
176
     1
 90
        0
176
     1
 40
-0.6
176
     1
 41
-30.0
176
     1
 62
     5
 63
     8
421
  8421504
176
     1
 74
     1
176
     1
 91
        4
176
     1
 64
     7
176
     1
 65
   257
176
     1
 75
     1
176
     1
175
     1
176
     1
 42
1.0
176
     1
 92
        8
176
     1
 66
     8
424
  8421504
176
     1
 43
1.0
176
     1
 76
     1
176
     1
 77
     6
176
     1
 78
     2
176
     1
 67
     7
176
     1
 79
     5
176
     1
170
     0
176
     1
171
     0
176
     1
290
     0
176
     1
 93
        1
176
     1
 44
0.0
176
     1
173
     0
176
     1
  0
VISUALSTYLE
  5
34
102
{ACAD_REACTORS
330
2A
102
}
330
2A
100
AcDbVisualStyle
  2
Conceptual
 70
     9
177
     2
291
     0
 71
     3
176
     1
 72
     2
176
     1
 73
     0
176
     1
 90
        0
176
     1
 40
-0.6
176
     1
 41
-30.0
176
     1
 62
     5
 63
     7
421
 16777215
176
     1
 74
     2
176
     1
 91
        2
176
     1
 64
     7
176
     1
 65
   257
176
     1
 75
     1
176
     1
175
     1
176
     1
 42
40.0
176
     1
 92
        8
176
     1
 66
     7
176
     1
 43
1.0
176
     1
 76
     1
176
     1
 77
     6
176
     1
 78
     2
176
     1
 67
     7
176
     1
 79
     3
176
     1
170
     0
176
     1
171
     0
176
     1
290
     0
176
     1
 93
        1
176
     1
 44
0.0
176
     1
173
     0
176
     1
  0
VISUALSTYLE
  5
35
102
{ACAD_REACTORS
330
2A
102
}
330
2A
100
AcDbVisualStyle
  2
Dim
 70
    11
177
     2
291
     1
 71
     2
176
     1
 72
     2
176
     1
 73
     0
176
     1
 90
        0
176
     1
 40
-0.6
176
     1
 41
-30.0
176
     1
 62
     5
 63
     7
421
 16777215
176
     1
 74
     1
176
     1
 91
        4
176
     1
 64
     7
176
     1
 65
   257
176
     1
 75
     1
176
     1
175
     1
176
     1
 42
1.0
176
     1
 92
        8
176
     1
 66
     7
176
     1
 43
1.0
176
     1
 76
     1
176
     1
 77
     6
176
     1
 78
     2
176
     1
 67
     7
176
     1
 79
     5
176
     1
170
     0
176
     1
171
     0
176
     1
290
     0
176
     1
 93
        1
176
     1
 44
-50.0
176
     1
173
     0
176
     1
  0
VISUALSTYLE
  5
2DA
102
{ACAD_REACTORS
330
2A
102
}
330
2A
100
AcDbVisualStyle
  2
EdgeColorOff
 70
    22
177
     2
291
     1
 71
     2
176
     0
 72
     2
176
     0
 73
     0
176
     0
 90
        0
176
     0
 40
0.6
176
     0
 41
30.0
176
     0
 62
     5
 63
     7
421
 16777215
176
     0
 74
     1
176
     0
 91
        4
176
     0
 64
     7
176
     0
 65
   257
176
     0
 75
     1
176
     0
175
     1
176
     0
 42
1.0
176
     0
 92
        8
176
     2
 66
     7
176
     0
 43
1.0
176
     0
 76
     1
176
     0
 77
     6
176
     0
 78
     2
176
     0
 67
     7
176
     0
 79
     5
176
     0
170
     0
176
     0
171
     0
176
     0
290
     0
176
     0
 93
        1
176
     0
 44
0.0
176
     0
173
     0
176
     0
  0
VISUALSTYLE
  5
39
102
{ACAD_REACTORS
330
2A
102
}
330
2A
100
AcDbVisualStyle
  2
Facepattern
 70
    15
177
     2
291
     1
 71
     2
176
     1
 72
     2
176
     1
 73
     0
176
     1
 90
        0
176
     1
 40
-0.6
176
     1
 41
-30.0
176
     1
 62
     5
 63
     7
421
 16777215
176
     1
 74
     1
176
     1
 91
        4
176
     1
 64
     7
176
     1
 65
   257
176
     1
 75
     1
176
     1
175
     1
176
     1
 42
1.0
176
     1
 92
        8
176
     1
 66
     7
176
     1
 43
1.0
176
     1
 76
     1
176
     1
 77
     6
176
     1
 78
     2
176
     1
 67
     7
176
     1
 79
     5
176
     1
170
     0
176
     1
171
     0
176
     1
290
     0
176
     1
 93
        1
176
     1
 44
0.0
176
     1
173
     0
176
     1
  0
VISUALSTYLE
  5
2B
102
{ACAD_REACTORS
330
2A
102
}
330
2A
100
AcDbVisualStyle
  2
Flat
 70
     0
177
     2
291
     1
 71
     2
176
     1
 72
     1
176
     1
 73
     1
176
     1
 90
        2
176
     1
 40
-0.6
176
     1
 41
30.0
176
     1
 62
     5
 63
     7
421
 16777215
176
     1
 74
     0
176
     1
 91
        4
176
     1
 64
     7
176
     1
 65
   257
176
     1
 75
     1
176
     1
175
     1
176
     1
 42
1.0
176
     1
 92
        8
176
     1
 66
     7
176
     1
 43
1.0
176
     1
 76
     1
176
     1
 77
     6
176
     1
 78
     2
176
     1
 67
     7
176
     1
 79
     5
176
     1
170
     0
176
     1
171
     0
176
     1
290
     0
176
     1
 93
       13
176
     1
 44
0.0
176
     1
173
     0
176
     1
  0
VISUALSTYLE
  5
2C
102
{ACAD_REACTORS
330
2A
102
}
330
2A
100
AcDbVisualStyle
  2
FlatWithEdges
 70
     1
177
     2
291
     1
 71
     2
176
     1
 72
     1
176
     1
 73
     1
176
     1
 90
        2
176
     1
 40
-0.6
176
     1
 41
30.0
176
     1
 62
     5
 63
     7
421
 16777215
176
     1
 74
     1
176
     1
 91
        4
176
     1
 64
     7
176
     1
 65
   257
176
     1
 75
     1
176
     1
175
     1
176
     1
 42
1.0
176
     1
 92
        0
176
     1
 66
   257
176
     1
 43
1.0
176
     1
 76
     1
176
     1
 77
     6
176
     1
 78
     2
176
     1
 67
     7
176
     1
 79
     5
176
     1
170
     0
176
     1
171
     0
176
     1
290
     0
176
     1
 93
       13
176
     1
 44
0.0
176
     1
173
     0
176
     1
  0
VISUALSTYLE
  5
2D
102
{ACAD_REACTORS
330
2A
102
}
330
2A
100
AcDbVisualStyle
  2
Gouraud
 70
     2
177
     2
291
     1
 71
     2
176
     1
 72
     2
176
     1
 73
     1
176
     1
 90
        2
176
     1
 40
-0.6
176
     1
 41
30.0
176
     1
 62
     5
 63
     7
421
 16777215
176
     1
 74
     0
176
     1
 91
        4
176
     1
 64
     7
176
     1
 65
   257
176
     1
 75
     1
176
     1
175
     1
176
     1
 42
1.0
176
     1
 92
        0
176
     1
 66
     7
176
     1
 43
1.0
176
     1
 76
     1
176
     1
 77
     6
176
     1
 78
     2
176
     1
 67
     7
176
     1
 79
     5
176
     1
170
     0
176
     1
171
     0
176
     1
290
     0
176
     1
 93
       13
176
     1
 44
0.0
176
     1
173
     0
176
     1
  0
VISUALSTYLE
  5
2E
102
{ACAD_REACTORS
330
2A
102
}
330
2A
100
AcDbVisualStyle
  2
GouraudWithEdges
 70
     3
177
     2
291
     1
 71
     2
176
     1
 72
     2
176
     1
 73
     1
176
     1
 90
        2
176
     1
 40
-0.6
176
     1
 41
30.0
176
     1
 62
     5
 63
     7
421
 16777215
176
     1
 74
     1
176
     1
 91
        4
176
     1
 64
     7
176
     1
 65
   257
176
     1
 75
     1
176
     1
175
     1
176
     1
 42
1.0
176
     1
 92
        0
176
     1
 66
   257
176
     1
 43
1.0
176
     1
 76
     1
176
     1
 77
     6
176
     1
 78
     2
176
     1
 67
     7
176
     1
 79
     5
176
     1
170
     0
176
     1
171
     0
176
     1
290
     0
176
     1
 93
       13
176
     1
 44
0.0
176
     1
173
     0
176
     1
  0
VISUALSTYLE
  5
2D7
102
{ACAD_REACTORS
330
2A
102
}
330
2A
100
AcDbVisualStyle
  2
Hidden
 70
     6
177
     2
291
     0
 71
     1
176
     1
 72
     2
176
     1
 73
     2
176
     1
 90
        0
176
     1
 40
0.6
176
     1
 41
30.0
176
     1
 62
     5
 63
     7
421
 16777215
176
     1
 74
     2
176
     1
 91
        2
176
     1
 64
     7
176
     1
 65
   257
176
     1
 75
     2
176
     1
175
     1
176
     1
 42
40.0
176
     1
 92
        0
176
     1
 66
   257
176
     1
 43
1.0
176
     1
 76
     1
176
     1
 77
     6
176
     1
 78
     2
176
     1
 67
     7
176
     1
 79
     3
176
     1
170
     0
176
     1
171
     0
176
     1
290
     0
176
     1
 93
        1
176
     1
 44
0.0
176
     1
173
     0
176
     1
  0
VISUALSTYLE
  5
2D8
102
{ACAD_REACTORS
330
2A
102
}
330
2A
100
AcDbVisualStyle
  2
JitterOff
 70
    20
177
     2
291
     1
 71
     2
176
     0
 72
     2
176
     0
 73
     0
176
     0
 90
        0
176
     0
 40
0.6
176
     0
 41
30.0
176
     0
 62
     5
 63
     7
421
 16777215
176
     0
 74
     1
176
     0
 91
        4
176
     0
 64
     7
176
     0
 65
   257
176
     0
 75
     1
176
     0
175
     1
176
     0
 42
1.0
176
     0
 92
       10
176
     2
 66
     7
176
     0
 43
1.0
176
     0
 76
     1
176
     0
 77
     6
176
     0
 78
     2
176
     0
 67
     7
176
     0
 79
     5
176
     0
170
     0
176
     0
171
     0
176
     0
290
     0
176
     0
 93
        1
176
     0
 44
0.0
176
     0
173
     0
176
     0
  0
VISUALSTYLE
  5
38
102
{ACAD_REACTORS
330
2A
102
}
330
2A
100
AcDbVisualStyle
  2
Linepattern
 70
    14
177
     2
291
     1
 71
     2
176
     1
 72
     2
176
     1
 73
     0
176
     1
 90
        0
176
     1
 40
-0.6
176
     1
 41
-30.0
176
     1
 62
     5
 63
     7
421
 16777215
176
     1
 74
     1
176
     1
 91
        4
176
     1
 64
     7
176
     1
 65
   257
176
     1
 75
     7
176
     1
175
     7
176
     1
 42
1.0
176
     1
 92
        8
176
     1
 66
     7
176
     1
 43
1.0
176
     1
 76
     1
176
     1
 77
     6
176
     1
 78
     2
176
     1
 67
     7
176
     1
 79
     5
176
     1
170
     0
176
     1
171
     0
176
     1
290
     0
176
     1
 93
        1
176
     1
 44
0.0
176
     1
173
     0
176
     1
  0
VISUALSTYLE
  5
2D9
102
{ACAD_REACTORS
330
2A
102
}
330
2A
100
AcDbVisualStyle
  2
OverhangOff
 70
    21
177
     2
291
     1
 71
     2
176
     0
 72
     2
176
     0
 73
     0
176
     0
 90
        0
176
     0
 40
0.6
176
     0
 41
30.0
176
     0
 62
     5
 63
     7
421
 16777215
176
     0
 74
     1
176
     0
 91
        4
176
     0
 64
     7
176
     0
 65
   257
176
     0
 75
     1
176
     0
175
     1
176
     0
 42
1.0
176
     0
 92
        9
176
     2
 66
     7
176
     0
 43
1.0
176
     0
 76
     1
176
     0
 77
     6
176
     0
 78
     2
176
     0
 67
     7
176
     0
 79
     5
176
     0
170
     0
176
     0
171
     0
176
     0
290
     0
176
     0
 93
        1
176
     0
 44
0.0
176
     0
173
     0
176
     0
  0
VISUALSTYLE
  5
33
102
{ACAD_REACTORS
330
2A
102
}
330
2A
100
AcDbVisualStyle
  2
Realistic
 70
     8
177
     2
291
     0
 71
     2
176
     1
 72
     2
176
     1
 73
     0
176
     1
 90
        0
176
     1
 40
-0.6
176
     1
 41
-30.0
176
     1
 62
     5
 63
     7
421
 16777215
176
     1
 74
     1
176
     1
 91
        0
176
     1
 64
     7
176
     1
 65
   257
176
     1
 75
     1
176
     1
175
     1
176
     1
 42
1.0
176
     1
 92
        8
176
     1
 66
     8
424
  7895160
176
     1
 43
1.0
176
     1
 76
     1
176
     1
 77
     6
176
     1
 78
     2
176
     1
 67
     7
176
     1
 79
     5
176
     1
170
     0
176
     1
171
     0
176
     1
290
     0
176
     1
 93
       13
176
     1
 44
0.0
176
     1
173
     0
176
     1
  0
VISUALSTYLE
  5
2DF
102
{ACAD_REACTORS
330
2A
102
}
330
2A
100
AcDbVisualStyle
  2
Shaded
 70
    27
177
     2
291
     0
 71
     2
176
     1
 72
     2
176
     1
 73
     1
176
     1
 90
        2
176
     1
 40
0.6
176
     1
 41
30.0
176
     1
 62
     5
 63
     7
421
 16777215
176
     1
 74
     0
176
     1
 91
        4
176
     1
 64
     7
176
     1
 65
   257
176
     1
 75
     1
176
     1
175
     1
176
     1
 42
1.0
176
     1
 92
        8
176
     1
 66
   257
176
     1
 43
1.0
176
     1
 76
     1
176
     1
 77
     6
176
     1
 78
     2
176
     1
 67
     8
425
  7895160
176
     1
 79
     3
176
     1
170
     0
176
     1
171
     0
176
     1
290
     0
176
     1
 93
        5
176
     1
 44
0.0
176
     1
173
     0
176
     1
  0
VISUALSTYLE
  5
2DE
102
{ACAD_REACTORS
330
2A
102
}
330
2A
100
AcDbVisualStyle
  2
Shaded with edges
 70
    26
177
     2
291
     0
 71
     2
176
     1
 72
     2
176
     1
 73
     1
176
     1
 90
        2
176
     1
 40
0.6
176
     1
 41
30.0
176
     1
 62
     5
 63
     7
421
 16777215
176
     1
 74
     1
176
     1
 91
       10
176
     1
 64
     7
176
     1
 65
   257
176
     1
 75
     2
176
     1
175
     1
176
     1
 42
1.0
176
     1
 92
        8
176
     1
 66
   257
176
     1
 43
1.0
176
     1
 76
     1
176
     1
 77
     6
176
     1
 78
     2
176
     1
 67
     7
176
     1
 79
     3
176
     1
170
     0
176
     1
171
     0
176
     1
290
     0
176
     1
 93
        5
176
     1
 44
0.0
176
     1
173
     0
176
     1
  0
VISUALSTYLE
  5
2DB
102
{ACAD_REACTORS
330
2A
102
}
330
2A
100
AcDbVisualStyle
  2
Shades of Gray
 70
    23
177
     2
291
     0
 71
     2
176
     1
 72
     2
176
     1
 73
     3
176
     1
 90
        0
176
     1
 40
0.6
176
     1
 41
30.0
176
     1
 62
     5
 63
     7
421
 16777215
176
     1
 74
     2
176
     1
 91
        2
176
     1
 64
     7
176
     1
 65
     7
176
     1
 75
     1
176
     1
175
     1
176
     1
 42
40.0
176
     1
 92
        8
176
     1
 66
     7
176
     1
 43
1.0
176
     1
 76
     1
176
     1
 77
     6
176
     1
 78
     2
176
     1
 67
     7
176
     1
 79
     3
176
     1
170
     0
176
     1
171
     0
176
     1
290
     0
176
     1
 93
        1
176
     1
 44
0.0
176
     1
173
     0
176
     1
  0
VISUALSTYLE
  5
2DC
102
{ACAD_REACTORS
330
2A
102
}
330
2A
100
AcDbVisualStyle
  2
Sketchy
 70
    24
177
     2
291
     0
 71
     1
176
     1
 72
     2
176
     1
 73
     2
176
     1
 90
        0
176
     1
 40
0.6
176
     1
 41
30.0
176
     1
 62
     5
 63
     7
421
 16777215
176
     1
 74
     2
176
     1
 91
        2
176
     1
 64
     7
176
     1
 65
     7
176
     1
 75
     1
176
     1
175
     1
176
     1
 42
40.0
176
     1
 92
       11
176
     1
 66
     7
176
     1
 43
1.0
176
     1
 76
     1
176
     1
 77
     6
176
     1
 78
     2
176
     1
 67
     7
176
     1
 79
     6
176
     1
170
     0
176
     1
171
     0
176
     1
290
     0
176
     1
 93
        1
176
     1
 44
0.0
176
     1
173
     0
176
     1
  0
VISUALSTYLE
  5
37
102
{ACAD_REACTORS
330
2A
102
}
330
2A
100
AcDbVisualStyle
  2
Thicken
 70
    13
177
     2
291
     1
 71
     2
176
     1
 72
     2
176
     1
 73
     0
176
     1
 90
        0
176
     1
 40
-0.6
176
     1
 41
-30.0
176
     1
 62
     5
 63
     7
421
 16777215
176
     1
 74
     1
176
     1
 91
        4
176
     1
 64
     7
176
     1
 65
   257
176
     1
 75
     1
176
     1
175
     1
176
     1
 42
1.0
176
     1
 92
       12
176
     1
 66
     7
176
     1
 43
1.0
176
     1
 76
     1
176
     1
 77
     6
176
     1
 78
     2
176
     1
 67
     7
176
     1
 79
     5
176
     1
170
     0
176
     1
171
     0
176
     1
290
     0
176
     1
 93
        1
176
     1
 44
0.0
176
     1
173
     0
176
     1
  0
VISUALSTYLE
  5
2D6
102
{ACAD_REACTORS
330
2A
102
}
330
2A
100
AcDbVisualStyle
  2
Wireframe
 70
     5
177
     2
291
     0
 71
     0
176
     1
 72
     2
176
     1
 73
     0
176
     1
 90
        0
176
     1
 40
0.6
176
     1
 41
30.0
176
     1
 62
     5
 63
     7
421
 16777215
176
     1
 74
     1
176
     1
 91
        4
176
     1
 64
     7
176
     1
 65
   257
176
     1
 75
     1
176
     1
175
     1
176
     1
 42
1.0
176
     1
 92
        0
176
     1
 66
   257
176
     1
 43
1.0
176
     1
 76
     1
176
     1
 77
     6
176
     1
 78
     2
176
     1
 67
     7
176
     1
 79
     3
176
     1
170
     0
176
     1
171
     0
176
     1
290
     0
176
     1
 93
        1
176
     1
 44
0.0
176
     1
173
     0
176
     1
  0
VISUALSTYLE
  5
2DD
102
{ACAD_REACTORS
330
2A
102
}
330
2A
100
AcDbVisualStyle
  2
X-Ray
 70
    25
177
     2
291
     0
 71
     2
176
     1
 72
     2
176
     1
 73
     1
176
     1
 90
        1
176
     1
 40
0.5
176
     1
 41
30.0
176
     1
 62
     5
 63
     7
421
 16777215
176
     1
 74
     1
176
     1
 91
        0
176
     1
 64
     7
176
     1
 65
   257
176
     1
 75
     1
176
     1
175
     1
176
     1
 42
1.0
176
     1
 92
        8
176
     1
 66
     7
176
     1
 43
1.0
176
     1
 76
     1
176
     1
 77
     6
176
     1
 78
     2
176
     1
 67
     7
176
     1
 79
     3
176
     1
170
     0
176
     1
171
     0
176
     1
290
     0
176
     1
 93
       13
176
     1
 44
0.0
176
     1
173
     0
176
     1
  0
DICTIONARYVAR
  5
2E5
102
{ACAD_REACTORS
330
2E4
102
}
330
2E4
100
DictionaryVariables
280
     0
  1
1:1
  0
DICTIONARYVAR
  5
2E7
102
{ACAD_REACTORS
330
2E4
102
}
330
2E4
100
DictionaryVariables
280
     0
  1
Standard
  0
DICTIONARYVAR
  5
2E6
102
{ACAD_REACTORS
330
2E4
102
}
330
2E4
100
DictionaryVariables
280
     0
  1
Standard
  0
DICTIONARYVAR
  5
2E8
102
{ACAD_REACTORS
330
2E4
102
}
330
2E4
100
DictionaryVariables
280
     0
  1
0
  0
DICTIONARY
  5
41F
330
2E0
100
AcDbDictionary
280
     1
281
     1
  3
ACAD_ROUNDTRIP_2008_TABLESTYLE_CELLSTYLEMAP
360
420
  0
CELLSTYLEMAP
  5
420
102
{ACAD_REACTORS
330
41F
102
}
330
41F
100
AcDbCellStyleMap
 90
        3
300
CELLSTYLE
  1
TABLEFORMAT_BEGIN
 90
        5
170
     1
 91
        0
 92
    32768
 62
   257
 93
        1
300
CONTENTFORMAT
  1
CONTENTFORMAT_BEGIN
 90
        0
 91
        0
 92
        4
 93
        0
300

 40
0.0
140
1.0
 94
        5
 62
     0
340
11
144
6.0
309
CONTENTFORMAT_END
171
     1
301
MARGIN
  1
CELLMARGIN_BEGIN
 40
1.5
 40
1.5
 40
1.5
 40
1.5
 40
1.5
 40
1.5
309
CELLMARGIN_END
 94
        6
 95
        1
302
GRIDFORMAT
  1
GRIDFORMAT_BEGIN
 90
        0
 91
        1
 62
     0
 92
       -2
340
14
 93
        0
 40
0.045
309
GRIDFORMAT_END
 95
        2
302
GRIDFORMAT
  1
GRIDFORMAT_BEGIN
 90
        0
 91
        1
 62
     0
 92
       -2
340
14
 93
        0
 40
0.045
309
GRIDFORMAT_END
 95
        4
302
GRIDFORMAT
  1
GRIDFORMAT_BEGIN
 90
        0
 91
        1
 62
     0
 92
       -2
340
14
 93
        0
 40
0.045
309
GRIDFORMAT_END
 95
        8
302
GRIDFORMAT
  1
GRIDFORMAT_BEGIN
 90
        0
 91
        1
 62
     0
 92
       -2
340
14
 93
        0
 40
0.045
309
GRIDFORMAT_END
 95
       16
302
GRIDFORMAT
  1
GRIDFORMAT_BEGIN
 90
        0
 91
        1
 62
     0
 92
       -2
340
14
 93
        0
 40
0.045
309
GRIDFORMAT_END
 95
       32
302
GRIDFORMAT
  1
GRIDFORMAT_BEGIN
 90
        0
 91
        1
 62
     0
 92
       -2
340
14
 93
        0
 40
0.045
309
GRIDFORMAT_END
309
TABLEFORMAT_END
  1
CELLSTYLE_BEGIN
 90
        1
 91
        1
300
_TITLE
309
CELLSTYLE_END
300
CELLSTYLE
  1
TABLEFORMAT_BEGIN
 90
        5
170
     1
 91
        0
 92
        0
 62
   257
 93
        1
300
CONTENTFORMAT
  1
CONTENTFORMAT_BEGIN
 90
        0
 91
        0
 92
        4
 93
        0
300

 40
0.0
140
1.0
 94
        5
 62
     0
340
11
144
4.5
309
CONTENTFORMAT_END
171
     1
301
MARGIN
  1
CELLMARGIN_BEGIN
 40
1.5
 40
1.5
 40
1.5
 40
1.5
 40
1.5
 40
1.5
309
CELLMARGIN_END
 94
        6
 95
        1
302
GRIDFORMAT
  1
GRIDFORMAT_BEGIN
 90
        0
 91
        1
 62
     0
 92
       -2
340
14
 93
        0
 40
0.045
309
GRIDFORMAT_END
 95
        2
302
GRIDFORMAT
  1
GRIDFORMAT_BEGIN
 90
        0
 91
        1
 62
     0
 92
       -2
340
14
 93
        0
 40
0.045
309
GRIDFORMAT_END
 95
        4
302
GRIDFORMAT
  1
GRIDFORMAT_BEGIN
 90
        0
 91
        1
 62
     0
 92
       -2
340
14
 93
        0
 40
0.045
309
GRIDFORMAT_END
 95
        8
302
GRIDFORMAT
  1
GRIDFORMAT_BEGIN
 90
        0
 91
        1
 62
     0
 92
       -2
340
14
 93
        0
 40
0.045
309
GRIDFORMAT_END
 95
       16
302
GRIDFORMAT
  1
GRIDFORMAT_BEGIN
 90
        0
 91
        1
 62
     0
 92
       -2
340
14
 93
        0
 40
0.045
309
GRIDFORMAT_END
 95
       32
302
GRIDFORMAT
  1
GRIDFORMAT_BEGIN
 90
        0
 91
        1
 62
     0
 92
       -2
340
14
 93
        0
 40
0.045
309
GRIDFORMAT_END
309
TABLEFORMAT_END
  1
CELLSTYLE_BEGIN
 90
        2
 91
        1
300
_HEADER
309
CELLSTYLE_END
300
CELLSTYLE
  1
TABLEFORMAT_BEGIN
 90
        5
170
     1
 91
        0
 92
        0
 62
   257
 93
        1
300
CONTENTFORMAT
  1
CONTENTFORMAT_BEGIN
 90
        0
 91
        0
 92
        4
 93
        0
300

 40
0.0
140
1.0
 94
        2
 62
     0
340
11
144
4.5
309
CONTENTFORMAT_END
171
     1
301
MARGIN
  1
CELLMARGIN_BEGIN
 40
1.5
 40
1.5
 40
1.5
 40
1.5
 40
1.5
 40
1.5
309
CELLMARGIN_END
 94
        6
 95
        1
302
GRIDFORMAT
  1
GRIDFORMAT_BEGIN
 90
        0
 91
        1
 62
     0
 92
       -2
340
14
 93
        0
 40
0.045
309
GRIDFORMAT_END
 95
        2
302
GRIDFORMAT
  1
GRIDFORMAT_BEGIN
 90
        0
 91
        1
 62
     0
 92
       -2
340
14
 93
        0
 40
0.045
309
GRIDFORMAT_END
 95
        4
302
GRIDFORMAT
  1
GRIDFORMAT_BEGIN
 90
        0
 91
        1
 62
     0
 92
       -2
340
14
 93
        0
 40
0.045
309
GRIDFORMAT_END
 95
        8
302
GRIDFORMAT
  1
GRIDFORMAT_BEGIN
 90
        0
 91
        1
 62
     0
 92
       -2
340
14
 93
        0
 40
0.045
309
GRIDFORMAT_END
 95
       16
302
GRIDFORMAT
  1
GRIDFORMAT_BEGIN
 90
        0
 91
        1
 62
     0
 92
       -2
340
14
 93
        0
 40
0.045
309
GRIDFORMAT_END
 95
       32
302
GRIDFORMAT
  1
GRIDFORMAT_BEGIN
 90
        0
 91
        1
 62
     0
 92
       -2
340
14
 93
        0
 40
0.045
309
GRIDFORMAT_END
309
TABLEFORMAT_END
  1
CELLSTYLE_BEGIN
 90
        3
 91
        2
300
_DATA
309
CELLSTYLE_END
  0
ENDSEC
  0
EOF
